M48
; DRILL file {KiCad 9.0.4+dfsg-1} date 2025-08-30T10:27:49-0700
; FORMAT={-:-/ absolute / metric / decimal}
; #@! TF.CreationDate,2025-08-30T10:27:49-07:00
; #@! TF.GenerationSoftware,Kicad,Pcbnew,9.0.4+dfsg-1
; #@! TF.FileFunction,Plated,1,4,PTH
FMAT,2
METRIC
; #@! TA.AperFunction,Plated,PTH,ViaDrill
T1C0.300
; #@! TA.AperFunction,Plated,PTH,ComponentDrill
T2C0.500
; #@! TA.AperFunction,Plated,PTH,ComponentDrill
T3C0.650
; #@! TA.AperFunction,Plated,PTH,ComponentDrill
T4C0.750
; #@! TA.AperFunction,Plated,PTH,ComponentDrill
T5C0.762
; #@! TA.AperFunction,Plated,PTH,ComponentDrill
T6C0.800
; #@! TA.AperFunction,Plated,PTH,ComponentDrill
T7C0.900
; #@! TA.AperFunction,Plated,PTH,ComponentDrill
T8C1.000
; #@! TA.AperFunction,Plated,PTH,ComponentDrill
T9C1.020
; #@! TA.AperFunction,Plated,PTH,ComponentDrill
T10C1.200
%
G90
G05
T1
X78.6Y-99.8
X78.9Y-78.3
X79.6Y-87.4
X82.45Y-100.05
X82.5Y-82.35
X83.0Y-66.3
X83.6Y-137.0
X83.6Y-142.844
X84.0Y-83.95
X86.8Y-104.3
X88.15Y-75.85
X88.15Y-77.4
X89.5Y-78.8
X91.15Y-79.05
X91.3Y-95.55
X92.0Y-79.85
X92.0Y-82.45
X92.017Y-85.04
X92.15Y-100.75
X92.2Y-106.95
X93.4Y-66.35
X93.5Y-75.45
X95.4Y-87.65
X96.4Y-71.4
X97.0Y-103.95
X97.25Y-77.65
X98.65Y-142.2
X99.8Y-137.9
X99.8Y-143.64
X100.75Y-88.45
X102.2Y-66.5
X102.2Y-67.85
X105.377Y-146.601
X105.8Y-135.0
X108.95Y-71.35
X109.15Y-137.15
X109.2Y-140.1
X109.25Y-143.05
X109.3Y-146.0
X113.8Y-66.55
X122.65Y-61.3
X123.1Y-135.85
X123.4Y-60.25
X124.0Y-131.45
X131.05Y-131.95
T2
X71.15Y-66.7
X71.15Y-67.7
X71.15Y-68.7
X73.3Y-134.9
X73.3Y-135.9
X73.35Y-140.4
X73.35Y-141.4
X73.35Y-142.4
X76.4Y-57.025
X77.4Y-57.025
X78.4Y-57.025
X80.2Y-93.6
X81.05Y-120.55
X81.05Y-121.55
X81.05Y-122.55
X81.05Y-123.55
X81.2Y-93.6
X119.85Y-53.85
X119.85Y-54.85
X119.85Y-55.85
T3
X94.065Y-99.7
X95.335Y-99.7
T4
X86.46Y-131.318
X89.0Y-131.318
X89.96Y-89.832
X92.5Y-89.832
X96.31Y-67.582
X98.85Y-67.582
X99.01Y-94.832
X101.55Y-94.832
X104.46Y-131.268
X107.0Y-131.268
T5
X94.16Y-125.832
X96.16Y-125.832
X98.16Y-125.832
X100.16Y-125.832
T6
X86.26Y-71.7
X91.14Y-71.7
T8
X64.954Y-62.634
X64.954Y-65.174
X64.954Y-67.714
X64.954Y-70.254
X64.954Y-72.794
X64.954Y-75.334
X64.954Y-77.874
X64.954Y-80.414
X64.954Y-82.954
X64.954Y-85.494
X64.954Y-88.034
X64.954Y-90.574
X64.954Y-93.114
X64.954Y-95.654
X64.954Y-98.194
X64.954Y-100.734
X64.954Y-103.274
X64.954Y-105.814
X64.954Y-108.354
X64.954Y-110.894
X64.954Y-113.434
X64.954Y-115.974
X64.954Y-118.514
X64.954Y-121.054
X64.954Y-123.594
X64.954Y-126.134
X64.954Y-128.674
X64.954Y-131.214
X64.954Y-133.754
X64.954Y-136.294
X64.954Y-138.834
X64.954Y-141.374
X64.954Y-143.914
X64.954Y-146.454
X64.954Y-148.994
X64.954Y-151.534
X67.494Y-62.634
X67.494Y-65.174
X67.494Y-67.714
X67.494Y-70.254
X67.494Y-72.794
X67.494Y-75.334
X67.494Y-77.874
X67.494Y-80.414
X67.494Y-82.954
X67.494Y-85.494
X67.494Y-88.034
X67.494Y-90.574
X67.494Y-93.114
X67.494Y-95.654
X67.494Y-98.194
X67.494Y-100.734
X67.494Y-103.274
X67.494Y-105.814
X67.494Y-108.354
X67.494Y-110.894
X67.494Y-113.434
X67.494Y-115.974
X67.494Y-118.514
X67.494Y-121.054
X67.494Y-123.594
X67.494Y-126.134
X67.494Y-128.674
X67.494Y-131.214
X67.494Y-133.754
X67.494Y-136.294
X67.494Y-138.834
X67.494Y-141.374
X67.494Y-143.914
X67.494Y-146.454
X67.494Y-148.994
X67.494Y-151.534
X125.902Y-62.634
X125.902Y-65.174
X125.902Y-67.714
X125.902Y-70.254
X125.902Y-72.794
X125.902Y-75.334
X125.902Y-77.874
X125.902Y-80.414
X125.902Y-82.954
X125.902Y-85.494
X125.902Y-88.034
X125.902Y-90.574
X125.902Y-93.114
X125.902Y-95.654
X125.902Y-98.194
X125.902Y-100.734
X125.902Y-103.274
X125.902Y-105.814
X125.902Y-108.354
X125.902Y-110.894
X125.902Y-113.434
X125.902Y-115.974
X125.902Y-118.514
X125.902Y-121.054
X125.902Y-123.594
X125.902Y-126.134
X125.902Y-128.674
X125.902Y-131.214
X125.902Y-133.754
X125.902Y-136.294
X125.902Y-138.834
X125.902Y-141.374
X125.902Y-143.914
X125.902Y-146.454
X125.902Y-148.994
X125.902Y-151.534
X128.442Y-62.634
X128.442Y-65.174
X128.442Y-67.714
X128.442Y-70.254
X128.442Y-72.794
X128.442Y-75.334
X128.442Y-77.874
X128.442Y-80.414
X128.442Y-82.954
X128.442Y-85.494
X128.442Y-88.034
X128.442Y-90.574
X128.442Y-93.114
X128.442Y-95.654
X128.442Y-98.194
X128.442Y-100.734
X128.442Y-103.274
X128.442Y-105.814
X128.442Y-108.354
X128.442Y-110.894
X128.442Y-113.434
X128.442Y-115.974
X128.442Y-118.514
X128.442Y-121.054
X128.442Y-123.594
X128.442Y-126.134
X128.442Y-128.674
X128.442Y-131.214
X128.442Y-133.754
X128.442Y-136.294
X128.442Y-138.834
X128.442Y-141.374
X128.442Y-143.914
X128.442Y-146.454
X128.442Y-148.994
X128.442Y-151.534
T9
X72.57Y-72.77
X72.57Y-75.31
X72.57Y-77.85
X72.57Y-80.39
X72.57Y-82.93
X72.57Y-85.47
X72.57Y-88.01
X72.57Y-90.55
X72.57Y-95.63
X72.57Y-98.17
X72.57Y-100.71
X72.57Y-103.25
X72.57Y-105.79
X72.57Y-108.33
X72.57Y-110.87
X72.57Y-113.41
X72.57Y-115.95
X72.57Y-118.49
X72.57Y-121.03
X72.57Y-123.57
X72.57Y-126.11
X72.57Y-128.65
X72.57Y-131.19
X75.11Y-72.77
X75.11Y-75.31
X75.11Y-77.85
X75.11Y-80.39
X75.11Y-82.93
X75.11Y-85.47
X75.11Y-88.01
X75.11Y-90.55
X75.11Y-95.63
X75.11Y-98.17
X75.11Y-100.71
X75.11Y-103.25
X75.11Y-105.79
X75.11Y-108.33
X75.11Y-110.87
X75.11Y-113.41
X75.11Y-115.95
X75.11Y-118.49
X75.11Y-121.03
X75.11Y-123.57
X75.11Y-126.11
X75.11Y-128.65
X75.11Y-131.19
X118.29Y-63.626
X118.29Y-66.166
X118.29Y-68.706
X118.29Y-71.246
X118.29Y-73.786
X118.29Y-76.326
X118.29Y-78.866
X118.29Y-81.406
X118.29Y-83.946
X118.29Y-86.486
X118.29Y-90.55
X118.29Y-93.09
X118.29Y-95.63
X118.29Y-98.17
X118.29Y-100.71
X118.29Y-103.25
X118.29Y-105.79
X118.29Y-108.33
X118.29Y-110.87
X118.29Y-113.41
X118.29Y-115.95
X118.29Y-118.49
X118.29Y-121.03
X118.29Y-123.57
X118.29Y-126.11
X118.29Y-128.65
X118.29Y-131.19
X120.83Y-63.626
X120.83Y-66.166
X120.83Y-68.706
X120.83Y-71.246
X120.83Y-73.786
X120.83Y-76.326
X120.83Y-78.866
X120.83Y-81.406
X120.83Y-83.946
X120.83Y-86.486
X120.83Y-90.55
X120.83Y-93.09
X120.83Y-95.63
X120.83Y-98.17
X120.83Y-100.71
X120.83Y-103.25
X120.83Y-105.79
X120.83Y-108.33
X120.83Y-110.87
X120.83Y-113.41
X120.83Y-115.95
X120.83Y-118.49
X120.83Y-121.03
X120.83Y-123.57
X120.83Y-126.11
X120.83Y-128.65
X120.83Y-131.19
T10
X94.9Y-118.75
X99.45Y-118.75
T7
G00X82.14Y-63.75
M15
G01X82.14Y-62.15
M16
G05
G00X93.54Y-63.75
M15
G01X93.54Y-62.15
M16
G05
G00X102.0Y-63.8
M15
G01X102.0Y-62.2
M16
G05
G00X113.4Y-63.8
M15
G01X113.4Y-62.2
M16
G05
M30
