ISO-10303-21;
HEADER;
FILE_DESCRIPTION(('FreeCAD Model'),'2;1');
FILE_NAME('Open CASCADE Shape Model','2026-07-15T23:48:35',('FreeCAD'),(
    'FreeCAD'),'Open CASCADE STEP processor 7.9','FreeCAD','Unknown');
FILE_SCHEMA(('AUTOMOTIVE_DESIGN { 1 0 10303 214 1 1 1 1 }'));
ENDSEC;
DATA;
#1 = APPLICATION_PROTOCOL_DEFINITION('international standard',
  'automotive_design',2000,#2);
#2 = APPLICATION_CONTEXT(
  'core data for automotive mechanical design processes');
#3 = SHAPE_DEFINITION_REPRESENTATION(#4,#10);
#4 = PRODUCT_DEFINITION_SHAPE('','',#5);
#5 = PRODUCT_DEFINITION('design','',#6,#9);
#6 = PRODUCT_DEFINITION_FORMATION('','',#7);
#7 = PRODUCT('Open CASCADE STEP translator 7.9 1',
  'Open CASCADE STEP translator 7.9 1','',(#8));
#8 = PRODUCT_CONTEXT('',#2,'mechanical');
#9 = PRODUCT_DEFINITION_CONTEXT('part definition',#2,'design');
#10 = ADVANCED_BREP_SHAPE_REPRESENTATION('',(#11,#15),#777);
#11 = AXIS2_PLACEMENT_3D('',#12,#13,#14);
#12 = CARTESIAN_POINT('',(0.,0.,0.));
#13 = DIRECTION('',(0.,0.,1.));
#14 = DIRECTION('',(1.,0.,-0.));
#15 = MANIFOLD_SOLID_BREP('',#16);
#16 = CLOSED_SHELL('',(#17,#261,#445,#629,#753,#765));
#17 = ADVANCED_FACE('',(#18),#152,.F.);
#18 = FACE_BOUND('',#19,.F.);
#19 = EDGE_LOOP('',(#20,#81,#88,#147));
#20 = ORIENTED_EDGE('',*,*,#21,.F.);
#21 = EDGE_CURVE('',#22,#24,#26,.T.);
#22 = VERTEX_POINT('',#23);
#23 = CARTESIAN_POINT('',(162.72,-69.9,-2.6));
#24 = VERTEX_POINT('',#25);
#25 = CARTESIAN_POINT('',(283.92,-64.1,-2.6));
#26 = B_SPLINE_CURVE_WITH_KNOTS('',10,(#27,#28,#29,#30,#31,#32,#33,#34,
    #35,#36,#37,#38,#39,#40,#41,#42,#43,#44,#45,#46,#47,#48,#49,#50,#51,
    #52,#53,#54,#55,#56,#57,#58,#59,#60,#61,#62,#63,#64,#65,#66,#67,#68,
    #69,#70,#71,#72,#73,#74,#75,#76,#77,#78,#79,#80),.UNSPECIFIED.,.F.,
  .F.,(11,9,8,9,8,9,11),(0.,7.,37.78250314708,68.56500629416,
    99.34750944124,130.13001258832,137.13001258832),.UNSPECIFIED.);
#27 = CARTESIAN_POINT('',(162.72,-69.9,-2.6));
#28 = CARTESIAN_POINT('',(162.58957411056,-69.8703930604,-1.847857722732
    ));
#29 = CARTESIAN_POINT('',(162.48227752305,-69.84078612078,
    -1.105601893778));
#30 = CARTESIAN_POINT('',(162.39788083426,-69.81117918122,
    -0.373375493539));
#31 = CARTESIAN_POINT('',(162.33616709402,-69.78157224156,0.348680084354
    ));
#32 = CARTESIAN_POINT('',(162.29693199418,-69.75196530203,1.060422277761
    ));
#33 = CARTESIAN_POINT('',(162.27998405592,-69.72235836237,1.761704600739
    ));
#34 = CARTESIAN_POINT('',(162.28514481906,-69.69275142281,2.452373888259
    ));
#35 = CARTESIAN_POINT('',(162.31224902938,-69.66314448319,3.132267540921
    ));
#36 = CARTESIAN_POINT('',(162.36114482754,-69.6335375436,3.801210769664)
  );
#37 = CARTESIAN_POINT('',(162.74193367764,-69.4737340738,7.351703140137)
  );
#38 = CARTESIAN_POINT('',(163.47082370283,-69.34353754359,
    10.028288174815));
#39 = CARTESIAN_POINT('',(164.60512434181,-69.21334101341,
    12.501727781546));
#40 = CARTESIAN_POINT('',(166.1380535396,-69.08314448319,14.777979554003
    ));
#41 = CARTESIAN_POINT('',(168.0425816301,-68.95294795301,16.832691305733
    ));
#42 = CARTESIAN_POINT('',(170.27395407499,-68.82275142279,
    18.667343861368));
#43 = CARTESIAN_POINT('',(172.79339725554,-68.6925548926,20.301209664681
    ));
#44 = CARTESIAN_POINT('',(175.57619843435,-68.5623583624,21.742767231485
    ));
#45 = CARTESIAN_POINT('',(181.60509973384,-68.301965302,24.27251633478)
  );
#46 = CARTESIAN_POINT('',(188.45240569882,-68.0415722416,26.151109978232
    ));
#47 = CARTESIAN_POINT('',(192.0531666247,-67.9113757114,26.941808325797)
  );
#48 = CARTESIAN_POINT('',(195.80457621019,-67.78117918119,27.59795450116
    ));
#49 = CARTESIAN_POINT('',(199.68074408543,-67.650982651,28.133406384275)
  );
#50 = CARTESIAN_POINT('',(203.6559985459,-67.52078612079,28.561815984009
    ));
#51 = CARTESIAN_POINT('',(207.70465108097,-67.3905895906,28.89663887346)
  );
#52 = CARTESIAN_POINT('',(211.8008756796,-67.26039306039,29.151170509311
    ));
#53 = CARTESIAN_POINT('',(215.91870291266,-67.1301965302,29.338609435557
    ));
#54 = CARTESIAN_POINT('',(224.14555467256,-66.86980346979,
    29.605685307139));
#55 = CARTESIAN_POINT('',(228.27016810918,-66.73960693961,
    29.687290416284));
#56 = CARTESIAN_POINT('',(232.38237591221,-66.60941040937,
    29.703784680514));
#57 = CARTESIAN_POINT('',(236.45939628963,-66.47921387924,
    29.641970728365));
#58 = CARTESIAN_POINT('',(240.47885526443,-66.34901734895,
    29.488231716716));
#59 = CARTESIAN_POINT('',(244.41918658164,-66.21882081882,
    29.228507034909));
#60 = CARTESIAN_POINT('',(248.26037628543,-66.08862428858,
    28.848153064356));
#61 = CARTESIAN_POINT('',(251.98459316645,-65.9584277584,28.331198229857
    ));
#62 = CARTESIAN_POINT('',(259.16789935121,-65.69803469799,
    26.985804921177));
#63 = CARTESIAN_POINT('',(265.76365046482,-65.4376416376,24.914488331282
    ));
#64 = CARTESIAN_POINT('',(268.89897257401,-65.30744510739,
    23.670826607871));
#65 = CARTESIAN_POINT('',(271.86649176686,-65.1772485772,22.193209032901
    ));
#66 = CARTESIAN_POINT('',(274.62246422693,-65.04705204699,
    20.413051631529));
#67 = CARTESIAN_POINT('',(277.19062531728,-64.91685551679,18.34251143766
    ));
#68 = CARTESIAN_POINT('',(279.47670648679,-64.78665898659,
    15.783255725764));
#69 = CARTESIAN_POINT('',(281.29903300032,-64.65646245639,
    12.831249432428));
#70 = CARTESIAN_POINT('',(282.61163853007,-64.52626592619,9.554598213181
    ));
#71 = CARTESIAN_POINT('',(283.5700507574,-64.36646245639,5.200317444406)
  );
#72 = CARTESIAN_POINT('',(283.72000355115,-64.3368555168,4.379978290511)
  );
#73 = CARTESIAN_POINT('',(283.84224968215,-64.30724857718,3.546730278967
    ));
#74 = CARTESIAN_POINT('',(283.93673310858,-64.27764163762,2.701219919381
    ));
#75 = CARTESIAN_POINT('',(284.003426531,-64.24803469797,1.844035486424)
  );
#76 = CARTESIAN_POINT('',(284.0423226645,-64.21842775841,0.975710865974)
  );
#77 = CARTESIAN_POINT('',(284.05342550154,-64.18882081878,
    9.672940118064E-02));
#78 = CARTESIAN_POINT('',(284.03674158453,-64.1592138792,-0.792472261389
    ));
#79 = CARTESIAN_POINT('',(283.9922712703,-64.12960693959,-1.691500325676
    ));
#80 = CARTESIAN_POINT('',(283.92,-64.1,-2.6));
#81 = ORIENTED_EDGE('',*,*,#82,.T.);
#82 = EDGE_CURVE('',#22,#83,#85,.T.);
#83 = VERTEX_POINT('',#84);
#84 = CARTESIAN_POINT('',(162.72,-57.9,-2.6));
#85 = B_SPLINE_CURVE_WITH_KNOTS('',1,(#86,#87),.UNSPECIFIED.,.F.,.F.,(2,
    2),(0.,1.),.PIECEWISE_BEZIER_KNOTS.);
#86 = CARTESIAN_POINT('',(162.72,-69.9,-2.6));
#87 = CARTESIAN_POINT('',(162.72,-57.9,-2.6));
#88 = ORIENTED_EDGE('',*,*,#89,.T.);
#89 = EDGE_CURVE('',#83,#90,#92,.T.);
#90 = VERTEX_POINT('',#91);
#91 = CARTESIAN_POINT('',(283.92,-63.7,-2.6));
#92 = B_SPLINE_CURVE_WITH_KNOTS('',10,(#93,#94,#95,#96,#97,#98,#99,#100,
    #101,#102,#103,#104,#105,#106,#107,#108,#109,#110,#111,#112,#113,
    #114,#115,#116,#117,#118,#119,#120,#121,#122,#123,#124,#125,#126,
    #127,#128,#129,#130,#131,#132,#133,#134,#135,#136,#137,#138,#139,
    #140,#141,#142,#143,#144,#145,#146),.UNSPECIFIED.,.F.,.F.,(11,9,8,9,
    8,9,11),(0.,7.,37.78250314708,68.56500629416,99.34750944124,
    130.13001258832,137.13001258832),.UNSPECIFIED.);
#93 = CARTESIAN_POINT('',(162.72,-57.9,-2.6));
#94 = CARTESIAN_POINT('',(162.58957411056,-57.9296069396,-1.847857722732
    ));
#95 = CARTESIAN_POINT('',(162.48227752304,-57.95921387919,
    -1.105601893778));
#96 = CARTESIAN_POINT('',(162.39788083428,-57.9888208188,-0.373375493539
    ));
#97 = CARTESIAN_POINT('',(162.33616709398,-58.01842775838,0.348680084354
    ));
#98 = CARTESIAN_POINT('',(162.29693199422,-58.048034698,1.060422277761)
  );
#99 = CARTESIAN_POINT('',(162.2799840559,-58.07764163759,1.761704600739)
  );
#100 = CARTESIAN_POINT('',(162.28514481908,-58.1072485772,2.452373888259
    ));
#101 = CARTESIAN_POINT('',(162.31224902937,-58.13685551679,
    3.132267540921));
#102 = CARTESIAN_POINT('',(162.36114482754,-58.16646245639,
    3.801210769664));
#103 = CARTESIAN_POINT('',(162.74193367764,-58.32626592619,
    7.351703140137));
#104 = CARTESIAN_POINT('',(163.47082370283,-58.45646245639,
    10.028288174816));
#105 = CARTESIAN_POINT('',(164.60512434183,-58.5866589866,
    12.501727781546));
#106 = CARTESIAN_POINT('',(166.13805353957,-58.71685551679,
    14.777979554004));
#107 = CARTESIAN_POINT('',(168.04258163013,-58.847052047,16.832691305732
    ));
#108 = CARTESIAN_POINT('',(170.27395407497,-58.97724857719,
    18.667343861369));
#109 = CARTESIAN_POINT('',(172.79339725555,-59.10744510739,
    20.30120966468));
#110 = CARTESIAN_POINT('',(175.57619843435,-59.23764163759,
    21.742767231486));
#111 = CARTESIAN_POINT('',(181.60509973384,-59.49803469799,
    24.27251633478));
#112 = CARTESIAN_POINT('',(188.45240569882,-59.75842775839,
    26.151109978233));
#113 = CARTESIAN_POINT('',(192.0531666247,-59.88862428859,
    26.941808325796));
#114 = CARTESIAN_POINT('',(195.80457621019,-60.0188208188,
    27.597954501163));
#115 = CARTESIAN_POINT('',(199.68074408543,-60.14901734899,
    28.133406384271));
#116 = CARTESIAN_POINT('',(203.65599854589,-60.2792138792,
    28.561815984012));
#117 = CARTESIAN_POINT('',(207.70465108097,-60.40941040939,
    28.896638873458));
#118 = CARTESIAN_POINT('',(211.8008756796,-60.5396069396,29.151170509312
    ));
#119 = CARTESIAN_POINT('',(215.91870291266,-60.6698034698,
    29.338609435557));
#120 = CARTESIAN_POINT('',(224.14555467256,-60.93019653019,
    29.60568530714));
#121 = CARTESIAN_POINT('',(228.27016810919,-61.06039306041,
    29.687290416284));
#122 = CARTESIAN_POINT('',(232.38237591219,-61.19058959057,
    29.703784680516));
#123 = CARTESIAN_POINT('',(236.45939628966,-61.32078612083,
    29.641970728363));
#124 = CARTESIAN_POINT('',(240.4788552644,-61.45098265097,
    29.488231716718));
#125 = CARTESIAN_POINT('',(244.41918658165,-61.58117918122,
    29.228507034907));
#126 = CARTESIAN_POINT('',(248.26037628543,-61.71137571139,
    28.848153064357));
#127 = CARTESIAN_POINT('',(251.98459316645,-61.8415722416,
    28.331198229857));
#128 = CARTESIAN_POINT('',(259.16789935121,-62.10196530199,
    26.985804921177));
#129 = CARTESIAN_POINT('',(265.76365046482,-62.3623583624,
    24.914488331282));
#130 = CARTESIAN_POINT('',(268.89897257402,-62.49255489259,
    23.670826607871));
#131 = CARTESIAN_POINT('',(271.86649176686,-62.62275142281,
    22.193209032901));
#132 = CARTESIAN_POINT('',(274.62246422692,-62.75294795298,
    20.413051631529));
#133 = CARTESIAN_POINT('',(277.1906253173,-62.88314448321,
    18.342511437659));
#134 = CARTESIAN_POINT('',(279.47670648677,-63.01334101339,
    15.783255725765));
#135 = CARTESIAN_POINT('',(281.29903300033,-63.1435375436,
    12.831249432428));
#136 = CARTESIAN_POINT('',(282.61163853006,-63.2737340738,9.554598213181
    ));
#137 = CARTESIAN_POINT('',(283.5700507574,-63.4335375436,5.200317444406)
  );
#138 = CARTESIAN_POINT('',(283.72000355115,-63.46314448321,
    4.379978290511));
#139 = CARTESIAN_POINT('',(283.84224968215,-63.49275142278,
    3.546730278967));
#140 = CARTESIAN_POINT('',(283.93673310857,-63.52235836243,
    2.701219919381));
#141 = CARTESIAN_POINT('',(284.00342653101,-63.55196530197,
    1.844035486424));
#142 = CARTESIAN_POINT('',(284.0423226645,-63.58157224162,0.975710865974
    ));
#143 = CARTESIAN_POINT('',(284.05342550154,-63.61117918118,
    9.672940118075E-02));
#144 = CARTESIAN_POINT('',(284.03674158453,-63.6407861208,-0.79247226139
    ));
#145 = CARTESIAN_POINT('',(283.9922712703,-63.67039306039,
    -1.691500325676));
#146 = CARTESIAN_POINT('',(283.92,-63.7,-2.6));
#147 = ORIENTED_EDGE('',*,*,#148,.F.);
#148 = EDGE_CURVE('',#24,#90,#149,.T.);
#149 = B_SPLINE_CURVE_WITH_KNOTS('',1,(#150,#151),.UNSPECIFIED.,.F.,.F.,
  (2,2),(0.,1.),.PIECEWISE_BEZIER_KNOTS.);
#150 = CARTESIAN_POINT('',(283.92,-64.1,-2.6));
#151 = CARTESIAN_POINT('',(283.92,-63.7,-2.6));
#152 = B_SPLINE_SURFACE_WITH_KNOTS('',1,10,(
    (#153,#154,#155,#156,#157,#158,#159,#160,#161,#162,#163,#164,#165
      ,#166,#167,#168,#169,#170,#171,#172,#173,#174,#175,#176,#177,#178
      ,#179,#180,#181,#182,#183,#184,#185,#186,#187,#188,#189,#190,#191
      ,#192,#193,#194,#195,#196,#197,#198,#199,#200,#201,#202,#203,#204
      ,#205,#206)
    ,(#207,#208,#209,#210,#211,#212,#213,#214,#215,#216,#217,#218,#219
      ,#220,#221,#222,#223,#224,#225,#226,#227,#228,#229,#230,#231,#232
      ,#233,#234,#235,#236,#237,#238,#239,#240,#241,#242,#243,#244,#245
      ,#246,#247,#248,#249,#250,#251,#252,#253,#254,#255,#256,#257,#258
      ,#259,#260
    )),.UNSPECIFIED.,.F.,.F.,.F.,(2,2),(11,9,8,9,8,9,11),(0.,1.),(0.,7.,
    37.78250314708,68.56500629416,99.34750944124,130.13001258832,
    137.13001258832),.UNSPECIFIED.);
#153 = CARTESIAN_POINT('',(162.72,-69.9,-2.6));
#154 = CARTESIAN_POINT('',(162.58957411056,-69.8703930604,
    -1.847857722732));
#155 = CARTESIAN_POINT('',(162.48227752305,-69.84078612078,
    -1.105601893778));
#156 = CARTESIAN_POINT('',(162.39788083426,-69.81117918122,
    -0.373375493539));
#157 = CARTESIAN_POINT('',(162.33616709402,-69.78157224156,
    0.348680084354));
#158 = CARTESIAN_POINT('',(162.29693199418,-69.75196530203,
    1.060422277761));
#159 = CARTESIAN_POINT('',(162.27998405592,-69.72235836237,
    1.761704600739));
#160 = CARTESIAN_POINT('',(162.28514481906,-69.69275142281,
    2.452373888259));
#161 = CARTESIAN_POINT('',(162.31224902938,-69.66314448319,
    3.132267540921));
#162 = CARTESIAN_POINT('',(162.36114482754,-69.6335375436,3.801210769664
    ));
#163 = CARTESIAN_POINT('',(162.74193367764,-69.4737340738,7.351703140137
    ));
#164 = CARTESIAN_POINT('',(163.47082370283,-69.34353754359,
    10.028288174815));
#165 = CARTESIAN_POINT('',(164.60512434181,-69.21334101341,
    12.501727781546));
#166 = CARTESIAN_POINT('',(166.1380535396,-69.08314448319,
    14.777979554003));
#167 = CARTESIAN_POINT('',(168.0425816301,-68.95294795301,
    16.832691305733));
#168 = CARTESIAN_POINT('',(170.27395407499,-68.82275142279,
    18.667343861368));
#169 = CARTESIAN_POINT('',(172.79339725554,-68.6925548926,
    20.301209664681));
#170 = CARTESIAN_POINT('',(175.57619843435,-68.5623583624,
    21.742767231485));
#171 = CARTESIAN_POINT('',(181.60509973384,-68.301965302,24.27251633478)
  );
#172 = CARTESIAN_POINT('',(188.45240569882,-68.0415722416,
    26.151109978232));
#173 = CARTESIAN_POINT('',(192.0531666247,-67.9113757114,26.941808325797
    ));
#174 = CARTESIAN_POINT('',(195.80457621019,-67.78117918119,
    27.59795450116));
#175 = CARTESIAN_POINT('',(199.68074408543,-67.650982651,28.133406384275
    ));
#176 = CARTESIAN_POINT('',(203.6559985459,-67.52078612079,
    28.561815984009));
#177 = CARTESIAN_POINT('',(207.70465108097,-67.3905895906,28.89663887346
    ));
#178 = CARTESIAN_POINT('',(211.8008756796,-67.26039306039,
    29.151170509311));
#179 = CARTESIAN_POINT('',(215.91870291266,-67.1301965302,
    29.338609435557));
#180 = CARTESIAN_POINT('',(224.14555467256,-66.86980346979,
    29.605685307139));
#181 = CARTESIAN_POINT('',(228.27016810918,-66.73960693961,
    29.687290416284));
#182 = CARTESIAN_POINT('',(232.38237591221,-66.60941040937,
    29.703784680514));
#183 = CARTESIAN_POINT('',(236.45939628963,-66.47921387924,
    29.641970728365));
#184 = CARTESIAN_POINT('',(240.47885526443,-66.34901734895,
    29.488231716716));
#185 = CARTESIAN_POINT('',(244.41918658164,-66.21882081882,
    29.228507034909));
#186 = CARTESIAN_POINT('',(248.26037628543,-66.08862428858,
    28.848153064356));
#187 = CARTESIAN_POINT('',(251.98459316645,-65.9584277584,
    28.331198229857));
#188 = CARTESIAN_POINT('',(259.16789935121,-65.69803469799,
    26.985804921177));
#189 = CARTESIAN_POINT('',(265.76365046482,-65.4376416376,
    24.914488331282));
#190 = CARTESIAN_POINT('',(268.89897257401,-65.30744510739,
    23.670826607871));
#191 = CARTESIAN_POINT('',(271.86649176686,-65.1772485772,
    22.193209032901));
#192 = CARTESIAN_POINT('',(274.62246422693,-65.04705204699,
    20.413051631529));
#193 = CARTESIAN_POINT('',(277.19062531728,-64.91685551679,
    18.34251143766));
#194 = CARTESIAN_POINT('',(279.47670648679,-64.78665898659,
    15.783255725764));
#195 = CARTESIAN_POINT('',(281.29903300032,-64.65646245639,
    12.831249432428));
#196 = CARTESIAN_POINT('',(282.61163853007,-64.52626592619,
    9.554598213181));
#197 = CARTESIAN_POINT('',(283.5700507574,-64.36646245639,5.200317444406
    ));
#198 = CARTESIAN_POINT('',(283.72000355115,-64.3368555168,4.379978290511
    ));
#199 = CARTESIAN_POINT('',(283.84224968215,-64.30724857718,
    3.546730278967));
#200 = CARTESIAN_POINT('',(283.93673310858,-64.27764163762,
    2.701219919381));
#201 = CARTESIAN_POINT('',(284.003426531,-64.24803469797,1.844035486424)
  );
#202 = CARTESIAN_POINT('',(284.0423226645,-64.21842775841,0.975710865974
    ));
#203 = CARTESIAN_POINT('',(284.05342550154,-64.18882081878,
    9.672940118064E-02));
#204 = CARTESIAN_POINT('',(284.03674158453,-64.1592138792,
    -0.792472261389));
#205 = CARTESIAN_POINT('',(283.9922712703,-64.12960693959,
    -1.691500325676));
#206 = CARTESIAN_POINT('',(283.92,-64.1,-2.6));
#207 = CARTESIAN_POINT('',(162.72,-57.9,-2.6));
#208 = CARTESIAN_POINT('',(162.58957411056,-57.9296069396,
    -1.847857722732));
#209 = CARTESIAN_POINT('',(162.48227752304,-57.95921387919,
    -1.105601893778));
#210 = CARTESIAN_POINT('',(162.39788083428,-57.9888208188,
    -0.373375493539));
#211 = CARTESIAN_POINT('',(162.33616709398,-58.01842775838,
    0.348680084354));
#212 = CARTESIAN_POINT('',(162.29693199422,-58.048034698,1.060422277761)
  );
#213 = CARTESIAN_POINT('',(162.2799840559,-58.07764163759,1.761704600739
    ));
#214 = CARTESIAN_POINT('',(162.28514481908,-58.1072485772,2.452373888259
    ));
#215 = CARTESIAN_POINT('',(162.31224902937,-58.13685551679,
    3.132267540921));
#216 = CARTESIAN_POINT('',(162.36114482754,-58.16646245639,
    3.801210769664));
#217 = CARTESIAN_POINT('',(162.74193367764,-58.32626592619,
    7.351703140137));
#218 = CARTESIAN_POINT('',(163.47082370283,-58.45646245639,
    10.028288174816));
#219 = CARTESIAN_POINT('',(164.60512434183,-58.5866589866,
    12.501727781546));
#220 = CARTESIAN_POINT('',(166.13805353957,-58.71685551679,
    14.777979554004));
#221 = CARTESIAN_POINT('',(168.04258163013,-58.847052047,16.832691305732
    ));
#222 = CARTESIAN_POINT('',(170.27395407497,-58.97724857719,
    18.667343861369));
#223 = CARTESIAN_POINT('',(172.79339725555,-59.10744510739,
    20.30120966468));
#224 = CARTESIAN_POINT('',(175.57619843435,-59.23764163759,
    21.742767231486));
#225 = CARTESIAN_POINT('',(181.60509973384,-59.49803469799,
    24.27251633478));
#226 = CARTESIAN_POINT('',(188.45240569882,-59.75842775839,
    26.151109978233));
#227 = CARTESIAN_POINT('',(192.0531666247,-59.88862428859,
    26.941808325796));
#228 = CARTESIAN_POINT('',(195.80457621019,-60.0188208188,
    27.597954501163));
#229 = CARTESIAN_POINT('',(199.68074408543,-60.14901734899,
    28.133406384271));
#230 = CARTESIAN_POINT('',(203.65599854589,-60.2792138792,
    28.561815984012));
#231 = CARTESIAN_POINT('',(207.70465108097,-60.40941040939,
    28.896638873458));
#232 = CARTESIAN_POINT('',(211.8008756796,-60.5396069396,29.151170509312
    ));
#233 = CARTESIAN_POINT('',(215.91870291266,-60.6698034698,
    29.338609435557));
#234 = CARTESIAN_POINT('',(224.14555467256,-60.93019653019,
    29.60568530714));
#235 = CARTESIAN_POINT('',(228.27016810919,-61.06039306041,
    29.687290416284));
#236 = CARTESIAN_POINT('',(232.38237591219,-61.19058959057,
    29.703784680516));
#237 = CARTESIAN_POINT('',(236.45939628966,-61.32078612083,
    29.641970728363));
#238 = CARTESIAN_POINT('',(240.4788552644,-61.45098265097,
    29.488231716718));
#239 = CARTESIAN_POINT('',(244.41918658165,-61.58117918122,
    29.228507034907));
#240 = CARTESIAN_POINT('',(248.26037628543,-61.71137571139,
    28.848153064357));
#241 = CARTESIAN_POINT('',(251.98459316645,-61.8415722416,
    28.331198229857));
#242 = CARTESIAN_POINT('',(259.16789935121,-62.10196530199,
    26.985804921177));
#243 = CARTESIAN_POINT('',(265.76365046482,-62.3623583624,
    24.914488331282));
#244 = CARTESIAN_POINT('',(268.89897257402,-62.49255489259,
    23.670826607871));
#245 = CARTESIAN_POINT('',(271.86649176686,-62.62275142281,
    22.193209032901));
#246 = CARTESIAN_POINT('',(274.62246422692,-62.75294795298,
    20.413051631529));
#247 = CARTESIAN_POINT('',(277.1906253173,-62.88314448321,
    18.342511437659));
#248 = CARTESIAN_POINT('',(279.47670648677,-63.01334101339,
    15.783255725765));
#249 = CARTESIAN_POINT('',(281.29903300033,-63.1435375436,
    12.831249432428));
#250 = CARTESIAN_POINT('',(282.61163853006,-63.2737340738,9.554598213181
    ));
#251 = CARTESIAN_POINT('',(283.5700507574,-63.4335375436,5.200317444406)
  );
#252 = CARTESIAN_POINT('',(283.72000355115,-63.46314448321,
    4.379978290511));
#253 = CARTESIAN_POINT('',(283.84224968215,-63.49275142278,
    3.546730278967));
#254 = CARTESIAN_POINT('',(283.93673310857,-63.52235836243,
    2.701219919381));
#255 = CARTESIAN_POINT('',(284.00342653101,-63.55196530197,
    1.844035486424));
#256 = CARTESIAN_POINT('',(284.0423226645,-63.58157224162,0.975710865974
    ));
#257 = CARTESIAN_POINT('',(284.05342550154,-63.61117918118,
    9.672940118075E-02));
#258 = CARTESIAN_POINT('',(284.03674158453,-63.6407861208,-0.79247226139
    ));
#259 = CARTESIAN_POINT('',(283.9922712703,-63.67039306039,
    -1.691500325676));
#260 = CARTESIAN_POINT('',(283.92,-63.7,-2.6));
#261 = ADVANCED_FACE('',(#262),#336,.F.);
#262 = FACE_BOUND('',#263,.F.);
#263 = EDGE_LOOP('',(#264,#265,#272,#331));
#264 = ORIENTED_EDGE('',*,*,#89,.F.);
#265 = ORIENTED_EDGE('',*,*,#266,.T.);
#266 = EDGE_CURVE('',#83,#267,#269,.T.);
#267 = VERTEX_POINT('',#268);
#268 = CARTESIAN_POINT('',(163.12,-57.9,-2.6));
#269 = B_SPLINE_CURVE_WITH_KNOTS('',1,(#270,#271),.UNSPECIFIED.,.F.,.F.,
  (2,2),(1.,2.),.PIECEWISE_BEZIER_KNOTS.);
#270 = CARTESIAN_POINT('',(162.72,-57.9,-2.6));
#271 = CARTESIAN_POINT('',(163.12,-57.9,-2.6));
#272 = ORIENTED_EDGE('',*,*,#273,.T.);
#273 = EDGE_CURVE('',#267,#274,#276,.T.);
#274 = VERTEX_POINT('',#275);
#275 = CARTESIAN_POINT('',(271.92,-63.7,-2.6));
#276 = B_SPLINE_CURVE_WITH_KNOTS('',10,(#277,#278,#279,#280,#281,#282,
    #283,#284,#285,#286,#287,#288,#289,#290,#291,#292,#293,#294,#295,
    #296,#297,#298,#299,#300,#301,#302,#303,#304,#305,#306,#307,#308,
    #309,#310,#311,#312,#313,#314,#315,#316,#317,#318,#319,#320,#321,
    #322,#323,#324,#325,#326,#327,#328,#329,#330),.UNSPECIFIED.,.F.,.F.,
  (11,9,8,9,8,9,11),(0.,7.,37.78250314708,68.56500629416,99.34750944124,
    130.13001258832,137.13001258832),.UNSPECIFIED.);
#277 = CARTESIAN_POINT('',(163.12,-57.9,-2.6));
#278 = CARTESIAN_POINT('',(163.0465964172,-57.9296069396,-1.841861179123
    ));
#279 = CARTESIAN_POINT('',(162.99695472316,-57.95921387919,
    -1.097110186833));
#280 = CARTESIAN_POINT('',(162.97070591413,-57.98882081881,-0.3660662804
    ));
#281 = CARTESIAN_POINT('',(162.96746853269,-58.01842775838,
    0.350949696128));
#282 = CARTESIAN_POINT('',(162.9868484804,-58.04803469801,1.05361806722)
  );
#283 = CARTESIAN_POINT('',(163.02843882823,-58.07764163758,
    1.741623081142));
#284 = CARTESIAN_POINT('',(163.09181962978,-58.1072485772,2.414655665248
    ));
#285 = CARTESIAN_POINT('',(163.1765577317,-58.13685551679,3.072416181265
    ));
#286 = CARTESIAN_POINT('',(163.28220658633,-58.16646245639,
    3.714617180578));
#287 = CARTESIAN_POINT('',(163.96282856821,-58.32626592619,
    7.095444026017));
#288 = CARTESIAN_POINT('',(164.9129070812,-58.45646245639,9.544417898344
    ));
#289 = CARTESIAN_POINT('',(166.22089337958,-58.5866589866,11.70093117211
    ));
#290 = CARTESIAN_POINT('',(167.84268162483,-58.71685551678,
    13.585008486248));
#291 = CARTESIAN_POINT('',(169.75441359003,-58.84705204701,
    15.246984259868));
#292 = CARTESIAN_POINT('',(171.94995592003,-58.97724857718,
    16.711359900935));
#293 = CARTESIAN_POINT('',(174.4171943404,-59.1074451074,17.984845198332
    ));
#294 = CARTESIAN_POINT('',(177.12995369523,-59.23764163759,
    19.084943868854));
#295 = CARTESIAN_POINT('',(183.00815554193,-59.498034698,20.959081978724
    ));
#296 = CARTESIAN_POINT('',(189.69636530782,-59.75842775839,
    22.229453955953));
#297 = CARTESIAN_POINT('',(193.21957750032,-59.8886242886,
    22.725490253247));
#298 = CARTESIAN_POINT('',(196.8974683928,-60.01882081879,
    23.094312789856));
#299 = CARTESIAN_POINT('',(200.7050404619,-60.149017349,23.348045918512)
  );
#300 = CARTESIAN_POINT('',(204.61707751892,-60.27921387919,
    23.499019862906));
#301 = CARTESIAN_POINT('',(208.60838018105,-60.4094104094,
    23.559761282634));
#302 = CARTESIAN_POINT('',(212.65388656625,-60.53960693959,
    23.542956953593));
#303 = CARTESIAN_POINT('',(216.72867821026,-60.6698034698,
    23.461390564443));
#304 = CARTESIAN_POINT('',(224.88706420449,-60.93019653019,
    23.194314692859));
#305 = CARTESIAN_POINT('',(228.95506964503,-61.06039306041,
    23.006837046631));
#306 = CARTESIAN_POINT('',(232.98459282558,-61.19058959058,
    22.752615475554));
#307 = CARTESIAN_POINT('',(236.94752764579,-61.32078612083,
    22.418865118587));
#308 = CARTESIAN_POINT('',(240.81536018799,-61.45098265097,
    21.993220586032));
#309 = CARTESIAN_POINT('',(244.5587688155,-61.58117918122,
    21.463760256137));
#310 = CARTESIAN_POINT('',(248.14687958947,-61.71137571139,
    20.819145514671));
#311 = CARTESIAN_POINT('',(251.5466358269,-61.8415722416,20.049365704333
    ));
#312 = CARTESIAN_POINT('',(257.89884537299,-62.10196530199,
    18.245793392323));
#313 = CARTESIAN_POINT('',(263.2101974056,-62.3623583624,15.913222769061
    ));
#314 = CARTESIAN_POINT('',(265.57043582996,-62.49255489259,
    14.615228255134));
#315 = CARTESIAN_POINT('',(267.58959823818,-62.62275142282,
    13.185494729415));
#316 = CARTESIAN_POINT('',(269.26054055286,-62.75294795298,
    11.666623934058));
#317 = CARTESIAN_POINT('',(270.50863951829,-62.88314448322,
    10.020476602603));
#318 = CARTESIAN_POINT('',(271.37727579183,-63.01334101339,
    8.419403227884));
#319 = CARTESIAN_POINT('',(271.99723621561,-63.1435375436,6.741456640735
    ));
#320 = CARTESIAN_POINT('',(272.36359922408,-63.2737340738,4.892548952972
    ));
#321 = CARTESIAN_POINT('',(272.46659782869,-63.4335375436,2.315510505835
    ));
#322 = CARTESIAN_POINT('',(272.47118968784,-63.46314448321,
    1.824705431675));
#323 = CARTESIAN_POINT('',(272.4607858688,-63.49275142278,1.320299274539
    ));
#324 = CARTESIAN_POINT('',(272.43484400754,-63.52235836242,
    0.802107762502));
#325 = CARTESIAN_POINT('',(272.39279299413,-63.55196530197,
    0.270004858555));
#326 = CARTESIAN_POINT('',(272.33404170897,-63.58157224162,
    -0.27608108549));
#327 = CARTESIAN_POINT('',(272.25798774996,-63.61117918119,
    -0.836171175121));
#328 = CARTESIAN_POINT('',(272.16402616927,-63.6407861208,
    -1.410239819221));
#329 = CARTESIAN_POINT('',(272.05155820192,-63.67039306039,
    -1.99821857618));
#330 = CARTESIAN_POINT('',(271.92,-63.7,-2.6));
#331 = ORIENTED_EDGE('',*,*,#332,.F.);
#332 = EDGE_CURVE('',#90,#274,#333,.T.);
#333 = B_SPLINE_CURVE_WITH_KNOTS('',1,(#334,#335),.UNSPECIFIED.,.F.,.F.,
  (2,2),(1.,2.),.PIECEWISE_BEZIER_KNOTS.);
#334 = CARTESIAN_POINT('',(283.92,-63.7,-2.6));
#335 = CARTESIAN_POINT('',(271.92,-63.7,-2.6));
#336 = B_SPLINE_SURFACE_WITH_KNOTS('',1,10,(
    (#337,#338,#339,#340,#341,#342,#343,#344,#345,#346,#347,#348,#349
      ,#350,#351,#352,#353,#354,#355,#356,#357,#358,#359,#360,#361,#362
      ,#363,#364,#365,#366,#367,#368,#369,#370,#371,#372,#373,#374,#375
      ,#376,#377,#378,#379,#380,#381,#382,#383,#384,#385,#386,#387,#388
      ,#389,#390)
    ,(#391,#392,#393,#394,#395,#396,#397,#398,#399,#400,#401,#402,#403
      ,#404,#405,#406,#407,#408,#409,#410,#411,#412,#413,#414,#415,#416
      ,#417,#418,#419,#420,#421,#422,#423,#424,#425,#426,#427,#428,#429
      ,#430,#431,#432,#433,#434,#435,#436,#437,#438,#439,#440,#441,#442
      ,#443,#444
    )),.UNSPECIFIED.,.F.,.F.,.F.,(2,2),(11,9,8,9,8,9,11),(1.,2.),(0.,7.,
    37.78250314708,68.56500629416,99.34750944124,130.13001258832,
    137.13001258832),.UNSPECIFIED.);
#337 = CARTESIAN_POINT('',(162.72,-57.9,-2.6));
#338 = CARTESIAN_POINT('',(162.58957411056,-57.9296069396,
    -1.847857722732));
#339 = CARTESIAN_POINT('',(162.48227752304,-57.95921387919,
    -1.105601893778));
#340 = CARTESIAN_POINT('',(162.39788083428,-57.9888208188,
    -0.373375493539));
#341 = CARTESIAN_POINT('',(162.33616709398,-58.01842775838,
    0.348680084354));
#342 = CARTESIAN_POINT('',(162.29693199422,-58.048034698,1.060422277761)
  );
#343 = CARTESIAN_POINT('',(162.2799840559,-58.07764163759,1.761704600739
    ));
#344 = CARTESIAN_POINT('',(162.28514481908,-58.1072485772,2.452373888259
    ));
#345 = CARTESIAN_POINT('',(162.31224902937,-58.13685551679,
    3.132267540921));
#346 = CARTESIAN_POINT('',(162.36114482754,-58.16646245639,
    3.801210769664));
#347 = CARTESIAN_POINT('',(162.74193367764,-58.32626592619,
    7.351703140137));
#348 = CARTESIAN_POINT('',(163.47082370283,-58.45646245639,
    10.028288174816));
#349 = CARTESIAN_POINT('',(164.60512434183,-58.5866589866,
    12.501727781546));
#350 = CARTESIAN_POINT('',(166.13805353957,-58.71685551679,
    14.777979554004));
#351 = CARTESIAN_POINT('',(168.04258163013,-58.847052047,16.832691305732
    ));
#352 = CARTESIAN_POINT('',(170.27395407497,-58.97724857719,
    18.667343861369));
#353 = CARTESIAN_POINT('',(172.79339725555,-59.10744510739,
    20.30120966468));
#354 = CARTESIAN_POINT('',(175.57619843435,-59.23764163759,
    21.742767231486));
#355 = CARTESIAN_POINT('',(181.60509973384,-59.49803469799,
    24.27251633478));
#356 = CARTESIAN_POINT('',(188.45240569882,-59.75842775839,
    26.151109978233));
#357 = CARTESIAN_POINT('',(192.0531666247,-59.88862428859,
    26.941808325796));
#358 = CARTESIAN_POINT('',(195.80457621019,-60.0188208188,
    27.597954501163));
#359 = CARTESIAN_POINT('',(199.68074408543,-60.14901734899,
    28.133406384271));
#360 = CARTESIAN_POINT('',(203.65599854589,-60.2792138792,
    28.561815984012));
#361 = CARTESIAN_POINT('',(207.70465108097,-60.40941040939,
    28.896638873458));
#362 = CARTESIAN_POINT('',(211.8008756796,-60.5396069396,29.151170509312
    ));
#363 = CARTESIAN_POINT('',(215.91870291266,-60.6698034698,
    29.338609435557));
#364 = CARTESIAN_POINT('',(224.14555467256,-60.93019653019,
    29.60568530714));
#365 = CARTESIAN_POINT('',(228.27016810919,-61.06039306041,
    29.687290416284));
#366 = CARTESIAN_POINT('',(232.38237591219,-61.19058959057,
    29.703784680516));
#367 = CARTESIAN_POINT('',(236.45939628966,-61.32078612083,
    29.641970728363));
#368 = CARTESIAN_POINT('',(240.4788552644,-61.45098265097,
    29.488231716718));
#369 = CARTESIAN_POINT('',(244.41918658165,-61.58117918122,
    29.228507034907));
#370 = CARTESIAN_POINT('',(248.26037628543,-61.71137571139,
    28.848153064357));
#371 = CARTESIAN_POINT('',(251.98459316645,-61.8415722416,
    28.331198229857));
#372 = CARTESIAN_POINT('',(259.16789935121,-62.10196530199,
    26.985804921177));
#373 = CARTESIAN_POINT('',(265.76365046482,-62.3623583624,
    24.914488331282));
#374 = CARTESIAN_POINT('',(268.89897257402,-62.49255489259,
    23.670826607871));
#375 = CARTESIAN_POINT('',(271.86649176686,-62.62275142281,
    22.193209032901));
#376 = CARTESIAN_POINT('',(274.62246422692,-62.75294795298,
    20.413051631529));
#377 = CARTESIAN_POINT('',(277.1906253173,-62.88314448321,
    18.342511437659));
#378 = CARTESIAN_POINT('',(279.47670648677,-63.01334101339,
    15.783255725765));
#379 = CARTESIAN_POINT('',(281.29903300033,-63.1435375436,
    12.831249432428));
#380 = CARTESIAN_POINT('',(282.61163853006,-63.2737340738,9.554598213181
    ));
#381 = CARTESIAN_POINT('',(283.5700507574,-63.4335375436,5.200317444406)
  );
#382 = CARTESIAN_POINT('',(283.72000355115,-63.46314448321,
    4.379978290511));
#383 = CARTESIAN_POINT('',(283.84224968215,-63.49275142278,
    3.546730278967));
#384 = CARTESIAN_POINT('',(283.93673310857,-63.52235836243,
    2.701219919381));
#385 = CARTESIAN_POINT('',(284.00342653101,-63.55196530197,
    1.844035486424));
#386 = CARTESIAN_POINT('',(284.0423226645,-63.58157224162,0.975710865974
    ));
#387 = CARTESIAN_POINT('',(284.05342550154,-63.61117918118,
    9.672940118075E-02));
#388 = CARTESIAN_POINT('',(284.03674158453,-63.6407861208,-0.79247226139
    ));
#389 = CARTESIAN_POINT('',(283.9922712703,-63.67039306039,
    -1.691500325676));
#390 = CARTESIAN_POINT('',(283.92,-63.7,-2.6));
#391 = CARTESIAN_POINT('',(163.12,-57.9,-2.6));
#392 = CARTESIAN_POINT('',(163.0465964172,-57.9296069396,-1.841861179123
    ));
#393 = CARTESIAN_POINT('',(162.99695472316,-57.95921387919,
    -1.097110186833));
#394 = CARTESIAN_POINT('',(162.97070591413,-57.98882081881,-0.3660662804
    ));
#395 = CARTESIAN_POINT('',(162.96746853269,-58.01842775838,
    0.350949696128));
#396 = CARTESIAN_POINT('',(162.9868484804,-58.04803469801,1.05361806722)
  );
#397 = CARTESIAN_POINT('',(163.02843882823,-58.07764163758,
    1.741623081142));
#398 = CARTESIAN_POINT('',(163.09181962978,-58.1072485772,2.414655665248
    ));
#399 = CARTESIAN_POINT('',(163.1765577317,-58.13685551679,3.072416181265
    ));
#400 = CARTESIAN_POINT('',(163.28220658633,-58.16646245639,
    3.714617180578));
#401 = CARTESIAN_POINT('',(163.96282856821,-58.32626592619,
    7.095444026017));
#402 = CARTESIAN_POINT('',(164.9129070812,-58.45646245639,9.544417898344
    ));
#403 = CARTESIAN_POINT('',(166.22089337958,-58.5866589866,11.70093117211
    ));
#404 = CARTESIAN_POINT('',(167.84268162483,-58.71685551678,
    13.585008486248));
#405 = CARTESIAN_POINT('',(169.75441359003,-58.84705204701,
    15.246984259868));
#406 = CARTESIAN_POINT('',(171.94995592003,-58.97724857718,
    16.711359900935));
#407 = CARTESIAN_POINT('',(174.4171943404,-59.1074451074,17.984845198332
    ));
#408 = CARTESIAN_POINT('',(177.12995369523,-59.23764163759,
    19.084943868854));
#409 = CARTESIAN_POINT('',(183.00815554193,-59.498034698,20.959081978724
    ));
#410 = CARTESIAN_POINT('',(189.69636530782,-59.75842775839,
    22.229453955953));
#411 = CARTESIAN_POINT('',(193.21957750032,-59.8886242886,
    22.725490253247));
#412 = CARTESIAN_POINT('',(196.8974683928,-60.01882081879,
    23.094312789856));
#413 = CARTESIAN_POINT('',(200.7050404619,-60.149017349,23.348045918512)
  );
#414 = CARTESIAN_POINT('',(204.61707751892,-60.27921387919,
    23.499019862906));
#415 = CARTESIAN_POINT('',(208.60838018105,-60.4094104094,
    23.559761282634));
#416 = CARTESIAN_POINT('',(212.65388656625,-60.53960693959,
    23.542956953593));
#417 = CARTESIAN_POINT('',(216.72867821026,-60.6698034698,
    23.461390564443));
#418 = CARTESIAN_POINT('',(224.88706420449,-60.93019653019,
    23.194314692859));
#419 = CARTESIAN_POINT('',(228.95506964503,-61.06039306041,
    23.006837046631));
#420 = CARTESIAN_POINT('',(232.98459282558,-61.19058959058,
    22.752615475554));
#421 = CARTESIAN_POINT('',(236.94752764579,-61.32078612083,
    22.418865118587));
#422 = CARTESIAN_POINT('',(240.81536018799,-61.45098265097,
    21.993220586032));
#423 = CARTESIAN_POINT('',(244.5587688155,-61.58117918122,
    21.463760256137));
#424 = CARTESIAN_POINT('',(248.14687958947,-61.71137571139,
    20.819145514671));
#425 = CARTESIAN_POINT('',(251.5466358269,-61.8415722416,20.049365704333
    ));
#426 = CARTESIAN_POINT('',(257.89884537299,-62.10196530199,
    18.245793392323));
#427 = CARTESIAN_POINT('',(263.2101974056,-62.3623583624,15.913222769061
    ));
#428 = CARTESIAN_POINT('',(265.57043582996,-62.49255489259,
    14.615228255134));
#429 = CARTESIAN_POINT('',(267.58959823818,-62.62275142282,
    13.185494729415));
#430 = CARTESIAN_POINT('',(269.26054055286,-62.75294795298,
    11.666623934058));
#431 = CARTESIAN_POINT('',(270.50863951829,-62.88314448322,
    10.020476602603));
#432 = CARTESIAN_POINT('',(271.37727579183,-63.01334101339,
    8.419403227884));
#433 = CARTESIAN_POINT('',(271.99723621561,-63.1435375436,6.741456640735
    ));
#434 = CARTESIAN_POINT('',(272.36359922408,-63.2737340738,4.892548952972
    ));
#435 = CARTESIAN_POINT('',(272.46659782869,-63.4335375436,2.315510505835
    ));
#436 = CARTESIAN_POINT('',(272.47118968784,-63.46314448321,
    1.824705431675));
#437 = CARTESIAN_POINT('',(272.4607858688,-63.49275142278,1.320299274539
    ));
#438 = CARTESIAN_POINT('',(272.43484400754,-63.52235836242,
    0.802107762502));
#439 = CARTESIAN_POINT('',(272.39279299413,-63.55196530197,
    0.270004858555));
#440 = CARTESIAN_POINT('',(272.33404170897,-63.58157224162,
    -0.27608108549));
#441 = CARTESIAN_POINT('',(272.25798774996,-63.61117918119,
    -0.836171175121));
#442 = CARTESIAN_POINT('',(272.16402616927,-63.6407861208,
    -1.410239819221));
#443 = CARTESIAN_POINT('',(272.05155820192,-63.67039306039,
    -1.99821857618));
#444 = CARTESIAN_POINT('',(271.92,-63.7,-2.6));
#445 = ADVANCED_FACE('',(#446),#520,.F.);
#446 = FACE_BOUND('',#447,.F.);
#447 = EDGE_LOOP('',(#448,#449,#456,#515));
#448 = ORIENTED_EDGE('',*,*,#273,.F.);
#449 = ORIENTED_EDGE('',*,*,#450,.T.);
#450 = EDGE_CURVE('',#267,#451,#453,.T.);
#451 = VERTEX_POINT('',#452);
#452 = CARTESIAN_POINT('',(163.12,-69.9,-2.6));
#453 = B_SPLINE_CURVE_WITH_KNOTS('',1,(#454,#455),.UNSPECIFIED.,.F.,.F.,
  (2,2),(2.,3.),.PIECEWISE_BEZIER_KNOTS.);
#454 = CARTESIAN_POINT('',(163.12,-57.9,-2.6));
#455 = CARTESIAN_POINT('',(163.12,-69.9,-2.6));
#456 = ORIENTED_EDGE('',*,*,#457,.T.);
#457 = EDGE_CURVE('',#451,#458,#460,.T.);
#458 = VERTEX_POINT('',#459);
#459 = CARTESIAN_POINT('',(271.92,-64.1,-2.6));
#460 = B_SPLINE_CURVE_WITH_KNOTS('',10,(#461,#462,#463,#464,#465,#466,
    #467,#468,#469,#470,#471,#472,#473,#474,#475,#476,#477,#478,#479,
    #480,#481,#482,#483,#484,#485,#486,#487,#488,#489,#490,#491,#492,
    #493,#494,#495,#496,#497,#498,#499,#500,#501,#502,#503,#504,#505,
    #506,#507,#508,#509,#510,#511,#512,#513,#514),.UNSPECIFIED.,.F.,.F.,
  (11,9,8,9,8,9,11),(0.,7.,37.78250314708,68.56500629416,99.34750944124,
    130.13001258832,137.13001258832),.UNSPECIFIED.);
#461 = CARTESIAN_POINT('',(163.12,-69.9,-2.6));
#462 = CARTESIAN_POINT('',(163.0465964172,-69.8703930604,-1.841861179123
    ));
#463 = CARTESIAN_POINT('',(162.99695472315,-69.84078612078,
    -1.097110186833));
#464 = CARTESIAN_POINT('',(162.97070591415,-69.81117918122,-0.3660662804
    ));
#465 = CARTESIAN_POINT('',(162.96746853266,-69.78157224156,
    0.350949696128));
#466 = CARTESIAN_POINT('',(162.98684848043,-69.75196530203,1.05361806722
    ));
#467 = CARTESIAN_POINT('',(163.0284388282,-69.72235836237,1.741623081142
    ));
#468 = CARTESIAN_POINT('',(163.0918196298,-69.69275142281,2.414655665248
    ));
#469 = CARTESIAN_POINT('',(163.17655773169,-69.66314448319,
    3.072416181265));
#470 = CARTESIAN_POINT('',(163.28220658633,-69.6335375436,3.714617180578
    ));
#471 = CARTESIAN_POINT('',(163.96282856821,-69.4737340738,7.095444026017
    ));
#472 = CARTESIAN_POINT('',(164.9129070812,-69.34353754359,9.544417898344
    ));
#473 = CARTESIAN_POINT('',(166.22089337958,-69.21334101341,
    11.700931172109));
#474 = CARTESIAN_POINT('',(167.84268162482,-69.08314448319,
    13.585008486249));
#475 = CARTESIAN_POINT('',(169.75441359004,-68.95294795301,
    15.246984259867));
#476 = CARTESIAN_POINT('',(171.94995592002,-68.82275142279,
    16.711359900936));
#477 = CARTESIAN_POINT('',(174.41719434041,-68.6925548926,
    17.984845198331));
#478 = CARTESIAN_POINT('',(177.12995369523,-68.5623583624,
    19.084943868855));
#479 = CARTESIAN_POINT('',(183.00815554193,-68.301965302,20.959081978724
    ));
#480 = CARTESIAN_POINT('',(189.69636530782,-68.0415722416,
    22.229453955954));
#481 = CARTESIAN_POINT('',(193.21957750032,-67.9113757114,
    22.725490253244));
#482 = CARTESIAN_POINT('',(196.89746839279,-67.78117918119,
    23.09431278986));
#483 = CARTESIAN_POINT('',(200.70504046192,-67.650982651,23.348045918508
    ));
#484 = CARTESIAN_POINT('',(204.61707751891,-67.52078612079,
    23.49901986291));
#485 = CARTESIAN_POINT('',(208.60838018106,-67.3905895906,
    23.559761282632));
#486 = CARTESIAN_POINT('',(212.65388656625,-67.26039306039,
    23.542956953594));
#487 = CARTESIAN_POINT('',(216.72867821026,-67.1301965302,
    23.461390564443));
#488 = CARTESIAN_POINT('',(224.88706420449,-66.86980346979,
    23.194314692859));
#489 = CARTESIAN_POINT('',(228.95506964503,-66.73960693961,
    23.006837046631));
#490 = CARTESIAN_POINT('',(232.98459282557,-66.60941040937,
    22.752615475554));
#491 = CARTESIAN_POINT('',(236.9475276458,-66.47921387924,
    22.418865118588));
#492 = CARTESIAN_POINT('',(240.81536018796,-66.34901734895,
    21.993220586031));
#493 = CARTESIAN_POINT('',(244.55876881553,-66.21882081882,
    21.463760256138));
#494 = CARTESIAN_POINT('',(248.14687958945,-66.08862428858,
    20.819145514671));
#495 = CARTESIAN_POINT('',(251.5466358269,-65.9584277584,20.049365704333
    ));
#496 = CARTESIAN_POINT('',(257.89884537298,-65.69803469799,
    18.245793392323));
#497 = CARTESIAN_POINT('',(263.21019740561,-65.4376416376,
    15.913222769061));
#498 = CARTESIAN_POINT('',(265.57043582994,-65.30744510738,
    14.615228255134));
#499 = CARTESIAN_POINT('',(267.58959823822,-65.17724857721,
    13.185494729414));
#500 = CARTESIAN_POINT('',(269.26054055281,-65.04705204698,
    11.666623934059));
#501 = CARTESIAN_POINT('',(270.50863951833,-64.9168555168,
    10.020476602602));
#502 = CARTESIAN_POINT('',(271.3772757918,-64.78665898659,8.419403227885
    ));
#503 = CARTESIAN_POINT('',(271.99723621562,-64.65646245639,
    6.741456640735));
#504 = CARTESIAN_POINT('',(272.36359922408,-64.52626592619,
    4.892548952973));
#505 = CARTESIAN_POINT('',(272.46659782869,-64.36646245639,
    2.315510505835));
#506 = CARTESIAN_POINT('',(272.47118968784,-64.3368555168,1.824705431675
    ));
#507 = CARTESIAN_POINT('',(272.46078586878,-64.30724857717,
    1.320299274539));
#508 = CARTESIAN_POINT('',(272.43484400755,-64.27764163762,
    0.802107762502));
#509 = CARTESIAN_POINT('',(272.39279299411,-64.24803469797,
    0.270004858555));
#510 = CARTESIAN_POINT('',(272.33404170898,-64.21842775841,
    -0.27608108549));
#511 = CARTESIAN_POINT('',(272.25798774995,-64.18882081879,
    -0.836171175121));
#512 = CARTESIAN_POINT('',(272.16402616927,-64.1592138792,
    -1.410239819221));
#513 = CARTESIAN_POINT('',(272.05155820192,-64.12960693959,
    -1.99821857618));
#514 = CARTESIAN_POINT('',(271.92,-64.1,-2.6));
#515 = ORIENTED_EDGE('',*,*,#516,.F.);
#516 = EDGE_CURVE('',#274,#458,#517,.T.);
#517 = B_SPLINE_CURVE_WITH_KNOTS('',1,(#518,#519),.UNSPECIFIED.,.F.,.F.,
  (2,2),(2.,3.),.PIECEWISE_BEZIER_KNOTS.);
#518 = CARTESIAN_POINT('',(271.92,-63.7,-2.6));
#519 = CARTESIAN_POINT('',(271.92,-64.1,-2.6));
#520 = B_SPLINE_SURFACE_WITH_KNOTS('',1,10,(
    (#521,#522,#523,#524,#525,#526,#527,#528,#529,#530,#531,#532,#533
      ,#534,#535,#536,#537,#538,#539,#540,#541,#542,#543,#544,#545,#546
      ,#547,#548,#549,#550,#551,#552,#553,#554,#555,#556,#557,#558,#559
      ,#560,#561,#562,#563,#564,#565,#566,#567,#568,#569,#570,#571,#572
      ,#573,#574)
    ,(#575,#576,#577,#578,#579,#580,#581,#582,#583,#584,#585,#586,#587
      ,#588,#589,#590,#591,#592,#593,#594,#595,#596,#597,#598,#599,#600
      ,#601,#602,#603,#604,#605,#606,#607,#608,#609,#610,#611,#612,#613
      ,#614,#615,#616,#617,#618,#619,#620,#621,#622,#623,#624,#625,#626
      ,#627,#628
    )),.UNSPECIFIED.,.F.,.F.,.F.,(2,2),(11,9,8,9,8,9,11),(2.,3.),(0.,7.,
    37.78250314708,68.56500629416,99.34750944124,130.13001258832,
    137.13001258832),.UNSPECIFIED.);
#521 = CARTESIAN_POINT('',(163.12,-57.9,-2.6));
#522 = CARTESIAN_POINT('',(163.0465964172,-57.9296069396,-1.841861179123
    ));
#523 = CARTESIAN_POINT('',(162.99695472316,-57.95921387919,
    -1.097110186833));
#524 = CARTESIAN_POINT('',(162.97070591413,-57.98882081881,-0.3660662804
    ));
#525 = CARTESIAN_POINT('',(162.96746853269,-58.01842775838,
    0.350949696128));
#526 = CARTESIAN_POINT('',(162.9868484804,-58.04803469801,1.05361806722)
  );
#527 = CARTESIAN_POINT('',(163.02843882823,-58.07764163758,
    1.741623081142));
#528 = CARTESIAN_POINT('',(163.09181962978,-58.1072485772,2.414655665248
    ));
#529 = CARTESIAN_POINT('',(163.1765577317,-58.13685551679,3.072416181265
    ));
#530 = CARTESIAN_POINT('',(163.28220658633,-58.16646245639,
    3.714617180578));
#531 = CARTESIAN_POINT('',(163.96282856821,-58.32626592619,
    7.095444026017));
#532 = CARTESIAN_POINT('',(164.9129070812,-58.45646245639,9.544417898344
    ));
#533 = CARTESIAN_POINT('',(166.22089337958,-58.5866589866,11.70093117211
    ));
#534 = CARTESIAN_POINT('',(167.84268162483,-58.71685551678,
    13.585008486248));
#535 = CARTESIAN_POINT('',(169.75441359003,-58.84705204701,
    15.246984259868));
#536 = CARTESIAN_POINT('',(171.94995592003,-58.97724857718,
    16.711359900935));
#537 = CARTESIAN_POINT('',(174.4171943404,-59.1074451074,17.984845198332
    ));
#538 = CARTESIAN_POINT('',(177.12995369523,-59.23764163759,
    19.084943868854));
#539 = CARTESIAN_POINT('',(183.00815554193,-59.498034698,20.959081978724
    ));
#540 = CARTESIAN_POINT('',(189.69636530782,-59.75842775839,
    22.229453955953));
#541 = CARTESIAN_POINT('',(193.21957750032,-59.8886242886,
    22.725490253247));
#542 = CARTESIAN_POINT('',(196.8974683928,-60.01882081879,
    23.094312789856));
#543 = CARTESIAN_POINT('',(200.7050404619,-60.149017349,23.348045918512)
  );
#544 = CARTESIAN_POINT('',(204.61707751892,-60.27921387919,
    23.499019862906));
#545 = CARTESIAN_POINT('',(208.60838018105,-60.4094104094,
    23.559761282634));
#546 = CARTESIAN_POINT('',(212.65388656625,-60.53960693959,
    23.542956953593));
#547 = CARTESIAN_POINT('',(216.72867821026,-60.6698034698,
    23.461390564443));
#548 = CARTESIAN_POINT('',(224.88706420449,-60.93019653019,
    23.194314692859));
#549 = CARTESIAN_POINT('',(228.95506964503,-61.06039306041,
    23.006837046631));
#550 = CARTESIAN_POINT('',(232.98459282558,-61.19058959058,
    22.752615475554));
#551 = CARTESIAN_POINT('',(236.94752764579,-61.32078612083,
    22.418865118587));
#552 = CARTESIAN_POINT('',(240.81536018799,-61.45098265097,
    21.993220586032));
#553 = CARTESIAN_POINT('',(244.5587688155,-61.58117918122,
    21.463760256137));
#554 = CARTESIAN_POINT('',(248.14687958947,-61.71137571139,
    20.819145514671));
#555 = CARTESIAN_POINT('',(251.5466358269,-61.8415722416,20.049365704333
    ));
#556 = CARTESIAN_POINT('',(257.89884537299,-62.10196530199,
    18.245793392323));
#557 = CARTESIAN_POINT('',(263.2101974056,-62.3623583624,15.913222769061
    ));
#558 = CARTESIAN_POINT('',(265.57043582996,-62.49255489259,
    14.615228255134));
#559 = CARTESIAN_POINT('',(267.58959823818,-62.62275142282,
    13.185494729415));
#560 = CARTESIAN_POINT('',(269.26054055286,-62.75294795298,
    11.666623934058));
#561 = CARTESIAN_POINT('',(270.50863951829,-62.88314448322,
    10.020476602603));
#562 = CARTESIAN_POINT('',(271.37727579183,-63.01334101339,
    8.419403227884));
#563 = CARTESIAN_POINT('',(271.99723621561,-63.1435375436,6.741456640735
    ));
#564 = CARTESIAN_POINT('',(272.36359922408,-63.2737340738,4.892548952972
    ));
#565 = CARTESIAN_POINT('',(272.46659782869,-63.4335375436,2.315510505835
    ));
#566 = CARTESIAN_POINT('',(272.47118968784,-63.46314448321,
    1.824705431675));
#567 = CARTESIAN_POINT('',(272.4607858688,-63.49275142278,1.320299274539
    ));
#568 = CARTESIAN_POINT('',(272.43484400754,-63.52235836242,
    0.802107762502));
#569 = CARTESIAN_POINT('',(272.39279299413,-63.55196530197,
    0.270004858555));
#570 = CARTESIAN_POINT('',(272.33404170897,-63.58157224162,
    -0.27608108549));
#571 = CARTESIAN_POINT('',(272.25798774996,-63.61117918119,
    -0.836171175121));
#572 = CARTESIAN_POINT('',(272.16402616927,-63.6407861208,
    -1.410239819221));
#573 = CARTESIAN_POINT('',(272.05155820192,-63.67039306039,
    -1.99821857618));
#574 = CARTESIAN_POINT('',(271.92,-63.7,-2.6));
#575 = CARTESIAN_POINT('',(163.12,-69.9,-2.6));
#576 = CARTESIAN_POINT('',(163.0465964172,-69.8703930604,-1.841861179123
    ));
#577 = CARTESIAN_POINT('',(162.99695472315,-69.84078612078,
    -1.097110186833));
#578 = CARTESIAN_POINT('',(162.97070591415,-69.81117918122,-0.3660662804
    ));
#579 = CARTESIAN_POINT('',(162.96746853266,-69.78157224156,
    0.350949696128));
#580 = CARTESIAN_POINT('',(162.98684848043,-69.75196530203,1.05361806722
    ));
#581 = CARTESIAN_POINT('',(163.0284388282,-69.72235836237,1.741623081142
    ));
#582 = CARTESIAN_POINT('',(163.0918196298,-69.69275142281,2.414655665248
    ));
#583 = CARTESIAN_POINT('',(163.17655773169,-69.66314448319,
    3.072416181265));
#584 = CARTESIAN_POINT('',(163.28220658633,-69.6335375436,3.714617180578
    ));
#585 = CARTESIAN_POINT('',(163.96282856821,-69.4737340738,7.095444026017
    ));
#586 = CARTESIAN_POINT('',(164.9129070812,-69.34353754359,9.544417898344
    ));
#587 = CARTESIAN_POINT('',(166.22089337958,-69.21334101341,
    11.700931172109));
#588 = CARTESIAN_POINT('',(167.84268162482,-69.08314448319,
    13.585008486249));
#589 = CARTESIAN_POINT('',(169.75441359004,-68.95294795301,
    15.246984259867));
#590 = CARTESIAN_POINT('',(171.94995592002,-68.82275142279,
    16.711359900936));
#591 = CARTESIAN_POINT('',(174.41719434041,-68.6925548926,
    17.984845198331));
#592 = CARTESIAN_POINT('',(177.12995369523,-68.5623583624,
    19.084943868855));
#593 = CARTESIAN_POINT('',(183.00815554193,-68.301965302,20.959081978724
    ));
#594 = CARTESIAN_POINT('',(189.69636530782,-68.0415722416,
    22.229453955954));
#595 = CARTESIAN_POINT('',(193.21957750032,-67.9113757114,
    22.725490253244));
#596 = CARTESIAN_POINT('',(196.89746839279,-67.78117918119,
    23.09431278986));
#597 = CARTESIAN_POINT('',(200.70504046192,-67.650982651,23.348045918508
    ));
#598 = CARTESIAN_POINT('',(204.61707751891,-67.52078612079,
    23.49901986291));
#599 = CARTESIAN_POINT('',(208.60838018106,-67.3905895906,
    23.559761282632));
#600 = CARTESIAN_POINT('',(212.65388656625,-67.26039306039,
    23.542956953594));
#601 = CARTESIAN_POINT('',(216.72867821026,-67.1301965302,
    23.461390564443));
#602 = CARTESIAN_POINT('',(224.88706420449,-66.86980346979,
    23.194314692859));
#603 = CARTESIAN_POINT('',(228.95506964503,-66.73960693961,
    23.006837046631));
#604 = CARTESIAN_POINT('',(232.98459282557,-66.60941040937,
    22.752615475554));
#605 = CARTESIAN_POINT('',(236.9475276458,-66.47921387924,
    22.418865118588));
#606 = CARTESIAN_POINT('',(240.81536018796,-66.34901734895,
    21.993220586031));
#607 = CARTESIAN_POINT('',(244.55876881553,-66.21882081882,
    21.463760256138));
#608 = CARTESIAN_POINT('',(248.14687958945,-66.08862428858,
    20.819145514671));
#609 = CARTESIAN_POINT('',(251.5466358269,-65.9584277584,20.049365704333
    ));
#610 = CARTESIAN_POINT('',(257.89884537298,-65.69803469799,
    18.245793392323));
#611 = CARTESIAN_POINT('',(263.21019740561,-65.4376416376,
    15.913222769061));
#612 = CARTESIAN_POINT('',(265.57043582994,-65.30744510738,
    14.615228255134));
#613 = CARTESIAN_POINT('',(267.58959823822,-65.17724857721,
    13.185494729414));
#614 = CARTESIAN_POINT('',(269.26054055281,-65.04705204698,
    11.666623934059));
#615 = CARTESIAN_POINT('',(270.50863951833,-64.9168555168,
    10.020476602602));
#616 = CARTESIAN_POINT('',(271.3772757918,-64.78665898659,8.419403227885
    ));
#617 = CARTESIAN_POINT('',(271.99723621562,-64.65646245639,
    6.741456640735));
#618 = CARTESIAN_POINT('',(272.36359922408,-64.52626592619,
    4.892548952973));
#619 = CARTESIAN_POINT('',(272.46659782869,-64.36646245639,
    2.315510505835));
#620 = CARTESIAN_POINT('',(272.47118968784,-64.3368555168,1.824705431675
    ));
#621 = CARTESIAN_POINT('',(272.46078586878,-64.30724857717,
    1.320299274539));
#622 = CARTESIAN_POINT('',(272.43484400755,-64.27764163762,
    0.802107762502));
#623 = CARTESIAN_POINT('',(272.39279299411,-64.24803469797,
    0.270004858555));
#624 = CARTESIAN_POINT('',(272.33404170898,-64.21842775841,
    -0.27608108549));
#625 = CARTESIAN_POINT('',(272.25798774995,-64.18882081879,
    -0.836171175121));
#626 = CARTESIAN_POINT('',(272.16402616927,-64.1592138792,
    -1.410239819221));
#627 = CARTESIAN_POINT('',(272.05155820192,-64.12960693959,
    -1.99821857618));
#628 = CARTESIAN_POINT('',(271.92,-64.1,-2.6));
#629 = ADVANCED_FACE('',(#630),#644,.F.);
#630 = FACE_BOUND('',#631,.F.);
#631 = EDGE_LOOP('',(#632,#633,#638,#639));
#632 = ORIENTED_EDGE('',*,*,#457,.F.);
#633 = ORIENTED_EDGE('',*,*,#634,.T.);
#634 = EDGE_CURVE('',#451,#22,#635,.T.);
#635 = B_SPLINE_CURVE_WITH_KNOTS('',1,(#636,#637),.UNSPECIFIED.,.F.,.F.,
  (2,2),(3.,4.),.PIECEWISE_BEZIER_KNOTS.);
#636 = CARTESIAN_POINT('',(163.12,-69.9,-2.6));
#637 = CARTESIAN_POINT('',(162.72,-69.9,-2.6));
#638 = ORIENTED_EDGE('',*,*,#21,.T.);
#639 = ORIENTED_EDGE('',*,*,#640,.F.);
#640 = EDGE_CURVE('',#458,#24,#641,.T.);
#641 = B_SPLINE_CURVE_WITH_KNOTS('',1,(#642,#643),.UNSPECIFIED.,.F.,.F.,
  (2,2),(3.,4.),.PIECEWISE_BEZIER_KNOTS.);
#642 = CARTESIAN_POINT('',(271.92,-64.1,-2.6));
#643 = CARTESIAN_POINT('',(283.92,-64.1,-2.6));
#644 = B_SPLINE_SURFACE_WITH_KNOTS('',1,10,(
    (#645,#646,#647,#648,#649,#650,#651,#652,#653,#654,#655,#656,#657
      ,#658,#659,#660,#661,#662,#663,#664,#665,#666,#667,#668,#669,#670
      ,#671,#672,#673,#674,#675,#676,#677,#678,#679,#680,#681,#682,#683
      ,#684,#685,#686,#687,#688,#689,#690,#691,#692,#693,#694,#695,#696
      ,#697,#698)
    ,(#699,#700,#701,#702,#703,#704,#705,#706,#707,#708,#709,#710,#711
      ,#712,#713,#714,#715,#716,#717,#718,#719,#720,#721,#722,#723,#724
      ,#725,#726,#727,#728,#729,#730,#731,#732,#733,#734,#735,#736,#737
      ,#738,#739,#740,#741,#742,#743,#744,#745,#746,#747,#748,#749,#750
      ,#751,#752
    )),.UNSPECIFIED.,.F.,.F.,.F.,(2,2),(11,9,8,9,8,9,11),(3.,4.),(0.,7.,
    37.78250314708,68.56500629416,99.34750944124,130.13001258832,
    137.13001258832),.UNSPECIFIED.);
#645 = CARTESIAN_POINT('',(163.12,-69.9,-2.6));
#646 = CARTESIAN_POINT('',(163.0465964172,-69.8703930604,-1.841861179123
    ));
#647 = CARTESIAN_POINT('',(162.99695472315,-69.84078612078,
    -1.097110186833));
#648 = CARTESIAN_POINT('',(162.97070591415,-69.81117918122,-0.3660662804
    ));
#649 = CARTESIAN_POINT('',(162.96746853266,-69.78157224156,
    0.350949696128));
#650 = CARTESIAN_POINT('',(162.98684848043,-69.75196530203,1.05361806722
    ));
#651 = CARTESIAN_POINT('',(163.0284388282,-69.72235836237,1.741623081142
    ));
#652 = CARTESIAN_POINT('',(163.0918196298,-69.69275142281,2.414655665248
    ));
#653 = CARTESIAN_POINT('',(163.17655773169,-69.66314448319,
    3.072416181265));
#654 = CARTESIAN_POINT('',(163.28220658633,-69.6335375436,3.714617180578
    ));
#655 = CARTESIAN_POINT('',(163.96282856821,-69.4737340738,7.095444026017
    ));
#656 = CARTESIAN_POINT('',(164.9129070812,-69.34353754359,9.544417898344
    ));
#657 = CARTESIAN_POINT('',(166.22089337958,-69.21334101341,
    11.700931172109));
#658 = CARTESIAN_POINT('',(167.84268162482,-69.08314448319,
    13.585008486249));
#659 = CARTESIAN_POINT('',(169.75441359004,-68.95294795301,
    15.246984259867));
#660 = CARTESIAN_POINT('',(171.94995592002,-68.82275142279,
    16.711359900936));
#661 = CARTESIAN_POINT('',(174.41719434041,-68.6925548926,
    17.984845198331));
#662 = CARTESIAN_POINT('',(177.12995369523,-68.5623583624,
    19.084943868855));
#663 = CARTESIAN_POINT('',(183.00815554193,-68.301965302,20.959081978724
    ));
#664 = CARTESIAN_POINT('',(189.69636530782,-68.0415722416,
    22.229453955954));
#665 = CARTESIAN_POINT('',(193.21957750032,-67.9113757114,
    22.725490253244));
#666 = CARTESIAN_POINT('',(196.89746839279,-67.78117918119,
    23.09431278986));
#667 = CARTESIAN_POINT('',(200.70504046192,-67.650982651,23.348045918508
    ));
#668 = CARTESIAN_POINT('',(204.61707751891,-67.52078612079,
    23.49901986291));
#669 = CARTESIAN_POINT('',(208.60838018106,-67.3905895906,
    23.559761282632));
#670 = CARTESIAN_POINT('',(212.65388656625,-67.26039306039,
    23.542956953594));
#671 = CARTESIAN_POINT('',(216.72867821026,-67.1301965302,
    23.461390564443));
#672 = CARTESIAN_POINT('',(224.88706420449,-66.86980346979,
    23.194314692859));
#673 = CARTESIAN_POINT('',(228.95506964503,-66.73960693961,
    23.006837046631));
#674 = CARTESIAN_POINT('',(232.98459282557,-66.60941040937,
    22.752615475554));
#675 = CARTESIAN_POINT('',(236.9475276458,-66.47921387924,
    22.418865118588));
#676 = CARTESIAN_POINT('',(240.81536018796,-66.34901734895,
    21.993220586031));
#677 = CARTESIAN_POINT('',(244.55876881553,-66.21882081882,
    21.463760256138));
#678 = CARTESIAN_POINT('',(248.14687958945,-66.08862428858,
    20.819145514671));
#679 = CARTESIAN_POINT('',(251.5466358269,-65.9584277584,20.049365704333
    ));
#680 = CARTESIAN_POINT('',(257.89884537298,-65.69803469799,
    18.245793392323));
#681 = CARTESIAN_POINT('',(263.21019740561,-65.4376416376,
    15.913222769061));
#682 = CARTESIAN_POINT('',(265.57043582994,-65.30744510738,
    14.615228255134));
#683 = CARTESIAN_POINT('',(267.58959823822,-65.17724857721,
    13.185494729414));
#684 = CARTESIAN_POINT('',(269.26054055281,-65.04705204698,
    11.666623934059));
#685 = CARTESIAN_POINT('',(270.50863951833,-64.9168555168,
    10.020476602602));
#686 = CARTESIAN_POINT('',(271.3772757918,-64.78665898659,8.419403227885
    ));
#687 = CARTESIAN_POINT('',(271.99723621562,-64.65646245639,
    6.741456640735));
#688 = CARTESIAN_POINT('',(272.36359922408,-64.52626592619,
    4.892548952973));
#689 = CARTESIAN_POINT('',(272.46659782869,-64.36646245639,
    2.315510505835));
#690 = CARTESIAN_POINT('',(272.47118968784,-64.3368555168,1.824705431675
    ));
#691 = CARTESIAN_POINT('',(272.46078586878,-64.30724857717,
    1.320299274539));
#692 = CARTESIAN_POINT('',(272.43484400755,-64.27764163762,
    0.802107762502));
#693 = CARTESIAN_POINT('',(272.39279299411,-64.24803469797,
    0.270004858555));
#694 = CARTESIAN_POINT('',(272.33404170898,-64.21842775841,
    -0.27608108549));
#695 = CARTESIAN_POINT('',(272.25798774995,-64.18882081879,
    -0.836171175121));
#696 = CARTESIAN_POINT('',(272.16402616927,-64.1592138792,
    -1.410239819221));
#697 = CARTESIAN_POINT('',(272.05155820192,-64.12960693959,
    -1.99821857618));
#698 = CARTESIAN_POINT('',(271.92,-64.1,-2.6));
#699 = CARTESIAN_POINT('',(162.72,-69.9,-2.6));
#700 = CARTESIAN_POINT('',(162.58957411056,-69.8703930604,
    -1.847857722732));
#701 = CARTESIAN_POINT('',(162.48227752305,-69.84078612078,
    -1.105601893778));
#702 = CARTESIAN_POINT('',(162.39788083426,-69.81117918122,
    -0.373375493539));
#703 = CARTESIAN_POINT('',(162.33616709402,-69.78157224156,
    0.348680084354));
#704 = CARTESIAN_POINT('',(162.29693199418,-69.75196530203,
    1.060422277761));
#705 = CARTESIAN_POINT('',(162.27998405592,-69.72235836237,
    1.761704600739));
#706 = CARTESIAN_POINT('',(162.28514481906,-69.69275142281,
    2.452373888259));
#707 = CARTESIAN_POINT('',(162.31224902938,-69.66314448319,
    3.132267540921));
#708 = CARTESIAN_POINT('',(162.36114482754,-69.6335375436,3.801210769664
    ));
#709 = CARTESIAN_POINT('',(162.74193367764,-69.4737340738,7.351703140137
    ));
#710 = CARTESIAN_POINT('',(163.47082370283,-69.34353754359,
    10.028288174815));
#711 = CARTESIAN_POINT('',(164.60512434181,-69.21334101341,
    12.501727781546));
#712 = CARTESIAN_POINT('',(166.1380535396,-69.08314448319,
    14.777979554003));
#713 = CARTESIAN_POINT('',(168.0425816301,-68.95294795301,
    16.832691305733));
#714 = CARTESIAN_POINT('',(170.27395407499,-68.82275142279,
    18.667343861368));
#715 = CARTESIAN_POINT('',(172.79339725554,-68.6925548926,
    20.301209664681));
#716 = CARTESIAN_POINT('',(175.57619843435,-68.5623583624,
    21.742767231485));
#717 = CARTESIAN_POINT('',(181.60509973384,-68.301965302,24.27251633478)
  );
#718 = CARTESIAN_POINT('',(188.45240569882,-68.0415722416,
    26.151109978232));
#719 = CARTESIAN_POINT('',(192.0531666247,-67.9113757114,26.941808325797
    ));
#720 = CARTESIAN_POINT('',(195.80457621019,-67.78117918119,
    27.59795450116));
#721 = CARTESIAN_POINT('',(199.68074408543,-67.650982651,28.133406384275
    ));
#722 = CARTESIAN_POINT('',(203.6559985459,-67.52078612079,
    28.561815984009));
#723 = CARTESIAN_POINT('',(207.70465108097,-67.3905895906,28.89663887346
    ));
#724 = CARTESIAN_POINT('',(211.8008756796,-67.26039306039,
    29.151170509311));
#725 = CARTESIAN_POINT('',(215.91870291266,-67.1301965302,
    29.338609435557));
#726 = CARTESIAN_POINT('',(224.14555467256,-66.86980346979,
    29.605685307139));
#727 = CARTESIAN_POINT('',(228.27016810918,-66.73960693961,
    29.687290416284));
#728 = CARTESIAN_POINT('',(232.38237591221,-66.60941040937,
    29.703784680514));
#729 = CARTESIAN_POINT('',(236.45939628963,-66.47921387924,
    29.641970728365));
#730 = CARTESIAN_POINT('',(240.47885526443,-66.34901734895,
    29.488231716716));
#731 = CARTESIAN_POINT('',(244.41918658164,-66.21882081882,
    29.228507034909));
#732 = CARTESIAN_POINT('',(248.26037628543,-66.08862428858,
    28.848153064356));
#733 = CARTESIAN_POINT('',(251.98459316645,-65.9584277584,
    28.331198229857));
#734 = CARTESIAN_POINT('',(259.16789935121,-65.69803469799,
    26.985804921177));
#735 = CARTESIAN_POINT('',(265.76365046482,-65.4376416376,
    24.914488331282));
#736 = CARTESIAN_POINT('',(268.89897257401,-65.30744510739,
    23.670826607871));
#737 = CARTESIAN_POINT('',(271.86649176686,-65.1772485772,
    22.193209032901));
#738 = CARTESIAN_POINT('',(274.62246422693,-65.04705204699,
    20.413051631529));
#739 = CARTESIAN_POINT('',(277.19062531728,-64.91685551679,
    18.34251143766));
#740 = CARTESIAN_POINT('',(279.47670648679,-64.78665898659,
    15.783255725764));
#741 = CARTESIAN_POINT('',(281.29903300032,-64.65646245639,
    12.831249432428));
#742 = CARTESIAN_POINT('',(282.61163853007,-64.52626592619,
    9.554598213181));
#743 = CARTESIAN_POINT('',(283.5700507574,-64.36646245639,5.200317444406
    ));
#744 = CARTESIAN_POINT('',(283.72000355115,-64.3368555168,4.379978290511
    ));
#745 = CARTESIAN_POINT('',(283.84224968215,-64.30724857718,
    3.546730278967));
#746 = CARTESIAN_POINT('',(283.93673310858,-64.27764163762,
    2.701219919381));
#747 = CARTESIAN_POINT('',(284.003426531,-64.24803469797,1.844035486424)
  );
#748 = CARTESIAN_POINT('',(284.0423226645,-64.21842775841,0.975710865974
    ));
#749 = CARTESIAN_POINT('',(284.05342550154,-64.18882081878,
    9.672940118064E-02));
#750 = CARTESIAN_POINT('',(284.03674158453,-64.1592138792,
    -0.792472261389));
#751 = CARTESIAN_POINT('',(283.9922712703,-64.12960693959,
    -1.691500325676));
#752 = CARTESIAN_POINT('',(283.92,-64.1,-2.6));
#753 = ADVANCED_FACE('',(#754),#760,.T.);
#754 = FACE_BOUND('',#755,.T.);
#755 = EDGE_LOOP('',(#756,#757,#758,#759));
#756 = ORIENTED_EDGE('',*,*,#82,.T.);
#757 = ORIENTED_EDGE('',*,*,#266,.T.);
#758 = ORIENTED_EDGE('',*,*,#450,.T.);
#759 = ORIENTED_EDGE('',*,*,#634,.T.);
#760 = PLANE('',#761);
#761 = AXIS2_PLACEMENT_3D('',#762,#763,#764);
#762 = CARTESIAN_POINT('',(162.92,-63.9,-2.6));
#763 = DIRECTION('',(4.996003610813E-15,2.405483220021E-16,-1.));
#764 = DIRECTION('',(-1.,0.,-4.996003610813E-15));
#765 = ADVANCED_FACE('',(#766),#772,.F.);
#766 = FACE_BOUND('',#767,.F.);
#767 = EDGE_LOOP('',(#768,#769,#770,#771));
#768 = ORIENTED_EDGE('',*,*,#148,.T.);
#769 = ORIENTED_EDGE('',*,*,#332,.T.);
#770 = ORIENTED_EDGE('',*,*,#516,.T.);
#771 = ORIENTED_EDGE('',*,*,#640,.T.);
#772 = PLANE('',#773);
#773 = AXIS2_PLACEMENT_3D('',#774,#775,#776);
#774 = CARTESIAN_POINT('',(277.92,-63.9,-2.6));
#775 = DIRECTION('',(7.586524001605E-16,-1.831867990631E-14,1.));
#776 = DIRECTION('',(0.,1.,1.831867990631E-14));
#777 = ( GEOMETRIC_REPRESENTATION_CONTEXT(3) 
GLOBAL_UNCERTAINTY_ASSIGNED_CONTEXT((#781)) GLOBAL_UNIT_ASSIGNED_CONTEXT
((#778,#779,#780)) REPRESENTATION_CONTEXT('Context #1',
  '3D Context with UNIT and UNCERTAINTY') );
#778 = ( LENGTH_UNIT() NAMED_UNIT(*) SI_UNIT(.MILLI.,.METRE.) );
#779 = ( NAMED_UNIT(*) PLANE_ANGLE_UNIT() SI_UNIT($,.RADIAN.) );
#780 = ( NAMED_UNIT(*) SI_UNIT($,.STERADIAN.) SOLID_ANGLE_UNIT() );
#781 = UNCERTAINTY_MEASURE_WITH_UNIT(LENGTH_MEASURE(2.E-05),#778,
  'distance_accuracy_value','confusion accuracy');
#782 = PRODUCT_RELATED_PRODUCT_CATEGORY('part',$,(#7));
ENDSEC;
END-ISO-10303-21;
