%TF.GenerationSoftware,KiCad,Pcbnew,9.0.0+dfsg-1*%
%TF.CreationDate,2025-06-19T19:52:36-07:00*%
%TF.ProjectId,signalmesh,7369676e-616c-46d6-9573-682e6b696361,rev?*%
%TF.SameCoordinates,Original*%
%TF.FileFunction,Paste,Top*%
%TF.FilePolarity,Positive*%
%FSLAX46Y46*%
G04 Gerber Fmt 4.6, Leading zero omitted, Abs format (unit mm)*
G04 Created by KiCad (PCBNEW 9.0.0+dfsg-1) date 2025-06-19 19:52:36*
%MOMM*%
%LPD*%
G01*
G04 APERTURE LIST*
G04 Aperture macros list*
%AMRoundRect*
0 Rectangle with rounded corners*
0 $1 Rounding radius*
0 $2 $3 $4 $5 $6 $7 $8 $9 X,Y pos of 4 corners*
0 Add a 4 corners polygon primitive as box body*
4,1,4,$2,$3,$4,$5,$6,$7,$8,$9,$2,$3,0*
0 Add four circle primitives for the rounded corners*
1,1,$1+$1,$2,$3*
1,1,$1+$1,$4,$5*
1,1,$1+$1,$6,$7*
1,1,$1+$1,$8,$9*
0 Add four rect primitives between the rounded corners*
20,1,$1+$1,$2,$3,$4,$5,0*
20,1,$1+$1,$4,$5,$6,$7,0*
20,1,$1+$1,$6,$7,$8,$9,0*
20,1,$1+$1,$8,$9,$2,$3,0*%
G04 Aperture macros list end*
%ADD10RoundRect,0.250000X0.450000X-0.350000X0.450000X0.350000X-0.450000X0.350000X-0.450000X-0.350000X0*%
%ADD11RoundRect,0.079500X-0.079500X-0.100500X0.079500X-0.100500X0.079500X0.100500X-0.079500X0.100500X0*%
%ADD12RoundRect,0.250000X-0.350000X-0.450000X0.350000X-0.450000X0.350000X0.450000X-0.350000X0.450000X0*%
%ADD13RoundRect,0.150000X-0.825000X-0.150000X0.825000X-0.150000X0.825000X0.150000X-0.825000X0.150000X0*%
%ADD14R,1.981200X0.558800*%
%ADD15RoundRect,0.250000X0.350000X0.450000X-0.350000X0.450000X-0.350000X-0.450000X0.350000X-0.450000X0*%
%ADD16R,1.600000X0.800000*%
%ADD17O,1.600000X0.800000*%
%ADD18R,0.350000X0.500000*%
%TA.AperFunction,Profile*%
%ADD19C,0.050000*%
%TD*%
G04 APERTURE END LIST*
D10*
%TO.C,R12*%
X546460000Y-153000000D03*
X546460000Y-155000000D03*
%TD*%
D11*
%TO.C,C3*%
X549070000Y-182500000D03*
X548380000Y-182500000D03*
%TD*%
D12*
%TO.C,R20*%
X553000000Y-172550000D03*
X551000000Y-172550000D03*
%TD*%
D13*
%TO.C,U11*%
X546475000Y-178750000D03*
X546475000Y-180020000D03*
X546475000Y-181290000D03*
X546475000Y-182560000D03*
X541525000Y-182560000D03*
X541525000Y-181290000D03*
X541525000Y-180020000D03*
X541525000Y-178750000D03*
%TD*%
D12*
%TO.C,R22*%
X553000000Y-179050000D03*
X551000000Y-179050000D03*
%TD*%
D11*
%TO.C,C1*%
X549246415Y-169509907D03*
X548556415Y-169509907D03*
%TD*%
%TO.C,C5*%
X548380000Y-196000000D03*
X549070000Y-196000000D03*
%TD*%
%TO.C,C2*%
X549027256Y-175997123D03*
X548337256Y-175997123D03*
%TD*%
D13*
%TO.C,U10*%
X546475000Y-172170000D03*
X546475000Y-173440000D03*
X546475000Y-174710000D03*
X546475000Y-175980000D03*
X541525000Y-175980000D03*
X541525000Y-174710000D03*
X541525000Y-173440000D03*
X541525000Y-172170000D03*
%TD*%
%TO.C,U13*%
X546475000Y-191910000D03*
X546475000Y-193180000D03*
X546475000Y-194450000D03*
X546475000Y-195720000D03*
X541525000Y-195720000D03*
X541525000Y-194450000D03*
X541525000Y-193180000D03*
X541525000Y-191910000D03*
%TD*%
D12*
%TO.C,R14*%
X553000000Y-168950000D03*
X551000000Y-168950000D03*
%TD*%
%TO.C,R21*%
X553000000Y-175500000D03*
X551000000Y-175500000D03*
%TD*%
%TO.C,R24*%
X553000000Y-182150000D03*
X551000000Y-182150000D03*
%TD*%
D13*
%TO.C,U12*%
X546475000Y-185330000D03*
X546475000Y-186600000D03*
X546475000Y-187870000D03*
X546475000Y-189140000D03*
X541525000Y-189140000D03*
X541525000Y-187870000D03*
X541525000Y-186600000D03*
X541525000Y-185330000D03*
%TD*%
D11*
%TO.C,C4*%
X549070000Y-189250000D03*
X548380000Y-189250000D03*
%TD*%
D14*
%TO.C,U5*%
X528362200Y-153500000D03*
X528362200Y-154770000D03*
X528362200Y-156040000D03*
X528362200Y-157310000D03*
X523637800Y-157310000D03*
X523637800Y-156040000D03*
X523637800Y-154770000D03*
X523637800Y-153500000D03*
%TD*%
D12*
%TO.C,R26*%
X553000000Y-192500000D03*
X551000000Y-192500000D03*
%TD*%
%TO.C,R23*%
X553000000Y-186000000D03*
X551000000Y-186000000D03*
%TD*%
%TO.C,R28*%
X553000000Y-195450000D03*
X551000000Y-195450000D03*
%TD*%
D14*
%TO.C,U8*%
X528362200Y-145595000D03*
X528362200Y-146865000D03*
X528362200Y-148135000D03*
X528362200Y-149405000D03*
X523637800Y-149405000D03*
X523637800Y-148135000D03*
X523637800Y-146865000D03*
X523637800Y-145595000D03*
%TD*%
D12*
%TO.C,R13*%
X553000000Y-166000000D03*
X551000000Y-166000000D03*
%TD*%
%TO.C,R25*%
X553000000Y-188650000D03*
X551000000Y-188650000D03*
%TD*%
D10*
%TO.C,R11*%
X541000000Y-153000000D03*
X541000000Y-155000000D03*
%TD*%
D15*
%TO.C,R19*%
X549000000Y-143500000D03*
X551000000Y-143500000D03*
%TD*%
D13*
%TO.C,U7*%
X546545000Y-165595000D03*
X546545000Y-166865000D03*
X546545000Y-168135000D03*
X546545000Y-169405000D03*
X541595000Y-169405000D03*
X541595000Y-168135000D03*
X541595000Y-166865000D03*
X541595000Y-165595000D03*
%TD*%
D16*
%TO.C,D2*%
X509300000Y-148600000D03*
D17*
X506100000Y-148600000D03*
X509300000Y-150000000D03*
X506100000Y-150000000D03*
%TD*%
D15*
%TO.C,R17*%
X500800000Y-149600000D03*
X498800000Y-149600000D03*
%TD*%
%TO.C,R16*%
X500800000Y-145100000D03*
X498800000Y-145100000D03*
%TD*%
D18*
%TO.C,U6*%
X298000000Y-183500000D03*
X298650000Y-183500000D03*
X299300000Y-183500000D03*
X299950000Y-183500000D03*
X299950000Y-185550000D03*
X299300000Y-185550000D03*
X298650000Y-185550000D03*
X298000000Y-185550000D03*
%TD*%
D16*
%TO.C,D4*%
X509300000Y-157100000D03*
D17*
X506100000Y-157100000D03*
X509300000Y-158500000D03*
X506100000Y-158500000D03*
%TD*%
D15*
%TO.C,R18*%
X500800000Y-153740000D03*
X498800000Y-153740000D03*
%TD*%
%TO.C,R15*%
X500800000Y-157740000D03*
X498800000Y-157740000D03*
%TD*%
D16*
%TO.C,D3*%
X509300000Y-152845100D03*
D17*
X506100000Y-152845100D03*
X509300000Y-154245100D03*
X506100000Y-154245100D03*
%TD*%
D16*
%TO.C,D1*%
X509400000Y-144400000D03*
D17*
X506200000Y-144400000D03*
X509400000Y-145800000D03*
X506200000Y-145800000D03*
%TD*%
D19*
X34180000Y-200880000D02*
G75*
G02*
X29180000Y-195880000I0J5000000D01*
G01*
X29180000Y-195880000D02*
X29180000Y-54880000D01*
X34180000Y-49880000D02*
X560180000Y-49951068D01*
X560180000Y-200880000D02*
X34180000Y-200880000D01*
X565180000Y-195880000D02*
G75*
G02*
X560180000Y-200880000I-5000000J0D01*
G01*
X565180000Y-54951068D02*
X565180000Y-195880000D01*
X29180000Y-54880000D02*
G75*
G02*
X34180000Y-49880000I5000000J0D01*
G01*
X560180000Y-49951068D02*
G75*
G02*
X565180032Y-54951068I0J-5000032D01*
G01*
M02*
