M48
; DRILL file {KiCad 9.0.0+dfsg-1} date 2025-06-19T19:52:34-0700
; FORMAT={-:-/ absolute / metric / decimal}
; #@! TF.CreationDate,2025-06-19T19:52:34-07:00
; #@! TF.GenerationSoftware,Kicad,Pcbnew,9.0.0+dfsg-1
; #@! TF.FileFunction,Plated,1,2,PTH
FMAT,2
METRIC
; #@! TA.AperFunction,Plated,PTH,ComponentDrill
T1C0.500
; #@! TA.AperFunction,Plated,PTH,ComponentDrill
T2C0.800
; #@! TA.AperFunction,Plated,PTH,ComponentDrill
T3C1.000
; #@! TA.AperFunction,Plated,PTH,ComponentDrill
T4C1.020
; #@! TA.AperFunction,Plated,PTH,ComponentDrill
T5C1.070
%
G90
G05
T1
X343.0Y-53.875
X344.0Y-53.875
X345.0Y-53.875
X557.125Y-167.5
X557.125Y-168.5
X557.125Y-174.0
X557.125Y-175.0
X557.125Y-180.845
X557.125Y-181.845
X557.125Y-187.0
X557.125Y-188.0
X557.125Y-193.0
X557.125Y-194.0
T2
X540.5Y-143.5
X543.04Y-143.5
T3
X168.12Y-91.54
X168.12Y-94.08
X168.12Y-96.62
X168.12Y-99.16
X168.12Y-101.7
X168.12Y-104.24
X168.12Y-106.78
X168.12Y-109.32
X168.12Y-111.86
X168.12Y-114.4
X168.12Y-116.94
X168.12Y-119.48
X168.12Y-122.02
X168.12Y-124.56
X168.12Y-127.1
X168.12Y-129.64
X168.12Y-132.18
X168.12Y-134.72
X168.12Y-137.26
X168.12Y-139.8
X168.12Y-142.34
X168.12Y-144.88
X168.12Y-147.42
X168.12Y-149.96
X168.12Y-152.5
X168.12Y-155.04
X168.12Y-157.58
X168.12Y-160.12
X168.12Y-162.66
X168.12Y-165.2
X168.12Y-167.74
X168.12Y-170.28
X168.12Y-172.82
X168.12Y-175.36
X168.12Y-177.9
X168.12Y-180.44
X170.66Y-91.54
X170.66Y-94.08
X170.66Y-96.62
X170.66Y-99.16
X170.66Y-101.7
X170.66Y-104.24
X170.66Y-106.78
X170.66Y-109.32
X170.66Y-111.86
X170.66Y-114.4
X170.66Y-116.94
X170.66Y-119.48
X170.66Y-122.02
X170.66Y-124.56
X170.66Y-127.1
X170.66Y-129.64
X170.66Y-132.18
X170.66Y-134.72
X170.66Y-137.26
X170.66Y-139.8
X170.66Y-142.34
X170.66Y-144.88
X170.66Y-147.42
X170.66Y-149.96
X170.66Y-152.5
X170.66Y-155.04
X170.66Y-157.58
X170.66Y-160.12
X170.66Y-162.66
X170.66Y-165.2
X170.66Y-167.74
X170.66Y-170.28
X170.66Y-172.82
X170.66Y-175.36
X170.66Y-177.9
X170.66Y-180.44
X175.74Y-101.7
X175.74Y-104.24
X175.74Y-106.78
X175.74Y-109.32
X175.74Y-111.86
X175.74Y-114.4
X175.74Y-116.94
X175.74Y-119.48
X175.74Y-124.56
X175.74Y-127.1
X175.74Y-129.64
X175.74Y-132.18
X175.74Y-134.72
X175.74Y-137.26
X175.74Y-139.8
X175.74Y-142.34
X175.74Y-144.88
X175.74Y-147.42
X175.74Y-149.96
X175.74Y-152.5
X175.74Y-155.04
X175.74Y-157.58
X175.74Y-160.12
X178.28Y-101.7
X178.28Y-104.24
X178.28Y-106.78
X178.28Y-109.32
X178.28Y-111.86
X178.28Y-114.4
X178.28Y-116.94
X178.28Y-119.48
X178.28Y-124.56
X178.28Y-127.1
X178.28Y-129.64
X178.28Y-132.18
X178.28Y-134.72
X178.28Y-137.26
X178.28Y-139.8
X178.28Y-142.34
X178.28Y-144.88
X178.28Y-147.42
X178.28Y-149.96
X178.28Y-152.5
X178.28Y-155.04
X178.28Y-157.58
X178.28Y-160.12
X221.46Y-92.556
X221.46Y-95.096
X221.46Y-97.636
X221.46Y-100.176
X221.46Y-102.716
X221.46Y-105.256
X221.46Y-107.796
X221.46Y-110.336
X221.46Y-112.876
X221.46Y-115.416
X221.46Y-119.48
X221.46Y-122.02
X221.46Y-124.56
X221.46Y-127.1
X221.46Y-129.64
X221.46Y-132.18
X221.46Y-134.72
X221.46Y-137.26
X221.46Y-139.8
X221.46Y-142.34
X221.46Y-144.88
X221.46Y-147.42
X221.46Y-149.96
X221.46Y-152.5
X221.46Y-155.04
X221.46Y-157.58
X221.46Y-160.12
X224.0Y-92.556
X224.0Y-95.096
X224.0Y-97.636
X224.0Y-100.176
X224.0Y-102.716
X224.0Y-105.256
X224.0Y-107.796
X224.0Y-110.336
X224.0Y-112.876
X224.0Y-115.416
X224.0Y-119.48
X224.0Y-122.02
X224.0Y-124.56
X224.0Y-127.1
X224.0Y-129.64
X224.0Y-132.18
X224.0Y-134.72
X224.0Y-137.26
X224.0Y-139.8
X224.0Y-142.34
X224.0Y-144.88
X224.0Y-147.42
X224.0Y-149.96
X224.0Y-152.5
X224.0Y-155.04
X224.0Y-157.58
X224.0Y-160.12
X229.08Y-91.56
X229.08Y-94.1
X229.08Y-96.64
X229.08Y-99.18
X229.08Y-101.72
X229.08Y-104.26
X229.08Y-106.8
X229.08Y-109.34
X229.08Y-111.88
X229.08Y-114.42
X229.08Y-116.96
X229.08Y-119.5
X229.08Y-122.04
X229.08Y-124.58
X229.08Y-127.12
X229.08Y-129.66
X229.08Y-132.2
X229.08Y-134.74
X229.08Y-137.28
X229.08Y-139.82
X229.08Y-142.36
X229.08Y-144.9
X229.08Y-147.44
X229.08Y-149.98
X229.08Y-152.52
X229.08Y-155.06
X229.08Y-157.6
X229.08Y-160.14
X229.08Y-162.68
X229.08Y-165.22
X229.08Y-167.76
X229.08Y-170.3
X229.08Y-172.84
X229.08Y-175.38
X229.08Y-177.92
X229.08Y-180.46
X231.62Y-91.56
X231.62Y-94.1
X231.62Y-96.64
X231.62Y-99.18
X231.62Y-101.72
X231.62Y-104.26
X231.62Y-106.8
X231.62Y-109.34
X231.62Y-111.88
X231.62Y-114.42
X231.62Y-116.96
X231.62Y-119.5
X231.62Y-122.04
X231.62Y-124.58
X231.62Y-127.12
X231.62Y-129.66
X231.62Y-132.2
X231.62Y-134.74
X231.62Y-137.28
X231.62Y-139.82
X231.62Y-142.36
X231.62Y-144.9
X231.62Y-147.44
X231.62Y-149.98
X231.62Y-152.52
X231.62Y-155.06
X231.62Y-157.6
X231.62Y-160.14
X231.62Y-162.68
X231.62Y-165.22
X231.62Y-167.76
X231.62Y-170.3
X231.62Y-172.84
X231.62Y-175.38
X231.62Y-177.92
X231.62Y-180.46
X280.0Y-91.5
X280.0Y-94.04
X280.0Y-96.58
X280.0Y-99.12
X280.0Y-101.66
X280.0Y-104.2
X280.0Y-106.74
X280.0Y-109.28
X280.0Y-111.82
X280.0Y-114.36
X280.0Y-116.9
X280.0Y-119.44
X280.0Y-121.98
X280.0Y-124.52
X280.0Y-127.06
X280.0Y-129.6
X280.0Y-132.14
X280.0Y-134.68
X280.0Y-137.22
X280.0Y-139.76
X280.0Y-142.3
X280.0Y-144.84
X280.0Y-147.38
X280.0Y-149.92
X289.0Y-91.5
X289.0Y-94.04
X289.0Y-96.58
X289.0Y-99.12
X289.0Y-101.66
X289.0Y-104.2
X289.0Y-106.74
X289.0Y-109.28
X289.0Y-111.82
X289.0Y-114.36
X289.0Y-116.9
X289.0Y-119.44
X289.0Y-121.98
X289.0Y-124.52
X289.0Y-127.06
X289.0Y-129.6
X289.0Y-132.14
X289.0Y-134.68
X289.0Y-137.22
X289.0Y-139.76
X289.0Y-142.3
X289.0Y-144.84
X289.0Y-147.38
X289.0Y-149.92
X312.0Y-91.5
X312.0Y-94.04
X312.0Y-96.58
X312.0Y-99.12
X312.0Y-101.66
X312.0Y-104.2
X312.0Y-106.74
X312.0Y-109.28
X312.0Y-111.82
X312.0Y-114.36
X312.0Y-116.9
X312.0Y-119.44
X312.0Y-121.98
X312.0Y-124.52
X312.0Y-127.06
X312.0Y-129.6
X312.0Y-132.14
X312.0Y-134.68
X312.0Y-137.22
X312.0Y-139.76
X312.0Y-142.3
X312.0Y-144.84
X312.0Y-147.38
X312.0Y-149.92
X321.0Y-91.46
X321.0Y-94.0
X321.0Y-96.54
X321.0Y-99.08
X321.0Y-101.62
X321.0Y-104.16
X321.0Y-106.7
X321.0Y-109.24
X321.0Y-111.78
X321.0Y-114.32
X321.0Y-116.86
X321.0Y-119.4
X321.0Y-121.94
X321.0Y-124.48
X321.0Y-127.02
X321.0Y-129.56
X321.0Y-132.1
X321.0Y-134.64
X321.0Y-137.18
X321.0Y-139.72
X321.0Y-142.26
X321.0Y-144.8
X321.0Y-147.34
X321.0Y-149.88
X368.62Y-91.84
X368.62Y-94.38
X368.62Y-96.92
X368.62Y-99.46
X368.62Y-102.0
X368.62Y-104.54
X368.62Y-107.08
X368.62Y-109.62
X368.62Y-112.16
X368.62Y-114.7
X368.62Y-117.24
X368.62Y-119.78
X368.62Y-122.32
X368.62Y-124.86
X368.62Y-127.4
X368.62Y-129.94
X368.62Y-132.48
X368.62Y-135.02
X368.62Y-137.56
X368.62Y-140.1
X368.62Y-142.64
X368.62Y-145.18
X368.62Y-147.72
X368.62Y-150.26
X368.62Y-152.8
X368.62Y-155.34
X368.62Y-157.88
X368.62Y-160.42
X368.62Y-162.96
X368.62Y-165.5
X368.62Y-168.04
X368.62Y-170.58
X368.62Y-173.12
X368.62Y-175.66
X368.62Y-178.2
X368.62Y-180.74
X371.16Y-91.84
X371.16Y-94.38
X371.16Y-96.92
X371.16Y-99.46
X371.16Y-102.0
X371.16Y-104.54
X371.16Y-107.08
X371.16Y-109.62
X371.16Y-112.16
X371.16Y-114.7
X371.16Y-117.24
X371.16Y-119.78
X371.16Y-122.32
X371.16Y-124.86
X371.16Y-127.4
X371.16Y-129.94
X371.16Y-132.48
X371.16Y-135.02
X371.16Y-137.56
X371.16Y-140.1
X371.16Y-142.64
X371.16Y-145.18
X371.16Y-147.72
X371.16Y-150.26
X371.16Y-152.8
X371.16Y-155.34
X371.16Y-157.88
X371.16Y-160.42
X371.16Y-162.96
X371.16Y-165.5
X371.16Y-168.04
X371.16Y-170.58
X371.16Y-173.12
X371.16Y-175.66
X371.16Y-178.2
X371.16Y-180.74
X376.24Y-102.0
X376.24Y-104.54
X376.24Y-107.08
X376.24Y-109.62
X376.24Y-112.16
X376.24Y-114.7
X376.24Y-117.24
X376.24Y-119.78
X376.24Y-124.86
X376.24Y-127.4
X376.24Y-129.94
X376.24Y-132.48
X376.24Y-135.02
X376.24Y-137.56
X376.24Y-140.1
X376.24Y-142.64
X376.24Y-145.18
X376.24Y-147.72
X376.24Y-150.26
X376.24Y-152.8
X376.24Y-155.34
X376.24Y-157.88
X376.24Y-160.42
X378.78Y-102.0
X378.78Y-104.54
X378.78Y-107.08
X378.78Y-109.62
X378.78Y-112.16
X378.78Y-114.7
X378.78Y-117.24
X378.78Y-119.78
X378.78Y-124.86
X378.78Y-127.4
X378.78Y-129.94
X378.78Y-132.48
X378.78Y-135.02
X378.78Y-137.56
X378.78Y-140.1
X378.78Y-142.64
X378.78Y-145.18
X378.78Y-147.72
X378.78Y-150.26
X378.78Y-152.8
X378.78Y-155.34
X378.78Y-157.88
X378.78Y-160.42
X421.96Y-92.856
X421.96Y-95.396
X421.96Y-97.936
X421.96Y-100.476
X421.96Y-103.016
X421.96Y-105.556
X421.96Y-108.096
X421.96Y-110.636
X421.96Y-113.176
X421.96Y-115.716
X421.96Y-119.78
X421.96Y-122.32
X421.96Y-124.86
X421.96Y-127.4
X421.96Y-129.94
X421.96Y-132.48
X421.96Y-135.02
X421.96Y-137.56
X421.96Y-140.1
X421.96Y-142.64
X421.96Y-145.18
X421.96Y-147.72
X421.96Y-150.26
X421.96Y-152.8
X421.96Y-155.34
X421.96Y-157.88
X421.96Y-160.42
X424.5Y-92.856
X424.5Y-95.396
X424.5Y-97.936
X424.5Y-100.476
X424.5Y-103.016
X424.5Y-105.556
X424.5Y-108.096
X424.5Y-110.636
X424.5Y-113.176
X424.5Y-115.716
X424.5Y-119.78
X424.5Y-122.32
X424.5Y-124.86
X424.5Y-127.4
X424.5Y-129.94
X424.5Y-132.48
X424.5Y-135.02
X424.5Y-137.56
X424.5Y-140.1
X424.5Y-142.64
X424.5Y-145.18
X424.5Y-147.72
X424.5Y-150.26
X424.5Y-152.8
X424.5Y-155.34
X424.5Y-157.88
X424.5Y-160.42
X429.58Y-91.86
X429.58Y-94.4
X429.58Y-96.94
X429.58Y-99.48
X429.58Y-102.02
X429.58Y-104.56
X429.58Y-107.1
X429.58Y-109.64
X429.58Y-112.18
X429.58Y-114.72
X429.58Y-117.26
X429.58Y-119.8
X429.58Y-122.34
X429.58Y-124.88
X429.58Y-127.42
X429.58Y-129.96
X429.58Y-132.5
X429.58Y-135.04
X429.58Y-137.58
X429.58Y-140.12
X429.58Y-142.66
X429.58Y-145.2
X429.58Y-147.74
X429.58Y-150.28
X429.58Y-152.82
X429.58Y-155.36
X429.58Y-157.9
X429.58Y-160.44
X429.58Y-162.98
X429.58Y-165.52
X429.58Y-168.06
X429.58Y-170.6
X429.58Y-173.14
X429.58Y-175.68
X429.58Y-178.22
X429.58Y-180.76
X432.12Y-91.86
X432.12Y-94.4
X432.12Y-96.94
X432.12Y-99.48
X432.12Y-102.02
X432.12Y-104.56
X432.12Y-107.1
X432.12Y-109.64
X432.12Y-112.18
X432.12Y-114.72
X432.12Y-117.26
X432.12Y-119.8
X432.12Y-122.34
X432.12Y-124.88
X432.12Y-127.42
X432.12Y-129.96
X432.12Y-132.5
X432.12Y-135.04
X432.12Y-137.58
X432.12Y-140.12
X432.12Y-142.66
X432.12Y-145.2
X432.12Y-147.74
X432.12Y-150.28
X432.12Y-152.82
X432.12Y-155.36
X432.12Y-157.9
X432.12Y-160.44
X432.12Y-162.98
X432.12Y-165.52
X432.12Y-168.06
X432.12Y-170.6
X432.12Y-173.14
X432.12Y-175.68
X432.12Y-178.22
X432.12Y-180.76
X449.188Y-143.051
X449.188Y-145.591
X449.188Y-148.131
X449.188Y-150.671
X449.188Y-153.211
X449.188Y-155.751
X449.188Y-158.291
X449.188Y-160.831
X449.188Y-163.371
X449.188Y-165.911
X449.188Y-168.451
X449.188Y-170.991
X449.188Y-173.531
X449.188Y-176.071
X449.188Y-178.611
X449.188Y-181.151
X449.188Y-183.691
X449.188Y-186.231
X449.188Y-188.771
X449.188Y-191.311
X453.0Y-187.5
X455.54Y-187.5
X458.08Y-187.5
X460.62Y-187.5
X464.428Y-143.051
X464.428Y-145.591
X464.428Y-148.131
X464.428Y-150.671
X464.428Y-153.211
X464.428Y-155.751
X464.428Y-158.291
X464.428Y-160.831
X464.428Y-163.371
X464.428Y-165.911
X464.428Y-168.451
X464.428Y-170.991
X464.428Y-173.531
X464.428Y-176.071
X464.428Y-178.611
X464.428Y-181.151
X464.428Y-183.691
X464.428Y-186.231
X464.428Y-188.771
X464.428Y-191.311
T4
X43.0Y-131.28
X43.0Y-133.82
X43.0Y-136.36
X43.0Y-138.9
X43.0Y-141.44
X43.0Y-143.98
X43.0Y-146.52
X43.0Y-149.06
X43.0Y-151.6
X43.0Y-154.14
X43.0Y-156.68
X43.0Y-159.22
X43.0Y-161.76
X43.0Y-164.3
X43.0Y-166.84
X43.0Y-169.38
X43.0Y-171.92
X43.0Y-174.46
X43.0Y-177.0
X45.54Y-131.28
X45.54Y-133.82
X45.54Y-136.36
X45.54Y-138.9
X45.54Y-141.44
X45.54Y-143.98
X45.54Y-146.52
X45.54Y-149.06
X45.54Y-151.6
X45.54Y-154.14
X45.54Y-156.68
X45.54Y-159.22
X45.54Y-161.76
X45.54Y-164.3
X45.54Y-166.84
X45.54Y-169.38
X45.54Y-171.92
X45.54Y-174.46
X45.54Y-177.0
X103.96Y-131.28
X103.96Y-133.82
X103.96Y-136.36
X103.96Y-138.9
X103.96Y-141.44
X103.96Y-143.98
X103.96Y-146.52
X103.96Y-149.06
X103.96Y-151.6
X103.96Y-154.14
X103.96Y-156.68
X103.96Y-159.22
X103.96Y-161.76
X103.96Y-164.3
X103.96Y-166.84
X103.96Y-169.38
X103.96Y-171.92
X103.96Y-174.46
X103.96Y-177.0
X106.5Y-131.28
X106.5Y-133.82
X106.5Y-136.36
X106.5Y-138.9
X106.5Y-141.44
X106.5Y-143.98
X106.5Y-146.52
X106.5Y-149.06
X106.5Y-151.6
X106.5Y-154.14
X106.5Y-156.68
X106.5Y-159.22
X106.5Y-161.76
X106.5Y-164.3
X106.5Y-166.84
X106.5Y-169.38
X106.5Y-171.92
X106.5Y-174.46
X106.5Y-177.0
X491.36Y-87.0
X491.36Y-89.54
X491.36Y-92.08
X491.36Y-94.62
X491.36Y-97.16
X491.36Y-99.7
X491.36Y-102.24
X491.36Y-104.78
X491.36Y-107.32
X491.36Y-109.86
X491.36Y-112.4
X491.36Y-114.94
X491.36Y-117.48
X491.36Y-120.02
X491.36Y-122.56
X491.36Y-125.1
X491.36Y-127.64
X491.36Y-130.18
X491.36Y-132.72
X493.9Y-87.0
X493.9Y-89.54
X493.9Y-92.08
X493.9Y-94.62
X493.9Y-97.16
X493.9Y-99.7
X493.9Y-102.24
X493.9Y-104.78
X493.9Y-107.32
X493.9Y-109.86
X493.9Y-112.4
X493.9Y-114.94
X493.9Y-117.48
X493.9Y-120.02
X493.9Y-122.56
X493.9Y-125.1
X493.9Y-127.64
X493.9Y-130.18
X493.9Y-132.72
X552.32Y-87.0
X552.32Y-89.54
X552.32Y-92.08
X552.32Y-94.62
X552.32Y-97.16
X552.32Y-99.7
X552.32Y-102.24
X552.32Y-104.78
X552.32Y-107.32
X552.32Y-109.86
X552.32Y-112.4
X552.32Y-114.94
X552.32Y-117.48
X552.32Y-120.02
X552.32Y-122.56
X552.32Y-125.1
X552.32Y-127.64
X552.32Y-130.18
X552.32Y-132.72
X554.86Y-87.0
X554.86Y-89.54
X554.86Y-92.08
X554.86Y-94.62
X554.86Y-97.16
X554.86Y-99.7
X554.86Y-102.24
X554.86Y-104.78
X554.86Y-107.32
X554.86Y-109.86
X554.86Y-112.4
X554.86Y-114.94
X554.86Y-117.48
X554.86Y-120.02
X554.86Y-122.56
X554.86Y-125.1
X554.86Y-127.64
X554.86Y-130.18
X554.86Y-132.72
T5
X50.62Y-141.44
X50.62Y-143.98
X50.62Y-146.52
X50.62Y-149.06
X50.62Y-151.6
X50.62Y-154.14
X50.62Y-156.68
X50.62Y-159.22
X50.62Y-164.3
X50.62Y-166.84
X50.62Y-169.38
X50.62Y-171.92
X50.62Y-174.46
X50.62Y-177.0
X98.88Y-132.3
X98.88Y-134.84
X98.88Y-137.38
X98.88Y-139.92
X98.88Y-142.46
X98.88Y-145.0
X98.88Y-147.54
X98.88Y-150.08
X98.88Y-152.62
X98.88Y-155.16
X98.88Y-159.22
X98.88Y-161.76
X98.88Y-164.3
X98.88Y-166.84
X98.88Y-169.38
X98.88Y-171.92
X98.88Y-174.46
X98.88Y-177.0
X498.98Y-97.16
X498.98Y-99.7
X498.98Y-102.24
X498.98Y-104.78
X498.98Y-107.32
X498.98Y-109.86
X498.98Y-112.4
X498.98Y-114.94
X498.98Y-120.02
X498.98Y-122.56
X498.98Y-125.1
X498.98Y-127.64
X498.98Y-130.18
X498.98Y-132.72
X547.24Y-88.02
X547.24Y-90.56
X547.24Y-93.1
X547.24Y-95.64
X547.24Y-98.18
X547.24Y-100.72
X547.24Y-103.26
X547.24Y-105.8
X547.24Y-108.34
X547.24Y-110.88
X547.24Y-114.94
X547.24Y-117.48
X547.24Y-120.02
X547.24Y-122.56
X547.24Y-125.1
X547.24Y-127.64
X547.24Y-130.18
X547.24Y-132.72
M30
