%TF.GenerationSoftware,KiCad,Pcbnew,9.0.2+dfsg-1*%
%TF.CreationDate,2025-07-09T20:59:58-07:00*%
%TF.ProjectId,signalmesh,7369676e-616c-46d6-9573-682e6b696361,rev?*%
%TF.SameCoordinates,Original*%
%TF.FileFunction,Soldermask,Top*%
%TF.FilePolarity,Negative*%
%FSLAX46Y46*%
G04 Gerber Fmt 4.6, Leading zero omitted, Abs format (unit mm)*
G04 Created by KiCad (PCBNEW 9.0.2+dfsg-1) date 2025-07-09 20:59:58*
%MOMM*%
%LPD*%
G01*
G04 APERTURE LIST*
G04 Aperture macros list*
%AMRoundRect*
0 Rectangle with rounded corners*
0 $1 Rounding radius*
0 $2 $3 $4 $5 $6 $7 $8 $9 X,Y pos of 4 corners*
0 Add a 4 corners polygon primitive as box body*
4,1,4,$2,$3,$4,$5,$6,$7,$8,$9,$2,$3,0*
0 Add four circle primitives for the rounded corners*
1,1,$1+$1,$2,$3*
1,1,$1+$1,$4,$5*
1,1,$1+$1,$6,$7*
1,1,$1+$1,$8,$9*
0 Add four rect primitives between the rounded corners*
20,1,$1+$1,$2,$3,$4,$5,0*
20,1,$1+$1,$4,$5,$6,$7,0*
20,1,$1+$1,$6,$7,$8,$9,0*
20,1,$1+$1,$8,$9,$2,$3,0*%
G04 Aperture macros list end*
%ADD10RoundRect,0.250000X0.350000X0.450000X-0.350000X0.450000X-0.350000X-0.450000X0.350000X-0.450000X0*%
%ADD11RoundRect,0.218750X0.256250X-0.218750X0.256250X0.218750X-0.256250X0.218750X-0.256250X-0.218750X0*%
%ADD12RoundRect,0.218750X-0.218750X-0.256250X0.218750X-0.256250X0.218750X0.256250X-0.218750X0.256250X0*%
%ADD13R,0.850000X0.850000*%
%ADD14C,0.850000*%
%ADD15R,1.524000X2.524000*%
%ADD16O,1.524000X2.524000*%
%ADD17RoundRect,0.150000X-0.825000X-0.150000X0.825000X-0.150000X0.825000X0.150000X-0.825000X0.150000X0*%
%ADD18C,1.500000*%
%ADD19RoundRect,0.250000X-0.350000X-0.450000X0.350000X-0.450000X0.350000X0.450000X-0.350000X0.450000X0*%
%ADD20RoundRect,0.250000X0.450000X-0.350000X0.450000X0.350000X-0.450000X0.350000X-0.450000X-0.350000X0*%
%ADD21RoundRect,0.250000X-0.250000X-0.475000X0.250000X-0.475000X0.250000X0.475000X-0.250000X0.475000X0*%
%ADD22R,1.100000X2.500000*%
%ADD23O,1.900000X3.500000*%
%ADD24RoundRect,0.250000X-0.450000X0.350000X-0.450000X-0.350000X0.450000X-0.350000X0.450000X0.350000X0*%
%ADD25RoundRect,0.250000X0.550000X0.550000X-0.550000X0.550000X-0.550000X-0.550000X0.550000X-0.550000X0*%
%ADD26C,1.600000*%
%ADD27RoundRect,0.250000X0.250000X0.475000X-0.250000X0.475000X-0.250000X-0.475000X0.250000X-0.475000X0*%
%ADD28RoundRect,0.218750X-0.256250X0.218750X-0.256250X-0.218750X0.256250X-0.218750X0.256250X0.218750X0*%
%ADD29RoundRect,0.218750X0.218750X0.256250X-0.218750X0.256250X-0.218750X-0.256250X0.218750X-0.256250X0*%
%ADD30RoundRect,0.102000X-0.754000X-0.754000X0.754000X-0.754000X0.754000X0.754000X-0.754000X0.754000X0*%
%ADD31C,1.712000*%
%ADD32R,0.350000X0.500000*%
%ADD33C,2.500000*%
%ADD34R,1.524000X1.524000*%
%ADD35C,1.524000*%
%ADD36R,1.700000X1.700000*%
%ADD37C,1.700000*%
%ADD38RoundRect,0.150000X-0.512500X-0.150000X0.512500X-0.150000X0.512500X0.150000X-0.512500X0.150000X0*%
%ADD39R,1.050000X1.500000*%
%ADD40O,1.050000X1.500000*%
%ADD41RoundRect,0.162500X-0.650000X-0.162500X0.650000X-0.162500X0.650000X0.162500X-0.650000X0.162500X0*%
%ADD42RoundRect,0.250000X-0.550000X-0.550000X0.550000X-0.550000X0.550000X0.550000X-0.550000X0.550000X0*%
%ADD43RoundRect,0.102000X-0.802500X-0.802500X0.802500X-0.802500X0.802500X0.802500X-0.802500X0.802500X0*%
%ADD44C,1.809000*%
%ADD45RoundRect,0.102000X-0.765000X-0.765000X0.765000X-0.765000X0.765000X0.765000X-0.765000X0.765000X0*%
%ADD46C,1.734000*%
%ADD47RoundRect,0.150000X0.825000X0.150000X-0.825000X0.150000X-0.825000X-0.150000X0.825000X-0.150000X0*%
%ADD48RoundRect,0.102000X-0.300000X-0.600000X0.300000X-0.600000X0.300000X0.600000X-0.300000X0.600000X0*%
%ADD49RoundRect,0.250000X-0.550000X0.550000X-0.550000X-0.550000X0.550000X-0.550000X0.550000X0.550000X0*%
%ADD50RoundRect,0.102000X-0.990600X-0.279400X0.990600X-0.279400X0.990600X0.279400X-0.990600X0.279400X0*%
%ADD51RoundRect,0.102000X-0.600000X0.300000X-0.600000X-0.300000X0.600000X-0.300000X0.600000X0.300000X0*%
%ADD52RoundRect,0.250000X0.550000X-0.550000X0.550000X0.550000X-0.550000X0.550000X-0.550000X-0.550000X0*%
%ADD53RoundRect,0.102000X-0.250000X0.200000X-0.250000X-0.200000X0.250000X-0.200000X0.250000X0.200000X0*%
G04 APERTURE END LIST*
D10*
%TO.C,R96*%
X445500000Y-45400000D03*
X443500000Y-45400000D03*
%TD*%
D11*
%TO.C,D12*%
X365400000Y-124434200D03*
X365400000Y-122859200D03*
%TD*%
D12*
%TO.C,D60*%
X289762500Y-38650000D03*
X291337500Y-38650000D03*
%TD*%
D13*
%TO.C,J15*%
X557555000Y-140920000D03*
D14*
X557555000Y-141920000D03*
%TD*%
D15*
%TO.C,U18*%
X216420000Y-139963000D03*
D16*
X218960000Y-139963000D03*
X221500000Y-139963000D03*
X224040000Y-139963000D03*
X226580000Y-139963000D03*
X226580000Y-124723000D03*
X224040000Y-124723000D03*
X221500000Y-124723000D03*
X218960000Y-124723000D03*
X216420000Y-124723000D03*
%TD*%
D17*
%TO.C,U39*%
X450250000Y-44150000D03*
X450250000Y-45420000D03*
X450250000Y-46690000D03*
X450250000Y-47960000D03*
X450250000Y-49230000D03*
X450250000Y-50500000D03*
X450250000Y-51770000D03*
X450250000Y-53040000D03*
X455200000Y-53040000D03*
X455200000Y-51770000D03*
X455200000Y-50500000D03*
X455200000Y-49230000D03*
X455200000Y-47960000D03*
X455200000Y-46690000D03*
X455200000Y-45420000D03*
X455200000Y-44150000D03*
%TD*%
D18*
%TO.C,Y9*%
X223210000Y-54144900D03*
X228090000Y-54144900D03*
%TD*%
D10*
%TO.C,R48*%
X194643800Y-103362500D03*
X192643800Y-103362500D03*
%TD*%
D11*
%TO.C,D29*%
X201143800Y-108150000D03*
X201143800Y-106575000D03*
%TD*%
%TO.C,D18*%
X290950000Y-146487500D03*
X290950000Y-144912500D03*
%TD*%
D19*
%TO.C,R3*%
X552310000Y-143720000D03*
X554310000Y-143720000D03*
%TD*%
%TO.C,R82*%
X376061700Y-163947700D03*
X378061700Y-163947700D03*
%TD*%
D20*
%TO.C,R42*%
X243305000Y-100500000D03*
X243305000Y-98500000D03*
%TD*%
D21*
%TO.C,C8*%
X233300000Y-104000000D03*
X235200000Y-104000000D03*
%TD*%
D19*
%TO.C,R55*%
X317690000Y-81126000D03*
X319690000Y-81126000D03*
%TD*%
D22*
%TO.C,J25*%
X389100000Y-175750000D03*
X386600000Y-175750000D03*
X384600000Y-175750000D03*
X382100000Y-175750000D03*
D23*
X391300000Y-178500000D03*
X379900000Y-178500000D03*
%TD*%
D24*
%TO.C,R95*%
X451250000Y-38750000D03*
X451250000Y-40750000D03*
%TD*%
%TO.C,R85*%
X527500000Y-38250000D03*
X527500000Y-40250000D03*
%TD*%
D11*
%TO.C,D5*%
X532486000Y-109262500D03*
X532486000Y-107687500D03*
%TD*%
D19*
%TO.C,R57*%
X240400000Y-61378000D03*
X242400000Y-61378000D03*
%TD*%
D20*
%TO.C,R12*%
X536520000Y-98820000D03*
X536520000Y-96820000D03*
%TD*%
D25*
%TO.C,U27*%
X501860000Y-142040000D03*
D26*
X501860000Y-139500000D03*
X501860000Y-136960000D03*
X501860000Y-134420000D03*
X494240000Y-134420000D03*
X494240000Y-136960000D03*
X494240000Y-139500000D03*
X494240000Y-142040000D03*
%TD*%
D11*
%TO.C,D30*%
X201143800Y-103900000D03*
X201143800Y-102325000D03*
%TD*%
D19*
%TO.C,R88*%
X293550000Y-38650000D03*
X295550000Y-38650000D03*
%TD*%
D27*
%TO.C,C3*%
X550412700Y-130924900D03*
X548512700Y-130924900D03*
%TD*%
D28*
%TO.C,D2*%
X498670000Y-100332500D03*
X498670000Y-101907500D03*
%TD*%
D11*
%TO.C,D24*%
X427100000Y-147187500D03*
X427100000Y-145612500D03*
%TD*%
D10*
%TO.C,R17*%
X491770000Y-101420000D03*
X489770000Y-101420000D03*
%TD*%
%TO.C,R6*%
X420700000Y-155000000D03*
X418700000Y-155000000D03*
%TD*%
D19*
%TO.C,R76*%
X522810000Y-145420000D03*
X524810000Y-145420000D03*
%TD*%
%TO.C,R73*%
X489560000Y-145420000D03*
X491560000Y-145420000D03*
%TD*%
D10*
%TO.C,R16*%
X491770000Y-96920000D03*
X489770000Y-96920000D03*
%TD*%
D12*
%TO.C,D25*%
X238517500Y-104000000D03*
X240092500Y-104000000D03*
%TD*%
D11*
%TO.C,D23*%
X427200000Y-151487500D03*
X427200000Y-149912500D03*
%TD*%
D22*
%TO.C,J33*%
X215900000Y-36794900D03*
X218400000Y-36794900D03*
X220400000Y-36794900D03*
X222900000Y-36794900D03*
D23*
X213700000Y-34044900D03*
X225100000Y-34044900D03*
%TD*%
D11*
%TO.C,D22*%
X427100000Y-155787500D03*
X427100000Y-154212500D03*
%TD*%
D19*
%TO.C,R54*%
X450000000Y-86000000D03*
X452000000Y-86000000D03*
%TD*%
%TO.C,R39*%
X283150000Y-155900000D03*
X285150000Y-155900000D03*
%TD*%
D29*
%TO.C,D52*%
X526110000Y-103610000D03*
X524535000Y-103610000D03*
%TD*%
D19*
%TO.C,R36*%
X356100000Y-127980000D03*
X358100000Y-127980000D03*
%TD*%
D10*
%TO.C,R91*%
X310800000Y-45400000D03*
X308800000Y-45400000D03*
%TD*%
%TO.C,R102*%
X228938300Y-48597100D03*
X226938300Y-48597100D03*
%TD*%
D19*
%TO.C,R98*%
X211650000Y-38394900D03*
X213650000Y-38394900D03*
%TD*%
%TO.C,R44*%
X489060000Y-132320000D03*
X491060000Y-132320000D03*
%TD*%
%TO.C,R94*%
X443500000Y-42150000D03*
X445500000Y-42150000D03*
%TD*%
D17*
%TO.C,U38*%
X315550000Y-44150000D03*
X315550000Y-45420000D03*
X315550000Y-46690000D03*
X315550000Y-47960000D03*
X315550000Y-49230000D03*
X315550000Y-50500000D03*
X315550000Y-51770000D03*
X315550000Y-53040000D03*
X320500000Y-53040000D03*
X320500000Y-51770000D03*
X320500000Y-50500000D03*
X320500000Y-49230000D03*
X320500000Y-47960000D03*
X320500000Y-46690000D03*
X320500000Y-45420000D03*
X320500000Y-44150000D03*
%TD*%
D19*
%TO.C,R20*%
X552310000Y-113775000D03*
X554310000Y-113775000D03*
%TD*%
D21*
%TO.C,C35*%
X207700000Y-35144900D03*
X209600000Y-35144900D03*
%TD*%
D30*
%TO.C,U1*%
X335080000Y-37186000D03*
D31*
X337620000Y-37186000D03*
X335080000Y-39726000D03*
X337620000Y-39726000D03*
X335080000Y-42266000D03*
X337620000Y-42266000D03*
X335080000Y-44806000D03*
X337620000Y-44806000D03*
X335080000Y-47346000D03*
X337620000Y-47346000D03*
X335080000Y-49886000D03*
X337620000Y-49886000D03*
X335080000Y-52426000D03*
X337620000Y-52426000D03*
X335080000Y-54966000D03*
X337620000Y-54966000D03*
X335080000Y-57506000D03*
X337620000Y-57506000D03*
X335080000Y-60046000D03*
X337620000Y-60046000D03*
D30*
X289360000Y-46330000D03*
D31*
X291900000Y-46330000D03*
X289360000Y-48870000D03*
X291900000Y-48870000D03*
X289360000Y-51410000D03*
X291900000Y-51410000D03*
X289360000Y-53950000D03*
X291900000Y-53950000D03*
X289360000Y-56490000D03*
X291900000Y-56490000D03*
X289360000Y-59030000D03*
X291900000Y-59030000D03*
X289360000Y-61570000D03*
X291900000Y-61570000D03*
X289360000Y-64110000D03*
X291900000Y-64110000D03*
D30*
X289360000Y-69190000D03*
D31*
X291900000Y-69190000D03*
X289360000Y-71730000D03*
X291900000Y-71730000D03*
X289360000Y-74270000D03*
X291900000Y-74270000D03*
X289360000Y-76810000D03*
X291900000Y-76810000D03*
X289360000Y-79350000D03*
X291900000Y-79350000D03*
X289360000Y-81890000D03*
X291900000Y-81890000D03*
X289360000Y-84430000D03*
X291900000Y-84430000D03*
X289360000Y-86970000D03*
X291900000Y-86970000D03*
X289360000Y-89510000D03*
X291900000Y-89510000D03*
X289360000Y-92050000D03*
X291900000Y-92050000D03*
X289360000Y-94590000D03*
X291900000Y-94590000D03*
X289360000Y-97130000D03*
X291900000Y-97130000D03*
X289360000Y-99670000D03*
X291900000Y-99670000D03*
X289360000Y-102210000D03*
X291900000Y-102210000D03*
X289360000Y-104750000D03*
X291900000Y-104750000D03*
D30*
X335080000Y-64110000D03*
D31*
X337620000Y-64110000D03*
X335080000Y-66650000D03*
X337620000Y-66650000D03*
X335080000Y-69190000D03*
X337620000Y-69190000D03*
X335080000Y-71730000D03*
X337620000Y-71730000D03*
X335080000Y-74270000D03*
X337620000Y-74270000D03*
X335080000Y-76810000D03*
X337620000Y-76810000D03*
X335080000Y-79350000D03*
X337620000Y-79350000D03*
X335080000Y-81890000D03*
X337620000Y-81890000D03*
X335080000Y-84430000D03*
X337620000Y-84430000D03*
X335080000Y-86970000D03*
X337620000Y-86970000D03*
X335080000Y-89510000D03*
X337620000Y-89510000D03*
X335080000Y-92050000D03*
X337620000Y-92050000D03*
X335080000Y-94590000D03*
X337620000Y-94590000D03*
X335080000Y-97130000D03*
X337620000Y-97130000D03*
X335080000Y-99670000D03*
X337620000Y-99670000D03*
X335080000Y-102210000D03*
X337620000Y-102210000D03*
X335080000Y-104750000D03*
X337620000Y-104750000D03*
D30*
X281740000Y-36170000D03*
D31*
X284280000Y-36170000D03*
X281740000Y-38710000D03*
X284280000Y-38710000D03*
X281740000Y-41250000D03*
X284280000Y-41250000D03*
X281740000Y-43790000D03*
X284280000Y-43790000D03*
X281740000Y-46330000D03*
X284280000Y-46330000D03*
X281740000Y-48870000D03*
X284280000Y-48870000D03*
X281740000Y-51410000D03*
X284280000Y-51410000D03*
X281740000Y-53950000D03*
X284280000Y-53950000D03*
X281740000Y-56490000D03*
X284280000Y-56490000D03*
X281740000Y-59030000D03*
X284280000Y-59030000D03*
X281740000Y-61570000D03*
X284280000Y-61570000D03*
X281740000Y-64110000D03*
X284280000Y-64110000D03*
X281740000Y-66650000D03*
X284280000Y-66650000D03*
X281740000Y-69190000D03*
X284280000Y-69190000D03*
X281740000Y-71730000D03*
X284280000Y-71730000D03*
X281740000Y-74270000D03*
X284280000Y-74270000D03*
X281740000Y-76810000D03*
X284280000Y-76810000D03*
X281740000Y-79350000D03*
X284280000Y-79350000D03*
X281740000Y-81890000D03*
X284280000Y-81890000D03*
X281740000Y-84430000D03*
X284280000Y-84430000D03*
X281740000Y-86970000D03*
X284280000Y-86970000D03*
X281740000Y-89510000D03*
X284280000Y-89510000D03*
X281740000Y-92050000D03*
X284280000Y-92050000D03*
X281740000Y-94590000D03*
X284280000Y-94590000D03*
X281740000Y-97130000D03*
X284280000Y-97130000D03*
X281740000Y-99670000D03*
X284280000Y-99670000D03*
X281740000Y-102210000D03*
X284280000Y-102210000D03*
X281740000Y-104750000D03*
X284280000Y-104750000D03*
X281740000Y-107290000D03*
X284280000Y-107290000D03*
X281740000Y-109830000D03*
X284280000Y-109830000D03*
X281740000Y-112370000D03*
X284280000Y-112370000D03*
X281740000Y-114910000D03*
X284280000Y-114910000D03*
X281740000Y-117450000D03*
X284280000Y-117450000D03*
X281740000Y-119990000D03*
X284280000Y-119990000D03*
X281740000Y-122530000D03*
X284280000Y-122530000D03*
X281740000Y-125070000D03*
X284280000Y-125070000D03*
D30*
X342700000Y-36190000D03*
D31*
X345240000Y-36190000D03*
X342700000Y-38730000D03*
X345240000Y-38730000D03*
X342700000Y-41270000D03*
X345240000Y-41270000D03*
X342700000Y-43810000D03*
X345240000Y-43810000D03*
X342700000Y-46350000D03*
X345240000Y-46350000D03*
X342700000Y-48890000D03*
X345240000Y-48890000D03*
X342700000Y-51430000D03*
X345240000Y-51430000D03*
X342700000Y-53970000D03*
X345240000Y-53970000D03*
X342700000Y-56510000D03*
X345240000Y-56510000D03*
X342700000Y-59050000D03*
X345240000Y-59050000D03*
X342700000Y-61590000D03*
X345240000Y-61590000D03*
X342700000Y-64130000D03*
X345240000Y-64130000D03*
X342700000Y-66670000D03*
X345240000Y-66670000D03*
X342700000Y-69210000D03*
X345240000Y-69210000D03*
X342700000Y-71750000D03*
X345240000Y-71750000D03*
X342700000Y-74290000D03*
X345240000Y-74290000D03*
X342700000Y-76830000D03*
X345240000Y-76830000D03*
X342700000Y-79370000D03*
X345240000Y-79370000D03*
X342700000Y-81910000D03*
X345240000Y-81910000D03*
X342700000Y-84450000D03*
X345240000Y-84450000D03*
X342700000Y-86990000D03*
X345240000Y-86990000D03*
X342700000Y-89530000D03*
X345240000Y-89530000D03*
X342700000Y-92070000D03*
X345240000Y-92070000D03*
X342700000Y-94610000D03*
X345240000Y-94610000D03*
X342700000Y-97150000D03*
X345240000Y-97150000D03*
X342700000Y-99690000D03*
X345240000Y-99690000D03*
X342700000Y-102230000D03*
X345240000Y-102230000D03*
X342700000Y-104770000D03*
X345240000Y-104770000D03*
X342700000Y-107310000D03*
X345240000Y-107310000D03*
X342700000Y-109850000D03*
X345240000Y-109850000D03*
X342700000Y-112390000D03*
X345240000Y-112390000D03*
X342700000Y-114930000D03*
X345240000Y-114930000D03*
X342700000Y-117470000D03*
X345240000Y-117470000D03*
X342700000Y-120010000D03*
X345240000Y-120010000D03*
X342700000Y-122550000D03*
X345240000Y-122550000D03*
X342700000Y-125090000D03*
X345240000Y-125090000D03*
%TD*%
D19*
%TO.C,R22*%
X552310000Y-120275000D03*
X554310000Y-120275000D03*
%TD*%
%TO.C,R2*%
X535330000Y-141120000D03*
X537330000Y-141120000D03*
%TD*%
D32*
%TO.C,U6*%
X380300000Y-131480000D03*
X380950000Y-131480000D03*
X381600000Y-131480000D03*
X382250000Y-131480000D03*
X382250000Y-133530000D03*
X381600000Y-133530000D03*
X380950000Y-133530000D03*
X380300000Y-133530000D03*
%TD*%
D11*
%TO.C,D21*%
X427200000Y-142887500D03*
X427200000Y-141312500D03*
%TD*%
D19*
%TO.C,R84*%
X519750000Y-42250000D03*
X521750000Y-42250000D03*
%TD*%
D12*
%TO.C,D62*%
X305012500Y-45400000D03*
X306587500Y-45400000D03*
%TD*%
D27*
%TO.C,C1*%
X550412700Y-143915000D03*
X548512700Y-143915000D03*
%TD*%
D21*
%TO.C,C28*%
X520800000Y-61100000D03*
X522700000Y-61100000D03*
%TD*%
D29*
%TO.C,D55*%
X381887500Y-167400000D03*
X380312500Y-167400000D03*
%TD*%
D27*
%TO.C,C5*%
X550412700Y-117424900D03*
X548512700Y-117424900D03*
%TD*%
D19*
%TO.C,R74*%
X489560000Y-116420000D03*
X491560000Y-116420000D03*
%TD*%
D12*
%TO.C,D57*%
X515962500Y-42250000D03*
X517537500Y-42250000D03*
%TD*%
D33*
%TO.C,TP1*%
X293200000Y-170600000D03*
%TD*%
D12*
%TO.C,D58*%
X515962500Y-45500000D03*
X517537500Y-45500000D03*
%TD*%
D34*
%TO.C,J12*%
X293750000Y-178700000D03*
D35*
X291750000Y-178700000D03*
X289750000Y-178700000D03*
X287750000Y-178700000D03*
%TD*%
D36*
%TO.C,J9*%
X402000000Y-47720000D03*
D37*
X402000000Y-50260000D03*
X402000000Y-52800000D03*
X402000000Y-55340000D03*
X402000000Y-57880000D03*
X402000000Y-60420000D03*
X402000000Y-62960000D03*
X402000000Y-65500000D03*
X402000000Y-68040000D03*
X402000000Y-70580000D03*
X402000000Y-73120000D03*
X402000000Y-75660000D03*
X402000000Y-78200000D03*
X402000000Y-80740000D03*
X402000000Y-83280000D03*
X402000000Y-85820000D03*
X402000000Y-88360000D03*
X402000000Y-90900000D03*
X402000000Y-93440000D03*
X402000000Y-95980000D03*
X402000000Y-98520000D03*
X402000000Y-101060000D03*
X402000000Y-103600000D03*
X402000000Y-106140000D03*
%TD*%
D11*
%TO.C,D28*%
X201143800Y-95400000D03*
X201143800Y-93825000D03*
%TD*%
D33*
%TO.C,TP2*%
X288200000Y-170600000D03*
%TD*%
D10*
%TO.C,R10*%
X240305000Y-97600000D03*
X238305000Y-97600000D03*
%TD*%
D21*
%TO.C,C6*%
X408615000Y-113960000D03*
X410515000Y-113960000D03*
%TD*%
%TO.C,C29*%
X289600000Y-35400000D03*
X291500000Y-35400000D03*
%TD*%
D27*
%TO.C,C2*%
X550412700Y-137427800D03*
X548512700Y-137427800D03*
%TD*%
D29*
%TO.C,D27*%
X246987500Y-107000000D03*
X245412500Y-107000000D03*
%TD*%
D17*
%TO.C,U10*%
X541377500Y-113398700D03*
X541377500Y-114668700D03*
X541377500Y-115938700D03*
X541377500Y-117208700D03*
X546327500Y-117208700D03*
X546327500Y-115938700D03*
X546327500Y-114668700D03*
X546327500Y-113398700D03*
%TD*%
D19*
%TO.C,R53*%
X535000000Y-57000000D03*
X537000000Y-57000000D03*
%TD*%
D10*
%TO.C,R46*%
X194643800Y-107612500D03*
X192643800Y-107612500D03*
%TD*%
D22*
%TO.C,J31*%
X432500000Y-37050000D03*
X435000000Y-37050000D03*
X437000000Y-37050000D03*
X439500000Y-37050000D03*
D23*
X430300000Y-34300000D03*
X441700000Y-34300000D03*
%TD*%
D11*
%TO.C,D9*%
X532486000Y-122480500D03*
X532486000Y-120905500D03*
%TD*%
D17*
%TO.C,U13*%
X541395000Y-133135000D03*
X541395000Y-134405000D03*
X541395000Y-135675000D03*
X541395000Y-136945000D03*
X546345000Y-136945000D03*
X546345000Y-135675000D03*
X546345000Y-134405000D03*
X546345000Y-133135000D03*
%TD*%
D12*
%TO.C,D56*%
X500712500Y-38750000D03*
X502287500Y-38750000D03*
%TD*%
D15*
%TO.C,U2*%
X202500000Y-139963000D03*
D16*
X205040000Y-139963000D03*
X207580000Y-139963000D03*
X210120000Y-139963000D03*
X212660000Y-139963000D03*
X212660000Y-124723000D03*
X210120000Y-124723000D03*
X207580000Y-124723000D03*
X205040000Y-124723000D03*
X202500000Y-124723000D03*
%TD*%
D27*
%TO.C,C25*%
X397300000Y-177400000D03*
X395400000Y-177400000D03*
%TD*%
D21*
%TO.C,C36*%
X223150000Y-60744900D03*
X225050000Y-60744900D03*
%TD*%
D19*
%TO.C,R41*%
X283150000Y-145900000D03*
X285150000Y-145900000D03*
%TD*%
D12*
%TO.C,D68*%
X207862500Y-38394900D03*
X209437500Y-38394900D03*
%TD*%
D19*
%TO.C,R38*%
X282950000Y-141700000D03*
X284950000Y-141700000D03*
%TD*%
D27*
%TO.C,C24*%
X381850000Y-151800000D03*
X379950000Y-151800000D03*
%TD*%
D28*
%TO.C,D4*%
X498670000Y-108832500D03*
X498670000Y-110407500D03*
%TD*%
D38*
%TO.C,U22*%
X233100000Y-108500000D03*
X233100000Y-109450000D03*
X233100000Y-110400000D03*
X235375000Y-110400000D03*
X235375000Y-108500000D03*
%TD*%
D19*
%TO.C,R30*%
X535330000Y-134525000D03*
X537330000Y-134525000D03*
%TD*%
%TO.C,R14*%
X552310000Y-110389000D03*
X554310000Y-110389000D03*
%TD*%
D13*
%TO.C,J30*%
X316650000Y-34880100D03*
D14*
X317650000Y-34880100D03*
X318650000Y-34880100D03*
%TD*%
D21*
%TO.C,C33*%
X439750000Y-61000000D03*
X441650000Y-61000000D03*
%TD*%
D38*
%TO.C,U15*%
X396710000Y-112960000D03*
X396710000Y-113910000D03*
X396710000Y-114860000D03*
X398985000Y-114860000D03*
X398985000Y-112960000D03*
%TD*%
D19*
%TO.C,R80*%
X376100000Y-167400000D03*
X378100000Y-167400000D03*
%TD*%
D36*
%TO.C,J1*%
X369690000Y-47760000D03*
D37*
X369690000Y-50300000D03*
X369690000Y-52840000D03*
X369690000Y-55380000D03*
X369690000Y-57920000D03*
X369690000Y-60460000D03*
X369690000Y-63000000D03*
X369690000Y-65540000D03*
X369690000Y-68080000D03*
X369690000Y-70620000D03*
X369690000Y-73160000D03*
X369690000Y-75700000D03*
X369690000Y-78240000D03*
X369690000Y-80780000D03*
X369690000Y-83320000D03*
X369690000Y-85860000D03*
X369690000Y-88400000D03*
X369690000Y-90940000D03*
X369690000Y-93480000D03*
X369690000Y-96020000D03*
X369690000Y-98560000D03*
X369690000Y-101100000D03*
X369690000Y-103640000D03*
X369690000Y-106180000D03*
%TD*%
D18*
%TO.C,Y2*%
X381790000Y-158400000D03*
X376910000Y-158400000D03*
%TD*%
D20*
%TO.C,R81*%
X370350000Y-174050000D03*
X370350000Y-172050000D03*
%TD*%
D21*
%TO.C,C9*%
X233300000Y-93200000D03*
X235200000Y-93200000D03*
%TD*%
D17*
%TO.C,U11*%
X541360000Y-119977500D03*
X541360000Y-121247500D03*
X541360000Y-122517500D03*
X541360000Y-123787500D03*
X546310000Y-123787500D03*
X546310000Y-122517500D03*
X546310000Y-121247500D03*
X546310000Y-119977500D03*
%TD*%
D22*
%TO.C,J21*%
X318000000Y-175850000D03*
X315500000Y-175850000D03*
X313500000Y-175850000D03*
X311000000Y-175850000D03*
D23*
X320200000Y-178600000D03*
X308800000Y-178600000D03*
%TD*%
D12*
%TO.C,D71*%
X223112500Y-48594900D03*
X224687500Y-48594900D03*
%TD*%
D10*
%TO.C,R18*%
X491770000Y-105560000D03*
X489770000Y-105560000D03*
%TD*%
D39*
%TO.C,TH1*%
X445142000Y-80782000D03*
D40*
X447682000Y-80782000D03*
%TD*%
D19*
%TO.C,R40*%
X283150000Y-150700000D03*
X285150000Y-150700000D03*
%TD*%
D10*
%TO.C,R7*%
X420700000Y-150800000D03*
X418700000Y-150800000D03*
%TD*%
D11*
%TO.C,D16*%
X290750000Y-156487500D03*
X290750000Y-154912500D03*
%TD*%
D36*
%TO.C,J8*%
X360690000Y-47760000D03*
D37*
X360690000Y-50300000D03*
X360690000Y-52840000D03*
X360690000Y-55380000D03*
X360690000Y-57920000D03*
X360690000Y-60460000D03*
X360690000Y-63000000D03*
X360690000Y-65540000D03*
X360690000Y-68080000D03*
X360690000Y-70620000D03*
X360690000Y-73160000D03*
X360690000Y-75700000D03*
X360690000Y-78240000D03*
X360690000Y-80780000D03*
X360690000Y-83320000D03*
X360690000Y-85860000D03*
X360690000Y-88400000D03*
X360690000Y-90940000D03*
X360690000Y-93480000D03*
X360690000Y-96020000D03*
X360690000Y-98560000D03*
X360690000Y-101100000D03*
X360690000Y-103640000D03*
X360690000Y-106180000D03*
%TD*%
D11*
%TO.C,D6*%
X532486000Y-115871500D03*
X532486000Y-114296500D03*
%TD*%
D19*
%TO.C,R35*%
X356200000Y-123780000D03*
X358200000Y-123780000D03*
%TD*%
%TO.C,R21*%
X552310000Y-116725000D03*
X554310000Y-116725000D03*
%TD*%
D13*
%TO.C,J18*%
X245050000Y-34759900D03*
D14*
X246050000Y-34759900D03*
X247050000Y-34759900D03*
X248050000Y-34759900D03*
%TD*%
D12*
%TO.C,D65*%
X439712500Y-42150000D03*
X441287500Y-42150000D03*
%TD*%
D10*
%TO.C,R15*%
X491770000Y-109560000D03*
X489770000Y-109560000D03*
%TD*%
D39*
%TO.C,TH2*%
X312290000Y-80712000D03*
D40*
X314830000Y-80712000D03*
%TD*%
D29*
%TO.C,D19*%
X204575000Y-177500000D03*
X203000000Y-177500000D03*
%TD*%
D21*
%TO.C,C37*%
X227950000Y-60744900D03*
X229850000Y-60744900D03*
%TD*%
D41*
%TO.C,U14*%
X384422500Y-122155000D03*
X384422500Y-123425000D03*
X384422500Y-124695000D03*
X384422500Y-125965000D03*
X391597500Y-125965000D03*
X391597500Y-124695000D03*
X391597500Y-123425000D03*
X391597500Y-122155000D03*
%TD*%
D11*
%TO.C,D10*%
X403510000Y-117747500D03*
X403510000Y-116172500D03*
%TD*%
%TO.C,D31*%
X201143800Y-99400000D03*
X201143800Y-97825000D03*
%TD*%
D12*
%TO.C,D64*%
X424462500Y-38650000D03*
X426037500Y-38650000D03*
%TD*%
D10*
%TO.C,R72*%
X393350000Y-174150000D03*
X391350000Y-174150000D03*
%TD*%
%TO.C,R8*%
X420700000Y-146600000D03*
X418700000Y-146600000D03*
%TD*%
D28*
%TO.C,D3*%
X498670000Y-104577600D03*
X498670000Y-106152600D03*
%TD*%
D29*
%TO.C,D51*%
X526167500Y-95540000D03*
X524592500Y-95540000D03*
%TD*%
D13*
%TO.C,J28*%
X527600000Y-34980100D03*
D14*
X528600000Y-34980100D03*
X529600000Y-34980100D03*
%TD*%
D19*
%TO.C,R32*%
X535330000Y-121350000D03*
X537330000Y-121350000D03*
%TD*%
D42*
%TO.C,U29*%
X494250000Y-117340000D03*
D26*
X494250000Y-119880000D03*
X494250000Y-122420000D03*
X494250000Y-124960000D03*
X501870000Y-124960000D03*
X501870000Y-122420000D03*
X501870000Y-119880000D03*
X501870000Y-117340000D03*
%TD*%
D13*
%TO.C,J4*%
X326900000Y-34975000D03*
D14*
X327900000Y-34975000D03*
X328900000Y-34975000D03*
X329900000Y-34975000D03*
%TD*%
D19*
%TO.C,R37*%
X356100000Y-132180000D03*
X358100000Y-132180000D03*
%TD*%
D36*
%TO.C,J2*%
X393000000Y-47760000D03*
D37*
X393000000Y-50300000D03*
X393000000Y-52840000D03*
X393000000Y-55380000D03*
X393000000Y-57920000D03*
X393000000Y-60460000D03*
X393000000Y-63000000D03*
X393000000Y-65540000D03*
X393000000Y-68080000D03*
X393000000Y-70620000D03*
X393000000Y-73160000D03*
X393000000Y-75700000D03*
X393000000Y-78240000D03*
X393000000Y-80780000D03*
X393000000Y-83320000D03*
X393000000Y-85860000D03*
X393000000Y-88400000D03*
X393000000Y-90940000D03*
X393000000Y-93480000D03*
X393000000Y-96020000D03*
X393000000Y-98560000D03*
X393000000Y-101100000D03*
X393000000Y-103640000D03*
X393000000Y-106180000D03*
%TD*%
D12*
%TO.C,D69*%
X223112500Y-41894900D03*
X224687500Y-41894900D03*
%TD*%
D13*
%TO.C,J32*%
X451350000Y-34880100D03*
D14*
X452350000Y-34880100D03*
X453350000Y-34880100D03*
%TD*%
D13*
%TO.C,J3*%
X461550000Y-34975000D03*
D14*
X462550000Y-34975000D03*
X463550000Y-34975000D03*
X464550000Y-34975000D03*
%TD*%
D27*
%TO.C,C23*%
X377050000Y-151800000D03*
X375150000Y-151800000D03*
%TD*%
D43*
%TO.C,U9*%
X547240000Y-61190000D03*
D44*
X547240000Y-58650000D03*
X547240000Y-56110000D03*
X547240000Y-53570000D03*
X547240000Y-51030000D03*
X547240000Y-48490000D03*
X547240000Y-45950000D03*
X547240000Y-43410000D03*
X547240000Y-40870000D03*
X547240000Y-38330000D03*
D43*
X498980000Y-47470000D03*
D44*
X498980000Y-50010000D03*
X498980000Y-52550000D03*
X498980000Y-55090000D03*
X498980000Y-57630000D03*
X498980000Y-60170000D03*
X498980000Y-62710000D03*
X498980000Y-65250000D03*
D45*
X491360000Y-37310000D03*
D46*
X493900000Y-37310000D03*
X491360000Y-39850000D03*
X493900000Y-39850000D03*
X491360000Y-42390000D03*
X493900000Y-42390000D03*
X491360000Y-44930000D03*
X493900000Y-44930000D03*
X491360000Y-47470000D03*
X493900000Y-47470000D03*
X491360000Y-50010000D03*
X493900000Y-50010000D03*
X491360000Y-52550000D03*
X493900000Y-52550000D03*
X491360000Y-55090000D03*
X493900000Y-55090000D03*
X491360000Y-57630000D03*
X493900000Y-57630000D03*
X491360000Y-60170000D03*
X493900000Y-60170000D03*
X491360000Y-62710000D03*
X493900000Y-62710000D03*
X491360000Y-65250000D03*
X493900000Y-65250000D03*
X491360000Y-67790000D03*
X493900000Y-67790000D03*
X491360000Y-70330000D03*
X493900000Y-70330000D03*
X491360000Y-72870000D03*
X493900000Y-72870000D03*
X491360000Y-75410000D03*
X493900000Y-75410000D03*
X491360000Y-77950000D03*
X493900000Y-77950000D03*
X491360000Y-80490000D03*
X493900000Y-80490000D03*
X491360000Y-83030000D03*
X493900000Y-83030000D03*
D43*
X498980000Y-70330000D03*
D44*
X498980000Y-72870000D03*
X498980000Y-75410000D03*
X498980000Y-77950000D03*
X498980000Y-80490000D03*
X498980000Y-83030000D03*
D43*
X547240000Y-83030000D03*
D44*
X547240000Y-80490000D03*
X547240000Y-77950000D03*
X547240000Y-75410000D03*
X547240000Y-72870000D03*
X547240000Y-70330000D03*
X547240000Y-67790000D03*
X547240000Y-65250000D03*
D45*
X552320000Y-37310000D03*
D46*
X554860000Y-37310000D03*
X552320000Y-39850000D03*
X554860000Y-39850000D03*
X552320000Y-42390000D03*
X554860000Y-42390000D03*
X552320000Y-44930000D03*
X554860000Y-44930000D03*
X552320000Y-47470000D03*
X554860000Y-47470000D03*
X552320000Y-50010000D03*
X554860000Y-50010000D03*
X552320000Y-52550000D03*
X554860000Y-52550000D03*
X552320000Y-55090000D03*
X554860000Y-55090000D03*
X552320000Y-57630000D03*
X554860000Y-57630000D03*
X552320000Y-60170000D03*
X554860000Y-60170000D03*
X552320000Y-62710000D03*
X554860000Y-62710000D03*
X552320000Y-65250000D03*
X554860000Y-65250000D03*
X552320000Y-67790000D03*
X554860000Y-67790000D03*
X552320000Y-70330000D03*
X554860000Y-70330000D03*
X552320000Y-72870000D03*
X554860000Y-72870000D03*
X552320000Y-75410000D03*
X554860000Y-75410000D03*
X552320000Y-77950000D03*
X554860000Y-77950000D03*
X552320000Y-80490000D03*
X554860000Y-80490000D03*
X552320000Y-83030000D03*
X554860000Y-83030000D03*
%TD*%
D19*
%TO.C,R31*%
X535330000Y-127787500D03*
X537330000Y-127787500D03*
%TD*%
D29*
%TO.C,D32*%
X324075000Y-172000000D03*
X322500000Y-172000000D03*
%TD*%
D27*
%TO.C,C7*%
X550380000Y-110720000D03*
X548480000Y-110720000D03*
%TD*%
D10*
%TO.C,R5*%
X420700000Y-142400000D03*
X418700000Y-142400000D03*
%TD*%
D11*
%TO.C,D7*%
X532486000Y-135698500D03*
X532486000Y-134123500D03*
%TD*%
%TO.C,D14*%
X365300000Y-133167500D03*
X365300000Y-131592500D03*
%TD*%
D10*
%TO.C,R45*%
X194643800Y-94862500D03*
X192643800Y-94862500D03*
%TD*%
D12*
%TO.C,D70*%
X223112500Y-45144900D03*
X224687500Y-45144900D03*
%TD*%
D18*
%TO.C,Y7*%
X305110000Y-54400000D03*
X309990000Y-54400000D03*
%TD*%
D13*
%TO.C,J11*%
X557555000Y-134225000D03*
D14*
X557555000Y-135225000D03*
%TD*%
D13*
%TO.C,J6*%
X557555000Y-115100000D03*
D14*
X557555000Y-116100000D03*
%TD*%
D24*
%TO.C,R100*%
X234650000Y-37894900D03*
X234650000Y-39894900D03*
%TD*%
D29*
%TO.C,D38*%
X397137500Y-174150000D03*
X395562500Y-174150000D03*
%TD*%
D18*
%TO.C,Y8*%
X439810000Y-54400000D03*
X444690000Y-54400000D03*
%TD*%
D10*
%TO.C,R9*%
X240305000Y-108600000D03*
X238305000Y-108600000D03*
%TD*%
D11*
%TO.C,D13*%
X365300000Y-128800800D03*
X365300000Y-127225800D03*
%TD*%
%TO.C,D15*%
X290950000Y-141987500D03*
X290950000Y-140412500D03*
%TD*%
D10*
%TO.C,R50*%
X320000000Y-172000000D03*
X318000000Y-172000000D03*
%TD*%
D39*
%TO.C,TH4*%
X528400000Y-61600000D03*
D40*
X530940000Y-61600000D03*
%TD*%
D19*
%TO.C,R77*%
X520360000Y-95520000D03*
X522360000Y-95520000D03*
%TD*%
D10*
%TO.C,R1*%
X200287500Y-177500000D03*
X198287500Y-177500000D03*
%TD*%
D13*
%TO.C,J10*%
X557555000Y-127850000D03*
D14*
X557555000Y-128850000D03*
%TD*%
D19*
%TO.C,R29*%
X535330000Y-114912500D03*
X537330000Y-114912500D03*
%TD*%
D22*
%TO.C,J22*%
X451500000Y-175850000D03*
X449000000Y-175850000D03*
X447000000Y-175850000D03*
X444500000Y-175850000D03*
D23*
X453700000Y-178600000D03*
X442300000Y-178600000D03*
%TD*%
D13*
%TO.C,J34*%
X234750000Y-34625000D03*
D14*
X235750000Y-34625000D03*
X236750000Y-34625000D03*
%TD*%
D19*
%TO.C,R99*%
X226900000Y-41894900D03*
X228900000Y-41894900D03*
%TD*%
%TO.C,R24*%
X552310000Y-123375000D03*
X554310000Y-123375000D03*
%TD*%
D17*
%TO.C,U37*%
X526500000Y-44250000D03*
X526500000Y-45520000D03*
X526500000Y-46790000D03*
X526500000Y-48060000D03*
X526500000Y-49330000D03*
X526500000Y-50600000D03*
X526500000Y-51870000D03*
X526500000Y-53140000D03*
X531450000Y-53140000D03*
X531450000Y-51870000D03*
X531450000Y-50600000D03*
X531450000Y-49330000D03*
X531450000Y-48060000D03*
X531450000Y-46790000D03*
X531450000Y-45520000D03*
X531450000Y-44250000D03*
%TD*%
D47*
%TO.C,U19*%
X371350000Y-168650000D03*
X371350000Y-167380000D03*
X371350000Y-166110000D03*
X371350000Y-164840000D03*
X371350000Y-163570000D03*
X371350000Y-162300000D03*
X371350000Y-161030000D03*
X371350000Y-159760000D03*
X366400000Y-159760000D03*
X366400000Y-161030000D03*
X366400000Y-162300000D03*
X366400000Y-163570000D03*
X366400000Y-164840000D03*
X366400000Y-166110000D03*
X366400000Y-167380000D03*
X366400000Y-168650000D03*
%TD*%
D19*
%TO.C,R89*%
X308800000Y-42150000D03*
X310800000Y-42150000D03*
%TD*%
D36*
%TO.C,U4*%
X237780000Y-153500000D03*
D37*
X235240000Y-153500000D03*
X232700000Y-153500000D03*
X230160000Y-153500000D03*
X227620000Y-153500000D03*
X225080000Y-153500000D03*
X222540000Y-153500000D03*
X220000000Y-153500000D03*
X217460000Y-153500000D03*
X214920000Y-153500000D03*
X212380000Y-153500000D03*
X209840000Y-153500000D03*
X207300000Y-153500000D03*
X204760000Y-153500000D03*
X202220000Y-153500000D03*
X199680000Y-153500000D03*
X197140000Y-153500000D03*
X194600000Y-153500000D03*
X192060000Y-153500000D03*
X189520000Y-153500000D03*
X189520000Y-168740000D03*
X192060000Y-168740000D03*
X194600000Y-168740000D03*
X197140000Y-168740000D03*
X199680000Y-168740000D03*
X202220000Y-168740000D03*
X204760000Y-168740000D03*
X207300000Y-168740000D03*
X209840000Y-168740000D03*
X212380000Y-168740000D03*
X214920000Y-168740000D03*
X217460000Y-168740000D03*
X220000000Y-168740000D03*
X222540000Y-168740000D03*
X225080000Y-168740000D03*
X227620000Y-168740000D03*
X230160000Y-168740000D03*
X232700000Y-168740000D03*
X235240000Y-168740000D03*
X237780000Y-168740000D03*
X193331000Y-164932000D03*
X193331000Y-162392000D03*
X193331000Y-159852000D03*
X193331000Y-157312000D03*
%TD*%
D22*
%TO.C,J29*%
X297800000Y-37050000D03*
X300300000Y-37050000D03*
X302300000Y-37050000D03*
X304800000Y-37050000D03*
D23*
X295600000Y-34300000D03*
X307000000Y-34300000D03*
%TD*%
D21*
%TO.C,C34*%
X444550000Y-61000000D03*
X446450000Y-61000000D03*
%TD*%
D39*
%TO.C,TH3*%
X235000000Y-62600000D03*
D40*
X237540000Y-62600000D03*
%TD*%
D21*
%TO.C,C30*%
X305050000Y-61000000D03*
X306950000Y-61000000D03*
%TD*%
D43*
%TO.C,U3*%
X254460000Y-60970000D03*
D44*
X254460000Y-58430000D03*
X254460000Y-55890000D03*
X254460000Y-53350000D03*
X254460000Y-50810000D03*
X254460000Y-48270000D03*
X254460000Y-45730000D03*
X254460000Y-43190000D03*
X254460000Y-40650000D03*
X254460000Y-38110000D03*
D43*
X206200000Y-47250000D03*
D44*
X206200000Y-49790000D03*
X206200000Y-52330000D03*
X206200000Y-54870000D03*
X206200000Y-57410000D03*
X206200000Y-59950000D03*
X206200000Y-62490000D03*
X206200000Y-65030000D03*
D45*
X198580000Y-37090000D03*
D46*
X201120000Y-37090000D03*
X198580000Y-39630000D03*
X201120000Y-39630000D03*
X198580000Y-42170000D03*
X201120000Y-42170000D03*
X198580000Y-44710000D03*
X201120000Y-44710000D03*
X198580000Y-47250000D03*
X201120000Y-47250000D03*
X198580000Y-49790000D03*
X201120000Y-49790000D03*
X198580000Y-52330000D03*
X201120000Y-52330000D03*
X198580000Y-54870000D03*
X201120000Y-54870000D03*
X198580000Y-57410000D03*
X201120000Y-57410000D03*
X198580000Y-59950000D03*
X201120000Y-59950000D03*
X198580000Y-62490000D03*
X201120000Y-62490000D03*
X198580000Y-65030000D03*
X201120000Y-65030000D03*
X198580000Y-67570000D03*
X201120000Y-67570000D03*
X198580000Y-70110000D03*
X201120000Y-70110000D03*
X198580000Y-72650000D03*
X201120000Y-72650000D03*
X198580000Y-75190000D03*
X201120000Y-75190000D03*
X198580000Y-77730000D03*
X201120000Y-77730000D03*
X198580000Y-80270000D03*
X201120000Y-80270000D03*
X198580000Y-82810000D03*
X201120000Y-82810000D03*
D43*
X206200000Y-70110000D03*
D44*
X206200000Y-72650000D03*
X206200000Y-75190000D03*
X206200000Y-77730000D03*
X206200000Y-80270000D03*
X206200000Y-82810000D03*
D43*
X254460000Y-82810000D03*
D44*
X254460000Y-80270000D03*
X254460000Y-77730000D03*
X254460000Y-75190000D03*
X254460000Y-72650000D03*
X254460000Y-70110000D03*
X254460000Y-67570000D03*
X254460000Y-65030000D03*
D45*
X259540000Y-37090000D03*
D46*
X262080000Y-37090000D03*
X259540000Y-39630000D03*
X262080000Y-39630000D03*
X259540000Y-42170000D03*
X262080000Y-42170000D03*
X259540000Y-44710000D03*
X262080000Y-44710000D03*
X259540000Y-47250000D03*
X262080000Y-47250000D03*
X259540000Y-49790000D03*
X262080000Y-49790000D03*
X259540000Y-52330000D03*
X262080000Y-52330000D03*
X259540000Y-54870000D03*
X262080000Y-54870000D03*
X259540000Y-57410000D03*
X262080000Y-57410000D03*
X259540000Y-59950000D03*
X262080000Y-59950000D03*
X259540000Y-62490000D03*
X262080000Y-62490000D03*
X259540000Y-65030000D03*
X262080000Y-65030000D03*
X259540000Y-67570000D03*
X262080000Y-67570000D03*
X259540000Y-70110000D03*
X262080000Y-70110000D03*
X259540000Y-72650000D03*
X262080000Y-72650000D03*
X259540000Y-75190000D03*
X262080000Y-75190000D03*
X259540000Y-77730000D03*
X262080000Y-77730000D03*
X259540000Y-80270000D03*
X262080000Y-80270000D03*
X259540000Y-82810000D03*
X262080000Y-82810000D03*
%TD*%
D48*
%TO.C,U16*%
X395970000Y-126760000D03*
X397240000Y-126760000D03*
X398510000Y-126760000D03*
X399780000Y-126760000D03*
X401050000Y-126760000D03*
X402320000Y-126760000D03*
X403590000Y-126760000D03*
X404860000Y-126760000D03*
X404860000Y-121160000D03*
X403590000Y-121160000D03*
X402320000Y-121160000D03*
X401050000Y-121160000D03*
X399780000Y-121160000D03*
X398510000Y-121160000D03*
X397240000Y-121160000D03*
X395970000Y-121160000D03*
%TD*%
D12*
%TO.C,D67*%
X439712500Y-48850000D03*
X441287500Y-48850000D03*
%TD*%
D49*
%TO.C,U31*%
X517360000Y-134620000D03*
D26*
X514820000Y-134620000D03*
X512280000Y-134620000D03*
X509740000Y-134620000D03*
X509740000Y-142240000D03*
X512280000Y-142240000D03*
X514820000Y-142240000D03*
X517360000Y-142240000D03*
%TD*%
D17*
%TO.C,U12*%
X541412500Y-126556200D03*
X541412500Y-127826200D03*
X541412500Y-129096200D03*
X541412500Y-130366200D03*
X546362500Y-130366200D03*
X546362500Y-129096200D03*
X546362500Y-127826200D03*
X546362500Y-126556200D03*
%TD*%
D10*
%TO.C,R92*%
X310838300Y-48852300D03*
X308838300Y-48852300D03*
%TD*%
D30*
%TO.C,U17*%
X469800000Y-37256000D03*
D31*
X472340000Y-37256000D03*
X469800000Y-39796000D03*
X472340000Y-39796000D03*
X469800000Y-42336000D03*
X472340000Y-42336000D03*
X469800000Y-44876000D03*
X472340000Y-44876000D03*
X469800000Y-47416000D03*
X472340000Y-47416000D03*
X469800000Y-49956000D03*
X472340000Y-49956000D03*
X469800000Y-52496000D03*
X472340000Y-52496000D03*
X469800000Y-55036000D03*
X472340000Y-55036000D03*
X469800000Y-57576000D03*
X472340000Y-57576000D03*
X469800000Y-60116000D03*
X472340000Y-60116000D03*
D30*
X424080000Y-46400000D03*
D31*
X426620000Y-46400000D03*
X424080000Y-48940000D03*
X426620000Y-48940000D03*
X424080000Y-51480000D03*
X426620000Y-51480000D03*
X424080000Y-54020000D03*
X426620000Y-54020000D03*
X424080000Y-56560000D03*
X426620000Y-56560000D03*
X424080000Y-59100000D03*
X426620000Y-59100000D03*
X424080000Y-61640000D03*
X426620000Y-61640000D03*
X424080000Y-64180000D03*
X426620000Y-64180000D03*
D30*
X424080000Y-69260000D03*
D31*
X426620000Y-69260000D03*
X424080000Y-71800000D03*
X426620000Y-71800000D03*
X424080000Y-74340000D03*
X426620000Y-74340000D03*
X424080000Y-76880000D03*
X426620000Y-76880000D03*
X424080000Y-79420000D03*
X426620000Y-79420000D03*
X424080000Y-81960000D03*
X426620000Y-81960000D03*
X424080000Y-84500000D03*
X426620000Y-84500000D03*
X424080000Y-87040000D03*
X426620000Y-87040000D03*
X424080000Y-89580000D03*
X426620000Y-89580000D03*
X424080000Y-92120000D03*
X426620000Y-92120000D03*
X424080000Y-94660000D03*
X426620000Y-94660000D03*
X424080000Y-97200000D03*
X426620000Y-97200000D03*
X424080000Y-99740000D03*
X426620000Y-99740000D03*
X424080000Y-102280000D03*
X426620000Y-102280000D03*
X424080000Y-104820000D03*
X426620000Y-104820000D03*
D30*
X469800000Y-64180000D03*
D31*
X472340000Y-64180000D03*
X469800000Y-66720000D03*
X472340000Y-66720000D03*
X469800000Y-69260000D03*
X472340000Y-69260000D03*
X469800000Y-71800000D03*
X472340000Y-71800000D03*
X469800000Y-74340000D03*
X472340000Y-74340000D03*
X469800000Y-76880000D03*
X472340000Y-76880000D03*
X469800000Y-79420000D03*
X472340000Y-79420000D03*
X469800000Y-81960000D03*
X472340000Y-81960000D03*
X469800000Y-84500000D03*
X472340000Y-84500000D03*
X469800000Y-87040000D03*
X472340000Y-87040000D03*
X469800000Y-89580000D03*
X472340000Y-89580000D03*
X469800000Y-92120000D03*
X472340000Y-92120000D03*
X469800000Y-94660000D03*
X472340000Y-94660000D03*
X469800000Y-97200000D03*
X472340000Y-97200000D03*
X469800000Y-99740000D03*
X472340000Y-99740000D03*
X469800000Y-102280000D03*
X472340000Y-102280000D03*
X469800000Y-104820000D03*
X472340000Y-104820000D03*
D30*
X416460000Y-36240000D03*
D31*
X419000000Y-36240000D03*
X416460000Y-38780000D03*
X419000000Y-38780000D03*
X416460000Y-41320000D03*
X419000000Y-41320000D03*
X416460000Y-43860000D03*
X419000000Y-43860000D03*
X416460000Y-46400000D03*
X419000000Y-46400000D03*
X416460000Y-48940000D03*
X419000000Y-48940000D03*
X416460000Y-51480000D03*
X419000000Y-51480000D03*
X416460000Y-54020000D03*
X419000000Y-54020000D03*
X416460000Y-56560000D03*
X419000000Y-56560000D03*
X416460000Y-59100000D03*
X419000000Y-59100000D03*
X416460000Y-61640000D03*
X419000000Y-61640000D03*
X416460000Y-64180000D03*
X419000000Y-64180000D03*
X416460000Y-66720000D03*
X419000000Y-66720000D03*
X416460000Y-69260000D03*
X419000000Y-69260000D03*
X416460000Y-71800000D03*
X419000000Y-71800000D03*
X416460000Y-74340000D03*
X419000000Y-74340000D03*
X416460000Y-76880000D03*
X419000000Y-76880000D03*
X416460000Y-79420000D03*
X419000000Y-79420000D03*
X416460000Y-81960000D03*
X419000000Y-81960000D03*
X416460000Y-84500000D03*
X419000000Y-84500000D03*
X416460000Y-87040000D03*
X419000000Y-87040000D03*
X416460000Y-89580000D03*
X419000000Y-89580000D03*
X416460000Y-92120000D03*
X419000000Y-92120000D03*
X416460000Y-94660000D03*
X419000000Y-94660000D03*
X416460000Y-97200000D03*
X419000000Y-97200000D03*
X416460000Y-99740000D03*
X419000000Y-99740000D03*
X416460000Y-102280000D03*
X419000000Y-102280000D03*
X416460000Y-104820000D03*
X419000000Y-104820000D03*
X416460000Y-107360000D03*
X419000000Y-107360000D03*
X416460000Y-109900000D03*
X419000000Y-109900000D03*
X416460000Y-112440000D03*
X419000000Y-112440000D03*
X416460000Y-114980000D03*
X419000000Y-114980000D03*
X416460000Y-117520000D03*
X419000000Y-117520000D03*
X416460000Y-120060000D03*
X419000000Y-120060000D03*
X416460000Y-122600000D03*
X419000000Y-122600000D03*
X416460000Y-125140000D03*
X419000000Y-125140000D03*
D30*
X477420000Y-36260000D03*
D31*
X479960000Y-36260000D03*
X477420000Y-38800000D03*
X479960000Y-38800000D03*
X477420000Y-41340000D03*
X479960000Y-41340000D03*
X477420000Y-43880000D03*
X479960000Y-43880000D03*
X477420000Y-46420000D03*
X479960000Y-46420000D03*
X477420000Y-48960000D03*
X479960000Y-48960000D03*
X477420000Y-51500000D03*
X479960000Y-51500000D03*
X477420000Y-54040000D03*
X479960000Y-54040000D03*
X477420000Y-56580000D03*
X479960000Y-56580000D03*
X477420000Y-59120000D03*
X479960000Y-59120000D03*
X477420000Y-61660000D03*
X479960000Y-61660000D03*
X477420000Y-64200000D03*
X479960000Y-64200000D03*
X477420000Y-66740000D03*
X479960000Y-66740000D03*
X477420000Y-69280000D03*
X479960000Y-69280000D03*
X477420000Y-71820000D03*
X479960000Y-71820000D03*
X477420000Y-74360000D03*
X479960000Y-74360000D03*
X477420000Y-76900000D03*
X479960000Y-76900000D03*
X477420000Y-79440000D03*
X479960000Y-79440000D03*
X477420000Y-81980000D03*
X479960000Y-81980000D03*
X477420000Y-84520000D03*
X479960000Y-84520000D03*
X477420000Y-87060000D03*
X479960000Y-87060000D03*
X477420000Y-89600000D03*
X479960000Y-89600000D03*
X477420000Y-92140000D03*
X479960000Y-92140000D03*
X477420000Y-94680000D03*
X479960000Y-94680000D03*
X477420000Y-97220000D03*
X479960000Y-97220000D03*
X477420000Y-99760000D03*
X479960000Y-99760000D03*
X477420000Y-102300000D03*
X479960000Y-102300000D03*
X477420000Y-104840000D03*
X479960000Y-104840000D03*
X477420000Y-107380000D03*
X479960000Y-107380000D03*
X477420000Y-109920000D03*
X479960000Y-109920000D03*
X477420000Y-112460000D03*
X479960000Y-112460000D03*
X477420000Y-115000000D03*
X479960000Y-115000000D03*
X477420000Y-117540000D03*
X479960000Y-117540000D03*
X477420000Y-120080000D03*
X479960000Y-120080000D03*
X477420000Y-122620000D03*
X479960000Y-122620000D03*
X477420000Y-125160000D03*
X479960000Y-125160000D03*
%TD*%
D11*
%TO.C,D17*%
X290750000Y-151187500D03*
X290750000Y-149612500D03*
%TD*%
%TO.C,D8*%
X532486000Y-129089500D03*
X532486000Y-127514500D03*
%TD*%
D21*
%TO.C,C32*%
X424300000Y-35400000D03*
X426200000Y-35400000D03*
%TD*%
D10*
%TO.C,R56*%
X453500000Y-172000000D03*
X451500000Y-172000000D03*
%TD*%
%TO.C,R97*%
X445538300Y-48852300D03*
X443538300Y-48852300D03*
%TD*%
%TO.C,R75*%
X506500000Y-114000000D03*
X504500000Y-114000000D03*
%TD*%
D21*
%TO.C,C26*%
X500550000Y-35500000D03*
X502450000Y-35500000D03*
%TD*%
D27*
%TO.C,C4*%
X550412700Y-124174900D03*
X548512700Y-124174900D03*
%TD*%
D18*
%TO.C,Y5*%
X516060000Y-54500000D03*
X520940000Y-54500000D03*
%TD*%
D11*
%TO.C,D11*%
X365400000Y-120067500D03*
X365400000Y-118492500D03*
%TD*%
D17*
%TO.C,U40*%
X233650000Y-43894900D03*
X233650000Y-45164900D03*
X233650000Y-46434900D03*
X233650000Y-47704900D03*
X233650000Y-48974900D03*
X233650000Y-50244900D03*
X233650000Y-51514900D03*
X233650000Y-52784900D03*
X238600000Y-52784900D03*
X238600000Y-51514900D03*
X238600000Y-50244900D03*
X238600000Y-48974900D03*
X238600000Y-47704900D03*
X238600000Y-46434900D03*
X238600000Y-45164900D03*
X238600000Y-43894900D03*
%TD*%
D28*
%TO.C,D1*%
X498770000Y-96132500D03*
X498770000Y-97707500D03*
%TD*%
D50*
%TO.C,U5*%
X514797800Y-105320000D03*
X514797800Y-106590000D03*
X514797800Y-107860000D03*
X514797800Y-109130000D03*
X519522200Y-109130000D03*
X519522200Y-107860000D03*
X519522200Y-106590000D03*
X519522200Y-105320000D03*
%TD*%
D12*
%TO.C,D59*%
X515962500Y-48950000D03*
X517537500Y-48950000D03*
%TD*%
%TO.C,D63*%
X305012500Y-48850000D03*
X306587500Y-48850000D03*
%TD*%
D19*
%TO.C,R26*%
X552330000Y-133420000D03*
X554330000Y-133420000D03*
%TD*%
D24*
%TO.C,R43*%
X243305000Y-105000000D03*
X243305000Y-107000000D03*
%TD*%
D21*
%TO.C,C31*%
X309850000Y-61000000D03*
X311750000Y-61000000D03*
%TD*%
D51*
%TO.C,U21*%
X224505000Y-101555000D03*
X224505000Y-102825000D03*
X224505000Y-104095000D03*
X224505000Y-105365000D03*
X224505000Y-106635000D03*
X224505000Y-107905000D03*
X224505000Y-109175000D03*
X224505000Y-110445000D03*
X230105000Y-110445000D03*
X230105000Y-109175000D03*
X230105000Y-107905000D03*
X230105000Y-106635000D03*
X230105000Y-105365000D03*
X230105000Y-104095000D03*
X230105000Y-102825000D03*
X230105000Y-101555000D03*
%TD*%
D24*
%TO.C,R90*%
X316550000Y-38750000D03*
X316550000Y-40750000D03*
%TD*%
D15*
%TO.C,U36*%
X188500000Y-139963000D03*
D16*
X191040000Y-139963000D03*
X193580000Y-139963000D03*
X196120000Y-139963000D03*
X198660000Y-139963000D03*
X198660000Y-124723000D03*
X196120000Y-124723000D03*
X193580000Y-124723000D03*
X191040000Y-124723000D03*
X188500000Y-124723000D03*
%TD*%
D19*
%TO.C,R93*%
X428250000Y-38650000D03*
X430250000Y-38650000D03*
%TD*%
D12*
%TO.C,D66*%
X439712500Y-45400000D03*
X441287500Y-45400000D03*
%TD*%
D19*
%TO.C,R83*%
X504500000Y-38750000D03*
X506500000Y-38750000D03*
%TD*%
%TO.C,R23*%
X552310000Y-126725000D03*
X554310000Y-126725000D03*
%TD*%
%TO.C,R28*%
X552310000Y-136675000D03*
X554310000Y-136675000D03*
%TD*%
D50*
%TO.C,U8*%
X514797800Y-97415000D03*
X514797800Y-98685000D03*
X514797800Y-99955000D03*
X514797800Y-101225000D03*
X519522200Y-101225000D03*
X519522200Y-99955000D03*
X519522200Y-98685000D03*
X519522200Y-97415000D03*
%TD*%
D10*
%TO.C,R101*%
X228900000Y-45144900D03*
X226900000Y-45144900D03*
%TD*%
%TO.C,R79*%
X378100000Y-170650000D03*
X376100000Y-170650000D03*
%TD*%
D22*
%TO.C,J27*%
X508750000Y-37150000D03*
X511250000Y-37150000D03*
X513250000Y-37150000D03*
X515750000Y-37150000D03*
D23*
X506550000Y-34400000D03*
X517950000Y-34400000D03*
%TD*%
D19*
%TO.C,R13*%
X552310000Y-107225000D03*
X554310000Y-107225000D03*
%TD*%
D13*
%TO.C,J26*%
X370250000Y-177919900D03*
D14*
X369250000Y-177919900D03*
X368250000Y-177919900D03*
%TD*%
D17*
%TO.C,U20*%
X541430000Y-139920000D03*
X541430000Y-141190000D03*
X541430000Y-142460000D03*
X541430000Y-143730000D03*
X546380000Y-143730000D03*
X546380000Y-142460000D03*
X546380000Y-141190000D03*
X546380000Y-139920000D03*
%TD*%
D19*
%TO.C,R4*%
X552310000Y-140420000D03*
X554310000Y-140420000D03*
%TD*%
D29*
%TO.C,D37*%
X457707500Y-172000000D03*
X456132500Y-172000000D03*
%TD*%
D21*
%TO.C,C27*%
X516000000Y-61100000D03*
X517900000Y-61100000D03*
%TD*%
D10*
%TO.C,R49*%
X194643800Y-99112500D03*
X192643800Y-99112500D03*
%TD*%
D13*
%TO.C,J5*%
X557555000Y-108725000D03*
D14*
X557555000Y-109725000D03*
%TD*%
D19*
%TO.C,R47*%
X522810000Y-132420000D03*
X524810000Y-132420000D03*
%TD*%
%TO.C,R27*%
X535330000Y-108475000D03*
X537330000Y-108475000D03*
%TD*%
D10*
%TO.C,R33*%
X404510000Y-112960000D03*
X402510000Y-112960000D03*
%TD*%
D52*
%TO.C,U30*%
X509740000Y-124540000D03*
D26*
X512280000Y-124540000D03*
X514820000Y-124540000D03*
X517360000Y-124540000D03*
X517360000Y-116920000D03*
X514820000Y-116920000D03*
X512280000Y-116920000D03*
X509740000Y-116920000D03*
%TD*%
D10*
%TO.C,R87*%
X521788300Y-48952300D03*
X519788300Y-48952300D03*
%TD*%
D21*
%TO.C,C10*%
X242355000Y-96000000D03*
X244255000Y-96000000D03*
%TD*%
D19*
%TO.C,R25*%
X552310000Y-129875000D03*
X554310000Y-129875000D03*
%TD*%
D13*
%TO.C,J7*%
X557555000Y-121475000D03*
D14*
X557555000Y-122475000D03*
%TD*%
D29*
%TO.C,D53*%
X381887500Y-170650000D03*
X380312500Y-170650000D03*
%TD*%
D38*
%TO.C,U25*%
X233100000Y-97500000D03*
X233100000Y-98450000D03*
X233100000Y-99400000D03*
X235375000Y-99400000D03*
X235375000Y-97500000D03*
%TD*%
D20*
%TO.C,R11*%
X531060000Y-98820000D03*
X531060000Y-96820000D03*
%TD*%
D51*
%TO.C,U24*%
X224600000Y-90655000D03*
X224600000Y-91925000D03*
X224600000Y-93195000D03*
X224600000Y-94465000D03*
X224600000Y-95735000D03*
X224600000Y-97005000D03*
X224600000Y-98275000D03*
X224600000Y-99545000D03*
X230200000Y-99545000D03*
X230200000Y-98275000D03*
X230200000Y-97005000D03*
X230200000Y-95735000D03*
X230200000Y-94465000D03*
X230200000Y-93195000D03*
X230200000Y-91925000D03*
X230200000Y-90655000D03*
%TD*%
D19*
%TO.C,R34*%
X356100000Y-119580000D03*
X358100000Y-119580000D03*
%TD*%
D41*
%TO.C,U26*%
X214525000Y-91945000D03*
X214525000Y-93215000D03*
X214525000Y-94485000D03*
X214525000Y-95755000D03*
X221700000Y-95755000D03*
X221700000Y-94485000D03*
X221700000Y-93215000D03*
X221700000Y-91945000D03*
%TD*%
D17*
%TO.C,U7*%
X541430000Y-106820000D03*
X541430000Y-108090000D03*
X541430000Y-109360000D03*
X541430000Y-110630000D03*
X546380000Y-110630000D03*
X546380000Y-109360000D03*
X546380000Y-108090000D03*
X546380000Y-106820000D03*
%TD*%
D29*
%TO.C,D54*%
X381887500Y-163950000D03*
X380312500Y-163950000D03*
%TD*%
D41*
%TO.C,U23*%
X214630000Y-102845000D03*
X214630000Y-104115000D03*
X214630000Y-105385000D03*
X214630000Y-106655000D03*
X221805000Y-106655000D03*
X221805000Y-105385000D03*
X221805000Y-104115000D03*
X221805000Y-102845000D03*
%TD*%
D12*
%TO.C,D61*%
X305012500Y-42150000D03*
X306587500Y-42150000D03*
%TD*%
D10*
%TO.C,R86*%
X521750000Y-45500000D03*
X519750000Y-45500000D03*
%TD*%
D53*
%TO.C,U28*%
X242305000Y-102000000D03*
X242305000Y-102650000D03*
X242305000Y-103300000D03*
X244205000Y-103300000D03*
X244205000Y-102650000D03*
X244205000Y-102000000D03*
%TD*%
D19*
%TO.C,R78*%
X520360000Y-103520000D03*
X522360000Y-103520000D03*
%TD*%
D12*
%TO.C,D26*%
X238517500Y-93200000D03*
X240092500Y-93200000D03*
%TD*%
D11*
%TO.C,D20*%
X532486000Y-142307500D03*
X532486000Y-140732500D03*
%TD*%
M02*
