%TF.GenerationSoftware,KiCad,Pcbnew,9.0.4+dfsg-1*%
%TF.CreationDate,2025-09-25T11:08:23-07:00*%
%TF.ProjectId,7SDD,37534444-2e6b-4696-9361-645f70636258,1*%
%TF.SameCoordinates,Original*%
%TF.FileFunction,Copper,L1,Top*%
%TF.FilePolarity,Positive*%
%FSLAX46Y46*%
G04 Gerber Fmt 4.6, Leading zero omitted, Abs format (unit mm)*
G04 Created by KiCad (PCBNEW 9.0.4+dfsg-1) date 2025-09-25 11:08:23*
%MOMM*%
%LPD*%
G01*
G04 APERTURE LIST*
G04 Aperture macros list*
%AMRoundRect*
0 Rectangle with rounded corners*
0 $1 Rounding radius*
0 $2 $3 $4 $5 $6 $7 $8 $9 X,Y pos of 4 corners*
0 Add a 4 corners polygon primitive as box body*
4,1,4,$2,$3,$4,$5,$6,$7,$8,$9,$2,$3,0*
0 Add four circle primitives for the rounded corners*
1,1,$1+$1,$2,$3*
1,1,$1+$1,$4,$5*
1,1,$1+$1,$6,$7*
1,1,$1+$1,$8,$9*
0 Add four rect primitives between the rounded corners*
20,1,$1+$1,$2,$3,$4,$5,0*
20,1,$1+$1,$4,$5,$6,$7,0*
20,1,$1+$1,$6,$7,$8,$9,0*
20,1,$1+$1,$8,$9,$2,$3,0*%
G04 Aperture macros list end*
%TA.AperFunction,SMDPad,CuDef*%
%ADD10RoundRect,0.140000X0.140000X0.170000X-0.140000X0.170000X-0.140000X-0.170000X0.140000X-0.170000X0*%
%TD*%
%TA.AperFunction,SMDPad,CuDef*%
%ADD11RoundRect,0.140000X-0.140000X-0.170000X0.140000X-0.170000X0.140000X0.170000X-0.140000X0.170000X0*%
%TD*%
%TA.AperFunction,SMDPad,CuDef*%
%ADD12RoundRect,0.218750X0.218750X0.256250X-0.218750X0.256250X-0.218750X-0.256250X0.218750X-0.256250X0*%
%TD*%
%TA.AperFunction,SMDPad,CuDef*%
%ADD13RoundRect,0.135000X-0.135000X-0.185000X0.135000X-0.185000X0.135000X0.185000X-0.135000X0.185000X0*%
%TD*%
%TA.AperFunction,SMDPad,CuDef*%
%ADD14RoundRect,0.250000X0.475000X-0.250000X0.475000X0.250000X-0.475000X0.250000X-0.475000X-0.250000X0*%
%TD*%
%TA.AperFunction,SMDPad,CuDef*%
%ADD15RoundRect,0.250000X-0.475000X0.250000X-0.475000X-0.250000X0.475000X-0.250000X0.475000X0.250000X0*%
%TD*%
%TA.AperFunction,SMDPad,CuDef*%
%ADD16RoundRect,0.375000X0.625000X0.375000X-0.625000X0.375000X-0.625000X-0.375000X0.625000X-0.375000X0*%
%TD*%
%TA.AperFunction,SMDPad,CuDef*%
%ADD17RoundRect,0.500000X0.500000X1.400000X-0.500000X1.400000X-0.500000X-1.400000X0.500000X-1.400000X0*%
%TD*%
%TA.AperFunction,SMDPad,CuDef*%
%ADD18RoundRect,0.135000X0.135000X0.185000X-0.135000X0.185000X-0.135000X-0.185000X0.135000X-0.185000X0*%
%TD*%
%TA.AperFunction,SMDPad,CuDef*%
%ADD19RoundRect,0.250000X-0.350000X0.450000X-0.350000X-0.450000X0.350000X-0.450000X0.350000X0.450000X0*%
%TD*%
%TA.AperFunction,SMDPad,CuDef*%
%ADD20RoundRect,0.218750X-0.256250X0.218750X-0.256250X-0.218750X0.256250X-0.218750X0.256250X0.218750X0*%
%TD*%
%TA.AperFunction,SMDPad,CuDef*%
%ADD21R,1.500000X0.700000*%
%TD*%
%TA.AperFunction,SMDPad,CuDef*%
%ADD22R,0.800000X1.000000*%
%TD*%
%TA.AperFunction,SMDPad,CuDef*%
%ADD23RoundRect,0.225000X-0.225000X-0.250000X0.225000X-0.250000X0.225000X0.250000X-0.225000X0.250000X0*%
%TD*%
%TA.AperFunction,SMDPad,CuDef*%
%ADD24R,1.380000X0.450000*%
%TD*%
%TA.AperFunction,SMDPad,CuDef*%
%ADD25R,1.300000X1.650000*%
%TD*%
%TA.AperFunction,SMDPad,CuDef*%
%ADD26R,1.550000X1.425000*%
%TD*%
%TA.AperFunction,SMDPad,CuDef*%
%ADD27R,1.900000X1.800000*%
%TD*%
%TA.AperFunction,SMDPad,CuDef*%
%ADD28R,1.900000X1.000000*%
%TD*%
%TA.AperFunction,ComponentPad*%
%ADD29R,1.600000X1.600000*%
%TD*%
%TA.AperFunction,ComponentPad*%
%ADD30C,1.600000*%
%TD*%
%TA.AperFunction,SMDPad,CuDef*%
%ADD31RoundRect,0.075000X-0.662500X-0.075000X0.662500X-0.075000X0.662500X0.075000X-0.662500X0.075000X0*%
%TD*%
%TA.AperFunction,SMDPad,CuDef*%
%ADD32RoundRect,0.075000X-0.075000X-0.662500X0.075000X-0.662500X0.075000X0.662500X-0.075000X0.662500X0*%
%TD*%
%TA.AperFunction,SMDPad,CuDef*%
%ADD33RoundRect,0.140000X-0.170000X0.140000X-0.170000X-0.140000X0.170000X-0.140000X0.170000X0.140000X0*%
%TD*%
%TA.AperFunction,SMDPad,CuDef*%
%ADD34RoundRect,0.135000X-0.185000X0.135000X-0.185000X-0.135000X0.185000X-0.135000X0.185000X0.135000X0*%
%TD*%
%TA.AperFunction,ComponentPad*%
%ADD35R,1.700000X1.700000*%
%TD*%
%TA.AperFunction,ComponentPad*%
%ADD36C,1.700000*%
%TD*%
%TA.AperFunction,ViaPad*%
%ADD37C,0.600000*%
%TD*%
%TA.AperFunction,Conductor*%
%ADD38C,0.300000*%
%TD*%
%TA.AperFunction,Conductor*%
%ADD39C,0.200000*%
%TD*%
G04 APERTURE END LIST*
D10*
%TO.P,C3,1*%
%TO.N,/STM32F103/NRST*%
X188430000Y-101750000D03*
%TO.P,C3,2*%
%TO.N,GND*%
X187470000Y-101750000D03*
%TD*%
D11*
%TO.P,C12,1*%
%TO.N,+3.3VA*%
X185075000Y-89175000D03*
%TO.P,C12,2*%
%TO.N,GND*%
X186035000Y-89175000D03*
%TD*%
%TO.P,C13,1*%
%TO.N,+3.3V*%
X185045000Y-90975000D03*
%TO.P,C13,2*%
%TO.N,GND*%
X186005000Y-90975000D03*
%TD*%
D12*
%TO.P,D2,2,A*%
%TO.N,/STM32F103/LED1*%
X212355000Y-92145000D03*
%TO.P,D2,1,K*%
%TO.N,Net-(D2-K)*%
X213930000Y-92145000D03*
%TD*%
%TO.P,D3,2,A*%
%TO.N,/STM32F103/LED2*%
X212355000Y-94885000D03*
%TO.P,D3,1,K*%
%TO.N,Net-(D3-K)*%
X213930000Y-94885000D03*
%TD*%
D13*
%TO.P,R8,2*%
%TO.N,Net-(D2-K)*%
X217115000Y-92150000D03*
%TO.P,R8,1*%
%TO.N,GND*%
X216095000Y-92150000D03*
%TD*%
%TO.P,R10,2*%
%TO.N,Net-(D4-K)*%
X217125000Y-97625000D03*
%TO.P,R10,1*%
%TO.N,GND*%
X216105000Y-97625000D03*
%TD*%
D12*
%TO.P,D4,2,A*%
%TO.N,/STM32F103/LED3*%
X212365000Y-97625000D03*
%TO.P,D4,1,K*%
%TO.N,Net-(D4-K)*%
X213940000Y-97625000D03*
%TD*%
D13*
%TO.P,R9,2*%
%TO.N,Net-(D3-K)*%
X217115000Y-94875000D03*
%TO.P,R9,1*%
%TO.N,GND*%
X216095000Y-94875000D03*
%TD*%
D14*
%TO.P,C1,1*%
%TO.N,VBUS*%
X209825000Y-103700000D03*
%TO.P,C1,2*%
%TO.N,GND*%
X209825000Y-101800000D03*
%TD*%
D15*
%TO.P,C2,2*%
%TO.N,GND*%
X209825000Y-108562500D03*
%TO.P,C2,1*%
%TO.N,+3.3V*%
X209825000Y-106662500D03*
%TD*%
D16*
%TO.P,U1,1,GND*%
%TO.N,GND*%
X206975000Y-108462500D03*
%TO.P,U1,2,VO*%
%TO.N,+3.3V*%
X206975000Y-106162500D03*
D17*
X200675000Y-106162500D03*
D16*
%TO.P,U1,3,VI*%
%TO.N,VBUS*%
X206975000Y-103862500D03*
%TD*%
D18*
%TO.P,R1,1*%
%TO.N,GND*%
X209135000Y-92150000D03*
%TO.P,R1,2*%
%TO.N,/STM32F103/POWER_LED*%
X208115000Y-92150000D03*
%TD*%
D10*
%TO.P,C7,2*%
%TO.N,GND*%
X185820000Y-97225000D03*
%TO.P,C7,1*%
%TO.N,/STM32F103/HSE_OUT*%
X186780000Y-97225000D03*
%TD*%
D13*
%TO.P,R4,2*%
%TO.N,/STM32F103/BOOT0*%
X188060000Y-104450000D03*
%TO.P,R4,1*%
%TO.N,/STM32F103/SW_BOOT0*%
X187040000Y-104450000D03*
%TD*%
D10*
%TO.P,C9,2*%
%TO.N,GND*%
X185840000Y-92825000D03*
%TO.P,C9,1*%
%TO.N,+3.3V*%
X186800000Y-92825000D03*
%TD*%
D19*
%TO.P,Y1,4,4*%
%TO.N,GND*%
X183850000Y-94875000D03*
%TO.P,Y1,3,3*%
%TO.N,/STM32F103/HSE_OUT*%
X183850000Y-97075000D03*
%TO.P,Y1,2,2*%
%TO.N,GND*%
X182150000Y-97075000D03*
%TO.P,Y1,1,1*%
%TO.N,/STM32F103/HSE_IN*%
X182150000Y-94875000D03*
%TD*%
D10*
%TO.P,C4,2*%
%TO.N,GND*%
X185820000Y-94825000D03*
%TO.P,C4,1*%
%TO.N,/STM32F103/HSE_IN*%
X186780000Y-94825000D03*
%TD*%
D20*
%TO.P,FB1,2*%
%TO.N,+3.3V*%
X182400000Y-91325000D03*
%TO.P,FB1,1*%
%TO.N,+3.3VA*%
X182400000Y-89750000D03*
%TD*%
D11*
%TO.P,C11,2*%
%TO.N,GND*%
X183530000Y-87875000D03*
%TO.P,C11,1*%
%TO.N,+3.3VA*%
X182570000Y-87875000D03*
%TD*%
D21*
%TO.P,SW1,3,C*%
%TO.N,+3.3V*%
X183930000Y-105950000D03*
%TO.P,SW1,2,B*%
%TO.N,/STM32F103/SW_BOOT0*%
X183930000Y-104450000D03*
%TO.P,SW1,1,A*%
%TO.N,GND*%
X183930000Y-101450000D03*
D22*
%TO.P,SW1,*%
%TO.N,*%
X181070000Y-107350000D03*
X183280000Y-107350000D03*
X181070000Y-100050000D03*
X183280000Y-100050000D03*
%TD*%
D23*
%TO.P,C5,2*%
%TO.N,GND*%
X189525000Y-88050000D03*
%TO.P,C5,1*%
%TO.N,+3.3V*%
X187975000Y-88050000D03*
%TD*%
D12*
%TO.P,D1,2,A*%
%TO.N,+3.3V*%
X204862500Y-92140000D03*
%TO.P,D1,1,K*%
%TO.N,/STM32F103/POWER_LED*%
X206437500Y-92140000D03*
%TD*%
D24*
%TO.P,J3,1,VBUS*%
%TO.N,VBUS*%
X214690000Y-106400000D03*
%TO.P,J3,2,D-*%
%TO.N,/STM32F103/USB_D-*%
X214690000Y-105750000D03*
%TO.P,J3,3,D+*%
%TO.N,/STM32F103/USB_D+*%
X214690000Y-105100000D03*
%TO.P,J3,4,ID*%
%TO.N,unconnected-(J3-ID-Pad4)*%
X214690000Y-104450000D03*
%TO.P,J3,5,GND*%
%TO.N,GND*%
X214690000Y-103800000D03*
D25*
%TO.P,J3,6,Shield*%
%TO.N,unconnected-(J3-Shield-Pad6)*%
X217350000Y-108475000D03*
D26*
%TO.N,unconnected-(J3-Shield-Pad6)_1*%
X214775000Y-107587500D03*
D27*
%TO.N,unconnected-(J3-Shield-Pad6)_2*%
X217350000Y-106250000D03*
D28*
%TO.N,unconnected-(J3-Shield-Pad6)_3*%
X217350000Y-103550000D03*
D26*
%TO.N,unconnected-(J3-Shield-Pad6)_4*%
X214775000Y-102612500D03*
D25*
%TO.N,unconnected-(J3-Shield-Pad6)_5*%
X217350000Y-101725000D03*
%TD*%
D11*
%TO.P,C8,1*%
%TO.N,+3.3V*%
X188270000Y-90575000D03*
%TO.P,C8,2*%
%TO.N,GND*%
X189230000Y-90575000D03*
%TD*%
D29*
%TO.P,U7,1,CA*%
%TO.N,unconnected-(U7-CA-Pad1)*%
X210665000Y-112930000D03*
D30*
%TO.P,U7,2,F*%
%TO.N,/SEG_F*%
X210665000Y-115470000D03*
%TO.P,U7,3,G*%
%TO.N,/SEG_G*%
X210665000Y-118010000D03*
%TO.P,U7,4,E*%
%TO.N,/SEG_E*%
X210665000Y-120550000D03*
%TO.P,U7,5,D*%
%TO.N,/SEG_D*%
X210665000Y-123090000D03*
%TO.P,U7,6,CA*%
%TO.N,Net-(R2-Pad2)*%
X215745000Y-123090000D03*
%TO.P,U7,7,DP*%
%TO.N,/SEG_DP*%
X215745000Y-120550000D03*
%TO.P,U7,8,C*%
%TO.N,/SEG_C*%
X215745000Y-118010000D03*
%TO.P,U7,9,B*%
%TO.N,/SEG_B*%
X215745000Y-115470000D03*
%TO.P,U7,10,A*%
%TO.N,/SEG_A*%
X215745000Y-112930000D03*
%TD*%
D31*
%TO.P,U2,1,VBAT*%
%TO.N,+3.3V*%
X188987500Y-94400000D03*
%TO.P,U2,2,PC13*%
%TO.N,/STM32F103/LED1*%
X188987500Y-94900000D03*
%TO.P,U2,3,PC14*%
%TO.N,/STM32F103/LED2*%
X188987500Y-95400000D03*
%TO.P,U2,4,PC15*%
%TO.N,/STM32F103/LED3*%
X188987500Y-95900000D03*
%TO.P,U2,5,PD0*%
%TO.N,/STM32F103/HSE_IN*%
X188987500Y-96400000D03*
%TO.P,U2,6,PD1*%
%TO.N,/STM32F103/HSE_OUT*%
X188987500Y-96900000D03*
%TO.P,U2,7,NRST*%
%TO.N,/STM32F103/NRST*%
X188987500Y-97400000D03*
%TO.P,U2,8,VSSA*%
%TO.N,GND*%
X188987500Y-97900000D03*
%TO.P,U2,9,VDDA*%
%TO.N,+3.3VA*%
X188987500Y-98400000D03*
%TO.P,U2,10,PA0*%
%TO.N,unconnected-(U2-PA0-Pad10)*%
X188987500Y-98900000D03*
%TO.P,U2,11,PA1*%
%TO.N,unconnected-(U2-PA1-Pad11)*%
X188987500Y-99400000D03*
%TO.P,U2,12,PA2*%
%TO.N,unconnected-(U2-PA2-Pad12)*%
X188987500Y-99900000D03*
D32*
%TO.P,U2,13,PA3*%
%TO.N,unconnected-(U2-PA3-Pad13)*%
X190400000Y-101312500D03*
%TO.P,U2,14,PA4*%
%TO.N,unconnected-(U2-PA4-Pad14)*%
X190900000Y-101312500D03*
%TO.P,U2,15,PA5*%
%TO.N,unconnected-(U2-PA5-Pad15)*%
X191400000Y-101312500D03*
%TO.P,U2,16,PA6*%
%TO.N,unconnected-(U2-PA6-Pad16)*%
X191900000Y-101312500D03*
%TO.P,U2,17,PA7*%
%TO.N,unconnected-(U2-PA7-Pad17)*%
X192400000Y-101312500D03*
%TO.P,U2,18,PB0*%
%TO.N,unconnected-(U2-PB0-Pad18)*%
X192900000Y-101312500D03*
%TO.P,U2,19,PB1*%
%TO.N,unconnected-(U2-PB1-Pad19)*%
X193400000Y-101312500D03*
%TO.P,U2,20,PB2*%
%TO.N,unconnected-(U2-PB2-Pad20)*%
X193900000Y-101312500D03*
%TO.P,U2,21,PB10*%
%TO.N,/SEG_C*%
X194400000Y-101312500D03*
%TO.P,U2,22,PB11*%
%TO.N,/SEG_D*%
X194900000Y-101312500D03*
%TO.P,U2,23,VSS*%
%TO.N,GND*%
X195400000Y-101312500D03*
%TO.P,U2,24,VDD*%
%TO.N,+3.3V*%
X195900000Y-101312500D03*
D31*
%TO.P,U2,25,PB12*%
%TO.N,/SEG_E*%
X197312500Y-99900000D03*
%TO.P,U2,26,PB13*%
%TO.N,/SEG_F*%
X197312500Y-99400000D03*
%TO.P,U2,27,PB14*%
%TO.N,/SEG_G*%
X197312500Y-98900000D03*
%TO.P,U2,28,PB15*%
%TO.N,/SEG_DP*%
X197312500Y-98400000D03*
%TO.P,U2,29,PA8*%
%TO.N,unconnected-(U2-PA8-Pad29)*%
X197312500Y-97900000D03*
%TO.P,U2,30,PA9*%
%TO.N,unconnected-(U2-PA9-Pad30)*%
X197312500Y-97400000D03*
%TO.P,U2,31,PA10*%
%TO.N,unconnected-(U2-PA10-Pad31)*%
X197312500Y-96900000D03*
%TO.P,U2,32,PA11*%
%TO.N,/STM32F103/USB_D-*%
X197312500Y-96400000D03*
%TO.P,U2,33,PA12*%
%TO.N,/STM32F103/USB_D+*%
X197312500Y-95900000D03*
%TO.P,U2,34,PA13*%
%TO.N,/STM32F103/SWDIO*%
X197312500Y-95400000D03*
%TO.P,U2,35,VSS*%
%TO.N,GND*%
X197312500Y-94900000D03*
%TO.P,U2,36,VDD*%
%TO.N,+3.3V*%
X197312500Y-94400000D03*
D32*
%TO.P,U2,37,PA14*%
%TO.N,/STM32F103/SWCLK*%
X195900000Y-92987500D03*
%TO.P,U2,38,PA15*%
%TO.N,unconnected-(U2-PA15-Pad38)*%
X195400000Y-92987500D03*
%TO.P,U2,39,PB3*%
%TO.N,unconnected-(U2-PB3-Pad39)*%
X194900000Y-92987500D03*
%TO.P,U2,40,PB4*%
%TO.N,unconnected-(U2-PB4-Pad40)*%
X194400000Y-92987500D03*
%TO.P,U2,41,PB5*%
%TO.N,unconnected-(U2-PB5-Pad41)*%
X193900000Y-92987500D03*
%TO.P,U2,42,PB6*%
%TO.N,/STM32F103/USART1_TX*%
X193400000Y-92987500D03*
%TO.P,U2,43,PB7*%
%TO.N,/STM32F103/USART1_RX*%
X192900000Y-92987500D03*
%TO.P,U2,44,BOOT0*%
%TO.N,/STM32F103/BOOT0*%
X192400000Y-92987500D03*
%TO.P,U2,45,PB8*%
%TO.N,/SEG_A*%
X191900000Y-92987500D03*
%TO.P,U2,46,PB9*%
%TO.N,/SEG_B*%
X191400000Y-92987500D03*
%TO.P,U2,47,VSS*%
%TO.N,GND*%
X190900000Y-92987500D03*
%TO.P,U2,48,VDD*%
%TO.N,+3.3V*%
X190400000Y-92987500D03*
%TD*%
D33*
%TO.P,C6,1*%
%TO.N,+3.3V*%
X199350000Y-94170000D03*
%TO.P,C6,2*%
%TO.N,GND*%
X199350000Y-95130000D03*
%TD*%
D34*
%TO.P,R5,1*%
%TO.N,+3.3V*%
X201650000Y-94730000D03*
%TO.P,R5,2*%
%TO.N,/STM32F103/USB_D+*%
X201650000Y-95750000D03*
%TD*%
D33*
%TO.P,C10,1*%
%TO.N,+3.3V*%
X196250000Y-103490000D03*
%TO.P,C10,2*%
%TO.N,GND*%
X196250000Y-104450000D03*
%TD*%
D13*
%TO.P,R6,1*%
%TO.N,+3.3V*%
X196040000Y-126483333D03*
%TO.P,R6,2*%
%TO.N,Net-(R6-Pad2)*%
X197060000Y-126483333D03*
%TD*%
%TO.P,R2,1*%
%TO.N,+3.3V*%
X214690000Y-126450000D03*
%TO.P,R2,2*%
%TO.N,Net-(R2-Pad2)*%
X215710000Y-126450000D03*
%TD*%
D35*
%TO.P,J4,1,Pin_1*%
%TO.N,+3.3V*%
X193630000Y-87750000D03*
D36*
%TO.P,J4,2,Pin_2*%
%TO.N,/STM32F103/SWDIO*%
X196170000Y-87750000D03*
%TO.P,J4,3,Pin_3*%
%TO.N,/STM32F103/SWCLK*%
X198710000Y-87750000D03*
%TO.P,J4,4,Pin_4*%
%TO.N,GND*%
X201250000Y-87750000D03*
%TD*%
D35*
%TO.P,J2,1,Pin_1*%
%TO.N,+3.3V*%
X207240000Y-87750000D03*
D36*
%TO.P,J2,2,Pin_2*%
%TO.N,/STM32F103/USART1_TX*%
X209780000Y-87750000D03*
%TO.P,J2,3,Pin_3*%
%TO.N,/STM32F103/USART1_RX*%
X212320000Y-87750000D03*
%TO.P,J2,4,Pin_4*%
%TO.N,GND*%
X214860000Y-87750000D03*
%TD*%
D29*
%TO.P,U5,1,CA*%
%TO.N,unconnected-(U5-CA-Pad1)*%
X201350000Y-112930000D03*
D30*
%TO.P,U5,2,F*%
%TO.N,/SEG_F*%
X201350000Y-115470000D03*
%TO.P,U5,3,G*%
%TO.N,/SEG_G*%
X201350000Y-118010000D03*
%TO.P,U5,4,E*%
%TO.N,/SEG_E*%
X201350000Y-120550000D03*
%TO.P,U5,5,D*%
%TO.N,/SEG_D*%
X201350000Y-123090000D03*
%TO.P,U5,6,CA*%
%TO.N,Net-(R7-Pad2)*%
X206430000Y-123090000D03*
%TO.P,U5,7,DP*%
%TO.N,/SEG_DP*%
X206430000Y-120550000D03*
%TO.P,U5,8,C*%
%TO.N,/SEG_C*%
X206430000Y-118010000D03*
%TO.P,U5,9,B*%
%TO.N,/SEG_B*%
X206430000Y-115470000D03*
%TO.P,U5,10,A*%
%TO.N,/SEG_A*%
X206430000Y-112930000D03*
%TD*%
D29*
%TO.P,U4,1,CA*%
%TO.N,unconnected-(U4-CA-Pad1)*%
X192035000Y-112930000D03*
D30*
%TO.P,U4,2,F*%
%TO.N,/SEG_F*%
X192035000Y-115470000D03*
%TO.P,U4,3,G*%
%TO.N,/SEG_G*%
X192035000Y-118010000D03*
%TO.P,U4,4,E*%
%TO.N,/SEG_E*%
X192035000Y-120550000D03*
%TO.P,U4,5,D*%
%TO.N,/SEG_D*%
X192035000Y-123090000D03*
%TO.P,U4,6,CA*%
%TO.N,Net-(R6-Pad2)*%
X197115000Y-123090000D03*
%TO.P,U4,7,DP*%
%TO.N,/SEG_DP*%
X197115000Y-120550000D03*
%TO.P,U4,8,C*%
%TO.N,/SEG_C*%
X197115000Y-118010000D03*
%TO.P,U4,9,B*%
%TO.N,/SEG_B*%
X197115000Y-115470000D03*
%TO.P,U4,10,A*%
%TO.N,/SEG_A*%
X197115000Y-112930000D03*
%TD*%
D13*
%TO.P,R7,1*%
%TO.N,+3.3V*%
X205390000Y-126466667D03*
%TO.P,R7,2*%
%TO.N,Net-(R7-Pad2)*%
X206410000Y-126466667D03*
%TD*%
%TO.P,R3,1*%
%TO.N,+3.3V*%
X186740000Y-126500000D03*
%TO.P,R3,2*%
%TO.N,Net-(R3-Pad2)*%
X187760000Y-126500000D03*
%TD*%
D29*
%TO.P,U3,1,CA*%
%TO.N,unconnected-(U3-CA-Pad1)*%
X182720000Y-112930000D03*
D30*
%TO.P,U3,2,F*%
%TO.N,/SEG_F*%
X182720000Y-115470000D03*
%TO.P,U3,3,G*%
%TO.N,/SEG_G*%
X182720000Y-118010000D03*
%TO.P,U3,4,E*%
%TO.N,/SEG_E*%
X182720000Y-120550000D03*
%TO.P,U3,5,D*%
%TO.N,/SEG_D*%
X182720000Y-123090000D03*
%TO.P,U3,6,CA*%
%TO.N,Net-(R3-Pad2)*%
X187800000Y-123090000D03*
%TO.P,U3,7,DP*%
%TO.N,/SEG_DP*%
X187800000Y-120550000D03*
%TO.P,U3,8,C*%
%TO.N,/SEG_C*%
X187800000Y-118010000D03*
%TO.P,U3,9,B*%
%TO.N,/SEG_B*%
X187800000Y-115470000D03*
%TO.P,U3,10,A*%
%TO.N,/SEG_A*%
X187800000Y-112930000D03*
%TD*%
D37*
%TO.N,/STM32F103/SWDIO*%
X195850000Y-94350000D03*
%TO.N,/STM32F103/SWCLK*%
X198700000Y-91975000D03*
%TO.N,/STM32F103/LED1*%
X190850000Y-95225000D03*
%TO.N,/SEG_A*%
X192875000Y-95600000D03*
%TO.N,/SEG_DP*%
X198650000Y-120525000D03*
X200350000Y-98750000D03*
%TO.N,/SEG_G*%
X199100000Y-99450000D03*
%TO.N,+3.3V*%
X189300000Y-92725000D03*
%TO.N,/STM32F103/LED1*%
X195500000Y-95750000D03*
%TO.N,/STM32F103/LED2*%
X191425000Y-96525000D03*
%TO.N,/STM32F103/LED3*%
X191350000Y-97600000D03*
X211125000Y-97625000D03*
%TO.N,/STM32F103/LED2*%
X208175000Y-94875000D03*
%TO.N,/STM32F103/LED1*%
X211100000Y-91225000D03*
%TO.N,GND*%
X187450000Y-98025000D03*
%TO.N,/STM32F103/NRST*%
X188450000Y-100750000D03*
X190200000Y-97600000D03*
%TO.N,+3.3V*%
X203645000Y-125858334D03*
X212985000Y-125866667D03*
X184985000Y-125891667D03*
X194325000Y-125900000D03*
%TO.N,/SEG_E*%
X194500000Y-119210000D03*
X197225000Y-101550000D03*
%TO.N,/SEG_G*%
X184000000Y-116750000D03*
%TO.N,/SEG_D*%
X191450000Y-106375000D03*
X181225000Y-110575000D03*
%TO.N,GND*%
X196025000Y-105475000D03*
%TO.N,/SEG_C*%
X189400000Y-118025000D03*
X190300000Y-110225000D03*
%TO.N,/STM32F103/USART1_TX*%
X207625000Y-90875000D03*
%TO.N,+3.3V*%
X186050000Y-105975000D03*
%TO.N,GND*%
X186250000Y-101525000D03*
X182950000Y-98400000D03*
X186600000Y-95775000D03*
X185275000Y-98125000D03*
X183975000Y-86850000D03*
X185675000Y-87925000D03*
X186925000Y-90575000D03*
%TO.N,+3.3V*%
X187850000Y-92700000D03*
%TO.N,GND*%
X184900000Y-93025000D03*
%TO.N,+3.3V*%
X184600000Y-92000000D03*
X182800000Y-92575000D03*
X188813689Y-89557494D03*
X187525000Y-86825000D03*
%TO.N,GND*%
X189950000Y-86800000D03*
X190400000Y-90325000D03*
X191200000Y-91200000D03*
%TO.N,/SEG_B*%
X190800000Y-103025000D03*
%TO.N,/SEG_A*%
X191850000Y-103175000D03*
%TO.N,/SEG_F*%
X185200000Y-108950000D03*
X195562500Y-99462500D03*
%TO.N,+3.3V*%
X202950000Y-94150000D03*
X203550000Y-92750000D03*
%TO.N,GND*%
X209625000Y-93275000D03*
X215115000Y-94150000D03*
X215130000Y-91425000D03*
X215140000Y-96900000D03*
%TO.N,+3.3V*%
X198550000Y-105075000D03*
X198550000Y-106150000D03*
X198550000Y-107425000D03*
%TO.N,GND*%
X211750000Y-108975000D03*
X211750000Y-108125000D03*
X209125000Y-100475000D03*
X200500000Y-94925000D03*
X213100000Y-103350000D03*
%TO.N,/SEG_B*%
X191762500Y-95762500D03*
%TD*%
D38*
%TO.N,Net-(D2-K)*%
X213890000Y-92150000D02*
X214675000Y-92150000D01*
X214675000Y-92150000D02*
X215675000Y-93150000D01*
X215675000Y-93150000D02*
X216600000Y-93150000D01*
X216600000Y-93150000D02*
X217075000Y-92675000D01*
X217075000Y-92675000D02*
X217075000Y-92150000D01*
%TO.N,+3.3V*%
X198550000Y-105075000D02*
X198550000Y-104100000D01*
X195900000Y-103070000D02*
X195900000Y-101312500D01*
X198550000Y-104100000D02*
X197850000Y-103400000D01*
X197850000Y-103400000D02*
X196230000Y-103400000D01*
X196230000Y-103400000D02*
X195900000Y-103070000D01*
%TO.N,/STM32F103/SWDIO*%
X197312500Y-95400000D02*
X196125000Y-95400000D01*
X196125000Y-95400000D02*
X195850000Y-95125000D01*
X195850000Y-95125000D02*
X195850000Y-94350000D01*
%TO.N,/STM32F103/SWCLK*%
X197687500Y-92987500D02*
X198700000Y-91975000D01*
X195900000Y-92987500D02*
X197687500Y-92987500D01*
%TO.N,/SEG_B*%
X191400000Y-92987500D02*
X191400000Y-94832107D01*
X191400000Y-94832107D02*
X191762500Y-95194607D01*
X191762500Y-95194607D02*
X191762500Y-95762500D01*
%TO.N,/SEG_A*%
X192875000Y-95600000D02*
X191900000Y-94625000D01*
X191900000Y-94625000D02*
X191900000Y-92987500D01*
%TO.N,/STM32F103/LED1*%
X190850000Y-95225000D02*
X190850000Y-95025000D01*
X190850000Y-95025000D02*
X190725000Y-94900000D01*
X190725000Y-94900000D02*
X188987500Y-94900000D01*
%TO.N,/STM32F103/LED2*%
X188987500Y-95400000D02*
X190075000Y-95400000D01*
X191200000Y-96525000D02*
X191425000Y-96525000D01*
X190075000Y-95400000D02*
X191200000Y-96525000D01*
%TO.N,/STM32F103/LED3*%
X191350000Y-97600000D02*
X191125000Y-97600000D01*
X191125000Y-97600000D02*
X190300000Y-96775000D01*
X190300000Y-96775000D02*
X190300000Y-96350000D01*
X190300000Y-96350000D02*
X189850000Y-95900000D01*
X189850000Y-95900000D02*
X188987500Y-95900000D01*
%TO.N,/SEG_DP*%
X200000000Y-98400000D02*
X200350000Y-98750000D01*
X197312500Y-98400000D02*
X200000000Y-98400000D01*
%TO.N,/SEG_G*%
X198550000Y-98900000D02*
X199100000Y-99450000D01*
X197312500Y-98900000D02*
X198550000Y-98900000D01*
%TO.N,/STM32F103/BOOT0*%
X192400000Y-92987500D02*
X192400000Y-94175000D01*
X194600000Y-99100000D02*
X193625000Y-100075000D01*
X192400000Y-94175000D02*
X192625000Y-94400000D01*
X192625000Y-94400000D02*
X194175000Y-94400000D01*
X194175000Y-94400000D02*
X194600000Y-94825000D01*
X194600000Y-94825000D02*
X194600000Y-99100000D01*
X193625000Y-100075000D02*
X190175000Y-100075000D01*
X190175000Y-100075000D02*
X189750000Y-100500000D01*
X189750000Y-100500000D02*
X189750000Y-102760000D01*
X189750000Y-102760000D02*
X188060000Y-104450000D01*
%TO.N,/STM32F103/LED3*%
X212365000Y-97625000D02*
X211125000Y-97625000D01*
%TO.N,/STM32F103/LED2*%
X212355000Y-94885000D02*
X208185000Y-94885000D01*
%TO.N,/STM32F103/LED1*%
X211435000Y-91225000D02*
X211100000Y-91225000D01*
X212355000Y-92145000D02*
X211435000Y-91225000D01*
%TO.N,/STM32F103/HSE_IN*%
X188987500Y-96400000D02*
X187725000Y-96400000D01*
X187725000Y-96400000D02*
X187350000Y-96025000D01*
X187350000Y-96025000D02*
X187350000Y-95375000D01*
X187350000Y-95375000D02*
X186800000Y-94825000D01*
X186800000Y-94825000D02*
X186780000Y-94825000D01*
X186780000Y-94825000D02*
X186780000Y-94930000D01*
%TO.N,+3.3VA*%
X188987500Y-98400000D02*
X188000000Y-98400000D01*
X187350000Y-99050000D02*
X182100000Y-99050000D01*
X188000000Y-98400000D02*
X187350000Y-99050000D01*
X182100000Y-99050000D02*
X180775000Y-97725000D01*
X180775000Y-97725000D02*
X180775000Y-90775000D01*
X180775000Y-90775000D02*
X181800000Y-89750000D01*
X181800000Y-89750000D02*
X182400000Y-89750000D01*
%TO.N,GND*%
X185275000Y-98125000D02*
X185820000Y-97580000D01*
X185820000Y-97580000D02*
X185820000Y-97225000D01*
X182950000Y-98400000D02*
X182475000Y-98400000D01*
X182475000Y-98400000D02*
X182150000Y-98075000D01*
X182150000Y-98075000D02*
X182150000Y-97075000D01*
X187575000Y-97900000D02*
X187450000Y-98025000D01*
X188987500Y-97900000D02*
X187575000Y-97900000D01*
%TO.N,/STM32F103/NRST*%
X188430000Y-101750000D02*
X188430000Y-100770000D01*
X188430000Y-100770000D02*
X188450000Y-100750000D01*
X190000000Y-97400000D02*
X190200000Y-97600000D01*
X188987500Y-97400000D02*
X190000000Y-97400000D01*
%TO.N,+3.3V*%
X204228333Y-126441667D02*
X203645000Y-125858334D01*
X213568333Y-126450000D02*
X212985000Y-125866667D01*
X205360000Y-126441667D02*
X204228333Y-126441667D01*
X214700000Y-126450000D02*
X213568333Y-126450000D01*
X185568333Y-126475000D02*
X184985000Y-125891667D01*
X186700000Y-126475000D02*
X185568333Y-126475000D01*
X194908333Y-126483333D02*
X194325000Y-125900000D01*
X196040000Y-126483333D02*
X194908333Y-126483333D01*
%TO.N,GND*%
X195400000Y-101312500D02*
X195400000Y-104850000D01*
X195400000Y-104850000D02*
X196025000Y-105475000D01*
%TO.N,/SEG_E*%
X194500000Y-119210000D02*
X198637500Y-119210000D01*
X197312500Y-101462500D02*
X197225000Y-101550000D01*
X197312500Y-99900000D02*
X197312500Y-101462500D01*
%TO.N,/SEG_G*%
X184000000Y-116750000D02*
X189250000Y-116750000D01*
%TO.N,/SEG_E*%
X184050000Y-119250000D02*
X189250000Y-119250000D01*
%TO.N,/SEG_D*%
X191450000Y-106375000D02*
X191375000Y-106450000D01*
X180800000Y-122425000D02*
X180800000Y-111000000D01*
X182720000Y-123090000D02*
X181465000Y-123090000D01*
X180800000Y-111000000D02*
X181225000Y-110575000D01*
X181465000Y-123090000D02*
X180800000Y-122425000D01*
%TO.N,GND*%
X196250000Y-105250000D02*
X196025000Y-105475000D01*
X196250000Y-104450000D02*
X196250000Y-105250000D01*
%TO.N,/SEG_C*%
X190300000Y-106375000D02*
X190300000Y-110225000D01*
X194400000Y-101312500D02*
X194400000Y-102275000D01*
X194400000Y-102275000D02*
X190300000Y-106375000D01*
%TO.N,/STM32F103/USART1_TX*%
X193400000Y-92987500D02*
X193400000Y-91925000D01*
X193400000Y-91925000D02*
X194450000Y-90875000D01*
X194450000Y-90875000D02*
X207625000Y-90875000D01*
%TO.N,GND*%
X209625000Y-93275000D02*
X209625000Y-92640000D01*
X209625000Y-92640000D02*
X209135000Y-92150000D01*
%TO.N,+3.3V*%
X203550000Y-92630000D02*
X204040000Y-92140000D01*
X203550000Y-92750000D02*
X203550000Y-92630000D01*
X204040000Y-92140000D02*
X204862500Y-92140000D01*
%TO.N,/STM32F103/USART1_RX*%
X192900000Y-92987500D02*
X192900000Y-91550000D01*
X192900000Y-91550000D02*
X194400000Y-90050000D01*
X194400000Y-90050000D02*
X210020000Y-90050000D01*
X210020000Y-90050000D02*
X212320000Y-87750000D01*
%TO.N,/STM32F103/SW_BOOT0*%
X183930000Y-104450000D02*
X187040000Y-104450000D01*
%TO.N,GND*%
X187470000Y-101750000D02*
X186475000Y-101750000D01*
X186475000Y-101750000D02*
X186250000Y-101525000D01*
X183850000Y-94875000D02*
X185770000Y-94875000D01*
X185770000Y-94875000D02*
X185820000Y-94825000D01*
X185820000Y-94995000D02*
X186600000Y-95775000D01*
X185820000Y-94825000D02*
X185820000Y-94995000D01*
%TO.N,/STM32F103/HSE_OUT*%
X184625000Y-96300000D02*
X186000000Y-96300000D01*
X183850000Y-97075000D02*
X184625000Y-96300000D01*
X186000000Y-96300000D02*
X186780000Y-97080000D01*
X186780000Y-97080000D02*
X186780000Y-97225000D01*
%TO.N,/STM32F103/HSE_IN*%
X182150000Y-94875000D02*
X182150000Y-94275000D01*
X182150000Y-94275000D02*
X182700000Y-93725000D01*
X182700000Y-93725000D02*
X186400000Y-93725000D01*
X186400000Y-93725000D02*
X186780000Y-94105000D01*
X186780000Y-94105000D02*
X186780000Y-94825000D01*
%TO.N,/STM32F103/HSE_OUT*%
X188987500Y-96900000D02*
X187105000Y-96900000D01*
X187105000Y-96900000D02*
X186780000Y-97225000D01*
%TO.N,GND*%
X183530000Y-87295000D02*
X183975000Y-86850000D01*
X183530000Y-87875000D02*
X183530000Y-87295000D01*
X186035000Y-88285000D02*
X185675000Y-87925000D01*
X186035000Y-89175000D02*
X186035000Y-88285000D01*
X186525000Y-90975000D02*
X186925000Y-90575000D01*
X186005000Y-90975000D02*
X186525000Y-90975000D01*
%TO.N,+3.3V*%
X187725000Y-92825000D02*
X187850000Y-92700000D01*
X186800000Y-92825000D02*
X187725000Y-92825000D01*
%TO.N,GND*%
X185100000Y-92825000D02*
X184900000Y-93025000D01*
X185840000Y-92825000D02*
X185100000Y-92825000D01*
%TO.N,+3.3V*%
X185045000Y-91555000D02*
X184600000Y-92000000D01*
X185045000Y-90975000D02*
X185045000Y-91555000D01*
X182400000Y-92175000D02*
X182800000Y-92575000D01*
X182400000Y-91325000D02*
X182400000Y-92175000D01*
%TO.N,+3.3VA*%
X182570000Y-87875000D02*
X182570000Y-89580000D01*
X182570000Y-89580000D02*
X182400000Y-89750000D01*
X182400000Y-89750000D02*
X182975000Y-89175000D01*
X182975000Y-89175000D02*
X185075000Y-89175000D01*
%TO.N,+3.3V*%
X188270000Y-90030000D02*
X188750000Y-89550000D01*
X188270000Y-90575000D02*
X188270000Y-90030000D01*
X187975000Y-87275000D02*
X187525000Y-86825000D01*
X187975000Y-88050000D02*
X187975000Y-87275000D01*
%TO.N,GND*%
X189525000Y-87225000D02*
X189950000Y-86800000D01*
X189525000Y-88050000D02*
X189525000Y-87225000D01*
X190150000Y-90575000D02*
X190400000Y-90325000D01*
X189230000Y-90575000D02*
X190150000Y-90575000D01*
X190900000Y-91500000D02*
X191200000Y-91200000D01*
X190900000Y-92987500D02*
X190900000Y-91500000D01*
%TO.N,/SEG_F*%
X185200000Y-108950000D02*
X185200000Y-112990000D01*
X185200000Y-112990000D02*
X183990000Y-114200000D01*
X195562500Y-99462500D02*
X195550000Y-99475000D01*
X195625000Y-99400000D02*
X195562500Y-99462500D01*
X197312500Y-99400000D02*
X195625000Y-99400000D01*
%TO.N,+3.3V*%
X202370000Y-94730000D02*
X202950000Y-94150000D01*
X201650000Y-94730000D02*
X202370000Y-94730000D01*
X199945000Y-93575000D02*
X201050000Y-93575000D01*
%TO.N,/STM32F103/POWER_LED*%
X208115000Y-92150000D02*
X206447500Y-92150000D01*
X206447500Y-92150000D02*
X206437500Y-92140000D01*
%TO.N,Net-(D3-K)*%
X214725000Y-94875000D02*
X215400000Y-95550000D01*
X215400000Y-95550000D02*
X216450000Y-95550000D01*
X213940000Y-94875000D02*
X214725000Y-94875000D01*
X216450000Y-95550000D02*
X217125000Y-94875000D01*
%TO.N,Net-(D4-K)*%
X213940000Y-97625000D02*
X214725000Y-97625000D01*
X214725000Y-97625000D02*
X215400000Y-98300000D01*
X215400000Y-98300000D02*
X216450000Y-98300000D01*
X216450000Y-98300000D02*
X217125000Y-97625000D01*
%TO.N,GND*%
X216080000Y-94875000D02*
X215840000Y-94875000D01*
X215865000Y-97625000D02*
X215140000Y-96900000D01*
X215840000Y-94875000D02*
X215115000Y-94150000D01*
X216105000Y-97625000D02*
X215865000Y-97625000D01*
X215855000Y-92150000D02*
X215130000Y-91425000D01*
X216095000Y-92150000D02*
X215855000Y-92150000D01*
X209825000Y-101175000D02*
X209125000Y-100475000D01*
X209825000Y-101800000D02*
X209825000Y-101175000D01*
X200295000Y-95130000D02*
X200500000Y-94925000D01*
X199350000Y-95130000D02*
X200295000Y-95130000D01*
X197312500Y-94900000D02*
X199120000Y-94900000D01*
X199120000Y-94900000D02*
X199350000Y-95130000D01*
%TO.N,+3.3V*%
X199350000Y-94170000D02*
X197542500Y-94170000D01*
X197542500Y-94170000D02*
X197312500Y-94400000D01*
D39*
%TO.N,/STM32F103/USB_D-*%
X214690000Y-105750000D02*
X213654999Y-105750000D01*
%TO.N,/STM32F103/USB_D+*%
X213218198Y-105200000D02*
X212375000Y-104356802D01*
X198418751Y-95900000D02*
X197312500Y-95900000D01*
X198443751Y-95925000D02*
X198418751Y-95900000D01*
X212375000Y-104356802D02*
X212375000Y-100581802D01*
%TO.N,/STM32F103/USB_D-*%
X207531802Y-96375000D02*
X198443751Y-96375000D01*
%TO.N,/STM32F103/USB_D+*%
X212375000Y-100581802D02*
X207718198Y-95925000D01*
%TO.N,/STM32F103/USB_D-*%
X213031802Y-105650000D02*
X211925000Y-104543198D01*
X213654999Y-105750000D02*
X213554999Y-105650000D01*
%TO.N,/STM32F103/USB_D+*%
X213554999Y-105200000D02*
X213218198Y-105200000D01*
%TO.N,/STM32F103/USB_D-*%
X213554999Y-105650000D02*
X213031802Y-105650000D01*
%TO.N,/STM32F103/USB_D+*%
X207718198Y-95925000D02*
X198443751Y-95925000D01*
X213654999Y-105100000D02*
X213554999Y-105200000D01*
X214690000Y-105100000D02*
X213654999Y-105100000D01*
%TO.N,/STM32F103/USB_D-*%
X211925000Y-104543198D02*
X211925000Y-100768198D01*
X211925000Y-100768198D02*
X207531802Y-96375000D01*
X198418751Y-96400000D02*
X197312500Y-96400000D01*
X198443751Y-96375000D02*
X198418751Y-96400000D01*
D38*
%TO.N,GND*%
X213550000Y-103800000D02*
X213100000Y-103350000D01*
X214690000Y-103800000D02*
X213550000Y-103800000D01*
%TO.N,Net-(R2-Pad2)*%
X215745000Y-123090000D02*
X215745000Y-126415000D01*
X215745000Y-126415000D02*
X215710000Y-126450000D01*
%TO.N,Net-(R3-Pad2)*%
X187800000Y-126460000D02*
X187760000Y-126500000D01*
X187800000Y-123090000D02*
X187800000Y-126460000D01*
%TO.N,Net-(R6-Pad2)*%
X197115000Y-126428333D02*
X197060000Y-126483333D01*
X197115000Y-123090000D02*
X197115000Y-126428333D01*
%TO.N,Net-(R7-Pad2)*%
X206430000Y-123090000D02*
X206430000Y-126446667D01*
X206430000Y-126446667D02*
X206410000Y-126466667D01*
%TO.N,/SEG_D*%
X201357500Y-123050000D02*
X202438703Y-123050000D01*
X184010000Y-121800000D02*
X189300000Y-121800000D01*
X189300000Y-121800000D02*
X190590000Y-123090000D01*
X182720000Y-123090000D02*
X184010000Y-121800000D01*
X207937500Y-121760000D02*
X209227500Y-123050000D01*
X194478703Y-121760000D02*
X198687500Y-121760000D01*
X199977500Y-123050000D02*
X201422500Y-123050000D01*
X198687500Y-121760000D02*
X199977500Y-123050000D01*
X203728703Y-121760000D02*
X207937500Y-121760000D01*
X192107500Y-123050000D02*
X193188703Y-123050000D01*
X193188703Y-123050000D02*
X194478703Y-121760000D01*
X190590000Y-123090000D02*
X192035000Y-123090000D01*
X202438703Y-123050000D02*
X203728703Y-121760000D01*
X209227500Y-123050000D02*
X210672500Y-123050000D01*
%TO.N,/SEG_G*%
X190510000Y-118010000D02*
X192035000Y-118010000D01*
X203698703Y-116710000D02*
X207887500Y-116710000D01*
X207887500Y-116710000D02*
X209147500Y-117970000D01*
X193188703Y-117970000D02*
X194448703Y-116710000D01*
X194448703Y-116710000D02*
X198637500Y-116710000D01*
X189250000Y-116750000D02*
X190510000Y-118010000D01*
X201357500Y-117970000D02*
X202438703Y-117970000D01*
X199897500Y-117970000D02*
X201422500Y-117970000D01*
X209147500Y-117970000D02*
X210672500Y-117970000D01*
X182720000Y-118010000D02*
X183980000Y-116750000D01*
X202438703Y-117970000D02*
X203698703Y-116710000D01*
X192107500Y-117970000D02*
X193188703Y-117970000D01*
X183980000Y-116750000D02*
X184000000Y-116750000D01*
X198637500Y-116710000D02*
X199897500Y-117970000D01*
%TO.N,/SEG_A*%
X212895000Y-112955000D02*
X211625000Y-114225000D01*
X215790000Y-112955000D02*
X212895000Y-112955000D01*
X207955000Y-112955000D02*
X206475000Y-112955000D01*
X198605000Y-112905000D02*
X197125000Y-112905000D01*
X211625000Y-114225000D02*
X209225000Y-114225000D01*
X202275000Y-114175000D02*
X199875000Y-114175000D01*
X206440000Y-112905000D02*
X203545000Y-112905000D01*
X190550000Y-114200000D02*
X189280000Y-112930000D01*
X199875000Y-114175000D02*
X198605000Y-112905000D01*
X203545000Y-112905000D02*
X202275000Y-114175000D01*
X194220000Y-112930000D02*
X192950000Y-114200000D01*
X189280000Y-112930000D02*
X187800000Y-112930000D01*
X197115000Y-112930000D02*
X194220000Y-112930000D01*
X192950000Y-114200000D02*
X190550000Y-114200000D01*
X209225000Y-114225000D02*
X207955000Y-112955000D01*
%TO.N,/SEG_F*%
X202438703Y-115430000D02*
X203708703Y-114160000D01*
X182720000Y-115470000D02*
X183990000Y-114200000D01*
X189300000Y-114200000D02*
X190570000Y-115470000D01*
X203708703Y-114160000D02*
X207937500Y-114160000D01*
X193188703Y-115430000D02*
X194458703Y-114160000D01*
X198687500Y-114160000D02*
X199957500Y-115430000D01*
X199957500Y-115430000D02*
X201422500Y-115430000D01*
X201357500Y-115430000D02*
X202438703Y-115430000D01*
X192107500Y-115430000D02*
X193188703Y-115430000D01*
X190570000Y-115470000D02*
X192035000Y-115470000D01*
X207937500Y-114160000D02*
X209207500Y-115430000D01*
X194458703Y-114160000D02*
X198687500Y-114160000D01*
X183990000Y-114200000D02*
X189300000Y-114200000D01*
X209207500Y-115430000D02*
X210672500Y-115430000D01*
%TO.N,/SEG_C*%
X208085000Y-118035000D02*
X206475000Y-118035000D01*
X199975000Y-119225000D02*
X198735000Y-117985000D01*
X209325000Y-119275000D02*
X208085000Y-118035000D01*
X206440000Y-117985000D02*
X203815000Y-117985000D01*
X203815000Y-117985000D02*
X202575000Y-119225000D01*
X213165000Y-118035000D02*
X211925000Y-119275000D01*
X190650000Y-119250000D02*
X189410000Y-118010000D01*
X211925000Y-119275000D02*
X209325000Y-119275000D01*
X197115000Y-118010000D02*
X194490000Y-118010000D01*
X215790000Y-118035000D02*
X213165000Y-118035000D01*
X198735000Y-117985000D02*
X197125000Y-117985000D01*
X194490000Y-118010000D02*
X193250000Y-119250000D01*
X189410000Y-118010000D02*
X187800000Y-118010000D01*
X202575000Y-119225000D02*
X199975000Y-119225000D01*
X193250000Y-119250000D02*
X190650000Y-119250000D01*
%TO.N,/SEG_DP*%
X211675000Y-121825000D02*
X212925000Y-120575000D01*
X208025000Y-120575000D02*
X209275000Y-121825000D01*
X193000000Y-121800000D02*
X194250000Y-120550000D01*
X209275000Y-121825000D02*
X211675000Y-121825000D01*
X197125000Y-120525000D02*
X198675000Y-120525000D01*
X187800000Y-120550000D02*
X189350000Y-120550000D01*
X199925000Y-121775000D02*
X202325000Y-121775000D01*
X202325000Y-121775000D02*
X203575000Y-120525000D01*
X194250000Y-120550000D02*
X197115000Y-120550000D01*
X198675000Y-120525000D02*
X199925000Y-121775000D01*
X206475000Y-120575000D02*
X208025000Y-120575000D01*
X190600000Y-121800000D02*
X193000000Y-121800000D01*
X203575000Y-120525000D02*
X206440000Y-120525000D01*
X212925000Y-120575000D02*
X215790000Y-120575000D01*
X189350000Y-120550000D02*
X190600000Y-121800000D01*
%TO.N,/SEG_B*%
X211645000Y-116775000D02*
X212925000Y-115495000D01*
X198395000Y-115445000D02*
X199675000Y-116725000D01*
X190350000Y-116750000D02*
X192970000Y-116750000D01*
X203575000Y-115445000D02*
X206440000Y-115445000D01*
X194250000Y-115470000D02*
X197115000Y-115470000D01*
X197125000Y-115445000D02*
X198395000Y-115445000D01*
X192970000Y-116750000D02*
X194250000Y-115470000D01*
X199675000Y-116725000D02*
X202295000Y-116725000D01*
X209025000Y-116775000D02*
X211645000Y-116775000D01*
X202295000Y-116725000D02*
X203575000Y-115445000D01*
X207745000Y-115495000D02*
X209025000Y-116775000D01*
X212925000Y-115495000D02*
X215790000Y-115495000D01*
X187800000Y-115470000D02*
X189070000Y-115470000D01*
X189070000Y-115470000D02*
X190350000Y-116750000D01*
X206475000Y-115495000D02*
X207745000Y-115495000D01*
%TO.N,/SEG_E*%
X201357500Y-120510000D02*
X202438703Y-120510000D01*
X190550000Y-120550000D02*
X192035000Y-120550000D01*
X184020000Y-119250000D02*
X184050000Y-119250000D01*
X199937500Y-120510000D02*
X201422500Y-120510000D01*
X189250000Y-119250000D02*
X190550000Y-120550000D01*
X182720000Y-120550000D02*
X184020000Y-119250000D01*
X193188703Y-120510000D02*
X194488703Y-119210000D01*
X192107500Y-120510000D02*
X193188703Y-120510000D01*
X194488703Y-119210000D02*
X194500000Y-119210000D01*
X198637500Y-119210000D02*
X199937500Y-120510000D01*
X209187500Y-120510000D02*
X210672500Y-120510000D01*
X202438703Y-120510000D02*
X203738703Y-119210000D01*
X207887500Y-119210000D02*
X209187500Y-120510000D01*
X203738703Y-119210000D02*
X207887500Y-119210000D01*
%TO.N,+3.3V*%
X201650000Y-94175000D02*
X201650000Y-94730000D01*
X201050000Y-93575000D02*
X201650000Y-94175000D01*
X199350000Y-94170000D02*
X199945000Y-93575000D01*
%TO.N,/SEG_A*%
X189275000Y-105750000D02*
X191850000Y-103175000D01*
X189275000Y-105750000D02*
X189275000Y-112925000D01*
X189275000Y-112925000D02*
X189280000Y-112930000D01*
%TO.N,/SEG_D*%
X194900000Y-102925000D02*
X191450000Y-106375000D01*
X194900000Y-101312500D02*
X194900000Y-102925000D01*
%TD*%
%TA.AperFunction,Conductor*%
%TO.N,+3.3V*%
G36*
X186365677Y-105394685D02*
G01*
X186386319Y-105411319D01*
X186613681Y-105638681D01*
X186647166Y-105700004D01*
X186650000Y-105726362D01*
X186650000Y-106198638D01*
X186630315Y-106265677D01*
X186613681Y-106286319D01*
X186386319Y-106513681D01*
X186324996Y-106547166D01*
X186298638Y-106550000D01*
X183736347Y-106550000D01*
X183728456Y-106549543D01*
X183728447Y-106549707D01*
X183724866Y-106549500D01*
X183724865Y-106549500D01*
X183724863Y-106549500D01*
X183225862Y-106549500D01*
X183158823Y-106529815D01*
X183138181Y-106513181D01*
X182911319Y-106286319D01*
X182877834Y-106224996D01*
X182875000Y-106198638D01*
X182875000Y-105726362D01*
X182894685Y-105659323D01*
X182911319Y-105638681D01*
X183138681Y-105411319D01*
X183200004Y-105377834D01*
X183226362Y-105375000D01*
X186298638Y-105375000D01*
X186365677Y-105394685D01*
G37*
%TD.AperFunction*%
%TD*%
%TA.AperFunction,Conductor*%
%TO.N,GND*%
G36*
X186390677Y-100894685D02*
G01*
X186411319Y-100911319D01*
X186638681Y-101138681D01*
X186672166Y-101200004D01*
X186675000Y-101226362D01*
X186675000Y-101698638D01*
X186655315Y-101765677D01*
X186638681Y-101786319D01*
X186411319Y-102013681D01*
X186349996Y-102047166D01*
X186323638Y-102050000D01*
X183251362Y-102050000D01*
X183184323Y-102030315D01*
X183163681Y-102013681D01*
X182936319Y-101786319D01*
X182902834Y-101724996D01*
X182900000Y-101698638D01*
X182900000Y-101226362D01*
X182919685Y-101159323D01*
X182936319Y-101138681D01*
X183163681Y-100911319D01*
X183225004Y-100877834D01*
X183251362Y-100875000D01*
X186323638Y-100875000D01*
X186390677Y-100894685D01*
G37*
%TD.AperFunction*%
%TD*%
%TA.AperFunction,Conductor*%
%TO.N,+3.3V*%
G36*
X201715476Y-104044685D02*
G01*
X201736358Y-104061559D01*
X201961982Y-104288433D01*
X201995298Y-104349847D01*
X201998057Y-104376556D01*
X201992817Y-105324999D01*
X201992818Y-105325000D01*
X208111138Y-105325000D01*
X208178177Y-105344685D01*
X208198819Y-105361319D01*
X208388681Y-105551181D01*
X208422166Y-105612504D01*
X208425000Y-105638862D01*
X208425000Y-105850000D01*
X210448021Y-105850000D01*
X210515060Y-105869685D01*
X210536442Y-105887065D01*
X210758474Y-106112892D01*
X210791438Y-106174497D01*
X210794035Y-106201928D01*
X210780944Y-106974301D01*
X210760126Y-107040998D01*
X210743897Y-107060621D01*
X210511187Y-107289421D01*
X210449583Y-107322385D01*
X210424252Y-107325000D01*
X201981768Y-107325000D01*
X201980111Y-107624995D01*
X201976939Y-108198843D01*
X201956884Y-108265773D01*
X201940380Y-108286081D01*
X201711277Y-108513923D01*
X201649862Y-108547238D01*
X201623838Y-108550000D01*
X197701362Y-108550000D01*
X197634323Y-108530315D01*
X197613681Y-108513681D01*
X197386319Y-108286319D01*
X197352834Y-108224996D01*
X197350000Y-108198638D01*
X197350000Y-104376362D01*
X197369685Y-104309323D01*
X197386319Y-104288681D01*
X197613681Y-104061319D01*
X197675004Y-104027834D01*
X197701362Y-104025000D01*
X201648437Y-104025000D01*
X201715476Y-104044685D01*
G37*
%TD.AperFunction*%
%TD*%
%TA.AperFunction,Conductor*%
%TO.N,GND*%
G36*
X212173723Y-107627290D02*
G01*
X212240716Y-107647129D01*
X212261218Y-107663708D01*
X212488782Y-107891795D01*
X212522196Y-107953156D01*
X212525000Y-107979375D01*
X212525000Y-109123638D01*
X212505315Y-109190677D01*
X212488681Y-109211319D01*
X212261319Y-109438681D01*
X212199996Y-109472166D01*
X212173638Y-109475000D01*
X206076362Y-109475000D01*
X206009323Y-109455315D01*
X205988681Y-109438681D01*
X205761319Y-109211319D01*
X205727834Y-109149996D01*
X205725000Y-109123638D01*
X205725000Y-107963945D01*
X205744685Y-107896906D01*
X205761413Y-107876169D01*
X205971346Y-107666716D01*
X206032706Y-107633304D01*
X206058925Y-107630500D01*
X210424252Y-107630500D01*
X210455623Y-107628885D01*
X210480954Y-107626270D01*
X210486679Y-107625624D01*
X210486683Y-107625622D01*
X210492666Y-107624948D01*
X210492704Y-107625285D01*
X210510094Y-107623474D01*
X212173723Y-107627290D01*
G37*
%TD.AperFunction*%
%TD*%
%TA.AperFunction,Conductor*%
%TO.N,VBUS*%
G36*
X211290677Y-102769685D02*
G01*
X211311319Y-102786319D01*
X211488181Y-102963181D01*
X211521666Y-103024504D01*
X211524500Y-103050862D01*
X211524500Y-104595924D01*
X211551794Y-104697789D01*
X211558385Y-104709204D01*
X211575000Y-104771207D01*
X211575000Y-105475000D01*
X211811138Y-105475000D01*
X211878177Y-105494685D01*
X211898819Y-105511319D01*
X212113681Y-105726181D01*
X212147166Y-105787504D01*
X212150000Y-105813862D01*
X212150000Y-106075000D01*
X213383690Y-106075000D01*
X213445689Y-106091612D01*
X213500412Y-106123207D01*
X213602272Y-106150500D01*
X213699167Y-106150500D01*
X213766206Y-106170185D01*
X213786848Y-106186819D01*
X213827235Y-106227206D01*
X213930009Y-106272585D01*
X213955135Y-106275500D01*
X215424864Y-106275499D01*
X215424879Y-106275497D01*
X215424882Y-106275497D01*
X215449987Y-106272586D01*
X215449988Y-106272585D01*
X215449991Y-106272585D01*
X215552765Y-106227206D01*
X215602305Y-106177665D01*
X215610249Y-106173327D01*
X215615675Y-106166080D01*
X215640433Y-106156845D01*
X215663626Y-106144181D01*
X215672656Y-106144826D01*
X215681139Y-106141663D01*
X215706959Y-106147279D01*
X215733318Y-106149165D01*
X215742371Y-106154983D01*
X215749412Y-106156515D01*
X215777666Y-106177666D01*
X215924818Y-106324818D01*
X215958303Y-106386141D01*
X215953319Y-106455833D01*
X215924818Y-106500180D01*
X215837935Y-106587063D01*
X215776612Y-106620548D01*
X215706920Y-106615564D01*
X215700168Y-106612816D01*
X215619995Y-106577416D01*
X215619991Y-106577415D01*
X215594865Y-106574500D01*
X213955143Y-106574500D01*
X213955117Y-106574502D01*
X213930012Y-106577413D01*
X213930008Y-106577415D01*
X213827235Y-106622793D01*
X213827234Y-106622794D01*
X213739669Y-106710360D01*
X213737352Y-106708043D01*
X213697885Y-106740260D01*
X213649713Y-106750000D01*
X213175000Y-106750000D01*
X211575000Y-106750000D01*
X211426362Y-106750000D01*
X211396921Y-106741355D01*
X211366935Y-106734832D01*
X211361919Y-106731077D01*
X211359323Y-106730315D01*
X211338681Y-106713681D01*
X211211319Y-106586319D01*
X211177834Y-106524996D01*
X211175000Y-106498638D01*
X211175000Y-104875000D01*
X210875000Y-104875000D01*
X206076362Y-104875000D01*
X206009323Y-104855315D01*
X205988681Y-104838681D01*
X205761319Y-104611319D01*
X205727834Y-104549996D01*
X205725000Y-104523638D01*
X205725000Y-103101362D01*
X205744685Y-103034323D01*
X205761319Y-103013681D01*
X205988681Y-102786319D01*
X206050004Y-102752834D01*
X206076362Y-102750000D01*
X211223638Y-102750000D01*
X211290677Y-102769685D01*
G37*
%TD.AperFunction*%
%TD*%
%TA.AperFunction,Conductor*%
%TO.N,+3.3V*%
G36*
X190340677Y-91994685D02*
G01*
X190361319Y-92011319D01*
X190413181Y-92063181D01*
X190446666Y-92124504D01*
X190449500Y-92150862D01*
X190449500Y-92289364D01*
X190449500Y-93685636D01*
X190460134Y-93758625D01*
X190460134Y-93758626D01*
X190460135Y-93758628D01*
X190515172Y-93871209D01*
X190515173Y-93871210D01*
X190515174Y-93871211D01*
X190588682Y-93944719D01*
X190603388Y-93971650D01*
X190619977Y-93997464D01*
X190620868Y-94003663D01*
X190622166Y-94006040D01*
X190625000Y-94032399D01*
X190625000Y-94273638D01*
X190605315Y-94340677D01*
X190588681Y-94361319D01*
X190536819Y-94413181D01*
X190475496Y-94446666D01*
X190449138Y-94449500D01*
X189685636Y-94449500D01*
X188289364Y-94449500D01*
X188216375Y-94460134D01*
X188216373Y-94460134D01*
X188216371Y-94460135D01*
X188103790Y-94515172D01*
X188079452Y-94539511D01*
X188030280Y-94588682D01*
X188003349Y-94603388D01*
X187977536Y-94619977D01*
X187971336Y-94620868D01*
X187968960Y-94622166D01*
X187942601Y-94625000D01*
X187801021Y-94625000D01*
X187733982Y-94605315D01*
X187713754Y-94589094D01*
X187569976Y-94446666D01*
X187483414Y-94360917D01*
X187449641Y-94299753D01*
X187446688Y-94274000D01*
X187428317Y-92326688D01*
X187447368Y-92259469D01*
X187464212Y-92238259D01*
X187688612Y-92011733D01*
X187749777Y-91977959D01*
X187776706Y-91975000D01*
X190273638Y-91975000D01*
X190340677Y-91994685D01*
G37*
%TD.AperFunction*%
%TD*%
M02*
