M48
; DRILL file {KiCad 9.0.4+dfsg-1} date 2025-09-25T11:08:23-0700
; FORMAT={-:-/ absolute / inch / decimal}
; #@! TF.CreationDate,2025-09-25T11:08:23-07:00
; #@! TF.GenerationSoftware,Kicad,Pcbnew,9.0.4+dfsg-1
; #@! TF.FileFunction,Plated,1,4,PTH
FMAT,2
INCH
; #@! TA.AperFunction,Plated,PTH,ViaDrill
T1C0.0118
; #@! TA.AperFunction,Plated,PTH,ComponentDrill
T2C0.0315
; #@! TA.AperFunction,Plated,PTH,ComponentDrill
T3C0.0394
%
G90
G05
T1
X7.1348Y-4.3533
X7.1969Y-3.6447
X7.2028Y-3.874
X7.2431Y-3.4193
X7.2441Y-4.5965
X7.2677Y-3.622
X7.2795Y-3.6624
X7.2829Y-4.9564
X7.2913Y-4.2894
X7.2943Y-3.8632
X7.31Y-3.4616
X7.3248Y-4.1722
X7.3327Y-3.997
X7.3465Y-3.7707
X7.3593Y-3.5659
X7.3799Y-3.8593
X7.3829Y-3.4183
X7.3957Y-3.6496
X7.4193Y-3.9665
X7.4336Y-3.5259
X7.4528Y-3.6506
X7.4567Y-4.6467
X7.4783Y-3.4173
X7.4882Y-3.8425
X7.4921Y-4.3396
X7.4961Y-3.5561
X7.5118Y-4.0561
X7.5138Y-3.749
X7.5276Y-3.5906
X7.5335Y-3.8425
X7.5364Y-3.8002
X7.5374Y-4.188
X7.5497Y-3.7702
X7.5531Y-4.062
X7.5935Y-3.7638
X7.6506Y-4.9567
X7.6575Y-4.6933
X7.6969Y-3.7697
X7.6993Y-3.9158
X7.7106Y-3.7146
X7.7175Y-4.1526
X7.7648Y-3.998
X7.8169Y-4.1368
X7.8169Y-4.1791
X7.8169Y-4.2293
X7.8209Y-4.7451
X7.8228Y-3.6211
X7.8386Y-3.9154
X7.8878Y-3.8878
X7.8937Y-3.7372
X7.9902Y-3.7067
X8.0138Y-3.6516
X8.0175Y-4.9551
X8.1742Y-3.5778
X8.1959Y-3.7352
X8.2333Y-3.9557
X8.253Y-3.6722
X8.311Y-3.5915
X8.312Y-3.8435
X8.3366Y-4.2569
X8.3366Y-4.2904
X8.3852Y-4.9554
X8.3898Y-4.0689
X8.4691Y-3.7067
X8.4697Y-3.5994
X8.4701Y-3.815
T2
X7.1937Y-4.4461
X7.1937Y-4.5461
X7.1937Y-4.6461
X7.1937Y-4.7461
X7.1937Y-4.8461
X7.3937Y-4.4461
X7.3937Y-4.5461
X7.3937Y-4.6461
X7.3937Y-4.7461
X7.3937Y-4.8461
X7.5604Y-4.4461
X7.5604Y-4.5461
X7.5604Y-4.6461
X7.5604Y-4.7461
X7.5604Y-4.8461
X7.7604Y-4.4461
X7.7604Y-4.5461
X7.7604Y-4.6461
X7.7604Y-4.7461
X7.7604Y-4.8461
X7.9272Y-4.4461
X7.9272Y-4.5461
X7.9272Y-4.6461
X7.9272Y-4.7461
X7.9272Y-4.8461
X8.1272Y-4.4461
X8.1272Y-4.5461
X8.1272Y-4.6461
X8.1272Y-4.7461
X8.1272Y-4.8461
X8.2939Y-4.4461
X8.2939Y-4.5461
X8.2939Y-4.6461
X8.2939Y-4.7461
X8.2939Y-4.8461
X8.4939Y-4.4461
X8.4939Y-4.5461
X8.4939Y-4.6461
X8.4939Y-4.7461
X8.4939Y-4.8461
T3
X7.6232Y-3.4547
X7.7232Y-3.4547
X7.8232Y-3.4547
X7.9232Y-3.4547
X8.1591Y-3.4547
X8.2591Y-3.4547
X8.3591Y-3.4547
X8.4591Y-3.4547
M30
