%TF.GenerationSoftware,KiCad,Pcbnew,9.0.4+dfsg-1*%
%TF.CreationDate,2025-09-25T11:08:23-07:00*%
%TF.ProjectId,7SDD,37534444-2e6b-4696-9361-645f70636258,1*%
%TF.SameCoordinates,Original*%
%TF.FileFunction,Legend,Top*%
%TF.FilePolarity,Positive*%
%FSLAX46Y46*%
G04 Gerber Fmt 4.6, Leading zero omitted, Abs format (unit mm)*
G04 Created by KiCad (PCBNEW 9.0.4+dfsg-1) date 2025-09-25 11:08:23*
%MOMM*%
%LPD*%
G01*
G04 APERTURE LIST*
G04 Aperture macros list*
%AMRoundRect*
0 Rectangle with rounded corners*
0 $1 Rounding radius*
0 $2 $3 $4 $5 $6 $7 $8 $9 X,Y pos of 4 corners*
0 Add a 4 corners polygon primitive as box body*
4,1,4,$2,$3,$4,$5,$6,$7,$8,$9,$2,$3,0*
0 Add four circle primitives for the rounded corners*
1,1,$1+$1,$2,$3*
1,1,$1+$1,$4,$5*
1,1,$1+$1,$6,$7*
1,1,$1+$1,$8,$9*
0 Add four rect primitives between the rounded corners*
20,1,$1+$1,$2,$3,$4,$5,0*
20,1,$1+$1,$4,$5,$6,$7,0*
20,1,$1+$1,$6,$7,$8,$9,0*
20,1,$1+$1,$8,$9,$2,$3,0*%
G04 Aperture macros list end*
%ADD10C,0.200000*%
%ADD11C,0.160000*%
%ADD12C,0.062500*%
%ADD13C,0.150000*%
%ADD14C,0.000000*%
%ADD15C,0.120000*%
%ADD16RoundRect,0.140000X0.140000X0.170000X-0.140000X0.170000X-0.140000X-0.170000X0.140000X-0.170000X0*%
%ADD17RoundRect,0.140000X-0.140000X-0.170000X0.140000X-0.170000X0.140000X0.170000X-0.140000X0.170000X0*%
%ADD18RoundRect,0.218750X0.218750X0.256250X-0.218750X0.256250X-0.218750X-0.256250X0.218750X-0.256250X0*%
%ADD19RoundRect,0.135000X-0.135000X-0.185000X0.135000X-0.185000X0.135000X0.185000X-0.135000X0.185000X0*%
%ADD20RoundRect,0.250000X0.475000X-0.250000X0.475000X0.250000X-0.475000X0.250000X-0.475000X-0.250000X0*%
%ADD21RoundRect,0.250000X-0.475000X0.250000X-0.475000X-0.250000X0.475000X-0.250000X0.475000X0.250000X0*%
%ADD22RoundRect,0.375000X0.625000X0.375000X-0.625000X0.375000X-0.625000X-0.375000X0.625000X-0.375000X0*%
%ADD23RoundRect,0.500000X0.500000X1.400000X-0.500000X1.400000X-0.500000X-1.400000X0.500000X-1.400000X0*%
%ADD24RoundRect,0.135000X0.135000X0.185000X-0.135000X0.185000X-0.135000X-0.185000X0.135000X-0.185000X0*%
%ADD25RoundRect,0.250000X-0.350000X0.450000X-0.350000X-0.450000X0.350000X-0.450000X0.350000X0.450000X0*%
%ADD26RoundRect,0.218750X-0.256250X0.218750X-0.256250X-0.218750X0.256250X-0.218750X0.256250X0.218750X0*%
%ADD27R,1.500000X0.700000*%
%ADD28R,0.800000X1.000000*%
%ADD29C,0.900000*%
%ADD30RoundRect,0.225000X-0.225000X-0.250000X0.225000X-0.250000X0.225000X0.250000X-0.225000X0.250000X0*%
%ADD31R,1.380000X0.450000*%
%ADD32R,1.300000X1.650000*%
%ADD33R,1.550000X1.425000*%
%ADD34R,1.900000X1.800000*%
%ADD35R,1.900000X1.000000*%
%ADD36R,1.600000X1.600000*%
%ADD37C,1.600000*%
%ADD38RoundRect,0.075000X-0.662500X-0.075000X0.662500X-0.075000X0.662500X0.075000X-0.662500X0.075000X0*%
%ADD39RoundRect,0.075000X-0.075000X-0.662500X0.075000X-0.662500X0.075000X0.662500X-0.075000X0.662500X0*%
%ADD40RoundRect,0.140000X-0.170000X0.140000X-0.170000X-0.140000X0.170000X-0.140000X0.170000X0.140000X0*%
%ADD41RoundRect,0.135000X-0.185000X0.135000X-0.185000X-0.135000X0.185000X-0.135000X0.185000X0.135000X0*%
%ADD42R,1.700000X1.700000*%
%ADD43C,1.700000*%
G04 APERTURE END LIST*
D10*
X181558149Y-109026611D02*
X181736721Y-109086135D01*
X181736721Y-109086135D02*
X181796244Y-109145659D01*
X181796244Y-109145659D02*
X181855768Y-109264707D01*
X181855768Y-109264707D02*
X181855768Y-109443278D01*
X181855768Y-109443278D02*
X181796244Y-109562326D01*
X181796244Y-109562326D02*
X181736721Y-109621850D01*
X181736721Y-109621850D02*
X181617673Y-109681373D01*
X181617673Y-109681373D02*
X181141483Y-109681373D01*
X181141483Y-109681373D02*
X181141483Y-108431373D01*
X181141483Y-108431373D02*
X181558149Y-108431373D01*
X181558149Y-108431373D02*
X181677197Y-108490897D01*
X181677197Y-108490897D02*
X181736721Y-108550421D01*
X181736721Y-108550421D02*
X181796244Y-108669469D01*
X181796244Y-108669469D02*
X181796244Y-108788516D01*
X181796244Y-108788516D02*
X181736721Y-108907564D01*
X181736721Y-108907564D02*
X181677197Y-108967088D01*
X181677197Y-108967088D02*
X181558149Y-109026611D01*
X181558149Y-109026611D02*
X181141483Y-109026611D01*
X182629578Y-108431373D02*
X182867673Y-108431373D01*
X182867673Y-108431373D02*
X182986721Y-108490897D01*
X182986721Y-108490897D02*
X183105768Y-108609945D01*
X183105768Y-108609945D02*
X183165292Y-108848040D01*
X183165292Y-108848040D02*
X183165292Y-109264707D01*
X183165292Y-109264707D02*
X183105768Y-109502802D01*
X183105768Y-109502802D02*
X182986721Y-109621850D01*
X182986721Y-109621850D02*
X182867673Y-109681373D01*
X182867673Y-109681373D02*
X182629578Y-109681373D01*
X182629578Y-109681373D02*
X182510530Y-109621850D01*
X182510530Y-109621850D02*
X182391483Y-109502802D01*
X182391483Y-109502802D02*
X182331959Y-109264707D01*
X182331959Y-109264707D02*
X182331959Y-108848040D01*
X182331959Y-108848040D02*
X182391483Y-108609945D01*
X182391483Y-108609945D02*
X182510530Y-108490897D01*
X182510530Y-108490897D02*
X182629578Y-108431373D01*
X183939102Y-108431373D02*
X184177197Y-108431373D01*
X184177197Y-108431373D02*
X184296245Y-108490897D01*
X184296245Y-108490897D02*
X184415292Y-108609945D01*
X184415292Y-108609945D02*
X184474816Y-108848040D01*
X184474816Y-108848040D02*
X184474816Y-109264707D01*
X184474816Y-109264707D02*
X184415292Y-109502802D01*
X184415292Y-109502802D02*
X184296245Y-109621850D01*
X184296245Y-109621850D02*
X184177197Y-109681373D01*
X184177197Y-109681373D02*
X183939102Y-109681373D01*
X183939102Y-109681373D02*
X183820054Y-109621850D01*
X183820054Y-109621850D02*
X183701007Y-109502802D01*
X183701007Y-109502802D02*
X183641483Y-109264707D01*
X183641483Y-109264707D02*
X183641483Y-108848040D01*
X183641483Y-108848040D02*
X183701007Y-108609945D01*
X183701007Y-108609945D02*
X183820054Y-108490897D01*
X183820054Y-108490897D02*
X183939102Y-108431373D01*
X184831959Y-108431373D02*
X185546245Y-108431373D01*
X185189102Y-109681373D02*
X185189102Y-108431373D01*
D11*
X180398000Y-109585000D02*
X180071000Y-109250000D01*
X180398000Y-109585000D02*
X180725000Y-109250000D01*
X180398000Y-108569000D02*
X180398000Y-109585000D01*
D12*
X190836356Y-107001806D02*
X190907784Y-107025615D01*
X190907784Y-107025615D02*
X191026832Y-107025615D01*
X191026832Y-107025615D02*
X191074451Y-107001806D01*
X191074451Y-107001806D02*
X191098260Y-106977996D01*
X191098260Y-106977996D02*
X191122070Y-106930377D01*
X191122070Y-106930377D02*
X191122070Y-106882758D01*
X191122070Y-106882758D02*
X191098260Y-106835139D01*
X191098260Y-106835139D02*
X191074451Y-106811329D01*
X191074451Y-106811329D02*
X191026832Y-106787520D01*
X191026832Y-106787520D02*
X190931594Y-106763710D01*
X190931594Y-106763710D02*
X190883975Y-106739901D01*
X190883975Y-106739901D02*
X190860165Y-106716091D01*
X190860165Y-106716091D02*
X190836356Y-106668472D01*
X190836356Y-106668472D02*
X190836356Y-106620853D01*
X190836356Y-106620853D02*
X190860165Y-106573234D01*
X190860165Y-106573234D02*
X190883975Y-106549425D01*
X190883975Y-106549425D02*
X190931594Y-106525615D01*
X190931594Y-106525615D02*
X191050641Y-106525615D01*
X191050641Y-106525615D02*
X191122070Y-106549425D01*
X191336355Y-107025615D02*
X191336355Y-106525615D01*
X191336355Y-106525615D02*
X191503022Y-106882758D01*
X191503022Y-106882758D02*
X191669688Y-106525615D01*
X191669688Y-106525615D02*
X191669688Y-107025615D01*
X192241117Y-106525615D02*
X192574450Y-106525615D01*
X192574450Y-106525615D02*
X192360165Y-107025615D01*
X192741117Y-107001806D02*
X192812545Y-107025615D01*
X192812545Y-107025615D02*
X192931593Y-107025615D01*
X192931593Y-107025615D02*
X192979212Y-107001806D01*
X192979212Y-107001806D02*
X193003021Y-106977996D01*
X193003021Y-106977996D02*
X193026831Y-106930377D01*
X193026831Y-106930377D02*
X193026831Y-106882758D01*
X193026831Y-106882758D02*
X193003021Y-106835139D01*
X193003021Y-106835139D02*
X192979212Y-106811329D01*
X192979212Y-106811329D02*
X192931593Y-106787520D01*
X192931593Y-106787520D02*
X192836355Y-106763710D01*
X192836355Y-106763710D02*
X192788736Y-106739901D01*
X192788736Y-106739901D02*
X192764926Y-106716091D01*
X192764926Y-106716091D02*
X192741117Y-106668472D01*
X192741117Y-106668472D02*
X192741117Y-106620853D01*
X192741117Y-106620853D02*
X192764926Y-106573234D01*
X192764926Y-106573234D02*
X192788736Y-106549425D01*
X192788736Y-106549425D02*
X192836355Y-106525615D01*
X192836355Y-106525615D02*
X192955402Y-106525615D01*
X192955402Y-106525615D02*
X193026831Y-106549425D01*
X193241116Y-107025615D02*
X193241116Y-106525615D01*
X193241116Y-106525615D02*
X193360164Y-106525615D01*
X193360164Y-106525615D02*
X193431592Y-106549425D01*
X193431592Y-106549425D02*
X193479211Y-106597044D01*
X193479211Y-106597044D02*
X193503021Y-106644663D01*
X193503021Y-106644663D02*
X193526830Y-106739901D01*
X193526830Y-106739901D02*
X193526830Y-106811329D01*
X193526830Y-106811329D02*
X193503021Y-106906567D01*
X193503021Y-106906567D02*
X193479211Y-106954186D01*
X193479211Y-106954186D02*
X193431592Y-107001806D01*
X193431592Y-107001806D02*
X193360164Y-107025615D01*
X193360164Y-107025615D02*
X193241116Y-107025615D01*
X193741116Y-107025615D02*
X193741116Y-106525615D01*
X193741116Y-106525615D02*
X193860164Y-106525615D01*
X193860164Y-106525615D02*
X193931592Y-106549425D01*
X193931592Y-106549425D02*
X193979211Y-106597044D01*
X193979211Y-106597044D02*
X194003021Y-106644663D01*
X194003021Y-106644663D02*
X194026830Y-106739901D01*
X194026830Y-106739901D02*
X194026830Y-106811329D01*
X194026830Y-106811329D02*
X194003021Y-106906567D01*
X194003021Y-106906567D02*
X193979211Y-106954186D01*
X193979211Y-106954186D02*
X193931592Y-107001806D01*
X193931592Y-107001806D02*
X193860164Y-107025615D01*
X193860164Y-107025615D02*
X193741116Y-107025615D01*
X194836354Y-107025615D02*
X194836354Y-106525615D01*
X194836354Y-107001806D02*
X194788735Y-107025615D01*
X194788735Y-107025615D02*
X194693497Y-107025615D01*
X194693497Y-107025615D02*
X194645878Y-107001806D01*
X194645878Y-107001806D02*
X194622068Y-106977996D01*
X194622068Y-106977996D02*
X194598259Y-106930377D01*
X194598259Y-106930377D02*
X194598259Y-106787520D01*
X194598259Y-106787520D02*
X194622068Y-106739901D01*
X194622068Y-106739901D02*
X194645878Y-106716091D01*
X194645878Y-106716091D02*
X194693497Y-106692282D01*
X194693497Y-106692282D02*
X194788735Y-106692282D01*
X194788735Y-106692282D02*
X194836354Y-106716091D01*
X195264925Y-107001806D02*
X195217306Y-107025615D01*
X195217306Y-107025615D02*
X195122068Y-107025615D01*
X195122068Y-107025615D02*
X195074449Y-107001806D01*
X195074449Y-107001806D02*
X195050640Y-106954186D01*
X195050640Y-106954186D02*
X195050640Y-106763710D01*
X195050640Y-106763710D02*
X195074449Y-106716091D01*
X195074449Y-106716091D02*
X195122068Y-106692282D01*
X195122068Y-106692282D02*
X195217306Y-106692282D01*
X195217306Y-106692282D02*
X195264925Y-106716091D01*
X195264925Y-106716091D02*
X195288735Y-106763710D01*
X195288735Y-106763710D02*
X195288735Y-106811329D01*
X195288735Y-106811329D02*
X195050640Y-106858948D01*
X195455401Y-106692282D02*
X195574449Y-107025615D01*
X195574449Y-107025615D02*
X195693496Y-106692282D01*
X196264924Y-107025615D02*
X196264924Y-106525615D01*
X196264924Y-106716091D02*
X196312543Y-106692282D01*
X196312543Y-106692282D02*
X196407781Y-106692282D01*
X196407781Y-106692282D02*
X196455400Y-106716091D01*
X196455400Y-106716091D02*
X196479210Y-106739901D01*
X196479210Y-106739901D02*
X196503019Y-106787520D01*
X196503019Y-106787520D02*
X196503019Y-106930377D01*
X196503019Y-106930377D02*
X196479210Y-106977996D01*
X196479210Y-106977996D02*
X196455400Y-107001806D01*
X196455400Y-107001806D02*
X196407781Y-107025615D01*
X196407781Y-107025615D02*
X196312543Y-107025615D01*
X196312543Y-107025615D02*
X196264924Y-107001806D01*
X196788734Y-107025615D02*
X196741115Y-107001806D01*
X196741115Y-107001806D02*
X196717305Y-106977996D01*
X196717305Y-106977996D02*
X196693496Y-106930377D01*
X196693496Y-106930377D02*
X196693496Y-106787520D01*
X196693496Y-106787520D02*
X196717305Y-106739901D01*
X196717305Y-106739901D02*
X196741115Y-106716091D01*
X196741115Y-106716091D02*
X196788734Y-106692282D01*
X196788734Y-106692282D02*
X196860162Y-106692282D01*
X196860162Y-106692282D02*
X196907781Y-106716091D01*
X196907781Y-106716091D02*
X196931591Y-106739901D01*
X196931591Y-106739901D02*
X196955400Y-106787520D01*
X196955400Y-106787520D02*
X196955400Y-106930377D01*
X196955400Y-106930377D02*
X196931591Y-106977996D01*
X196931591Y-106977996D02*
X196907781Y-107001806D01*
X196907781Y-107001806D02*
X196860162Y-107025615D01*
X196860162Y-107025615D02*
X196788734Y-107025615D01*
X197383972Y-107025615D02*
X197383972Y-106763710D01*
X197383972Y-106763710D02*
X197360162Y-106716091D01*
X197360162Y-106716091D02*
X197312543Y-106692282D01*
X197312543Y-106692282D02*
X197217305Y-106692282D01*
X197217305Y-106692282D02*
X197169686Y-106716091D01*
X197383972Y-107001806D02*
X197336353Y-107025615D01*
X197336353Y-107025615D02*
X197217305Y-107025615D01*
X197217305Y-107025615D02*
X197169686Y-107001806D01*
X197169686Y-107001806D02*
X197145877Y-106954186D01*
X197145877Y-106954186D02*
X197145877Y-106906567D01*
X197145877Y-106906567D02*
X197169686Y-106858948D01*
X197169686Y-106858948D02*
X197217305Y-106835139D01*
X197217305Y-106835139D02*
X197336353Y-106835139D01*
X197336353Y-106835139D02*
X197383972Y-106811329D01*
X197622067Y-107025615D02*
X197622067Y-106692282D01*
X197622067Y-106787520D02*
X197645877Y-106739901D01*
X197645877Y-106739901D02*
X197669686Y-106716091D01*
X197669686Y-106716091D02*
X197717305Y-106692282D01*
X197717305Y-106692282D02*
X197764924Y-106692282D01*
X198145877Y-107025615D02*
X198145877Y-106525615D01*
X198145877Y-107001806D02*
X198098258Y-107025615D01*
X198098258Y-107025615D02*
X198003020Y-107025615D01*
X198003020Y-107025615D02*
X197955401Y-107001806D01*
X197955401Y-107001806D02*
X197931591Y-106977996D01*
X197931591Y-106977996D02*
X197907782Y-106930377D01*
X197907782Y-106930377D02*
X197907782Y-106787520D01*
X197907782Y-106787520D02*
X197931591Y-106739901D01*
X197931591Y-106739901D02*
X197955401Y-106716091D01*
X197955401Y-106716091D02*
X198003020Y-106692282D01*
X198003020Y-106692282D02*
X198098258Y-106692282D01*
X198098258Y-106692282D02*
X198145877Y-106716091D01*
X190812546Y-107497254D02*
X190931594Y-107830587D01*
X190931594Y-107830587D02*
X191050641Y-107497254D01*
X191503022Y-107830587D02*
X191217308Y-107830587D01*
X191360165Y-107830587D02*
X191360165Y-107330587D01*
X191360165Y-107330587D02*
X191312546Y-107402016D01*
X191312546Y-107402016D02*
X191264927Y-107449635D01*
X191264927Y-107449635D02*
X191217308Y-107473444D01*
X192098259Y-107830587D02*
X192098259Y-107497254D01*
X192098259Y-107592492D02*
X192122069Y-107544873D01*
X192122069Y-107544873D02*
X192145878Y-107521063D01*
X192145878Y-107521063D02*
X192193497Y-107497254D01*
X192193497Y-107497254D02*
X192241116Y-107497254D01*
X192598259Y-107806778D02*
X192550640Y-107830587D01*
X192550640Y-107830587D02*
X192455402Y-107830587D01*
X192455402Y-107830587D02*
X192407783Y-107806778D01*
X192407783Y-107806778D02*
X192383974Y-107759158D01*
X192383974Y-107759158D02*
X192383974Y-107568682D01*
X192383974Y-107568682D02*
X192407783Y-107521063D01*
X192407783Y-107521063D02*
X192455402Y-107497254D01*
X192455402Y-107497254D02*
X192550640Y-107497254D01*
X192550640Y-107497254D02*
X192598259Y-107521063D01*
X192598259Y-107521063D02*
X192622069Y-107568682D01*
X192622069Y-107568682D02*
X192622069Y-107616301D01*
X192622069Y-107616301D02*
X192383974Y-107663920D01*
X192788735Y-107497254D02*
X192907783Y-107830587D01*
X192907783Y-107830587D02*
X193026830Y-107497254D01*
X193479211Y-107830587D02*
X193193497Y-107830587D01*
X193336354Y-107830587D02*
X193336354Y-107330587D01*
X193336354Y-107330587D02*
X193288735Y-107402016D01*
X193288735Y-107402016D02*
X193241116Y-107449635D01*
X193241116Y-107449635D02*
X193193497Y-107473444D01*
X194169686Y-107330587D02*
X194217305Y-107330587D01*
X194217305Y-107330587D02*
X194264924Y-107354397D01*
X194264924Y-107354397D02*
X194288734Y-107378206D01*
X194288734Y-107378206D02*
X194312543Y-107425825D01*
X194312543Y-107425825D02*
X194336353Y-107521063D01*
X194336353Y-107521063D02*
X194336353Y-107640111D01*
X194336353Y-107640111D02*
X194312543Y-107735349D01*
X194312543Y-107735349D02*
X194288734Y-107782968D01*
X194288734Y-107782968D02*
X194264924Y-107806778D01*
X194264924Y-107806778D02*
X194217305Y-107830587D01*
X194217305Y-107830587D02*
X194169686Y-107830587D01*
X194169686Y-107830587D02*
X194122067Y-107806778D01*
X194122067Y-107806778D02*
X194098258Y-107782968D01*
X194098258Y-107782968D02*
X194074448Y-107735349D01*
X194074448Y-107735349D02*
X194050639Y-107640111D01*
X194050639Y-107640111D02*
X194050639Y-107521063D01*
X194050639Y-107521063D02*
X194074448Y-107425825D01*
X194074448Y-107425825D02*
X194098258Y-107378206D01*
X194098258Y-107378206D02*
X194122067Y-107354397D01*
X194122067Y-107354397D02*
X194169686Y-107330587D01*
X194574448Y-107830587D02*
X194669686Y-107830587D01*
X194669686Y-107830587D02*
X194717305Y-107806778D01*
X194717305Y-107806778D02*
X194741114Y-107782968D01*
X194741114Y-107782968D02*
X194788733Y-107711539D01*
X194788733Y-107711539D02*
X194812543Y-107616301D01*
X194812543Y-107616301D02*
X194812543Y-107425825D01*
X194812543Y-107425825D02*
X194788733Y-107378206D01*
X194788733Y-107378206D02*
X194764924Y-107354397D01*
X194764924Y-107354397D02*
X194717305Y-107330587D01*
X194717305Y-107330587D02*
X194622067Y-107330587D01*
X194622067Y-107330587D02*
X194574448Y-107354397D01*
X194574448Y-107354397D02*
X194550638Y-107378206D01*
X194550638Y-107378206D02*
X194526829Y-107425825D01*
X194526829Y-107425825D02*
X194526829Y-107544873D01*
X194526829Y-107544873D02*
X194550638Y-107592492D01*
X194550638Y-107592492D02*
X194574448Y-107616301D01*
X194574448Y-107616301D02*
X194622067Y-107640111D01*
X194622067Y-107640111D02*
X194717305Y-107640111D01*
X194717305Y-107640111D02*
X194764924Y-107616301D01*
X194764924Y-107616301D02*
X194788733Y-107592492D01*
X194788733Y-107592492D02*
X194812543Y-107544873D01*
X195383971Y-107306778D02*
X194955400Y-107949635D01*
X195526829Y-107378206D02*
X195550638Y-107354397D01*
X195550638Y-107354397D02*
X195598257Y-107330587D01*
X195598257Y-107330587D02*
X195717305Y-107330587D01*
X195717305Y-107330587D02*
X195764924Y-107354397D01*
X195764924Y-107354397D02*
X195788733Y-107378206D01*
X195788733Y-107378206D02*
X195812543Y-107425825D01*
X195812543Y-107425825D02*
X195812543Y-107473444D01*
X195812543Y-107473444D02*
X195788733Y-107544873D01*
X195788733Y-107544873D02*
X195503019Y-107830587D01*
X195503019Y-107830587D02*
X195812543Y-107830587D01*
X196122066Y-107330587D02*
X196169685Y-107330587D01*
X196169685Y-107330587D02*
X196217304Y-107354397D01*
X196217304Y-107354397D02*
X196241114Y-107378206D01*
X196241114Y-107378206D02*
X196264923Y-107425825D01*
X196264923Y-107425825D02*
X196288733Y-107521063D01*
X196288733Y-107521063D02*
X196288733Y-107640111D01*
X196288733Y-107640111D02*
X196264923Y-107735349D01*
X196264923Y-107735349D02*
X196241114Y-107782968D01*
X196241114Y-107782968D02*
X196217304Y-107806778D01*
X196217304Y-107806778D02*
X196169685Y-107830587D01*
X196169685Y-107830587D02*
X196122066Y-107830587D01*
X196122066Y-107830587D02*
X196074447Y-107806778D01*
X196074447Y-107806778D02*
X196050638Y-107782968D01*
X196050638Y-107782968D02*
X196026828Y-107735349D01*
X196026828Y-107735349D02*
X196003019Y-107640111D01*
X196003019Y-107640111D02*
X196003019Y-107521063D01*
X196003019Y-107521063D02*
X196026828Y-107425825D01*
X196026828Y-107425825D02*
X196050638Y-107378206D01*
X196050638Y-107378206D02*
X196074447Y-107354397D01*
X196074447Y-107354397D02*
X196122066Y-107330587D01*
X196479209Y-107378206D02*
X196503018Y-107354397D01*
X196503018Y-107354397D02*
X196550637Y-107330587D01*
X196550637Y-107330587D02*
X196669685Y-107330587D01*
X196669685Y-107330587D02*
X196717304Y-107354397D01*
X196717304Y-107354397D02*
X196741113Y-107378206D01*
X196741113Y-107378206D02*
X196764923Y-107425825D01*
X196764923Y-107425825D02*
X196764923Y-107473444D01*
X196764923Y-107473444D02*
X196741113Y-107544873D01*
X196741113Y-107544873D02*
X196455399Y-107830587D01*
X196455399Y-107830587D02*
X196764923Y-107830587D01*
X197217303Y-107330587D02*
X196979208Y-107330587D01*
X196979208Y-107330587D02*
X196955399Y-107568682D01*
X196955399Y-107568682D02*
X196979208Y-107544873D01*
X196979208Y-107544873D02*
X197026827Y-107521063D01*
X197026827Y-107521063D02*
X197145875Y-107521063D01*
X197145875Y-107521063D02*
X197193494Y-107544873D01*
X197193494Y-107544873D02*
X197217303Y-107568682D01*
X197217303Y-107568682D02*
X197241113Y-107616301D01*
X197241113Y-107616301D02*
X197241113Y-107735349D01*
X197241113Y-107735349D02*
X197217303Y-107782968D01*
X197217303Y-107782968D02*
X197193494Y-107806778D01*
X197193494Y-107806778D02*
X197145875Y-107830587D01*
X197145875Y-107830587D02*
X197026827Y-107830587D01*
X197026827Y-107830587D02*
X196979208Y-107806778D01*
X196979208Y-107806778D02*
X196955399Y-107782968D01*
X190836356Y-108492702D02*
X191074451Y-108492702D01*
X190788737Y-108635559D02*
X190955403Y-108135559D01*
X190955403Y-108135559D02*
X191122070Y-108635559D01*
X191288736Y-108635559D02*
X191288736Y-108135559D01*
X191336355Y-108445083D02*
X191479212Y-108635559D01*
X191479212Y-108302226D02*
X191288736Y-108492702D01*
X191693498Y-108635559D02*
X191693498Y-108302226D01*
X191693498Y-108135559D02*
X191669689Y-108159369D01*
X191669689Y-108159369D02*
X191693498Y-108183178D01*
X191693498Y-108183178D02*
X191717308Y-108159369D01*
X191717308Y-108159369D02*
X191693498Y-108135559D01*
X191693498Y-108135559D02*
X191693498Y-108183178D01*
X192122069Y-108611750D02*
X192074450Y-108635559D01*
X192074450Y-108635559D02*
X191979212Y-108635559D01*
X191979212Y-108635559D02*
X191931593Y-108611750D01*
X191931593Y-108611750D02*
X191907784Y-108564130D01*
X191907784Y-108564130D02*
X191907784Y-108373654D01*
X191907784Y-108373654D02*
X191931593Y-108326035D01*
X191931593Y-108326035D02*
X191979212Y-108302226D01*
X191979212Y-108302226D02*
X192074450Y-108302226D01*
X192074450Y-108302226D02*
X192122069Y-108326035D01*
X192122069Y-108326035D02*
X192145879Y-108373654D01*
X192145879Y-108373654D02*
X192145879Y-108421273D01*
X192145879Y-108421273D02*
X191907784Y-108468892D01*
X192431593Y-108635559D02*
X192383974Y-108611750D01*
X192383974Y-108611750D02*
X192360164Y-108564130D01*
X192360164Y-108564130D02*
X192360164Y-108135559D01*
X192979212Y-108492702D02*
X193217307Y-108492702D01*
X192931593Y-108635559D02*
X193098259Y-108135559D01*
X193098259Y-108135559D02*
X193264926Y-108635559D01*
X193431592Y-108635559D02*
X193431592Y-108302226D01*
X193431592Y-108397464D02*
X193455402Y-108349845D01*
X193455402Y-108349845D02*
X193479211Y-108326035D01*
X193479211Y-108326035D02*
X193526830Y-108302226D01*
X193526830Y-108302226D02*
X193574449Y-108302226D01*
X193741116Y-108635559D02*
X193741116Y-108302226D01*
X193741116Y-108135559D02*
X193717307Y-108159369D01*
X193717307Y-108159369D02*
X193741116Y-108183178D01*
X193741116Y-108183178D02*
X193764926Y-108159369D01*
X193764926Y-108159369D02*
X193741116Y-108135559D01*
X193741116Y-108135559D02*
X193741116Y-108183178D01*
X194169687Y-108611750D02*
X194122068Y-108635559D01*
X194122068Y-108635559D02*
X194026830Y-108635559D01*
X194026830Y-108635559D02*
X193979211Y-108611750D01*
X193979211Y-108611750D02*
X193955402Y-108564130D01*
X193955402Y-108564130D02*
X193955402Y-108373654D01*
X193955402Y-108373654D02*
X193979211Y-108326035D01*
X193979211Y-108326035D02*
X194026830Y-108302226D01*
X194026830Y-108302226D02*
X194122068Y-108302226D01*
X194122068Y-108302226D02*
X194169687Y-108326035D01*
X194169687Y-108326035D02*
X194193497Y-108373654D01*
X194193497Y-108373654D02*
X194193497Y-108421273D01*
X194193497Y-108421273D02*
X193955402Y-108468892D01*
X194383973Y-108611750D02*
X194431592Y-108635559D01*
X194431592Y-108635559D02*
X194526830Y-108635559D01*
X194526830Y-108635559D02*
X194574449Y-108611750D01*
X194574449Y-108611750D02*
X194598258Y-108564130D01*
X194598258Y-108564130D02*
X194598258Y-108540321D01*
X194598258Y-108540321D02*
X194574449Y-108492702D01*
X194574449Y-108492702D02*
X194526830Y-108468892D01*
X194526830Y-108468892D02*
X194455401Y-108468892D01*
X194455401Y-108468892D02*
X194407782Y-108445083D01*
X194407782Y-108445083D02*
X194383973Y-108397464D01*
X194383973Y-108397464D02*
X194383973Y-108373654D01*
X194383973Y-108373654D02*
X194407782Y-108326035D01*
X194407782Y-108326035D02*
X194455401Y-108302226D01*
X194455401Y-108302226D02*
X194526830Y-108302226D01*
X194526830Y-108302226D02*
X194574449Y-108326035D01*
D13*
X187808333Y-100934580D02*
X187760714Y-100982200D01*
X187760714Y-100982200D02*
X187617857Y-101029819D01*
X187617857Y-101029819D02*
X187522619Y-101029819D01*
X187522619Y-101029819D02*
X187379762Y-100982200D01*
X187379762Y-100982200D02*
X187284524Y-100886961D01*
X187284524Y-100886961D02*
X187236905Y-100791723D01*
X187236905Y-100791723D02*
X187189286Y-100601247D01*
X187189286Y-100601247D02*
X187189286Y-100458390D01*
X187189286Y-100458390D02*
X187236905Y-100267914D01*
X187236905Y-100267914D02*
X187284524Y-100172676D01*
X187284524Y-100172676D02*
X187379762Y-100077438D01*
X187379762Y-100077438D02*
X187522619Y-100029819D01*
X187522619Y-100029819D02*
X187617857Y-100029819D01*
X187617857Y-100029819D02*
X187760714Y-100077438D01*
X187760714Y-100077438D02*
X187808333Y-100125057D01*
X188141667Y-100029819D02*
X188760714Y-100029819D01*
X188760714Y-100029819D02*
X188427381Y-100410771D01*
X188427381Y-100410771D02*
X188570238Y-100410771D01*
X188570238Y-100410771D02*
X188665476Y-100458390D01*
X188665476Y-100458390D02*
X188713095Y-100506009D01*
X188713095Y-100506009D02*
X188760714Y-100601247D01*
X188760714Y-100601247D02*
X188760714Y-100839342D01*
X188760714Y-100839342D02*
X188713095Y-100934580D01*
X188713095Y-100934580D02*
X188665476Y-100982200D01*
X188665476Y-100982200D02*
X188570238Y-101029819D01*
X188570238Y-101029819D02*
X188284524Y-101029819D01*
X188284524Y-101029819D02*
X188189286Y-100982200D01*
X188189286Y-100982200D02*
X188141667Y-100934580D01*
X184912142Y-88374580D02*
X184864523Y-88422200D01*
X184864523Y-88422200D02*
X184721666Y-88469819D01*
X184721666Y-88469819D02*
X184626428Y-88469819D01*
X184626428Y-88469819D02*
X184483571Y-88422200D01*
X184483571Y-88422200D02*
X184388333Y-88326961D01*
X184388333Y-88326961D02*
X184340714Y-88231723D01*
X184340714Y-88231723D02*
X184293095Y-88041247D01*
X184293095Y-88041247D02*
X184293095Y-87898390D01*
X184293095Y-87898390D02*
X184340714Y-87707914D01*
X184340714Y-87707914D02*
X184388333Y-87612676D01*
X184388333Y-87612676D02*
X184483571Y-87517438D01*
X184483571Y-87517438D02*
X184626428Y-87469819D01*
X184626428Y-87469819D02*
X184721666Y-87469819D01*
X184721666Y-87469819D02*
X184864523Y-87517438D01*
X184864523Y-87517438D02*
X184912142Y-87565057D01*
X185864523Y-88469819D02*
X185293095Y-88469819D01*
X185578809Y-88469819D02*
X185578809Y-87469819D01*
X185578809Y-87469819D02*
X185483571Y-87612676D01*
X185483571Y-87612676D02*
X185388333Y-87707914D01*
X185388333Y-87707914D02*
X185293095Y-87755533D01*
X186245476Y-87565057D02*
X186293095Y-87517438D01*
X186293095Y-87517438D02*
X186388333Y-87469819D01*
X186388333Y-87469819D02*
X186626428Y-87469819D01*
X186626428Y-87469819D02*
X186721666Y-87517438D01*
X186721666Y-87517438D02*
X186769285Y-87565057D01*
X186769285Y-87565057D02*
X186816904Y-87660295D01*
X186816904Y-87660295D02*
X186816904Y-87755533D01*
X186816904Y-87755533D02*
X186769285Y-87898390D01*
X186769285Y-87898390D02*
X186197857Y-88469819D01*
X186197857Y-88469819D02*
X186816904Y-88469819D01*
X184882142Y-90174580D02*
X184834523Y-90222200D01*
X184834523Y-90222200D02*
X184691666Y-90269819D01*
X184691666Y-90269819D02*
X184596428Y-90269819D01*
X184596428Y-90269819D02*
X184453571Y-90222200D01*
X184453571Y-90222200D02*
X184358333Y-90126961D01*
X184358333Y-90126961D02*
X184310714Y-90031723D01*
X184310714Y-90031723D02*
X184263095Y-89841247D01*
X184263095Y-89841247D02*
X184263095Y-89698390D01*
X184263095Y-89698390D02*
X184310714Y-89507914D01*
X184310714Y-89507914D02*
X184358333Y-89412676D01*
X184358333Y-89412676D02*
X184453571Y-89317438D01*
X184453571Y-89317438D02*
X184596428Y-89269819D01*
X184596428Y-89269819D02*
X184691666Y-89269819D01*
X184691666Y-89269819D02*
X184834523Y-89317438D01*
X184834523Y-89317438D02*
X184882142Y-89365057D01*
X185834523Y-90269819D02*
X185263095Y-90269819D01*
X185548809Y-90269819D02*
X185548809Y-89269819D01*
X185548809Y-89269819D02*
X185453571Y-89412676D01*
X185453571Y-89412676D02*
X185358333Y-89507914D01*
X185358333Y-89507914D02*
X185263095Y-89555533D01*
X186167857Y-89269819D02*
X186786904Y-89269819D01*
X186786904Y-89269819D02*
X186453571Y-89650771D01*
X186453571Y-89650771D02*
X186596428Y-89650771D01*
X186596428Y-89650771D02*
X186691666Y-89698390D01*
X186691666Y-89698390D02*
X186739285Y-89746009D01*
X186739285Y-89746009D02*
X186786904Y-89841247D01*
X186786904Y-89841247D02*
X186786904Y-90079342D01*
X186786904Y-90079342D02*
X186739285Y-90174580D01*
X186739285Y-90174580D02*
X186691666Y-90222200D01*
X186691666Y-90222200D02*
X186596428Y-90269819D01*
X186596428Y-90269819D02*
X186310714Y-90269819D01*
X186310714Y-90269819D02*
X186215476Y-90222200D01*
X186215476Y-90222200D02*
X186167857Y-90174580D01*
X212404405Y-94029819D02*
X212404405Y-93029819D01*
X212404405Y-93029819D02*
X212642500Y-93029819D01*
X212642500Y-93029819D02*
X212785357Y-93077438D01*
X212785357Y-93077438D02*
X212880595Y-93172676D01*
X212880595Y-93172676D02*
X212928214Y-93267914D01*
X212928214Y-93267914D02*
X212975833Y-93458390D01*
X212975833Y-93458390D02*
X212975833Y-93601247D01*
X212975833Y-93601247D02*
X212928214Y-93791723D01*
X212928214Y-93791723D02*
X212880595Y-93886961D01*
X212880595Y-93886961D02*
X212785357Y-93982200D01*
X212785357Y-93982200D02*
X212642500Y-94029819D01*
X212642500Y-94029819D02*
X212404405Y-94029819D01*
X213356786Y-93125057D02*
X213404405Y-93077438D01*
X213404405Y-93077438D02*
X213499643Y-93029819D01*
X213499643Y-93029819D02*
X213737738Y-93029819D01*
X213737738Y-93029819D02*
X213832976Y-93077438D01*
X213832976Y-93077438D02*
X213880595Y-93125057D01*
X213880595Y-93125057D02*
X213928214Y-93220295D01*
X213928214Y-93220295D02*
X213928214Y-93315533D01*
X213928214Y-93315533D02*
X213880595Y-93458390D01*
X213880595Y-93458390D02*
X213309167Y-94029819D01*
X213309167Y-94029819D02*
X213928214Y-94029819D01*
X212404405Y-96769819D02*
X212404405Y-95769819D01*
X212404405Y-95769819D02*
X212642500Y-95769819D01*
X212642500Y-95769819D02*
X212785357Y-95817438D01*
X212785357Y-95817438D02*
X212880595Y-95912676D01*
X212880595Y-95912676D02*
X212928214Y-96007914D01*
X212928214Y-96007914D02*
X212975833Y-96198390D01*
X212975833Y-96198390D02*
X212975833Y-96341247D01*
X212975833Y-96341247D02*
X212928214Y-96531723D01*
X212928214Y-96531723D02*
X212880595Y-96626961D01*
X212880595Y-96626961D02*
X212785357Y-96722200D01*
X212785357Y-96722200D02*
X212642500Y-96769819D01*
X212642500Y-96769819D02*
X212404405Y-96769819D01*
X213309167Y-95769819D02*
X213928214Y-95769819D01*
X213928214Y-95769819D02*
X213594881Y-96150771D01*
X213594881Y-96150771D02*
X213737738Y-96150771D01*
X213737738Y-96150771D02*
X213832976Y-96198390D01*
X213832976Y-96198390D02*
X213880595Y-96246009D01*
X213880595Y-96246009D02*
X213928214Y-96341247D01*
X213928214Y-96341247D02*
X213928214Y-96579342D01*
X213928214Y-96579342D02*
X213880595Y-96674580D01*
X213880595Y-96674580D02*
X213832976Y-96722200D01*
X213832976Y-96722200D02*
X213737738Y-96769819D01*
X213737738Y-96769819D02*
X213452024Y-96769819D01*
X213452024Y-96769819D02*
X213356786Y-96722200D01*
X213356786Y-96722200D02*
X213309167Y-96674580D01*
X216438333Y-91434819D02*
X216105000Y-90958628D01*
X215866905Y-91434819D02*
X215866905Y-90434819D01*
X215866905Y-90434819D02*
X216247857Y-90434819D01*
X216247857Y-90434819D02*
X216343095Y-90482438D01*
X216343095Y-90482438D02*
X216390714Y-90530057D01*
X216390714Y-90530057D02*
X216438333Y-90625295D01*
X216438333Y-90625295D02*
X216438333Y-90768152D01*
X216438333Y-90768152D02*
X216390714Y-90863390D01*
X216390714Y-90863390D02*
X216343095Y-90911009D01*
X216343095Y-90911009D02*
X216247857Y-90958628D01*
X216247857Y-90958628D02*
X215866905Y-90958628D01*
X217009762Y-90863390D02*
X216914524Y-90815771D01*
X216914524Y-90815771D02*
X216866905Y-90768152D01*
X216866905Y-90768152D02*
X216819286Y-90672914D01*
X216819286Y-90672914D02*
X216819286Y-90625295D01*
X216819286Y-90625295D02*
X216866905Y-90530057D01*
X216866905Y-90530057D02*
X216914524Y-90482438D01*
X216914524Y-90482438D02*
X217009762Y-90434819D01*
X217009762Y-90434819D02*
X217200238Y-90434819D01*
X217200238Y-90434819D02*
X217295476Y-90482438D01*
X217295476Y-90482438D02*
X217343095Y-90530057D01*
X217343095Y-90530057D02*
X217390714Y-90625295D01*
X217390714Y-90625295D02*
X217390714Y-90672914D01*
X217390714Y-90672914D02*
X217343095Y-90768152D01*
X217343095Y-90768152D02*
X217295476Y-90815771D01*
X217295476Y-90815771D02*
X217200238Y-90863390D01*
X217200238Y-90863390D02*
X217009762Y-90863390D01*
X217009762Y-90863390D02*
X216914524Y-90911009D01*
X216914524Y-90911009D02*
X216866905Y-90958628D01*
X216866905Y-90958628D02*
X216819286Y-91053866D01*
X216819286Y-91053866D02*
X216819286Y-91244342D01*
X216819286Y-91244342D02*
X216866905Y-91339580D01*
X216866905Y-91339580D02*
X216914524Y-91387200D01*
X216914524Y-91387200D02*
X217009762Y-91434819D01*
X217009762Y-91434819D02*
X217200238Y-91434819D01*
X217200238Y-91434819D02*
X217295476Y-91387200D01*
X217295476Y-91387200D02*
X217343095Y-91339580D01*
X217343095Y-91339580D02*
X217390714Y-91244342D01*
X217390714Y-91244342D02*
X217390714Y-91053866D01*
X217390714Y-91053866D02*
X217343095Y-90958628D01*
X217343095Y-90958628D02*
X217295476Y-90911009D01*
X217295476Y-90911009D02*
X217200238Y-90863390D01*
X215972142Y-96909819D02*
X215638809Y-96433628D01*
X215400714Y-96909819D02*
X215400714Y-95909819D01*
X215400714Y-95909819D02*
X215781666Y-95909819D01*
X215781666Y-95909819D02*
X215876904Y-95957438D01*
X215876904Y-95957438D02*
X215924523Y-96005057D01*
X215924523Y-96005057D02*
X215972142Y-96100295D01*
X215972142Y-96100295D02*
X215972142Y-96243152D01*
X215972142Y-96243152D02*
X215924523Y-96338390D01*
X215924523Y-96338390D02*
X215876904Y-96386009D01*
X215876904Y-96386009D02*
X215781666Y-96433628D01*
X215781666Y-96433628D02*
X215400714Y-96433628D01*
X216924523Y-96909819D02*
X216353095Y-96909819D01*
X216638809Y-96909819D02*
X216638809Y-95909819D01*
X216638809Y-95909819D02*
X216543571Y-96052676D01*
X216543571Y-96052676D02*
X216448333Y-96147914D01*
X216448333Y-96147914D02*
X216353095Y-96195533D01*
X217543571Y-95909819D02*
X217638809Y-95909819D01*
X217638809Y-95909819D02*
X217734047Y-95957438D01*
X217734047Y-95957438D02*
X217781666Y-96005057D01*
X217781666Y-96005057D02*
X217829285Y-96100295D01*
X217829285Y-96100295D02*
X217876904Y-96290771D01*
X217876904Y-96290771D02*
X217876904Y-96528866D01*
X217876904Y-96528866D02*
X217829285Y-96719342D01*
X217829285Y-96719342D02*
X217781666Y-96814580D01*
X217781666Y-96814580D02*
X217734047Y-96862200D01*
X217734047Y-96862200D02*
X217638809Y-96909819D01*
X217638809Y-96909819D02*
X217543571Y-96909819D01*
X217543571Y-96909819D02*
X217448333Y-96862200D01*
X217448333Y-96862200D02*
X217400714Y-96814580D01*
X217400714Y-96814580D02*
X217353095Y-96719342D01*
X217353095Y-96719342D02*
X217305476Y-96528866D01*
X217305476Y-96528866D02*
X217305476Y-96290771D01*
X217305476Y-96290771D02*
X217353095Y-96100295D01*
X217353095Y-96100295D02*
X217400714Y-96005057D01*
X217400714Y-96005057D02*
X217448333Y-95957438D01*
X217448333Y-95957438D02*
X217543571Y-95909819D01*
X212414405Y-99509819D02*
X212414405Y-98509819D01*
X212414405Y-98509819D02*
X212652500Y-98509819D01*
X212652500Y-98509819D02*
X212795357Y-98557438D01*
X212795357Y-98557438D02*
X212890595Y-98652676D01*
X212890595Y-98652676D02*
X212938214Y-98747914D01*
X212938214Y-98747914D02*
X212985833Y-98938390D01*
X212985833Y-98938390D02*
X212985833Y-99081247D01*
X212985833Y-99081247D02*
X212938214Y-99271723D01*
X212938214Y-99271723D02*
X212890595Y-99366961D01*
X212890595Y-99366961D02*
X212795357Y-99462200D01*
X212795357Y-99462200D02*
X212652500Y-99509819D01*
X212652500Y-99509819D02*
X212414405Y-99509819D01*
X213842976Y-98843152D02*
X213842976Y-99509819D01*
X213604881Y-98462200D02*
X213366786Y-99176485D01*
X213366786Y-99176485D02*
X213985833Y-99176485D01*
X216438333Y-94159819D02*
X216105000Y-93683628D01*
X215866905Y-94159819D02*
X215866905Y-93159819D01*
X215866905Y-93159819D02*
X216247857Y-93159819D01*
X216247857Y-93159819D02*
X216343095Y-93207438D01*
X216343095Y-93207438D02*
X216390714Y-93255057D01*
X216390714Y-93255057D02*
X216438333Y-93350295D01*
X216438333Y-93350295D02*
X216438333Y-93493152D01*
X216438333Y-93493152D02*
X216390714Y-93588390D01*
X216390714Y-93588390D02*
X216343095Y-93636009D01*
X216343095Y-93636009D02*
X216247857Y-93683628D01*
X216247857Y-93683628D02*
X215866905Y-93683628D01*
X216914524Y-94159819D02*
X217105000Y-94159819D01*
X217105000Y-94159819D02*
X217200238Y-94112200D01*
X217200238Y-94112200D02*
X217247857Y-94064580D01*
X217247857Y-94064580D02*
X217343095Y-93921723D01*
X217343095Y-93921723D02*
X217390714Y-93731247D01*
X217390714Y-93731247D02*
X217390714Y-93350295D01*
X217390714Y-93350295D02*
X217343095Y-93255057D01*
X217343095Y-93255057D02*
X217295476Y-93207438D01*
X217295476Y-93207438D02*
X217200238Y-93159819D01*
X217200238Y-93159819D02*
X217009762Y-93159819D01*
X217009762Y-93159819D02*
X216914524Y-93207438D01*
X216914524Y-93207438D02*
X216866905Y-93255057D01*
X216866905Y-93255057D02*
X216819286Y-93350295D01*
X216819286Y-93350295D02*
X216819286Y-93588390D01*
X216819286Y-93588390D02*
X216866905Y-93683628D01*
X216866905Y-93683628D02*
X216914524Y-93731247D01*
X216914524Y-93731247D02*
X217009762Y-93778866D01*
X217009762Y-93778866D02*
X217200238Y-93778866D01*
X217200238Y-93778866D02*
X217295476Y-93731247D01*
X217295476Y-93731247D02*
X217343095Y-93683628D01*
X217343095Y-93683628D02*
X217390714Y-93588390D01*
X208504580Y-102916666D02*
X208552200Y-102964285D01*
X208552200Y-102964285D02*
X208599819Y-103107142D01*
X208599819Y-103107142D02*
X208599819Y-103202380D01*
X208599819Y-103202380D02*
X208552200Y-103345237D01*
X208552200Y-103345237D02*
X208456961Y-103440475D01*
X208456961Y-103440475D02*
X208361723Y-103488094D01*
X208361723Y-103488094D02*
X208171247Y-103535713D01*
X208171247Y-103535713D02*
X208028390Y-103535713D01*
X208028390Y-103535713D02*
X207837914Y-103488094D01*
X207837914Y-103488094D02*
X207742676Y-103440475D01*
X207742676Y-103440475D02*
X207647438Y-103345237D01*
X207647438Y-103345237D02*
X207599819Y-103202380D01*
X207599819Y-103202380D02*
X207599819Y-103107142D01*
X207599819Y-103107142D02*
X207647438Y-102964285D01*
X207647438Y-102964285D02*
X207695057Y-102916666D01*
X208599819Y-101964285D02*
X208599819Y-102535713D01*
X208599819Y-102249999D02*
X207599819Y-102249999D01*
X207599819Y-102249999D02*
X207742676Y-102345237D01*
X207742676Y-102345237D02*
X207837914Y-102440475D01*
X207837914Y-102440475D02*
X207885533Y-102535713D01*
X211864580Y-107779166D02*
X211912200Y-107826785D01*
X211912200Y-107826785D02*
X211959819Y-107969642D01*
X211959819Y-107969642D02*
X211959819Y-108064880D01*
X211959819Y-108064880D02*
X211912200Y-108207737D01*
X211912200Y-108207737D02*
X211816961Y-108302975D01*
X211816961Y-108302975D02*
X211721723Y-108350594D01*
X211721723Y-108350594D02*
X211531247Y-108398213D01*
X211531247Y-108398213D02*
X211388390Y-108398213D01*
X211388390Y-108398213D02*
X211197914Y-108350594D01*
X211197914Y-108350594D02*
X211102676Y-108302975D01*
X211102676Y-108302975D02*
X211007438Y-108207737D01*
X211007438Y-108207737D02*
X210959819Y-108064880D01*
X210959819Y-108064880D02*
X210959819Y-107969642D01*
X210959819Y-107969642D02*
X211007438Y-107826785D01*
X211007438Y-107826785D02*
X211055057Y-107779166D01*
X211055057Y-107398213D02*
X211007438Y-107350594D01*
X211007438Y-107350594D02*
X210959819Y-107255356D01*
X210959819Y-107255356D02*
X210959819Y-107017261D01*
X210959819Y-107017261D02*
X211007438Y-106922023D01*
X211007438Y-106922023D02*
X211055057Y-106874404D01*
X211055057Y-106874404D02*
X211150295Y-106826785D01*
X211150295Y-106826785D02*
X211245533Y-106826785D01*
X211245533Y-106826785D02*
X211388390Y-106874404D01*
X211388390Y-106874404D02*
X211959819Y-107445832D01*
X211959819Y-107445832D02*
X211959819Y-106826785D01*
X203038095Y-101304819D02*
X203038095Y-102114342D01*
X203038095Y-102114342D02*
X203085714Y-102209580D01*
X203085714Y-102209580D02*
X203133333Y-102257200D01*
X203133333Y-102257200D02*
X203228571Y-102304819D01*
X203228571Y-102304819D02*
X203419047Y-102304819D01*
X203419047Y-102304819D02*
X203514285Y-102257200D01*
X203514285Y-102257200D02*
X203561904Y-102209580D01*
X203561904Y-102209580D02*
X203609523Y-102114342D01*
X203609523Y-102114342D02*
X203609523Y-101304819D01*
X204609523Y-102304819D02*
X204038095Y-102304819D01*
X204323809Y-102304819D02*
X204323809Y-101304819D01*
X204323809Y-101304819D02*
X204228571Y-101447676D01*
X204228571Y-101447676D02*
X204133333Y-101542914D01*
X204133333Y-101542914D02*
X204038095Y-101590533D01*
X208458333Y-93774819D02*
X208125000Y-93298628D01*
X207886905Y-93774819D02*
X207886905Y-92774819D01*
X207886905Y-92774819D02*
X208267857Y-92774819D01*
X208267857Y-92774819D02*
X208363095Y-92822438D01*
X208363095Y-92822438D02*
X208410714Y-92870057D01*
X208410714Y-92870057D02*
X208458333Y-92965295D01*
X208458333Y-92965295D02*
X208458333Y-93108152D01*
X208458333Y-93108152D02*
X208410714Y-93203390D01*
X208410714Y-93203390D02*
X208363095Y-93251009D01*
X208363095Y-93251009D02*
X208267857Y-93298628D01*
X208267857Y-93298628D02*
X207886905Y-93298628D01*
X209410714Y-93774819D02*
X208839286Y-93774819D01*
X209125000Y-93774819D02*
X209125000Y-92774819D01*
X209125000Y-92774819D02*
X209029762Y-92917676D01*
X209029762Y-92917676D02*
X208934524Y-93012914D01*
X208934524Y-93012914D02*
X208839286Y-93060533D01*
X188183333Y-97184580D02*
X188135714Y-97232200D01*
X188135714Y-97232200D02*
X187992857Y-97279819D01*
X187992857Y-97279819D02*
X187897619Y-97279819D01*
X187897619Y-97279819D02*
X187754762Y-97232200D01*
X187754762Y-97232200D02*
X187659524Y-97136961D01*
X187659524Y-97136961D02*
X187611905Y-97041723D01*
X187611905Y-97041723D02*
X187564286Y-96851247D01*
X187564286Y-96851247D02*
X187564286Y-96708390D01*
X187564286Y-96708390D02*
X187611905Y-96517914D01*
X187611905Y-96517914D02*
X187659524Y-96422676D01*
X187659524Y-96422676D02*
X187754762Y-96327438D01*
X187754762Y-96327438D02*
X187897619Y-96279819D01*
X187897619Y-96279819D02*
X187992857Y-96279819D01*
X187992857Y-96279819D02*
X188135714Y-96327438D01*
X188135714Y-96327438D02*
X188183333Y-96375057D01*
X188516667Y-96279819D02*
X189183333Y-96279819D01*
X189183333Y-96279819D02*
X188754762Y-97279819D01*
X187383333Y-103734819D02*
X187050000Y-103258628D01*
X186811905Y-103734819D02*
X186811905Y-102734819D01*
X186811905Y-102734819D02*
X187192857Y-102734819D01*
X187192857Y-102734819D02*
X187288095Y-102782438D01*
X187288095Y-102782438D02*
X187335714Y-102830057D01*
X187335714Y-102830057D02*
X187383333Y-102925295D01*
X187383333Y-102925295D02*
X187383333Y-103068152D01*
X187383333Y-103068152D02*
X187335714Y-103163390D01*
X187335714Y-103163390D02*
X187288095Y-103211009D01*
X187288095Y-103211009D02*
X187192857Y-103258628D01*
X187192857Y-103258628D02*
X186811905Y-103258628D01*
X188240476Y-103068152D02*
X188240476Y-103734819D01*
X188002381Y-102687200D02*
X187764286Y-103401485D01*
X187764286Y-103401485D02*
X188383333Y-103401485D01*
X185109580Y-92991666D02*
X185157200Y-93039285D01*
X185157200Y-93039285D02*
X185204819Y-93182142D01*
X185204819Y-93182142D02*
X185204819Y-93277380D01*
X185204819Y-93277380D02*
X185157200Y-93420237D01*
X185157200Y-93420237D02*
X185061961Y-93515475D01*
X185061961Y-93515475D02*
X184966723Y-93563094D01*
X184966723Y-93563094D02*
X184776247Y-93610713D01*
X184776247Y-93610713D02*
X184633390Y-93610713D01*
X184633390Y-93610713D02*
X184442914Y-93563094D01*
X184442914Y-93563094D02*
X184347676Y-93515475D01*
X184347676Y-93515475D02*
X184252438Y-93420237D01*
X184252438Y-93420237D02*
X184204819Y-93277380D01*
X184204819Y-93277380D02*
X184204819Y-93182142D01*
X184204819Y-93182142D02*
X184252438Y-93039285D01*
X184252438Y-93039285D02*
X184300057Y-92991666D01*
X185204819Y-92515475D02*
X185204819Y-92324999D01*
X185204819Y-92324999D02*
X185157200Y-92229761D01*
X185157200Y-92229761D02*
X185109580Y-92182142D01*
X185109580Y-92182142D02*
X184966723Y-92086904D01*
X184966723Y-92086904D02*
X184776247Y-92039285D01*
X184776247Y-92039285D02*
X184395295Y-92039285D01*
X184395295Y-92039285D02*
X184300057Y-92086904D01*
X184300057Y-92086904D02*
X184252438Y-92134523D01*
X184252438Y-92134523D02*
X184204819Y-92229761D01*
X184204819Y-92229761D02*
X184204819Y-92420237D01*
X184204819Y-92420237D02*
X184252438Y-92515475D01*
X184252438Y-92515475D02*
X184300057Y-92563094D01*
X184300057Y-92563094D02*
X184395295Y-92610713D01*
X184395295Y-92610713D02*
X184633390Y-92610713D01*
X184633390Y-92610713D02*
X184728628Y-92563094D01*
X184728628Y-92563094D02*
X184776247Y-92515475D01*
X184776247Y-92515475D02*
X184823866Y-92420237D01*
X184823866Y-92420237D02*
X184823866Y-92229761D01*
X184823866Y-92229761D02*
X184776247Y-92134523D01*
X184776247Y-92134523D02*
X184728628Y-92086904D01*
X184728628Y-92086904D02*
X184633390Y-92039285D01*
X180278628Y-96351190D02*
X180754819Y-96351190D01*
X179754819Y-96684523D02*
X180278628Y-96351190D01*
X180278628Y-96351190D02*
X179754819Y-96017857D01*
X180754819Y-95160714D02*
X180754819Y-95732142D01*
X180754819Y-95446428D02*
X179754819Y-95446428D01*
X179754819Y-95446428D02*
X179897676Y-95541666D01*
X179897676Y-95541666D02*
X179992914Y-95636904D01*
X179992914Y-95636904D02*
X180040533Y-95732142D01*
X186083333Y-93984580D02*
X186035714Y-94032200D01*
X186035714Y-94032200D02*
X185892857Y-94079819D01*
X185892857Y-94079819D02*
X185797619Y-94079819D01*
X185797619Y-94079819D02*
X185654762Y-94032200D01*
X185654762Y-94032200D02*
X185559524Y-93936961D01*
X185559524Y-93936961D02*
X185511905Y-93841723D01*
X185511905Y-93841723D02*
X185464286Y-93651247D01*
X185464286Y-93651247D02*
X185464286Y-93508390D01*
X185464286Y-93508390D02*
X185511905Y-93317914D01*
X185511905Y-93317914D02*
X185559524Y-93222676D01*
X185559524Y-93222676D02*
X185654762Y-93127438D01*
X185654762Y-93127438D02*
X185797619Y-93079819D01*
X185797619Y-93079819D02*
X185892857Y-93079819D01*
X185892857Y-93079819D02*
X186035714Y-93127438D01*
X186035714Y-93127438D02*
X186083333Y-93175057D01*
X186940476Y-93413152D02*
X186940476Y-94079819D01*
X186702381Y-93032200D02*
X186464286Y-93746485D01*
X186464286Y-93746485D02*
X187083333Y-93746485D01*
X183761009Y-91370833D02*
X183761009Y-91704166D01*
X184284819Y-91704166D02*
X183284819Y-91704166D01*
X183284819Y-91704166D02*
X183284819Y-91227976D01*
X183761009Y-90513690D02*
X183808628Y-90370833D01*
X183808628Y-90370833D02*
X183856247Y-90323214D01*
X183856247Y-90323214D02*
X183951485Y-90275595D01*
X183951485Y-90275595D02*
X184094342Y-90275595D01*
X184094342Y-90275595D02*
X184189580Y-90323214D01*
X184189580Y-90323214D02*
X184237200Y-90370833D01*
X184237200Y-90370833D02*
X184284819Y-90466071D01*
X184284819Y-90466071D02*
X184284819Y-90847023D01*
X184284819Y-90847023D02*
X183284819Y-90847023D01*
X183284819Y-90847023D02*
X183284819Y-90513690D01*
X183284819Y-90513690D02*
X183332438Y-90418452D01*
X183332438Y-90418452D02*
X183380057Y-90370833D01*
X183380057Y-90370833D02*
X183475295Y-90323214D01*
X183475295Y-90323214D02*
X183570533Y-90323214D01*
X183570533Y-90323214D02*
X183665771Y-90370833D01*
X183665771Y-90370833D02*
X183713390Y-90418452D01*
X183713390Y-90418452D02*
X183761009Y-90513690D01*
X183761009Y-90513690D02*
X183761009Y-90847023D01*
X184284819Y-89323214D02*
X184284819Y-89894642D01*
X184284819Y-89608928D02*
X183284819Y-89608928D01*
X183284819Y-89608928D02*
X183427676Y-89704166D01*
X183427676Y-89704166D02*
X183522914Y-89799404D01*
X183522914Y-89799404D02*
X183570533Y-89894642D01*
X182407142Y-87074580D02*
X182359523Y-87122200D01*
X182359523Y-87122200D02*
X182216666Y-87169819D01*
X182216666Y-87169819D02*
X182121428Y-87169819D01*
X182121428Y-87169819D02*
X181978571Y-87122200D01*
X181978571Y-87122200D02*
X181883333Y-87026961D01*
X181883333Y-87026961D02*
X181835714Y-86931723D01*
X181835714Y-86931723D02*
X181788095Y-86741247D01*
X181788095Y-86741247D02*
X181788095Y-86598390D01*
X181788095Y-86598390D02*
X181835714Y-86407914D01*
X181835714Y-86407914D02*
X181883333Y-86312676D01*
X181883333Y-86312676D02*
X181978571Y-86217438D01*
X181978571Y-86217438D02*
X182121428Y-86169819D01*
X182121428Y-86169819D02*
X182216666Y-86169819D01*
X182216666Y-86169819D02*
X182359523Y-86217438D01*
X182359523Y-86217438D02*
X182407142Y-86265057D01*
X183359523Y-87169819D02*
X182788095Y-87169819D01*
X183073809Y-87169819D02*
X183073809Y-86169819D01*
X183073809Y-86169819D02*
X182978571Y-86312676D01*
X182978571Y-86312676D02*
X182883333Y-86407914D01*
X182883333Y-86407914D02*
X182788095Y-86455533D01*
X184311904Y-87169819D02*
X183740476Y-87169819D01*
X184026190Y-87169819D02*
X184026190Y-86169819D01*
X184026190Y-86169819D02*
X183930952Y-86312676D01*
X183930952Y-86312676D02*
X183835714Y-86407914D01*
X183835714Y-86407914D02*
X183740476Y-86455533D01*
X186107200Y-105033332D02*
X186154819Y-104890475D01*
X186154819Y-104890475D02*
X186154819Y-104652380D01*
X186154819Y-104652380D02*
X186107200Y-104557142D01*
X186107200Y-104557142D02*
X186059580Y-104509523D01*
X186059580Y-104509523D02*
X185964342Y-104461904D01*
X185964342Y-104461904D02*
X185869104Y-104461904D01*
X185869104Y-104461904D02*
X185773866Y-104509523D01*
X185773866Y-104509523D02*
X185726247Y-104557142D01*
X185726247Y-104557142D02*
X185678628Y-104652380D01*
X185678628Y-104652380D02*
X185631009Y-104842856D01*
X185631009Y-104842856D02*
X185583390Y-104938094D01*
X185583390Y-104938094D02*
X185535771Y-104985713D01*
X185535771Y-104985713D02*
X185440533Y-105033332D01*
X185440533Y-105033332D02*
X185345295Y-105033332D01*
X185345295Y-105033332D02*
X185250057Y-104985713D01*
X185250057Y-104985713D02*
X185202438Y-104938094D01*
X185202438Y-104938094D02*
X185154819Y-104842856D01*
X185154819Y-104842856D02*
X185154819Y-104604761D01*
X185154819Y-104604761D02*
X185202438Y-104461904D01*
X185154819Y-104128570D02*
X186154819Y-103890475D01*
X186154819Y-103890475D02*
X185440533Y-103699999D01*
X185440533Y-103699999D02*
X186154819Y-103509523D01*
X186154819Y-103509523D02*
X185154819Y-103271428D01*
X186154819Y-102366666D02*
X186154819Y-102938094D01*
X186154819Y-102652380D02*
X185154819Y-102652380D01*
X185154819Y-102652380D02*
X185297676Y-102747618D01*
X185297676Y-102747618D02*
X185392914Y-102842856D01*
X185392914Y-102842856D02*
X185440533Y-102938094D01*
X188583333Y-86979580D02*
X188535714Y-87027200D01*
X188535714Y-87027200D02*
X188392857Y-87074819D01*
X188392857Y-87074819D02*
X188297619Y-87074819D01*
X188297619Y-87074819D02*
X188154762Y-87027200D01*
X188154762Y-87027200D02*
X188059524Y-86931961D01*
X188059524Y-86931961D02*
X188011905Y-86836723D01*
X188011905Y-86836723D02*
X187964286Y-86646247D01*
X187964286Y-86646247D02*
X187964286Y-86503390D01*
X187964286Y-86503390D02*
X188011905Y-86312914D01*
X188011905Y-86312914D02*
X188059524Y-86217676D01*
X188059524Y-86217676D02*
X188154762Y-86122438D01*
X188154762Y-86122438D02*
X188297619Y-86074819D01*
X188297619Y-86074819D02*
X188392857Y-86074819D01*
X188392857Y-86074819D02*
X188535714Y-86122438D01*
X188535714Y-86122438D02*
X188583333Y-86170057D01*
X189488095Y-86074819D02*
X189011905Y-86074819D01*
X189011905Y-86074819D02*
X188964286Y-86551009D01*
X188964286Y-86551009D02*
X189011905Y-86503390D01*
X189011905Y-86503390D02*
X189107143Y-86455771D01*
X189107143Y-86455771D02*
X189345238Y-86455771D01*
X189345238Y-86455771D02*
X189440476Y-86503390D01*
X189440476Y-86503390D02*
X189488095Y-86551009D01*
X189488095Y-86551009D02*
X189535714Y-86646247D01*
X189535714Y-86646247D02*
X189535714Y-86884342D01*
X189535714Y-86884342D02*
X189488095Y-86979580D01*
X189488095Y-86979580D02*
X189440476Y-87027200D01*
X189440476Y-87027200D02*
X189345238Y-87074819D01*
X189345238Y-87074819D02*
X189107143Y-87074819D01*
X189107143Y-87074819D02*
X189011905Y-87027200D01*
X189011905Y-87027200D02*
X188964286Y-86979580D01*
X204911905Y-94024819D02*
X204911905Y-93024819D01*
X204911905Y-93024819D02*
X205150000Y-93024819D01*
X205150000Y-93024819D02*
X205292857Y-93072438D01*
X205292857Y-93072438D02*
X205388095Y-93167676D01*
X205388095Y-93167676D02*
X205435714Y-93262914D01*
X205435714Y-93262914D02*
X205483333Y-93453390D01*
X205483333Y-93453390D02*
X205483333Y-93596247D01*
X205483333Y-93596247D02*
X205435714Y-93786723D01*
X205435714Y-93786723D02*
X205388095Y-93881961D01*
X205388095Y-93881961D02*
X205292857Y-93977200D01*
X205292857Y-93977200D02*
X205150000Y-94024819D01*
X205150000Y-94024819D02*
X204911905Y-94024819D01*
X206435714Y-94024819D02*
X205864286Y-94024819D01*
X206150000Y-94024819D02*
X206150000Y-93024819D01*
X206150000Y-93024819D02*
X206054762Y-93167676D01*
X206054762Y-93167676D02*
X205959524Y-93262914D01*
X205959524Y-93262914D02*
X205864286Y-93310533D01*
X212304819Y-105433333D02*
X213019104Y-105433333D01*
X213019104Y-105433333D02*
X213161961Y-105480952D01*
X213161961Y-105480952D02*
X213257200Y-105576190D01*
X213257200Y-105576190D02*
X213304819Y-105719047D01*
X213304819Y-105719047D02*
X213304819Y-105814285D01*
X212304819Y-105052380D02*
X212304819Y-104433333D01*
X212304819Y-104433333D02*
X212685771Y-104766666D01*
X212685771Y-104766666D02*
X212685771Y-104623809D01*
X212685771Y-104623809D02*
X212733390Y-104528571D01*
X212733390Y-104528571D02*
X212781009Y-104480952D01*
X212781009Y-104480952D02*
X212876247Y-104433333D01*
X212876247Y-104433333D02*
X213114342Y-104433333D01*
X213114342Y-104433333D02*
X213209580Y-104480952D01*
X213209580Y-104480952D02*
X213257200Y-104528571D01*
X213257200Y-104528571D02*
X213304819Y-104623809D01*
X213304819Y-104623809D02*
X213304819Y-104909523D01*
X213304819Y-104909523D02*
X213257200Y-105004761D01*
X213257200Y-105004761D02*
X213209580Y-105052380D01*
X188583333Y-89774580D02*
X188535714Y-89822200D01*
X188535714Y-89822200D02*
X188392857Y-89869819D01*
X188392857Y-89869819D02*
X188297619Y-89869819D01*
X188297619Y-89869819D02*
X188154762Y-89822200D01*
X188154762Y-89822200D02*
X188059524Y-89726961D01*
X188059524Y-89726961D02*
X188011905Y-89631723D01*
X188011905Y-89631723D02*
X187964286Y-89441247D01*
X187964286Y-89441247D02*
X187964286Y-89298390D01*
X187964286Y-89298390D02*
X188011905Y-89107914D01*
X188011905Y-89107914D02*
X188059524Y-89012676D01*
X188059524Y-89012676D02*
X188154762Y-88917438D01*
X188154762Y-88917438D02*
X188297619Y-88869819D01*
X188297619Y-88869819D02*
X188392857Y-88869819D01*
X188392857Y-88869819D02*
X188535714Y-88917438D01*
X188535714Y-88917438D02*
X188583333Y-88965057D01*
X189154762Y-89298390D02*
X189059524Y-89250771D01*
X189059524Y-89250771D02*
X189011905Y-89203152D01*
X189011905Y-89203152D02*
X188964286Y-89107914D01*
X188964286Y-89107914D02*
X188964286Y-89060295D01*
X188964286Y-89060295D02*
X189011905Y-88965057D01*
X189011905Y-88965057D02*
X189059524Y-88917438D01*
X189059524Y-88917438D02*
X189154762Y-88869819D01*
X189154762Y-88869819D02*
X189345238Y-88869819D01*
X189345238Y-88869819D02*
X189440476Y-88917438D01*
X189440476Y-88917438D02*
X189488095Y-88965057D01*
X189488095Y-88965057D02*
X189535714Y-89060295D01*
X189535714Y-89060295D02*
X189535714Y-89107914D01*
X189535714Y-89107914D02*
X189488095Y-89203152D01*
X189488095Y-89203152D02*
X189440476Y-89250771D01*
X189440476Y-89250771D02*
X189345238Y-89298390D01*
X189345238Y-89298390D02*
X189154762Y-89298390D01*
X189154762Y-89298390D02*
X189059524Y-89346009D01*
X189059524Y-89346009D02*
X189011905Y-89393628D01*
X189011905Y-89393628D02*
X188964286Y-89488866D01*
X188964286Y-89488866D02*
X188964286Y-89679342D01*
X188964286Y-89679342D02*
X189011905Y-89774580D01*
X189011905Y-89774580D02*
X189059524Y-89822200D01*
X189059524Y-89822200D02*
X189154762Y-89869819D01*
X189154762Y-89869819D02*
X189345238Y-89869819D01*
X189345238Y-89869819D02*
X189440476Y-89822200D01*
X189440476Y-89822200D02*
X189488095Y-89774580D01*
X189488095Y-89774580D02*
X189535714Y-89679342D01*
X189535714Y-89679342D02*
X189535714Y-89488866D01*
X189535714Y-89488866D02*
X189488095Y-89393628D01*
X189488095Y-89393628D02*
X189440476Y-89346009D01*
X189440476Y-89346009D02*
X189345238Y-89298390D01*
X212443095Y-110225819D02*
X212443095Y-111035342D01*
X212443095Y-111035342D02*
X212490714Y-111130580D01*
X212490714Y-111130580D02*
X212538333Y-111178200D01*
X212538333Y-111178200D02*
X212633571Y-111225819D01*
X212633571Y-111225819D02*
X212824047Y-111225819D01*
X212824047Y-111225819D02*
X212919285Y-111178200D01*
X212919285Y-111178200D02*
X212966904Y-111130580D01*
X212966904Y-111130580D02*
X213014523Y-111035342D01*
X213014523Y-111035342D02*
X213014523Y-110225819D01*
X213395476Y-110225819D02*
X214062142Y-110225819D01*
X214062142Y-110225819D02*
X213633571Y-111225819D01*
X192388095Y-90754819D02*
X192388095Y-91564342D01*
X192388095Y-91564342D02*
X192435714Y-91659580D01*
X192435714Y-91659580D02*
X192483333Y-91707200D01*
X192483333Y-91707200D02*
X192578571Y-91754819D01*
X192578571Y-91754819D02*
X192769047Y-91754819D01*
X192769047Y-91754819D02*
X192864285Y-91707200D01*
X192864285Y-91707200D02*
X192911904Y-91659580D01*
X192911904Y-91659580D02*
X192959523Y-91564342D01*
X192959523Y-91564342D02*
X192959523Y-90754819D01*
X193388095Y-90850057D02*
X193435714Y-90802438D01*
X193435714Y-90802438D02*
X193530952Y-90754819D01*
X193530952Y-90754819D02*
X193769047Y-90754819D01*
X193769047Y-90754819D02*
X193864285Y-90802438D01*
X193864285Y-90802438D02*
X193911904Y-90850057D01*
X193911904Y-90850057D02*
X193959523Y-90945295D01*
X193959523Y-90945295D02*
X193959523Y-91040533D01*
X193959523Y-91040533D02*
X193911904Y-91183390D01*
X193911904Y-91183390D02*
X193340476Y-91754819D01*
X193340476Y-91754819D02*
X193959523Y-91754819D01*
X200869580Y-94816666D02*
X200917200Y-94864285D01*
X200917200Y-94864285D02*
X200964819Y-95007142D01*
X200964819Y-95007142D02*
X200964819Y-95102380D01*
X200964819Y-95102380D02*
X200917200Y-95245237D01*
X200917200Y-95245237D02*
X200821961Y-95340475D01*
X200821961Y-95340475D02*
X200726723Y-95388094D01*
X200726723Y-95388094D02*
X200536247Y-95435713D01*
X200536247Y-95435713D02*
X200393390Y-95435713D01*
X200393390Y-95435713D02*
X200202914Y-95388094D01*
X200202914Y-95388094D02*
X200107676Y-95340475D01*
X200107676Y-95340475D02*
X200012438Y-95245237D01*
X200012438Y-95245237D02*
X199964819Y-95102380D01*
X199964819Y-95102380D02*
X199964819Y-95007142D01*
X199964819Y-95007142D02*
X200012438Y-94864285D01*
X200012438Y-94864285D02*
X200060057Y-94816666D01*
X199964819Y-93959523D02*
X199964819Y-94149999D01*
X199964819Y-94149999D02*
X200012438Y-94245237D01*
X200012438Y-94245237D02*
X200060057Y-94292856D01*
X200060057Y-94292856D02*
X200202914Y-94388094D01*
X200202914Y-94388094D02*
X200393390Y-94435713D01*
X200393390Y-94435713D02*
X200774342Y-94435713D01*
X200774342Y-94435713D02*
X200869580Y-94388094D01*
X200869580Y-94388094D02*
X200917200Y-94340475D01*
X200917200Y-94340475D02*
X200964819Y-94245237D01*
X200964819Y-94245237D02*
X200964819Y-94054761D01*
X200964819Y-94054761D02*
X200917200Y-93959523D01*
X200917200Y-93959523D02*
X200869580Y-93911904D01*
X200869580Y-93911904D02*
X200774342Y-93864285D01*
X200774342Y-93864285D02*
X200536247Y-93864285D01*
X200536247Y-93864285D02*
X200441009Y-93911904D01*
X200441009Y-93911904D02*
X200393390Y-93959523D01*
X200393390Y-93959523D02*
X200345771Y-94054761D01*
X200345771Y-94054761D02*
X200345771Y-94245237D01*
X200345771Y-94245237D02*
X200393390Y-94340475D01*
X200393390Y-94340475D02*
X200441009Y-94388094D01*
X200441009Y-94388094D02*
X200536247Y-94435713D01*
X203274819Y-95406666D02*
X202798628Y-95739999D01*
X203274819Y-95978094D02*
X202274819Y-95978094D01*
X202274819Y-95978094D02*
X202274819Y-95597142D01*
X202274819Y-95597142D02*
X202322438Y-95501904D01*
X202322438Y-95501904D02*
X202370057Y-95454285D01*
X202370057Y-95454285D02*
X202465295Y-95406666D01*
X202465295Y-95406666D02*
X202608152Y-95406666D01*
X202608152Y-95406666D02*
X202703390Y-95454285D01*
X202703390Y-95454285D02*
X202751009Y-95501904D01*
X202751009Y-95501904D02*
X202798628Y-95597142D01*
X202798628Y-95597142D02*
X202798628Y-95978094D01*
X202274819Y-94501904D02*
X202274819Y-94978094D01*
X202274819Y-94978094D02*
X202751009Y-95025713D01*
X202751009Y-95025713D02*
X202703390Y-94978094D01*
X202703390Y-94978094D02*
X202655771Y-94882856D01*
X202655771Y-94882856D02*
X202655771Y-94644761D01*
X202655771Y-94644761D02*
X202703390Y-94549523D01*
X202703390Y-94549523D02*
X202751009Y-94501904D01*
X202751009Y-94501904D02*
X202846247Y-94454285D01*
X202846247Y-94454285D02*
X203084342Y-94454285D01*
X203084342Y-94454285D02*
X203179580Y-94501904D01*
X203179580Y-94501904D02*
X203227200Y-94549523D01*
X203227200Y-94549523D02*
X203274819Y-94644761D01*
X203274819Y-94644761D02*
X203274819Y-94882856D01*
X203274819Y-94882856D02*
X203227200Y-94978094D01*
X203227200Y-94978094D02*
X203179580Y-95025713D01*
X197769580Y-104612857D02*
X197817200Y-104660476D01*
X197817200Y-104660476D02*
X197864819Y-104803333D01*
X197864819Y-104803333D02*
X197864819Y-104898571D01*
X197864819Y-104898571D02*
X197817200Y-105041428D01*
X197817200Y-105041428D02*
X197721961Y-105136666D01*
X197721961Y-105136666D02*
X197626723Y-105184285D01*
X197626723Y-105184285D02*
X197436247Y-105231904D01*
X197436247Y-105231904D02*
X197293390Y-105231904D01*
X197293390Y-105231904D02*
X197102914Y-105184285D01*
X197102914Y-105184285D02*
X197007676Y-105136666D01*
X197007676Y-105136666D02*
X196912438Y-105041428D01*
X196912438Y-105041428D02*
X196864819Y-104898571D01*
X196864819Y-104898571D02*
X196864819Y-104803333D01*
X196864819Y-104803333D02*
X196912438Y-104660476D01*
X196912438Y-104660476D02*
X196960057Y-104612857D01*
X197864819Y-103660476D02*
X197864819Y-104231904D01*
X197864819Y-103946190D02*
X196864819Y-103946190D01*
X196864819Y-103946190D02*
X197007676Y-104041428D01*
X197007676Y-104041428D02*
X197102914Y-104136666D01*
X197102914Y-104136666D02*
X197150533Y-104231904D01*
X196864819Y-103041428D02*
X196864819Y-102946190D01*
X196864819Y-102946190D02*
X196912438Y-102850952D01*
X196912438Y-102850952D02*
X196960057Y-102803333D01*
X196960057Y-102803333D02*
X197055295Y-102755714D01*
X197055295Y-102755714D02*
X197245771Y-102708095D01*
X197245771Y-102708095D02*
X197483866Y-102708095D01*
X197483866Y-102708095D02*
X197674342Y-102755714D01*
X197674342Y-102755714D02*
X197769580Y-102803333D01*
X197769580Y-102803333D02*
X197817200Y-102850952D01*
X197817200Y-102850952D02*
X197864819Y-102946190D01*
X197864819Y-102946190D02*
X197864819Y-103041428D01*
X197864819Y-103041428D02*
X197817200Y-103136666D01*
X197817200Y-103136666D02*
X197769580Y-103184285D01*
X197769580Y-103184285D02*
X197674342Y-103231904D01*
X197674342Y-103231904D02*
X197483866Y-103279523D01*
X197483866Y-103279523D02*
X197245771Y-103279523D01*
X197245771Y-103279523D02*
X197055295Y-103231904D01*
X197055295Y-103231904D02*
X196960057Y-103184285D01*
X196960057Y-103184285D02*
X196912438Y-103136666D01*
X196912438Y-103136666D02*
X196864819Y-103041428D01*
X196383333Y-125768152D02*
X196050000Y-125291961D01*
X195811905Y-125768152D02*
X195811905Y-124768152D01*
X195811905Y-124768152D02*
X196192857Y-124768152D01*
X196192857Y-124768152D02*
X196288095Y-124815771D01*
X196288095Y-124815771D02*
X196335714Y-124863390D01*
X196335714Y-124863390D02*
X196383333Y-124958628D01*
X196383333Y-124958628D02*
X196383333Y-125101485D01*
X196383333Y-125101485D02*
X196335714Y-125196723D01*
X196335714Y-125196723D02*
X196288095Y-125244342D01*
X196288095Y-125244342D02*
X196192857Y-125291961D01*
X196192857Y-125291961D02*
X195811905Y-125291961D01*
X197240476Y-124768152D02*
X197050000Y-124768152D01*
X197050000Y-124768152D02*
X196954762Y-124815771D01*
X196954762Y-124815771D02*
X196907143Y-124863390D01*
X196907143Y-124863390D02*
X196811905Y-125006247D01*
X196811905Y-125006247D02*
X196764286Y-125196723D01*
X196764286Y-125196723D02*
X196764286Y-125577675D01*
X196764286Y-125577675D02*
X196811905Y-125672913D01*
X196811905Y-125672913D02*
X196859524Y-125720533D01*
X196859524Y-125720533D02*
X196954762Y-125768152D01*
X196954762Y-125768152D02*
X197145238Y-125768152D01*
X197145238Y-125768152D02*
X197240476Y-125720533D01*
X197240476Y-125720533D02*
X197288095Y-125672913D01*
X197288095Y-125672913D02*
X197335714Y-125577675D01*
X197335714Y-125577675D02*
X197335714Y-125339580D01*
X197335714Y-125339580D02*
X197288095Y-125244342D01*
X197288095Y-125244342D02*
X197240476Y-125196723D01*
X197240476Y-125196723D02*
X197145238Y-125149104D01*
X197145238Y-125149104D02*
X196954762Y-125149104D01*
X196954762Y-125149104D02*
X196859524Y-125196723D01*
X196859524Y-125196723D02*
X196811905Y-125244342D01*
X196811905Y-125244342D02*
X196764286Y-125339580D01*
X215033333Y-125734819D02*
X214700000Y-125258628D01*
X214461905Y-125734819D02*
X214461905Y-124734819D01*
X214461905Y-124734819D02*
X214842857Y-124734819D01*
X214842857Y-124734819D02*
X214938095Y-124782438D01*
X214938095Y-124782438D02*
X214985714Y-124830057D01*
X214985714Y-124830057D02*
X215033333Y-124925295D01*
X215033333Y-124925295D02*
X215033333Y-125068152D01*
X215033333Y-125068152D02*
X214985714Y-125163390D01*
X214985714Y-125163390D02*
X214938095Y-125211009D01*
X214938095Y-125211009D02*
X214842857Y-125258628D01*
X214842857Y-125258628D02*
X214461905Y-125258628D01*
X215414286Y-124830057D02*
X215461905Y-124782438D01*
X215461905Y-124782438D02*
X215557143Y-124734819D01*
X215557143Y-124734819D02*
X215795238Y-124734819D01*
X215795238Y-124734819D02*
X215890476Y-124782438D01*
X215890476Y-124782438D02*
X215938095Y-124830057D01*
X215938095Y-124830057D02*
X215985714Y-124925295D01*
X215985714Y-124925295D02*
X215985714Y-125020533D01*
X215985714Y-125020533D02*
X215938095Y-125163390D01*
X215938095Y-125163390D02*
X215366667Y-125734819D01*
X215366667Y-125734819D02*
X215985714Y-125734819D01*
X190704819Y-88083333D02*
X191419104Y-88083333D01*
X191419104Y-88083333D02*
X191561961Y-88130952D01*
X191561961Y-88130952D02*
X191657200Y-88226190D01*
X191657200Y-88226190D02*
X191704819Y-88369047D01*
X191704819Y-88369047D02*
X191704819Y-88464285D01*
X191038152Y-87178571D02*
X191704819Y-87178571D01*
X190657200Y-87416666D02*
X191371485Y-87654761D01*
X191371485Y-87654761D02*
X191371485Y-87035714D01*
X204314819Y-88083333D02*
X205029104Y-88083333D01*
X205029104Y-88083333D02*
X205171961Y-88130952D01*
X205171961Y-88130952D02*
X205267200Y-88226190D01*
X205267200Y-88226190D02*
X205314819Y-88369047D01*
X205314819Y-88369047D02*
X205314819Y-88464285D01*
X204410057Y-87654761D02*
X204362438Y-87607142D01*
X204362438Y-87607142D02*
X204314819Y-87511904D01*
X204314819Y-87511904D02*
X204314819Y-87273809D01*
X204314819Y-87273809D02*
X204362438Y-87178571D01*
X204362438Y-87178571D02*
X204410057Y-87130952D01*
X204410057Y-87130952D02*
X204505295Y-87083333D01*
X204505295Y-87083333D02*
X204600533Y-87083333D01*
X204600533Y-87083333D02*
X204743390Y-87130952D01*
X204743390Y-87130952D02*
X205314819Y-87702380D01*
X205314819Y-87702380D02*
X205314819Y-87083333D01*
X203128095Y-110225819D02*
X203128095Y-111035342D01*
X203128095Y-111035342D02*
X203175714Y-111130580D01*
X203175714Y-111130580D02*
X203223333Y-111178200D01*
X203223333Y-111178200D02*
X203318571Y-111225819D01*
X203318571Y-111225819D02*
X203509047Y-111225819D01*
X203509047Y-111225819D02*
X203604285Y-111178200D01*
X203604285Y-111178200D02*
X203651904Y-111130580D01*
X203651904Y-111130580D02*
X203699523Y-111035342D01*
X203699523Y-111035342D02*
X203699523Y-110225819D01*
X204651904Y-110225819D02*
X204175714Y-110225819D01*
X204175714Y-110225819D02*
X204128095Y-110702009D01*
X204128095Y-110702009D02*
X204175714Y-110654390D01*
X204175714Y-110654390D02*
X204270952Y-110606771D01*
X204270952Y-110606771D02*
X204509047Y-110606771D01*
X204509047Y-110606771D02*
X204604285Y-110654390D01*
X204604285Y-110654390D02*
X204651904Y-110702009D01*
X204651904Y-110702009D02*
X204699523Y-110797247D01*
X204699523Y-110797247D02*
X204699523Y-111035342D01*
X204699523Y-111035342D02*
X204651904Y-111130580D01*
X204651904Y-111130580D02*
X204604285Y-111178200D01*
X204604285Y-111178200D02*
X204509047Y-111225819D01*
X204509047Y-111225819D02*
X204270952Y-111225819D01*
X204270952Y-111225819D02*
X204175714Y-111178200D01*
X204175714Y-111178200D02*
X204128095Y-111130580D01*
X193813095Y-110225819D02*
X193813095Y-111035342D01*
X193813095Y-111035342D02*
X193860714Y-111130580D01*
X193860714Y-111130580D02*
X193908333Y-111178200D01*
X193908333Y-111178200D02*
X194003571Y-111225819D01*
X194003571Y-111225819D02*
X194194047Y-111225819D01*
X194194047Y-111225819D02*
X194289285Y-111178200D01*
X194289285Y-111178200D02*
X194336904Y-111130580D01*
X194336904Y-111130580D02*
X194384523Y-111035342D01*
X194384523Y-111035342D02*
X194384523Y-110225819D01*
X195289285Y-110559152D02*
X195289285Y-111225819D01*
X195051190Y-110178200D02*
X194813095Y-110892485D01*
X194813095Y-110892485D02*
X195432142Y-110892485D01*
X205733333Y-125751486D02*
X205400000Y-125275295D01*
X205161905Y-125751486D02*
X205161905Y-124751486D01*
X205161905Y-124751486D02*
X205542857Y-124751486D01*
X205542857Y-124751486D02*
X205638095Y-124799105D01*
X205638095Y-124799105D02*
X205685714Y-124846724D01*
X205685714Y-124846724D02*
X205733333Y-124941962D01*
X205733333Y-124941962D02*
X205733333Y-125084819D01*
X205733333Y-125084819D02*
X205685714Y-125180057D01*
X205685714Y-125180057D02*
X205638095Y-125227676D01*
X205638095Y-125227676D02*
X205542857Y-125275295D01*
X205542857Y-125275295D02*
X205161905Y-125275295D01*
X206066667Y-124751486D02*
X206733333Y-124751486D01*
X206733333Y-124751486D02*
X206304762Y-125751486D01*
X187083333Y-125784819D02*
X186750000Y-125308628D01*
X186511905Y-125784819D02*
X186511905Y-124784819D01*
X186511905Y-124784819D02*
X186892857Y-124784819D01*
X186892857Y-124784819D02*
X186988095Y-124832438D01*
X186988095Y-124832438D02*
X187035714Y-124880057D01*
X187035714Y-124880057D02*
X187083333Y-124975295D01*
X187083333Y-124975295D02*
X187083333Y-125118152D01*
X187083333Y-125118152D02*
X187035714Y-125213390D01*
X187035714Y-125213390D02*
X186988095Y-125261009D01*
X186988095Y-125261009D02*
X186892857Y-125308628D01*
X186892857Y-125308628D02*
X186511905Y-125308628D01*
X187416667Y-124784819D02*
X188035714Y-124784819D01*
X188035714Y-124784819D02*
X187702381Y-125165771D01*
X187702381Y-125165771D02*
X187845238Y-125165771D01*
X187845238Y-125165771D02*
X187940476Y-125213390D01*
X187940476Y-125213390D02*
X187988095Y-125261009D01*
X187988095Y-125261009D02*
X188035714Y-125356247D01*
X188035714Y-125356247D02*
X188035714Y-125594342D01*
X188035714Y-125594342D02*
X187988095Y-125689580D01*
X187988095Y-125689580D02*
X187940476Y-125737200D01*
X187940476Y-125737200D02*
X187845238Y-125784819D01*
X187845238Y-125784819D02*
X187559524Y-125784819D01*
X187559524Y-125784819D02*
X187464286Y-125737200D01*
X187464286Y-125737200D02*
X187416667Y-125689580D01*
X184498095Y-110225819D02*
X184498095Y-111035342D01*
X184498095Y-111035342D02*
X184545714Y-111130580D01*
X184545714Y-111130580D02*
X184593333Y-111178200D01*
X184593333Y-111178200D02*
X184688571Y-111225819D01*
X184688571Y-111225819D02*
X184879047Y-111225819D01*
X184879047Y-111225819D02*
X184974285Y-111178200D01*
X184974285Y-111178200D02*
X185021904Y-111130580D01*
X185021904Y-111130580D02*
X185069523Y-111035342D01*
X185069523Y-111035342D02*
X185069523Y-110225819D01*
X185450476Y-110225819D02*
X186069523Y-110225819D01*
X186069523Y-110225819D02*
X185736190Y-110606771D01*
X185736190Y-110606771D02*
X185879047Y-110606771D01*
X185879047Y-110606771D02*
X185974285Y-110654390D01*
X185974285Y-110654390D02*
X186021904Y-110702009D01*
X186021904Y-110702009D02*
X186069523Y-110797247D01*
X186069523Y-110797247D02*
X186069523Y-111035342D01*
X186069523Y-111035342D02*
X186021904Y-111130580D01*
X186021904Y-111130580D02*
X185974285Y-111178200D01*
X185974285Y-111178200D02*
X185879047Y-111225819D01*
X185879047Y-111225819D02*
X185593333Y-111225819D01*
X185593333Y-111225819D02*
X185498095Y-111178200D01*
X185498095Y-111178200D02*
X185450476Y-111130580D01*
D14*
%TO.C,G\u002A\u002A\u002A*%
G36*
X206490739Y-95402418D02*
G01*
X206702172Y-95418573D01*
X206906116Y-95447736D01*
X207071397Y-95480849D01*
X207207902Y-95512261D01*
X207337943Y-95543830D01*
X207448507Y-95572288D01*
X207526580Y-95594366D01*
X207538272Y-95598099D01*
X207632736Y-95626094D01*
X207744669Y-95654736D01*
X207810591Y-95669527D01*
X207962625Y-95701123D01*
X208099273Y-95617130D01*
X208237380Y-95551493D01*
X208371954Y-95529188D01*
X208508170Y-95551014D01*
X208651206Y-95617773D01*
X208800567Y-95725558D01*
X208881185Y-95785487D01*
X208953948Y-95818886D01*
X209043764Y-95836349D01*
X209067297Y-95839001D01*
X209180343Y-95858133D01*
X209310146Y-95891336D01*
X209441371Y-95933537D01*
X209558679Y-95979662D01*
X209646734Y-96024640D01*
X209664174Y-96036423D01*
X209718411Y-96091342D01*
X209770204Y-96166642D01*
X209783057Y-96190918D01*
X209810329Y-96267010D01*
X209816748Y-96348282D01*
X209801138Y-96445422D01*
X209762323Y-96569120D01*
X209732936Y-96646582D01*
X209704209Y-96733246D01*
X209686240Y-96813982D01*
X209683190Y-96847370D01*
X209661241Y-96956834D01*
X209601971Y-97060346D01*
X209563489Y-97101472D01*
X209515862Y-97131055D01*
X209454511Y-97135787D01*
X209412417Y-97130183D01*
X209352641Y-97123923D01*
X209320846Y-97133457D01*
X209317579Y-97163956D01*
X209343391Y-97220595D01*
X209398830Y-97308546D01*
X209437369Y-97365208D01*
X209621800Y-97643926D01*
X209792545Y-97923623D01*
X209944578Y-98195284D01*
X210072874Y-98449896D01*
X210172407Y-98678444D01*
X210179048Y-98695518D01*
X210230640Y-98816054D01*
X210294920Y-98947875D01*
X210353079Y-99053897D01*
X210413663Y-99158780D01*
X210483957Y-99284822D01*
X210551206Y-99409060D01*
X210567899Y-99440673D01*
X210630470Y-99556744D01*
X210701953Y-99684064D01*
X210777553Y-99814671D01*
X210852475Y-99940602D01*
X210921922Y-100053891D01*
X210981099Y-100146578D01*
X211025212Y-100210697D01*
X211047345Y-100236842D01*
X211070147Y-100265652D01*
X211111927Y-100327473D01*
X211166609Y-100412609D01*
X211228114Y-100511364D01*
X211290367Y-100614044D01*
X211347291Y-100710952D01*
X211373780Y-100757659D01*
X211418524Y-100842561D01*
X211476035Y-100958434D01*
X211539313Y-101090854D01*
X211601361Y-101225397D01*
X211609171Y-101242734D01*
X211666890Y-101367253D01*
X211723591Y-101482501D01*
X211773568Y-101577341D01*
X211811116Y-101640638D01*
X211817931Y-101650280D01*
X211927054Y-101821112D01*
X212033340Y-102040266D01*
X212136303Y-102306609D01*
X212235459Y-102619006D01*
X212240994Y-102638206D01*
X212351433Y-103076970D01*
X212424948Y-103500746D01*
X212463143Y-103924457D01*
X212467623Y-104363025D01*
X212455342Y-104631091D01*
X212445300Y-104796712D01*
X212439548Y-104922340D01*
X212438255Y-105017323D01*
X212441589Y-105091009D01*
X212449720Y-105152745D01*
X212462817Y-105211881D01*
X212466056Y-105224255D01*
X212494802Y-105383467D01*
X212503840Y-105557757D01*
X212493104Y-105725994D01*
X212468033Y-105849631D01*
X212417211Y-105961556D01*
X212335475Y-106078834D01*
X212236433Y-106185154D01*
X212133694Y-106264207D01*
X212112098Y-106276242D01*
X212057838Y-106310597D01*
X212021640Y-106355532D01*
X211992507Y-106426948D01*
X211980258Y-106466871D01*
X211957830Y-106564097D01*
X211938027Y-106686225D01*
X211924758Y-106808660D01*
X211923802Y-106822027D01*
X211898936Y-107099957D01*
X211861784Y-107341983D01*
X211808394Y-107561005D01*
X211734812Y-107769926D01*
X211637082Y-107981648D01*
X211511251Y-108209072D01*
X211485357Y-108252597D01*
X211428390Y-108349293D01*
X211393414Y-108417051D01*
X211376258Y-108468971D01*
X211372752Y-108518153D01*
X211378728Y-108577695D01*
X211379672Y-108584617D01*
X211389695Y-108645118D01*
X211405202Y-108692741D01*
X211433259Y-108736876D01*
X211480933Y-108786913D01*
X211555290Y-108852240D01*
X211624701Y-108910188D01*
X211740581Y-109032065D01*
X211823702Y-109173557D01*
X211870076Y-109324155D01*
X211875714Y-109473345D01*
X211863378Y-109539168D01*
X211817333Y-109639282D01*
X211745788Y-109700244D01*
X211663140Y-109718518D01*
X211605730Y-109726520D01*
X211575812Y-109740739D01*
X211537715Y-109758051D01*
X211472415Y-109773354D01*
X211453268Y-109776272D01*
X211366338Y-109789869D01*
X211265589Y-109808210D01*
X211230461Y-109815251D01*
X211163540Y-109824900D01*
X211058631Y-109834975D01*
X210927240Y-109844592D01*
X210780874Y-109852871D01*
X210685822Y-109857014D01*
X210453305Y-109862306D01*
X210265959Y-109858318D01*
X210120248Y-109844668D01*
X210012635Y-109820973D01*
X209939584Y-109786847D01*
X209923627Y-109774291D01*
X209874972Y-109718977D01*
X209814147Y-109633653D01*
X209750464Y-109532920D01*
X209693237Y-109431377D01*
X209657191Y-109356653D01*
X209625476Y-109291099D01*
X209597400Y-109246852D01*
X209589186Y-109238873D01*
X209554831Y-109237962D01*
X209488176Y-109249922D01*
X209407653Y-109271036D01*
X209214858Y-109328157D01*
X209059118Y-109373698D01*
X208930125Y-109410505D01*
X208817571Y-109441426D01*
X208711147Y-109469306D01*
X208600545Y-109496992D01*
X208507264Y-109519676D01*
X208307400Y-109563200D01*
X208070023Y-109607190D01*
X207807084Y-109649908D01*
X207530533Y-109689615D01*
X207252320Y-109724575D01*
X206984397Y-109753047D01*
X206786699Y-109769899D01*
X206644627Y-109778495D01*
X206465700Y-109786352D01*
X206262573Y-109793089D01*
X206047904Y-109798321D01*
X205834348Y-109801668D01*
X205703391Y-109802646D01*
X205028562Y-109805165D01*
X204980363Y-109884421D01*
X204901467Y-109972368D01*
X204792281Y-110024027D01*
X204652694Y-110040941D01*
X204553736Y-110046238D01*
X204456351Y-110058925D01*
X204422469Y-110065942D01*
X204357388Y-110075637D01*
X204251677Y-110084008D01*
X204114205Y-110090898D01*
X203953843Y-110096152D01*
X203779458Y-110099613D01*
X203599921Y-110101126D01*
X203424100Y-110100535D01*
X203260865Y-110097685D01*
X203119085Y-110092418D01*
X203071479Y-110089673D01*
X202949006Y-110080637D01*
X202837351Y-110070521D01*
X202750150Y-110060668D01*
X202706034Y-110053636D01*
X202626629Y-110014052D01*
X202554822Y-109939790D01*
X202502915Y-109845456D01*
X202488198Y-109794972D01*
X202475826Y-109752414D01*
X202453505Y-109720693D01*
X202414222Y-109697730D01*
X202350967Y-109681447D01*
X202256729Y-109669766D01*
X202124498Y-109660607D01*
X202016356Y-109655094D01*
X201870712Y-109649179D01*
X201761027Y-109647997D01*
X201673897Y-109652444D01*
X201595916Y-109663415D01*
X201513681Y-109681805D01*
X201477991Y-109691067D01*
X201361922Y-109716283D01*
X201232014Y-109732773D01*
X201080799Y-109740774D01*
X200900811Y-109740524D01*
X200684582Y-109732259D01*
X200508080Y-109721860D01*
X200375065Y-109711237D01*
X200283340Y-109698741D01*
X200224683Y-109682816D01*
X200190874Y-109661902D01*
X200190668Y-109661696D01*
X200137444Y-109628024D01*
X200099457Y-109619493D01*
X200051447Y-109596838D01*
X200013968Y-109536426D01*
X199991048Y-109449581D01*
X199986715Y-109347630D01*
X199990124Y-109312048D01*
X200033058Y-109129891D01*
X200109891Y-108982017D01*
X200222432Y-108864999D01*
X200229102Y-108859840D01*
X200253739Y-108839668D01*
X200523346Y-108839668D01*
X200535724Y-108852046D01*
X200548102Y-108839668D01*
X200535724Y-108827290D01*
X200523346Y-108839668D01*
X200253739Y-108839668D01*
X200292825Y-108807666D01*
X200336646Y-108764944D01*
X200350052Y-108743914D01*
X200333626Y-108718689D01*
X200288421Y-108665175D01*
X200220545Y-108590214D01*
X200136104Y-108500652D01*
X200095014Y-108458114D01*
X199994010Y-108351920D01*
X199896352Y-108245011D01*
X199811859Y-108148414D01*
X199750347Y-108073151D01*
X199740355Y-108059844D01*
X199617827Y-107865424D01*
X199508549Y-107640496D01*
X199420403Y-107403772D01*
X199361274Y-107173965D01*
X199356804Y-107149478D01*
X199332068Y-107048617D01*
X199291957Y-106927296D01*
X199244322Y-106808778D01*
X199234792Y-106787905D01*
X199183444Y-106662363D01*
X199135950Y-106519264D01*
X199101853Y-106387646D01*
X199099582Y-106376413D01*
X199075003Y-106251095D01*
X199046011Y-106103829D01*
X199017846Y-105961228D01*
X199010535Y-105924310D01*
X198962366Y-105589067D01*
X198948528Y-105292105D01*
X199087558Y-105292105D01*
X199107643Y-105576888D01*
X199166237Y-105851502D01*
X199260527Y-106104896D01*
X199326313Y-106230751D01*
X199375313Y-106318029D01*
X199401868Y-106373119D01*
X199405464Y-106393292D01*
X199385590Y-106375821D01*
X199343052Y-106319834D01*
X199293806Y-106261904D01*
X199262180Y-106249478D01*
X199249281Y-106281381D01*
X199256221Y-106356436D01*
X199265621Y-106401865D01*
X199316874Y-106560576D01*
X199402464Y-106746499D01*
X199519396Y-106954321D01*
X199664674Y-107178733D01*
X199835304Y-107414420D01*
X199840430Y-107421147D01*
X199911435Y-107517613D01*
X199949573Y-107577512D01*
X199955282Y-107600914D01*
X199928996Y-107587891D01*
X199871155Y-107538513D01*
X199782194Y-107452852D01*
X199733373Y-107403755D01*
X199663138Y-107334080D01*
X199606914Y-107281455D01*
X199572789Y-107253293D01*
X199566490Y-107250748D01*
X199564683Y-107282891D01*
X199579677Y-107348978D01*
X199607653Y-107437939D01*
X199644791Y-107538703D01*
X199687271Y-107640202D01*
X199731272Y-107731364D01*
X199734287Y-107737028D01*
X199900121Y-107997226D01*
X200108237Y-108241049D01*
X200326367Y-108440158D01*
X200444233Y-108533866D01*
X200552250Y-108614537D01*
X200659634Y-108687890D01*
X200775603Y-108759647D01*
X200909371Y-108835526D01*
X201070156Y-108921248D01*
X201253658Y-109015655D01*
X201368242Y-109074271D01*
X201466284Y-109124956D01*
X201539699Y-109163491D01*
X201580408Y-109185657D01*
X201585805Y-109189068D01*
X201593236Y-109203837D01*
X201568379Y-109206011D01*
X201507921Y-109194909D01*
X201408549Y-109169851D01*
X201266948Y-109130158D01*
X201191152Y-109108099D01*
X201055776Y-109068820D01*
X200932514Y-109033864D01*
X200831249Y-109005973D01*
X200761863Y-108987889D01*
X200740217Y-108982993D01*
X200694663Y-108968958D01*
X200682402Y-108954082D01*
X200670433Y-108933281D01*
X200630831Y-108908820D01*
X200590085Y-108891724D01*
X200586554Y-108899359D01*
X200598841Y-108915414D01*
X200613781Y-108945497D01*
X200602107Y-108951072D01*
X200565395Y-108932974D01*
X200560982Y-108927126D01*
X200525221Y-108912356D01*
X200460689Y-108921302D01*
X200379984Y-108950474D01*
X200295705Y-108996386D01*
X200284950Y-109003534D01*
X200225776Y-109049030D01*
X200182624Y-109091377D01*
X200160505Y-109123166D01*
X200164432Y-109136988D01*
X200199414Y-109125435D01*
X200204191Y-109122933D01*
X200254185Y-109105754D01*
X200269879Y-109121046D01*
X200248226Y-109162880D01*
X200233587Y-109180165D01*
X200173298Y-109258022D01*
X200141469Y-109324693D01*
X200142289Y-109370688D01*
X200146843Y-109376673D01*
X200178522Y-109380177D01*
X200204838Y-109353818D01*
X200253843Y-109307359D01*
X200309986Y-109282263D01*
X200351062Y-109285906D01*
X200351677Y-109312134D01*
X200328124Y-109362626D01*
X200313036Y-109386487D01*
X200279072Y-109448282D01*
X200265500Y-109497690D01*
X200266940Y-109508377D01*
X200299729Y-109534016D01*
X200367265Y-109554272D01*
X200454852Y-109566359D01*
X200547795Y-109567492D01*
X200569796Y-109565772D01*
X200626402Y-109553219D01*
X200660373Y-109520161D01*
X200684881Y-109461666D01*
X200721864Y-109372538D01*
X200756559Y-109330619D01*
X200790980Y-109333793D01*
X200799568Y-109341173D01*
X200814720Y-109378328D01*
X200801429Y-109402120D01*
X200779245Y-109449425D01*
X200766581Y-109508383D01*
X200758531Y-109582358D01*
X201067985Y-109575758D01*
X201226969Y-109569837D01*
X201354375Y-109558198D01*
X201468024Y-109538463D01*
X201585739Y-109508254D01*
X201595718Y-109505357D01*
X201705029Y-109474895D01*
X201786512Y-109458150D01*
X201859387Y-109453410D01*
X201942873Y-109458963D01*
X202016576Y-109467884D01*
X202174209Y-109488649D01*
X202290436Y-109503333D01*
X202373089Y-109511070D01*
X202429998Y-109510995D01*
X202468996Y-109502241D01*
X202497913Y-109483943D01*
X202524581Y-109455235D01*
X202556831Y-109415251D01*
X202563289Y-109407442D01*
X202657995Y-109319476D01*
X202784534Y-109236716D01*
X202925399Y-109168502D01*
X203063085Y-109124172D01*
X203110383Y-109115604D01*
X203209408Y-109102422D01*
X203122761Y-109128427D01*
X202967437Y-109188343D01*
X202834453Y-109272566D01*
X202748567Y-109347173D01*
X202664730Y-109438618D01*
X202619217Y-109523792D01*
X202606072Y-109618581D01*
X202613966Y-109706161D01*
X202633563Y-109795717D01*
X202666269Y-109851978D01*
X202721658Y-109881124D01*
X202809305Y-109889333D01*
X202892733Y-109886077D01*
X202983365Y-109878192D01*
X203053759Y-109868219D01*
X203090082Y-109858175D01*
X203091432Y-109857125D01*
X203093682Y-109825891D01*
X203080518Y-109764901D01*
X203066240Y-109720141D01*
X203038286Y-109638849D01*
X203026340Y-109593572D01*
X203028824Y-109574041D01*
X203043155Y-109569980D01*
X203071333Y-109591314D01*
X203105358Y-109645443D01*
X203137469Y-109717553D01*
X203159896Y-109792787D01*
X203177606Y-109860917D01*
X203203195Y-109904306D01*
X203246943Y-109928484D01*
X203319130Y-109938979D01*
X203430036Y-109941323D01*
X203436024Y-109941325D01*
X203544083Y-109939289D01*
X203611603Y-109932195D01*
X203647430Y-109918568D01*
X203658448Y-109904191D01*
X203690052Y-109871281D01*
X203707961Y-109867056D01*
X203746879Y-109887039D01*
X203757473Y-109904191D01*
X203781773Y-109936950D01*
X203793831Y-109941325D01*
X203814114Y-109921414D01*
X203810885Y-109867444D01*
X203785689Y-109788064D01*
X203754048Y-109718518D01*
X203715032Y-109639626D01*
X203696788Y-109594915D01*
X203696787Y-109574875D01*
X203712502Y-109570000D01*
X203714561Y-109569980D01*
X203740197Y-109590321D01*
X203777542Y-109642043D01*
X203818393Y-109711191D01*
X203854553Y-109783812D01*
X203877820Y-109845951D01*
X203878684Y-109849268D01*
X203897825Y-109894033D01*
X203933784Y-109922189D01*
X203994843Y-109935781D01*
X204089278Y-109936857D01*
X204202806Y-109929391D01*
X204304566Y-109919731D01*
X204366489Y-109909487D01*
X204398186Y-109895556D01*
X204409268Y-109874834D01*
X204410091Y-109862464D01*
X204422443Y-109806290D01*
X204428303Y-109793477D01*
X204539891Y-109793477D01*
X204548304Y-109820866D01*
X204567289Y-109839611D01*
X204578118Y-109820966D01*
X204578304Y-109782318D01*
X204573586Y-109774736D01*
X204549777Y-109768967D01*
X204539891Y-109793477D01*
X204428303Y-109793477D01*
X204451597Y-109742540D01*
X204474640Y-109698266D01*
X204477181Y-109662889D01*
X204456425Y-109618223D01*
X204424986Y-109569344D01*
X204381934Y-109497267D01*
X204368630Y-109458876D01*
X204380807Y-109451880D01*
X204414198Y-109473987D01*
X204464535Y-109522905D01*
X204527549Y-109596343D01*
X204564498Y-109644249D01*
X204610015Y-109716281D01*
X204642223Y-109786630D01*
X204646534Y-109800976D01*
X204676632Y-109865833D01*
X204724302Y-109884719D01*
X204791560Y-109858353D01*
X204797194Y-109854740D01*
X204834354Y-109825983D01*
X204851563Y-109792639D01*
X204853526Y-109738358D01*
X204848184Y-109677556D01*
X204809999Y-109520258D01*
X204727592Y-109373015D01*
X204598486Y-109231573D01*
X204577788Y-109213079D01*
X204509571Y-109148610D01*
X204482383Y-109111525D01*
X204495414Y-109102734D01*
X204547852Y-109123150D01*
X204621864Y-109163597D01*
X204767129Y-109275879D01*
X204876573Y-109422036D01*
X204909622Y-109488009D01*
X204956748Y-109564622D01*
X205010818Y-109607577D01*
X205063086Y-109611559D01*
X205087193Y-109595926D01*
X205101815Y-109554865D01*
X205110368Y-109470722D01*
X205112256Y-109349623D01*
X205112120Y-109339715D01*
X205108333Y-109228976D01*
X205098456Y-109138523D01*
X205078828Y-109050815D01*
X205045789Y-108948314D01*
X205010333Y-108852046D01*
X204963119Y-108735099D01*
X204899975Y-108589922D01*
X204827940Y-108432146D01*
X204754055Y-108277404D01*
X204726012Y-108220760D01*
X204652158Y-108071586D01*
X204574279Y-107911165D01*
X204495188Y-107745611D01*
X204417698Y-107581040D01*
X204344621Y-107423566D01*
X204278770Y-107279306D01*
X204222958Y-107154373D01*
X204179997Y-107054883D01*
X204152701Y-106986952D01*
X204143882Y-106956694D01*
X204144208Y-106955876D01*
X204158313Y-106972183D01*
X204187873Y-107024476D01*
X204227948Y-107103624D01*
X204255950Y-107162271D01*
X204323480Y-107305861D01*
X204406890Y-107481936D01*
X204500422Y-107678446D01*
X204598316Y-107883341D01*
X204694814Y-108084574D01*
X204784155Y-108270094D01*
X204860583Y-108427852D01*
X204874266Y-108455945D01*
X204937588Y-108589213D01*
X205004269Y-108735150D01*
X205064369Y-108871772D01*
X205092546Y-108938693D01*
X205137250Y-109052859D01*
X205164916Y-109143005D01*
X205179837Y-109229796D01*
X205186303Y-109333895D01*
X205187674Y-109396686D01*
X205191289Y-109631871D01*
X205834267Y-109630465D01*
X206193869Y-109624635D01*
X206555059Y-109609215D01*
X206911558Y-109584975D01*
X207257087Y-109552682D01*
X207585366Y-109513102D01*
X207890117Y-109467006D01*
X208165060Y-109415159D01*
X208403916Y-109358331D01*
X208600406Y-109297289D01*
X208620856Y-109289711D01*
X208900508Y-109171111D01*
X209142441Y-109039284D01*
X209358070Y-108887078D01*
X209558815Y-108707341D01*
X209572668Y-108693479D01*
X209769495Y-108476406D01*
X209949382Y-108237057D01*
X210117150Y-107967952D01*
X210277617Y-107661611D01*
X210378823Y-107442302D01*
X210427940Y-107333052D01*
X210470043Y-107243265D01*
X210501205Y-107181028D01*
X210517503Y-107154429D01*
X210518683Y-107154141D01*
X210512583Y-107178737D01*
X210489793Y-107240243D01*
X210453617Y-107330272D01*
X210407360Y-107440436D01*
X210389734Y-107481426D01*
X210211533Y-107857979D01*
X210020104Y-108192195D01*
X209811366Y-108490396D01*
X209581238Y-108758904D01*
X209532520Y-108809362D01*
X209452473Y-108892966D01*
X209389133Y-108963562D01*
X209348518Y-109014104D01*
X209336648Y-109037546D01*
X209337156Y-109038062D01*
X209382445Y-109039450D01*
X209457913Y-109011381D01*
X209556700Y-108957255D01*
X209671950Y-108880477D01*
X209707946Y-108854105D01*
X209801283Y-108788646D01*
X209909679Y-108719328D01*
X210023370Y-108651623D01*
X210132594Y-108590999D01*
X210227586Y-108542927D01*
X210298583Y-108512877D01*
X210330268Y-108505458D01*
X210330974Y-108515377D01*
X210295770Y-108540619D01*
X210265019Y-108558110D01*
X210176032Y-108611441D01*
X210074268Y-108681185D01*
X209969793Y-108759377D01*
X209872672Y-108838056D01*
X209792970Y-108909260D01*
X209740752Y-108965026D01*
X209729572Y-108981678D01*
X209721005Y-109030390D01*
X209735102Y-109106657D01*
X209773163Y-109214779D01*
X209836492Y-109359057D01*
X209857054Y-109402598D01*
X209917710Y-109523145D01*
X209970336Y-109605176D01*
X210024893Y-109656304D01*
X210091344Y-109684142D01*
X210179652Y-109696301D01*
X210245215Y-109699180D01*
X210402331Y-109703419D01*
X210516866Y-109705497D01*
X210595732Y-109704667D01*
X210645839Y-109700186D01*
X210674098Y-109691308D01*
X210687421Y-109677290D01*
X210692719Y-109657385D01*
X210693678Y-109650853D01*
X210707112Y-109624646D01*
X210804451Y-109624646D01*
X210808933Y-109643165D01*
X210841720Y-109667852D01*
X210873216Y-109645906D01*
X210882035Y-109627731D01*
X210885034Y-109581675D01*
X210876208Y-109564791D01*
X210847508Y-109561888D01*
X210818429Y-109587851D01*
X210804451Y-109624646D01*
X210707112Y-109624646D01*
X210719463Y-109600551D01*
X210771135Y-109554495D01*
X210774136Y-109552679D01*
X210826777Y-109513101D01*
X210843453Y-109469379D01*
X210826524Y-109407475D01*
X210805778Y-109364511D01*
X210780558Y-109313805D01*
X210779188Y-109300014D01*
X210802305Y-109316316D01*
X210809717Y-109322417D01*
X210847935Y-109369309D01*
X210891917Y-109444351D01*
X210932798Y-109529432D01*
X210961713Y-109606443D01*
X210970278Y-109650438D01*
X210977931Y-109675160D01*
X211007906Y-109687834D01*
X211071254Y-109691628D01*
X211112868Y-109691294D01*
X211238109Y-109684692D01*
X211321085Y-109668555D01*
X211368503Y-109640659D01*
X211386845Y-109600404D01*
X211411235Y-109547365D01*
X211431070Y-109525870D01*
X211490403Y-109525870D01*
X211500268Y-109589333D01*
X211524298Y-109633991D01*
X211544232Y-109644249D01*
X211556430Y-109624528D01*
X211551179Y-109588547D01*
X211528965Y-109533925D01*
X211506717Y-109505099D01*
X211492271Y-109510150D01*
X211490403Y-109525870D01*
X211431070Y-109525870D01*
X211458920Y-109495689D01*
X211459170Y-109495491D01*
X211523649Y-109444772D01*
X211476726Y-109352649D01*
X211438226Y-109275730D01*
X211421728Y-109236671D01*
X211426226Y-109229485D01*
X211450716Y-109248190D01*
X211460646Y-109256922D01*
X211501911Y-109308186D01*
X211543986Y-109382314D01*
X211557100Y-109411556D01*
X211591360Y-109482780D01*
X211618957Y-109517740D01*
X211635758Y-109512593D01*
X211638941Y-109487648D01*
X211650197Y-109461775D01*
X211702502Y-109461775D01*
X211714601Y-109498311D01*
X211748781Y-109539644D01*
X211776170Y-109535720D01*
X211787478Y-109487924D01*
X211787479Y-109487459D01*
X211777924Y-109426260D01*
X211750631Y-109409102D01*
X211722197Y-109424256D01*
X211702502Y-109461775D01*
X211650197Y-109461775D01*
X211655685Y-109449160D01*
X211696210Y-109401052D01*
X211698495Y-109398881D01*
X211738789Y-109350559D01*
X211744307Y-109301064D01*
X211736487Y-109267746D01*
X211673375Y-109133103D01*
X211566245Y-109006268D01*
X211420479Y-108891699D01*
X211241456Y-108793850D01*
X211094301Y-108736022D01*
X211012454Y-108707823D01*
X210973536Y-108691440D01*
X210973344Y-108683514D01*
X211007678Y-108680686D01*
X211024610Y-108680320D01*
X211106804Y-108686405D01*
X211180290Y-108703282D01*
X211182770Y-108704201D01*
X211234845Y-108718534D01*
X211262624Y-108716732D01*
X211264679Y-108687489D01*
X211256527Y-108625407D01*
X211244840Y-108566617D01*
X211214137Y-108429422D01*
X211366290Y-108194546D01*
X211510128Y-107955262D01*
X211620936Y-107728110D01*
X211702963Y-107499981D01*
X211760456Y-107257768D01*
X211797665Y-106988363D01*
X211811141Y-106822027D01*
X211820941Y-106697135D01*
X211832839Y-106585033D01*
X211845342Y-106497889D01*
X211856958Y-106447870D01*
X211857098Y-106447514D01*
X211870241Y-106406887D01*
X211860103Y-106386031D01*
X211816452Y-106375301D01*
X211775185Y-106370305D01*
X211690035Y-106350048D01*
X211614111Y-106315064D01*
X211600314Y-106305393D01*
X211541713Y-106268979D01*
X211491168Y-106252692D01*
X211488963Y-106252631D01*
X211430843Y-106232911D01*
X211363024Y-106182187D01*
X211299164Y-106113115D01*
X211252919Y-106038348D01*
X211249762Y-106030980D01*
X211212275Y-105961376D01*
X211168178Y-105907630D01*
X211163194Y-105903456D01*
X211124613Y-105850257D01*
X211102902Y-105760083D01*
X211100192Y-105735834D01*
X211089764Y-105661132D01*
X211076464Y-105609318D01*
X211068460Y-105595918D01*
X211038991Y-105604156D01*
X211001843Y-105657993D01*
X210958177Y-105754310D01*
X210909156Y-105889988D01*
X210855942Y-106061908D01*
X210799697Y-106266952D01*
X210760993Y-106420908D01*
X210734586Y-106521411D01*
X210716338Y-106575654D01*
X210706841Y-106586309D01*
X210706687Y-106556047D01*
X210716466Y-106487538D01*
X210736770Y-106383454D01*
X210744672Y-106347173D01*
X210773813Y-106209809D01*
X210804226Y-106056265D01*
X210830116Y-105915979D01*
X210833975Y-105893664D01*
X210855601Y-105773107D01*
X210879115Y-105651864D01*
X210900216Y-105551908D01*
X210904717Y-105532362D01*
X210937471Y-105393867D01*
X210841555Y-105198152D01*
X210785766Y-105073203D01*
X210729989Y-104930187D01*
X210685882Y-104799087D01*
X210684232Y-104793517D01*
X210655613Y-104698855D01*
X210631475Y-104623952D01*
X210615585Y-104580301D01*
X210612263Y-104574037D01*
X210584274Y-104574187D01*
X210529909Y-104588565D01*
X210522475Y-104591094D01*
X210446093Y-104610763D01*
X210378862Y-104618298D01*
X210351086Y-104614449D01*
X210358009Y-104600842D01*
X210403730Y-104573544D01*
X210450636Y-104549385D01*
X210586796Y-104480887D01*
X210602194Y-104338415D01*
X210614487Y-104250371D01*
X210627485Y-104196156D01*
X210638961Y-104179794D01*
X210646690Y-104205307D01*
X210648687Y-104254402D01*
X210666115Y-104425124D01*
X210714784Y-104615968D01*
X210789274Y-104813777D01*
X210884162Y-105005396D01*
X210994029Y-105177668D01*
X211066304Y-105267878D01*
X211113130Y-105312379D01*
X211146097Y-105317133D01*
X211172156Y-105278875D01*
X211194753Y-105207567D01*
X211215492Y-105145999D01*
X211233442Y-105129889D01*
X211243635Y-105139883D01*
X211265094Y-105157063D01*
X211297845Y-105141611D01*
X211328182Y-105115065D01*
X211373838Y-105078091D01*
X211389637Y-105078011D01*
X211374458Y-105111397D01*
X211341804Y-105156673D01*
X211299617Y-105230215D01*
X211258279Y-105335182D01*
X211223228Y-105453703D01*
X211199898Y-105567903D01*
X211193327Y-105644872D01*
X211209022Y-105742649D01*
X211259352Y-105807144D01*
X211349180Y-105844220D01*
X211360761Y-105846693D01*
X211436783Y-105844420D01*
X211527250Y-105818002D01*
X211613274Y-105775541D01*
X211675964Y-105725140D01*
X211689744Y-105705580D01*
X211721278Y-105667631D01*
X211750508Y-105660252D01*
X211762722Y-105685681D01*
X211742475Y-105729237D01*
X211689866Y-105785369D01*
X211617091Y-105845064D01*
X211536347Y-105899313D01*
X211459830Y-105939103D01*
X211399738Y-105955424D01*
X211397566Y-105955463D01*
X211352060Y-105968392D01*
X211346952Y-106003374D01*
X211381419Y-106055030D01*
X211418033Y-106089514D01*
X211511763Y-106139112D01*
X211616274Y-106146379D01*
X211722376Y-106114292D01*
X211820877Y-106045827D01*
X211902586Y-105943958D01*
X211910594Y-105930051D01*
X211949759Y-105870719D01*
X211974433Y-105853623D01*
X211982404Y-105873033D01*
X211971459Y-105923219D01*
X211939386Y-105998451D01*
X211938033Y-106001116D01*
X211851377Y-106117565D01*
X211727521Y-106204072D01*
X211700831Y-106216449D01*
X211679762Y-106232800D01*
X211697386Y-106243590D01*
X211743149Y-106248359D01*
X211806496Y-106246648D01*
X211876871Y-106237996D01*
X211928951Y-106226387D01*
X212042366Y-106171320D01*
X212126551Y-106082491D01*
X212172545Y-105969426D01*
X212173023Y-105966931D01*
X212189545Y-105905672D01*
X212208720Y-105869100D01*
X212211143Y-105867173D01*
X212229252Y-105864421D01*
X212230108Y-105893673D01*
X212213648Y-105961661D01*
X212210160Y-105973952D01*
X212197370Y-106040306D01*
X212205268Y-106069174D01*
X212228682Y-106065293D01*
X212262442Y-106033402D01*
X212301375Y-105978236D01*
X212340311Y-105904534D01*
X212370950Y-105826661D01*
X212394549Y-105710364D01*
X212402083Y-105565208D01*
X212394283Y-105408914D01*
X212371877Y-105259199D01*
X212343282Y-105154238D01*
X212327849Y-105105873D01*
X212317741Y-105057524D01*
X212312768Y-105000088D01*
X212312742Y-104924461D01*
X212317472Y-104821541D01*
X212326772Y-104682224D01*
X212331998Y-104610612D01*
X212349966Y-104120814D01*
X212329044Y-103658461D01*
X212268946Y-103219995D01*
X212194231Y-102890568D01*
X212090388Y-102536213D01*
X211982037Y-102230016D01*
X211869318Y-101972320D01*
X211752374Y-101763470D01*
X211696492Y-101682951D01*
X211665177Y-101631519D01*
X211620591Y-101545674D01*
X211568348Y-101436774D01*
X211514064Y-101316173D01*
X211506543Y-101298821D01*
X211410058Y-101082147D01*
X211320801Y-100898877D01*
X211231178Y-100735171D01*
X211133594Y-100577190D01*
X211020455Y-100411095D01*
X211015709Y-100404385D01*
X210920254Y-100274643D01*
X210846255Y-100186022D01*
X210791383Y-100136217D01*
X210753308Y-100122925D01*
X210738589Y-100130435D01*
X210728705Y-100162647D01*
X210721844Y-100225915D01*
X210720437Y-100259535D01*
X210718496Y-100311209D01*
X210714287Y-100328747D01*
X210705741Y-100308265D01*
X210690791Y-100245884D01*
X210675351Y-100174951D01*
X210629294Y-99981509D01*
X210578875Y-99818040D01*
X210517143Y-99665070D01*
X210437150Y-99503127D01*
X210432390Y-99494152D01*
X210345490Y-99337123D01*
X210272001Y-99217620D01*
X210213608Y-99138110D01*
X210171995Y-99101063D01*
X210162505Y-99098579D01*
X210139876Y-99119910D01*
X210118872Y-99173524D01*
X210114705Y-99190886D01*
X210104682Y-99232692D01*
X210097079Y-99242598D01*
X210090028Y-99215706D01*
X210081662Y-99147123D01*
X210075702Y-99088646D01*
X210035727Y-98851631D01*
X209963257Y-98593182D01*
X209863091Y-98324435D01*
X209740027Y-98056525D01*
X209598863Y-97800586D01*
X209444398Y-97567753D01*
X209388859Y-97494766D01*
X209320084Y-97393565D01*
X209262456Y-97283422D01*
X209237630Y-97218880D01*
X209182748Y-97082685D01*
X209096825Y-96922755D01*
X208986025Y-96748025D01*
X208856512Y-96567430D01*
X208824037Y-96526849D01*
X208975038Y-96526849D01*
X208978109Y-96543715D01*
X209001573Y-96583734D01*
X209038588Y-96640064D01*
X209071033Y-96680897D01*
X209083305Y-96680627D01*
X209073647Y-96644111D01*
X209053093Y-96599961D01*
X209019961Y-96548621D01*
X208991016Y-96523810D01*
X208988147Y-96523391D01*
X208975038Y-96526849D01*
X208824037Y-96526849D01*
X208714449Y-96389905D01*
X208566000Y-96224385D01*
X208517078Y-96174338D01*
X208480774Y-96134386D01*
X208746440Y-96134386D01*
X208752463Y-96148221D01*
X208777390Y-96174798D01*
X208791721Y-96169346D01*
X208791962Y-96165886D01*
X208774378Y-96144946D01*
X208763381Y-96137304D01*
X208746440Y-96134386D01*
X208480774Y-96134386D01*
X208422246Y-96069977D01*
X208369822Y-95988032D01*
X208359649Y-95929974D01*
X208378281Y-95929974D01*
X208390807Y-95950555D01*
X208410628Y-95966268D01*
X208464302Y-95996073D01*
X208505400Y-96000669D01*
X208519642Y-95981783D01*
X208498863Y-95942760D01*
X208452378Y-95915905D01*
X208404754Y-95914773D01*
X208378281Y-95929974D01*
X208359649Y-95929974D01*
X208359064Y-95926635D01*
X208389230Y-95883922D01*
X208399206Y-95877936D01*
X208479987Y-95859169D01*
X208581228Y-95870698D01*
X208686513Y-95909780D01*
X208726100Y-95932525D01*
X208817761Y-96010967D01*
X208912549Y-96130862D01*
X209011817Y-96294320D01*
X209116918Y-96503450D01*
X209174541Y-96631443D01*
X209238748Y-96775214D01*
X209289323Y-96879262D01*
X209330045Y-96950214D01*
X209364691Y-96994695D01*
X209395137Y-97018317D01*
X209444907Y-97040861D01*
X209477851Y-97032866D01*
X209514241Y-96993762D01*
X209543742Y-96948154D01*
X209556002Y-96894766D01*
X209554392Y-96815468D01*
X209552222Y-96789522D01*
X209547705Y-96703399D01*
X209554508Y-96658441D01*
X209570374Y-96647173D01*
X209599254Y-96625342D01*
X209633194Y-96568844D01*
X209665762Y-96491171D01*
X209690525Y-96405818D01*
X209694309Y-96387231D01*
X209699103Y-96279995D01*
X209667654Y-96192753D01*
X209596946Y-96122708D01*
X209483964Y-96067066D01*
X209325694Y-96023028D01*
X209294762Y-96016633D01*
X209152167Y-95987257D01*
X209047462Y-95962159D01*
X208969704Y-95937438D01*
X208907950Y-95909199D01*
X208851258Y-95873542D01*
X208812221Y-95844757D01*
X208692424Y-95762903D01*
X208570513Y-95696260D01*
X208458974Y-95650750D01*
X208370294Y-95632295D01*
X208363941Y-95632163D01*
X208302148Y-95643556D01*
X208209740Y-95674749D01*
X208099255Y-95721266D01*
X208051973Y-95743567D01*
X207929984Y-95801602D01*
X207847268Y-95837415D01*
X207799587Y-95852420D01*
X207782708Y-95848030D01*
X207788563Y-95831456D01*
X207791106Y-95814145D01*
X207773648Y-95795956D01*
X207731042Y-95774943D01*
X207658141Y-95749161D01*
X207549798Y-95716664D01*
X207400866Y-95675507D01*
X207315423Y-95652629D01*
X206922859Y-95548216D01*
X206373278Y-95546866D01*
X206182838Y-95547089D01*
X206036679Y-95548998D01*
X205929589Y-95552872D01*
X205856356Y-95558992D01*
X205811769Y-95567638D01*
X205791505Y-95578128D01*
X205774254Y-95608391D01*
X205796951Y-95638217D01*
X205807366Y-95646208D01*
X205833982Y-95670363D01*
X205825687Y-95679584D01*
X205778747Y-95673829D01*
X205689425Y-95653059D01*
X205656292Y-95644541D01*
X205455345Y-95612433D01*
X205227847Y-95614712D01*
X205000788Y-95645365D01*
X204739622Y-95698411D01*
X204513043Y-95756614D01*
X204306127Y-95824515D01*
X204103953Y-95906655D01*
X204027255Y-95941615D01*
X203932470Y-95985202D01*
X203822289Y-96034806D01*
X203754889Y-96064617D01*
X203676068Y-96102012D01*
X203616345Y-96135676D01*
X203590380Y-96156498D01*
X203562361Y-96166222D01*
X203497276Y-96159874D01*
X203390963Y-96136955D01*
X203357423Y-96128569D01*
X203192705Y-96095840D01*
X203055395Y-96092886D01*
X202934043Y-96123104D01*
X202817197Y-96189894D01*
X202693407Y-96296652D01*
X202652391Y-96337819D01*
X202572540Y-96411794D01*
X202466540Y-96498725D01*
X202350512Y-96585787D01*
X202276395Y-96637005D01*
X202114780Y-96753216D01*
X201990441Y-96862144D01*
X201906067Y-96960935D01*
X201864346Y-97046738D01*
X201860188Y-97078550D01*
X201878416Y-97165697D01*
X201926799Y-97258371D01*
X201995887Y-97346576D01*
X202076228Y-97420316D01*
X202158371Y-97469592D01*
X202232866Y-97484410D01*
X202242627Y-97483075D01*
X202288151Y-97482772D01*
X202315791Y-97512524D01*
X202330391Y-97550270D01*
X202379086Y-97638569D01*
X202458562Y-97723223D01*
X202545549Y-97782940D01*
X202643663Y-97810594D01*
X202735064Y-97791394D01*
X202818256Y-97727723D01*
X202891743Y-97621963D01*
X202954029Y-97476497D01*
X203003619Y-97293709D01*
X203012638Y-97238231D01*
X203123549Y-97238231D01*
X203125590Y-97295121D01*
X203134365Y-97308923D01*
X203155973Y-97286057D01*
X203161758Y-97278460D01*
X203196914Y-97218332D01*
X203211814Y-97178639D01*
X203209926Y-97120826D01*
X203189205Y-97060403D01*
X203153964Y-96992475D01*
X203138363Y-97070482D01*
X203127530Y-97152450D01*
X203123549Y-97238231D01*
X203012638Y-97238231D01*
X203039016Y-97075981D01*
X203048715Y-96981384D01*
X203058892Y-96849695D01*
X203066974Y-96716890D01*
X203070419Y-96636406D01*
X203147518Y-96636406D01*
X203156260Y-96669754D01*
X203177896Y-96662117D01*
X203205538Y-96617902D01*
X203216155Y-96592505D01*
X203232267Y-96523738D01*
X203222502Y-96489448D01*
X203200151Y-96492719D01*
X203175040Y-96529163D01*
X203154930Y-96583570D01*
X203147518Y-96636406D01*
X203070419Y-96636406D01*
X203071878Y-96602319D01*
X203072846Y-96550097D01*
X203078812Y-96441286D01*
X203097286Y-96371648D01*
X203114220Y-96345857D01*
X203159218Y-96309001D01*
X203203516Y-96308283D01*
X203258294Y-96345795D01*
X203292867Y-96379296D01*
X203369822Y-96458008D01*
X203311127Y-96558779D01*
X203270016Y-96648598D01*
X203242204Y-96747579D01*
X203228356Y-96844869D01*
X203229136Y-96929617D01*
X203245209Y-96990970D01*
X203277239Y-97018074D01*
X203282982Y-97018518D01*
X203314062Y-97000106D01*
X203362371Y-96952191D01*
X203409467Y-96895282D01*
X203469509Y-96821555D01*
X203504518Y-96788511D01*
X203512643Y-96795356D01*
X203492031Y-96841296D01*
X203449336Y-96912362D01*
X203374548Y-97038816D01*
X203298808Y-97183445D01*
X203229069Y-97331465D01*
X203172284Y-97468092D01*
X203135406Y-97578540D01*
X203134615Y-97581542D01*
X203106755Y-97707598D01*
X203100240Y-97799938D01*
X203116023Y-97869964D01*
X203155057Y-97929078D01*
X203164527Y-97939337D01*
X203231050Y-98008771D01*
X203170717Y-98008924D01*
X203104708Y-98020631D01*
X203039473Y-98046058D01*
X202977101Y-98075980D01*
X202955853Y-98078973D01*
X202975220Y-98054900D01*
X202997316Y-98034971D01*
X203032137Y-97998959D01*
X203039511Y-97962824D01*
X203023088Y-97904942D01*
X203020489Y-97897710D01*
X203003753Y-97837278D01*
X203002562Y-97777262D01*
X203017435Y-97697695D01*
X203026649Y-97661082D01*
X203044460Y-97584352D01*
X203052673Y-97531029D01*
X203050243Y-97513645D01*
X203032461Y-97534097D01*
X203002003Y-97586915D01*
X202975660Y-97639527D01*
X202891026Y-97783115D01*
X202796928Y-97878363D01*
X202694222Y-97925093D01*
X202583763Y-97923122D01*
X202466406Y-97872272D01*
X202343437Y-97772785D01*
X202282116Y-97715389D01*
X202233476Y-97675406D01*
X202210037Y-97662183D01*
X202187655Y-97680617D01*
X202145410Y-97728518D01*
X202091822Y-97794784D01*
X202035413Y-97868311D01*
X201984702Y-97937998D01*
X201948211Y-97992743D01*
X201934457Y-98021261D01*
X201921436Y-98051344D01*
X201889886Y-98100996D01*
X201887782Y-98103975D01*
X201859383Y-98155607D01*
X201821496Y-98240236D01*
X201780172Y-98343850D01*
X201757811Y-98404873D01*
X201674516Y-98640058D01*
X201674516Y-99166280D01*
X201673753Y-99316611D01*
X201671618Y-99444013D01*
X201668340Y-99542489D01*
X201664148Y-99606044D01*
X201659271Y-99628683D01*
X201657002Y-99624272D01*
X201635179Y-99526242D01*
X201612669Y-99403807D01*
X201591853Y-99272685D01*
X201575112Y-99148593D01*
X201564827Y-99047250D01*
X201562733Y-99001971D01*
X201554110Y-98898850D01*
X201529248Y-98841545D01*
X201488406Y-98830588D01*
X201480698Y-98833059D01*
X201440968Y-98862726D01*
X201381627Y-98924399D01*
X201310181Y-99008657D01*
X201234134Y-99106077D01*
X201160992Y-99207237D01*
X201098258Y-99302717D01*
X201074374Y-99343180D01*
X200948201Y-99599468D01*
X200844400Y-99874987D01*
X200769066Y-100151681D01*
X200735023Y-100348245D01*
X200731833Y-100441198D01*
X200739448Y-100559468D01*
X200754621Y-100670077D01*
X200769830Y-100762900D01*
X200779399Y-100835026D01*
X200781789Y-100874286D01*
X200780888Y-100877821D01*
X200767242Y-100863002D01*
X200741783Y-100814508D01*
X200722899Y-100772607D01*
X200690255Y-100706847D01*
X200661048Y-100665265D01*
X200649051Y-100657699D01*
X200620418Y-100679345D01*
X200578475Y-100738686D01*
X200528000Y-100827327D01*
X200473773Y-100936875D01*
X200420573Y-101058935D01*
X200420480Y-101059164D01*
X200316711Y-101368699D01*
X200242710Y-101712472D01*
X200219545Y-101876609D01*
X200203554Y-101989069D01*
X200188775Y-102052184D01*
X200175801Y-102065953D01*
X200165223Y-102030372D01*
X200157635Y-101945438D01*
X200154930Y-101876949D01*
X200147144Y-101807302D01*
X200127236Y-101777408D01*
X200092935Y-101788344D01*
X200041967Y-101841187D01*
X199972062Y-101937012D01*
X199945954Y-101975974D01*
X199782105Y-102249871D01*
X199661466Y-102512594D01*
X199581449Y-102771796D01*
X199539469Y-103035130D01*
X199531417Y-103203031D01*
X199529447Y-103296337D01*
X199524786Y-103345902D01*
X199516214Y-103357476D01*
X199502878Y-103337573D01*
X199475360Y-103295175D01*
X199456000Y-103281871D01*
X199429952Y-103305478D01*
X199404920Y-103371707D01*
X199382198Y-103473666D01*
X199363082Y-103604465D01*
X199348868Y-103757214D01*
X199341973Y-103888401D01*
X199347547Y-104258785D01*
X199392067Y-104601511D01*
X199476333Y-104920485D01*
X199601143Y-105219613D01*
X199623078Y-105262378D01*
X199664204Y-105343901D01*
X199688169Y-105398343D01*
X199692587Y-105419697D01*
X199682077Y-105410916D01*
X199639319Y-105347864D01*
X199584593Y-105250292D01*
X199523501Y-105129969D01*
X199461645Y-104998664D01*
X199404629Y-104868147D01*
X199358055Y-104750187D01*
X199334426Y-104680604D01*
X199307163Y-104591293D01*
X199284994Y-104518814D01*
X199272409Y-104477843D01*
X199271950Y-104476364D01*
X199253092Y-104446824D01*
X199230505Y-104460153D01*
X199205627Y-104509979D01*
X199179900Y-104589930D01*
X199154763Y-104693633D01*
X199131658Y-104814716D01*
X199112024Y-104946807D01*
X199097303Y-105083534D01*
X199088933Y-105218523D01*
X199087558Y-105292105D01*
X198948528Y-105292105D01*
X198946160Y-105241287D01*
X198961326Y-104893877D01*
X199007270Y-104559743D01*
X199083403Y-104251792D01*
X199087847Y-104237763D01*
X199129944Y-104091055D01*
X199153197Y-103965643D01*
X199161527Y-103838855D01*
X199161748Y-103810584D01*
X199177944Y-103589084D01*
X199228818Y-103368729D01*
X199301305Y-103171990D01*
X199339116Y-103070144D01*
X199377749Y-102946096D01*
X199408974Y-102826320D01*
X199409527Y-102823879D01*
X199504254Y-102506083D01*
X199641387Y-102193274D01*
X199814466Y-101898424D01*
X199980689Y-101676758D01*
X200054895Y-101583371D01*
X200103683Y-101505414D01*
X200137080Y-101423750D01*
X200162716Y-101329381D01*
X200227865Y-101111666D01*
X200318666Y-100885433D01*
X200424774Y-100676155D01*
X200435499Y-100657699D01*
X200489761Y-100546981D01*
X200526695Y-100422317D01*
X200545950Y-100314661D01*
X200576861Y-100162207D01*
X200626786Y-99982916D01*
X200690191Y-99792949D01*
X200761538Y-99608465D01*
X200835292Y-99445626D01*
X200860014Y-99397911D01*
X200998080Y-99170133D01*
X201159492Y-98949588D01*
X201275721Y-98814074D01*
X201365508Y-98698259D01*
X201420167Y-98578089D01*
X201427268Y-98554133D01*
X201446866Y-98485605D01*
X201466117Y-98429803D01*
X201490349Y-98377232D01*
X201524889Y-98318397D01*
X201575064Y-98243804D01*
X201646202Y-98143959D01*
X201696217Y-98074808D01*
X201768489Y-97974849D01*
X201833119Y-97885088D01*
X201882836Y-97815650D01*
X201909627Y-97777732D01*
X201957296Y-97714800D01*
X201990085Y-97676082D01*
X202022752Y-97634016D01*
X202033482Y-97610793D01*
X202017537Y-97585975D01*
X201975208Y-97535502D01*
X201914761Y-97469092D01*
X201897036Y-97450350D01*
X201784879Y-97312502D01*
X201720735Y-97184247D01*
X201704252Y-97064596D01*
X201725777Y-96972863D01*
X201779634Y-96885667D01*
X201872810Y-96783184D01*
X201999628Y-96670791D01*
X202154413Y-96553862D01*
X202204947Y-96519045D01*
X202316916Y-96437733D01*
X202437854Y-96340959D01*
X202543499Y-96248232D01*
X202553366Y-96238906D01*
X202681909Y-96124328D01*
X202794322Y-96046591D01*
X202902750Y-96001896D01*
X203019341Y-95986440D01*
X203156243Y-95996424D01*
X203266688Y-96015715D01*
X203481728Y-96058779D01*
X203679779Y-95966643D01*
X203995594Y-95826053D01*
X204285074Y-95712110D01*
X204561206Y-95621367D01*
X204836973Y-95550381D01*
X205125361Y-95495705D01*
X205439356Y-95453895D01*
X205709798Y-95428049D01*
X206004725Y-95407550D01*
X206261648Y-95398874D01*
X206490739Y-95402418D01*
G37*
G36*
X207104877Y-96934008D02*
G01*
X207147526Y-96950893D01*
X207205498Y-96990821D01*
X207274204Y-97051441D01*
X207340240Y-97119246D01*
X207390204Y-97180730D01*
X207409014Y-97214411D01*
X207439319Y-97244513D01*
X207455569Y-97249558D01*
X207519543Y-97269585D01*
X207548467Y-97298757D01*
X207539078Y-97327127D01*
X207488110Y-97344745D01*
X207486853Y-97344895D01*
X207450863Y-97352602D01*
X207425671Y-97372256D01*
X207406072Y-97413720D01*
X207386862Y-97486853D01*
X207370029Y-97566219D01*
X207344615Y-97621585D01*
X207295267Y-97688202D01*
X207266026Y-97719263D01*
X207175331Y-97807355D01*
X207215493Y-97951387D01*
X207242008Y-98062236D01*
X207264437Y-98182775D01*
X207272244Y-98238577D01*
X207286447Y-98326739D01*
X207308645Y-98382347D01*
X207346493Y-98422357D01*
X207359630Y-98432147D01*
X207407174Y-98470525D01*
X207478814Y-98533737D01*
X207563435Y-98611806D01*
X207622258Y-98667843D01*
X207766769Y-98800880D01*
X207905103Y-98912307D01*
X208052262Y-99012775D01*
X208223247Y-99112932D01*
X208329596Y-99170024D01*
X208497313Y-99248291D01*
X208635150Y-99289540D01*
X208746968Y-99292989D01*
X208836629Y-99257855D01*
X208907994Y-99183356D01*
X208964924Y-99068709D01*
X208975523Y-99039119D01*
X209012377Y-98949767D01*
X209047829Y-98908038D01*
X209085179Y-98912267D01*
X209127724Y-98960788D01*
X209128449Y-98961890D01*
X209169770Y-99006488D01*
X209208240Y-99023781D01*
X209233153Y-99030901D01*
X209218443Y-99052817D01*
X209182403Y-99069444D01*
X209127598Y-99053690D01*
X209126844Y-99053348D01*
X209078779Y-99039200D01*
X209067287Y-99054705D01*
X209092400Y-99096104D01*
X209126173Y-99132934D01*
X209164649Y-99181624D01*
X209183204Y-99239765D01*
X209188063Y-99326997D01*
X209188063Y-99328234D01*
X209173870Y-99461108D01*
X209135549Y-99611243D01*
X209079487Y-99756912D01*
X209039303Y-99834298D01*
X209007240Y-99897172D01*
X208990647Y-99946377D01*
X208990013Y-99953090D01*
X209000820Y-99997175D01*
X209028660Y-100064869D01*
X209066657Y-100143057D01*
X209107938Y-100218619D01*
X209145629Y-100278440D01*
X209172855Y-100309400D01*
X209177632Y-100311111D01*
X209209711Y-100290291D01*
X209256841Y-100233780D01*
X209312598Y-100150500D01*
X209370561Y-100049374D01*
X209382563Y-100026413D01*
X209412720Y-99971866D01*
X209431540Y-99945769D01*
X209434533Y-99946778D01*
X209423420Y-99983913D01*
X209392883Y-100049071D01*
X209350271Y-100128625D01*
X209302934Y-100208947D01*
X209258219Y-100276410D01*
X209252795Y-100283775D01*
X209214396Y-100338090D01*
X209203740Y-100372631D01*
X209218653Y-100407078D01*
X209236387Y-100432313D01*
X209281166Y-100486716D01*
X209344709Y-100555254D01*
X209384686Y-100595274D01*
X209444249Y-100648376D01*
X209490874Y-100671722D01*
X209534382Y-100662648D01*
X209584595Y-100618487D01*
X209651335Y-100536571D01*
X209664582Y-100519287D01*
X209809341Y-100295582D01*
X209927477Y-100042449D01*
X209991958Y-99849693D01*
X210019419Y-99754100D01*
X210035986Y-99703808D01*
X210042975Y-99696133D01*
X210041705Y-99728393D01*
X210038922Y-99754093D01*
X210013350Y-99886929D01*
X209967921Y-100038883D01*
X209907768Y-100198359D01*
X209838022Y-100353762D01*
X209763816Y-100493495D01*
X209690280Y-100605964D01*
X209633457Y-100670277D01*
X209590768Y-100724156D01*
X209594982Y-100773509D01*
X209633677Y-100818616D01*
X209674131Y-100870635D01*
X209674811Y-100923306D01*
X209633747Y-100983585D01*
X209570608Y-101041063D01*
X209491906Y-101113951D01*
X209408189Y-101204182D01*
X209358394Y-101265278D01*
X209274732Y-101360241D01*
X209202131Y-101408438D01*
X209186255Y-101413165D01*
X209121054Y-101446482D01*
X209099159Y-101487217D01*
X209075682Y-101537246D01*
X209052527Y-101557641D01*
X209033509Y-101557069D01*
X209037907Y-101525536D01*
X209047581Y-101498149D01*
X209100181Y-101427353D01*
X209168645Y-101388764D01*
X209250640Y-101338170D01*
X209323409Y-101251482D01*
X209338163Y-101228380D01*
X209395312Y-101149918D01*
X209459341Y-101082770D01*
X209494379Y-101055740D01*
X209560574Y-101009250D01*
X209614174Y-100962517D01*
X209617948Y-100958479D01*
X209633072Y-100938510D01*
X209636614Y-100917416D01*
X209624198Y-100888922D01*
X209591449Y-100846755D01*
X209533989Y-100784637D01*
X209447444Y-100696295D01*
X209405890Y-100654414D01*
X209295380Y-100539209D01*
X209204769Y-100433581D01*
X209127720Y-100327352D01*
X209057897Y-100210347D01*
X208988965Y-100072389D01*
X208914588Y-99903301D01*
X208867666Y-99789920D01*
X208784163Y-99623525D01*
X208686470Y-99500367D01*
X208629804Y-99449878D01*
X208583553Y-99419784D01*
X208732075Y-99419784D01*
X208744677Y-99445768D01*
X208764434Y-99466623D01*
X208805712Y-99520949D01*
X208846661Y-99594119D01*
X208853708Y-99609534D01*
X208891032Y-99695343D01*
X208927645Y-99779725D01*
X208931515Y-99788662D01*
X208953890Y-99833809D01*
X208973817Y-99849784D01*
X208996269Y-99832430D01*
X209026220Y-99777595D01*
X209068643Y-99681122D01*
X209073239Y-99670263D01*
X209104871Y-99590157D01*
X209124679Y-99529452D01*
X209128577Y-99500755D01*
X209128298Y-99500403D01*
X209105775Y-99508657D01*
X209065375Y-99544101D01*
X209056625Y-99553287D01*
X209000438Y-99604071D01*
X208959270Y-99610810D01*
X208923048Y-99572142D01*
X208902247Y-99532425D01*
X208848981Y-99443281D01*
X208796367Y-99402644D01*
X208754581Y-99404173D01*
X208732075Y-99419784D01*
X208583553Y-99419784D01*
X208571633Y-99412028D01*
X208508325Y-99385848D01*
X208916039Y-99385848D01*
X208929486Y-99439520D01*
X208966443Y-99502434D01*
X209003202Y-99516080D01*
X209039131Y-99480698D01*
X209073597Y-99396531D01*
X209077683Y-99382893D01*
X209101654Y-99268758D01*
X209097078Y-99191277D01*
X209064243Y-99152184D01*
X209038728Y-99147563D01*
X208986527Y-99169748D01*
X208945040Y-99226581D01*
X208919725Y-99303477D01*
X208916039Y-99385848D01*
X208508325Y-99385848D01*
X208501424Y-99382994D01*
X208408646Y-99358953D01*
X208282767Y-99336080D01*
X208197810Y-99322941D01*
X208015586Y-99293726D01*
X207859093Y-99264671D01*
X207736600Y-99237422D01*
X207665549Y-99216965D01*
X207510457Y-99171472D01*
X207380086Y-99156376D01*
X207258874Y-99173282D01*
X207131260Y-99223797D01*
X207024579Y-99283144D01*
X206941484Y-99332780D01*
X206893032Y-99359463D01*
X206871515Y-99365894D01*
X206869230Y-99354777D01*
X206875998Y-99335251D01*
X206864470Y-99309735D01*
X206817201Y-99290572D01*
X206747699Y-99279042D01*
X206669475Y-99276426D01*
X206596040Y-99284004D01*
X206540902Y-99303055D01*
X206540275Y-99303439D01*
X206410891Y-99380052D01*
X206273746Y-99455254D01*
X206141584Y-99522527D01*
X206027148Y-99575354D01*
X205951173Y-99604734D01*
X205879828Y-99630496D01*
X205832640Y-99652792D01*
X205821250Y-99663246D01*
X205840132Y-99684803D01*
X205889207Y-99724243D01*
X205947072Y-99765550D01*
X206016806Y-99815930D01*
X206052532Y-99852873D01*
X206062793Y-99888260D01*
X206058889Y-99921065D01*
X206056929Y-99964821D01*
X206074645Y-99996896D01*
X206117434Y-100018507D01*
X206190691Y-100030874D01*
X206299812Y-100035214D01*
X206450192Y-100032745D01*
X206539135Y-100029478D01*
X206759191Y-100025927D01*
X206974650Y-100032623D01*
X207177659Y-100048594D01*
X207360367Y-100072869D01*
X207514924Y-100104476D01*
X207633477Y-100142444D01*
X207690305Y-100171925D01*
X207788885Y-100248837D01*
X207876431Y-100342246D01*
X207960823Y-100462100D01*
X208049938Y-100618350D01*
X208061988Y-100641292D01*
X208131395Y-100763610D01*
X208213998Y-100893194D01*
X208295443Y-101007934D01*
X208321880Y-101041552D01*
X208447575Y-101202913D01*
X208539731Y-101337833D01*
X208597127Y-101444326D01*
X208618545Y-101520404D01*
X208618668Y-101525181D01*
X208636701Y-101591529D01*
X208669445Y-101636719D01*
X208702250Y-101662875D01*
X208732106Y-101668247D01*
X208775905Y-101651547D01*
X208826258Y-101624747D01*
X208895269Y-101593383D01*
X208950489Y-101579306D01*
X208967342Y-101580677D01*
X208983243Y-101592176D01*
X208956783Y-101596486D01*
X208905569Y-101612654D01*
X208848230Y-101647953D01*
X208760553Y-101691366D01*
X208672305Y-101686705D01*
X208637235Y-101670726D01*
X208602647Y-101623511D01*
X208593911Y-101563914D01*
X208577769Y-101493211D01*
X208533893Y-101398614D01*
X208469111Y-101291684D01*
X208390253Y-101183981D01*
X208324973Y-101108580D01*
X208276169Y-101059491D01*
X208242381Y-101041765D01*
X208205049Y-101050374D01*
X208171472Y-101066997D01*
X208098359Y-101095766D01*
X207996014Y-101125215D01*
X207883376Y-101151008D01*
X207779383Y-101168812D01*
X207702972Y-101174292D01*
X207702683Y-101174281D01*
X207664197Y-101171036D01*
X207672805Y-101164376D01*
X207690305Y-101159776D01*
X207734779Y-101147229D01*
X207813130Y-101123549D01*
X207912106Y-101092775D01*
X207968814Y-101074838D01*
X208091679Y-101031540D01*
X208167786Y-100994044D01*
X208199315Y-100960634D01*
X208188446Y-100929594D01*
X208170532Y-100916082D01*
X208148835Y-100887369D01*
X208113200Y-100824281D01*
X208069596Y-100737780D01*
X208045144Y-100685856D01*
X207961906Y-100517784D01*
X207884101Y-100392528D01*
X207805744Y-100304721D01*
X207720854Y-100249000D01*
X207623447Y-100220000D01*
X207517011Y-100212310D01*
X207407482Y-100218313D01*
X207251687Y-100236321D01*
X207049178Y-100266399D01*
X206799505Y-100308613D01*
X206564629Y-100351329D01*
X206431452Y-100370558D01*
X206279267Y-100381077D01*
X206096228Y-100383502D01*
X205982321Y-100381710D01*
X205837662Y-100377908D01*
X205731738Y-100373151D01*
X205653780Y-100365660D01*
X205593016Y-100353657D01*
X205538676Y-100335361D01*
X205479989Y-100308996D01*
X205448227Y-100293500D01*
X205340043Y-100232205D01*
X205225636Y-100155073D01*
X205149731Y-100095449D01*
X205065858Y-100014582D01*
X204976568Y-99914817D01*
X204889565Y-99806403D01*
X204812550Y-99699586D01*
X204785463Y-99656222D01*
X204866244Y-99656222D01*
X204892163Y-99716660D01*
X204938941Y-99794350D01*
X205000281Y-99879666D01*
X205069884Y-99962984D01*
X205130822Y-100025030D01*
X205326218Y-100180195D01*
X205526056Y-100287428D01*
X205635529Y-100325605D01*
X205740863Y-100344102D01*
X205883903Y-100352481D01*
X206053995Y-100351233D01*
X206240482Y-100340851D01*
X206432709Y-100321826D01*
X206620020Y-100294650D01*
X206721553Y-100275483D01*
X206836142Y-100250848D01*
X206932166Y-100228620D01*
X206999700Y-100211207D01*
X207028815Y-100201019D01*
X207028945Y-100200899D01*
X207017779Y-100191518D01*
X206965514Y-100187320D01*
X206880253Y-100187969D01*
X206770101Y-100193124D01*
X206643161Y-100202449D01*
X206507537Y-100215604D01*
X206414615Y-100226548D01*
X206164440Y-100254307D01*
X205957740Y-100268134D01*
X205790470Y-100267997D01*
X205658583Y-100253865D01*
X205558033Y-100225707D01*
X205544580Y-100219898D01*
X205409266Y-100143443D01*
X205265867Y-100037868D01*
X205129248Y-99916535D01*
X205257529Y-99916535D01*
X205259080Y-99930431D01*
X205273380Y-99958333D01*
X205308410Y-100000780D01*
X205338094Y-100014035D01*
X205380975Y-100032969D01*
X205392925Y-100047272D01*
X205449617Y-100103234D01*
X205542405Y-100153440D01*
X205657893Y-100193506D01*
X205782684Y-100219053D01*
X205903381Y-100225698D01*
X205932605Y-100223773D01*
X205998261Y-100217719D01*
X206102281Y-100208442D01*
X206233693Y-100196907D01*
X206381526Y-100184077D01*
X206499658Y-100173922D01*
X206643258Y-100161027D01*
X206769866Y-100148512D01*
X206871181Y-100137290D01*
X206938899Y-100128274D01*
X206964243Y-100122811D01*
X206981986Y-100104548D01*
X206966881Y-100090562D01*
X206915900Y-100080579D01*
X206826020Y-100074327D01*
X206694214Y-100071531D01*
X206517457Y-100071917D01*
X206415335Y-100073159D01*
X206231034Y-100075885D01*
X206089409Y-100076675D01*
X205983619Y-100073526D01*
X205906827Y-100064438D01*
X205852194Y-100047409D01*
X205812883Y-100020438D01*
X205782055Y-99981523D01*
X205752871Y-99928661D01*
X205724021Y-99870811D01*
X205684008Y-99807246D01*
X205660370Y-99789419D01*
X205736917Y-99789419D01*
X205759705Y-99857880D01*
X205798098Y-99931732D01*
X205845672Y-99999501D01*
X205891809Y-100047795D01*
X205922774Y-100063547D01*
X205953334Y-100047923D01*
X205980350Y-100024644D01*
X206011537Y-99984988D01*
X206019252Y-99964778D01*
X206027344Y-99924678D01*
X206033200Y-99907469D01*
X206021640Y-99869241D01*
X205964338Y-99816311D01*
X205932933Y-99794041D01*
X205836652Y-99737438D01*
X205771380Y-99717988D01*
X205737881Y-99735408D01*
X205736917Y-99789419D01*
X205660370Y-99789419D01*
X205650046Y-99781633D01*
X205628125Y-99796319D01*
X205623151Y-99831284D01*
X205610168Y-99855337D01*
X205597067Y-99852298D01*
X205565791Y-99858666D01*
X205517644Y-99893638D01*
X205496306Y-99914318D01*
X205442155Y-99962966D01*
X205405424Y-99974050D01*
X205390142Y-99966328D01*
X205354996Y-99951566D01*
X205342963Y-99955886D01*
X205314271Y-99954861D01*
X205285486Y-99937104D01*
X205257529Y-99916535D01*
X205129248Y-99916535D01*
X205127305Y-99914809D01*
X205069493Y-99853118D01*
X205152781Y-99853118D01*
X205165159Y-99865497D01*
X205177537Y-99853118D01*
X205165159Y-99840740D01*
X205152781Y-99853118D01*
X205069493Y-99853118D01*
X205006505Y-99785903D01*
X204965102Y-99729337D01*
X205251806Y-99729337D01*
X205264184Y-99741715D01*
X205276562Y-99729337D01*
X205264184Y-99716959D01*
X205251806Y-99729337D01*
X204965102Y-99729337D01*
X204916390Y-99662784D01*
X204905945Y-99644870D01*
X204880852Y-99620443D01*
X205036012Y-99620443D01*
X205041206Y-99645250D01*
X205042969Y-99649946D01*
X205062581Y-99680262D01*
X205073731Y-99680479D01*
X205070954Y-99654290D01*
X205059942Y-99640101D01*
X205056827Y-99636088D01*
X205036012Y-99620443D01*
X204880852Y-99620443D01*
X204880352Y-99619956D01*
X204867485Y-99622657D01*
X204866244Y-99656222D01*
X204785463Y-99656222D01*
X204753226Y-99604615D01*
X204723523Y-99540817D01*
X205326075Y-99540817D01*
X205326075Y-99640101D01*
X205334864Y-99730393D01*
X205357810Y-99806383D01*
X205389787Y-99854906D01*
X205413875Y-99865497D01*
X205442930Y-99845121D01*
X205477343Y-99794508D01*
X205485848Y-99777763D01*
X205495433Y-99752632D01*
X205573638Y-99752632D01*
X205586564Y-99786504D01*
X205598395Y-99791228D01*
X205622442Y-99773459D01*
X205623151Y-99767932D01*
X205605156Y-99734404D01*
X205598395Y-99729337D01*
X205577201Y-99734949D01*
X205573638Y-99752632D01*
X205495433Y-99752632D01*
X205513204Y-99706041D01*
X205623151Y-99706041D01*
X205636993Y-99738038D01*
X205647907Y-99741715D01*
X205667827Y-99720918D01*
X205672664Y-99690741D01*
X205663134Y-99656510D01*
X205647907Y-99655068D01*
X205625128Y-99690887D01*
X205623151Y-99706041D01*
X205513204Y-99706041D01*
X205514985Y-99701372D01*
X205531320Y-99630283D01*
X205531992Y-99623036D01*
X205530375Y-99580606D01*
X205509233Y-99559598D01*
X205455518Y-99550345D01*
X205431289Y-99548430D01*
X205326075Y-99540817D01*
X204723523Y-99540817D01*
X204719297Y-99531739D01*
X204715632Y-99517909D01*
X204699122Y-99464729D01*
X204678723Y-99430714D01*
X204662410Y-99425578D01*
X204657654Y-99447304D01*
X204649106Y-99466474D01*
X204643270Y-99463263D01*
X204639573Y-99430526D01*
X204664088Y-99388569D01*
X204670876Y-99382748D01*
X204979486Y-99382748D01*
X204991865Y-99395126D01*
X205004243Y-99382748D01*
X204991865Y-99370370D01*
X204979486Y-99382748D01*
X204670876Y-99382748D01*
X204703348Y-99354900D01*
X204733780Y-99345614D01*
X204786357Y-99334640D01*
X204857384Y-99307225D01*
X204880461Y-99296101D01*
X204941935Y-99266007D01*
X204982618Y-99248444D01*
X204989501Y-99246588D01*
X205012919Y-99261964D01*
X205059881Y-99301352D01*
X205095701Y-99333663D01*
X205192894Y-99404201D01*
X205314683Y-99455667D01*
X205469055Y-99490598D01*
X205652701Y-99510748D01*
X205833596Y-99512500D01*
X205999893Y-99487935D01*
X206162653Y-99433449D01*
X206332935Y-99345436D01*
X206503263Y-99233517D01*
X206637138Y-99128586D01*
X206657372Y-99108495D01*
X208080087Y-99108495D01*
X208080673Y-99138760D01*
X208114363Y-99184302D01*
X208172499Y-99233801D01*
X208179806Y-99238860D01*
X208253594Y-99282436D01*
X208302099Y-99293357D01*
X208330476Y-99278964D01*
X208320347Y-99258339D01*
X208276947Y-99221554D01*
X208217462Y-99181549D01*
X208148503Y-99140741D01*
X208098633Y-99114478D01*
X208080087Y-99108495D01*
X206657372Y-99108495D01*
X206753770Y-99012779D01*
X206864774Y-98873333D01*
X206960859Y-98730643D01*
X207026052Y-98630987D01*
X207092222Y-98534352D01*
X207101059Y-98522139D01*
X207204881Y-98522139D01*
X207211347Y-98550746D01*
X207250607Y-98572579D01*
X207294204Y-98578167D01*
X207351489Y-98572944D01*
X207380108Y-98560103D01*
X207380851Y-98557385D01*
X207360095Y-98531193D01*
X207312791Y-98507314D01*
X207261384Y-98495215D01*
X207238502Y-98497338D01*
X207204881Y-98522139D01*
X207101059Y-98522139D01*
X207147532Y-98457912D01*
X207159383Y-98442566D01*
X207205929Y-98377976D01*
X207225702Y-98325224D01*
X207225489Y-98259744D01*
X207220773Y-98220281D01*
X207201256Y-98123483D01*
X207169754Y-98014312D01*
X207150119Y-97959780D01*
X207119216Y-97886764D01*
X207089289Y-97841212D01*
X207046290Y-97810616D01*
X206976177Y-97782470D01*
X206935105Y-97768316D01*
X206791639Y-97704054D01*
X206693816Y-97626280D01*
X206665068Y-97600292D01*
X206860968Y-97600292D01*
X206873346Y-97612670D01*
X206885724Y-97600292D01*
X206873346Y-97587914D01*
X206860968Y-97600292D01*
X206665068Y-97600292D01*
X206625145Y-97564201D01*
X206550605Y-97514308D01*
X206528636Y-97503647D01*
X206436519Y-97444045D01*
X206383887Y-97364487D01*
X206373226Y-97297035D01*
X206464866Y-97297035D01*
X206477221Y-97377798D01*
X206518987Y-97422909D01*
X206597221Y-97439036D01*
X206615468Y-97439376D01*
X206688045Y-97426476D01*
X206720862Y-97386254D01*
X206715064Y-97316420D01*
X206699123Y-97272236D01*
X206682987Y-97204301D01*
X206698152Y-97163958D01*
X206739945Y-97158483D01*
X206765479Y-97168949D01*
X206825461Y-97225874D01*
X206866358Y-97312820D01*
X206880718Y-97411681D01*
X206878421Y-97443405D01*
X206877342Y-97512965D01*
X206893079Y-97540729D01*
X206917555Y-97527701D01*
X206942697Y-97474886D01*
X206952944Y-97434129D01*
X206973565Y-97329857D01*
X207047237Y-97446463D01*
X207099948Y-97524284D01*
X207132718Y-97558512D01*
X207146991Y-97550213D01*
X207146767Y-97519834D01*
X207146766Y-97519830D01*
X207194334Y-97519830D01*
X207209361Y-97545925D01*
X207212770Y-97549838D01*
X207244584Y-97582235D01*
X207255838Y-97576239D01*
X207257069Y-97550779D01*
X207237175Y-97518191D01*
X207218959Y-97513645D01*
X207194334Y-97519830D01*
X207146766Y-97519830D01*
X207133745Y-97472690D01*
X207105845Y-97402362D01*
X207088800Y-97365107D01*
X207045863Y-97255284D01*
X207038118Y-97175885D01*
X207065240Y-97122838D01*
X207069166Y-97119394D01*
X207101149Y-97106596D01*
X207133319Y-97132866D01*
X207143435Y-97146628D01*
X207173476Y-97207803D01*
X207182800Y-97254260D01*
X207198639Y-97316321D01*
X207236824Y-97354107D01*
X207283355Y-97363320D01*
X207324232Y-97339661D01*
X207341558Y-97303002D01*
X207338727Y-97217338D01*
X207291772Y-97131192D01*
X207205427Y-97052088D01*
X207168803Y-97028639D01*
X207100285Y-96992426D01*
X207040042Y-96974343D01*
X206967426Y-96970383D01*
X206889563Y-96974477D01*
X206722002Y-97000298D01*
X206596831Y-97051059D01*
X206513374Y-97127276D01*
X206470952Y-97229463D01*
X206464866Y-97297035D01*
X206373226Y-97297035D01*
X206369440Y-97273083D01*
X206391875Y-97177947D01*
X206449892Y-97087190D01*
X206542187Y-97008924D01*
X206614107Y-96971063D01*
X206732330Y-96934420D01*
X206864869Y-96915602D01*
X206994719Y-96915250D01*
X207104877Y-96934008D01*
G37*
G36*
X207538346Y-96446993D02*
G01*
X207607408Y-96490912D01*
X207707602Y-96519264D01*
X207758113Y-96527129D01*
X207894072Y-96559818D01*
X208053842Y-96622810D01*
X208226631Y-96710998D01*
X208401646Y-96819272D01*
X208457751Y-96858325D01*
X208511189Y-96900167D01*
X208579216Y-96958471D01*
X208655361Y-97027008D01*
X208733156Y-97099549D01*
X208806128Y-97169864D01*
X208867809Y-97231724D01*
X208911727Y-97278899D01*
X208931412Y-97305161D01*
X208921758Y-97305055D01*
X208891676Y-97302405D01*
X208876844Y-97338647D01*
X208876825Y-97416743D01*
X208889223Y-97526039D01*
X208900443Y-97611600D01*
X208907055Y-97674944D01*
X208907721Y-97703105D01*
X208907534Y-97703401D01*
X208884101Y-97696693D01*
X208829895Y-97673136D01*
X208778687Y-97648621D01*
X208683475Y-97605237D01*
X208598180Y-97572893D01*
X208532988Y-97554798D01*
X208498087Y-97554159D01*
X208494886Y-97559255D01*
X208512586Y-97592711D01*
X208559096Y-97647616D01*
X208624527Y-97714531D01*
X208698995Y-97784014D01*
X208772610Y-97846627D01*
X208835488Y-97892930D01*
X208858362Y-97906294D01*
X208923926Y-97943208D01*
X208969544Y-97975888D01*
X208978942Y-97986131D01*
X208978652Y-98000026D01*
X208941367Y-97984479D01*
X208888955Y-97967304D01*
X208867403Y-97982454D01*
X208883395Y-98024595D01*
X208886172Y-98028526D01*
X208916690Y-98079387D01*
X208951034Y-98148241D01*
X208955112Y-98157309D01*
X209000380Y-98232260D01*
X209061828Y-98304007D01*
X209072207Y-98313624D01*
X209114706Y-98353461D01*
X209119652Y-98365540D01*
X209093293Y-98355041D01*
X209038574Y-98337585D01*
X209005554Y-98338343D01*
X208979637Y-98323356D01*
X208939560Y-98270197D01*
X208890713Y-98186184D01*
X208883878Y-98173144D01*
X208813913Y-98055859D01*
X208717556Y-97918541D01*
X208604514Y-97773009D01*
X208484494Y-97631081D01*
X208378971Y-97517268D01*
X208751166Y-97517268D01*
X208757249Y-97570635D01*
X208772675Y-97591818D01*
X208813957Y-97610028D01*
X208834618Y-97592650D01*
X208840422Y-97533551D01*
X208840358Y-97519834D01*
X208830611Y-97434379D01*
X208808570Y-97355372D01*
X208807462Y-97352729D01*
X208789605Y-97313579D01*
X208778479Y-97305197D01*
X208770202Y-97333303D01*
X208760892Y-97403619D01*
X208758347Y-97425092D01*
X208751166Y-97517268D01*
X208378971Y-97517268D01*
X208367202Y-97504574D01*
X208262345Y-97405306D01*
X208234237Y-97382190D01*
X208112553Y-97293550D01*
X208091558Y-97280052D01*
X208258247Y-97280052D01*
X208277017Y-97317813D01*
X208301653Y-97346466D01*
X208375705Y-97409338D01*
X208465595Y-97462821D01*
X208553920Y-97498106D01*
X208618668Y-97506938D01*
X208661265Y-97495438D01*
X208678210Y-97461334D01*
X208680558Y-97416865D01*
X208680558Y-97332463D01*
X208547449Y-97325732D01*
X208456041Y-97316149D01*
X208373406Y-97299355D01*
X208342416Y-97289209D01*
X208280308Y-97270148D01*
X208258247Y-97280052D01*
X208091558Y-97280052D01*
X207962996Y-97197397D01*
X207780599Y-97090788D01*
X207560401Y-96970779D01*
X207393229Y-96883461D01*
X207071397Y-96717643D01*
X206853875Y-96718703D01*
X206756012Y-96720596D01*
X206677975Y-96727518D01*
X206604920Y-96742982D01*
X206521999Y-96770499D01*
X206414367Y-96813582D01*
X206364674Y-96834438D01*
X206187704Y-96915224D01*
X206051574Y-96992380D01*
X205948456Y-97071363D01*
X205870518Y-97157630D01*
X205842997Y-97198001D01*
X205805069Y-97254109D01*
X205777470Y-97287131D01*
X205771419Y-97290838D01*
X205743981Y-97307867D01*
X205692033Y-97353269D01*
X205624074Y-97418516D01*
X205548607Y-97495079D01*
X205474131Y-97574429D01*
X205409149Y-97648037D01*
X205380530Y-97682993D01*
X205340914Y-97740524D01*
X205289404Y-97825339D01*
X205231329Y-97927406D01*
X205172019Y-98036692D01*
X205116804Y-98143165D01*
X205071011Y-98236792D01*
X205039971Y-98307541D01*
X205028999Y-98344743D01*
X205019471Y-98372920D01*
X204994755Y-98431957D01*
X204967444Y-98493106D01*
X204926882Y-98572390D01*
X204892232Y-98613964D01*
X204854967Y-98627477D01*
X204848509Y-98627680D01*
X204784391Y-98644165D01*
X204700309Y-98687642D01*
X204610336Y-98749145D01*
X204528542Y-98819708D01*
X204500312Y-98849548D01*
X204449863Y-98918144D01*
X204395572Y-99008477D01*
X204364152Y-99069826D01*
X204333796Y-99140143D01*
X204314591Y-99204316D01*
X204304143Y-99277201D01*
X204300054Y-99373654D01*
X204299717Y-99469395D01*
X204305231Y-99636544D01*
X204320802Y-99762097D01*
X204341944Y-99839774D01*
X204367979Y-99917165D01*
X204374697Y-99953422D01*
X204363920Y-99946605D01*
X204337472Y-99894772D01*
X204322636Y-99860335D01*
X204291203Y-99749717D01*
X204271764Y-99608934D01*
X204265027Y-99456033D01*
X204271699Y-99309058D01*
X204292489Y-99186055D01*
X204295729Y-99174556D01*
X204378116Y-98975437D01*
X204497431Y-98809252D01*
X204654140Y-98675436D01*
X204759763Y-98613739D01*
X204837541Y-98565650D01*
X204900830Y-98510940D01*
X204941034Y-98459045D01*
X204949560Y-98419401D01*
X204944385Y-98411032D01*
X204913982Y-98412451D01*
X204852373Y-98436337D01*
X204769613Y-98477786D01*
X204675756Y-98531896D01*
X204608864Y-98574663D01*
X204595057Y-98578592D01*
X204612829Y-98552066D01*
X204658509Y-98499404D01*
X204728427Y-98424922D01*
X204787725Y-98364234D01*
X204913846Y-98233697D01*
X205018863Y-98118555D01*
X205099424Y-98022894D01*
X205152178Y-97950803D01*
X205173775Y-97906368D01*
X205171825Y-97895782D01*
X205142830Y-97895852D01*
X205079694Y-97909202D01*
X204994790Y-97932145D01*
X204900492Y-97960990D01*
X204809172Y-97992049D01*
X204733202Y-98021633D01*
X204703429Y-98035435D01*
X204640022Y-98074444D01*
X204597663Y-98112765D01*
X204590879Y-98123977D01*
X204574676Y-98132328D01*
X204547292Y-98097255D01*
X204517760Y-98040080D01*
X204450007Y-97933384D01*
X204379090Y-97874987D01*
X204331950Y-97852671D01*
X204300877Y-97847239D01*
X204472240Y-97847239D01*
X204500146Y-97882152D01*
X204521700Y-97905716D01*
X204576854Y-97955756D01*
X204620970Y-97981303D01*
X204645408Y-97979189D01*
X204643137Y-97950234D01*
X204609548Y-97912784D01*
X204532774Y-97867175D01*
X204472268Y-97838430D01*
X204472240Y-97847239D01*
X204300877Y-97847239D01*
X204291621Y-97845621D01*
X204240954Y-97854481D01*
X204162804Y-97879896D01*
X204152463Y-97883497D01*
X204061461Y-97912558D01*
X203996505Y-97928281D01*
X203962657Y-97930562D01*
X203964980Y-97919299D01*
X204008538Y-97894388D01*
X204026367Y-97886059D01*
X204093394Y-97849355D01*
X204157999Y-97798624D01*
X204202485Y-97752036D01*
X204325357Y-97752036D01*
X204340160Y-97776627D01*
X204368451Y-97771890D01*
X204399826Y-97743656D01*
X204407281Y-97732847D01*
X204558629Y-97732847D01*
X204576582Y-97778835D01*
X204621278Y-97833252D01*
X204637345Y-97847799D01*
X204694994Y-97889400D01*
X204748507Y-97903876D01*
X204823385Y-97897937D01*
X204826244Y-97897511D01*
X204908840Y-97881096D01*
X204979918Y-97860388D01*
X204995047Y-97854279D01*
X205040669Y-97819808D01*
X205090343Y-97761280D01*
X205138633Y-97688904D01*
X205170094Y-97631237D01*
X205277611Y-97631237D01*
X205284515Y-97640103D01*
X205311273Y-97612777D01*
X205352192Y-97555478D01*
X205364606Y-97536189D01*
X205401670Y-97474500D01*
X205413375Y-97439506D01*
X205401768Y-97416665D01*
X205383508Y-97402043D01*
X205356476Y-97387292D01*
X205338217Y-97398053D01*
X205321930Y-97442952D01*
X205308581Y-97497091D01*
X205291680Y-97569659D01*
X205280358Y-97618834D01*
X205277611Y-97631237D01*
X205170094Y-97631237D01*
X205180102Y-97612892D01*
X205209314Y-97543454D01*
X205220833Y-97490800D01*
X205209223Y-97465142D01*
X205202765Y-97464132D01*
X205178758Y-97483327D01*
X205177537Y-97491817D01*
X205157984Y-97530048D01*
X205107203Y-97582693D01*
X205037007Y-97639694D01*
X204959212Y-97690996D01*
X204917596Y-97713077D01*
X204794508Y-97753745D01*
X204686534Y-97753623D01*
X204613650Y-97722670D01*
X204573979Y-97698230D01*
X204560132Y-97706483D01*
X204558629Y-97732847D01*
X204407281Y-97732847D01*
X204437252Y-97689392D01*
X204443945Y-97677436D01*
X204515098Y-97574270D01*
X204615305Y-97465488D01*
X204667101Y-97420040D01*
X204851217Y-97420040D01*
X204861815Y-97435583D01*
X204895975Y-97460747D01*
X204931011Y-97454057D01*
X204966399Y-97430578D01*
X204997263Y-97386294D01*
X204988895Y-97342255D01*
X204946863Y-97316869D01*
X204931622Y-97315594D01*
X204882007Y-97333323D01*
X204851643Y-97374261D01*
X204851217Y-97420040D01*
X204667101Y-97420040D01*
X204728905Y-97365810D01*
X204840233Y-97289956D01*
X204875461Y-97271897D01*
X204971232Y-97234474D01*
X205048651Y-97222113D01*
X205108545Y-97226919D01*
X205171307Y-97235011D01*
X205196984Y-97228368D01*
X205197138Y-97201467D01*
X205193346Y-97186410D01*
X205184826Y-97130326D01*
X205179184Y-97046907D01*
X205177875Y-96987573D01*
X205175521Y-96906319D01*
X205166476Y-96863185D01*
X205147019Y-96846866D01*
X205131048Y-96845224D01*
X205026155Y-96868342D01*
X204910027Y-96935491D01*
X204785938Y-97043361D01*
X204657161Y-97188645D01*
X204526970Y-97368032D01*
X204398637Y-97578215D01*
X204389161Y-97595159D01*
X204341737Y-97691155D01*
X204325357Y-97752036D01*
X204202485Y-97752036D01*
X204226046Y-97727361D01*
X204303403Y-97629061D01*
X204395935Y-97497219D01*
X204449986Y-97416292D01*
X204528881Y-97301062D01*
X204611937Y-97186809D01*
X204688420Y-97087942D01*
X204739838Y-97027208D01*
X204849941Y-96923398D01*
X204974815Y-96832744D01*
X205099772Y-96764682D01*
X205202381Y-96730089D01*
X205285333Y-96690213D01*
X205323193Y-96643574D01*
X205355753Y-96595242D01*
X205380608Y-96573192D01*
X205381777Y-96573061D01*
X205395440Y-96576261D01*
X205396406Y-96592186D01*
X205381709Y-96629843D01*
X205348387Y-96698239D01*
X205326075Y-96742331D01*
X205267901Y-96894747D01*
X205251491Y-97037111D01*
X205277193Y-97163140D01*
X205300316Y-97209178D01*
X205363113Y-97281888D01*
X205444885Y-97337770D01*
X205526521Y-97364384D01*
X205539932Y-97365107D01*
X205605230Y-97345707D01*
X205679165Y-97295962D01*
X205745873Y-97228553D01*
X205783325Y-97170536D01*
X205808110Y-97096547D01*
X205830910Y-96990671D01*
X205849521Y-96869507D01*
X205861735Y-96749654D01*
X205865346Y-96647712D01*
X205860496Y-96589894D01*
X205852427Y-96540324D01*
X205861493Y-96532347D01*
X205891543Y-96556971D01*
X205915249Y-96585827D01*
X205927430Y-96626447D01*
X205930011Y-96691658D01*
X205925603Y-96783779D01*
X205921202Y-96885774D01*
X205925742Y-96944171D01*
X205941649Y-96964456D01*
X205971350Y-96952112D01*
X205992547Y-96935059D01*
X206020225Y-96916776D01*
X206069648Y-96892725D01*
X206145967Y-96860842D01*
X206254333Y-96819064D01*
X206399898Y-96765328D01*
X206563892Y-96706136D01*
X206655363Y-96676370D01*
X206736519Y-96655178D01*
X206786699Y-96647433D01*
X206858736Y-96635408D01*
X206893429Y-96596672D01*
X206900074Y-96535770D01*
X206908790Y-96477594D01*
X206935237Y-96461500D01*
X206959911Y-96475404D01*
X206966700Y-96523509D01*
X206965111Y-96554337D01*
X206965708Y-96618930D01*
X206983047Y-96645264D01*
X206994596Y-96647173D01*
X207028069Y-96658136D01*
X207097073Y-96688450D01*
X207193405Y-96734251D01*
X207308860Y-96791675D01*
X207393228Y-96834934D01*
X207516633Y-96897089D01*
X207626398Y-96948860D01*
X207714391Y-96986688D01*
X207772483Y-97007012D01*
X207790790Y-97009005D01*
X207824212Y-96973055D01*
X207827929Y-96910025D01*
X207804070Y-96830761D01*
X207754763Y-96746107D01*
X207734007Y-96719709D01*
X207675176Y-96653247D01*
X207634766Y-96611861D01*
X207774004Y-96611861D01*
X207775706Y-96637206D01*
X207799545Y-96690920D01*
X207831236Y-96746275D01*
X207886271Y-96855152D01*
X207906611Y-96954684D01*
X207907061Y-96974672D01*
X207909493Y-97056013D01*
X207920791Y-97099294D01*
X207945702Y-97115795D01*
X207967180Y-97117543D01*
X207993186Y-97105533D01*
X207994517Y-97062072D01*
X207991542Y-97045514D01*
X207989474Y-97027815D01*
X208255645Y-97027815D01*
X208281471Y-97063980D01*
X208324075Y-97091414D01*
X208368194Y-97098436D01*
X208386686Y-97090129D01*
X208416001Y-97054675D01*
X208420617Y-97039630D01*
X208399556Y-97011409D01*
X208351131Y-96990514D01*
X208297481Y-96983225D01*
X208261859Y-96994599D01*
X208255645Y-97027815D01*
X207989474Y-97027815D01*
X207986235Y-97000097D01*
X207998925Y-96971362D01*
X208038952Y-96952693D01*
X208115656Y-96937477D01*
X208152016Y-96931875D01*
X208248599Y-96928326D01*
X208350395Y-96950627D01*
X208395079Y-96966431D01*
X208469439Y-96991617D01*
X208523766Y-97004317D01*
X208542923Y-97003246D01*
X208535271Y-96979359D01*
X208494010Y-96936972D01*
X208427998Y-96883042D01*
X208346095Y-96824526D01*
X208257157Y-96768382D01*
X208210393Y-96742071D01*
X208119907Y-96699388D01*
X208019480Y-96660929D01*
X207921709Y-96630450D01*
X207839189Y-96611711D01*
X207784513Y-96608469D01*
X207774004Y-96611861D01*
X207634766Y-96611861D01*
X207622460Y-96599258D01*
X207597706Y-96577590D01*
X207556309Y-96533274D01*
X207515731Y-96470079D01*
X207513720Y-96466187D01*
X207473577Y-96387231D01*
X207538346Y-96446993D01*
G37*
G36*
X200485020Y-103904307D02*
G01*
X200486265Y-103931053D01*
X200483174Y-103996444D01*
X200476376Y-104089865D01*
X200469113Y-104173099D01*
X200458689Y-104515484D01*
X200493086Y-104837091D01*
X200572392Y-105138368D01*
X200696697Y-105419761D01*
X200726450Y-105472807D01*
X200778694Y-105550636D01*
X200852315Y-105644319D01*
X200940483Y-105746805D01*
X201036369Y-105851045D01*
X201133141Y-105949992D01*
X201223971Y-106036595D01*
X201302028Y-106103806D01*
X201360482Y-106144575D01*
X201386097Y-106153606D01*
X201409343Y-106159368D01*
X201424707Y-106183011D01*
X201434931Y-106234072D01*
X201442758Y-106322087D01*
X201445168Y-106359040D01*
X201462276Y-106512046D01*
X201493545Y-106629243D01*
X201513498Y-106674683D01*
X201645524Y-106886083D01*
X201809354Y-107060178D01*
X202003599Y-107195660D01*
X202132675Y-107257265D01*
X202215748Y-107289787D01*
X202266795Y-107304091D01*
X202299268Y-107301533D01*
X202326619Y-107283471D01*
X202333332Y-107277509D01*
X202367659Y-107249952D01*
X202379021Y-107259804D01*
X202380071Y-107288560D01*
X202394675Y-107331867D01*
X202417206Y-107341910D01*
X202443084Y-107320501D01*
X202453756Y-107264547D01*
X202449725Y-107186458D01*
X202431494Y-107098642D01*
X202404284Y-107023563D01*
X202371913Y-106951007D01*
X202358933Y-106914134D01*
X202364227Y-106903556D01*
X202386681Y-106909891D01*
X202390964Y-106911530D01*
X202442639Y-106953851D01*
X202491514Y-107034061D01*
X202531172Y-107140670D01*
X202541440Y-107180994D01*
X202568733Y-107268310D01*
X202607151Y-107321414D01*
X202636929Y-107341910D01*
X202685854Y-107364868D01*
X202712270Y-107359615D01*
X202729451Y-107335200D01*
X202761539Y-107305294D01*
X202789173Y-107318815D01*
X202800929Y-107370169D01*
X202800929Y-107370190D01*
X202810455Y-107408407D01*
X202834188Y-107407134D01*
X202864854Y-107371491D01*
X202895182Y-107306602D01*
X202896491Y-107302881D01*
X202912043Y-107212582D01*
X202910732Y-107096547D01*
X202894121Y-106974996D01*
X202863774Y-106868147D01*
X202862656Y-106865350D01*
X202855006Y-106827772D01*
X202871376Y-106823423D01*
X202903346Y-106848132D01*
X202942492Y-106897726D01*
X202949190Y-106908226D01*
X202983100Y-106984640D01*
X203009051Y-107081367D01*
X203016422Y-107129659D01*
X203033932Y-107224798D01*
X203064032Y-107274619D01*
X203109893Y-107282410D01*
X203148744Y-107266985D01*
X203193933Y-107232542D01*
X203226469Y-107179822D01*
X203248787Y-107100719D01*
X203263323Y-106987126D01*
X203271299Y-106859161D01*
X203283677Y-106586842D01*
X203332306Y-106658672D01*
X203370046Y-106749246D01*
X203380934Y-106862912D01*
X203387583Y-106949350D01*
X203404962Y-106991909D01*
X203429222Y-106994029D01*
X203456514Y-106959149D01*
X203482987Y-106890707D01*
X203504792Y-106792144D01*
X203511165Y-106746572D01*
X203510476Y-106642275D01*
X203490382Y-106506541D01*
X203453984Y-106352036D01*
X203404383Y-106191427D01*
X203344679Y-106037378D01*
X203328944Y-106002252D01*
X203241901Y-105813763D01*
X203305619Y-105679074D01*
X203346723Y-105576202D01*
X203380590Y-105463864D01*
X203392316Y-105409570D01*
X203401431Y-105362080D01*
X203407579Y-105347897D01*
X203411136Y-105370712D01*
X203412478Y-105434214D01*
X203411982Y-105542092D01*
X203411377Y-105596588D01*
X203411288Y-105745616D01*
X203417298Y-105847387D01*
X203432492Y-105904067D01*
X203459955Y-105917820D01*
X203502771Y-105890810D01*
X203564025Y-105825202D01*
X203627108Y-105747973D01*
X203735574Y-105597620D01*
X203827796Y-105436285D01*
X203908201Y-105254071D01*
X203981216Y-105041086D01*
X204043795Y-104816764D01*
X204078828Y-104684314D01*
X204111456Y-104567928D01*
X204139046Y-104476485D01*
X204158964Y-104418864D01*
X204166170Y-104404178D01*
X204181984Y-104366865D01*
X204201612Y-104295347D01*
X204221082Y-104204316D01*
X204223042Y-104193749D01*
X204256196Y-104012183D01*
X204258874Y-104154532D01*
X204262935Y-104231028D01*
X204270694Y-104282700D01*
X204278171Y-104296881D01*
X204307363Y-104282318D01*
X204344742Y-104253557D01*
X204373443Y-104230301D01*
X204374620Y-104236906D01*
X204347579Y-104278057D01*
X204339349Y-104289943D01*
X204297819Y-104345074D01*
X204265007Y-104380746D01*
X204260224Y-104384349D01*
X204216951Y-104436310D01*
X204177737Y-104534501D01*
X204143631Y-104675734D01*
X204122972Y-104801245D01*
X204091779Y-105000041D01*
X204057333Y-105164471D01*
X204015421Y-105309672D01*
X203961827Y-105450780D01*
X203910071Y-105565906D01*
X203807477Y-105782788D01*
X203836587Y-105940769D01*
X203855221Y-106021291D01*
X203886681Y-106135381D01*
X203927133Y-106269984D01*
X203972739Y-106412044D01*
X203991070Y-106466578D01*
X204035067Y-106596685D01*
X204073808Y-106713176D01*
X204104220Y-106806664D01*
X204123231Y-106867761D01*
X204127661Y-106883918D01*
X204131271Y-106911446D01*
X204120802Y-106897447D01*
X204098325Y-106847197D01*
X204065911Y-106765976D01*
X204025629Y-106659059D01*
X203979551Y-106531725D01*
X203929747Y-106389251D01*
X203904276Y-106314522D01*
X203858201Y-106179065D01*
X203817380Y-106060740D01*
X203784492Y-105967174D01*
X203762215Y-105905999D01*
X203753429Y-105884914D01*
X203732810Y-105895479D01*
X203690909Y-105932918D01*
X203638201Y-105986119D01*
X203585160Y-106043971D01*
X203542263Y-106095361D01*
X203519985Y-106129179D01*
X203518863Y-106133737D01*
X203524746Y-106169424D01*
X203540065Y-106237281D01*
X203558511Y-106310948D01*
X203580246Y-106432954D01*
X203589308Y-106572086D01*
X203586236Y-106713175D01*
X203571568Y-106841050D01*
X203545842Y-106940542D01*
X203535336Y-106963957D01*
X203484341Y-107031002D01*
X203419395Y-107082178D01*
X203417468Y-107083194D01*
X203352506Y-107136496D01*
X203305834Y-107208153D01*
X203243201Y-107298347D01*
X203148930Y-107362444D01*
X203038094Y-107390765D01*
X203020578Y-107391330D01*
X202948706Y-107402037D01*
X202899855Y-107428743D01*
X202898599Y-107430189D01*
X202862598Y-107461487D01*
X202808571Y-107497794D01*
X202755443Y-107527483D01*
X202722139Y-107538926D01*
X202721700Y-107538874D01*
X202695945Y-107530674D01*
X202641313Y-107511686D01*
X202624662Y-107505762D01*
X202549701Y-107487909D01*
X202450977Y-107475653D01*
X202380297Y-107472280D01*
X202214340Y-107448337D01*
X202041518Y-107383495D01*
X201870924Y-107283724D01*
X201711653Y-107154994D01*
X201572797Y-107003276D01*
X201495486Y-106891362D01*
X201451792Y-106804009D01*
X201407082Y-106689806D01*
X201366413Y-106564908D01*
X201334842Y-106445471D01*
X201317426Y-106347652D01*
X201315549Y-106316487D01*
X201293950Y-106267265D01*
X201231479Y-106200147D01*
X201178244Y-106154918D01*
X200947662Y-105944213D01*
X200747114Y-105706463D01*
X200582628Y-105450091D01*
X200460233Y-105183520D01*
X200438580Y-105121375D01*
X200399383Y-104959783D01*
X200375027Y-104769233D01*
X200367037Y-104568454D01*
X200376938Y-104376178D01*
X200377482Y-104371150D01*
X200391088Y-104270527D01*
X200409480Y-104165161D01*
X200430272Y-104065404D01*
X200451081Y-103981609D01*
X200469520Y-103924130D01*
X200483206Y-103903318D01*
X200485020Y-103904307D01*
G37*
G36*
X206799077Y-95971275D02*
G01*
X206947875Y-95973584D01*
X207060032Y-95979925D01*
X207148352Y-95991755D01*
X207225637Y-96010532D01*
X207269447Y-96024828D01*
X207332854Y-96048608D01*
X207360408Y-96062337D01*
X207346774Y-96063291D01*
X207343716Y-96062729D01*
X207273394Y-96053687D01*
X207169919Y-96045738D01*
X207045995Y-96039275D01*
X206914325Y-96034690D01*
X206787614Y-96032373D01*
X206678566Y-96032717D01*
X206599884Y-96036114D01*
X206576025Y-96039055D01*
X206497074Y-96067035D01*
X206422315Y-96114804D01*
X206365714Y-96171100D01*
X206341237Y-96224659D01*
X206341085Y-96228516D01*
X206338175Y-96263975D01*
X206324104Y-96270375D01*
X206290860Y-96245240D01*
X206242337Y-96198028D01*
X206164536Y-96120227D01*
X205862898Y-96134471D01*
X205672625Y-96149126D01*
X205492265Y-96173486D01*
X205350831Y-96202591D01*
X205211319Y-96245863D01*
X205055609Y-96306254D01*
X204900586Y-96376243D01*
X204763138Y-96448309D01*
X204676221Y-96503083D01*
X204630865Y-96532293D01*
X204608605Y-96540628D01*
X204608141Y-96539564D01*
X204627911Y-96515510D01*
X204680290Y-96473917D01*
X204754882Y-96421781D01*
X204841291Y-96366099D01*
X204929121Y-96313868D01*
X204999090Y-96276435D01*
X205119481Y-96222463D01*
X205244509Y-96179590D01*
X205385416Y-96145056D01*
X205553444Y-96116102D01*
X205757976Y-96090177D01*
X205899985Y-96072733D01*
X205999083Y-96056548D01*
X206061795Y-96040180D01*
X206094649Y-96022188D01*
X206100764Y-96014443D01*
X206120642Y-95990583D01*
X206146846Y-95999093D01*
X206178427Y-96026629D01*
X206233799Y-96078647D01*
X206355522Y-96024229D01*
X206413260Y-96001148D01*
X206471847Y-95985686D01*
X206542877Y-95976458D01*
X206637948Y-95972080D01*
X206768656Y-95971168D01*
X206799077Y-95971275D01*
G37*
G36*
X203580753Y-100648665D02*
G01*
X203717872Y-100730015D01*
X203892777Y-100824807D01*
X204096992Y-100928832D01*
X204322043Y-101037880D01*
X204559456Y-101147744D01*
X204795893Y-101252122D01*
X204964548Y-101326101D01*
X205094211Y-101385970D01*
X205183164Y-101430853D01*
X205229692Y-101459871D01*
X205232079Y-101472148D01*
X205227050Y-101472518D01*
X205185692Y-101463473D01*
X205115431Y-101439900D01*
X205044527Y-101412196D01*
X204938606Y-101370544D01*
X204816891Y-101326021D01*
X204735073Y-101298026D01*
X204636499Y-101263454D01*
X204513489Y-101217114D01*
X204387006Y-101166990D01*
X204338915Y-101147158D01*
X204223193Y-101101083D01*
X204145039Y-101076016D01*
X204098030Y-101070247D01*
X204078973Y-101077921D01*
X204061723Y-101116020D01*
X204045077Y-101186848D01*
X204034567Y-101259259D01*
X204026730Y-101329328D01*
X204022341Y-101358012D01*
X204020945Y-101343131D01*
X204022089Y-101282510D01*
X204024223Y-101209582D01*
X204025454Y-101103271D01*
X204020420Y-101037293D01*
X204007908Y-101002726D01*
X203994693Y-100992681D01*
X203940010Y-100963762D01*
X203858511Y-100911206D01*
X203761401Y-100843096D01*
X203659881Y-100767515D01*
X203565155Y-100692546D01*
X203494106Y-100631493D01*
X203357946Y-100507284D01*
X203580753Y-100648665D01*
G37*
G36*
X208828934Y-103031287D02*
G01*
X208794672Y-103054658D01*
X208728645Y-103092534D01*
X208633848Y-103142745D01*
X208556978Y-103181587D01*
X208398992Y-103254955D01*
X208256394Y-103307871D01*
X208104428Y-103348869D01*
X208017712Y-103367461D01*
X207861398Y-103395265D01*
X207698116Y-103417977D01*
X207540366Y-103434395D01*
X207400650Y-103443316D01*
X207291470Y-103443536D01*
X207257069Y-103440662D01*
X207204778Y-103435044D01*
X207118594Y-103426822D01*
X207013974Y-103417450D01*
X206972371Y-103413870D01*
X206749564Y-103394930D01*
X207145666Y-103378375D01*
X207305959Y-103369633D01*
X207472561Y-103357065D01*
X207628628Y-103342158D01*
X207757316Y-103326400D01*
X207789330Y-103321524D01*
X207956811Y-103289837D01*
X208139898Y-103247791D01*
X208324549Y-103199218D01*
X208496724Y-103147951D01*
X208642382Y-103097822D01*
X208711168Y-103069904D01*
X208790178Y-103036740D01*
X208828434Y-103024591D01*
X208828934Y-103031287D01*
G37*
G36*
X206286481Y-97410942D02*
G01*
X206287029Y-97411288D01*
X206290778Y-97431055D01*
X206252509Y-97461642D01*
X206182408Y-97499087D01*
X206081883Y-97555737D01*
X206007592Y-97619953D01*
X205939466Y-97709753D01*
X205927872Y-97727581D01*
X205904727Y-97754736D01*
X205896927Y-97751005D01*
X205911228Y-97699988D01*
X205951110Y-97632196D01*
X206004810Y-97563366D01*
X206060565Y-97509232D01*
X206092575Y-97489280D01*
X206144232Y-97458504D01*
X206167665Y-97426022D01*
X206167790Y-97423994D01*
X206187265Y-97396832D01*
X206233115Y-97391812D01*
X206286481Y-97410942D01*
G37*
G36*
X204509244Y-102795390D02*
G01*
X204516998Y-102827936D01*
X204527274Y-102953513D01*
X204516421Y-103050743D01*
X204505413Y-103103315D01*
X204498528Y-103122520D01*
X204494847Y-103104253D01*
X204493455Y-103044406D01*
X204493411Y-102947660D01*
X204494208Y-102846396D01*
X204496531Y-102790213D01*
X204501252Y-102774687D01*
X204509244Y-102795390D01*
G37*
G36*
X207696914Y-97328175D02*
G01*
X207760002Y-97360976D01*
X207827612Y-97401608D01*
X207902240Y-97451463D01*
X207933393Y-97478065D01*
X207921356Y-97481329D01*
X207866413Y-97461166D01*
X207771519Y-97418737D01*
X207683315Y-97373595D01*
X207636373Y-97340238D01*
X207632616Y-97320454D01*
X207660507Y-97315594D01*
X207696914Y-97328175D01*
G37*
G36*
X210635885Y-106828913D02*
G01*
X210635343Y-106831671D01*
X210614144Y-106907220D01*
X210585713Y-106980209D01*
X210564538Y-107022767D01*
X210560226Y-107020630D01*
X210565832Y-106995321D01*
X210585890Y-106929099D01*
X210613403Y-106852075D01*
X210615462Y-106846783D01*
X210636018Y-106796727D01*
X210642028Y-106791376D01*
X210635885Y-106828913D01*
G37*
G36*
X210563094Y-102580364D02*
G01*
X210593590Y-102630928D01*
X210602059Y-102646731D01*
X210630543Y-102706557D01*
X210643285Y-102745400D01*
X210642536Y-102751635D01*
X210627047Y-102738149D01*
X210600344Y-102692598D01*
X210591233Y-102674190D01*
X210560807Y-102604805D01*
X210551796Y-102572593D01*
X210563094Y-102580364D01*
G37*
G36*
X209525827Y-99149967D02*
G01*
X209527052Y-99154223D01*
X209530676Y-99208150D01*
X209526134Y-99228492D01*
X209518007Y-99229315D01*
X209514688Y-99190560D01*
X209514722Y-99184697D01*
X209518292Y-99146301D01*
X209525827Y-99149967D01*
G37*
G36*
X209527367Y-99463206D02*
G01*
X209531463Y-99535346D01*
X209527367Y-99574610D01*
X209521245Y-99586341D01*
X209517361Y-99555238D01*
X209516638Y-99518908D01*
X209518570Y-99465364D01*
X209523507Y-99450665D01*
X209527367Y-99463206D01*
G37*
G36*
X210640920Y-106120084D02*
G01*
X210636309Y-106128849D01*
X210612983Y-106152492D01*
X210608631Y-106153606D01*
X210606941Y-106137614D01*
X210611553Y-106128849D01*
X210634878Y-106105207D01*
X210639231Y-106104093D01*
X210640920Y-106120084D01*
G37*
G36*
X210768643Y-103104779D02*
G01*
X210783079Y-103147479D01*
X210791806Y-103199292D01*
X210789025Y-103224054D01*
X210776295Y-103211400D01*
X210761859Y-103168699D01*
X210753132Y-103116886D01*
X210755913Y-103092124D01*
X210768643Y-103104779D01*
G37*
G36*
X211358852Y-104928797D02*
G01*
X211345022Y-104946734D01*
X211308888Y-104985223D01*
X211292758Y-104985055D01*
X211292352Y-104980711D01*
X211309270Y-104960046D01*
X211335675Y-104937388D01*
X211364999Y-104915977D01*
X211358852Y-104928797D01*
G37*
G36*
X204215062Y-101953075D02*
G01*
X204231463Y-101994097D01*
X204229746Y-102009844D01*
X204212859Y-102001018D01*
X204202720Y-101981206D01*
X204188694Y-101934198D01*
X204194453Y-101924820D01*
X204215062Y-101953075D01*
G37*
G36*
X204388356Y-102373932D02*
G01*
X204404758Y-102414955D01*
X204403040Y-102430702D01*
X204386153Y-102421876D01*
X204376015Y-102402064D01*
X204361988Y-102355056D01*
X204367747Y-102345677D01*
X204388356Y-102373932D01*
G37*
G36*
X209258507Y-98464400D02*
G01*
X209284876Y-98487413D01*
X209287089Y-98492981D01*
X209275340Y-98503156D01*
X209250879Y-98480356D01*
X209247590Y-98475317D01*
X209244672Y-98458376D01*
X209258507Y-98464400D01*
G37*
G36*
X209385926Y-98642636D02*
G01*
X209389186Y-98645834D01*
X209408741Y-98678293D01*
X209406089Y-98690226D01*
X209387674Y-98682796D01*
X209375328Y-98659693D01*
X209367790Y-98630771D01*
X209385926Y-98642636D01*
G37*
G36*
X210450448Y-102380842D02*
G01*
X210453708Y-102384041D01*
X210473263Y-102416500D01*
X210470612Y-102428432D01*
X210452196Y-102421003D01*
X210439850Y-102397900D01*
X210432313Y-102368977D01*
X210450448Y-102380842D01*
G37*
G36*
X201703805Y-99737073D02*
G01*
X201706756Y-99775764D01*
X201701851Y-99784523D01*
X201690599Y-99777139D01*
X201688848Y-99752030D01*
X201694894Y-99725614D01*
X201703805Y-99737073D01*
G37*
G36*
X203238291Y-108885055D02*
G01*
X203234892Y-108899772D01*
X203221787Y-108901559D01*
X203201409Y-108892501D01*
X203205282Y-108885055D01*
X203234662Y-108882092D01*
X203238291Y-108885055D01*
G37*
G36*
X203312560Y-108860298D02*
G01*
X203309161Y-108875016D01*
X203296056Y-108876803D01*
X203275678Y-108867745D01*
X203279551Y-108860298D01*
X203308931Y-108857336D01*
X203312560Y-108860298D01*
G37*
G36*
X203450783Y-108835651D02*
G01*
X203453893Y-108844687D01*
X203419837Y-108848137D01*
X203384692Y-108844247D01*
X203388892Y-108835651D01*
X203439577Y-108832381D01*
X203450783Y-108835651D01*
G37*
G36*
X203599321Y-108810894D02*
G01*
X203602431Y-108819930D01*
X203568375Y-108823381D01*
X203533230Y-108819491D01*
X203537430Y-108810894D01*
X203588115Y-108807625D01*
X203599321Y-108810894D01*
G37*
G36*
X204055657Y-101470017D02*
G01*
X204058608Y-101508708D01*
X204053703Y-101517466D01*
X204042451Y-101510083D01*
X204040700Y-101484974D01*
X204046746Y-101458558D01*
X204055657Y-101470017D01*
G37*
G36*
X204080006Y-101581936D02*
G01*
X204082969Y-101611316D01*
X204080006Y-101614944D01*
X204065289Y-101611546D01*
X204063502Y-101598440D01*
X204072560Y-101578063D01*
X204080006Y-101581936D01*
G37*
G36*
X204277948Y-103919347D02*
G01*
X204281218Y-103970031D01*
X204277948Y-103981237D01*
X204268912Y-103984347D01*
X204265462Y-103950292D01*
X204269352Y-103915147D01*
X204277948Y-103919347D01*
G37*
G36*
X204302813Y-103760493D02*
G01*
X204305776Y-103789873D01*
X204302813Y-103793502D01*
X204288096Y-103790103D01*
X204286309Y-103776998D01*
X204295367Y-103756620D01*
X204302813Y-103760493D01*
G37*
G36*
X204327570Y-103661468D02*
G01*
X204330532Y-103690848D01*
X204327570Y-103694476D01*
X204312852Y-103691078D01*
X204311065Y-103677972D01*
X204320123Y-103657595D01*
X204327570Y-103661468D01*
G37*
G36*
X204377489Y-103500036D02*
G01*
X204380441Y-103538727D01*
X204375535Y-103547486D01*
X204364283Y-103540102D01*
X204362532Y-103514993D01*
X204368578Y-103488577D01*
X204377489Y-103500036D01*
G37*
G36*
X204401839Y-103413905D02*
G01*
X204404801Y-103443285D01*
X204401839Y-103446913D01*
X204387121Y-103443515D01*
X204385334Y-103430409D01*
X204394392Y-103410032D01*
X204401839Y-103413905D01*
G37*
G36*
X204426595Y-103339636D02*
G01*
X204429558Y-103369016D01*
X204426595Y-103372644D01*
X204411877Y-103369246D01*
X204410091Y-103356140D01*
X204419149Y-103335763D01*
X204426595Y-103339636D01*
G37*
G36*
X204476108Y-103191098D02*
G01*
X204479070Y-103220478D01*
X204476108Y-103224106D01*
X204461390Y-103220708D01*
X204459603Y-103207602D01*
X204468661Y-103187225D01*
X204476108Y-103191098D01*
G37*
G36*
X207471624Y-96086029D02*
G01*
X207468226Y-96100747D01*
X207455120Y-96102534D01*
X207434743Y-96093476D01*
X207438616Y-96086029D01*
X207467996Y-96083067D01*
X207471624Y-96086029D01*
G37*
G36*
X209427375Y-98734957D02*
G01*
X209430337Y-98764337D01*
X209427375Y-98767966D01*
X209412657Y-98764567D01*
X209410870Y-98751462D01*
X209419928Y-98731084D01*
X209427375Y-98734957D01*
G37*
G36*
X210541410Y-107077842D02*
G01*
X210544373Y-107107222D01*
X210541410Y-107110851D01*
X210526692Y-107107452D01*
X210524905Y-107094347D01*
X210533963Y-107073969D01*
X210541410Y-107077842D01*
G37*
G36*
X210689948Y-106632228D02*
G01*
X210692911Y-106661608D01*
X210689948Y-106665237D01*
X210675230Y-106661838D01*
X210673443Y-106648732D01*
X210682501Y-106628355D01*
X210689948Y-106632228D01*
G37*
G36*
X210714704Y-102918778D02*
G01*
X210717667Y-102948158D01*
X210714704Y-102951786D01*
X210699986Y-102948388D01*
X210698200Y-102935282D01*
X210707258Y-102914905D01*
X210714704Y-102918778D01*
G37*
G36*
X210739460Y-103760493D02*
G01*
X210742423Y-103789873D01*
X210739460Y-103793502D01*
X210724743Y-103790103D01*
X210722956Y-103776998D01*
X210732014Y-103756620D01*
X210739460Y-103760493D01*
G37*
G36*
X210739868Y-103004909D02*
G01*
X210742819Y-103043601D01*
X210737913Y-103052359D01*
X210726661Y-103044976D01*
X210724911Y-103019866D01*
X210730957Y-102993450D01*
X210739868Y-103004909D01*
G37*
G36*
X210764217Y-103686224D02*
G01*
X210767180Y-103715604D01*
X210764217Y-103719233D01*
X210749499Y-103715834D01*
X210747712Y-103702729D01*
X210756770Y-103682351D01*
X210764217Y-103686224D01*
G37*
G36*
X210788973Y-103587199D02*
G01*
X210791936Y-103616579D01*
X210788973Y-103620207D01*
X210774255Y-103616809D01*
X210772469Y-103603703D01*
X210781527Y-103583326D01*
X210788973Y-103587199D01*
G37*
G36*
X200523346Y-103838888D02*
G01*
X200510968Y-103851267D01*
X200498590Y-103838888D01*
X200510968Y-103826510D01*
X200523346Y-103838888D01*
G37*
G36*
X204261553Y-102056432D02*
G01*
X204249174Y-102068810D01*
X204236796Y-102056432D01*
X204249174Y-102044054D01*
X204261553Y-102056432D01*
G37*
G36*
X204360578Y-103591325D02*
G01*
X204348200Y-103603703D01*
X204335822Y-103591325D01*
X204348200Y-103578947D01*
X204360578Y-103591325D01*
G37*
G36*
X204360578Y-102303996D02*
G01*
X204348200Y-102316374D01*
X204335822Y-102303996D01*
X204348200Y-102291617D01*
X204360578Y-102303996D01*
G37*
G36*
X207999759Y-97526023D02*
G01*
X207987381Y-97538401D01*
X207975003Y-97526023D01*
X207987381Y-97513645D01*
X207999759Y-97526023D01*
G37*
G36*
X209188063Y-98392495D02*
G01*
X209175685Y-98404873D01*
X209163307Y-98392495D01*
X209175685Y-98380116D01*
X209188063Y-98392495D01*
G37*
G36*
X209361358Y-98590545D02*
G01*
X209348980Y-98602923D01*
X209336601Y-98590545D01*
X209348980Y-98578167D01*
X209361358Y-98590545D01*
G37*
G36*
X209460383Y-99902631D02*
G01*
X209448005Y-99915009D01*
X209435627Y-99902631D01*
X209448005Y-99890253D01*
X209460383Y-99902631D01*
G37*
G36*
X209460383Y-98813352D02*
G01*
X209448005Y-98825731D01*
X209435627Y-98813352D01*
X209448005Y-98800974D01*
X209460383Y-98813352D01*
G37*
G36*
X210425880Y-102328752D02*
G01*
X210413502Y-102341130D01*
X210401124Y-102328752D01*
X210413502Y-102316374D01*
X210425880Y-102328752D01*
G37*
G36*
X210425880Y-101883138D02*
G01*
X210413502Y-101895516D01*
X210401124Y-101883138D01*
X210413502Y-101870760D01*
X210425880Y-101883138D01*
G37*
G36*
X210673443Y-106735380D02*
G01*
X210661065Y-106747758D01*
X210648687Y-106735380D01*
X210661065Y-106723001D01*
X210673443Y-106735380D01*
G37*
G36*
X210673443Y-102799122D02*
G01*
X210661065Y-102811500D01*
X210648687Y-102799122D01*
X210661065Y-102786744D01*
X210673443Y-102799122D01*
G37*
G36*
X210698200Y-102873391D02*
G01*
X210685822Y-102885770D01*
X210673443Y-102873391D01*
X210685822Y-102861013D01*
X210698200Y-102873391D01*
G37*
G36*
X210722956Y-103863645D02*
G01*
X210710578Y-103876023D01*
X210698200Y-103863645D01*
X210710578Y-103851267D01*
X210722956Y-103863645D01*
G37*
G36*
X210821981Y-103418031D02*
G01*
X210809603Y-103430409D01*
X210797225Y-103418031D01*
X210809603Y-103405653D01*
X210821981Y-103418031D01*
G37*
G36*
X211292352Y-105027193D02*
G01*
X211279974Y-105039571D01*
X211267596Y-105027193D01*
X211279974Y-105014814D01*
X211292352Y-105027193D01*
G37*
D15*
%TO.C,C3*%
X188057836Y-102110000D02*
X187842164Y-102110000D01*
X188057836Y-101390000D02*
X187842164Y-101390000D01*
%TO.C,C12*%
X185447164Y-88815000D02*
X185662836Y-88815000D01*
X185447164Y-89535000D02*
X185662836Y-89535000D01*
%TO.C,C13*%
X185417164Y-90615000D02*
X185632836Y-90615000D01*
X185417164Y-91335000D02*
X185632836Y-91335000D01*
%TO.C,D2*%
X212342500Y-92880000D02*
X214627500Y-92880000D01*
X214627500Y-91410000D02*
X212342500Y-91410000D01*
X214627500Y-92880000D02*
X214627500Y-91410000D01*
%TO.C,D3*%
X212342500Y-95620000D02*
X214627500Y-95620000D01*
X214627500Y-94150000D02*
X212342500Y-94150000D01*
X214627500Y-95620000D02*
X214627500Y-94150000D01*
%TO.C,R8*%
X216451359Y-92530000D02*
X216758641Y-92530000D01*
X216451359Y-91770000D02*
X216758641Y-91770000D01*
%TO.C,R10*%
X216461359Y-98005000D02*
X216768641Y-98005000D01*
X216461359Y-97245000D02*
X216768641Y-97245000D01*
%TO.C,D4*%
X212352500Y-98360000D02*
X214637500Y-98360000D01*
X214637500Y-96890000D02*
X212352500Y-96890000D01*
X214637500Y-98360000D02*
X214637500Y-96890000D01*
%TO.C,R9*%
X216451359Y-95255000D02*
X216758641Y-95255000D01*
X216451359Y-94495000D02*
X216758641Y-94495000D01*
%TO.C,C1*%
X209090000Y-103011252D02*
X209090000Y-102488748D01*
X210560000Y-103011252D02*
X210560000Y-102488748D01*
%TO.C,C2*%
X209090000Y-107351248D02*
X209090000Y-107873752D01*
X210560000Y-107351248D02*
X210560000Y-107873752D01*
%TO.C,U1*%
X205675000Y-102752500D02*
X201915000Y-102752500D01*
X201915000Y-102752500D02*
X201915000Y-104012500D01*
X205675000Y-109572500D02*
X201915000Y-109572500D01*
X201915000Y-109572500D02*
X201915000Y-108312500D01*
X207195000Y-109802500D02*
X206715000Y-109802500D01*
X206955000Y-109472500D01*
X207195000Y-109802500D01*
G36*
X207195000Y-109802500D02*
G01*
X206715000Y-109802500D01*
X206955000Y-109472500D01*
X207195000Y-109802500D01*
G37*
%TO.C,R1*%
X208778641Y-92530000D02*
X208471359Y-92530000D01*
X208778641Y-91770000D02*
X208471359Y-91770000D01*
%TO.C,C7*%
X186407836Y-96865000D02*
X186192164Y-96865000D01*
X186407836Y-97585000D02*
X186192164Y-97585000D01*
%TO.C,R4*%
X187396359Y-104830000D02*
X187703641Y-104830000D01*
X187396359Y-104070000D02*
X187703641Y-104070000D01*
%TO.C,C9*%
X186427836Y-93185000D02*
X186212164Y-93185000D01*
X186427836Y-92465000D02*
X186212164Y-92465000D01*
%TO.C,Y1*%
X184710000Y-93915000D02*
X181290000Y-93915000D01*
X181290000Y-93915000D02*
X181290000Y-98035000D01*
%TO.C,C4*%
X186407836Y-94465000D02*
X186192164Y-94465000D01*
X186407836Y-95185000D02*
X186192164Y-95185000D01*
%TO.C,FB1*%
X182910000Y-90374721D02*
X182910000Y-90700279D01*
X181890000Y-90374721D02*
X181890000Y-90700279D01*
%TO.C,C11*%
X182942164Y-88235000D02*
X183157836Y-88235000D01*
X182942164Y-87515000D02*
X183157836Y-87515000D01*
%TO.C,SW1*%
X183620000Y-105100000D02*
X183620000Y-105300000D01*
X183620000Y-102100000D02*
X183620000Y-103800000D01*
X182570000Y-100250000D02*
X181780000Y-100250000D01*
X181780000Y-107150000D02*
X182570000Y-107150000D01*
X180770000Y-102300000D02*
X179480000Y-102300000D01*
X180770000Y-100850000D02*
X180770000Y-106550000D01*
X179480000Y-103600000D02*
X180770000Y-103600000D01*
X179480000Y-103600000D02*
X179270000Y-103400000D01*
X179480000Y-102300000D02*
X179270000Y-102500000D01*
X179270000Y-102500000D02*
X179270000Y-103400000D01*
%TO.C,C5*%
X188609420Y-88560000D02*
X188890580Y-88560000D01*
X188609420Y-87540000D02*
X188890580Y-87540000D01*
%TO.C,D1*%
X204850000Y-92875000D02*
X207135000Y-92875000D01*
X207135000Y-91405000D02*
X204850000Y-91405000D01*
X207135000Y-92875000D02*
X207135000Y-91405000D01*
%TO.C,J3*%
X214440000Y-108910000D02*
X214440000Y-108530000D01*
X216210000Y-108910000D02*
X214440000Y-108910000D01*
X218750000Y-108910000D02*
X218490000Y-108910000D01*
X214440000Y-101290000D02*
X214440000Y-101670000D01*
X214440000Y-101290000D02*
X216210000Y-101290000D01*
X218490000Y-101290000D02*
X218750000Y-101290000D01*
%TO.C,C8*%
X188642164Y-90215000D02*
X188857836Y-90215000D01*
X188642164Y-90935000D02*
X188857836Y-90935000D01*
%TO.C,U7*%
X209035000Y-111300000D02*
X210665000Y-111300000D01*
X209035000Y-112930000D02*
X209035000Y-111300000D01*
D13*
X209395000Y-111660000D02*
X209395000Y-124360000D01*
X209395000Y-124360000D02*
X217015000Y-124360000D01*
X217015000Y-111660000D02*
X209395000Y-111660000D01*
X217015000Y-124360000D02*
X217015000Y-111660000D01*
D15*
%TO.C,U2*%
X189540000Y-93540000D02*
X189540000Y-93990000D01*
X189540000Y-100760000D02*
X189540000Y-100310000D01*
X189990000Y-93540000D02*
X189540000Y-93540000D01*
X189990000Y-100760000D02*
X189540000Y-100760000D01*
X196310000Y-93540000D02*
X196760000Y-93540000D01*
X196310000Y-100760000D02*
X196760000Y-100760000D01*
X196760000Y-93540000D02*
X196760000Y-93990000D01*
X196760000Y-100760000D02*
X196760000Y-100310000D01*
X188950000Y-93990000D02*
X188610000Y-93520000D01*
X189290000Y-93520000D01*
X188950000Y-93990000D01*
G36*
X188950000Y-93990000D02*
G01*
X188610000Y-93520000D01*
X189290000Y-93520000D01*
X188950000Y-93990000D01*
G37*
%TO.C,C6*%
X198990000Y-94542164D02*
X198990000Y-94757836D01*
X199710000Y-94542164D02*
X199710000Y-94757836D01*
%TO.C,R5*%
X201270000Y-95086359D02*
X201270000Y-95393641D01*
X202030000Y-95086359D02*
X202030000Y-95393641D01*
%TO.C,C10*%
X195890000Y-103862164D02*
X195890000Y-104077836D01*
X196610000Y-103862164D02*
X196610000Y-104077836D01*
%TO.C,R6*%
X196396359Y-126103333D02*
X196703641Y-126103333D01*
X196396359Y-126863333D02*
X196703641Y-126863333D01*
%TO.C,R2*%
X215046359Y-126070000D02*
X215353641Y-126070000D01*
X215046359Y-126830000D02*
X215353641Y-126830000D01*
%TO.C,J4*%
X192250000Y-89130000D02*
X192250000Y-87750000D01*
X193630000Y-89130000D02*
X192250000Y-89130000D01*
X194900000Y-86370000D02*
X202630000Y-86370000D01*
X194900000Y-89130000D02*
X194900000Y-86370000D01*
X194900000Y-89130000D02*
X202630000Y-89130000D01*
X202630000Y-89130000D02*
X202630000Y-86370000D01*
%TO.C,J2*%
X205860000Y-89130000D02*
X205860000Y-87750000D01*
X207240000Y-89130000D02*
X205860000Y-89130000D01*
X208510000Y-86370000D02*
X216240000Y-86370000D01*
X208510000Y-89130000D02*
X208510000Y-86370000D01*
X208510000Y-89130000D02*
X216240000Y-89130000D01*
X216240000Y-89130000D02*
X216240000Y-86370000D01*
%TO.C,U5*%
X199720000Y-111300000D02*
X201350000Y-111300000D01*
X199720000Y-112930000D02*
X199720000Y-111300000D01*
D13*
X200080000Y-111660000D02*
X200080000Y-124360000D01*
X200080000Y-124360000D02*
X207700000Y-124360000D01*
X207700000Y-111660000D02*
X200080000Y-111660000D01*
X207700000Y-124360000D02*
X207700000Y-111660000D01*
D15*
%TO.C,U4*%
X190405000Y-111300000D02*
X192035000Y-111300000D01*
X190405000Y-112930000D02*
X190405000Y-111300000D01*
D13*
X190765000Y-111660000D02*
X190765000Y-124360000D01*
X190765000Y-124360000D02*
X198385000Y-124360000D01*
X198385000Y-111660000D02*
X190765000Y-111660000D01*
X198385000Y-124360000D02*
X198385000Y-111660000D01*
D15*
%TO.C,R7*%
X205746359Y-126086667D02*
X206053641Y-126086667D01*
X205746359Y-126846667D02*
X206053641Y-126846667D01*
%TO.C,R3*%
X187096359Y-126120000D02*
X187403641Y-126120000D01*
X187096359Y-126880000D02*
X187403641Y-126880000D01*
%TO.C,U3*%
X181090000Y-111300000D02*
X182720000Y-111300000D01*
X181090000Y-112930000D02*
X181090000Y-111300000D01*
D13*
X181450000Y-111660000D02*
X181450000Y-124360000D01*
X181450000Y-124360000D02*
X189070000Y-124360000D01*
X189070000Y-111660000D02*
X181450000Y-111660000D01*
X189070000Y-124360000D02*
X189070000Y-111660000D01*
%TD*%
%LPC*%
D16*
%TO.C,C3*%
X188430000Y-101750000D03*
X187470000Y-101750000D03*
%TD*%
D17*
%TO.C,C12*%
X185075000Y-89175000D03*
X186035000Y-89175000D03*
%TD*%
%TO.C,C13*%
X185045000Y-90975000D03*
X186005000Y-90975000D03*
%TD*%
D18*
%TO.C,D2*%
X212355000Y-92145000D03*
X213930000Y-92145000D03*
%TD*%
%TO.C,D3*%
X212355000Y-94885000D03*
X213930000Y-94885000D03*
%TD*%
D19*
%TO.C,R8*%
X217115000Y-92150000D03*
X216095000Y-92150000D03*
%TD*%
%TO.C,R10*%
X217125000Y-97625000D03*
X216105000Y-97625000D03*
%TD*%
D18*
%TO.C,D4*%
X212365000Y-97625000D03*
X213940000Y-97625000D03*
%TD*%
D19*
%TO.C,R9*%
X217115000Y-94875000D03*
X216095000Y-94875000D03*
%TD*%
D20*
%TO.C,C1*%
X209825000Y-103700000D03*
X209825000Y-101800000D03*
%TD*%
D21*
%TO.C,C2*%
X209825000Y-108562500D03*
X209825000Y-106662500D03*
%TD*%
D22*
%TO.C,U1*%
X206975000Y-108462500D03*
X206975000Y-106162500D03*
D23*
X200675000Y-106162500D03*
D22*
X206975000Y-103862500D03*
%TD*%
D24*
%TO.C,R1*%
X209135000Y-92150000D03*
X208115000Y-92150000D03*
%TD*%
D16*
%TO.C,C7*%
X185820000Y-97225000D03*
X186780000Y-97225000D03*
%TD*%
D19*
%TO.C,R4*%
X188060000Y-104450000D03*
X187040000Y-104450000D03*
%TD*%
D16*
%TO.C,C9*%
X185840000Y-92825000D03*
X186800000Y-92825000D03*
%TD*%
D25*
%TO.C,Y1*%
X183850000Y-94875000D03*
X183850000Y-97075000D03*
X182150000Y-97075000D03*
X182150000Y-94875000D03*
%TD*%
D16*
%TO.C,C4*%
X185820000Y-94825000D03*
X186780000Y-94825000D03*
%TD*%
D26*
%TO.C,FB1*%
X182400000Y-91325000D03*
X182400000Y-89750000D03*
%TD*%
D17*
%TO.C,C11*%
X183530000Y-87875000D03*
X182570000Y-87875000D03*
%TD*%
D27*
%TO.C,SW1*%
X183930000Y-105950000D03*
X183930000Y-104450000D03*
X183930000Y-101450000D03*
D28*
X181070000Y-107350000D03*
X183280000Y-107350000D03*
D29*
X182170000Y-105200000D03*
X182170000Y-102200000D03*
D28*
X181070000Y-100050000D03*
X183280000Y-100050000D03*
%TD*%
D30*
%TO.C,C5*%
X189525000Y-88050000D03*
X187975000Y-88050000D03*
%TD*%
D18*
%TO.C,D1*%
X204862500Y-92140000D03*
X206437500Y-92140000D03*
%TD*%
D31*
%TO.C,J3*%
X214690000Y-106400000D03*
X214690000Y-105750000D03*
X214690000Y-105100000D03*
X214690000Y-104450000D03*
X214690000Y-103800000D03*
D32*
X217350000Y-108475000D03*
D33*
X214775000Y-107587500D03*
D34*
X217350000Y-106250000D03*
D35*
X217350000Y-103550000D03*
D33*
X214775000Y-102612500D03*
D32*
X217350000Y-101725000D03*
%TD*%
D17*
%TO.C,C8*%
X188270000Y-90575000D03*
X189230000Y-90575000D03*
%TD*%
D36*
%TO.C,U7*%
X210665000Y-112930000D03*
D37*
X210665000Y-115470000D03*
X210665000Y-118010000D03*
X210665000Y-120550000D03*
X210665000Y-123090000D03*
X215745000Y-123090000D03*
X215745000Y-120550000D03*
X215745000Y-118010000D03*
X215745000Y-115470000D03*
X215745000Y-112930000D03*
%TD*%
D38*
%TO.C,U2*%
X188987500Y-94400000D03*
X188987500Y-94900000D03*
X188987500Y-95400000D03*
X188987500Y-95900000D03*
X188987500Y-96400000D03*
X188987500Y-96900000D03*
X188987500Y-97400000D03*
X188987500Y-97900000D03*
X188987500Y-98400000D03*
X188987500Y-98900000D03*
X188987500Y-99400000D03*
X188987500Y-99900000D03*
D39*
X190400000Y-101312500D03*
X190900000Y-101312500D03*
X191400000Y-101312500D03*
X191900000Y-101312500D03*
X192400000Y-101312500D03*
X192900000Y-101312500D03*
X193400000Y-101312500D03*
X193900000Y-101312500D03*
X194400000Y-101312500D03*
X194900000Y-101312500D03*
X195400000Y-101312500D03*
X195900000Y-101312500D03*
D38*
X197312500Y-99900000D03*
X197312500Y-99400000D03*
X197312500Y-98900000D03*
X197312500Y-98400000D03*
X197312500Y-97900000D03*
X197312500Y-97400000D03*
X197312500Y-96900000D03*
X197312500Y-96400000D03*
X197312500Y-95900000D03*
X197312500Y-95400000D03*
X197312500Y-94900000D03*
X197312500Y-94400000D03*
D39*
X195900000Y-92987500D03*
X195400000Y-92987500D03*
X194900000Y-92987500D03*
X194400000Y-92987500D03*
X193900000Y-92987500D03*
X193400000Y-92987500D03*
X192900000Y-92987500D03*
X192400000Y-92987500D03*
X191900000Y-92987500D03*
X191400000Y-92987500D03*
X190900000Y-92987500D03*
X190400000Y-92987500D03*
%TD*%
D40*
%TO.C,C6*%
X199350000Y-94170000D03*
X199350000Y-95130000D03*
%TD*%
D41*
%TO.C,R5*%
X201650000Y-94730000D03*
X201650000Y-95750000D03*
%TD*%
D40*
%TO.C,C10*%
X196250000Y-103490000D03*
X196250000Y-104450000D03*
%TD*%
D19*
%TO.C,R6*%
X196040000Y-126483333D03*
X197060000Y-126483333D03*
%TD*%
%TO.C,R2*%
X214690000Y-126450000D03*
X215710000Y-126450000D03*
%TD*%
D42*
%TO.C,J4*%
X193630000Y-87750000D03*
D43*
X196170000Y-87750000D03*
X198710000Y-87750000D03*
X201250000Y-87750000D03*
%TD*%
D42*
%TO.C,J2*%
X207240000Y-87750000D03*
D43*
X209780000Y-87750000D03*
X212320000Y-87750000D03*
X214860000Y-87750000D03*
%TD*%
D36*
%TO.C,U5*%
X201350000Y-112930000D03*
D37*
X201350000Y-115470000D03*
X201350000Y-118010000D03*
X201350000Y-120550000D03*
X201350000Y-123090000D03*
X206430000Y-123090000D03*
X206430000Y-120550000D03*
X206430000Y-118010000D03*
X206430000Y-115470000D03*
X206430000Y-112930000D03*
%TD*%
D36*
%TO.C,U4*%
X192035000Y-112930000D03*
D37*
X192035000Y-115470000D03*
X192035000Y-118010000D03*
X192035000Y-120550000D03*
X192035000Y-123090000D03*
X197115000Y-123090000D03*
X197115000Y-120550000D03*
X197115000Y-118010000D03*
X197115000Y-115470000D03*
X197115000Y-112930000D03*
%TD*%
D19*
%TO.C,R7*%
X205390000Y-126466667D03*
X206410000Y-126466667D03*
%TD*%
%TO.C,R3*%
X186740000Y-126500000D03*
X187760000Y-126500000D03*
%TD*%
D36*
%TO.C,U3*%
X182720000Y-112930000D03*
D37*
X182720000Y-115470000D03*
X182720000Y-118010000D03*
X182720000Y-120550000D03*
X182720000Y-123090000D03*
X187800000Y-123090000D03*
X187800000Y-120550000D03*
X187800000Y-118010000D03*
X187800000Y-115470000D03*
X187800000Y-112930000D03*
%TD*%
%LPD*%
M02*
