M48
; DRILL file {KiCad 9.0.4+dfsg-1} date 2025-08-30T16:49:39-0700
; FORMAT={-:-/ absolute / inch / decimal}
; #@! TF.CreationDate,2025-08-30T16:49:39-07:00
; #@! TF.GenerationSoftware,Kicad,Pcbnew,9.0.4+dfsg-1
; #@! TF.FileFunction,Plated,1,4,PTH
FMAT,2
INCH
; #@! TA.AperFunction,Plated,PTH,ViaDrill
T1C0.0118
; #@! TA.AperFunction,Plated,PTH,ComponentDrill
T2C0.0197
; #@! TA.AperFunction,Plated,PTH,ComponentDrill
T3C0.0256
; #@! TA.AperFunction,Plated,PTH,ComponentDrill
T4C0.0295
; #@! TA.AperFunction,Plated,PTH,ComponentDrill
T5C0.0300
; #@! TA.AperFunction,Plated,PTH,ComponentDrill
T6C0.0315
; #@! TA.AperFunction,Plated,PTH,ComponentDrill
T7C0.0354
; #@! TA.AperFunction,Plated,PTH,ComponentDrill
T8C0.0394
; #@! TA.AperFunction,Plated,PTH,ComponentDrill
T9C0.0402
; #@! TA.AperFunction,Plated,PTH,ComponentDrill
T10C0.0472
%
G90
G05
T1
X3.0945Y-3.9291
X3.1063Y-3.0827
X3.1339Y-3.4409
X3.2461Y-3.939
X3.248Y-3.2421
X3.2677Y-2.6102
X3.2913Y-5.3937
X3.2913Y-5.6238
X3.3071Y-3.3051
X3.4173Y-4.1063
X3.4705Y-2.9862
X3.4705Y-3.0472
X3.5236Y-3.1024
X3.5886Y-3.1122
X3.5945Y-3.7618
X3.622Y-3.1437
X3.622Y-3.2461
X3.6227Y-3.348
X3.628Y-3.9665
X3.6299Y-4.2106
X3.6772Y-2.6122
X3.6811Y-2.9705
X3.7559Y-3.4508
X3.7953Y-2.811
X3.8189Y-4.0925
X3.8287Y-3.0571
X3.8839Y-5.5984
X3.9291Y-5.4291
X3.9291Y-5.6551
X3.9665Y-3.4823
X4.0236Y-2.6181
X4.0236Y-2.6713
X4.1487Y-5.7717
X4.1654Y-5.315
X4.2894Y-2.8091
X4.2972Y-5.3996
X4.2992Y-5.5157
X4.3012Y-5.6319
X4.3031Y-5.748
X4.4803Y-2.6201
X4.8287Y-2.4134
X4.8465Y-5.3484
X4.8583Y-2.372
X4.8819Y-5.1752
X5.1594Y-5.1949
T2
X2.8012Y-2.626
X2.8012Y-2.6654
X2.8012Y-2.7047
X2.8858Y-5.311
X2.8858Y-5.3504
X2.8878Y-5.5276
X2.8878Y-5.5669
X2.8878Y-5.6063
X3.0079Y-2.2451
X3.0472Y-2.2451
X3.0866Y-2.2451
X3.1575Y-3.685
X3.1909Y-4.7461
X3.1909Y-4.7854
X3.1909Y-4.8248
X3.1909Y-4.8642
X3.1969Y-3.685
X4.7185Y-2.1201
X4.7185Y-2.1594
X4.7185Y-2.1988
T3
X3.7033Y-3.9252
X3.7533Y-3.9252
T4
X3.4039Y-5.17
X3.5039Y-5.17
X3.5417Y-3.5367
X3.6417Y-3.5367
X3.7917Y-2.6607
X3.8917Y-2.6607
X3.898Y-3.7335
X3.998Y-3.7335
X4.1126Y-5.168
X4.2126Y-5.168
T5
X3.7071Y-4.954
X3.7858Y-4.954
X3.8646Y-4.954
X3.9433Y-4.954
T6
X3.3961Y-2.8228
X3.5882Y-2.8228
T8
X2.5572Y-2.4659
X2.5572Y-2.5659
X2.5572Y-2.6659
X2.5572Y-2.7659
X2.5572Y-2.8659
X2.5572Y-2.9659
X2.5572Y-3.0659
X2.5572Y-3.1659
X2.5572Y-3.2659
X2.5572Y-3.3659
X2.5572Y-3.4659
X2.5572Y-3.5659
X2.5572Y-3.6659
X2.5572Y-3.7659
X2.5572Y-3.8659
X2.5572Y-3.9659
X2.5572Y-4.0659
X2.5572Y-4.1659
X2.5572Y-4.2659
X2.5572Y-4.3659
X2.5572Y-4.4659
X2.5572Y-4.5659
X2.5572Y-4.6659
X2.5572Y-4.7659
X2.5572Y-4.8659
X2.5572Y-4.9659
X2.5572Y-5.0659
X2.5572Y-5.1659
X2.5572Y-5.2659
X2.5572Y-5.3659
X2.5572Y-5.4659
X2.5572Y-5.5659
X2.5572Y-5.6659
X2.5572Y-5.7659
X2.5572Y-5.8659
X2.5572Y-5.9659
X2.6572Y-2.4659
X2.6572Y-2.5659
X2.6572Y-2.6659
X2.6572Y-2.7659
X2.6572Y-2.8659
X2.6572Y-2.9659
X2.6572Y-3.0659
X2.6572Y-3.1659
X2.6572Y-3.2659
X2.6572Y-3.3659
X2.6572Y-3.4659
X2.6572Y-3.5659
X2.6572Y-3.6659
X2.6572Y-3.7659
X2.6572Y-3.8659
X2.6572Y-3.9659
X2.6572Y-4.0659
X2.6572Y-4.1659
X2.6572Y-4.2659
X2.6572Y-4.3659
X2.6572Y-4.4659
X2.6572Y-4.5659
X2.6572Y-4.6659
X2.6572Y-4.7659
X2.6572Y-4.8659
X2.6572Y-4.9659
X2.6572Y-5.0659
X2.6572Y-5.1659
X2.6572Y-5.2659
X2.6572Y-5.3659
X2.6572Y-5.4659
X2.6572Y-5.5659
X2.6572Y-5.6659
X2.6572Y-5.7659
X2.6572Y-5.8659
X2.6572Y-5.9659
X4.9568Y-2.4659
X4.9568Y-2.5659
X4.9568Y-2.6659
X4.9568Y-2.7659
X4.9568Y-2.8659
X4.9568Y-2.9659
X4.9568Y-3.0659
X4.9568Y-3.1659
X4.9568Y-3.2659
X4.9568Y-3.3659
X4.9568Y-3.4659
X4.9568Y-3.5659
X4.9568Y-3.6659
X4.9568Y-3.7659
X4.9568Y-3.8659
X4.9568Y-3.9659
X4.9568Y-4.0659
X4.9568Y-4.1659
X4.9568Y-4.2659
X4.9568Y-4.3659
X4.9568Y-4.4659
X4.9568Y-4.5659
X4.9568Y-4.6659
X4.9568Y-4.7659
X4.9568Y-4.8659
X4.9568Y-4.9659
X4.9568Y-5.0659
X4.9568Y-5.1659
X4.9568Y-5.2659
X4.9568Y-5.3659
X4.9568Y-5.4659
X4.9568Y-5.5659
X4.9568Y-5.6659
X4.9568Y-5.7659
X4.9568Y-5.8659
X4.9568Y-5.9659
X5.0568Y-2.4659
X5.0568Y-2.5659
X5.0568Y-2.6659
X5.0568Y-2.7659
X5.0568Y-2.8659
X5.0568Y-2.9659
X5.0568Y-3.0659
X5.0568Y-3.1659
X5.0568Y-3.2659
X5.0568Y-3.3659
X5.0568Y-3.4659
X5.0568Y-3.5659
X5.0568Y-3.6659
X5.0568Y-3.7659
X5.0568Y-3.8659
X5.0568Y-3.9659
X5.0568Y-4.0659
X5.0568Y-4.1659
X5.0568Y-4.2659
X5.0568Y-4.3659
X5.0568Y-4.4659
X5.0568Y-4.5659
X5.0568Y-4.6659
X5.0568Y-4.7659
X5.0568Y-4.8659
X5.0568Y-4.9659
X5.0568Y-5.0659
X5.0568Y-5.1659
X5.0568Y-5.2659
X5.0568Y-5.3659
X5.0568Y-5.4659
X5.0568Y-5.5659
X5.0568Y-5.6659
X5.0568Y-5.7659
X5.0568Y-5.8659
X5.0568Y-5.9659
T9
X2.8571Y-2.865
X2.8571Y-2.965
X2.8571Y-3.065
X2.8571Y-3.165
X2.8571Y-3.265
X2.8571Y-3.365
X2.8571Y-3.465
X2.8571Y-3.565
X2.8571Y-3.765
X2.8571Y-3.865
X2.8571Y-3.965
X2.8571Y-4.065
X2.8571Y-4.165
X2.8571Y-4.265
X2.8571Y-4.365
X2.8571Y-4.465
X2.8571Y-4.565
X2.8571Y-4.665
X2.8571Y-4.765
X2.8571Y-4.865
X2.8571Y-4.965
X2.8571Y-5.065
X2.8571Y-5.165
X2.9571Y-2.865
X2.9571Y-2.965
X2.9571Y-3.065
X2.9571Y-3.165
X2.9571Y-3.265
X2.9571Y-3.365
X2.9571Y-3.465
X2.9571Y-3.565
X2.9571Y-3.765
X2.9571Y-3.865
X2.9571Y-3.965
X2.9571Y-4.065
X2.9571Y-4.165
X2.9571Y-4.265
X2.9571Y-4.365
X2.9571Y-4.465
X2.9571Y-4.565
X2.9571Y-4.665
X2.9571Y-4.765
X2.9571Y-4.865
X2.9571Y-4.965
X2.9571Y-5.065
X2.9571Y-5.165
X4.6571Y-2.505
X4.6571Y-2.605
X4.6571Y-2.705
X4.6571Y-2.805
X4.6571Y-2.905
X4.6571Y-3.005
X4.6571Y-3.105
X4.6571Y-3.205
X4.6571Y-3.305
X4.6571Y-3.405
X4.6571Y-3.565
X4.6571Y-3.665
X4.6571Y-3.765
X4.6571Y-3.865
X4.6571Y-3.965
X4.6571Y-4.065
X4.6571Y-4.165
X4.6571Y-4.265
X4.6571Y-4.365
X4.6571Y-4.465
X4.6571Y-4.565
X4.6571Y-4.665
X4.6571Y-4.765
X4.6571Y-4.865
X4.6571Y-4.965
X4.6571Y-5.065
X4.6571Y-5.165
X4.7571Y-2.505
X4.7571Y-2.605
X4.7571Y-2.705
X4.7571Y-2.805
X4.7571Y-2.905
X4.7571Y-3.005
X4.7571Y-3.105
X4.7571Y-3.205
X4.7571Y-3.305
X4.7571Y-3.405
X4.7571Y-3.565
X4.7571Y-3.665
X4.7571Y-3.765
X4.7571Y-3.865
X4.7571Y-3.965
X4.7571Y-4.065
X4.7571Y-4.165
X4.7571Y-4.265
X4.7571Y-4.365
X4.7571Y-4.465
X4.7571Y-4.565
X4.7571Y-4.665
X4.7571Y-4.765
X4.7571Y-4.865
X4.7571Y-4.965
X4.7571Y-5.065
X4.7571Y-5.165
T10
X3.7362Y-4.6752
X3.9154Y-4.6752
T7
G00X3.2339Y-2.5098
M15
G01X3.2339Y-2.4469
M16
G05
G00X3.6827Y-2.5098
M15
G01X3.6827Y-2.4469
M16
G05
G00X4.0157Y-2.5118
M15
G01X4.0157Y-2.4488
M16
G05
G00X4.4646Y-2.5118
M15
G01X4.4646Y-2.4488
M16
G05
M30
