%TF.GenerationSoftware,KiCad,Pcbnew,9.0.4+dfsg-1*%
%TF.CreationDate,2025-09-13T16:22:08-07:00*%
%TF.ProjectId,APM,41504d2e-6b69-4636-9164-5f7063625858,rev?*%
%TF.SameCoordinates,Original*%
%TF.FileFunction,Soldermask,Top*%
%TF.FilePolarity,Negative*%
%FSLAX46Y46*%
G04 Gerber Fmt 4.6, Leading zero omitted, Abs format (unit mm)*
G04 Created by KiCad (PCBNEW 9.0.4+dfsg-1) date 2025-09-13 16:22:08*
%MOMM*%
%LPD*%
G01*
G04 APERTURE LIST*
%ADD10R,1.700000X1.700000*%
%ADD11C,1.700000*%
%ADD12R,1.530000X1.530000*%
%ADD13C,1.530000*%
%ADD14R,1.050000X1.500000*%
%ADD15O,1.050000X1.500000*%
%ADD16R,0.850000X0.850000*%
%ADD17C,0.850000*%
%ADD18O,1.900000X3.500000*%
%ADD19C,2.500000*%
%ADD20C,1.500000*%
G04 APERTURE END LIST*
D10*
%TO.C,J15*%
X125902010Y-62633948D03*
D11*
X128442010Y-62633948D03*
X125902010Y-65173948D03*
X128442010Y-65173948D03*
X125902010Y-67713948D03*
X128442010Y-67713948D03*
X125902010Y-70253948D03*
X128442010Y-70253948D03*
X125902010Y-72793948D03*
X128442010Y-72793948D03*
X125902010Y-75333948D03*
X128442010Y-75333948D03*
X125902010Y-77873948D03*
X128442010Y-77873948D03*
X125902010Y-80413948D03*
X128442010Y-80413948D03*
X125902010Y-82953948D03*
X128442010Y-82953948D03*
X125902010Y-85493948D03*
X128442010Y-85493948D03*
X125902010Y-88033948D03*
X128442010Y-88033948D03*
X125902010Y-90573948D03*
X128442010Y-90573948D03*
X125902010Y-93113948D03*
X128442010Y-93113948D03*
X125902010Y-95653948D03*
X128442010Y-95653948D03*
X125902010Y-98193948D03*
X128442010Y-98193948D03*
X125902010Y-100733948D03*
X128442010Y-100733948D03*
X125902010Y-103273948D03*
X128442010Y-103273948D03*
X125902010Y-105813948D03*
X128442010Y-105813948D03*
X125902010Y-108353948D03*
X128442010Y-108353948D03*
X125902010Y-110893948D03*
X128442010Y-110893948D03*
X125902010Y-113433948D03*
X128442010Y-113433948D03*
X125902010Y-115973948D03*
X128442010Y-115973948D03*
X125902010Y-118513948D03*
X128442010Y-118513948D03*
X125902010Y-121053948D03*
X128442010Y-121053948D03*
X125902010Y-123593948D03*
X128442010Y-123593948D03*
X125902010Y-126133948D03*
X128442010Y-126133948D03*
X125902010Y-128673948D03*
X128442010Y-128673948D03*
X125902010Y-131213948D03*
X128442010Y-131213948D03*
X125902010Y-133753948D03*
X128442010Y-133753948D03*
X125902010Y-136293948D03*
X128442010Y-136293948D03*
X125902010Y-138833948D03*
X128442010Y-138833948D03*
X125902010Y-141373948D03*
X128442010Y-141373948D03*
X125902010Y-143913948D03*
X128442010Y-143913948D03*
X125902010Y-146453948D03*
X128442010Y-146453948D03*
X125902010Y-148993948D03*
X128442010Y-148993948D03*
X125902010Y-151533948D03*
X128442010Y-151533948D03*
%TD*%
D10*
%TO.C,J13*%
X64954058Y-62633948D03*
D11*
X67494058Y-62633948D03*
X64954058Y-65173948D03*
X67494058Y-65173948D03*
X64954058Y-67713948D03*
X67494058Y-67713948D03*
X64954058Y-70253948D03*
X67494058Y-70253948D03*
X64954058Y-72793948D03*
X67494058Y-72793948D03*
X64954058Y-75333948D03*
X67494058Y-75333948D03*
X64954058Y-77873948D03*
X67494058Y-77873948D03*
X64954058Y-80413948D03*
X67494058Y-80413948D03*
X64954058Y-82953948D03*
X67494058Y-82953948D03*
X64954058Y-85493948D03*
X67494058Y-85493948D03*
X64954058Y-88033948D03*
X67494058Y-88033948D03*
X64954058Y-90573948D03*
X67494058Y-90573948D03*
X64954058Y-93113948D03*
X67494058Y-93113948D03*
X64954058Y-95653948D03*
X67494058Y-95653948D03*
X64954058Y-98193948D03*
X67494058Y-98193948D03*
X64954058Y-100733948D03*
X67494058Y-100733948D03*
X64954058Y-103273948D03*
X67494058Y-103273948D03*
X64954058Y-105813948D03*
X67494058Y-105813948D03*
X64954058Y-108353948D03*
X67494058Y-108353948D03*
X64954058Y-110893948D03*
X67494058Y-110893948D03*
X64954058Y-113433948D03*
X67494058Y-113433948D03*
X64954058Y-115973948D03*
X67494058Y-115973948D03*
X64954058Y-118513948D03*
X67494058Y-118513948D03*
X64954058Y-121053948D03*
X67494058Y-121053948D03*
X64954058Y-123593948D03*
X67494058Y-123593948D03*
X64954058Y-126133948D03*
X67494058Y-126133948D03*
X64954058Y-128673948D03*
X67494058Y-128673948D03*
X64954058Y-131213948D03*
X67494058Y-131213948D03*
X64954058Y-133753948D03*
X67494058Y-133753948D03*
X64954058Y-136293948D03*
X67494058Y-136293948D03*
X64954058Y-138833948D03*
X67494058Y-138833948D03*
X64954058Y-141373948D03*
X67494058Y-141373948D03*
X64954058Y-143913948D03*
X67494058Y-143913948D03*
X64954058Y-146453948D03*
X67494058Y-146453948D03*
X64954058Y-148993948D03*
X67494058Y-148993948D03*
X64954058Y-151533948D03*
X67494058Y-151533948D03*
%TD*%
D12*
%TO.C,U1*%
X118290000Y-63626000D03*
D13*
X120830000Y-63626000D03*
X118290000Y-66166000D03*
X120830000Y-66166000D03*
X118290000Y-68706000D03*
X120830000Y-68706000D03*
X118290000Y-71246000D03*
X120830000Y-71246000D03*
X118290000Y-73786000D03*
X120830000Y-73786000D03*
X118290000Y-76326000D03*
X120830000Y-76326000D03*
X118290000Y-78866000D03*
X120830000Y-78866000D03*
X118290000Y-81406000D03*
X120830000Y-81406000D03*
X118290000Y-83946000D03*
X120830000Y-83946000D03*
X118290000Y-86486000D03*
X120830000Y-86486000D03*
D12*
X72570000Y-72770000D03*
D13*
X75110000Y-72770000D03*
X72570000Y-75310000D03*
X75110000Y-75310000D03*
X72570000Y-77850000D03*
X75110000Y-77850000D03*
X72570000Y-80390000D03*
X75110000Y-80390000D03*
X72570000Y-82930000D03*
X75110000Y-82930000D03*
X72570000Y-85470000D03*
X75110000Y-85470000D03*
X72570000Y-88010000D03*
X75110000Y-88010000D03*
X72570000Y-90550000D03*
X75110000Y-90550000D03*
D12*
X72570000Y-95630000D03*
D13*
X75110000Y-95630000D03*
X72570000Y-98170000D03*
X75110000Y-98170000D03*
X72570000Y-100710000D03*
X75110000Y-100710000D03*
X72570000Y-103250000D03*
X75110000Y-103250000D03*
X72570000Y-105790000D03*
X75110000Y-105790000D03*
X72570000Y-108330000D03*
X75110000Y-108330000D03*
X72570000Y-110870000D03*
X75110000Y-110870000D03*
X72570000Y-113410000D03*
X75110000Y-113410000D03*
X72570000Y-115950000D03*
X75110000Y-115950000D03*
X72570000Y-118490000D03*
X75110000Y-118490000D03*
X72570000Y-121030000D03*
X75110000Y-121030000D03*
X72570000Y-123570000D03*
X75110000Y-123570000D03*
X72570000Y-126110000D03*
X75110000Y-126110000D03*
X72570000Y-128650000D03*
X75110000Y-128650000D03*
X72570000Y-131190000D03*
X75110000Y-131190000D03*
D12*
X118290000Y-90550000D03*
D13*
X120830000Y-90550000D03*
X118290000Y-93090000D03*
X120830000Y-93090000D03*
X118290000Y-95630000D03*
X120830000Y-95630000D03*
X118290000Y-98170000D03*
X120830000Y-98170000D03*
X118290000Y-100710000D03*
X120830000Y-100710000D03*
X118290000Y-103250000D03*
X120830000Y-103250000D03*
X118290000Y-105790000D03*
X120830000Y-105790000D03*
X118290000Y-108330000D03*
X120830000Y-108330000D03*
X118290000Y-110870000D03*
X120830000Y-110870000D03*
X118290000Y-113410000D03*
X120830000Y-113410000D03*
X118290000Y-115950000D03*
X120830000Y-115950000D03*
X118290000Y-118490000D03*
X120830000Y-118490000D03*
X118290000Y-121030000D03*
X120830000Y-121030000D03*
X118290000Y-123570000D03*
X120830000Y-123570000D03*
X118290000Y-126110000D03*
X120830000Y-126110000D03*
X118290000Y-128650000D03*
X120830000Y-128650000D03*
X118290000Y-131190000D03*
X120830000Y-131190000D03*
%TD*%
D10*
%TO.C,J5*%
X82825000Y-111000000D03*
D11*
X80285000Y-111000000D03*
%TD*%
D14*
%TO.C,TH4*%
X102800000Y-93550000D03*
D15*
X100260000Y-93550000D03*
%TD*%
D10*
%TO.C,J1*%
X71150000Y-68700000D03*
D11*
X71150000Y-66160000D03*
X71150000Y-63620000D03*
%TD*%
D10*
%TO.C,J4*%
X87985000Y-117850000D03*
D11*
X85445000Y-117850000D03*
X82905000Y-117850000D03*
X80365000Y-117850000D03*
%TD*%
D14*
%TO.C,TH5*%
X104460000Y-131268000D03*
D15*
X107000000Y-131268000D03*
%TD*%
D10*
%TO.C,J2*%
X116710000Y-54300000D03*
D11*
X119250000Y-54300000D03*
X121790000Y-54300000D03*
%TD*%
D10*
%TO.C,J3*%
X87340000Y-149900000D03*
D11*
X84800000Y-149900000D03*
X82260000Y-149900000D03*
%TD*%
D16*
%TO.C,J7*%
X80200000Y-93600000D03*
D17*
X81200000Y-93600000D03*
%TD*%
D14*
%TO.C,TH3*%
X86460000Y-131318000D03*
D15*
X89000000Y-131318000D03*
%TD*%
D18*
%TO.C,J21*%
X102000000Y-63000000D03*
X113400000Y-63000000D03*
%TD*%
D10*
%TO.C,J12*%
X93360000Y-125900000D03*
D11*
X95900000Y-125900000D03*
X98440000Y-125900000D03*
%TD*%
D14*
%TO.C,TH1*%
X92500000Y-89832000D03*
D15*
X89960000Y-89832000D03*
%TD*%
D10*
%TO.C,J11*%
X97175000Y-99650000D03*
D11*
X94635000Y-99650000D03*
%TD*%
D14*
%TO.C,TH2*%
X98850000Y-67582000D03*
D15*
X96310000Y-67582000D03*
%TD*%
D19*
%TO.C,TP1*%
X94900000Y-118750000D03*
%TD*%
%TO.C,TP2*%
X99450000Y-118750000D03*
%TD*%
D18*
%TO.C,J29*%
X82140000Y-62950000D03*
X93540000Y-62950000D03*
%TD*%
D20*
%TO.C,Y7*%
X91140000Y-71700000D03*
X86260000Y-71700000D03*
%TD*%
D10*
%TO.C,J30*%
X78375000Y-56875000D03*
D11*
X75835000Y-56875000D03*
X73295000Y-56875000D03*
%TD*%
M02*
