%TF.GenerationSoftware,KiCad,Pcbnew,9.0.4+dfsg-1*%
%TF.CreationDate,2025-08-30T17:06:19-07:00*%
%TF.ProjectId,APM,41504d2e-6b69-4636-9164-5f7063625858,rev?*%
%TF.SameCoordinates,Original*%
%TF.FileFunction,Copper,L4,Bot*%
%TF.FilePolarity,Positive*%
%FSLAX46Y46*%
G04 Gerber Fmt 4.6, Leading zero omitted, Abs format (unit mm)*
G04 Created by KiCad (PCBNEW 9.0.4+dfsg-1) date 2025-08-30 17:06:19*
%MOMM*%
%LPD*%
G01*
G04 APERTURE LIST*
G04 Aperture macros list*
%AMRoundRect*
0 Rectangle with rounded corners*
0 $1 Rounding radius*
0 $2 $3 $4 $5 $6 $7 $8 $9 X,Y pos of 4 corners*
0 Add a 4 corners polygon primitive as box body*
4,1,4,$2,$3,$4,$5,$6,$7,$8,$9,$2,$3,0*
0 Add four circle primitives for the rounded corners*
1,1,$1+$1,$2,$3*
1,1,$1+$1,$4,$5*
1,1,$1+$1,$6,$7*
1,1,$1+$1,$8,$9*
0 Add four rect primitives between the rounded corners*
20,1,$1+$1,$2,$3,$4,$5,0*
20,1,$1+$1,$4,$5,$6,$7,0*
20,1,$1+$1,$6,$7,$8,$9,0*
20,1,$1+$1,$8,$9,$2,$3,0*%
G04 Aperture macros list end*
%TA.AperFunction,ComponentPad*%
%ADD10R,1.700000X1.700000*%
%TD*%
%TA.AperFunction,ComponentPad*%
%ADD11C,1.700000*%
%TD*%
%TA.AperFunction,ComponentPad*%
%ADD12R,1.530000X1.530000*%
%TD*%
%TA.AperFunction,ComponentPad*%
%ADD13C,1.530000*%
%TD*%
%TA.AperFunction,SMDPad,CuDef*%
%ADD14RoundRect,0.250000X0.350000X0.450000X-0.350000X0.450000X-0.350000X-0.450000X0.350000X-0.450000X0*%
%TD*%
%TA.AperFunction,ComponentPad*%
%ADD15R,0.850000X0.850000*%
%TD*%
%TA.AperFunction,ComponentPad*%
%ADD16C,0.850000*%
%TD*%
%TA.AperFunction,ComponentPad*%
%ADD17R,1.050000X1.500000*%
%TD*%
%TA.AperFunction,ComponentPad*%
%ADD18O,1.050000X1.500000*%
%TD*%
%TA.AperFunction,SMDPad,CuDef*%
%ADD19RoundRect,0.250000X-0.475000X0.250000X-0.475000X-0.250000X0.475000X-0.250000X0.475000X0.250000X0*%
%TD*%
%TA.AperFunction,SMDPad,CuDef*%
%ADD20RoundRect,0.218750X0.218750X0.256250X-0.218750X0.256250X-0.218750X-0.256250X0.218750X-0.256250X0*%
%TD*%
%TA.AperFunction,SMDPad,CuDef*%
%ADD21R,1.500000X1.500000*%
%TD*%
%TA.AperFunction,SMDPad,CuDef*%
%ADD22RoundRect,0.218750X-0.218750X-0.256250X0.218750X-0.256250X0.218750X0.256250X-0.218750X0.256250X0*%
%TD*%
%TA.AperFunction,SMDPad,CuDef*%
%ADD23RoundRect,0.150000X0.825000X0.150000X-0.825000X0.150000X-0.825000X-0.150000X0.825000X-0.150000X0*%
%TD*%
%TA.AperFunction,SMDPad,CuDef*%
%ADD24RoundRect,0.150000X-0.150000X0.825000X-0.150000X-0.825000X0.150000X-0.825000X0.150000X0.825000X0*%
%TD*%
%TA.AperFunction,SMDPad,CuDef*%
%ADD25R,1.100000X2.500000*%
%TD*%
%TA.AperFunction,HeatsinkPad*%
%ADD26O,1.900000X3.500000*%
%TD*%
%TA.AperFunction,ComponentPad*%
%ADD27R,1.524000X1.524000*%
%TD*%
%TA.AperFunction,ComponentPad*%
%ADD28C,1.524000*%
%TD*%
%TA.AperFunction,SMDPad,CuDef*%
%ADD29RoundRect,0.250000X-0.350000X-0.450000X0.350000X-0.450000X0.350000X0.450000X-0.350000X0.450000X0*%
%TD*%
%TA.AperFunction,SMDPad,CuDef*%
%ADD30R,2.180000X1.600000*%
%TD*%
%TA.AperFunction,ComponentPad*%
%ADD31R,1.000000X1.000000*%
%TD*%
%TA.AperFunction,ComponentPad*%
%ADD32C,1.000000*%
%TD*%
%TA.AperFunction,SMDPad,CuDef*%
%ADD33RoundRect,0.250000X0.250000X0.475000X-0.250000X0.475000X-0.250000X-0.475000X0.250000X-0.475000X0*%
%TD*%
%TA.AperFunction,ComponentPad*%
%ADD34C,2.500000*%
%TD*%
%TA.AperFunction,SMDPad,CuDef*%
%ADD35RoundRect,0.250000X-0.450000X0.350000X-0.450000X-0.350000X0.450000X-0.350000X0.450000X0.350000X0*%
%TD*%
%TA.AperFunction,ComponentPad*%
%ADD36C,1.500000*%
%TD*%
%TA.AperFunction,ViaPad*%
%ADD37C,0.600000*%
%TD*%
%TA.AperFunction,Conductor*%
%ADD38C,0.300000*%
%TD*%
%TA.AperFunction,Conductor*%
%ADD39C,0.500000*%
%TD*%
%TA.AperFunction,Conductor*%
%ADD40C,0.400000*%
%TD*%
G04 APERTURE END LIST*
D10*
%TO.P,J15,1,Pin_1*%
%TO.N,/APM_WARN_RST*%
X125902010Y-62633948D03*
D11*
%TO.P,J15,2,Pin_2*%
%TO.N,/APM_FAIL_RST*%
X128442010Y-62633948D03*
%TO.P,J15,3,Pin_3*%
%TO.N,/APM_CAN_RD*%
X125902010Y-65173948D03*
%TO.P,J15,4,Pin_4*%
%TO.N,/APM_LED_OK*%
X128442010Y-65173948D03*
%TO.P,J15,5,Pin_5*%
%TO.N,/APM_CAN_TD*%
X125902010Y-67713948D03*
%TO.P,J15,6,Pin_6*%
%TO.N,/APM_LED_WARN*%
X128442010Y-67713948D03*
%TO.P,J15,7,Pin_7*%
%TO.N,unconnected-(J15-Pin_7-Pad7)*%
X125902010Y-70253948D03*
%TO.P,J15,8,Pin_8*%
%TO.N,unconnected-(J15-Pin_8-Pad8)*%
X128442010Y-70253948D03*
%TO.P,J15,9,Pin_9*%
%TO.N,unconnected-(J15-Pin_9-Pad9)*%
X125902010Y-72793948D03*
%TO.P,J15,10,Pin_10*%
%TO.N,unconnected-(J15-Pin_10-Pad10)*%
X128442010Y-72793948D03*
%TO.P,J15,11,Pin_11*%
%TO.N,/APM_DAC_L*%
X125902010Y-75333948D03*
%TO.P,J15,12,Pin_12*%
%TO.N,/APM_USB_D-*%
X128442010Y-75333948D03*
%TO.P,J15,13,Pin_13*%
%TO.N,unconnected-(J15-Pin_13-Pad13)*%
X125902010Y-77873948D03*
%TO.P,J15,14,Pin_14*%
%TO.N,/APM_USB_D+*%
X128442010Y-77873948D03*
%TO.P,J15,15,Pin_15*%
%TO.N,unconnected-(J15-Pin_15-Pad15)*%
X125902010Y-80413948D03*
%TO.P,J15,16,Pin_16*%
%TO.N,unconnected-(J15-Pin_16-Pad16)*%
X128442010Y-80413948D03*
%TO.P,J15,17,Pin_17*%
%TO.N,unconnected-(J15-Pin_17-Pad17)*%
X125902010Y-82953948D03*
%TO.P,J15,18,Pin_18*%
%TO.N,unconnected-(J15-Pin_18-Pad18)*%
X128442010Y-82953948D03*
%TO.P,J15,19,Pin_19*%
%TO.N,unconnected-(J15-Pin_19-Pad19)*%
X125902010Y-85493948D03*
%TO.P,J15,20,Pin_20*%
%TO.N,unconnected-(J15-Pin_20-Pad20)*%
X128442010Y-85493948D03*
%TO.P,J15,21,Pin_21*%
%TO.N,unconnected-(J15-Pin_21-Pad21)*%
X125902010Y-88033948D03*
%TO.P,J15,22,Pin_22*%
%TO.N,unconnected-(J15-Pin_22-Pad22)*%
X128442010Y-88033948D03*
%TO.P,J15,23,Pin_23*%
%TO.N,unconnected-(J15-Pin_23-Pad23)*%
X125902010Y-90573948D03*
%TO.P,J15,24,Pin_24*%
%TO.N,unconnected-(J15-Pin_24-Pad24)*%
X128442010Y-90573948D03*
%TO.P,J15,25,Pin_25*%
%TO.N,unconnected-(J15-Pin_25-Pad25)*%
X125902010Y-93113948D03*
%TO.P,J15,26,Pin_26*%
%TO.N,unconnected-(J15-Pin_26-Pad26)*%
X128442010Y-93113948D03*
%TO.P,J15,27,Pin_27*%
%TO.N,unconnected-(J15-Pin_27-Pad27)*%
X125902010Y-95653948D03*
%TO.P,J15,28,Pin_28*%
%TO.N,unconnected-(J15-Pin_28-Pad28)*%
X128442010Y-95653948D03*
%TO.P,J15,29,Pin_29*%
%TO.N,unconnected-(J15-Pin_29-Pad29)*%
X125902010Y-98193948D03*
%TO.P,J15,30,Pin_30*%
%TO.N,unconnected-(J15-Pin_30-Pad30)*%
X128442010Y-98193948D03*
%TO.P,J15,31,Pin_31*%
%TO.N,unconnected-(J15-Pin_31-Pad31)*%
X125902010Y-100733948D03*
%TO.P,J15,32,Pin_32*%
%TO.N,unconnected-(J15-Pin_32-Pad32)*%
X128442010Y-100733948D03*
%TO.P,J15,33,Pin_33*%
%TO.N,unconnected-(J15-Pin_33-Pad33)*%
X125902010Y-103273948D03*
%TO.P,J15,34,Pin_34*%
%TO.N,/APM_LED_FAIL*%
X128442010Y-103273948D03*
%TO.P,J15,35,Pin_35*%
%TO.N,unconnected-(J15-Pin_35-Pad35)*%
X125902010Y-105813948D03*
%TO.P,J15,36,Pin_36*%
%TO.N,unconnected-(J15-Pin_36-Pad36)*%
X128442010Y-105813948D03*
%TO.P,J15,37,Pin_37*%
%TO.N,unconnected-(J15-Pin_37-Pad37)*%
X125902010Y-108353948D03*
%TO.P,J15,38,Pin_38*%
%TO.N,unconnected-(J15-Pin_38-Pad38)*%
X128442010Y-108353948D03*
%TO.P,J15,39,Pin_39*%
%TO.N,unconnected-(J15-Pin_39-Pad39)*%
X125902010Y-110893948D03*
%TO.P,J15,40,Pin_40*%
%TO.N,unconnected-(J15-Pin_40-Pad40)*%
X128442010Y-110893948D03*
%TO.P,J15,41,Pin_41*%
%TO.N,unconnected-(J15-Pin_41-Pad41)*%
X125902010Y-113433948D03*
%TO.P,J15,42,Pin_42*%
%TO.N,unconnected-(J15-Pin_42-Pad42)*%
X128442010Y-113433948D03*
%TO.P,J15,43,Pin_43*%
%TO.N,unconnected-(J15-Pin_43-Pad43)*%
X125902010Y-115973948D03*
%TO.P,J15,44,Pin_44*%
%TO.N,unconnected-(J15-Pin_44-Pad44)*%
X128442010Y-115973948D03*
%TO.P,J15,45,Pin_45*%
%TO.N,unconnected-(J15-Pin_45-Pad45)*%
X125902010Y-118513948D03*
%TO.P,J15,46,Pin_46*%
%TO.N,unconnected-(J15-Pin_46-Pad46)*%
X128442010Y-118513948D03*
%TO.P,J15,47,Pin_47*%
%TO.N,unconnected-(J15-Pin_47-Pad47)*%
X125902010Y-121053948D03*
%TO.P,J15,48,Pin_48*%
%TO.N,unconnected-(J15-Pin_48-Pad48)*%
X128442010Y-121053948D03*
%TO.P,J15,49,Pin_49*%
%TO.N,unconnected-(J15-Pin_49-Pad49)*%
X125902010Y-123593948D03*
%TO.P,J15,50,Pin_50*%
%TO.N,unconnected-(J15-Pin_50-Pad50)*%
X128442010Y-123593948D03*
%TO.P,J15,51,Pin_51*%
%TO.N,unconnected-(J15-Pin_51-Pad51)*%
X125902010Y-126133948D03*
%TO.P,J15,52,Pin_52*%
%TO.N,unconnected-(J15-Pin_52-Pad52)*%
X128442010Y-126133948D03*
%TO.P,J15,53,Pin_53*%
%TO.N,unconnected-(J15-Pin_53-Pad53)*%
X125902010Y-128673948D03*
%TO.P,J15,54,Pin_54*%
%TO.N,unconnected-(J15-Pin_54-Pad54)*%
X128442010Y-128673948D03*
%TO.P,J15,55,Pin_55*%
%TO.N,unconnected-(J15-Pin_55-Pad55)*%
X125902010Y-131213948D03*
%TO.P,J15,56,Pin_56*%
%TO.N,unconnected-(J15-Pin_56-Pad56)*%
X128442010Y-131213948D03*
%TO.P,J15,57,Pin_57*%
%TO.N,unconnected-(J15-Pin_57-Pad57)*%
X125902010Y-133753948D03*
%TO.P,J15,58,Pin_58*%
%TO.N,unconnected-(J15-Pin_58-Pad58)*%
X128442010Y-133753948D03*
%TO.P,J15,59,Pin_59*%
%TO.N,unconnected-(J15-Pin_59-Pad59)*%
X125902010Y-136293948D03*
%TO.P,J15,60,Pin_60*%
%TO.N,unconnected-(J15-Pin_60-Pad60)*%
X128442010Y-136293948D03*
%TO.P,J15,61,Pin_61*%
%TO.N,/7SDD_CMD_TX*%
X125902010Y-138833948D03*
%TO.P,J15,62,Pin_62*%
%TO.N,unconnected-(J15-Pin_62-Pad62)*%
X128442010Y-138833948D03*
%TO.P,J15,63,Pin_63*%
%TO.N,unconnected-(J15-Pin_63-Pad63)*%
X125902010Y-141373948D03*
%TO.P,J15,64,Pin_64*%
%TO.N,unconnected-(J15-Pin_64-Pad64)*%
X128442010Y-141373948D03*
%TO.P,J15,65,Pin_65*%
%TO.N,unconnected-(J15-Pin_65-Pad65)*%
X125902010Y-143913948D03*
%TO.P,J15,66,Pin_66*%
%TO.N,unconnected-(J15-Pin_66-Pad66)*%
X128442010Y-143913948D03*
%TO.P,J15,67,Pin_67*%
%TO.N,unconnected-(J15-Pin_67-Pad67)*%
X125902010Y-146453948D03*
%TO.P,J15,68,Pin_68*%
%TO.N,unconnected-(J15-Pin_68-Pad68)*%
X128442010Y-146453948D03*
%TO.P,J15,69,Pin_69*%
%TO.N,unconnected-(J15-Pin_69-Pad69)*%
X125902010Y-148993948D03*
%TO.P,J15,70,Pin_70*%
%TO.N,unconnected-(J15-Pin_70-Pad70)*%
X128442010Y-148993948D03*
%TO.P,J15,71,Pin_71*%
%TO.N,unconnected-(J15-Pin_71-Pad71)*%
X125902010Y-151533948D03*
%TO.P,J15,72,Pin_72*%
%TO.N,unconnected-(J15-Pin_72-Pad72)*%
X128442010Y-151533948D03*
%TD*%
D10*
%TO.P,J13,1,Pin_1*%
%TO.N,/APM_CMD_TX*%
X64954058Y-62633948D03*
D11*
%TO.P,J13,2,Pin_2*%
%TO.N,/APM_CMD_RX*%
X67494058Y-62633948D03*
%TO.P,J13,3,Pin_3*%
%TO.N,/APM_DBG_TX*%
X64954058Y-65173948D03*
%TO.P,J13,4,Pin_4*%
%TO.N,/APM_DBG_RX*%
X67494058Y-65173948D03*
%TO.P,J13,5,Pin_5*%
%TO.N,unconnected-(J13-Pin_5-Pad5)*%
X64954058Y-67713948D03*
%TO.P,J13,6,Pin_6*%
%TO.N,unconnected-(J13-Pin_6-Pad6)*%
X67494058Y-67713948D03*
%TO.P,J13,7,Pin_7*%
%TO.N,unconnected-(J13-Pin_7-Pad7)*%
X64954058Y-70253948D03*
%TO.P,J13,8,Pin_8*%
%TO.N,GND*%
X67494058Y-70253948D03*
%TO.P,J13,9,Pin_9*%
%TO.N,unconnected-(J13-Pin_9-Pad9)*%
X64954058Y-72793948D03*
%TO.P,J13,10,Pin_10*%
%TO.N,unconnected-(J13-Pin_10-Pad10)*%
X67494058Y-72793948D03*
%TO.P,J13,11,Pin_11*%
%TO.N,unconnected-(J13-Pin_11-Pad11)*%
X64954058Y-75333948D03*
%TO.P,J13,12,Pin_12*%
%TO.N,unconnected-(J13-Pin_12-Pad12)*%
X67494058Y-75333948D03*
%TO.P,J13,13,Pin_13*%
%TO.N,unconnected-(J13-Pin_13-Pad13)*%
X64954058Y-77873948D03*
%TO.P,J13,14,Pin_14*%
%TO.N,unconnected-(J13-Pin_14-Pad14)*%
X67494058Y-77873948D03*
%TO.P,J13,15,Pin_15*%
%TO.N,unconnected-(J13-Pin_15-Pad15)*%
X64954058Y-80413948D03*
%TO.P,J13,16,Pin_16*%
%TO.N,unconnected-(J13-Pin_16-Pad16)*%
X67494058Y-80413948D03*
%TO.P,J13,17,Pin_17*%
%TO.N,unconnected-(J13-Pin_17-Pad17)*%
X64954058Y-82953948D03*
%TO.P,J13,18,Pin_18*%
%TO.N,5V_APM_MCU*%
X67494058Y-82953948D03*
%TO.P,J13,19,Pin_19*%
%TO.N,unconnected-(J13-Pin_19-Pad19)*%
X64954058Y-85493948D03*
%TO.P,J13,20,Pin_20*%
%TO.N,unconnected-(J13-Pin_20-Pad20)*%
X67494058Y-85493948D03*
%TO.P,J13,21,Pin_21*%
%TO.N,unconnected-(J13-Pin_21-Pad21)*%
X64954058Y-88033948D03*
%TO.P,J13,22,Pin_22*%
%TO.N,unconnected-(J13-Pin_22-Pad22)*%
X67494058Y-88033948D03*
%TO.P,J13,23,Pin_23*%
%TO.N,unconnected-(J13-Pin_23-Pad23)*%
X64954058Y-90573948D03*
%TO.P,J13,24,Pin_24*%
%TO.N,unconnected-(J13-Pin_24-Pad24)*%
X67494058Y-90573948D03*
%TO.P,J13,25,Pin_25*%
%TO.N,unconnected-(J13-Pin_25-Pad25)*%
X64954058Y-93113948D03*
%TO.P,J13,26,Pin_26*%
%TO.N,unconnected-(J13-Pin_26-Pad26)*%
X67494058Y-93113948D03*
%TO.P,J13,27,Pin_27*%
%TO.N,unconnected-(J13-Pin_27-Pad27)*%
X64954058Y-95653948D03*
%TO.P,J13,28,Pin_28*%
%TO.N,unconnected-(J13-Pin_28-Pad28)*%
X67494058Y-95653948D03*
%TO.P,J13,29,Pin_29*%
%TO.N,unconnected-(J13-Pin_29-Pad29)*%
X64954058Y-98193948D03*
%TO.P,J13,30,Pin_30*%
%TO.N,unconnected-(J13-Pin_30-Pad30)*%
X67494058Y-98193948D03*
%TO.P,J13,31,Pin_31*%
%TO.N,unconnected-(J13-Pin_31-Pad31)*%
X64954058Y-100733948D03*
%TO.P,J13,32,Pin_32*%
%TO.N,/APM_DAC_R*%
X67494058Y-100733948D03*
%TO.P,J13,33,Pin_33*%
%TO.N,unconnected-(J13-Pin_33-Pad33)*%
X64954058Y-103273948D03*
%TO.P,J13,34,Pin_34*%
%TO.N,unconnected-(J13-Pin_34-Pad34)*%
X67494058Y-103273948D03*
%TO.P,J13,35,Pin_35*%
%TO.N,unconnected-(J13-Pin_35-Pad35)*%
X64954058Y-105813948D03*
%TO.P,J13,36,Pin_36*%
%TO.N,unconnected-(J13-Pin_36-Pad36)*%
X67494058Y-105813948D03*
%TO.P,J13,37,Pin_37*%
%TO.N,unconnected-(J13-Pin_37-Pad37)*%
X64954058Y-108353948D03*
%TO.P,J13,38,Pin_38*%
%TO.N,unconnected-(J13-Pin_38-Pad38)*%
X67494058Y-108353948D03*
%TO.P,J13,39,Pin_39*%
%TO.N,unconnected-(J13-Pin_39-Pad39)*%
X64954058Y-110893948D03*
%TO.P,J13,40,Pin_40*%
%TO.N,unconnected-(J13-Pin_40-Pad40)*%
X67494058Y-110893948D03*
%TO.P,J13,41,Pin_41*%
%TO.N,unconnected-(J13-Pin_41-Pad41)*%
X64954058Y-113433948D03*
%TO.P,J13,42,Pin_42*%
%TO.N,unconnected-(J13-Pin_42-Pad42)*%
X67494058Y-113433948D03*
%TO.P,J13,43,Pin_43*%
%TO.N,unconnected-(J13-Pin_43-Pad43)*%
X64954058Y-115973948D03*
%TO.P,J13,44,Pin_44*%
%TO.N,unconnected-(J13-Pin_44-Pad44)*%
X67494058Y-115973948D03*
%TO.P,J13,45,Pin_45*%
%TO.N,unconnected-(J13-Pin_45-Pad45)*%
X64954058Y-118513948D03*
%TO.P,J13,46,Pin_46*%
%TO.N,unconnected-(J13-Pin_46-Pad46)*%
X67494058Y-118513948D03*
%TO.P,J13,47,Pin_47*%
%TO.N,/APM_ISR0*%
X64954058Y-121053948D03*
%TO.P,J13,48,Pin_48*%
%TO.N,unconnected-(J13-Pin_48-Pad48)*%
X67494058Y-121053948D03*
%TO.P,J13,49,Pin_49*%
%TO.N,unconnected-(J13-Pin_49-Pad49)*%
X64954058Y-123593948D03*
%TO.P,J13,50,Pin_50*%
%TO.N,unconnected-(J13-Pin_50-Pad50)*%
X67494058Y-123593948D03*
%TO.P,J13,51,Pin_51*%
%TO.N,/APM_I2C1_SCL*%
X64954058Y-126133948D03*
%TO.P,J13,52,Pin_52*%
%TO.N,unconnected-(J13-Pin_52-Pad52)*%
X67494058Y-126133948D03*
%TO.P,J13,53,Pin_53*%
%TO.N,/APM_I2C1_SDA*%
X64954058Y-128673948D03*
%TO.P,J13,54,Pin_54*%
%TO.N,unconnected-(J13-Pin_54-Pad54)*%
X67494058Y-128673948D03*
%TO.P,J13,55,Pin_55*%
%TO.N,unconnected-(J13-Pin_55-Pad55)*%
X64954058Y-131213948D03*
%TO.P,J13,56,Pin_56*%
%TO.N,unconnected-(J13-Pin_56-Pad56)*%
X67494058Y-131213948D03*
%TO.P,J13,57,Pin_57*%
%TO.N,unconnected-(J13-Pin_57-Pad57)*%
X64954058Y-133753948D03*
%TO.P,J13,58,Pin_58*%
%TO.N,unconnected-(J13-Pin_58-Pad58)*%
X67494058Y-133753948D03*
%TO.P,J13,59,Pin_59*%
%TO.N,unconnected-(J13-Pin_59-Pad59)*%
X64954058Y-136293948D03*
%TO.P,J13,60,Pin_60*%
%TO.N,unconnected-(J13-Pin_60-Pad60)*%
X67494058Y-136293948D03*
%TO.P,J13,61,Pin_61*%
%TO.N,unconnected-(J13-Pin_61-Pad61)*%
X64954058Y-138833948D03*
%TO.P,J13,62,Pin_62*%
%TO.N,/APM_IRQ0*%
X67494058Y-138833948D03*
%TO.P,J13,63,Pin_63*%
%TO.N,/7SDD_CMD_RX*%
X64954058Y-141373948D03*
%TO.P,J13,64,Pin_64*%
%TO.N,unconnected-(J13-Pin_64-Pad64)*%
X67494058Y-141373948D03*
%TO.P,J13,65,Pin_65*%
%TO.N,unconnected-(J13-Pin_65-Pad65)*%
X64954058Y-143913948D03*
%TO.P,J13,66,Pin_66*%
%TO.N,unconnected-(J13-Pin_66-Pad66)*%
X67494058Y-143913948D03*
%TO.P,J13,67,Pin_67*%
%TO.N,unconnected-(J13-Pin_67-Pad67)*%
X64954058Y-146453948D03*
%TO.P,J13,68,Pin_68*%
%TO.N,unconnected-(J13-Pin_68-Pad68)*%
X67494058Y-146453948D03*
%TO.P,J13,69,Pin_69*%
%TO.N,unconnected-(J13-Pin_69-Pad69)*%
X64954058Y-148993948D03*
%TO.P,J13,70,Pin_70*%
%TO.N,unconnected-(J13-Pin_70-Pad70)*%
X67494058Y-148993948D03*
%TO.P,J13,71,Pin_71*%
%TO.N,unconnected-(J13-Pin_71-Pad71)*%
X64954058Y-151533948D03*
%TO.P,J13,72,Pin_72*%
%TO.N,unconnected-(J13-Pin_72-Pad72)*%
X67494058Y-151533948D03*
%TD*%
D12*
%TO.P,U1,CN7_1*%
%TO.N,N/C*%
X118290000Y-63626000D03*
D13*
%TO.P,U1,CN7_2*%
X120830000Y-63626000D03*
%TO.P,U1,CN7_3*%
X118290000Y-66166000D03*
%TO.P,U1,CN7_4*%
X120830000Y-66166000D03*
%TO.P,U1,CN7_5*%
X118290000Y-68706000D03*
%TO.P,U1,CN7_6*%
X120830000Y-68706000D03*
%TO.P,U1,CN7_7*%
X118290000Y-71246000D03*
%TO.P,U1,CN7_8*%
X120830000Y-71246000D03*
%TO.P,U1,CN7_9*%
X118290000Y-73786000D03*
%TO.P,U1,CN7_10*%
X120830000Y-73786000D03*
%TO.P,U1,CN7_11*%
X118290000Y-76326000D03*
%TO.P,U1,CN7_12*%
X120830000Y-76326000D03*
%TO.P,U1,CN7_13*%
X118290000Y-78866000D03*
%TO.P,U1,CN7_14*%
X120830000Y-78866000D03*
%TO.P,U1,CN7_15*%
X118290000Y-81406000D03*
%TO.P,U1,CN7_16*%
X120830000Y-81406000D03*
%TO.P,U1,CN7_17*%
X118290000Y-83946000D03*
%TO.P,U1,CN7_18*%
X120830000Y-83946000D03*
%TO.P,U1,CN7_19*%
X118290000Y-86486000D03*
%TO.P,U1,CN7_20*%
X120830000Y-86486000D03*
D12*
%TO.P,U1,CN8_1*%
X72570000Y-72770000D03*
D13*
%TO.P,U1,CN8_2*%
X75110000Y-72770000D03*
%TO.P,U1,CN8_3*%
X72570000Y-75310000D03*
%TO.P,U1,CN8_4*%
X75110000Y-75310000D03*
%TO.P,U1,CN8_5*%
X72570000Y-77850000D03*
%TO.P,U1,CN8_6*%
X75110000Y-77850000D03*
%TO.P,U1,CN8_7*%
X72570000Y-80390000D03*
%TO.P,U1,CN8_8*%
X75110000Y-80390000D03*
%TO.P,U1,CN8_9*%
X72570000Y-82930000D03*
%TO.P,U1,CN8_10*%
X75110000Y-82930000D03*
%TO.P,U1,CN8_11*%
X72570000Y-85470000D03*
%TO.P,U1,CN8_12*%
X75110000Y-85470000D03*
%TO.P,U1,CN8_13*%
X72570000Y-88010000D03*
%TO.P,U1,CN8_14*%
X75110000Y-88010000D03*
%TO.P,U1,CN8_15*%
X72570000Y-90550000D03*
%TO.P,U1,CN8_16*%
X75110000Y-90550000D03*
D12*
%TO.P,U1,CN9_1*%
X72570000Y-95630000D03*
D13*
%TO.P,U1,CN9_2*%
X75110000Y-95630000D03*
%TO.P,U1,CN9_3*%
X72570000Y-98170000D03*
%TO.P,U1,CN9_4*%
X75110000Y-98170000D03*
%TO.P,U1,CN9_5*%
X72570000Y-100710000D03*
%TO.P,U1,CN9_6*%
X75110000Y-100710000D03*
%TO.P,U1,CN9_7*%
X72570000Y-103250000D03*
%TO.P,U1,CN9_8*%
X75110000Y-103250000D03*
%TO.P,U1,CN9_9*%
X72570000Y-105790000D03*
%TO.P,U1,CN9_10*%
X75110000Y-105790000D03*
%TO.P,U1,CN9_11*%
X72570000Y-108330000D03*
%TO.P,U1,CN9_12*%
X75110000Y-108330000D03*
%TO.P,U1,CN9_13*%
X72570000Y-110870000D03*
%TO.P,U1,CN9_14*%
X75110000Y-110870000D03*
%TO.P,U1,CN9_15*%
X72570000Y-113410000D03*
%TO.P,U1,CN9_16*%
X75110000Y-113410000D03*
%TO.P,U1,CN9_17*%
X72570000Y-115950000D03*
%TO.P,U1,CN9_18*%
X75110000Y-115950000D03*
%TO.P,U1,CN9_19*%
X72570000Y-118490000D03*
%TO.P,U1,CN9_20*%
X75110000Y-118490000D03*
%TO.P,U1,CN9_21*%
X72570000Y-121030000D03*
%TO.P,U1,CN9_22*%
X75110000Y-121030000D03*
%TO.P,U1,CN9_23*%
X72570000Y-123570000D03*
%TO.P,U1,CN9_24*%
X75110000Y-123570000D03*
%TO.P,U1,CN9_25*%
X72570000Y-126110000D03*
%TO.P,U1,CN9_26*%
X75110000Y-126110000D03*
%TO.P,U1,CN9_27*%
X72570000Y-128650000D03*
%TO.P,U1,CN9_28*%
X75110000Y-128650000D03*
%TO.P,U1,CN9_29*%
X72570000Y-131190000D03*
%TO.P,U1,CN9_30*%
X75110000Y-131190000D03*
D12*
%TO.P,U1,CN10_1*%
X118290000Y-90550000D03*
D13*
%TO.P,U1,CN10_2*%
X120830000Y-90550000D03*
%TO.P,U1,CN10_3*%
X118290000Y-93090000D03*
%TO.P,U1,CN10_4*%
X120830000Y-93090000D03*
%TO.P,U1,CN10_5*%
X118290000Y-95630000D03*
%TO.P,U1,CN10_6*%
X120830000Y-95630000D03*
%TO.P,U1,CN10_7*%
X118290000Y-98170000D03*
%TO.P,U1,CN10_8*%
X120830000Y-98170000D03*
%TO.P,U1,CN10_9*%
X118290000Y-100710000D03*
%TO.P,U1,CN10_10*%
X120830000Y-100710000D03*
%TO.P,U1,CN10_11*%
X118290000Y-103250000D03*
%TO.P,U1,CN10_12*%
X120830000Y-103250000D03*
%TO.P,U1,CN10_13*%
X118290000Y-105790000D03*
%TO.P,U1,CN10_14*%
X120830000Y-105790000D03*
%TO.P,U1,CN10_15*%
X118290000Y-108330000D03*
%TO.P,U1,CN10_16*%
X120830000Y-108330000D03*
%TO.P,U1,CN10_17*%
X118290000Y-110870000D03*
%TO.P,U1,CN10_18*%
X120830000Y-110870000D03*
%TO.P,U1,CN10_19*%
X118290000Y-113410000D03*
%TO.P,U1,CN10_20*%
X120830000Y-113410000D03*
%TO.P,U1,CN10_21*%
X118290000Y-115950000D03*
%TO.P,U1,CN10_22*%
X120830000Y-115950000D03*
%TO.P,U1,CN10_23*%
X118290000Y-118490000D03*
%TO.P,U1,CN10_24*%
X120830000Y-118490000D03*
%TO.P,U1,CN10_25*%
X118290000Y-121030000D03*
%TO.P,U1,CN10_26*%
X120830000Y-121030000D03*
%TO.P,U1,CN10_27*%
X118290000Y-123570000D03*
%TO.P,U1,CN10_28*%
X120830000Y-123570000D03*
%TO.P,U1,CN10_29*%
X118290000Y-126110000D03*
%TO.P,U1,CN10_30*%
X120830000Y-126110000D03*
%TO.P,U1,CN10_31*%
X118290000Y-128650000D03*
%TO.P,U1,CN10_32*%
X120830000Y-128650000D03*
%TO.P,U1,CN10_33*%
X118290000Y-131190000D03*
%TO.P,U1,CN10_34*%
X120830000Y-131190000D03*
%TD*%
D14*
%TO.P,R6,1*%
%TO.N,Net-(R6-Pad1)*%
X87100000Y-94100000D03*
%TO.P,R6,2*%
%TO.N,/THRM_D*%
X85100000Y-94100000D03*
%TD*%
D15*
%TO.P,J5,1,Pin_1*%
%TO.N,/APM_IRQ0*%
X73300000Y-135900000D03*
D16*
%TO.P,J5,2,Pin_2*%
%TO.N,/APM_ISR0*%
X73300000Y-134900000D03*
%TD*%
D17*
%TO.P,TH4,1*%
%TO.N,GND*%
X102800000Y-93550000D03*
D18*
%TO.P,TH4,2*%
%TO.N,Net-(R53-Pad1)*%
X100260000Y-93550000D03*
%TD*%
D19*
%TO.P,C30,1*%
%TO.N,Net-(U38-XI)*%
X91190000Y-75750000D03*
%TO.P,C30,2*%
%TO.N,GND*%
X91190000Y-77650000D03*
%TD*%
D20*
%TO.P,D15,1,K*%
%TO.N,GND*%
X108100000Y-147100000D03*
%TO.P,D15,2,A*%
%TO.N,Net-(D15-A)*%
X106525000Y-147100000D03*
%TD*%
D15*
%TO.P,J1,1,Pin_1*%
%TO.N,/APM_CMD_TX*%
X71150000Y-68700000D03*
D16*
%TO.P,J1,2,Pin_2*%
%TO.N,/APM_CMD_RX*%
X71150000Y-67700000D03*
%TO.P,J1,3,Pin_3*%
%TO.N,GND*%
X71150000Y-66700000D03*
%TD*%
D14*
%TO.P,R92,1*%
%TO.N,/APM_DBG_TX*%
X98740000Y-84750000D03*
%TO.P,R92,2*%
%TO.N,Net-(D63-A)*%
X96740000Y-84750000D03*
%TD*%
D15*
%TO.P,J4,1,Pin_1*%
%TO.N,5V_APM*%
X81050000Y-123550000D03*
D16*
%TO.P,J4,2,Pin_2*%
%TO.N,/APM_I2C1_SDA*%
X81050000Y-122550000D03*
%TO.P,J4,3,Pin_3*%
%TO.N,/APM_I2C1_SCL*%
X81050000Y-121550000D03*
%TO.P,J4,4,Pin_4*%
%TO.N,GND*%
X81050000Y-120550000D03*
%TD*%
D17*
%TO.P,TH5,1*%
%TO.N,GND*%
X104460000Y-131268000D03*
D18*
%TO.P,TH5,2*%
%TO.N,Net-(R9-Pad1)*%
X107000000Y-131268000D03*
%TD*%
D21*
%TO.P,TP7,1,1*%
%TO.N,/THRM_E*%
X106850000Y-96800000D03*
%TD*%
D22*
%TO.P,D60,1,K*%
%TO.N,GND*%
X93182500Y-76820000D03*
%TO.P,D60,2,A*%
%TO.N,Net-(D60-A)*%
X94757500Y-76820000D03*
%TD*%
D15*
%TO.P,J2,1,Pin_1*%
%TO.N,/APM_CAN_TD*%
X119850000Y-55850000D03*
D16*
%TO.P,J2,2,Pin_2*%
%TO.N,/APM_CAN_RD*%
X119850000Y-54850000D03*
%TO.P,J2,3,Pin_3*%
%TO.N,GND*%
X119850000Y-53850000D03*
%TD*%
D14*
%TO.P,R1,1*%
%TO.N,5V_APM*%
X99142500Y-145810000D03*
%TO.P,R1,2*%
%TO.N,/APM_WARN_RST*%
X97142500Y-145810000D03*
%TD*%
%TO.P,R8,1*%
%TO.N,Net-(R8-Pad1)*%
X88650000Y-126000000D03*
%TO.P,R8,2*%
%TO.N,/THRM_B*%
X86650000Y-126000000D03*
%TD*%
D22*
%TO.P,D63,1,K*%
%TO.N,GND*%
X93182500Y-84590000D03*
%TO.P,D63,2,A*%
%TO.N,Net-(D63-A)*%
X94757500Y-84590000D03*
%TD*%
D20*
%TO.P,D17,1,K*%
%TO.N,GND*%
X108037500Y-141250000D03*
%TO.P,D17,2,A*%
%TO.N,Net-(D17-A)*%
X106462500Y-141250000D03*
%TD*%
D21*
%TO.P,TP4,1,1*%
%TO.N,/THRM_B*%
X82000000Y-131400000D03*
%TD*%
%TO.P,TP3,1,1*%
%TO.N,/THRM_A*%
X111450000Y-131350000D03*
%TD*%
D20*
%TO.P,D16,1,K*%
%TO.N,GND*%
X108100000Y-144200000D03*
%TO.P,D16,2,A*%
%TO.N,Net-(D16-A)*%
X106525000Y-144200000D03*
%TD*%
D15*
%TO.P,J3,1,Pin_1*%
%TO.N,/7SDD_CMD_TX*%
X73350000Y-142400000D03*
D16*
%TO.P,J3,2,Pin_2*%
%TO.N,/7SDD_CMD_RX*%
X73350000Y-141400000D03*
%TO.P,J3,3,Pin_3*%
%TO.N,GND*%
X73350000Y-140400000D03*
%TD*%
D23*
%TO.P,U13,1,A1*%
%TO.N,Net-(J11-Pin_1)*%
X85475000Y-97745000D03*
%TO.P,U13,2,A0*%
%TO.N,Net-(J11-Pin_2)*%
X85475000Y-99015000D03*
%TO.P,U13,3,SDA*%
%TO.N,/TDM_SDA*%
X85475000Y-100285000D03*
%TO.P,U13,4,SCL*%
%TO.N,/TDM_SCL*%
X85475000Y-101555000D03*
%TO.P,U13,5,VS*%
%TO.N,5V_APM_MCU*%
X80525000Y-101555000D03*
%TO.P,U13,6,GND*%
%TO.N,GND*%
X80525000Y-100285000D03*
%TO.P,U13,7,IN-*%
%TO.N,5V_APM*%
X80525000Y-99015000D03*
%TO.P,U13,8,IN+*%
%TO.N,5V_APM_MCU*%
X80525000Y-97745000D03*
%TD*%
D24*
%TO.P,U38,1,GND*%
%TO.N,GND*%
X79310000Y-80475000D03*
%TO.P,U38,2,TXD*%
%TO.N,/APM_DBG_RX*%
X80580000Y-80475000D03*
%TO.P,U38,3,RXD*%
%TO.N,/APM_DBG_TX*%
X81850000Y-80475000D03*
%TO.P,U38,4,V3*%
%TO.N,unconnected-(U38-V3-Pad4)*%
X83120000Y-80475000D03*
%TO.P,U38,5,UD+*%
%TO.N,/USB_debug_APM/D+*%
X84390000Y-80475000D03*
%TO.P,U38,6,UD-*%
%TO.N,/USB_debug_APM/D-*%
X85660000Y-80475000D03*
%TO.P,U38,7,XI*%
%TO.N,Net-(U38-XI)*%
X86930000Y-80475000D03*
%TO.P,U38,8,XO*%
%TO.N,Net-(U38-XO)*%
X88200000Y-80475000D03*
%TO.P,U38,9,~{CTS}*%
%TO.N,unconnected-(U38-~{CTS}-Pad9)*%
X88200000Y-85425000D03*
%TO.P,U38,10,~{DSR}*%
%TO.N,unconnected-(U38-~{DSR}-Pad10)*%
X86930000Y-85425000D03*
%TO.P,U38,11,~{RI}*%
%TO.N,unconnected-(U38-~{RI}-Pad11)*%
X85660000Y-85425000D03*
%TO.P,U38,12,~{DCD}*%
%TO.N,unconnected-(U38-~{DCD}-Pad12)*%
X84390000Y-85425000D03*
%TO.P,U38,13,~{DTR}*%
%TO.N,unconnected-(U38-~{DTR}-Pad13)*%
X83120000Y-85425000D03*
%TO.P,U38,14,~{RTS}*%
%TO.N,unconnected-(U38-~{RTS}-Pad14)*%
X81850000Y-85425000D03*
%TO.P,U38,15,R232*%
%TO.N,unconnected-(U38-R232-Pad15)*%
X80580000Y-85425000D03*
%TO.P,U38,16,VCC*%
%TO.N,5V_APM*%
X79310000Y-85425000D03*
%TD*%
D15*
%TO.P,J7,1,Pin_1*%
%TO.N,/TDM_SCL*%
X80200000Y-93600000D03*
D16*
%TO.P,J7,2,Pin_2*%
%TO.N,/TDM_SDA*%
X81200000Y-93600000D03*
%TD*%
D22*
%TO.P,D62,1,K*%
%TO.N,GND*%
X93182500Y-82000000D03*
%TO.P,D62,2,A*%
%TO.N,Net-(D62-A)*%
X94757500Y-82000000D03*
%TD*%
D14*
%TO.P,R88,1*%
%TO.N,Net-(D60-A)*%
X98740000Y-72950000D03*
%TO.P,R88,2*%
%TO.N,5V_APM*%
X96740000Y-72950000D03*
%TD*%
D17*
%TO.P,TH3,1*%
%TO.N,GND*%
X86460000Y-131318000D03*
D18*
%TO.P,TH3,2*%
%TO.N,Net-(R8-Pad1)*%
X89000000Y-131318000D03*
%TD*%
D14*
%TO.P,R28,1*%
%TO.N,GND*%
X90540000Y-97000000D03*
%TO.P,R28,2*%
%TO.N,Net-(J11-Pin_1)*%
X88540000Y-97000000D03*
%TD*%
%TO.P,R2,1*%
%TO.N,5V_APM*%
X99142500Y-140060000D03*
%TO.P,R2,2*%
%TO.N,/APM_FAIL_RST*%
X97142500Y-140060000D03*
%TD*%
D25*
%TO.P,J21,1,VBUS*%
%TO.N,5V_APM*%
X111200000Y-65750000D03*
%TO.P,J21,2,D-*%
%TO.N,/APM_USB_D-*%
X108700000Y-65750000D03*
%TO.P,J21,3,D+*%
%TO.N,/APM_USB_D+*%
X106700000Y-65750000D03*
%TO.P,J21,4,GND*%
%TO.N,GND*%
X104200000Y-65750000D03*
D26*
%TO.P,J21,5,Shield*%
%TO.N,unconnected-(J21-Shield-Pad5)*%
X102000000Y-63000000D03*
%TO.N,unconnected-(J21-Shield-Pad5)_1*%
X113400000Y-63000000D03*
%TD*%
D14*
%TO.P,R7,1*%
%TO.N,Net-(R7-Pad1)*%
X104250000Y-73900000D03*
%TO.P,R7,2*%
%TO.N,/THRM_C*%
X102250000Y-73900000D03*
%TD*%
%TO.P,R30,1*%
%TO.N,Net-(D7-A)*%
X90600000Y-103670000D03*
%TO.P,R30,2*%
%TO.N,5V_APM*%
X88600000Y-103670000D03*
%TD*%
D19*
%TO.P,C31,1*%
%TO.N,Net-(U38-XO)*%
X86290000Y-75750000D03*
%TO.P,C31,2*%
%TO.N,GND*%
X86290000Y-77650000D03*
%TD*%
D27*
%TO.P,J12,1,Pin_1*%
%TO.N,unconnected-(J12-Pin_1-Pad1)*%
X94160000Y-125832000D03*
D28*
%TO.P,J12,2,Pin_2*%
%TO.N,/APM_DAC_R*%
X96160000Y-125832000D03*
%TO.P,J12,3,Pin_3*%
%TO.N,/APM_DAC_L*%
X98160000Y-125832000D03*
%TO.P,J12,4,Pin_4*%
%TO.N,GND*%
X100160000Y-125832000D03*
%TD*%
D14*
%TO.P,R26,1*%
%TO.N,GND*%
X90600000Y-100300000D03*
%TO.P,R26,2*%
%TO.N,Net-(J11-Pin_2)*%
X88600000Y-100300000D03*
%TD*%
D29*
%TO.P,R41,1*%
%TO.N,Net-(D18-A)*%
X101892500Y-138260000D03*
%TO.P,R41,2*%
%TO.N,/APM_LED_FAIL*%
X103892500Y-138260000D03*
%TD*%
%TO.P,R38,1*%
%TO.N,Net-(D15-A)*%
X101892500Y-147110000D03*
%TO.P,R38,2*%
%TO.N,5V_APM*%
X103892500Y-147110000D03*
%TD*%
%TO.P,R40,1*%
%TO.N,Net-(D17-A)*%
X101892500Y-141210000D03*
%TO.P,R40,2*%
%TO.N,/APM_LED_WARN*%
X103892500Y-141210000D03*
%TD*%
%TO.P,R39,1*%
%TO.N,Net-(D16-A)*%
X101892500Y-144160000D03*
%TO.P,R39,2*%
%TO.N,/APM_LED_OK*%
X103892500Y-144160000D03*
%TD*%
D20*
%TO.P,D7,1,K*%
%TO.N,GND*%
X95525000Y-103675000D03*
%TO.P,D7,2,A*%
%TO.N,Net-(D7-A)*%
X93950000Y-103675000D03*
%TD*%
D30*
%TO.P,SW1,1,1*%
%TO.N,/APM_WARN_RST*%
X94032500Y-145810000D03*
%TO.P,SW1,2,2*%
%TO.N,GND*%
X84852500Y-145810000D03*
%TD*%
D17*
%TO.P,TH1,1*%
%TO.N,GND*%
X92500000Y-89832000D03*
D18*
%TO.P,TH1,2*%
%TO.N,Net-(R6-Pad1)*%
X89960000Y-89832000D03*
%TD*%
D31*
%TO.P,J11,1,Pin_1*%
%TO.N,Net-(J11-Pin_1)*%
X95335000Y-99700000D03*
D32*
%TO.P,J11,2,Pin_2*%
%TO.N,Net-(J11-Pin_2)*%
X94065000Y-99700000D03*
%TD*%
D17*
%TO.P,TH2,1*%
%TO.N,GND*%
X98850000Y-67582000D03*
D18*
%TO.P,TH2,2*%
%TO.N,Net-(R7-Pad1)*%
X96310000Y-67582000D03*
%TD*%
D14*
%TO.P,R89,1*%
%TO.N,Net-(D61-A)*%
X98740000Y-75900000D03*
%TO.P,R89,2*%
%TO.N,5V_APM*%
X96740000Y-75900000D03*
%TD*%
D33*
%TO.P,C5,1*%
%TO.N,GND*%
X90700000Y-106650000D03*
%TO.P,C5,2*%
%TO.N,5V_APM_MCU*%
X88800000Y-106650000D03*
%TD*%
D34*
%TO.P,TP1,1,1*%
%TO.N,/APM_DAC_R*%
X94900000Y-118750000D03*
%TD*%
%TO.P,TP2,1,1*%
%TO.N,/APM_DAC_L*%
X99450000Y-118750000D03*
%TD*%
D33*
%TO.P,C29,1*%
%TO.N,GND*%
X98850000Y-88330000D03*
%TO.P,C29,2*%
%TO.N,5V_APM*%
X96950000Y-88330000D03*
%TD*%
D30*
%TO.P,SW2,1,1*%
%TO.N,/APM_FAIL_RST*%
X94032500Y-140060000D03*
%TO.P,SW2,2,2*%
%TO.N,GND*%
X84852500Y-140060000D03*
%TD*%
D14*
%TO.P,R90,1*%
%TO.N,/USB_debug_APM/APM_DBG_TX*%
X78400000Y-63700000D03*
%TO.P,R90,2*%
%TO.N,/APM_DBG_RX*%
X76400000Y-63700000D03*
%TD*%
D21*
%TO.P,TP6,1,1*%
%TO.N,/THRM_D*%
X85450000Y-89750000D03*
%TD*%
D22*
%TO.P,D32,1,K*%
%TO.N,GND*%
X102450000Y-69350000D03*
%TO.P,D32,2,A*%
%TO.N,Net-(D32-A)*%
X104025000Y-69350000D03*
%TD*%
%TO.P,D61,1,K*%
%TO.N,GND*%
X93182500Y-79410000D03*
%TO.P,D61,2,A*%
%TO.N,Net-(D61-A)*%
X94757500Y-79410000D03*
%TD*%
D35*
%TO.P,R53,1*%
%TO.N,Net-(R53-Pad1)*%
X95900000Y-93600000D03*
%TO.P,R53,2*%
%TO.N,/THRM_E*%
X95900000Y-95600000D03*
%TD*%
D29*
%TO.P,R50,1*%
%TO.N,Net-(D32-A)*%
X107950000Y-69350000D03*
%TO.P,R50,2*%
%TO.N,5V_APM*%
X109950000Y-69350000D03*
%TD*%
D25*
%TO.P,J29,1,VBUS*%
%TO.N,5V_APM*%
X91340000Y-65700000D03*
%TO.P,J29,2,D-*%
%TO.N,/USB_debug_APM/D-*%
X88840000Y-65700000D03*
%TO.P,J29,3,D+*%
%TO.N,/USB_debug_APM/D+*%
X86840000Y-65700000D03*
%TO.P,J29,4,GND*%
%TO.N,GND*%
X84340000Y-65700000D03*
D26*
%TO.P,J29,5,Shield*%
%TO.N,unconnected-(J29-Shield-Pad5)*%
X82140000Y-62950000D03*
%TO.N,unconnected-(J29-Shield-Pad5)_1*%
X93540000Y-62950000D03*
%TD*%
D14*
%TO.P,R91,1*%
%TO.N,/APM_DBG_RX*%
X98740000Y-81800000D03*
%TO.P,R91,2*%
%TO.N,Net-(D62-A)*%
X96740000Y-81800000D03*
%TD*%
D20*
%TO.P,D18,1,K*%
%TO.N,GND*%
X107987500Y-138300000D03*
%TO.P,D18,2,A*%
%TO.N,Net-(D18-A)*%
X106412500Y-138300000D03*
%TD*%
D21*
%TO.P,TP5,1,1*%
%TO.N,/THRM_C*%
X108000000Y-73950000D03*
%TD*%
D36*
%TO.P,Y7,1,1*%
%TO.N,Net-(U38-XI)*%
X91140000Y-71700000D03*
%TO.P,Y7,2,2*%
%TO.N,Net-(U38-XO)*%
X86260000Y-71700000D03*
%TD*%
D29*
%TO.P,R9,1*%
%TO.N,Net-(R9-Pad1)*%
X104650000Y-126000000D03*
%TO.P,R9,2*%
%TO.N,/THRM_A*%
X106650000Y-126000000D03*
%TD*%
D15*
%TO.P,J30,1,Pin_1*%
%TO.N,/USB_debug_APM/APM_DBG_TX*%
X78400000Y-57025000D03*
D16*
%TO.P,J30,2,Pin_2*%
%TO.N,/APM_DBG_TX*%
X77400000Y-57025000D03*
%TO.P,J30,3,Pin_3*%
%TO.N,GND*%
X76400000Y-57025000D03*
%TD*%
D37*
%TO.N,GND*%
X97000000Y-103950000D03*
X91300000Y-95550000D03*
X88150000Y-77400000D03*
X102200000Y-66500000D03*
X109150000Y-137150000D03*
X78600000Y-99800000D03*
X83600000Y-137000000D03*
X92000000Y-82450000D03*
X92017500Y-85040000D03*
X91150000Y-79050000D03*
X83600000Y-142843750D03*
X109250000Y-143050000D03*
X92000000Y-79850000D03*
X93500000Y-75450000D03*
X109200000Y-140100000D03*
X92150000Y-100750000D03*
X102200000Y-67850000D03*
X92200000Y-106950000D03*
X100750000Y-88450000D03*
X83000000Y-66300000D03*
X78900000Y-78300000D03*
X109300000Y-146000000D03*
%TO.N,5V_APM*%
X86800000Y-104300000D03*
X97250000Y-77650000D03*
X99800000Y-137900000D03*
X96400000Y-71400000D03*
X95400000Y-87650000D03*
X93400000Y-66350000D03*
X108950000Y-71350000D03*
X82450000Y-100050000D03*
X105376603Y-146601039D03*
X79600000Y-87400000D03*
X99800000Y-143640000D03*
X113800000Y-66550000D03*
%TO.N,Net-(U38-XO)*%
X89500000Y-78800000D03*
X88150000Y-75850000D03*
%TO.N,/APM_CAN_TD*%
X122650000Y-61300000D03*
%TO.N,/APM_CAN_RD*%
X123400000Y-60250000D03*
%TO.N,/APM_LED_OK*%
X131050000Y-131950000D03*
%TO.N,/APM_LED_WARN*%
X123100000Y-135850000D03*
X124000000Y-131450000D03*
%TO.N,/APM_WARN_RST*%
X98650000Y-142200000D03*
%TO.N,/APM_FAIL_RST*%
X105800000Y-135000000D03*
%TO.N,/APM_DBG_TX*%
X84000000Y-83950000D03*
X82500000Y-82350000D03*
%TD*%
D38*
%TO.N,/THRM_B*%
X86650000Y-126000000D02*
X84717500Y-126000000D01*
X84717500Y-126000000D02*
X82000000Y-128717500D01*
X82000000Y-128717500D02*
X82000000Y-131167500D01*
%TO.N,Net-(R8-Pad1)*%
X89000000Y-131318000D02*
X89000000Y-126350000D01*
X89000000Y-126350000D02*
X88650000Y-126000000D01*
%TO.N,/THRM_A*%
X106650000Y-126000000D02*
X108550000Y-126000000D01*
X108550000Y-126000000D02*
X111450000Y-128900000D01*
X111450000Y-128900000D02*
X111450000Y-131350000D01*
%TO.N,Net-(R9-Pad1)*%
X107000000Y-131268000D02*
X104660000Y-128928000D01*
X104660000Y-128928000D02*
X104660000Y-126010000D01*
X104660000Y-126010000D02*
X104650000Y-126000000D01*
%TO.N,/THRM_E*%
X95900000Y-95600000D02*
X97100000Y-96800000D01*
X97100000Y-96800000D02*
X106850000Y-96800000D01*
%TO.N,Net-(R53-Pad1)*%
X100260000Y-93550000D02*
X95950000Y-93550000D01*
X95950000Y-93550000D02*
X95900000Y-93600000D01*
%TO.N,/THRM_D*%
X85450000Y-89750000D02*
X85450000Y-93750000D01*
X85450000Y-93750000D02*
X85100000Y-94100000D01*
%TO.N,Net-(R6-Pad1)*%
X87100000Y-94100000D02*
X89960000Y-91240000D01*
X89960000Y-91240000D02*
X89960000Y-89832000D01*
%TO.N,/THRM_E*%
X106818000Y-96832000D02*
X106850000Y-96800000D01*
%TO.N,GND*%
X90600000Y-100300000D02*
X91700000Y-100300000D01*
X102950000Y-65750000D02*
X102200000Y-66500000D01*
X91900000Y-106650000D02*
X92200000Y-106950000D01*
X90540000Y-96310000D02*
X91300000Y-95550000D01*
X84852500Y-140060000D02*
X84852500Y-138252500D01*
X92440000Y-79410000D02*
X92000000Y-79850000D01*
X95525000Y-103675000D02*
X96725000Y-103675000D01*
X79310000Y-78710000D02*
X78900000Y-78300000D01*
X104200000Y-65750000D02*
X102950000Y-65750000D01*
X79310000Y-80475000D02*
X79310000Y-78710000D01*
X108100000Y-144200000D02*
X109250000Y-143050000D01*
X93200000Y-84600000D02*
X92457500Y-84600000D01*
X93182500Y-82010000D02*
X92440000Y-82010000D01*
X87900000Y-77650000D02*
X88150000Y-77400000D01*
X102450000Y-69350000D02*
X102450000Y-68150000D01*
X84852500Y-144096250D02*
X83600000Y-142843750D01*
X90700000Y-106650000D02*
X91900000Y-106650000D01*
X93182500Y-79410000D02*
X92440000Y-79410000D01*
X86290000Y-77650000D02*
X87900000Y-77650000D01*
X107987500Y-138300000D02*
X108000000Y-138300000D01*
X90540000Y-97000000D02*
X90540000Y-96310000D01*
X83600000Y-65700000D02*
X83000000Y-66300000D01*
X84852500Y-145903750D02*
X84852500Y-144096250D01*
X96725000Y-103675000D02*
X97000000Y-103950000D01*
X91190000Y-79010000D02*
X91150000Y-79050000D01*
X93182500Y-76820000D02*
X93182500Y-75767500D01*
X91700000Y-100300000D02*
X92150000Y-100750000D01*
X84852500Y-138252500D02*
X83600000Y-137000000D01*
X108150000Y-147150000D02*
X109300000Y-146000000D01*
X108050000Y-141250000D02*
X109200000Y-140100000D01*
X108000000Y-138300000D02*
X109150000Y-137150000D01*
X92457500Y-84600000D02*
X92017500Y-85040000D01*
X80525000Y-100285000D02*
X79085000Y-100285000D01*
X91190000Y-77650000D02*
X91190000Y-79010000D01*
X93182500Y-75767500D02*
X93500000Y-75450000D01*
X84340000Y-65700000D02*
X83600000Y-65700000D01*
X92440000Y-82010000D02*
X92000000Y-82450000D01*
X79085000Y-100285000D02*
X78600000Y-99800000D01*
X98850000Y-88330000D02*
X100630000Y-88330000D01*
X102450000Y-68150000D02*
X102200000Y-67900000D01*
X100630000Y-88330000D02*
X100750000Y-88450000D01*
D39*
%TO.N,5V_APM*%
X105040000Y-147110000D02*
X103892500Y-147110000D01*
X88600000Y-103670000D02*
X87430000Y-103670000D01*
X79310000Y-87110000D02*
X79600000Y-87400000D01*
X109950000Y-69350000D02*
X109950000Y-70350000D01*
X96740000Y-71740000D02*
X96400000Y-71400000D01*
X96950000Y-88330000D02*
X96080000Y-88330000D01*
X92750000Y-65700000D02*
X93400000Y-66350000D01*
X91340000Y-65700000D02*
X92750000Y-65700000D01*
X105376603Y-146601039D02*
X105376603Y-146773397D01*
X96740000Y-72950000D02*
X96740000Y-71740000D01*
X82450000Y-100050000D02*
X81415000Y-99015000D01*
X99142500Y-138557500D02*
X99800000Y-137900000D01*
X81415000Y-99015000D02*
X80525000Y-99015000D01*
X96740000Y-75900000D02*
X96740000Y-77140000D01*
X96080000Y-88330000D02*
X95400000Y-87650000D01*
X99142500Y-144297500D02*
X99800000Y-143640000D01*
X109950000Y-70350000D02*
X108950000Y-71350000D01*
X112000000Y-66550000D02*
X113800000Y-66550000D01*
X111200000Y-65750000D02*
X112000000Y-66550000D01*
X99142500Y-145800000D02*
X99142500Y-144297500D01*
X79310000Y-85425000D02*
X79310000Y-87110000D01*
X105376603Y-146773397D02*
X105040000Y-147110000D01*
X96740000Y-77140000D02*
X97250000Y-77650000D01*
X99142500Y-140060000D02*
X99142500Y-138557500D01*
X87430000Y-103670000D02*
X86800000Y-104300000D01*
D38*
%TO.N,Net-(U38-XI)*%
X91140000Y-71700000D02*
X91140000Y-75700000D01*
X86930000Y-80475000D02*
X86930000Y-79820000D01*
X91000000Y-75750000D02*
X91190000Y-75750000D01*
X86930000Y-79820000D02*
X91000000Y-75750000D01*
X91140000Y-75700000D02*
X91190000Y-75750000D01*
%TO.N,Net-(U38-XO)*%
X88050000Y-75750000D02*
X88150000Y-75850000D01*
X88200000Y-80475000D02*
X88200000Y-80100000D01*
X86290000Y-75750000D02*
X88050000Y-75750000D01*
X88200000Y-80100000D02*
X89500000Y-78800000D01*
X86290000Y-71730000D02*
X86260000Y-71700000D01*
X86290000Y-75750000D02*
X86290000Y-71730000D01*
%TO.N,Net-(D15-A)*%
X102600000Y-148550000D02*
X101892500Y-147842500D01*
X106525000Y-147100000D02*
X106525000Y-147975000D01*
X106525000Y-147975000D02*
X105950000Y-148550000D01*
X105950000Y-148550000D02*
X102600000Y-148550000D01*
X101892500Y-147842500D02*
X101892500Y-147110000D01*
%TO.N,Net-(D16-A)*%
X102600000Y-145712500D02*
X101892500Y-145005000D01*
X106525000Y-145137500D02*
X105950000Y-145712500D01*
X105950000Y-145712500D02*
X102600000Y-145712500D01*
X101892500Y-145005000D02*
X101892500Y-144272500D01*
X106525000Y-144262500D02*
X106525000Y-145137500D01*
%TO.N,Net-(D17-A)*%
X106500000Y-142137500D02*
X105925000Y-142712500D01*
X101867500Y-142005000D02*
X101867500Y-141272500D01*
X106500000Y-141262500D02*
X106500000Y-142137500D01*
X102575000Y-142712500D02*
X101867500Y-142005000D01*
X105925000Y-142712500D02*
X102575000Y-142712500D01*
%TO.N,Net-(D18-A)*%
X106500000Y-139137500D02*
X105925000Y-139712500D01*
X105925000Y-139712500D02*
X102575000Y-139712500D01*
X102575000Y-139712500D02*
X101867500Y-139005000D01*
X106500000Y-138262500D02*
X106500000Y-139137500D01*
X101867500Y-139005000D02*
X101867500Y-138272500D01*
%TO.N,Net-(D32-A)*%
X107950000Y-69350000D02*
X104025000Y-69350000D01*
%TO.N,Net-(D60-A)*%
X94757500Y-76820000D02*
X94757500Y-74892500D01*
X94757500Y-74892500D02*
X95450000Y-74200000D01*
X97490000Y-74200000D02*
X98740000Y-72950000D01*
X95450000Y-74200000D02*
X97490000Y-74200000D01*
%TO.N,Net-(D61-A)*%
X98740000Y-78710000D02*
X98040000Y-79410000D01*
X98740000Y-75900000D02*
X98740000Y-78710000D01*
X98040000Y-79410000D02*
X94757500Y-79410000D01*
%TO.N,Net-(D62-A)*%
X94957500Y-81800000D02*
X94757500Y-82000000D01*
X96740000Y-81800000D02*
X94957500Y-81800000D01*
%TO.N,Net-(D63-A)*%
X96740000Y-84750000D02*
X94917500Y-84750000D01*
X94917500Y-84750000D02*
X94757500Y-84590000D01*
%TO.N,/APM_CAN_TD*%
X122650000Y-61300000D02*
X122650000Y-64461938D01*
X122650000Y-64461938D02*
X125902010Y-67713948D01*
%TO.N,/APM_CAN_RD*%
X125902010Y-65173948D02*
X125673948Y-65173948D01*
X125673948Y-65173948D02*
X123400000Y-62900000D01*
X123400000Y-62900000D02*
X123400000Y-60250000D01*
%TO.N,/7SDD_CMD_RX*%
X69350000Y-140150000D02*
X70600000Y-141400000D01*
X66178006Y-140150000D02*
X69350000Y-140150000D01*
X70600000Y-141400000D02*
X73350000Y-141400000D01*
X64954058Y-141373948D02*
X66178006Y-140150000D01*
%TO.N,/7SDD_CMD_TX*%
X73350000Y-142400000D02*
X73550000Y-142400000D01*
%TO.N,/APM_I2C1_SCL*%
X81050000Y-121550000D02*
X77200000Y-121550000D01*
X76500000Y-122250000D02*
X71450000Y-122250000D01*
X68850000Y-124850000D02*
X66238006Y-124850000D01*
X71450000Y-122250000D02*
X68850000Y-124850000D01*
X77200000Y-121550000D02*
X76500000Y-122250000D01*
X66238006Y-124850000D02*
X64954058Y-126133948D01*
%TO.N,/APM_I2C1_SDA*%
X68801305Y-127398695D02*
X71350000Y-124850000D01*
X66301305Y-127398695D02*
X68801305Y-127398695D01*
X65026052Y-128673948D02*
X66301305Y-127398695D01*
X78100000Y-122550000D02*
X81050000Y-122550000D01*
X64954058Y-128673948D02*
X65026052Y-128673948D01*
X71350000Y-124850000D02*
X75800000Y-124850000D01*
X75800000Y-124850000D02*
X78100000Y-122550000D01*
%TO.N,/APM_IRQ0*%
X73300000Y-135900000D02*
X70366052Y-138833948D01*
X70366052Y-138833948D02*
X67494058Y-138833948D01*
%TO.N,/APM_ISR0*%
X73217810Y-134982190D02*
X73300000Y-134900000D01*
X63532190Y-134982190D02*
X73217810Y-134982190D01*
X62550000Y-134000000D02*
X63532190Y-134982190D01*
X63696052Y-121053948D02*
X62550000Y-122200000D01*
X64954058Y-121053948D02*
X63696052Y-121053948D01*
X62550000Y-122200000D02*
X62550000Y-134000000D01*
D40*
%TO.N,/APM_DAC_L*%
X98160000Y-125832000D02*
X98160000Y-120040000D01*
X124150000Y-76900000D02*
X124150000Y-85750000D01*
X116800000Y-88550000D02*
X115150000Y-90200000D01*
X115150000Y-90200000D02*
X115150000Y-115250000D01*
X124150000Y-85750000D02*
X121350000Y-88550000D01*
X101000000Y-117200000D02*
X99450000Y-118750000D01*
X98160000Y-120040000D02*
X99450000Y-118750000D01*
X113200000Y-117200000D02*
X101000000Y-117200000D01*
X121350000Y-88550000D02*
X116800000Y-88550000D01*
X125716052Y-75333948D02*
X124150000Y-76900000D01*
X115150000Y-115250000D02*
X113200000Y-117200000D01*
X125902010Y-75333948D02*
X125716052Y-75333948D01*
%TO.N,/APM_DAC_R*%
X71550000Y-117200000D02*
X70100000Y-115750000D01*
X70100000Y-102550000D02*
X68283948Y-100733948D01*
X94900000Y-118750000D02*
X93350000Y-117200000D01*
X96160000Y-120010000D02*
X94900000Y-118750000D01*
X96160000Y-125832000D02*
X96160000Y-120010000D01*
X93350000Y-117200000D02*
X71550000Y-117200000D01*
X68283948Y-100733948D02*
X67494058Y-100733948D01*
X70100000Y-115750000D02*
X70100000Y-102550000D01*
D38*
%TO.N,/APM_USB_D-*%
X130204192Y-75333948D02*
X130775000Y-74763140D01*
X107975000Y-61663910D02*
X107975000Y-63149999D01*
X107975000Y-63149999D02*
X108700000Y-63874999D01*
X130775000Y-59825000D02*
X130200000Y-59250000D01*
X108700000Y-63874999D02*
X108700000Y-65750000D01*
X110388910Y-59250000D02*
X107975000Y-61663910D01*
X128442010Y-75333948D02*
X130204192Y-75333948D01*
X130200000Y-59250000D02*
X110388910Y-59250000D01*
X130775000Y-74763140D02*
X130775000Y-59825000D01*
%TO.N,/APM_USB_D+*%
X107425000Y-63149999D02*
X106700000Y-63874999D01*
X107425000Y-61436090D02*
X107425000Y-63149999D01*
X131325000Y-74990958D02*
X131325000Y-59597182D01*
X128442010Y-77873948D02*
X131325000Y-74990958D01*
X106700000Y-63874999D02*
X106700000Y-65750000D01*
X110161090Y-58700000D02*
X107425000Y-61436090D01*
X130427818Y-58700000D02*
X110161090Y-58700000D01*
X131325000Y-59597182D02*
X130427818Y-58700000D01*
%TO.N,/USB_debug_APM/D+*%
X84390000Y-79800000D02*
X84390000Y-80475000D01*
X84750000Y-79440000D02*
X84390000Y-79800000D01*
X86840000Y-66400000D02*
X87565000Y-67125000D01*
X83625000Y-77613910D02*
X84750000Y-78738910D01*
X87565000Y-67125000D02*
X87565000Y-67346090D01*
X84186090Y-68425000D02*
X83625000Y-68986090D01*
X84750000Y-78738910D02*
X84750000Y-79440000D01*
X86486090Y-68425000D02*
X84186090Y-68425000D01*
X87565000Y-67346090D02*
X86486090Y-68425000D01*
X83625000Y-68986090D02*
X83625000Y-77613910D01*
X86840000Y-65700000D02*
X86840000Y-66400000D01*
%TO.N,/USB_debug_APM/D-*%
X84175000Y-77386090D02*
X85300000Y-78511090D01*
X86713910Y-68975000D02*
X84413910Y-68975000D01*
X85300000Y-79440000D02*
X85660000Y-79800000D01*
X85660000Y-79800000D02*
X85660000Y-80475000D01*
X88840000Y-65700000D02*
X88840000Y-66400000D01*
X84413910Y-68975000D02*
X84175000Y-69213910D01*
X88840000Y-66400000D02*
X88115000Y-67125000D01*
X84175000Y-69213910D02*
X84175000Y-77386090D01*
X88115000Y-67125000D02*
X88115000Y-67573910D01*
X88115000Y-67573910D02*
X86713910Y-68975000D01*
X85300000Y-78511090D02*
X85300000Y-79440000D01*
%TO.N,/APM_DBG_RX*%
X76400000Y-63700000D02*
X68968006Y-63700000D01*
X98740000Y-81800000D02*
X98740000Y-82610000D01*
X81100000Y-83350000D02*
X80580000Y-82830000D01*
X80580000Y-72430000D02*
X76400000Y-68250000D01*
X98000000Y-83350000D02*
X81100000Y-83350000D01*
X98740000Y-82610000D02*
X98000000Y-83350000D01*
X68968006Y-63700000D02*
X67494058Y-65173948D01*
X76400000Y-68250000D02*
X76400000Y-63700000D01*
X80580000Y-80475000D02*
X80580000Y-72430000D01*
X80580000Y-82830000D02*
X80580000Y-80475000D01*
%TO.N,/APM_LED_OK*%
X131050000Y-131950000D02*
X131050000Y-136650000D01*
X108800000Y-142250000D02*
X107350000Y-142250000D01*
X104702500Y-143350000D02*
X103892500Y-144160000D01*
X106250000Y-143350000D02*
X104702500Y-143350000D01*
X113550000Y-137500000D02*
X108800000Y-142250000D01*
X130200000Y-137500000D02*
X113550000Y-137500000D01*
X107350000Y-142250000D02*
X106250000Y-143350000D01*
X131050000Y-136650000D02*
X130200000Y-137500000D01*
%TO.N,/APM_LED_WARN*%
X127150000Y-69005958D02*
X127150000Y-96700000D01*
X122225000Y-136725000D02*
X111275000Y-136725000D01*
X124000000Y-97350000D02*
X124000000Y-102850000D01*
X127150000Y-96700000D02*
X126950000Y-96900000D01*
X108800000Y-139200000D02*
X111275000Y-136725000D01*
X105650000Y-140400000D02*
X105750000Y-140300000D01*
X107700000Y-140300000D02*
X108800000Y-139200000D01*
X104840000Y-141210000D02*
X105650000Y-140400000D01*
X124000000Y-102850000D02*
X124000000Y-131450000D01*
X128442010Y-67713948D02*
X127150000Y-69005958D01*
X124450000Y-96900000D02*
X124000000Y-97350000D01*
X126950000Y-96900000D02*
X124450000Y-96900000D01*
X123100000Y-135850000D02*
X122225000Y-136725000D01*
X103892500Y-141210000D02*
X104840000Y-141210000D01*
X105750000Y-140300000D02*
X106400000Y-140300000D01*
X106400000Y-140300000D02*
X107700000Y-140300000D01*
%TO.N,/APM_LED_FAIL*%
X127150000Y-104565958D02*
X128442010Y-103273948D01*
X126800000Y-132500000D02*
X127150000Y-132150000D01*
X127150000Y-132150000D02*
X127150000Y-104565958D01*
X103892500Y-138260000D02*
X106102500Y-136050000D01*
X124750000Y-132500000D02*
X126800000Y-132500000D01*
X106102500Y-136050000D02*
X121200000Y-136050000D01*
X121200000Y-136050000D02*
X124750000Y-132500000D01*
D39*
%TO.N,5V_APM_MCU*%
X77400000Y-94000000D02*
X77400000Y-96500000D01*
X78645000Y-97745000D02*
X77400000Y-96500000D01*
X83850000Y-106650000D02*
X78755000Y-101555000D01*
X78755000Y-101555000D02*
X80525000Y-101555000D01*
X70200000Y-84200000D02*
X70200000Y-91700000D01*
X80525000Y-97745000D02*
X78645000Y-97745000D01*
X88800000Y-106650000D02*
X83850000Y-106650000D01*
X71700000Y-93200000D02*
X76600000Y-93200000D01*
X70200000Y-91700000D02*
X71700000Y-93200000D01*
X68953948Y-82953948D02*
X70200000Y-84200000D01*
X76600000Y-93200000D02*
X77400000Y-94000000D01*
X77400000Y-100200000D02*
X78755000Y-101555000D01*
X67494058Y-82953948D02*
X68953948Y-82953948D01*
X77400000Y-96500000D02*
X77400000Y-100200000D01*
D38*
%TO.N,/TDM_SCL*%
X84555000Y-101555000D02*
X83350000Y-100350000D01*
X85475000Y-101555000D02*
X84555000Y-101555000D01*
X83350000Y-100350000D02*
X83350000Y-97650000D01*
X83350000Y-97650000D02*
X80200000Y-94500000D01*
X80200000Y-94500000D02*
X80200000Y-93700000D01*
%TO.N,/TDM_SDA*%
X84050000Y-96550000D02*
X84050000Y-99800000D01*
X81200000Y-93700000D02*
X84050000Y-96550000D01*
X84535000Y-100285000D02*
X85475000Y-100285000D01*
X84050000Y-99800000D02*
X84535000Y-100285000D01*
%TO.N,Net-(J11-Pin_2)*%
X87315000Y-99015000D02*
X88600000Y-100300000D01*
X88600000Y-100300000D02*
X89900000Y-99000000D01*
X85475000Y-99015000D02*
X87315000Y-99015000D01*
X89900000Y-99000000D02*
X93365000Y-99000000D01*
X93365000Y-99000000D02*
X94065000Y-99700000D01*
%TO.N,/THRM_C*%
X102250000Y-73900000D02*
X103950000Y-75600000D01*
X103950000Y-75600000D02*
X107100000Y-75600000D01*
X108000000Y-74700000D02*
X107100000Y-75600000D01*
X108000000Y-73950000D02*
X108000000Y-74700000D01*
%TO.N,Net-(D7-A)*%
X93950000Y-103675000D02*
X90605000Y-103675000D01*
X90605000Y-103675000D02*
X90600000Y-103670000D01*
%TO.N,Net-(J11-Pin_1)*%
X88540000Y-97000000D02*
X86220000Y-97000000D01*
X86220000Y-97000000D02*
X85475000Y-97745000D01*
X95335000Y-99135000D02*
X94400000Y-98200000D01*
X94400000Y-98200000D02*
X89740000Y-98200000D01*
X89740000Y-98200000D02*
X88540000Y-97000000D01*
X95335000Y-99700000D02*
X95335000Y-99135000D01*
%TO.N,/APM_WARN_RST*%
X97142500Y-145810000D02*
X94032500Y-145810000D01*
X97142500Y-143707500D02*
X98650000Y-142200000D01*
X97142500Y-145810000D02*
X97142500Y-143707500D01*
%TO.N,/APM_FAIL_RST*%
X97192500Y-140060000D02*
X97192500Y-137957500D01*
X97192500Y-137957500D02*
X98700000Y-136450000D01*
X100150000Y-135000000D02*
X98700000Y-136450000D01*
X97142500Y-140060000D02*
X94032500Y-140060000D01*
X105800000Y-135000000D02*
X100150000Y-135000000D01*
%TO.N,Net-(R7-Pad1)*%
X102550000Y-70800000D02*
X97550000Y-70800000D01*
X97550000Y-70800000D02*
X96250000Y-69500000D01*
X104250000Y-73900000D02*
X104250000Y-72500000D01*
X104250000Y-72500000D02*
X102550000Y-70800000D01*
X96250000Y-67642000D02*
X96310000Y-67582000D01*
X96250000Y-69500000D02*
X96250000Y-67642000D01*
%TO.N,/APM_DBG_TX*%
X98050000Y-86200000D02*
X91250000Y-86200000D01*
X90450000Y-85400000D02*
X89550000Y-84500000D01*
X63750000Y-59500000D02*
X76700000Y-59500000D01*
X76700000Y-59500000D02*
X77350000Y-60150000D01*
X77350000Y-60150000D02*
X77350000Y-67850000D01*
X62500000Y-62719890D02*
X62500000Y-60750000D01*
X98740000Y-85510000D02*
X98050000Y-86200000D01*
X81850000Y-80475000D02*
X81850000Y-81700000D01*
X64954058Y-65173948D02*
X62500000Y-62719890D01*
X89550000Y-84500000D02*
X89000000Y-83950000D01*
X62500000Y-60750000D02*
X63750000Y-59500000D01*
X77350000Y-67850000D02*
X81850000Y-72350000D01*
X81850000Y-81700000D02*
X82500000Y-82350000D01*
X77400000Y-58800000D02*
X77400000Y-57025000D01*
X81850000Y-72350000D02*
X81850000Y-80475000D01*
X76700000Y-59500000D02*
X77400000Y-58800000D01*
X64954058Y-65173948D02*
X65426052Y-65173948D01*
X89000000Y-83950000D02*
X84000000Y-83950000D01*
X91250000Y-86200000D02*
X90450000Y-85400000D01*
X98740000Y-84750000D02*
X98740000Y-85510000D01*
%TO.N,/USB_debug_APM/APM_DBG_TX*%
X78400000Y-57025000D02*
X78400000Y-63700000D01*
%TD*%
M02*
