%TF.GenerationSoftware,KiCad,Pcbnew,9.0.4+dfsg-1*%
%TF.CreationDate,2025-08-30T16:49:39-07:00*%
%TF.ProjectId,APM,41504d2e-6b69-4636-9164-5f7063625858,rev?*%
%TF.SameCoordinates,Original*%
%TF.FileFunction,Legend,Top*%
%TF.FilePolarity,Positive*%
%FSLAX46Y46*%
G04 Gerber Fmt 4.6, Leading zero omitted, Abs format (unit mm)*
G04 Created by KiCad (PCBNEW 9.0.4+dfsg-1) date 2025-08-30 16:49:39*
%MOMM*%
%LPD*%
G01*
G04 APERTURE LIST*
%ADD10C,0.200000*%
%ADD11C,0.150000*%
%ADD12C,0.000000*%
%ADD13C,0.120000*%
%ADD14C,3.200000*%
%ADD15R,1.700000X1.700000*%
%ADD16C,1.700000*%
%ADD17R,1.530000X1.530000*%
%ADD18C,1.530000*%
%ADD19R,0.850000X0.850000*%
%ADD20C,0.850000*%
%ADD21R,1.050000X1.500000*%
%ADD22O,1.050000X1.500000*%
%ADD23C,1.100000*%
%ADD24O,1.900000X3.500000*%
%ADD25R,1.524000X1.524000*%
%ADD26C,1.524000*%
%ADD27R,1.000000X1.000000*%
%ADD28C,1.000000*%
%ADD29C,2.500000*%
%ADD30C,1.500000*%
G04 APERTURE END LIST*
D10*
X85998244Y-152590608D02*
X85998244Y-153400132D01*
X85998244Y-153400132D02*
X85950625Y-153495370D01*
X85950625Y-153495370D02*
X85903006Y-153542989D01*
X85903006Y-153542989D02*
X85807768Y-153590608D01*
X85807768Y-153590608D02*
X85664911Y-153590608D01*
X85664911Y-153590608D02*
X85569673Y-153542989D01*
X85998244Y-153209656D02*
X85903006Y-153257275D01*
X85903006Y-153257275D02*
X85712530Y-153257275D01*
X85712530Y-153257275D02*
X85617292Y-153209656D01*
X85617292Y-153209656D02*
X85569673Y-153162036D01*
X85569673Y-153162036D02*
X85522054Y-153066798D01*
X85522054Y-153066798D02*
X85522054Y-152781084D01*
X85522054Y-152781084D02*
X85569673Y-152685846D01*
X85569673Y-152685846D02*
X85617292Y-152638227D01*
X85617292Y-152638227D02*
X85712530Y-152590608D01*
X85712530Y-152590608D02*
X85903006Y-152590608D01*
X85903006Y-152590608D02*
X85998244Y-152638227D01*
X86474435Y-153257275D02*
X86474435Y-152590608D01*
X86474435Y-152257275D02*
X86426816Y-152304894D01*
X86426816Y-152304894D02*
X86474435Y-152352513D01*
X86474435Y-152352513D02*
X86522054Y-152304894D01*
X86522054Y-152304894D02*
X86474435Y-152257275D01*
X86474435Y-152257275D02*
X86474435Y-152352513D01*
X86807768Y-152590608D02*
X87188720Y-152590608D01*
X86950625Y-152257275D02*
X86950625Y-153114417D01*
X86950625Y-153114417D02*
X86998244Y-153209656D01*
X86998244Y-153209656D02*
X87093482Y-153257275D01*
X87093482Y-153257275D02*
X87188720Y-153257275D01*
X87522054Y-153257275D02*
X87522054Y-152257275D01*
X87950625Y-153257275D02*
X87950625Y-152733465D01*
X87950625Y-152733465D02*
X87903006Y-152638227D01*
X87903006Y-152638227D02*
X87807768Y-152590608D01*
X87807768Y-152590608D02*
X87664911Y-152590608D01*
X87664911Y-152590608D02*
X87569673Y-152638227D01*
X87569673Y-152638227D02*
X87522054Y-152685846D01*
X88855387Y-152590608D02*
X88855387Y-153257275D01*
X88426816Y-152590608D02*
X88426816Y-153114417D01*
X88426816Y-153114417D02*
X88474435Y-153209656D01*
X88474435Y-153209656D02*
X88569673Y-153257275D01*
X88569673Y-153257275D02*
X88712530Y-153257275D01*
X88712530Y-153257275D02*
X88807768Y-153209656D01*
X88807768Y-153209656D02*
X88855387Y-153162036D01*
X89331578Y-153257275D02*
X89331578Y-152257275D01*
X89331578Y-152638227D02*
X89426816Y-152590608D01*
X89426816Y-152590608D02*
X89617292Y-152590608D01*
X89617292Y-152590608D02*
X89712530Y-152638227D01*
X89712530Y-152638227D02*
X89760149Y-152685846D01*
X89760149Y-152685846D02*
X89807768Y-152781084D01*
X89807768Y-152781084D02*
X89807768Y-153066798D01*
X89807768Y-153066798D02*
X89760149Y-153162036D01*
X89760149Y-153162036D02*
X89712530Y-153209656D01*
X89712530Y-153209656D02*
X89617292Y-153257275D01*
X89617292Y-153257275D02*
X89426816Y-153257275D01*
X89426816Y-153257275D02*
X89331578Y-153209656D01*
X90236340Y-153162036D02*
X90283959Y-153209656D01*
X90283959Y-153209656D02*
X90236340Y-153257275D01*
X90236340Y-153257275D02*
X90188721Y-153209656D01*
X90188721Y-153209656D02*
X90236340Y-153162036D01*
X90236340Y-153162036D02*
X90236340Y-153257275D01*
X91141101Y-153209656D02*
X91045863Y-153257275D01*
X91045863Y-153257275D02*
X90855387Y-153257275D01*
X90855387Y-153257275D02*
X90760149Y-153209656D01*
X90760149Y-153209656D02*
X90712530Y-153162036D01*
X90712530Y-153162036D02*
X90664911Y-153066798D01*
X90664911Y-153066798D02*
X90664911Y-152781084D01*
X90664911Y-152781084D02*
X90712530Y-152685846D01*
X90712530Y-152685846D02*
X90760149Y-152638227D01*
X90760149Y-152638227D02*
X90855387Y-152590608D01*
X90855387Y-152590608D02*
X91045863Y-152590608D01*
X91045863Y-152590608D02*
X91141101Y-152638227D01*
X91712530Y-153257275D02*
X91617292Y-153209656D01*
X91617292Y-153209656D02*
X91569673Y-153162036D01*
X91569673Y-153162036D02*
X91522054Y-153066798D01*
X91522054Y-153066798D02*
X91522054Y-152781084D01*
X91522054Y-152781084D02*
X91569673Y-152685846D01*
X91569673Y-152685846D02*
X91617292Y-152638227D01*
X91617292Y-152638227D02*
X91712530Y-152590608D01*
X91712530Y-152590608D02*
X91855387Y-152590608D01*
X91855387Y-152590608D02*
X91950625Y-152638227D01*
X91950625Y-152638227D02*
X91998244Y-152685846D01*
X91998244Y-152685846D02*
X92045863Y-152781084D01*
X92045863Y-152781084D02*
X92045863Y-153066798D01*
X92045863Y-153066798D02*
X91998244Y-153162036D01*
X91998244Y-153162036D02*
X91950625Y-153209656D01*
X91950625Y-153209656D02*
X91855387Y-153257275D01*
X91855387Y-153257275D02*
X91712530Y-153257275D01*
X92474435Y-153257275D02*
X92474435Y-152590608D01*
X92474435Y-152685846D02*
X92522054Y-152638227D01*
X92522054Y-152638227D02*
X92617292Y-152590608D01*
X92617292Y-152590608D02*
X92760149Y-152590608D01*
X92760149Y-152590608D02*
X92855387Y-152638227D01*
X92855387Y-152638227D02*
X92903006Y-152733465D01*
X92903006Y-152733465D02*
X92903006Y-153257275D01*
X92903006Y-152733465D02*
X92950625Y-152638227D01*
X92950625Y-152638227D02*
X93045863Y-152590608D01*
X93045863Y-152590608D02*
X93188720Y-152590608D01*
X93188720Y-152590608D02*
X93283959Y-152638227D01*
X93283959Y-152638227D02*
X93331578Y-152733465D01*
X93331578Y-152733465D02*
X93331578Y-153257275D01*
X94522053Y-152209656D02*
X93664911Y-153495370D01*
X95283958Y-153257275D02*
X95283958Y-152733465D01*
X95283958Y-152733465D02*
X95236339Y-152638227D01*
X95236339Y-152638227D02*
X95141101Y-152590608D01*
X95141101Y-152590608D02*
X94950625Y-152590608D01*
X94950625Y-152590608D02*
X94855387Y-152638227D01*
X95283958Y-153209656D02*
X95188720Y-153257275D01*
X95188720Y-153257275D02*
X94950625Y-153257275D01*
X94950625Y-153257275D02*
X94855387Y-153209656D01*
X94855387Y-153209656D02*
X94807768Y-153114417D01*
X94807768Y-153114417D02*
X94807768Y-153019179D01*
X94807768Y-153019179D02*
X94855387Y-152923941D01*
X94855387Y-152923941D02*
X94950625Y-152876322D01*
X94950625Y-152876322D02*
X95188720Y-152876322D01*
X95188720Y-152876322D02*
X95283958Y-152828703D01*
X95760149Y-153257275D02*
X95760149Y-152257275D01*
X95855387Y-152876322D02*
X96141101Y-153257275D01*
X96141101Y-152590608D02*
X95760149Y-152971560D01*
X96569673Y-153257275D02*
X96569673Y-152590608D01*
X96569673Y-152257275D02*
X96522054Y-152304894D01*
X96522054Y-152304894D02*
X96569673Y-152352513D01*
X96569673Y-152352513D02*
X96617292Y-152304894D01*
X96617292Y-152304894D02*
X96569673Y-152257275D01*
X96569673Y-152257275D02*
X96569673Y-152352513D01*
X97426815Y-153209656D02*
X97331577Y-153257275D01*
X97331577Y-153257275D02*
X97141101Y-153257275D01*
X97141101Y-153257275D02*
X97045863Y-153209656D01*
X97045863Y-153209656D02*
X96998244Y-153114417D01*
X96998244Y-153114417D02*
X96998244Y-152733465D01*
X96998244Y-152733465D02*
X97045863Y-152638227D01*
X97045863Y-152638227D02*
X97141101Y-152590608D01*
X97141101Y-152590608D02*
X97331577Y-152590608D01*
X97331577Y-152590608D02*
X97426815Y-152638227D01*
X97426815Y-152638227D02*
X97474434Y-152733465D01*
X97474434Y-152733465D02*
X97474434Y-152828703D01*
X97474434Y-152828703D02*
X96998244Y-152923941D01*
X98045863Y-153257275D02*
X97950625Y-153209656D01*
X97950625Y-153209656D02*
X97903006Y-153114417D01*
X97903006Y-153114417D02*
X97903006Y-152257275D01*
X98855387Y-153257275D02*
X98855387Y-152733465D01*
X98855387Y-152733465D02*
X98807768Y-152638227D01*
X98807768Y-152638227D02*
X98712530Y-152590608D01*
X98712530Y-152590608D02*
X98522054Y-152590608D01*
X98522054Y-152590608D02*
X98426816Y-152638227D01*
X98855387Y-153209656D02*
X98760149Y-153257275D01*
X98760149Y-153257275D02*
X98522054Y-153257275D01*
X98522054Y-153257275D02*
X98426816Y-153209656D01*
X98426816Y-153209656D02*
X98379197Y-153114417D01*
X98379197Y-153114417D02*
X98379197Y-153019179D01*
X98379197Y-153019179D02*
X98426816Y-152923941D01*
X98426816Y-152923941D02*
X98522054Y-152876322D01*
X98522054Y-152876322D02*
X98760149Y-152876322D01*
X98760149Y-152876322D02*
X98855387Y-152828703D01*
X99331578Y-153257275D02*
X99331578Y-152590608D01*
X99331578Y-152781084D02*
X99379197Y-152685846D01*
X99379197Y-152685846D02*
X99426816Y-152638227D01*
X99426816Y-152638227D02*
X99522054Y-152590608D01*
X99522054Y-152590608D02*
X99617292Y-152590608D01*
X99950626Y-153257275D02*
X99950626Y-152590608D01*
X99950626Y-152257275D02*
X99903007Y-152304894D01*
X99903007Y-152304894D02*
X99950626Y-152352513D01*
X99950626Y-152352513D02*
X99998245Y-152304894D01*
X99998245Y-152304894D02*
X99950626Y-152257275D01*
X99950626Y-152257275D02*
X99950626Y-152352513D01*
X100807768Y-153209656D02*
X100712530Y-153257275D01*
X100712530Y-153257275D02*
X100522054Y-153257275D01*
X100522054Y-153257275D02*
X100426816Y-153209656D01*
X100426816Y-153209656D02*
X100379197Y-153114417D01*
X100379197Y-153114417D02*
X100379197Y-152733465D01*
X100379197Y-152733465D02*
X100426816Y-152638227D01*
X100426816Y-152638227D02*
X100522054Y-152590608D01*
X100522054Y-152590608D02*
X100712530Y-152590608D01*
X100712530Y-152590608D02*
X100807768Y-152638227D01*
X100807768Y-152638227D02*
X100855387Y-152733465D01*
X100855387Y-152733465D02*
X100855387Y-152828703D01*
X100855387Y-152828703D02*
X100379197Y-152923941D01*
X101236340Y-153209656D02*
X101331578Y-153257275D01*
X101331578Y-153257275D02*
X101522054Y-153257275D01*
X101522054Y-153257275D02*
X101617292Y-153209656D01*
X101617292Y-153209656D02*
X101664911Y-153114417D01*
X101664911Y-153114417D02*
X101664911Y-153066798D01*
X101664911Y-153066798D02*
X101617292Y-152971560D01*
X101617292Y-152971560D02*
X101522054Y-152923941D01*
X101522054Y-152923941D02*
X101379197Y-152923941D01*
X101379197Y-152923941D02*
X101283959Y-152876322D01*
X101283959Y-152876322D02*
X101236340Y-152781084D01*
X101236340Y-152781084D02*
X101236340Y-152733465D01*
X101236340Y-152733465D02*
X101283959Y-152638227D01*
X101283959Y-152638227D02*
X101379197Y-152590608D01*
X101379197Y-152590608D02*
X101522054Y-152590608D01*
X101522054Y-152590608D02*
X101617292Y-152638227D01*
X102807768Y-152209656D02*
X101950626Y-153495370D01*
X103093483Y-153209656D02*
X103188721Y-153257275D01*
X103188721Y-153257275D02*
X103379197Y-153257275D01*
X103379197Y-153257275D02*
X103474435Y-153209656D01*
X103474435Y-153209656D02*
X103522054Y-153114417D01*
X103522054Y-153114417D02*
X103522054Y-153066798D01*
X103522054Y-153066798D02*
X103474435Y-152971560D01*
X103474435Y-152971560D02*
X103379197Y-152923941D01*
X103379197Y-152923941D02*
X103236340Y-152923941D01*
X103236340Y-152923941D02*
X103141102Y-152876322D01*
X103141102Y-152876322D02*
X103093483Y-152781084D01*
X103093483Y-152781084D02*
X103093483Y-152733465D01*
X103093483Y-152733465D02*
X103141102Y-152638227D01*
X103141102Y-152638227D02*
X103236340Y-152590608D01*
X103236340Y-152590608D02*
X103379197Y-152590608D01*
X103379197Y-152590608D02*
X103474435Y-152638227D01*
X103950626Y-153257275D02*
X103950626Y-152590608D01*
X103950626Y-152257275D02*
X103903007Y-152304894D01*
X103903007Y-152304894D02*
X103950626Y-152352513D01*
X103950626Y-152352513D02*
X103998245Y-152304894D01*
X103998245Y-152304894D02*
X103950626Y-152257275D01*
X103950626Y-152257275D02*
X103950626Y-152352513D01*
X104855387Y-152590608D02*
X104855387Y-153400132D01*
X104855387Y-153400132D02*
X104807768Y-153495370D01*
X104807768Y-153495370D02*
X104760149Y-153542989D01*
X104760149Y-153542989D02*
X104664911Y-153590608D01*
X104664911Y-153590608D02*
X104522054Y-153590608D01*
X104522054Y-153590608D02*
X104426816Y-153542989D01*
X104855387Y-153209656D02*
X104760149Y-153257275D01*
X104760149Y-153257275D02*
X104569673Y-153257275D01*
X104569673Y-153257275D02*
X104474435Y-153209656D01*
X104474435Y-153209656D02*
X104426816Y-153162036D01*
X104426816Y-153162036D02*
X104379197Y-153066798D01*
X104379197Y-153066798D02*
X104379197Y-152781084D01*
X104379197Y-152781084D02*
X104426816Y-152685846D01*
X104426816Y-152685846D02*
X104474435Y-152638227D01*
X104474435Y-152638227D02*
X104569673Y-152590608D01*
X104569673Y-152590608D02*
X104760149Y-152590608D01*
X104760149Y-152590608D02*
X104855387Y-152638227D01*
X105331578Y-152590608D02*
X105331578Y-153257275D01*
X105331578Y-152685846D02*
X105379197Y-152638227D01*
X105379197Y-152638227D02*
X105474435Y-152590608D01*
X105474435Y-152590608D02*
X105617292Y-152590608D01*
X105617292Y-152590608D02*
X105712530Y-152638227D01*
X105712530Y-152638227D02*
X105760149Y-152733465D01*
X105760149Y-152733465D02*
X105760149Y-153257275D01*
X106664911Y-153257275D02*
X106664911Y-152733465D01*
X106664911Y-152733465D02*
X106617292Y-152638227D01*
X106617292Y-152638227D02*
X106522054Y-152590608D01*
X106522054Y-152590608D02*
X106331578Y-152590608D01*
X106331578Y-152590608D02*
X106236340Y-152638227D01*
X106664911Y-153209656D02*
X106569673Y-153257275D01*
X106569673Y-153257275D02*
X106331578Y-153257275D01*
X106331578Y-153257275D02*
X106236340Y-153209656D01*
X106236340Y-153209656D02*
X106188721Y-153114417D01*
X106188721Y-153114417D02*
X106188721Y-153019179D01*
X106188721Y-153019179D02*
X106236340Y-152923941D01*
X106236340Y-152923941D02*
X106331578Y-152876322D01*
X106331578Y-152876322D02*
X106569673Y-152876322D01*
X106569673Y-152876322D02*
X106664911Y-152828703D01*
X107283959Y-153257275D02*
X107188721Y-153209656D01*
X107188721Y-153209656D02*
X107141102Y-153114417D01*
X107141102Y-153114417D02*
X107141102Y-152257275D01*
X107664912Y-153257275D02*
X107664912Y-152590608D01*
X107664912Y-152685846D02*
X107712531Y-152638227D01*
X107712531Y-152638227D02*
X107807769Y-152590608D01*
X107807769Y-152590608D02*
X107950626Y-152590608D01*
X107950626Y-152590608D02*
X108045864Y-152638227D01*
X108045864Y-152638227D02*
X108093483Y-152733465D01*
X108093483Y-152733465D02*
X108093483Y-153257275D01*
X108093483Y-152733465D02*
X108141102Y-152638227D01*
X108141102Y-152638227D02*
X108236340Y-152590608D01*
X108236340Y-152590608D02*
X108379197Y-152590608D01*
X108379197Y-152590608D02*
X108474436Y-152638227D01*
X108474436Y-152638227D02*
X108522055Y-152733465D01*
X108522055Y-152733465D02*
X108522055Y-153257275D01*
X109379197Y-153209656D02*
X109283959Y-153257275D01*
X109283959Y-153257275D02*
X109093483Y-153257275D01*
X109093483Y-153257275D02*
X108998245Y-153209656D01*
X108998245Y-153209656D02*
X108950626Y-153114417D01*
X108950626Y-153114417D02*
X108950626Y-152733465D01*
X108950626Y-152733465D02*
X108998245Y-152638227D01*
X108998245Y-152638227D02*
X109093483Y-152590608D01*
X109093483Y-152590608D02*
X109283959Y-152590608D01*
X109283959Y-152590608D02*
X109379197Y-152638227D01*
X109379197Y-152638227D02*
X109426816Y-152733465D01*
X109426816Y-152733465D02*
X109426816Y-152828703D01*
X109426816Y-152828703D02*
X108950626Y-152923941D01*
X109807769Y-153209656D02*
X109903007Y-153257275D01*
X109903007Y-153257275D02*
X110093483Y-153257275D01*
X110093483Y-153257275D02*
X110188721Y-153209656D01*
X110188721Y-153209656D02*
X110236340Y-153114417D01*
X110236340Y-153114417D02*
X110236340Y-153066798D01*
X110236340Y-153066798D02*
X110188721Y-152971560D01*
X110188721Y-152971560D02*
X110093483Y-152923941D01*
X110093483Y-152923941D02*
X109950626Y-152923941D01*
X109950626Y-152923941D02*
X109855388Y-152876322D01*
X109855388Y-152876322D02*
X109807769Y-152781084D01*
X109807769Y-152781084D02*
X109807769Y-152733465D01*
X109807769Y-152733465D02*
X109855388Y-152638227D01*
X109855388Y-152638227D02*
X109950626Y-152590608D01*
X109950626Y-152590608D02*
X110093483Y-152590608D01*
X110093483Y-152590608D02*
X110188721Y-152638227D01*
X110664912Y-153257275D02*
X110664912Y-152257275D01*
X111093483Y-153257275D02*
X111093483Y-152733465D01*
X111093483Y-152733465D02*
X111045864Y-152638227D01*
X111045864Y-152638227D02*
X110950626Y-152590608D01*
X110950626Y-152590608D02*
X110807769Y-152590608D01*
X110807769Y-152590608D02*
X110712531Y-152638227D01*
X110712531Y-152638227D02*
X110664912Y-152685846D01*
X85998244Y-154200552D02*
X85998244Y-155010076D01*
X85998244Y-155010076D02*
X85950625Y-155105314D01*
X85950625Y-155105314D02*
X85903006Y-155152933D01*
X85903006Y-155152933D02*
X85807768Y-155200552D01*
X85807768Y-155200552D02*
X85664911Y-155200552D01*
X85664911Y-155200552D02*
X85569673Y-155152933D01*
X85998244Y-154819600D02*
X85903006Y-154867219D01*
X85903006Y-154867219D02*
X85712530Y-154867219D01*
X85712530Y-154867219D02*
X85617292Y-154819600D01*
X85617292Y-154819600D02*
X85569673Y-154771980D01*
X85569673Y-154771980D02*
X85522054Y-154676742D01*
X85522054Y-154676742D02*
X85522054Y-154391028D01*
X85522054Y-154391028D02*
X85569673Y-154295790D01*
X85569673Y-154295790D02*
X85617292Y-154248171D01*
X85617292Y-154248171D02*
X85712530Y-154200552D01*
X85712530Y-154200552D02*
X85903006Y-154200552D01*
X85903006Y-154200552D02*
X85998244Y-154248171D01*
X86474435Y-154867219D02*
X86474435Y-154200552D01*
X86474435Y-153867219D02*
X86426816Y-153914838D01*
X86426816Y-153914838D02*
X86474435Y-153962457D01*
X86474435Y-153962457D02*
X86522054Y-153914838D01*
X86522054Y-153914838D02*
X86474435Y-153867219D01*
X86474435Y-153867219D02*
X86474435Y-153962457D01*
X86807768Y-154200552D02*
X87188720Y-154200552D01*
X86950625Y-153867219D02*
X86950625Y-154724361D01*
X86950625Y-154724361D02*
X86998244Y-154819600D01*
X86998244Y-154819600D02*
X87093482Y-154867219D01*
X87093482Y-154867219D02*
X87188720Y-154867219D01*
X87522054Y-154867219D02*
X87522054Y-153867219D01*
X87950625Y-154867219D02*
X87950625Y-154343409D01*
X87950625Y-154343409D02*
X87903006Y-154248171D01*
X87903006Y-154248171D02*
X87807768Y-154200552D01*
X87807768Y-154200552D02*
X87664911Y-154200552D01*
X87664911Y-154200552D02*
X87569673Y-154248171D01*
X87569673Y-154248171D02*
X87522054Y-154295790D01*
X88855387Y-154200552D02*
X88855387Y-154867219D01*
X88426816Y-154200552D02*
X88426816Y-154724361D01*
X88426816Y-154724361D02*
X88474435Y-154819600D01*
X88474435Y-154819600D02*
X88569673Y-154867219D01*
X88569673Y-154867219D02*
X88712530Y-154867219D01*
X88712530Y-154867219D02*
X88807768Y-154819600D01*
X88807768Y-154819600D02*
X88855387Y-154771980D01*
X89331578Y-154867219D02*
X89331578Y-153867219D01*
X89331578Y-154248171D02*
X89426816Y-154200552D01*
X89426816Y-154200552D02*
X89617292Y-154200552D01*
X89617292Y-154200552D02*
X89712530Y-154248171D01*
X89712530Y-154248171D02*
X89760149Y-154295790D01*
X89760149Y-154295790D02*
X89807768Y-154391028D01*
X89807768Y-154391028D02*
X89807768Y-154676742D01*
X89807768Y-154676742D02*
X89760149Y-154771980D01*
X89760149Y-154771980D02*
X89712530Y-154819600D01*
X89712530Y-154819600D02*
X89617292Y-154867219D01*
X89617292Y-154867219D02*
X89426816Y-154867219D01*
X89426816Y-154867219D02*
X89331578Y-154819600D01*
X90236340Y-154771980D02*
X90283959Y-154819600D01*
X90283959Y-154819600D02*
X90236340Y-154867219D01*
X90236340Y-154867219D02*
X90188721Y-154819600D01*
X90188721Y-154819600D02*
X90236340Y-154771980D01*
X90236340Y-154771980D02*
X90236340Y-154867219D01*
X91141101Y-154819600D02*
X91045863Y-154867219D01*
X91045863Y-154867219D02*
X90855387Y-154867219D01*
X90855387Y-154867219D02*
X90760149Y-154819600D01*
X90760149Y-154819600D02*
X90712530Y-154771980D01*
X90712530Y-154771980D02*
X90664911Y-154676742D01*
X90664911Y-154676742D02*
X90664911Y-154391028D01*
X90664911Y-154391028D02*
X90712530Y-154295790D01*
X90712530Y-154295790D02*
X90760149Y-154248171D01*
X90760149Y-154248171D02*
X90855387Y-154200552D01*
X90855387Y-154200552D02*
X91045863Y-154200552D01*
X91045863Y-154200552D02*
X91141101Y-154248171D01*
X91712530Y-154867219D02*
X91617292Y-154819600D01*
X91617292Y-154819600D02*
X91569673Y-154771980D01*
X91569673Y-154771980D02*
X91522054Y-154676742D01*
X91522054Y-154676742D02*
X91522054Y-154391028D01*
X91522054Y-154391028D02*
X91569673Y-154295790D01*
X91569673Y-154295790D02*
X91617292Y-154248171D01*
X91617292Y-154248171D02*
X91712530Y-154200552D01*
X91712530Y-154200552D02*
X91855387Y-154200552D01*
X91855387Y-154200552D02*
X91950625Y-154248171D01*
X91950625Y-154248171D02*
X91998244Y-154295790D01*
X91998244Y-154295790D02*
X92045863Y-154391028D01*
X92045863Y-154391028D02*
X92045863Y-154676742D01*
X92045863Y-154676742D02*
X91998244Y-154771980D01*
X91998244Y-154771980D02*
X91950625Y-154819600D01*
X91950625Y-154819600D02*
X91855387Y-154867219D01*
X91855387Y-154867219D02*
X91712530Y-154867219D01*
X92474435Y-154867219D02*
X92474435Y-154200552D01*
X92474435Y-154295790D02*
X92522054Y-154248171D01*
X92522054Y-154248171D02*
X92617292Y-154200552D01*
X92617292Y-154200552D02*
X92760149Y-154200552D01*
X92760149Y-154200552D02*
X92855387Y-154248171D01*
X92855387Y-154248171D02*
X92903006Y-154343409D01*
X92903006Y-154343409D02*
X92903006Y-154867219D01*
X92903006Y-154343409D02*
X92950625Y-154248171D01*
X92950625Y-154248171D02*
X93045863Y-154200552D01*
X93045863Y-154200552D02*
X93188720Y-154200552D01*
X93188720Y-154200552D02*
X93283959Y-154248171D01*
X93283959Y-154248171D02*
X93331578Y-154343409D01*
X93331578Y-154343409D02*
X93331578Y-154867219D01*
X94522053Y-153819600D02*
X93664911Y-155105314D01*
X95283958Y-154867219D02*
X95283958Y-154343409D01*
X95283958Y-154343409D02*
X95236339Y-154248171D01*
X95236339Y-154248171D02*
X95141101Y-154200552D01*
X95141101Y-154200552D02*
X94950625Y-154200552D01*
X94950625Y-154200552D02*
X94855387Y-154248171D01*
X95283958Y-154819600D02*
X95188720Y-154867219D01*
X95188720Y-154867219D02*
X94950625Y-154867219D01*
X94950625Y-154867219D02*
X94855387Y-154819600D01*
X94855387Y-154819600D02*
X94807768Y-154724361D01*
X94807768Y-154724361D02*
X94807768Y-154629123D01*
X94807768Y-154629123D02*
X94855387Y-154533885D01*
X94855387Y-154533885D02*
X94950625Y-154486266D01*
X94950625Y-154486266D02*
X95188720Y-154486266D01*
X95188720Y-154486266D02*
X95283958Y-154438647D01*
X95760149Y-154867219D02*
X95760149Y-153867219D01*
X95855387Y-154486266D02*
X96141101Y-154867219D01*
X96141101Y-154200552D02*
X95760149Y-154581504D01*
X96569673Y-154867219D02*
X96569673Y-154200552D01*
X96569673Y-153867219D02*
X96522054Y-153914838D01*
X96522054Y-153914838D02*
X96569673Y-153962457D01*
X96569673Y-153962457D02*
X96617292Y-153914838D01*
X96617292Y-153914838D02*
X96569673Y-153867219D01*
X96569673Y-153867219D02*
X96569673Y-153962457D01*
X97426815Y-154819600D02*
X97331577Y-154867219D01*
X97331577Y-154867219D02*
X97141101Y-154867219D01*
X97141101Y-154867219D02*
X97045863Y-154819600D01*
X97045863Y-154819600D02*
X96998244Y-154724361D01*
X96998244Y-154724361D02*
X96998244Y-154343409D01*
X96998244Y-154343409D02*
X97045863Y-154248171D01*
X97045863Y-154248171D02*
X97141101Y-154200552D01*
X97141101Y-154200552D02*
X97331577Y-154200552D01*
X97331577Y-154200552D02*
X97426815Y-154248171D01*
X97426815Y-154248171D02*
X97474434Y-154343409D01*
X97474434Y-154343409D02*
X97474434Y-154438647D01*
X97474434Y-154438647D02*
X96998244Y-154533885D01*
X98045863Y-154867219D02*
X97950625Y-154819600D01*
X97950625Y-154819600D02*
X97903006Y-154724361D01*
X97903006Y-154724361D02*
X97903006Y-153867219D01*
X98855387Y-154867219D02*
X98855387Y-154343409D01*
X98855387Y-154343409D02*
X98807768Y-154248171D01*
X98807768Y-154248171D02*
X98712530Y-154200552D01*
X98712530Y-154200552D02*
X98522054Y-154200552D01*
X98522054Y-154200552D02*
X98426816Y-154248171D01*
X98855387Y-154819600D02*
X98760149Y-154867219D01*
X98760149Y-154867219D02*
X98522054Y-154867219D01*
X98522054Y-154867219D02*
X98426816Y-154819600D01*
X98426816Y-154819600D02*
X98379197Y-154724361D01*
X98379197Y-154724361D02*
X98379197Y-154629123D01*
X98379197Y-154629123D02*
X98426816Y-154533885D01*
X98426816Y-154533885D02*
X98522054Y-154486266D01*
X98522054Y-154486266D02*
X98760149Y-154486266D01*
X98760149Y-154486266D02*
X98855387Y-154438647D01*
X99331578Y-154867219D02*
X99331578Y-154200552D01*
X99331578Y-154391028D02*
X99379197Y-154295790D01*
X99379197Y-154295790D02*
X99426816Y-154248171D01*
X99426816Y-154248171D02*
X99522054Y-154200552D01*
X99522054Y-154200552D02*
X99617292Y-154200552D01*
X99950626Y-154867219D02*
X99950626Y-154200552D01*
X99950626Y-153867219D02*
X99903007Y-153914838D01*
X99903007Y-153914838D02*
X99950626Y-153962457D01*
X99950626Y-153962457D02*
X99998245Y-153914838D01*
X99998245Y-153914838D02*
X99950626Y-153867219D01*
X99950626Y-153867219D02*
X99950626Y-153962457D01*
X100807768Y-154819600D02*
X100712530Y-154867219D01*
X100712530Y-154867219D02*
X100522054Y-154867219D01*
X100522054Y-154867219D02*
X100426816Y-154819600D01*
X100426816Y-154819600D02*
X100379197Y-154724361D01*
X100379197Y-154724361D02*
X100379197Y-154343409D01*
X100379197Y-154343409D02*
X100426816Y-154248171D01*
X100426816Y-154248171D02*
X100522054Y-154200552D01*
X100522054Y-154200552D02*
X100712530Y-154200552D01*
X100712530Y-154200552D02*
X100807768Y-154248171D01*
X100807768Y-154248171D02*
X100855387Y-154343409D01*
X100855387Y-154343409D02*
X100855387Y-154438647D01*
X100855387Y-154438647D02*
X100379197Y-154533885D01*
X101236340Y-154819600D02*
X101331578Y-154867219D01*
X101331578Y-154867219D02*
X101522054Y-154867219D01*
X101522054Y-154867219D02*
X101617292Y-154819600D01*
X101617292Y-154819600D02*
X101664911Y-154724361D01*
X101664911Y-154724361D02*
X101664911Y-154676742D01*
X101664911Y-154676742D02*
X101617292Y-154581504D01*
X101617292Y-154581504D02*
X101522054Y-154533885D01*
X101522054Y-154533885D02*
X101379197Y-154533885D01*
X101379197Y-154533885D02*
X101283959Y-154486266D01*
X101283959Y-154486266D02*
X101236340Y-154391028D01*
X101236340Y-154391028D02*
X101236340Y-154343409D01*
X101236340Y-154343409D02*
X101283959Y-154248171D01*
X101283959Y-154248171D02*
X101379197Y-154200552D01*
X101379197Y-154200552D02*
X101522054Y-154200552D01*
X101522054Y-154200552D02*
X101617292Y-154248171D01*
X102807768Y-153819600D02*
X101950626Y-155105314D01*
X103093483Y-154819600D02*
X103188721Y-154867219D01*
X103188721Y-154867219D02*
X103379197Y-154867219D01*
X103379197Y-154867219D02*
X103474435Y-154819600D01*
X103474435Y-154819600D02*
X103522054Y-154724361D01*
X103522054Y-154724361D02*
X103522054Y-154676742D01*
X103522054Y-154676742D02*
X103474435Y-154581504D01*
X103474435Y-154581504D02*
X103379197Y-154533885D01*
X103379197Y-154533885D02*
X103236340Y-154533885D01*
X103236340Y-154533885D02*
X103141102Y-154486266D01*
X103141102Y-154486266D02*
X103093483Y-154391028D01*
X103093483Y-154391028D02*
X103093483Y-154343409D01*
X103093483Y-154343409D02*
X103141102Y-154248171D01*
X103141102Y-154248171D02*
X103236340Y-154200552D01*
X103236340Y-154200552D02*
X103379197Y-154200552D01*
X103379197Y-154200552D02*
X103474435Y-154248171D01*
X103950626Y-154867219D02*
X103950626Y-154200552D01*
X103950626Y-153867219D02*
X103903007Y-153914838D01*
X103903007Y-153914838D02*
X103950626Y-153962457D01*
X103950626Y-153962457D02*
X103998245Y-153914838D01*
X103998245Y-153914838D02*
X103950626Y-153867219D01*
X103950626Y-153867219D02*
X103950626Y-153962457D01*
X104855387Y-154200552D02*
X104855387Y-155010076D01*
X104855387Y-155010076D02*
X104807768Y-155105314D01*
X104807768Y-155105314D02*
X104760149Y-155152933D01*
X104760149Y-155152933D02*
X104664911Y-155200552D01*
X104664911Y-155200552D02*
X104522054Y-155200552D01*
X104522054Y-155200552D02*
X104426816Y-155152933D01*
X104855387Y-154819600D02*
X104760149Y-154867219D01*
X104760149Y-154867219D02*
X104569673Y-154867219D01*
X104569673Y-154867219D02*
X104474435Y-154819600D01*
X104474435Y-154819600D02*
X104426816Y-154771980D01*
X104426816Y-154771980D02*
X104379197Y-154676742D01*
X104379197Y-154676742D02*
X104379197Y-154391028D01*
X104379197Y-154391028D02*
X104426816Y-154295790D01*
X104426816Y-154295790D02*
X104474435Y-154248171D01*
X104474435Y-154248171D02*
X104569673Y-154200552D01*
X104569673Y-154200552D02*
X104760149Y-154200552D01*
X104760149Y-154200552D02*
X104855387Y-154248171D01*
X105331578Y-154200552D02*
X105331578Y-154867219D01*
X105331578Y-154295790D02*
X105379197Y-154248171D01*
X105379197Y-154248171D02*
X105474435Y-154200552D01*
X105474435Y-154200552D02*
X105617292Y-154200552D01*
X105617292Y-154200552D02*
X105712530Y-154248171D01*
X105712530Y-154248171D02*
X105760149Y-154343409D01*
X105760149Y-154343409D02*
X105760149Y-154867219D01*
X106664911Y-154867219D02*
X106664911Y-154343409D01*
X106664911Y-154343409D02*
X106617292Y-154248171D01*
X106617292Y-154248171D02*
X106522054Y-154200552D01*
X106522054Y-154200552D02*
X106331578Y-154200552D01*
X106331578Y-154200552D02*
X106236340Y-154248171D01*
X106664911Y-154819600D02*
X106569673Y-154867219D01*
X106569673Y-154867219D02*
X106331578Y-154867219D01*
X106331578Y-154867219D02*
X106236340Y-154819600D01*
X106236340Y-154819600D02*
X106188721Y-154724361D01*
X106188721Y-154724361D02*
X106188721Y-154629123D01*
X106188721Y-154629123D02*
X106236340Y-154533885D01*
X106236340Y-154533885D02*
X106331578Y-154486266D01*
X106331578Y-154486266D02*
X106569673Y-154486266D01*
X106569673Y-154486266D02*
X106664911Y-154438647D01*
X107283959Y-154867219D02*
X107188721Y-154819600D01*
X107188721Y-154819600D02*
X107141102Y-154724361D01*
X107141102Y-154724361D02*
X107141102Y-153867219D01*
X107664912Y-154867219D02*
X107664912Y-154200552D01*
X107664912Y-154295790D02*
X107712531Y-154248171D01*
X107712531Y-154248171D02*
X107807769Y-154200552D01*
X107807769Y-154200552D02*
X107950626Y-154200552D01*
X107950626Y-154200552D02*
X108045864Y-154248171D01*
X108045864Y-154248171D02*
X108093483Y-154343409D01*
X108093483Y-154343409D02*
X108093483Y-154867219D01*
X108093483Y-154343409D02*
X108141102Y-154248171D01*
X108141102Y-154248171D02*
X108236340Y-154200552D01*
X108236340Y-154200552D02*
X108379197Y-154200552D01*
X108379197Y-154200552D02*
X108474436Y-154248171D01*
X108474436Y-154248171D02*
X108522055Y-154343409D01*
X108522055Y-154343409D02*
X108522055Y-154867219D01*
X109379197Y-154819600D02*
X109283959Y-154867219D01*
X109283959Y-154867219D02*
X109093483Y-154867219D01*
X109093483Y-154867219D02*
X108998245Y-154819600D01*
X108998245Y-154819600D02*
X108950626Y-154724361D01*
X108950626Y-154724361D02*
X108950626Y-154343409D01*
X108950626Y-154343409D02*
X108998245Y-154248171D01*
X108998245Y-154248171D02*
X109093483Y-154200552D01*
X109093483Y-154200552D02*
X109283959Y-154200552D01*
X109283959Y-154200552D02*
X109379197Y-154248171D01*
X109379197Y-154248171D02*
X109426816Y-154343409D01*
X109426816Y-154343409D02*
X109426816Y-154438647D01*
X109426816Y-154438647D02*
X108950626Y-154533885D01*
X109807769Y-154819600D02*
X109903007Y-154867219D01*
X109903007Y-154867219D02*
X110093483Y-154867219D01*
X110093483Y-154867219D02*
X110188721Y-154819600D01*
X110188721Y-154819600D02*
X110236340Y-154724361D01*
X110236340Y-154724361D02*
X110236340Y-154676742D01*
X110236340Y-154676742D02*
X110188721Y-154581504D01*
X110188721Y-154581504D02*
X110093483Y-154533885D01*
X110093483Y-154533885D02*
X109950626Y-154533885D01*
X109950626Y-154533885D02*
X109855388Y-154486266D01*
X109855388Y-154486266D02*
X109807769Y-154391028D01*
X109807769Y-154391028D02*
X109807769Y-154343409D01*
X109807769Y-154343409D02*
X109855388Y-154248171D01*
X109855388Y-154248171D02*
X109950626Y-154200552D01*
X109950626Y-154200552D02*
X110093483Y-154200552D01*
X110093483Y-154200552D02*
X110188721Y-154248171D01*
X110664912Y-154867219D02*
X110664912Y-153867219D01*
X111093483Y-154867219D02*
X111093483Y-154343409D01*
X111093483Y-154343409D02*
X111045864Y-154248171D01*
X111045864Y-154248171D02*
X110950626Y-154200552D01*
X110950626Y-154200552D02*
X110807769Y-154200552D01*
X110807769Y-154200552D02*
X110712531Y-154248171D01*
X110712531Y-154248171D02*
X110664912Y-154295790D01*
X111331579Y-154962457D02*
X112093483Y-154962457D01*
X112903007Y-154771980D02*
X112855388Y-154819600D01*
X112855388Y-154819600D02*
X112712531Y-154867219D01*
X112712531Y-154867219D02*
X112617293Y-154867219D01*
X112617293Y-154867219D02*
X112474436Y-154819600D01*
X112474436Y-154819600D02*
X112379198Y-154724361D01*
X112379198Y-154724361D02*
X112331579Y-154629123D01*
X112331579Y-154629123D02*
X112283960Y-154438647D01*
X112283960Y-154438647D02*
X112283960Y-154295790D01*
X112283960Y-154295790D02*
X112331579Y-154105314D01*
X112331579Y-154105314D02*
X112379198Y-154010076D01*
X112379198Y-154010076D02*
X112474436Y-153914838D01*
X112474436Y-153914838D02*
X112617293Y-153867219D01*
X112617293Y-153867219D02*
X112712531Y-153867219D01*
X112712531Y-153867219D02*
X112855388Y-153914838D01*
X112855388Y-153914838D02*
X112903007Y-153962457D01*
X113283960Y-154581504D02*
X113760150Y-154581504D01*
X113188722Y-154867219D02*
X113522055Y-153867219D01*
X113522055Y-153867219D02*
X113855388Y-154867219D01*
X114188722Y-154867219D02*
X114188722Y-153867219D01*
X114188722Y-153867219D02*
X114426817Y-153867219D01*
X114426817Y-153867219D02*
X114569674Y-153914838D01*
X114569674Y-153914838D02*
X114664912Y-154010076D01*
X114664912Y-154010076D02*
X114712531Y-154105314D01*
X114712531Y-154105314D02*
X114760150Y-154295790D01*
X114760150Y-154295790D02*
X114760150Y-154438647D01*
X114760150Y-154438647D02*
X114712531Y-154629123D01*
X114712531Y-154629123D02*
X114664912Y-154724361D01*
X114664912Y-154724361D02*
X114569674Y-154819600D01*
X114569674Y-154819600D02*
X114426817Y-154867219D01*
X114426817Y-154867219D02*
X114188722Y-154867219D01*
D11*
X126362486Y-59708767D02*
X126362486Y-60423052D01*
X126362486Y-60423052D02*
X126314867Y-60565909D01*
X126314867Y-60565909D02*
X126219629Y-60661148D01*
X126219629Y-60661148D02*
X126076772Y-60708767D01*
X126076772Y-60708767D02*
X125981534Y-60708767D01*
X127362486Y-60708767D02*
X126791058Y-60708767D01*
X127076772Y-60708767D02*
X127076772Y-59708767D01*
X127076772Y-59708767D02*
X126981534Y-59851624D01*
X126981534Y-59851624D02*
X126886296Y-59946862D01*
X126886296Y-59946862D02*
X126791058Y-59994481D01*
X128267248Y-59708767D02*
X127791058Y-59708767D01*
X127791058Y-59708767D02*
X127743439Y-60184957D01*
X127743439Y-60184957D02*
X127791058Y-60137338D01*
X127791058Y-60137338D02*
X127886296Y-60089719D01*
X127886296Y-60089719D02*
X128124391Y-60089719D01*
X128124391Y-60089719D02*
X128219629Y-60137338D01*
X128219629Y-60137338D02*
X128267248Y-60184957D01*
X128267248Y-60184957D02*
X128314867Y-60280195D01*
X128314867Y-60280195D02*
X128314867Y-60518290D01*
X128314867Y-60518290D02*
X128267248Y-60613528D01*
X128267248Y-60613528D02*
X128219629Y-60661148D01*
X128219629Y-60661148D02*
X128124391Y-60708767D01*
X128124391Y-60708767D02*
X127886296Y-60708767D01*
X127886296Y-60708767D02*
X127791058Y-60661148D01*
X127791058Y-60661148D02*
X127743439Y-60613528D01*
X65414534Y-59708767D02*
X65414534Y-60423052D01*
X65414534Y-60423052D02*
X65366915Y-60565909D01*
X65366915Y-60565909D02*
X65271677Y-60661148D01*
X65271677Y-60661148D02*
X65128820Y-60708767D01*
X65128820Y-60708767D02*
X65033582Y-60708767D01*
X66414534Y-60708767D02*
X65843106Y-60708767D01*
X66128820Y-60708767D02*
X66128820Y-59708767D01*
X66128820Y-59708767D02*
X66033582Y-59851624D01*
X66033582Y-59851624D02*
X65938344Y-59946862D01*
X65938344Y-59946862D02*
X65843106Y-59994481D01*
X66747868Y-59708767D02*
X67366915Y-59708767D01*
X67366915Y-59708767D02*
X67033582Y-60089719D01*
X67033582Y-60089719D02*
X67176439Y-60089719D01*
X67176439Y-60089719D02*
X67271677Y-60137338D01*
X67271677Y-60137338D02*
X67319296Y-60184957D01*
X67319296Y-60184957D02*
X67366915Y-60280195D01*
X67366915Y-60280195D02*
X67366915Y-60518290D01*
X67366915Y-60518290D02*
X67319296Y-60613528D01*
X67319296Y-60613528D02*
X67271677Y-60661148D01*
X67271677Y-60661148D02*
X67176439Y-60708767D01*
X67176439Y-60708767D02*
X66890725Y-60708767D01*
X66890725Y-60708767D02*
X66795487Y-60661148D01*
X66795487Y-60661148D02*
X66747868Y-60613528D01*
X95938095Y-24604819D02*
X95938095Y-25414342D01*
X95938095Y-25414342D02*
X95985714Y-25509580D01*
X95985714Y-25509580D02*
X96033333Y-25557200D01*
X96033333Y-25557200D02*
X96128571Y-25604819D01*
X96128571Y-25604819D02*
X96319047Y-25604819D01*
X96319047Y-25604819D02*
X96414285Y-25557200D01*
X96414285Y-25557200D02*
X96461904Y-25509580D01*
X96461904Y-25509580D02*
X96509523Y-25414342D01*
X96509523Y-25414342D02*
X96509523Y-24604819D01*
X97509523Y-25604819D02*
X96938095Y-25604819D01*
X97223809Y-25604819D02*
X97223809Y-24604819D01*
X97223809Y-24604819D02*
X97128571Y-24747676D01*
X97128571Y-24747676D02*
X97033333Y-24842914D01*
X97033333Y-24842914D02*
X96938095Y-24890533D01*
D12*
%TO.C,REF\u002A\u002A*%
G36*
X123216829Y-147434898D02*
G01*
X118525417Y-147434898D01*
X118525417Y-146292503D01*
X123216829Y-146292503D01*
X123216829Y-147434898D01*
G37*
G36*
X121848627Y-143969691D02*
G01*
X121856627Y-143970300D01*
X121864510Y-143971301D01*
X121872267Y-143972687D01*
X121879888Y-143974446D01*
X121887363Y-143976569D01*
X121894682Y-143979045D01*
X121901836Y-143981866D01*
X121908813Y-143985021D01*
X121915606Y-143988500D01*
X121922202Y-143992293D01*
X121928594Y-143996391D01*
X121934770Y-144000783D01*
X121940721Y-144005459D01*
X121946437Y-144010410D01*
X121951907Y-144015626D01*
X121957123Y-144021097D01*
X121962075Y-144026813D01*
X121966751Y-144032764D01*
X121971143Y-144038940D01*
X121975241Y-144045332D01*
X121979034Y-144051928D01*
X121982513Y-144058720D01*
X121985668Y-144065698D01*
X121988488Y-144072852D01*
X121990965Y-144080171D01*
X121993088Y-144087646D01*
X121994847Y-144095267D01*
X121996232Y-144103024D01*
X121997234Y-144110907D01*
X121997843Y-144118907D01*
X121998048Y-144127013D01*
X121997843Y-144135118D01*
X121997234Y-144143118D01*
X121996232Y-144151001D01*
X121994847Y-144158758D01*
X121993088Y-144166378D01*
X121990965Y-144173853D01*
X121988488Y-144181172D01*
X121985668Y-144188325D01*
X121982513Y-144195302D01*
X121979034Y-144202094D01*
X121975241Y-144208690D01*
X121971143Y-144215081D01*
X121966751Y-144221256D01*
X121962075Y-144227206D01*
X121957123Y-144232921D01*
X121951907Y-144238392D01*
X121946437Y-144243607D01*
X121940721Y-144248558D01*
X121934770Y-144253234D01*
X121928594Y-144257625D01*
X121922202Y-144261722D01*
X121915606Y-144265515D01*
X121908813Y-144268993D01*
X121901836Y-144272147D01*
X121894682Y-144274968D01*
X121887363Y-144277444D01*
X121879888Y-144279566D01*
X121872267Y-144281325D01*
X121864510Y-144282710D01*
X121856627Y-144283712D01*
X121848627Y-144284320D01*
X121840522Y-144284525D01*
X121832416Y-144284320D01*
X121824416Y-144283712D01*
X121816533Y-144282710D01*
X121808776Y-144281325D01*
X121801155Y-144279566D01*
X121793680Y-144277444D01*
X121786361Y-144274967D01*
X121779207Y-144272147D01*
X121772229Y-144268993D01*
X121765437Y-144265515D01*
X121758840Y-144261722D01*
X121752449Y-144257625D01*
X121746273Y-144253234D01*
X121740322Y-144248558D01*
X121734606Y-144243607D01*
X121729135Y-144238392D01*
X121723919Y-144232921D01*
X121718968Y-144227206D01*
X121714291Y-144221256D01*
X121709899Y-144215080D01*
X121705802Y-144208690D01*
X121702009Y-144202093D01*
X121698530Y-144195302D01*
X121695375Y-144188325D01*
X121692554Y-144181172D01*
X121690078Y-144173853D01*
X121687955Y-144166378D01*
X121686196Y-144158758D01*
X121684810Y-144151001D01*
X121683809Y-144143118D01*
X121683200Y-144135118D01*
X121682995Y-144127013D01*
X121683200Y-144118907D01*
X121683809Y-144110907D01*
X121684810Y-144103024D01*
X121686196Y-144095267D01*
X121687955Y-144087646D01*
X121690078Y-144080171D01*
X121692554Y-144072852D01*
X121695375Y-144065698D01*
X121698530Y-144058721D01*
X121702009Y-144051928D01*
X121705802Y-144045332D01*
X121709899Y-144038940D01*
X121714291Y-144032764D01*
X121718968Y-144026813D01*
X121723919Y-144021097D01*
X121729135Y-144015627D01*
X121734606Y-144010411D01*
X121740322Y-144005459D01*
X121746273Y-144000783D01*
X121752449Y-143996391D01*
X121758840Y-143992293D01*
X121765437Y-143988500D01*
X121772229Y-143985021D01*
X121779207Y-143981866D01*
X121786361Y-143979045D01*
X121793680Y-143976569D01*
X121801155Y-143974446D01*
X121808776Y-143972687D01*
X121816533Y-143971301D01*
X121824416Y-143970300D01*
X121832416Y-143969691D01*
X121840522Y-143969486D01*
X121848627Y-143969691D01*
G37*
G36*
X123742222Y-139563210D02*
G01*
X122503429Y-140825051D01*
X122529215Y-140825051D01*
X122529215Y-141389657D01*
X122160418Y-141389657D01*
X121963490Y-143502616D01*
X123420207Y-145036788D01*
X123323565Y-145128505D01*
X122300456Y-144049248D01*
X122301949Y-144058763D01*
X122303251Y-144068340D01*
X122304359Y-144077978D01*
X122305270Y-144087675D01*
X122305982Y-144097429D01*
X122306494Y-144107238D01*
X122306802Y-144117100D01*
X122306906Y-144127013D01*
X122306299Y-144151013D01*
X122304498Y-144174698D01*
X122301532Y-144198039D01*
X122297431Y-144221006D01*
X122292223Y-144243570D01*
X122285939Y-144265702D01*
X122278607Y-144287372D01*
X122270256Y-144308551D01*
X122260916Y-144329209D01*
X122250617Y-144349318D01*
X122239388Y-144368849D01*
X122227257Y-144387771D01*
X122214254Y-144406055D01*
X122200409Y-144423673D01*
X122185751Y-144440595D01*
X122170309Y-144456791D01*
X122154112Y-144472233D01*
X122137190Y-144486891D01*
X122119572Y-144500736D01*
X122101287Y-144513738D01*
X122082365Y-144525869D01*
X122062834Y-144537098D01*
X122042725Y-144547397D01*
X122022067Y-144556736D01*
X122000888Y-144565086D01*
X121979219Y-144572418D01*
X121957088Y-144578702D01*
X121934524Y-144583909D01*
X121911558Y-144588010D01*
X121888218Y-144590976D01*
X121864534Y-144592777D01*
X121840534Y-144593384D01*
X121807287Y-144592217D01*
X121774669Y-144588769D01*
X121742758Y-144583119D01*
X121711635Y-144575344D01*
X121681376Y-144565523D01*
X121652061Y-144553736D01*
X121623768Y-144540059D01*
X121596576Y-144524572D01*
X121570563Y-144507354D01*
X121545807Y-144488482D01*
X121522388Y-144468035D01*
X121500384Y-144446091D01*
X121479873Y-144422730D01*
X121460934Y-144398029D01*
X121443645Y-144372068D01*
X121428085Y-144344923D01*
X120287593Y-144344923D01*
X120287593Y-144588553D01*
X119987533Y-144588553D01*
X119987533Y-144344302D01*
X119984243Y-144343757D01*
X119980968Y-144343049D01*
X119977712Y-144342185D01*
X119974480Y-144341168D01*
X119971278Y-144340004D01*
X119968111Y-144338698D01*
X119964985Y-144337255D01*
X119961905Y-144335679D01*
X119955903Y-144332150D01*
X119950149Y-144328150D01*
X119944686Y-144323719D01*
X119939557Y-144318895D01*
X119934804Y-144313719D01*
X119930471Y-144308229D01*
X119926600Y-144302466D01*
X119924851Y-144299493D01*
X119923234Y-144296467D01*
X119921754Y-144293392D01*
X119920416Y-144290273D01*
X119919226Y-144287115D01*
X119918189Y-144283922D01*
X119917310Y-144280701D01*
X119916595Y-144277455D01*
X119916049Y-144274190D01*
X119915678Y-144270910D01*
X119851610Y-143526230D01*
X118262033Y-145145386D01*
X118167010Y-145052009D01*
X119815947Y-143374021D01*
X120001026Y-143374021D01*
X120070614Y-144183011D01*
X121377456Y-144183011D01*
X121376686Y-144176110D01*
X121376015Y-144169178D01*
X121375445Y-144162218D01*
X121374977Y-144155230D01*
X121374611Y-144148214D01*
X121374348Y-144141172D01*
X121374190Y-144134105D01*
X121374137Y-144127013D01*
X121597971Y-144127013D01*
X121598286Y-144139494D01*
X121599223Y-144151811D01*
X121600765Y-144163950D01*
X121602898Y-144175894D01*
X121605606Y-144187628D01*
X121608875Y-144199138D01*
X121612688Y-144210408D01*
X121617030Y-144221422D01*
X121621887Y-144232166D01*
X121627243Y-144242625D01*
X121633083Y-144252782D01*
X121639392Y-144262623D01*
X121646154Y-144272132D01*
X121653355Y-144281295D01*
X121660978Y-144290096D01*
X121669009Y-144298520D01*
X121677432Y-144306551D01*
X121686233Y-144314175D01*
X121695395Y-144321375D01*
X121704905Y-144328138D01*
X121714746Y-144334447D01*
X121724903Y-144340287D01*
X121735362Y-144345644D01*
X121746106Y-144350501D01*
X121757121Y-144354844D01*
X121768391Y-144358658D01*
X121779901Y-144361926D01*
X121791636Y-144364635D01*
X121803581Y-144366768D01*
X121815720Y-144368310D01*
X121828039Y-144369247D01*
X121840521Y-144369563D01*
X121853002Y-144369247D01*
X121865320Y-144368310D01*
X121877458Y-144366768D01*
X121889402Y-144364635D01*
X121901137Y-144361926D01*
X121912647Y-144358658D01*
X121923916Y-144354844D01*
X121934931Y-144350501D01*
X121945675Y-144345644D01*
X121956133Y-144340287D01*
X121966290Y-144334447D01*
X121976131Y-144328138D01*
X121985641Y-144321375D01*
X121994804Y-144314175D01*
X122003605Y-144306551D01*
X122012028Y-144298520D01*
X122020060Y-144290096D01*
X122027683Y-144281295D01*
X122034884Y-144272132D01*
X122041646Y-144262623D01*
X122047955Y-144252782D01*
X122053796Y-144242625D01*
X122059152Y-144232166D01*
X122064010Y-144221422D01*
X122068353Y-144210408D01*
X122072166Y-144199138D01*
X122075435Y-144187628D01*
X122078143Y-144175894D01*
X122080276Y-144163950D01*
X122081819Y-144151811D01*
X122082756Y-144139494D01*
X122083071Y-144127013D01*
X122082756Y-144114530D01*
X122081819Y-144102212D01*
X122080276Y-144090073D01*
X122078143Y-144078128D01*
X122075435Y-144066392D01*
X122072166Y-144054882D01*
X122068353Y-144043612D01*
X122064010Y-144032597D01*
X122059152Y-144021853D01*
X122053796Y-144011395D01*
X122047955Y-144001237D01*
X122041646Y-143991396D01*
X122034884Y-143981887D01*
X122027683Y-143972724D01*
X122020060Y-143963924D01*
X122012028Y-143955500D01*
X122003605Y-143947469D01*
X121994804Y-143939846D01*
X121985641Y-143932646D01*
X121976131Y-143925884D01*
X121966290Y-143919575D01*
X121956133Y-143913735D01*
X121945675Y-143908379D01*
X121934931Y-143903522D01*
X121923916Y-143899179D01*
X121912647Y-143895366D01*
X121901137Y-143892098D01*
X121889402Y-143889390D01*
X121877458Y-143887257D01*
X121865320Y-143885714D01*
X121853002Y-143884778D01*
X121840521Y-143884462D01*
X121828039Y-143884778D01*
X121815720Y-143885714D01*
X121803581Y-143887257D01*
X121791636Y-143889390D01*
X121779901Y-143892098D01*
X121768391Y-143895366D01*
X121757121Y-143899179D01*
X121746106Y-143903522D01*
X121735362Y-143908379D01*
X121724903Y-143913735D01*
X121714746Y-143919575D01*
X121704905Y-143925884D01*
X121695396Y-143932646D01*
X121686233Y-143939846D01*
X121677432Y-143947469D01*
X121669009Y-143955500D01*
X121660978Y-143963924D01*
X121653355Y-143972724D01*
X121646154Y-143981887D01*
X121639392Y-143991396D01*
X121633084Y-144001237D01*
X121627244Y-144011395D01*
X121621887Y-144021853D01*
X121617030Y-144032597D01*
X121612688Y-144043612D01*
X121608875Y-144054882D01*
X121605606Y-144066392D01*
X121602898Y-144078128D01*
X121600765Y-144090073D01*
X121599223Y-144102212D01*
X121598286Y-144114530D01*
X121597971Y-144127013D01*
X121374137Y-144127013D01*
X121374660Y-144104726D01*
X121376214Y-144082708D01*
X121378774Y-144060984D01*
X121382319Y-144039576D01*
X121386824Y-144018509D01*
X121392266Y-143997804D01*
X121398621Y-143977487D01*
X121405866Y-143957579D01*
X121413978Y-143938105D01*
X121422932Y-143919089D01*
X121432707Y-143900553D01*
X121443278Y-143882521D01*
X121454622Y-143865016D01*
X121466715Y-143848062D01*
X121479534Y-143831683D01*
X121493055Y-143815901D01*
X121507256Y-143800740D01*
X121522113Y-143786224D01*
X121537601Y-143772376D01*
X121553699Y-143759219D01*
X121570382Y-143746777D01*
X121587627Y-143735073D01*
X121605411Y-143724131D01*
X121623709Y-143713975D01*
X121642500Y-143704627D01*
X121661758Y-143696111D01*
X121681462Y-143688450D01*
X121701586Y-143681668D01*
X121722109Y-143675789D01*
X121743006Y-143670835D01*
X121764255Y-143666831D01*
X121785831Y-143663799D01*
X121799190Y-143520482D01*
X120845195Y-142514145D01*
X120001026Y-143374021D01*
X119815947Y-143374021D01*
X119836699Y-143352903D01*
X119672925Y-141448989D01*
X119835445Y-141448989D01*
X119986143Y-143200829D01*
X120752372Y-142421092D01*
X120936548Y-142421092D01*
X121815383Y-143346656D01*
X121997764Y-141389657D01*
X121979777Y-141389657D01*
X121979777Y-141358433D01*
X120936548Y-142421092D01*
X120752372Y-142421092D01*
X120754719Y-142418704D01*
X119835445Y-141448989D01*
X119672925Y-141448989D01*
X119656706Y-141260441D01*
X118068276Y-139584854D01*
X118068276Y-139400327D01*
X119638989Y-141054553D01*
X119598180Y-140580154D01*
X119760703Y-140580154D01*
X119817700Y-141242764D01*
X120846032Y-142325772D01*
X121454290Y-141706814D01*
X120596735Y-141706814D01*
X120596735Y-141382964D01*
X121588539Y-141382964D01*
X121588539Y-141570190D01*
X121909032Y-141244059D01*
X122173965Y-141244059D01*
X122387504Y-141244059D01*
X122387504Y-140970676D01*
X122360476Y-140970676D01*
X122182561Y-141151897D01*
X122173965Y-141244059D01*
X121909032Y-141244059D01*
X121979777Y-141172070D01*
X121979777Y-140825079D01*
X122050376Y-140825079D01*
X122073194Y-140580154D01*
X119760703Y-140580154D01*
X119598180Y-140580154D01*
X119597604Y-140573447D01*
X119402538Y-140573447D01*
X119402538Y-140411522D01*
X119574165Y-140411522D01*
X120185216Y-140411522D01*
X122066838Y-140411522D01*
X122059298Y-140395458D01*
X122050547Y-140379928D01*
X122040625Y-140364923D01*
X122029571Y-140350434D01*
X122017424Y-140336454D01*
X122004224Y-140322972D01*
X121990010Y-140309980D01*
X121974821Y-140297469D01*
X121958696Y-140285431D01*
X121941675Y-140273857D01*
X121923797Y-140262737D01*
X121905101Y-140252064D01*
X121865412Y-140232020D01*
X121822922Y-140213655D01*
X121777945Y-140196898D01*
X121730796Y-140181679D01*
X121681788Y-140167928D01*
X121631235Y-140155574D01*
X121579451Y-140144546D01*
X121526750Y-140134775D01*
X121473446Y-140126191D01*
X121419867Y-140118723D01*
X121419867Y-140269851D01*
X120623749Y-140269851D01*
X120623749Y-140107926D01*
X120623749Y-140101692D01*
X120570235Y-140106064D01*
X120515681Y-140111321D01*
X120460422Y-140117530D01*
X120404791Y-140124760D01*
X120349121Y-140133077D01*
X120293747Y-140142550D01*
X120239000Y-140153247D01*
X120185216Y-140165234D01*
X120185216Y-140411522D01*
X119574165Y-140411522D01*
X119574169Y-140411508D01*
X119747290Y-140411508D01*
X119908513Y-140411508D01*
X119908513Y-140264170D01*
X119895006Y-140271717D01*
X119881893Y-140279473D01*
X119869189Y-140287440D01*
X119856906Y-140295621D01*
X119845058Y-140304019D01*
X119833659Y-140312637D01*
X119822722Y-140321477D01*
X119812260Y-140330543D01*
X119802287Y-140339836D01*
X119792817Y-140349361D01*
X119783861Y-140359119D01*
X119775435Y-140369113D01*
X119767552Y-140379346D01*
X119760224Y-140389821D01*
X119753465Y-140400541D01*
X119747290Y-140411508D01*
X119574169Y-140411508D01*
X119575319Y-140408040D01*
X119576565Y-140404417D01*
X119577908Y-140400657D01*
X119579350Y-140396763D01*
X119580894Y-140392739D01*
X119582545Y-140388588D01*
X119584303Y-140384314D01*
X119586174Y-140379920D01*
X119597579Y-140355626D01*
X119610363Y-140332199D01*
X119624480Y-140309623D01*
X119639885Y-140287883D01*
X119656532Y-140266963D01*
X119674376Y-140246848D01*
X119693369Y-140227524D01*
X119713468Y-140208974D01*
X119734625Y-140191184D01*
X119756795Y-140174139D01*
X119769422Y-140165234D01*
X119779932Y-140157822D01*
X119803991Y-140142220D01*
X119828926Y-140127317D01*
X119854690Y-140113097D01*
X119881239Y-140099545D01*
X119908526Y-140086646D01*
X119908526Y-140033684D01*
X120785647Y-140033684D01*
X120785647Y-140107926D01*
X121257915Y-140107926D01*
X121257915Y-140033684D01*
X120785647Y-140033684D01*
X119908526Y-140033684D01*
X119908526Y-139979628D01*
X120185216Y-139979628D01*
X120185216Y-139996184D01*
X120239624Y-139984458D01*
X120294587Y-139974075D01*
X120349886Y-139964963D01*
X120405302Y-139957048D01*
X120460616Y-139950256D01*
X120515607Y-139944516D01*
X120570058Y-139939753D01*
X120623749Y-139935894D01*
X120623749Y-139871772D01*
X121419867Y-139871772D01*
X121419867Y-139953843D01*
X121527581Y-139969374D01*
X121581158Y-139978889D01*
X121634242Y-139989665D01*
X121686606Y-140001772D01*
X121738023Y-140015281D01*
X121788265Y-140030264D01*
X121837106Y-140046791D01*
X121884318Y-140064933D01*
X121929675Y-140084762D01*
X121972951Y-140106348D01*
X122013916Y-140129762D01*
X122052346Y-140155075D01*
X122088013Y-140182359D01*
X122120689Y-140211683D01*
X122150149Y-140243120D01*
X122157812Y-140233900D01*
X122165968Y-140225122D01*
X122174594Y-140216808D01*
X122183671Y-140208978D01*
X122193176Y-140201654D01*
X122203089Y-140194857D01*
X122213390Y-140188607D01*
X122224056Y-140182926D01*
X122235067Y-140177835D01*
X122246402Y-140173354D01*
X122258039Y-140169505D01*
X122269959Y-140166309D01*
X122282139Y-140163786D01*
X122294559Y-140161958D01*
X122307198Y-140160846D01*
X122320035Y-140160471D01*
X122331146Y-140160752D01*
X122342110Y-140161585D01*
X122352916Y-140162958D01*
X122363548Y-140164857D01*
X122373994Y-140167268D01*
X122384239Y-140170177D01*
X122394271Y-140173571D01*
X122404076Y-140177436D01*
X122413639Y-140181760D01*
X122422948Y-140186528D01*
X122431990Y-140191726D01*
X122440749Y-140197342D01*
X122449214Y-140203361D01*
X122457370Y-140209770D01*
X122465204Y-140216556D01*
X122472702Y-140223704D01*
X122479850Y-140231202D01*
X122486636Y-140239036D01*
X122493045Y-140247192D01*
X122499064Y-140255656D01*
X122504680Y-140264416D01*
X122509878Y-140273457D01*
X122514646Y-140282767D01*
X122518969Y-140292330D01*
X122522835Y-140302135D01*
X122526229Y-140312167D01*
X122529138Y-140322412D01*
X122531549Y-140332858D01*
X122533448Y-140343490D01*
X122534820Y-140354295D01*
X122535654Y-140365260D01*
X122535935Y-140376371D01*
X122535654Y-140387480D01*
X122534820Y-140398444D01*
X122533448Y-140409248D01*
X122531549Y-140419880D01*
X122529138Y-140430325D01*
X122526229Y-140440570D01*
X122522835Y-140450601D01*
X122518969Y-140460406D01*
X122514646Y-140469969D01*
X122509878Y-140479278D01*
X122504680Y-140488319D01*
X122499064Y-140497079D01*
X122493045Y-140505544D01*
X122486636Y-140513700D01*
X122479850Y-140521534D01*
X122472702Y-140529032D01*
X122465204Y-140536181D01*
X122457370Y-140542967D01*
X122449214Y-140549377D01*
X122440749Y-140555396D01*
X122431990Y-140561012D01*
X122422948Y-140566211D01*
X122413639Y-140570979D01*
X122404076Y-140575303D01*
X122394271Y-140579169D01*
X122384239Y-140582564D01*
X122373994Y-140585473D01*
X122363548Y-140587884D01*
X122352916Y-140589783D01*
X122342110Y-140591156D01*
X122331146Y-140591990D01*
X122320035Y-140592271D01*
X122314485Y-140592201D01*
X122308970Y-140591992D01*
X122303491Y-140591646D01*
X122298049Y-140591165D01*
X122292647Y-140590550D01*
X122287285Y-140589803D01*
X122281967Y-140588925D01*
X122276693Y-140587919D01*
X122271465Y-140586786D01*
X122266285Y-140585527D01*
X122261155Y-140584144D01*
X122256076Y-140582639D01*
X122251050Y-140581013D01*
X122246079Y-140579269D01*
X122241164Y-140577408D01*
X122236307Y-140575431D01*
X122213029Y-140825065D01*
X122320790Y-140825065D01*
X123742222Y-139378589D01*
X123742222Y-139563210D01*
G37*
D13*
%TO.C,J15*%
X124522010Y-61253948D02*
X125902010Y-61253948D01*
X124522010Y-62633948D02*
X124522010Y-61253948D01*
X124522010Y-63903948D02*
X124522010Y-152913948D01*
X124522010Y-63903948D02*
X127172010Y-63903948D01*
X124522010Y-152913948D02*
X129822010Y-152913948D01*
X127172010Y-61253948D02*
X129822010Y-61253948D01*
X127172010Y-63903948D02*
X127172010Y-61253948D01*
X129822010Y-61253948D02*
X129822010Y-152913948D01*
%TO.C,J13*%
X63574058Y-61253948D02*
X64954058Y-61253948D01*
X63574058Y-62633948D02*
X63574058Y-61253948D01*
X63574058Y-63903948D02*
X63574058Y-152913948D01*
X63574058Y-63903948D02*
X66224058Y-63903948D01*
X63574058Y-152913948D02*
X68874058Y-152913948D01*
X66224058Y-61253948D02*
X68874058Y-61253948D01*
X66224058Y-63903948D02*
X66224058Y-61253948D01*
X68874058Y-61253948D02*
X68874058Y-152913948D01*
%TD*%
%LPC*%
D14*
%TO.C,REF\u002A\u002A*%
X127300000Y-54650000D03*
%TD*%
%TO.C,REF\u002A\u002A*%
X75900000Y-151300000D03*
%TD*%
D15*
%TO.C,J15*%
X125902010Y-62633948D03*
D16*
X128442010Y-62633948D03*
X125902010Y-65173948D03*
X128442010Y-65173948D03*
X125902010Y-67713948D03*
X128442010Y-67713948D03*
X125902010Y-70253948D03*
X128442010Y-70253948D03*
X125902010Y-72793948D03*
X128442010Y-72793948D03*
X125902010Y-75333948D03*
X128442010Y-75333948D03*
X125902010Y-77873948D03*
X128442010Y-77873948D03*
X125902010Y-80413948D03*
X128442010Y-80413948D03*
X125902010Y-82953948D03*
X128442010Y-82953948D03*
X125902010Y-85493948D03*
X128442010Y-85493948D03*
X125902010Y-88033948D03*
X128442010Y-88033948D03*
X125902010Y-90573948D03*
X128442010Y-90573948D03*
X125902010Y-93113948D03*
X128442010Y-93113948D03*
X125902010Y-95653948D03*
X128442010Y-95653948D03*
X125902010Y-98193948D03*
X128442010Y-98193948D03*
X125902010Y-100733948D03*
X128442010Y-100733948D03*
X125902010Y-103273948D03*
X128442010Y-103273948D03*
X125902010Y-105813948D03*
X128442010Y-105813948D03*
X125902010Y-108353948D03*
X128442010Y-108353948D03*
X125902010Y-110893948D03*
X128442010Y-110893948D03*
X125902010Y-113433948D03*
X128442010Y-113433948D03*
X125902010Y-115973948D03*
X128442010Y-115973948D03*
X125902010Y-118513948D03*
X128442010Y-118513948D03*
X125902010Y-121053948D03*
X128442010Y-121053948D03*
X125902010Y-123593948D03*
X128442010Y-123593948D03*
X125902010Y-126133948D03*
X128442010Y-126133948D03*
X125902010Y-128673948D03*
X128442010Y-128673948D03*
X125902010Y-131213948D03*
X128442010Y-131213948D03*
X125902010Y-133753948D03*
X128442010Y-133753948D03*
X125902010Y-136293948D03*
X128442010Y-136293948D03*
X125902010Y-138833948D03*
X128442010Y-138833948D03*
X125902010Y-141373948D03*
X128442010Y-141373948D03*
X125902010Y-143913948D03*
X128442010Y-143913948D03*
X125902010Y-146453948D03*
X128442010Y-146453948D03*
X125902010Y-148993948D03*
X128442010Y-148993948D03*
X125902010Y-151533948D03*
X128442010Y-151533948D03*
%TD*%
D15*
%TO.C,J13*%
X64954058Y-62633948D03*
D16*
X67494058Y-62633948D03*
X64954058Y-65173948D03*
X67494058Y-65173948D03*
X64954058Y-67713948D03*
X67494058Y-67713948D03*
X64954058Y-70253948D03*
X67494058Y-70253948D03*
X64954058Y-72793948D03*
X67494058Y-72793948D03*
X64954058Y-75333948D03*
X67494058Y-75333948D03*
X64954058Y-77873948D03*
X67494058Y-77873948D03*
X64954058Y-80413948D03*
X67494058Y-80413948D03*
X64954058Y-82953948D03*
X67494058Y-82953948D03*
X64954058Y-85493948D03*
X67494058Y-85493948D03*
X64954058Y-88033948D03*
X67494058Y-88033948D03*
X64954058Y-90573948D03*
X67494058Y-90573948D03*
X64954058Y-93113948D03*
X67494058Y-93113948D03*
X64954058Y-95653948D03*
X67494058Y-95653948D03*
X64954058Y-98193948D03*
X67494058Y-98193948D03*
X64954058Y-100733948D03*
X67494058Y-100733948D03*
X64954058Y-103273948D03*
X67494058Y-103273948D03*
X64954058Y-105813948D03*
X67494058Y-105813948D03*
X64954058Y-108353948D03*
X67494058Y-108353948D03*
X64954058Y-110893948D03*
X67494058Y-110893948D03*
X64954058Y-113433948D03*
X67494058Y-113433948D03*
X64954058Y-115973948D03*
X67494058Y-115973948D03*
X64954058Y-118513948D03*
X67494058Y-118513948D03*
X64954058Y-121053948D03*
X67494058Y-121053948D03*
X64954058Y-123593948D03*
X67494058Y-123593948D03*
X64954058Y-126133948D03*
X67494058Y-126133948D03*
X64954058Y-128673948D03*
X67494058Y-128673948D03*
X64954058Y-131213948D03*
X67494058Y-131213948D03*
X64954058Y-133753948D03*
X67494058Y-133753948D03*
X64954058Y-136293948D03*
X67494058Y-136293948D03*
X64954058Y-138833948D03*
X67494058Y-138833948D03*
X64954058Y-141373948D03*
X67494058Y-141373948D03*
X64954058Y-143913948D03*
X67494058Y-143913948D03*
X64954058Y-146453948D03*
X67494058Y-146453948D03*
X64954058Y-148993948D03*
X67494058Y-148993948D03*
X64954058Y-151533948D03*
X67494058Y-151533948D03*
%TD*%
D14*
%TO.C,REF\u002A\u002A*%
X66250000Y-54550000D03*
%TD*%
%TO.C,REF\u002A\u002A*%
X117600000Y-151300000D03*
%TD*%
D17*
%TO.C,U1*%
X118290000Y-63626000D03*
D18*
X120830000Y-63626000D03*
X118290000Y-66166000D03*
X120830000Y-66166000D03*
X118290000Y-68706000D03*
X120830000Y-68706000D03*
X118290000Y-71246000D03*
X120830000Y-71246000D03*
X118290000Y-73786000D03*
X120830000Y-73786000D03*
X118290000Y-76326000D03*
X120830000Y-76326000D03*
X118290000Y-78866000D03*
X120830000Y-78866000D03*
X118290000Y-81406000D03*
X120830000Y-81406000D03*
X118290000Y-83946000D03*
X120830000Y-83946000D03*
X118290000Y-86486000D03*
X120830000Y-86486000D03*
D17*
X72570000Y-72770000D03*
D18*
X75110000Y-72770000D03*
X72570000Y-75310000D03*
X75110000Y-75310000D03*
X72570000Y-77850000D03*
X75110000Y-77850000D03*
X72570000Y-80390000D03*
X75110000Y-80390000D03*
X72570000Y-82930000D03*
X75110000Y-82930000D03*
X72570000Y-85470000D03*
X75110000Y-85470000D03*
X72570000Y-88010000D03*
X75110000Y-88010000D03*
X72570000Y-90550000D03*
X75110000Y-90550000D03*
D17*
X72570000Y-95630000D03*
D18*
X75110000Y-95630000D03*
X72570000Y-98170000D03*
X75110000Y-98170000D03*
X72570000Y-100710000D03*
X75110000Y-100710000D03*
X72570000Y-103250000D03*
X75110000Y-103250000D03*
X72570000Y-105790000D03*
X75110000Y-105790000D03*
X72570000Y-108330000D03*
X75110000Y-108330000D03*
X72570000Y-110870000D03*
X75110000Y-110870000D03*
X72570000Y-113410000D03*
X75110000Y-113410000D03*
X72570000Y-115950000D03*
X75110000Y-115950000D03*
X72570000Y-118490000D03*
X75110000Y-118490000D03*
X72570000Y-121030000D03*
X75110000Y-121030000D03*
X72570000Y-123570000D03*
X75110000Y-123570000D03*
X72570000Y-126110000D03*
X75110000Y-126110000D03*
X72570000Y-128650000D03*
X75110000Y-128650000D03*
X72570000Y-131190000D03*
X75110000Y-131190000D03*
D17*
X118290000Y-90550000D03*
D18*
X120830000Y-90550000D03*
X118290000Y-93090000D03*
X120830000Y-93090000D03*
X118290000Y-95630000D03*
X120830000Y-95630000D03*
X118290000Y-98170000D03*
X120830000Y-98170000D03*
X118290000Y-100710000D03*
X120830000Y-100710000D03*
X118290000Y-103250000D03*
X120830000Y-103250000D03*
X118290000Y-105790000D03*
X120830000Y-105790000D03*
X118290000Y-108330000D03*
X120830000Y-108330000D03*
X118290000Y-110870000D03*
X120830000Y-110870000D03*
X118290000Y-113410000D03*
X120830000Y-113410000D03*
X118290000Y-115950000D03*
X120830000Y-115950000D03*
X118290000Y-118490000D03*
X120830000Y-118490000D03*
X118290000Y-121030000D03*
X120830000Y-121030000D03*
X118290000Y-123570000D03*
X120830000Y-123570000D03*
X118290000Y-126110000D03*
X120830000Y-126110000D03*
X118290000Y-128650000D03*
X120830000Y-128650000D03*
X118290000Y-131190000D03*
X120830000Y-131190000D03*
%TD*%
D19*
%TO.C,J5*%
X73300000Y-135900000D03*
D20*
X73300000Y-134900000D03*
%TD*%
D21*
%TO.C,TH4*%
X101550000Y-94832000D03*
D22*
X99010000Y-94832000D03*
%TD*%
D19*
%TO.C,J1*%
X71150000Y-68700000D03*
D20*
X71150000Y-67700000D03*
X71150000Y-66700000D03*
%TD*%
D19*
%TO.C,J4*%
X81050000Y-123550000D03*
D20*
X81050000Y-122550000D03*
X81050000Y-121550000D03*
X81050000Y-120550000D03*
%TD*%
D21*
%TO.C,TH5*%
X104460000Y-131268000D03*
D22*
X107000000Y-131268000D03*
%TD*%
D19*
%TO.C,J2*%
X119850000Y-55850000D03*
D20*
X119850000Y-54850000D03*
X119850000Y-53850000D03*
%TD*%
D19*
%TO.C,J3*%
X73350000Y-142400000D03*
D20*
X73350000Y-141400000D03*
X73350000Y-140400000D03*
%TD*%
D19*
%TO.C,J7*%
X80200000Y-93600000D03*
D20*
X81200000Y-93600000D03*
%TD*%
D21*
%TO.C,TH3*%
X86460000Y-131318000D03*
D22*
X89000000Y-131318000D03*
%TD*%
D23*
%TO.C,J21*%
X105400000Y-63000000D03*
X110000000Y-63000000D03*
D24*
X102000000Y-63000000D03*
X113400000Y-63000000D03*
%TD*%
D25*
%TO.C,J12*%
X94160000Y-125832000D03*
D26*
X96160000Y-125832000D03*
X98160000Y-125832000D03*
X100160000Y-125832000D03*
%TD*%
D21*
%TO.C,TH1*%
X92500000Y-89832000D03*
D22*
X89960000Y-89832000D03*
%TD*%
D27*
%TO.C,J11*%
X95335000Y-99700000D03*
D28*
X94065000Y-99700000D03*
%TD*%
D21*
%TO.C,TH2*%
X98850000Y-67582000D03*
D22*
X96310000Y-67582000D03*
%TD*%
D29*
%TO.C,TP1*%
X94900000Y-118750000D03*
%TD*%
%TO.C,TP2*%
X99450000Y-118750000D03*
%TD*%
D23*
%TO.C,J29*%
X85540000Y-62950000D03*
X90140000Y-62950000D03*
D24*
X82140000Y-62950000D03*
X93540000Y-62950000D03*
%TD*%
D30*
%TO.C,Y7*%
X91140000Y-71700000D03*
X86260000Y-71700000D03*
%TD*%
D19*
%TO.C,J30*%
X78400000Y-57025000D03*
D20*
X77400000Y-57025000D03*
X76400000Y-57025000D03*
%TD*%
%LPD*%
M02*
