%TF.GenerationSoftware,KiCad,Pcbnew,9.0.0+dfsg-1*%
%TF.CreationDate,2025-06-19T15:00:09-07:00*%
%TF.ProjectId,signalmesh,7369676e-616c-46d6-9573-682e6b696361,rev?*%
%TF.SameCoordinates,Original*%
%TF.FileFunction,Copper,L1,Top*%
%TF.FilePolarity,Positive*%
%FSLAX46Y46*%
G04 Gerber Fmt 4.6, Leading zero omitted, Abs format (unit mm)*
G04 Created by KiCad (PCBNEW 9.0.0+dfsg-1) date 2025-06-19 15:00:09*
%MOMM*%
%LPD*%
G01*
G04 APERTURE LIST*
G04 Aperture macros list*
%AMRoundRect*
0 Rectangle with rounded corners*
0 $1 Rounding radius*
0 $2 $3 $4 $5 $6 $7 $8 $9 X,Y pos of 4 corners*
0 Add a 4 corners polygon primitive as box body*
4,1,4,$2,$3,$4,$5,$6,$7,$8,$9,$2,$3,0*
0 Add four circle primitives for the rounded corners*
1,1,$1+$1,$2,$3*
1,1,$1+$1,$4,$5*
1,1,$1+$1,$6,$7*
1,1,$1+$1,$8,$9*
0 Add four rect primitives between the rounded corners*
20,1,$1+$1,$2,$3,$4,$5,0*
20,1,$1+$1,$4,$5,$6,$7,0*
20,1,$1+$1,$6,$7,$8,$9,0*
20,1,$1+$1,$8,$9,$2,$3,0*%
G04 Aperture macros list end*
%TA.AperFunction,SMDPad,CuDef*%
%ADD10RoundRect,0.250000X-0.350000X-0.450000X0.350000X-0.450000X0.350000X0.450000X-0.350000X0.450000X0*%
%TD*%
%TA.AperFunction,SMDPad,CuDef*%
%ADD11R,0.800000X1.600000*%
%TD*%
%TA.AperFunction,SMDPad,CuDef*%
%ADD12O,0.800000X1.600000*%
%TD*%
%TA.AperFunction,SMDPad,CuDef*%
%ADD13RoundRect,0.250000X0.450000X-0.350000X0.450000X0.350000X-0.450000X0.350000X-0.450000X-0.350000X0*%
%TD*%
%TA.AperFunction,SMDPad,CuDef*%
%ADD14RoundRect,0.250000X-0.450000X0.350000X-0.450000X-0.350000X0.450000X-0.350000X0.450000X0.350000X0*%
%TD*%
%TA.AperFunction,ComponentPad*%
%ADD15R,1.508000X1.508000*%
%TD*%
%TA.AperFunction,ComponentPad*%
%ADD16C,1.508000*%
%TD*%
%TA.AperFunction,SMDPad,CuDef*%
%ADD17R,0.350000X0.500000*%
%TD*%
%TA.AperFunction,ComponentPad*%
%ADD18R,1.700000X1.700000*%
%TD*%
%TA.AperFunction,ComponentPad*%
%ADD19C,1.700000*%
%TD*%
%TA.AperFunction,ComponentPad*%
%ADD20R,1.605000X1.605000*%
%TD*%
%TA.AperFunction,ComponentPad*%
%ADD21C,1.605000*%
%TD*%
%TA.AperFunction,ComponentPad*%
%ADD22R,1.530000X1.530000*%
%TD*%
%TA.AperFunction,ComponentPad*%
%ADD23C,1.530000*%
%TD*%
%TA.AperFunction,SMDPad,CuDef*%
%ADD24R,1.981200X0.558800*%
%TD*%
%TA.AperFunction,SMDPad,CuDef*%
%ADD25RoundRect,0.150000X-0.825000X-0.150000X0.825000X-0.150000X0.825000X0.150000X-0.825000X0.150000X0*%
%TD*%
%TA.AperFunction,Profile*%
%ADD26C,0.050000*%
%TD*%
G04 APERTURE END LIST*
D10*
%TO.P,R12,1*%
%TO.N,I2C1_SDA_TDM*%
X540120129Y-163000000D03*
%TO.P,R12,2*%
%TO.N,5V_TDM*%
X542120129Y-163000000D03*
%TD*%
D11*
%TO.P,D2,1,K*%
%TO.N,GND*%
X495860000Y-143500000D03*
D12*
%TO.P,D2,2,A*%
%TO.N,Net-(D2-A)*%
X495860000Y-146700000D03*
%TO.P,D2,3*%
%TO.N,N/C*%
X497260000Y-143500000D03*
%TO.P,D2,4*%
X497260000Y-146700000D03*
%TD*%
D13*
%TO.P,R17,1*%
%TO.N,Net-(D2-A)*%
X496860000Y-154000000D03*
%TO.P,R17,2*%
%TO.N,LEDWARN_TDM*%
X496860000Y-152000000D03*
%TD*%
D14*
%TO.P,R16,1*%
%TO.N,Net-(D1-A)*%
X492360000Y-151000000D03*
%TO.P,R16,2*%
%TO.N,LEDOK_TDM*%
X492360000Y-153000000D03*
%TD*%
D15*
%TO.P,U1,CN7_1*%
%TO.N,N/C*%
X221460000Y-92556000D03*
D16*
%TO.P,U1,CN7_2*%
X224000000Y-92556000D03*
%TO.P,U1,CN7_3*%
X221460000Y-95096000D03*
%TO.P,U1,CN7_4*%
X224000000Y-95096000D03*
%TO.P,U1,CN7_5*%
X221460000Y-97636000D03*
%TO.P,U1,CN7_6*%
X224000000Y-97636000D03*
%TO.P,U1,CN7_7*%
X221460000Y-100176000D03*
%TO.P,U1,CN7_8*%
X224000000Y-100176000D03*
%TO.P,U1,CN7_9*%
X221460000Y-102716000D03*
%TO.P,U1,CN7_10*%
X224000000Y-102716000D03*
%TO.P,U1,CN7_11*%
X221460000Y-105256000D03*
%TO.P,U1,CN7_12*%
X224000000Y-105256000D03*
%TO.P,U1,CN7_13*%
X221460000Y-107796000D03*
%TO.P,U1,CN7_14*%
X224000000Y-107796000D03*
%TO.P,U1,CN7_15*%
X221460000Y-110336000D03*
%TO.P,U1,CN7_16*%
X224000000Y-110336000D03*
%TO.P,U1,CN7_17*%
X221460000Y-112876000D03*
%TO.P,U1,CN7_18*%
X224000000Y-112876000D03*
%TO.P,U1,CN7_19*%
X221460000Y-115416000D03*
%TO.P,U1,CN7_20*%
X224000000Y-115416000D03*
D15*
%TO.P,U1,CN8_1*%
X175740000Y-101700000D03*
D16*
%TO.P,U1,CN8_2*%
X178280000Y-101700000D03*
%TO.P,U1,CN8_3*%
X175740000Y-104240000D03*
%TO.P,U1,CN8_4*%
X178280000Y-104240000D03*
%TO.P,U1,CN8_5*%
X175740000Y-106780000D03*
%TO.P,U1,CN8_6*%
X178280000Y-106780000D03*
%TO.P,U1,CN8_7*%
X175740000Y-109320000D03*
%TO.P,U1,CN8_8*%
X178280000Y-109320000D03*
%TO.P,U1,CN8_9*%
X175740000Y-111860000D03*
%TO.P,U1,CN8_10*%
X178280000Y-111860000D03*
%TO.P,U1,CN8_11*%
X175740000Y-114400000D03*
%TO.P,U1,CN8_12*%
X178280000Y-114400000D03*
%TO.P,U1,CN8_13*%
X175740000Y-116940000D03*
%TO.P,U1,CN8_14*%
X178280000Y-116940000D03*
%TO.P,U1,CN8_15*%
X175740000Y-119480000D03*
%TO.P,U1,CN8_16*%
X178280000Y-119480000D03*
D15*
%TO.P,U1,CN9_1*%
X175740000Y-124560000D03*
D16*
%TO.P,U1,CN9_2*%
X178280000Y-124560000D03*
%TO.P,U1,CN9_3*%
X175740000Y-127100000D03*
%TO.P,U1,CN9_4*%
X178280000Y-127100000D03*
%TO.P,U1,CN9_5*%
X175740000Y-129640000D03*
%TO.P,U1,CN9_6*%
X178280000Y-129640000D03*
%TO.P,U1,CN9_7*%
X175740000Y-132180000D03*
%TO.P,U1,CN9_8*%
X178280000Y-132180000D03*
%TO.P,U1,CN9_9*%
X175740000Y-134720000D03*
%TO.P,U1,CN9_10*%
X178280000Y-134720000D03*
%TO.P,U1,CN9_11*%
X175740000Y-137260000D03*
%TO.P,U1,CN9_12*%
X178280000Y-137260000D03*
%TO.P,U1,CN9_13*%
X175740000Y-139800000D03*
%TO.P,U1,CN9_14*%
X178280000Y-139800000D03*
%TO.P,U1,CN9_15*%
X175740000Y-142340000D03*
%TO.P,U1,CN9_16*%
X178280000Y-142340000D03*
%TO.P,U1,CN9_17*%
X175740000Y-144880000D03*
%TO.P,U1,CN9_18*%
X178280000Y-144880000D03*
%TO.P,U1,CN9_19*%
X175740000Y-147420000D03*
%TO.P,U1,CN9_20*%
X178280000Y-147420000D03*
%TO.P,U1,CN9_21*%
X175740000Y-149960000D03*
%TO.P,U1,CN9_22*%
X178280000Y-149960000D03*
%TO.P,U1,CN9_23*%
X175740000Y-152500000D03*
%TO.P,U1,CN9_24*%
X178280000Y-152500000D03*
%TO.P,U1,CN9_25*%
X175740000Y-155040000D03*
%TO.P,U1,CN9_26*%
X178280000Y-155040000D03*
%TO.P,U1,CN9_27*%
X175740000Y-157580000D03*
%TO.P,U1,CN9_28*%
X178280000Y-157580000D03*
%TO.P,U1,CN9_29*%
X175740000Y-160120000D03*
%TO.P,U1,CN9_30*%
X178280000Y-160120000D03*
D15*
%TO.P,U1,CN10_1*%
X221460000Y-119480000D03*
D16*
%TO.P,U1,CN10_2*%
X224000000Y-119480000D03*
%TO.P,U1,CN10_3*%
X221460000Y-122020000D03*
%TO.P,U1,CN10_4*%
X224000000Y-122020000D03*
%TO.P,U1,CN10_5*%
X221460000Y-124560000D03*
%TO.P,U1,CN10_6*%
X224000000Y-124560000D03*
%TO.P,U1,CN10_7*%
X221460000Y-127100000D03*
%TO.P,U1,CN10_8*%
X224000000Y-127100000D03*
%TO.P,U1,CN10_9*%
X221460000Y-129640000D03*
%TO.P,U1,CN10_10*%
X224000000Y-129640000D03*
%TO.P,U1,CN10_11*%
X221460000Y-132180000D03*
%TO.P,U1,CN10_12*%
X224000000Y-132180000D03*
%TO.P,U1,CN10_13*%
X221460000Y-134720000D03*
%TO.P,U1,CN10_14*%
X224000000Y-134720000D03*
%TO.P,U1,CN10_15*%
X221460000Y-137260000D03*
%TO.P,U1,CN10_16*%
X224000000Y-137260000D03*
%TO.P,U1,CN10_17*%
X221460000Y-139800000D03*
%TO.P,U1,CN10_18*%
X224000000Y-139800000D03*
%TO.P,U1,CN10_19*%
X221460000Y-142340000D03*
%TO.P,U1,CN10_20*%
X224000000Y-142340000D03*
%TO.P,U1,CN10_21*%
X221460000Y-144880000D03*
%TO.P,U1,CN10_22*%
X224000000Y-144880000D03*
%TO.P,U1,CN10_23*%
X221460000Y-147420000D03*
%TO.P,U1,CN10_24*%
X224000000Y-147420000D03*
%TO.P,U1,CN10_25*%
X221460000Y-149960000D03*
%TO.P,U1,CN10_26*%
X224000000Y-149960000D03*
%TO.P,U1,CN10_27*%
X221460000Y-152500000D03*
%TO.P,U1,CN10_28*%
X224000000Y-152500000D03*
%TO.P,U1,CN10_29*%
X221460000Y-155040000D03*
%TO.P,U1,CN10_30*%
X224000000Y-155040000D03*
%TO.P,U1,CN10_31*%
X221460000Y-157580000D03*
%TO.P,U1,CN10_32*%
X224000000Y-157580000D03*
%TO.P,U1,CN10_33*%
X221460000Y-160120000D03*
%TO.P,U1,CN10_34*%
X224000000Y-160120000D03*
D15*
%TO.P,U1,CN11_1,PC10*%
%TO.N,unconnected-(U1A-PC10-PadCN11_1)*%
X168120000Y-91540000D03*
D16*
%TO.P,U1,CN11_2,PC11*%
%TO.N,unconnected-(U1A-PC11-PadCN11_2)*%
X170660000Y-91540000D03*
%TO.P,U1,CN11_3,PC12*%
%TO.N,unconnected-(U1A-PC12-PadCN11_3)*%
X168120000Y-94080000D03*
%TO.P,U1,CN11_4,PD2*%
%TO.N,unconnected-(U1A-PD2-PadCN11_4)*%
X170660000Y-94080000D03*
%TO.P,U1,CN11_5,3V3_VDD*%
%TO.N,unconnected-(U1A-3V3_VDD-PadCN11_5)*%
X168120000Y-96620000D03*
%TO.P,U1,CN11_6,5V_EXT*%
%TO.N,unconnected-(U1A-5V_EXT-PadCN11_6)*%
X170660000Y-96620000D03*
%TO.P,U1,CN11_7,BOOT0*%
%TO.N,unconnected-(U1A-BOOT0-PadCN11_7)*%
X168120000Y-99160000D03*
%TO.P,U1,CN11_8,GND_CN11*%
%TO.N,Net-(U1A-GND_CN11-PadCN11_19)*%
X170660000Y-99160000D03*
%TO.P,U1,CN11_9,PF6*%
%TO.N,unconnected-(U1A-PF6-PadCN11_9)*%
X168120000Y-101700000D03*
%TO.P,U1,CN11_10,NC*%
%TO.N,unconnected-(U1A-NC-PadCN11_10)*%
X170660000Y-101700000D03*
%TO.P,U1,CN11_11,PF7*%
%TO.N,unconnected-(U1A-PF7-PadCN11_11)*%
X168120000Y-104240000D03*
%TO.P,U1,CN11_12,IOREF*%
%TO.N,unconnected-(U1A-IOREF-PadCN11_12)*%
X170660000Y-104240000D03*
%TO.P,U1,CN11_13,PA13*%
%TO.N,unconnected-(U1A-PA13-PadCN11_13)*%
X168120000Y-106780000D03*
%TO.P,U1,CN11_14,NRST*%
%TO.N,unconnected-(U1A-NRST-PadCN11_14)*%
X170660000Y-106780000D03*
%TO.P,U1,CN11_15,PA14*%
%TO.N,unconnected-(U1A-PA14-PadCN11_15)*%
X168120000Y-109320000D03*
%TO.P,U1,CN11_16,3V3*%
%TO.N,unconnected-(U1A-3V3-PadCN11_16)*%
X170660000Y-109320000D03*
%TO.P,U1,CN11_17,PA15*%
%TO.N,unconnected-(U1A-PA15-PadCN11_17)*%
X168120000Y-111860000D03*
%TO.P,U1,CN11_18,5V*%
%TO.N,unconnected-(U1A-5V-PadCN11_18)*%
X170660000Y-111860000D03*
%TO.P,U1,CN11_19,GND_CN11*%
%TO.N,Net-(U1A-GND_CN11-PadCN11_19)*%
X168120000Y-114400000D03*
%TO.P,U1,CN11_20,GND_CN11*%
X170660000Y-114400000D03*
%TO.P,U1,CN11_21,PB7*%
%TO.N,unconnected-(U1A-PB7-PadCN11_21)*%
X168120000Y-116940000D03*
%TO.P,U1,CN11_22,GND_CN11*%
%TO.N,Net-(U1A-GND_CN11-PadCN11_19)*%
X170660000Y-116940000D03*
%TO.P,U1,CN11_23,PC13*%
%TO.N,unconnected-(U1A-PC13-PadCN11_23)*%
X168120000Y-119480000D03*
%TO.P,U1,CN11_24,VIN*%
%TO.N,unconnected-(U1A-VIN-PadCN11_24)*%
X170660000Y-119480000D03*
%TO.P,U1,CN11_25,PC14*%
%TO.N,unconnected-(U1A-PC14-PadCN11_25)*%
X168120000Y-122020000D03*
%TO.P,U1,CN11_26,NC*%
%TO.N,unconnected-(U1A-NC-PadCN11_26)*%
X170660000Y-122020000D03*
%TO.P,U1,CN11_27,PC15*%
%TO.N,unconnected-(U1A-PC15-PadCN11_27)*%
X168120000Y-124560000D03*
%TO.P,U1,CN11_28,PA0*%
%TO.N,unconnected-(U1A-PA0-PadCN11_28)*%
X170660000Y-124560000D03*
%TO.P,U1,CN11_29,PH0*%
%TO.N,unconnected-(U1A-PH0-PadCN11_29)*%
X168120000Y-127100000D03*
%TO.P,U1,CN11_30,PA1*%
%TO.N,unconnected-(U1A-PA1-PadCN11_30)*%
X170660000Y-127100000D03*
%TO.P,U1,CN11_31,PH1*%
%TO.N,unconnected-(U1A-PH1-PadCN11_31)*%
X168120000Y-129640000D03*
%TO.P,U1,CN11_32,PA4*%
%TO.N,unconnected-(U1A-PA4-PadCN11_32)*%
X170660000Y-129640000D03*
%TO.P,U1,CN11_33,VBAT*%
%TO.N,unconnected-(U1A-VBAT-PadCN11_33)*%
X168120000Y-132180000D03*
%TO.P,U1,CN11_34,PB0*%
%TO.N,unconnected-(U1A-PB0-PadCN11_34)*%
X170660000Y-132180000D03*
%TO.P,U1,CN11_35,PC2*%
%TO.N,unconnected-(U1A-PC2-PadCN11_35)*%
X168120000Y-134720000D03*
%TO.P,U1,CN11_36,PC1*%
%TO.N,unconnected-(U1A-PC1-PadCN11_36)*%
X170660000Y-134720000D03*
%TO.P,U1,CN11_37,PC3*%
%TO.N,unconnected-(U1A-PC3-PadCN11_37)*%
X168120000Y-137260000D03*
%TO.P,U1,CN11_38,PC0*%
%TO.N,unconnected-(U1A-PC0-PadCN11_38)*%
X170660000Y-137260000D03*
%TO.P,U1,CN11_39,PD4*%
%TO.N,unconnected-(U1A-PD4-PadCN11_39)*%
X168120000Y-139800000D03*
%TO.P,U1,CN11_40,PD3*%
%TO.N,unconnected-(U1A-PD3-PadCN11_40)*%
X170660000Y-139800000D03*
%TO.P,U1,CN11_41,PD5*%
%TO.N,unconnected-(U1A-PD5-PadCN11_41)*%
X168120000Y-142340000D03*
%TO.P,U1,CN11_42,PG2*%
%TO.N,unconnected-(U1A-PG2-PadCN11_42)*%
X170660000Y-142340000D03*
%TO.P,U1,CN11_43,PD6*%
%TO.N,unconnected-(U1A-PD6-PadCN11_43)*%
X168120000Y-144880000D03*
%TO.P,U1,CN11_44,PG3*%
%TO.N,unconnected-(U1A-PG3-PadCN11_44)*%
X170660000Y-144880000D03*
%TO.P,U1,CN11_45,PD7*%
%TO.N,unconnected-(U1A-PD7-PadCN11_45)*%
X168120000Y-147420000D03*
%TO.P,U1,CN11_46,PE2*%
%TO.N,unconnected-(U1A-PE2-PadCN11_46)*%
X170660000Y-147420000D03*
%TO.P,U1,CN11_47,PE3*%
%TO.N,unconnected-(U1A-PE3-PadCN11_47)*%
X168120000Y-149960000D03*
%TO.P,U1,CN11_48,PE4*%
%TO.N,unconnected-(U1A-PE4-PadCN11_48)*%
X170660000Y-149960000D03*
%TO.P,U1,CN11_49,GND_CN11*%
%TO.N,Net-(U1A-GND_CN11-PadCN11_19)*%
X168120000Y-152500000D03*
%TO.P,U1,CN11_50,PE5*%
%TO.N,unconnected-(U1A-PE5-PadCN11_50)*%
X170660000Y-152500000D03*
%TO.P,U1,CN11_51,PF1*%
%TO.N,unconnected-(U1A-PF1-PadCN11_51)*%
X168120000Y-155040000D03*
%TO.P,U1,CN11_52,PF2*%
%TO.N,unconnected-(U1A-PF2-PadCN11_52)*%
X170660000Y-155040000D03*
%TO.P,U1,CN11_53,PF0*%
%TO.N,unconnected-(U1A-PF0-PadCN11_53)*%
X168120000Y-157580000D03*
%TO.P,U1,CN11_54,PF8*%
%TO.N,unconnected-(U1A-PF8-PadCN11_54)*%
X170660000Y-157580000D03*
%TO.P,U1,CN11_55,PD1*%
%TO.N,unconnected-(U1A-PD1-PadCN11_55)*%
X168120000Y-160120000D03*
%TO.P,U1,CN11_56,PF9*%
%TO.N,unconnected-(U1A-PF9-PadCN11_56)*%
X170660000Y-160120000D03*
%TO.P,U1,CN11_57,PD0*%
%TO.N,unconnected-(U1A-PD0-PadCN11_57)*%
X168120000Y-162660000D03*
%TO.P,U1,CN11_58,PG1*%
%TO.N,unconnected-(U1A-PG1-PadCN11_58)*%
X170660000Y-162660000D03*
%TO.P,U1,CN11_59,PG0*%
%TO.N,unconnected-(U1A-PG0-PadCN11_59)*%
X168120000Y-165200000D03*
%TO.P,U1,CN11_60,GND_CN11*%
%TO.N,Net-(U1A-GND_CN11-PadCN11_19)*%
X170660000Y-165200000D03*
%TO.P,U1,CN11_61,PE1*%
%TO.N,unconnected-(U1A-PE1-PadCN11_61)*%
X168120000Y-167740000D03*
%TO.P,U1,CN11_62,PE6*%
%TO.N,unconnected-(U1A-PE6-PadCN11_62)*%
X170660000Y-167740000D03*
%TO.P,U1,CN11_63,PG9*%
%TO.N,unconnected-(U1A-PG9-PadCN11_63)*%
X168120000Y-170280000D03*
%TO.P,U1,CN11_64,PG15*%
%TO.N,unconnected-(U1A-PG15-PadCN11_64)*%
X170660000Y-170280000D03*
%TO.P,U1,CN11_65,PG12*%
%TO.N,unconnected-(U1A-PG12-PadCN11_65)*%
X168120000Y-172820000D03*
%TO.P,U1,CN11_66,PG10*%
%TO.N,unconnected-(U1A-PG10-PadCN11_66)*%
X170660000Y-172820000D03*
%TO.P,U1,CN11_67,NC*%
%TO.N,unconnected-(U1A-NC-PadCN11_67)*%
X168120000Y-175360000D03*
%TO.P,U1,CN11_68,PG13*%
%TO.N,unconnected-(U1A-PG13-PadCN11_68)*%
X170660000Y-175360000D03*
%TO.P,U1,CN11_69,PD9*%
%TO.N,unconnected-(U1A-PD9-PadCN11_69)*%
X168120000Y-177900000D03*
%TO.P,U1,CN11_70,PG11*%
%TO.N,unconnected-(U1A-PG11-PadCN11_70)*%
X170660000Y-177900000D03*
%TO.P,U1,CN11_71,GND_CN11*%
%TO.N,Net-(U1A-GND_CN11-PadCN11_19)*%
X168120000Y-180440000D03*
%TO.P,U1,CN11_72,GND_CN11*%
X170660000Y-180440000D03*
D15*
%TO.P,U1,CN12_1*%
%TO.N,N/C*%
X229080000Y-91560000D03*
D16*
%TO.P,U1,CN12_2*%
X231620000Y-91560000D03*
%TO.P,U1,CN12_3*%
X229080000Y-94100000D03*
%TO.P,U1,CN12_4*%
X231620000Y-94100000D03*
%TO.P,U1,CN12_5*%
X229080000Y-96640000D03*
%TO.P,U1,CN12_6*%
X231620000Y-96640000D03*
%TO.P,U1,CN12_7*%
X229080000Y-99180000D03*
%TO.P,U1,CN12_8*%
X231620000Y-99180000D03*
%TO.P,U1,CN12_9*%
X229080000Y-101720000D03*
%TO.P,U1,CN12_10*%
X231620000Y-101720000D03*
%TO.P,U1,CN12_11*%
X229080000Y-104260000D03*
%TO.P,U1,CN12_12*%
X231620000Y-104260000D03*
%TO.P,U1,CN12_13*%
X229080000Y-106800000D03*
%TO.P,U1,CN12_14*%
X231620000Y-106800000D03*
%TO.P,U1,CN12_15*%
X229080000Y-109340000D03*
%TO.P,U1,CN12_16*%
X231620000Y-109340000D03*
%TO.P,U1,CN12_17*%
X229080000Y-111880000D03*
%TO.P,U1,CN12_18*%
X231620000Y-111880000D03*
%TO.P,U1,CN12_19*%
X229080000Y-114420000D03*
%TO.P,U1,CN12_20*%
X231620000Y-114420000D03*
%TO.P,U1,CN12_21*%
X229080000Y-116960000D03*
%TO.P,U1,CN12_22*%
X231620000Y-116960000D03*
%TO.P,U1,CN12_23*%
X229080000Y-119500000D03*
%TO.P,U1,CN12_24*%
X231620000Y-119500000D03*
%TO.P,U1,CN12_25*%
X229080000Y-122040000D03*
%TO.P,U1,CN12_26*%
X231620000Y-122040000D03*
%TO.P,U1,CN12_27*%
X229080000Y-124580000D03*
%TO.P,U1,CN12_28*%
X231620000Y-124580000D03*
%TO.P,U1,CN12_29*%
X229080000Y-127120000D03*
%TO.P,U1,CN12_30*%
X231620000Y-127120000D03*
%TO.P,U1,CN12_31*%
X229080000Y-129660000D03*
%TO.P,U1,CN12_32*%
X231620000Y-129660000D03*
%TO.P,U1,CN12_33*%
X229080000Y-132200000D03*
%TO.P,U1,CN12_34*%
X231620000Y-132200000D03*
%TO.P,U1,CN12_35*%
X229080000Y-134740000D03*
%TO.P,U1,CN12_36*%
X231620000Y-134740000D03*
%TO.P,U1,CN12_37*%
X229080000Y-137280000D03*
%TO.P,U1,CN12_38*%
X231620000Y-137280000D03*
%TO.P,U1,CN12_39*%
X229080000Y-139820000D03*
%TO.P,U1,CN12_40*%
X231620000Y-139820000D03*
%TO.P,U1,CN12_41*%
X229080000Y-142360000D03*
%TO.P,U1,CN12_42*%
X231620000Y-142360000D03*
%TO.P,U1,CN12_43*%
X229080000Y-144900000D03*
%TO.P,U1,CN12_44*%
X231620000Y-144900000D03*
%TO.P,U1,CN12_45*%
X229080000Y-147440000D03*
%TO.P,U1,CN12_46*%
X231620000Y-147440000D03*
%TO.P,U1,CN12_47*%
X229080000Y-149980000D03*
%TO.P,U1,CN12_48*%
X231620000Y-149980000D03*
%TO.P,U1,CN12_49*%
X229080000Y-152520000D03*
%TO.P,U1,CN12_50*%
X231620000Y-152520000D03*
%TO.P,U1,CN12_51*%
X229080000Y-155060000D03*
%TO.P,U1,CN12_52*%
X231620000Y-155060000D03*
%TO.P,U1,CN12_53*%
X229080000Y-157600000D03*
%TO.P,U1,CN12_54*%
X231620000Y-157600000D03*
%TO.P,U1,CN12_55*%
X229080000Y-160140000D03*
%TO.P,U1,CN12_56*%
X231620000Y-160140000D03*
%TO.P,U1,CN12_57*%
X229080000Y-162680000D03*
%TO.P,U1,CN12_58*%
X231620000Y-162680000D03*
%TO.P,U1,CN12_59*%
X229080000Y-165220000D03*
%TO.P,U1,CN12_60*%
X231620000Y-165220000D03*
%TO.P,U1,CN12_61*%
X229080000Y-167760000D03*
%TO.P,U1,CN12_62*%
X231620000Y-167760000D03*
%TO.P,U1,CN12_63*%
X229080000Y-170300000D03*
%TO.P,U1,CN12_64*%
X231620000Y-170300000D03*
%TO.P,U1,CN12_65*%
X229080000Y-172840000D03*
%TO.P,U1,CN12_66*%
X231620000Y-172840000D03*
%TO.P,U1,CN12_67*%
X229080000Y-175380000D03*
%TO.P,U1,CN12_68*%
X231620000Y-175380000D03*
%TO.P,U1,CN12_69*%
X229080000Y-177920000D03*
%TO.P,U1,CN12_70*%
X231620000Y-177920000D03*
%TO.P,U1,CN12_71*%
X229080000Y-180460000D03*
%TO.P,U1,CN12_72*%
X231620000Y-180460000D03*
%TD*%
D17*
%TO.P,U6,1,GND*%
%TO.N,unconnected-(U6-GND-Pad1)*%
X527285300Y-180950000D03*
%TO.P,U6,2,CSB*%
%TO.N,unconnected-(U6-CSB-Pad2)*%
X527935300Y-180950000D03*
%TO.P,U6,3,SDI*%
%TO.N,unconnected-(U6-SDI-Pad3)*%
X528585300Y-180950000D03*
%TO.P,U6,4,SCK*%
%TO.N,I2C1_SCL_TDM*%
X529235300Y-180950000D03*
%TO.P,U6,5,SDO*%
%TO.N,I2C1_SDA_TDM*%
X529235300Y-183000000D03*
%TO.P,U6,6,VDDIO*%
%TO.N,unconnected-(U6-VDDIO-Pad6)*%
X528585300Y-183000000D03*
%TO.P,U6,7,GND*%
%TO.N,GND*%
X527935300Y-183000000D03*
%TO.P,U6,8,VDD*%
%TO.N,VDD_TDM*%
X527285300Y-183000000D03*
%TD*%
D18*
%TO.P,J9,1,Pin_1*%
%TO.N,Net-(J2-Pin_1)*%
X321000000Y-91460000D03*
D19*
%TO.P,J9,2,Pin_2*%
%TO.N,Net-(J2-Pin_2)*%
X321000000Y-94000000D03*
%TO.P,J9,3,Pin_3*%
%TO.N,Net-(J2-Pin_3)*%
X321000000Y-96540000D03*
%TO.P,J9,4,Pin_4*%
%TO.N,Net-(J2-Pin_4)*%
X321000000Y-99080000D03*
%TO.P,J9,5,Pin_5*%
%TO.N,Net-(J2-Pin_5)*%
X321000000Y-101620000D03*
%TO.P,J9,6,Pin_6*%
%TO.N,Net-(J2-Pin_6)*%
X321000000Y-104160000D03*
%TO.P,J9,7,Pin_7*%
%TO.N,Net-(J2-Pin_7)*%
X321000000Y-106700000D03*
%TO.P,J9,8,Pin_8*%
%TO.N,Net-(J2-Pin_8)*%
X321000000Y-109240000D03*
%TO.P,J9,9,Pin_9*%
%TO.N,Net-(J2-Pin_9)*%
X321000000Y-111780000D03*
%TO.P,J9,10,Pin_10*%
%TO.N,IOT37A_PMOD1.8*%
X321000000Y-114320000D03*
%TO.P,J9,11,Pin_11*%
%TO.N,IOT37B_PMOD1.7*%
X321000000Y-116860000D03*
%TO.P,J9,12,Pin_12*%
%TO.N,unconnected-(J9-Pin_12-Pad12)*%
X321000000Y-119400000D03*
%TO.P,J9,13,Pin_13*%
%TO.N,unconnected-(J9-Pin_13-Pad13)*%
X321000000Y-121940000D03*
%TO.P,J9,14,Pin_14*%
%TO.N,unconnected-(J9-Pin_14-Pad14)*%
X321000000Y-124480000D03*
%TO.P,J9,15,Pin_15*%
%TO.N,unconnected-(J9-Pin_15-Pad15)*%
X321000000Y-127020000D03*
%TO.P,J9,16,Pin_16*%
%TO.N,unconnected-(J9-Pin_16-Pad16)*%
X321000000Y-129560000D03*
%TO.P,J9,17,Pin_17*%
%TO.N,unconnected-(J9-Pin_17-Pad17)*%
X321000000Y-132100000D03*
%TO.P,J9,18,Pin_18*%
%TO.N,5V_ACM*%
X321000000Y-134640000D03*
%TO.P,J9,19,Pin_19*%
%TO.N,IOR24B_PMOD1.6*%
X321000000Y-137180000D03*
%TO.P,J9,20,Pin_20*%
%TO.N,IOR24A_PMOD1.5*%
X321000000Y-139720000D03*
%TO.P,J9,21,Pin_21*%
%TO.N,IOB15A_PMOD4.2*%
X321000000Y-142260000D03*
%TO.P,J9,22,Pin_22*%
%TO.N,IOB15B_PMOD4.1*%
X321000000Y-144800000D03*
%TO.P,J9,23,Pin_23*%
%TO.N,GND*%
X321000000Y-147340000D03*
%TO.P,J9,24,Pin_24*%
%TO.N,3V3_ACM*%
X321000000Y-149880000D03*
%TD*%
D10*
%TO.P,R10,1*%
%TO.N,Net-(D1-A)*%
X545720043Y-160000000D03*
%TO.P,R10,2*%
%TO.N,5V_TDM*%
X547720043Y-160000000D03*
%TD*%
D11*
%TO.P,D4,1,K*%
%TO.N,GND*%
X504360000Y-143500000D03*
D12*
%TO.P,D4,2,A*%
%TO.N,Net-(D4-A)*%
X504360000Y-146700000D03*
%TO.P,D4,3*%
%TO.N,N/C*%
X505760000Y-143500000D03*
%TO.P,D4,4*%
X505760000Y-146700000D03*
%TD*%
D18*
%TO.P,J1,1,Pin_1*%
%TO.N,IOB31B_PMOD1.4*%
X289000000Y-91500000D03*
D19*
%TO.P,J1,2,Pin_2*%
%TO.N,IOB31A_PMOD1.3*%
X289000000Y-94040000D03*
%TO.P,J1,3,Pin_3*%
%TO.N,IOB29B_PMOD1.2*%
X289000000Y-96580000D03*
%TO.P,J1,4,Pin_4*%
%TO.N,IOB33A_PMOD1.1*%
X289000000Y-99120000D03*
%TO.P,J1,5,Pin_5*%
%TO.N,IOB8A_PMOD2.4*%
X289000000Y-101660000D03*
%TO.P,J1,6,Pin_6*%
%TO.N,IOB8B_PMOD2.3*%
X289000000Y-104200000D03*
%TO.P,J1,7,Pin_7*%
%TO.N,IOB11A_PMOD2.2*%
X289000000Y-106740000D03*
%TO.P,J1,8,Pin_8*%
%TO.N,IOB11B_PMOD2.1*%
X289000000Y-109280000D03*
%TO.P,J1,9,Pin_9*%
%TO.N,IOB13A_PMOD2.8*%
X289000000Y-111820000D03*
%TO.P,J1,10,Pin_10*%
%TO.N,IOB13B_PMOD2.7*%
X289000000Y-114360000D03*
%TO.P,J1,11,Pin_11*%
%TO.N,IOB23A_PMOD2.6*%
X289000000Y-116900000D03*
%TO.P,J1,12,Pin_12*%
%TO.N,IOB23B_PMOD2.5*%
X289000000Y-119440000D03*
%TO.P,J1,13,Pin_13*%
%TO.N,IOB33B_PMOD3.4*%
X289000000Y-121980000D03*
%TO.P,J1,14,Pin_14*%
%TO.N,IOB29A_PMOD3.3*%
X289000000Y-124520000D03*
%TO.P,J1,15,Pin_15*%
%TO.N,IOB41A_PMOD3.2*%
X289000000Y-127060000D03*
%TO.P,J1,16,Pin_16*%
%TO.N,IOB41B_PMOD3.1*%
X289000000Y-129600000D03*
%TO.P,J1,17,Pin_17*%
%TO.N,IOR17B_PMOD3.8*%
X289000000Y-132140000D03*
%TO.P,J1,18,Pin_18*%
%TO.N,IOR15B_PMOD3.7*%
X289000000Y-134680000D03*
%TO.P,J1,19,Pin_19*%
%TO.N,IOR15A_PMOD3.6*%
X289000000Y-137220000D03*
%TO.P,J1,20,Pin_20*%
%TO.N,IOR14B_PMOD3.5*%
X289000000Y-139760000D03*
%TO.P,J1,21,Pin_21*%
%TO.N,IOR14A_PMOD4.4*%
X289000000Y-142300000D03*
%TO.P,J1,22,Pin_22*%
%TO.N,IOR13A_PMOD4.3*%
X289000000Y-144840000D03*
%TO.P,J1,23,Pin_23*%
%TO.N,unconnected-(J1-Pin_23-Pad23)*%
X289000000Y-147380000D03*
%TO.P,J1,24,Pin_24*%
%TO.N,unconnected-(J1-Pin_24-Pad24)*%
X289000000Y-149920000D03*
%TD*%
D10*
%TO.P,R18,1*%
%TO.N,Net-(D3-A)*%
X512009914Y-162050000D03*
%TO.P,R18,2*%
%TO.N,LEDFAIL_TDM*%
X514009914Y-162050000D03*
%TD*%
D18*
%TO.P,J8,1,Pin_1*%
%TO.N,IOB31B_PMOD1.4*%
X280000000Y-91500000D03*
D19*
%TO.P,J8,2,Pin_2*%
%TO.N,IOB31A_PMOD1.3*%
X280000000Y-94040000D03*
%TO.P,J8,3,Pin_3*%
%TO.N,IOB29B_PMOD1.2*%
X280000000Y-96580000D03*
%TO.P,J8,4,Pin_4*%
%TO.N,IOB33A_PMOD1.1*%
X280000000Y-99120000D03*
%TO.P,J8,5,Pin_5*%
%TO.N,IOB8A_PMOD2.4*%
X280000000Y-101660000D03*
%TO.P,J8,6,Pin_6*%
%TO.N,IOB8B_PMOD2.3*%
X280000000Y-104200000D03*
%TO.P,J8,7,Pin_7*%
%TO.N,IOB11A_PMOD2.2*%
X280000000Y-106740000D03*
%TO.P,J8,8,Pin_8*%
%TO.N,IOB11B_PMOD2.1*%
X280000000Y-109280000D03*
%TO.P,J8,9,Pin_9*%
%TO.N,IOB13A_PMOD2.8*%
X280000000Y-111820000D03*
%TO.P,J8,10,Pin_10*%
%TO.N,IOB13B_PMOD2.7*%
X280000000Y-114360000D03*
%TO.P,J8,11,Pin_11*%
%TO.N,IOB23A_PMOD2.6*%
X280000000Y-116900000D03*
%TO.P,J8,12,Pin_12*%
%TO.N,IOB23B_PMOD2.5*%
X280000000Y-119440000D03*
%TO.P,J8,13,Pin_13*%
%TO.N,IOB33B_PMOD3.4*%
X280000000Y-121980000D03*
%TO.P,J8,14,Pin_14*%
%TO.N,IOB29A_PMOD3.3*%
X280000000Y-124520000D03*
%TO.P,J8,15,Pin_15*%
%TO.N,IOB41A_PMOD3.2*%
X280000000Y-127060000D03*
%TO.P,J8,16,Pin_16*%
%TO.N,IOB41B_PMOD3.1*%
X280000000Y-129600000D03*
%TO.P,J8,17,Pin_17*%
%TO.N,IOR17B_PMOD3.8*%
X280000000Y-132140000D03*
%TO.P,J8,18,Pin_18*%
%TO.N,IOR15B_PMOD3.7*%
X280000000Y-134680000D03*
%TO.P,J8,19,Pin_19*%
%TO.N,IOR15A_PMOD3.6*%
X280000000Y-137220000D03*
%TO.P,J8,20,Pin_20*%
%TO.N,IOR14B_PMOD3.5*%
X280000000Y-139760000D03*
%TO.P,J8,21,Pin_21*%
%TO.N,IOR14A_PMOD4.4*%
X280000000Y-142300000D03*
%TO.P,J8,22,Pin_22*%
%TO.N,IOR13A_PMOD4.3*%
X280000000Y-144840000D03*
%TO.P,J8,23,Pin_23*%
%TO.N,unconnected-(J8-Pin_23-Pad23)*%
X280000000Y-147380000D03*
%TO.P,J8,24,Pin_24*%
%TO.N,unconnected-(J8-Pin_24-Pad24)*%
X280000000Y-149920000D03*
%TD*%
D10*
%TO.P,R15,1*%
%TO.N,Net-(D4-A)*%
X514809871Y-153200000D03*
%TO.P,R15,2*%
%TO.N,VDD_TDM*%
X516809871Y-153200000D03*
%TD*%
D11*
%TO.P,D3,1,K*%
%TO.N,GND*%
X500105086Y-143500000D03*
D12*
%TO.P,D3,2,A*%
%TO.N,Net-(D3-A)*%
X500105086Y-146700000D03*
%TO.P,D3,3*%
%TO.N,N/C*%
X501505086Y-143500000D03*
%TO.P,D3,4*%
X501505086Y-146700000D03*
%TD*%
D18*
%TO.P,J2,1,Pin_1*%
%TO.N,Net-(J2-Pin_1)*%
X312000000Y-91500000D03*
D19*
%TO.P,J2,2,Pin_2*%
%TO.N,Net-(J2-Pin_2)*%
X312000000Y-94040000D03*
%TO.P,J2,3,Pin_3*%
%TO.N,Net-(J2-Pin_3)*%
X312000000Y-96580000D03*
%TO.P,J2,4,Pin_4*%
%TO.N,Net-(J2-Pin_4)*%
X312000000Y-99120000D03*
%TO.P,J2,5,Pin_5*%
%TO.N,Net-(J2-Pin_5)*%
X312000000Y-101660000D03*
%TO.P,J2,6,Pin_6*%
%TO.N,Net-(J2-Pin_6)*%
X312000000Y-104200000D03*
%TO.P,J2,7,Pin_7*%
%TO.N,Net-(J2-Pin_7)*%
X312000000Y-106740000D03*
%TO.P,J2,8,Pin_8*%
%TO.N,Net-(J2-Pin_8)*%
X312000000Y-109280000D03*
%TO.P,J2,9,Pin_9*%
%TO.N,Net-(J2-Pin_9)*%
X312000000Y-111820000D03*
%TO.P,J2,10,Pin_10*%
%TO.N,IOT37A_PMOD1.8*%
X312000000Y-114360000D03*
%TO.P,J2,11,Pin_11*%
%TO.N,IOT37B_PMOD1.7*%
X312000000Y-116900000D03*
%TO.P,J2,12,Pin_12*%
%TO.N,unconnected-(J2-Pin_12-Pad12)*%
X312000000Y-119440000D03*
%TO.P,J2,13,Pin_13*%
%TO.N,unconnected-(J2-Pin_13-Pad13)*%
X312000000Y-121980000D03*
%TO.P,J2,14,Pin_14*%
%TO.N,unconnected-(J2-Pin_14-Pad14)*%
X312000000Y-124520000D03*
%TO.P,J2,15,Pin_15*%
%TO.N,unconnected-(J2-Pin_15-Pad15)*%
X312000000Y-127060000D03*
%TO.P,J2,16,Pin_16*%
%TO.N,unconnected-(J2-Pin_16-Pad16)*%
X312000000Y-129600000D03*
%TO.P,J2,17,Pin_17*%
%TO.N,unconnected-(J2-Pin_17-Pad17)*%
X312000000Y-132140000D03*
%TO.P,J2,18,Pin_18*%
%TO.N,5V_ACM*%
X312000000Y-134680000D03*
%TO.P,J2,19,Pin_19*%
%TO.N,IOR24B_PMOD1.6*%
X312000000Y-137220000D03*
%TO.P,J2,20,Pin_20*%
%TO.N,IOR24A_PMOD1.5*%
X312000000Y-139760000D03*
%TO.P,J2,21,Pin_21*%
%TO.N,IOB15A_PMOD4.2*%
X312000000Y-142300000D03*
%TO.P,J2,22,Pin_22*%
%TO.N,IOB15B_PMOD4.1*%
X312000000Y-144840000D03*
%TO.P,J2,23,Pin_23*%
%TO.N,GND*%
X312000000Y-147380000D03*
%TO.P,J2,24,Pin_24*%
%TO.N,3V3_ACM*%
X312000000Y-149920000D03*
%TD*%
D20*
%TO.P,U9,CN5_1*%
%TO.N,N/C*%
X547240000Y-110880000D03*
D21*
%TO.P,U9,CN5_2*%
X547240000Y-108340000D03*
%TO.P,U9,CN5_3*%
X547240000Y-105800000D03*
%TO.P,U9,CN5_4*%
X547240000Y-103260000D03*
%TO.P,U9,CN5_5*%
X547240000Y-100720000D03*
%TO.P,U9,CN5_6*%
X547240000Y-98180000D03*
%TO.P,U9,CN5_7*%
X547240000Y-95640000D03*
%TO.P,U9,CN5_8*%
X547240000Y-93100000D03*
%TO.P,U9,CN5_9*%
X547240000Y-90560000D03*
%TO.P,U9,CN5_10*%
X547240000Y-88020000D03*
D20*
%TO.P,U9,CN6_1*%
X498980000Y-97160000D03*
D21*
%TO.P,U9,CN6_2*%
X498980000Y-99700000D03*
%TO.P,U9,CN6_3*%
X498980000Y-102240000D03*
%TO.P,U9,CN6_4*%
X498980000Y-104780000D03*
%TO.P,U9,CN6_5*%
X498980000Y-107320000D03*
%TO.P,U9,CN6_6*%
X498980000Y-109860000D03*
%TO.P,U9,CN6_7*%
X498980000Y-112400000D03*
%TO.P,U9,CN6_8*%
X498980000Y-114940000D03*
D22*
%TO.P,U9,CN7_1*%
X491360000Y-87000000D03*
D23*
%TO.P,U9,CN7_2*%
X493900000Y-87000000D03*
%TO.P,U9,CN7_3*%
X491360000Y-89540000D03*
%TO.P,U9,CN7_4*%
X493900000Y-89540000D03*
%TO.P,U9,CN7_5*%
X491360000Y-92080000D03*
%TO.P,U9,CN7_6*%
X493900000Y-92080000D03*
%TO.P,U9,CN7_7*%
X491360000Y-94620000D03*
%TO.P,U9,CN7_8*%
X493900000Y-94620000D03*
%TO.P,U9,CN7_9*%
X491360000Y-97160000D03*
%TO.P,U9,CN7_10*%
X493900000Y-97160000D03*
%TO.P,U9,CN7_11*%
X491360000Y-99700000D03*
%TO.P,U9,CN7_12*%
X493900000Y-99700000D03*
%TO.P,U9,CN7_13*%
X491360000Y-102240000D03*
%TO.P,U9,CN7_14*%
X493900000Y-102240000D03*
%TO.P,U9,CN7_15*%
X491360000Y-104780000D03*
%TO.P,U9,CN7_16*%
X493900000Y-104780000D03*
%TO.P,U9,CN7_17*%
X491360000Y-107320000D03*
%TO.P,U9,CN7_18*%
X493900000Y-107320000D03*
%TO.P,U9,CN7_19*%
X491360000Y-109860000D03*
%TO.P,U9,CN7_20*%
X493900000Y-109860000D03*
%TO.P,U9,CN7_21*%
X491360000Y-112400000D03*
%TO.P,U9,CN7_22*%
X493900000Y-112400000D03*
%TO.P,U9,CN7_23*%
X491360000Y-114940000D03*
%TO.P,U9,CN7_24*%
X493900000Y-114940000D03*
%TO.P,U9,CN7_25*%
X491360000Y-117480000D03*
%TO.P,U9,CN7_26*%
X493900000Y-117480000D03*
%TO.P,U9,CN7_27*%
X491360000Y-120020000D03*
%TO.P,U9,CN7_28*%
X493900000Y-120020000D03*
%TO.P,U9,CN7_29*%
X491360000Y-122560000D03*
%TO.P,U9,CN7_30*%
X493900000Y-122560000D03*
%TO.P,U9,CN7_31*%
X491360000Y-125100000D03*
%TO.P,U9,CN7_32*%
X493900000Y-125100000D03*
%TO.P,U9,CN7_33*%
X491360000Y-127640000D03*
%TO.P,U9,CN7_34*%
X493900000Y-127640000D03*
%TO.P,U9,CN7_35*%
X491360000Y-130180000D03*
%TO.P,U9,CN7_36*%
X493900000Y-130180000D03*
%TO.P,U9,CN7_37*%
X491360000Y-132720000D03*
%TO.P,U9,CN7_38*%
X493900000Y-132720000D03*
D20*
%TO.P,U9,CN8_1*%
X498980000Y-120020000D03*
D21*
%TO.P,U9,CN8_2*%
X498980000Y-122560000D03*
%TO.P,U9,CN8_3*%
X498980000Y-125100000D03*
%TO.P,U9,CN8_4*%
X498980000Y-127640000D03*
%TO.P,U9,CN8_5*%
X498980000Y-130180000D03*
%TO.P,U9,CN8_6*%
X498980000Y-132720000D03*
D20*
%TO.P,U9,CN9_1*%
X547240000Y-132720000D03*
D21*
%TO.P,U9,CN9_2*%
X547240000Y-130180000D03*
%TO.P,U9,CN9_3*%
X547240000Y-127640000D03*
%TO.P,U9,CN9_4*%
X547240000Y-125100000D03*
%TO.P,U9,CN9_5*%
X547240000Y-122560000D03*
%TO.P,U9,CN9_6*%
X547240000Y-120020000D03*
%TO.P,U9,CN9_7*%
X547240000Y-117480000D03*
%TO.P,U9,CN9_8*%
X547240000Y-114940000D03*
D22*
%TO.P,U9,CN10_1,PC9*%
%TO.N,unconnected-(U9B-PC9-PadCN10_1)*%
X552320000Y-87000000D03*
D23*
%TO.P,U9,CN10_2,PC8*%
%TO.N,unconnected-(U9B-PC8-PadCN10_2)*%
X554860000Y-87000000D03*
%TO.P,U9,CN10_3,PB8*%
%TO.N,I2C1_SCL_TDM*%
X552320000Y-89540000D03*
%TO.P,U9,CN10_4,PC6*%
%TO.N,unconnected-(U9B-PC6-PadCN10_4)*%
X554860000Y-89540000D03*
%TO.P,U9,CN10_5,PB9*%
%TO.N,I2C1_SDA_TDM*%
X552320000Y-92080000D03*
%TO.P,U9,CN10_6,PC5*%
%TO.N,LEDFAIL_TDM*%
X554860000Y-92080000D03*
%TO.P,U9,CN10_7,AVDD*%
%TO.N,unconnected-(U9B-AVDD-PadCN10_7)*%
X552320000Y-94620000D03*
%TO.P,U9,CN10_8,U5V*%
%TO.N,5V_TDM*%
X554860000Y-94620000D03*
%TO.P,U9,CN10_9,CN10_GND*%
%TO.N,GND*%
X552320000Y-97160000D03*
%TO.P,U9,CN10_10*%
%TO.N,N/C*%
X554860000Y-97160000D03*
%TO.P,U9,CN10_11,PA5*%
%TO.N,LEDOK_TDM*%
X552320000Y-99700000D03*
%TO.P,U9,CN10_12,PA12*%
%TO.N,unconnected-(U9B-PA12-PadCN10_12)*%
X554860000Y-99700000D03*
%TO.P,U9,CN10_13,PA6*%
%TO.N,unconnected-(U9B-PA6-PadCN10_13)*%
X552320000Y-102240000D03*
%TO.P,U9,CN10_14,PA11*%
%TO.N,unconnected-(U9B-PA11-PadCN10_14)*%
X554860000Y-102240000D03*
%TO.P,U9,CN10_15,PA7*%
%TO.N,unconnected-(U9B-PA7-PadCN10_15)*%
X552320000Y-104780000D03*
%TO.P,U9,CN10_16,PB12*%
%TO.N,unconnected-(U9B-PB12-PadCN10_16)*%
X554860000Y-104780000D03*
%TO.P,U9,CN10_17,PB6*%
%TO.N,unconnected-(U9B-PB6-PadCN10_17)*%
X552320000Y-107320000D03*
%TO.P,U9,CN10_18*%
%TO.N,N/C*%
X554860000Y-107320000D03*
%TO.P,U9,CN10_19,PC7*%
%TO.N,unconnected-(U9B-PC7-PadCN10_19)*%
X552320000Y-109860000D03*
%TO.P,U9,CN10_20,CN10_GND*%
%TO.N,GND*%
X554860000Y-109860000D03*
%TO.P,U9,CN10_21,PA9*%
%TO.N,unconnected-(U9B-PA9-PadCN10_21)*%
X552320000Y-112400000D03*
%TO.P,U9,CN10_22,PB2*%
%TO.N,unconnected-(U9B-PB2-PadCN10_22)*%
X554860000Y-112400000D03*
%TO.P,U9,CN10_23,PA8*%
%TO.N,unconnected-(U9B-PA8-PadCN10_23)*%
X552320000Y-114940000D03*
%TO.P,U9,CN10_24,PB1*%
%TO.N,unconnected-(U9B-PB1-PadCN10_24)*%
X554860000Y-114940000D03*
%TO.P,U9,CN10_25,PB10*%
%TO.N,unconnected-(U9B-PB10-PadCN10_25)*%
X552320000Y-117480000D03*
%TO.P,U9,CN10_26,PB15*%
%TO.N,unconnected-(U9B-PB15-PadCN10_26)*%
X554860000Y-117480000D03*
%TO.P,U9,CN10_27,PB4*%
%TO.N,unconnected-(U9B-PB4-PadCN10_27)*%
X552320000Y-120020000D03*
%TO.P,U9,CN10_28,PB14*%
%TO.N,unconnected-(U9B-PB14-PadCN10_28)*%
X554860000Y-120020000D03*
%TO.P,U9,CN10_29,PB5*%
%TO.N,unconnected-(U9B-PB5-PadCN10_29)*%
X552320000Y-122560000D03*
%TO.P,U9,CN10_30,PB13*%
%TO.N,unconnected-(U9B-PB13-PadCN10_30)*%
X554860000Y-122560000D03*
%TO.P,U9,CN10_31,PB3*%
%TO.N,unconnected-(U9B-PB3-PadCN10_31)*%
X552320000Y-125100000D03*
%TO.P,U9,CN10_32,AGND*%
%TO.N,unconnected-(U9B-AGND-PadCN10_32)*%
X554860000Y-125100000D03*
%TO.P,U9,CN10_33,PA10*%
%TO.N,unconnected-(U9B-PA10-PadCN10_33)*%
X552320000Y-127640000D03*
%TO.P,U9,CN10_34,PC4*%
%TO.N,LEDWARN_TDM*%
X554860000Y-127640000D03*
%TO.P,U9,CN10_35,PA2*%
%TO.N,unconnected-(U9B-PA2-PadCN10_35)*%
X552320000Y-130180000D03*
%TO.P,U9,CN10_36*%
%TO.N,N/C*%
X554860000Y-130180000D03*
%TO.P,U9,CN10_37,PA3*%
%TO.N,unconnected-(U9B-PA3-PadCN10_37)*%
X552320000Y-132720000D03*
%TO.P,U9,CN10_38*%
%TO.N,N/C*%
X554860000Y-132720000D03*
%TD*%
D18*
%TO.P,U4,1,PB12*%
%TO.N,unconnected-(U4-PB12-Pad1)*%
X41550000Y-74500000D03*
D19*
%TO.P,U4,2,PB13*%
%TO.N,unconnected-(U4-PB13-Pad2)*%
X44090000Y-74500000D03*
%TO.P,U4,3,PB14*%
%TO.N,unconnected-(U4-PB14-Pad3)*%
X46630000Y-74500000D03*
%TO.P,U4,4,PB15*%
%TO.N,unconnected-(U4-PB15-Pad4)*%
X49170000Y-74500000D03*
%TO.P,U4,5,PA8*%
%TO.N,unconnected-(U4-PA8-Pad5)*%
X51710000Y-74500000D03*
%TO.P,U4,6,PA9*%
%TO.N,unconnected-(U4-PA9-Pad6)*%
X54250000Y-74500000D03*
%TO.P,U4,7,PA10*%
%TO.N,unconnected-(U4-PA10-Pad7)*%
X56790000Y-74500000D03*
%TO.P,U4,8,PA11*%
%TO.N,unconnected-(U4-PA11-Pad8)*%
X59330000Y-74500000D03*
%TO.P,U4,9,PA12*%
%TO.N,unconnected-(U4-PA12-Pad9)*%
X61870000Y-74500000D03*
%TO.P,U4,10,PA15*%
%TO.N,unconnected-(U4-PA15-Pad10)*%
X64410000Y-74500000D03*
%TO.P,U4,11,PB3*%
%TO.N,unconnected-(U4-PB3-Pad11)*%
X66950000Y-74500000D03*
%TO.P,U4,12,PB4*%
%TO.N,unconnected-(U4-PB4-Pad12)*%
X69490000Y-74500000D03*
%TO.P,U4,13,PB5*%
%TO.N,unconnected-(U4-PB5-Pad13)*%
X72030000Y-74500000D03*
%TO.P,U4,14,PB6*%
%TO.N,unconnected-(U4-PB6-Pad14)*%
X74570000Y-74500000D03*
%TO.P,U4,15,PB7*%
%TO.N,unconnected-(U4-PB7-Pad15)*%
X77110000Y-74500000D03*
%TO.P,U4,16,PB8*%
%TO.N,unconnected-(U4-PB8-Pad16)*%
X79650000Y-74500000D03*
%TO.P,U4,17,PB9*%
%TO.N,unconnected-(U4-PB9-Pad17)*%
X82190000Y-74500000D03*
%TO.P,U4,18,5V*%
%TO.N,unconnected-(U4-5V-Pad18)*%
X84730000Y-74500000D03*
%TO.P,U4,19,GND*%
%TO.N,unconnected-(U4-GND-Pad19)*%
X87270000Y-74500000D03*
%TO.P,U4,20,3V3*%
%TO.N,unconnected-(U4-3V3-Pad20)*%
X89810000Y-74500000D03*
%TO.P,U4,21,VBat*%
%TO.N,unconnected-(U4-VBat-Pad21)*%
X89810000Y-59260000D03*
%TO.P,U4,22,PC13*%
%TO.N,unconnected-(U4-PC13-Pad22)*%
X87270000Y-59260000D03*
%TO.P,U4,23,PC14*%
%TO.N,unconnected-(U4-PC14-Pad23)*%
X84730000Y-59260000D03*
%TO.P,U4,24,PC15*%
%TO.N,unconnected-(U4-PC15-Pad24)*%
X82190000Y-59260000D03*
%TO.P,U4,25,PA0*%
%TO.N,unconnected-(U4-PA0-Pad25)*%
X79650000Y-59260000D03*
%TO.P,U4,26,PA1*%
%TO.N,unconnected-(U4-PA1-Pad26)*%
X77110000Y-59260000D03*
%TO.P,U4,27,PA2*%
%TO.N,unconnected-(U4-PA2-Pad27)*%
X74570000Y-59260000D03*
%TO.P,U4,28,PA3*%
%TO.N,unconnected-(U4-PA3-Pad28)*%
X72030000Y-59260000D03*
%TO.P,U4,29,PA4*%
%TO.N,unconnected-(U4-PA4-Pad29)*%
X69490000Y-59260000D03*
%TO.P,U4,30,PA5*%
%TO.N,unconnected-(U4-PA5-Pad30)*%
X66950000Y-59260000D03*
%TO.P,U4,31,PA6*%
%TO.N,unconnected-(U4-PA6-Pad31)*%
X64410000Y-59260000D03*
%TO.P,U4,32,PA7*%
%TO.N,unconnected-(U4-PA7-Pad32)*%
X61870000Y-59260000D03*
%TO.P,U4,33,PB0*%
%TO.N,unconnected-(U4-PB0-Pad33)*%
X59330000Y-59260000D03*
%TO.P,U4,34,PB1*%
%TO.N,unconnected-(U4-PB1-Pad34)*%
X56790000Y-59260000D03*
%TO.P,U4,35,PB10*%
%TO.N,unconnected-(U4-PB10-Pad35)*%
X54250000Y-59260000D03*
%TO.P,U4,36,PB11*%
%TO.N,unconnected-(U4-PB11-Pad36)*%
X51710000Y-59260000D03*
%TO.P,U4,37,RST*%
%TO.N,unconnected-(U4-RST-Pad37)*%
X49170000Y-59260000D03*
%TO.P,U4,38,3V3*%
%TO.N,unconnected-(U4-3V3-Pad38)*%
X46630000Y-59260000D03*
%TO.P,U4,39,GND*%
%TO.N,unconnected-(U4-GND-Pad39)*%
X44090000Y-59260000D03*
%TO.P,U4,40,GND*%
%TO.N,unconnected-(U4-GND-Pad40)*%
X41550000Y-59260000D03*
%TO.P,U4,41*%
%TO.N,N/C*%
X85999000Y-63068000D03*
%TO.P,U4,42*%
X85999000Y-65608000D03*
%TO.P,U4,43*%
X85999000Y-68148000D03*
%TO.P,U4,44*%
X85999000Y-70688000D03*
%TD*%
D20*
%TO.P,U3,CN5_1*%
%TO.N,N/C*%
X98880000Y-155160000D03*
D21*
%TO.P,U3,CN5_2*%
X98880000Y-152620000D03*
%TO.P,U3,CN5_3*%
X98880000Y-150080000D03*
%TO.P,U3,CN5_4*%
X98880000Y-147540000D03*
%TO.P,U3,CN5_5*%
X98880000Y-145000000D03*
%TO.P,U3,CN5_6*%
X98880000Y-142460000D03*
%TO.P,U3,CN5_7*%
X98880000Y-139920000D03*
%TO.P,U3,CN5_8*%
X98880000Y-137380000D03*
%TO.P,U3,CN5_9*%
X98880000Y-134840000D03*
%TO.P,U3,CN5_10*%
X98880000Y-132300000D03*
D20*
%TO.P,U3,CN6_1*%
X50620000Y-141440000D03*
D21*
%TO.P,U3,CN6_2*%
X50620000Y-143980000D03*
%TO.P,U3,CN6_3*%
X50620000Y-146520000D03*
%TO.P,U3,CN6_4*%
X50620000Y-149060000D03*
%TO.P,U3,CN6_5*%
X50620000Y-151600000D03*
%TO.P,U3,CN6_6*%
X50620000Y-154140000D03*
%TO.P,U3,CN6_7*%
X50620000Y-156680000D03*
%TO.P,U3,CN6_8*%
X50620000Y-159220000D03*
D22*
%TO.P,U3,CN7_1*%
X43000000Y-131280000D03*
D23*
%TO.P,U3,CN7_2*%
X45540000Y-131280000D03*
%TO.P,U3,CN7_3*%
X43000000Y-133820000D03*
%TO.P,U3,CN7_4*%
X45540000Y-133820000D03*
%TO.P,U3,CN7_5*%
X43000000Y-136360000D03*
%TO.P,U3,CN7_6*%
X45540000Y-136360000D03*
%TO.P,U3,CN7_7*%
X43000000Y-138900000D03*
%TO.P,U3,CN7_8*%
X45540000Y-138900000D03*
%TO.P,U3,CN7_9*%
X43000000Y-141440000D03*
%TO.P,U3,CN7_10*%
X45540000Y-141440000D03*
%TO.P,U3,CN7_11*%
X43000000Y-143980000D03*
%TO.P,U3,CN7_12*%
X45540000Y-143980000D03*
%TO.P,U3,CN7_13*%
X43000000Y-146520000D03*
%TO.P,U3,CN7_14*%
X45540000Y-146520000D03*
%TO.P,U3,CN7_15*%
X43000000Y-149060000D03*
%TO.P,U3,CN7_16*%
X45540000Y-149060000D03*
%TO.P,U3,CN7_17*%
X43000000Y-151600000D03*
%TO.P,U3,CN7_18*%
X45540000Y-151600000D03*
%TO.P,U3,CN7_19*%
X43000000Y-154140000D03*
%TO.P,U3,CN7_20*%
X45540000Y-154140000D03*
%TO.P,U3,CN7_21*%
X43000000Y-156680000D03*
%TO.P,U3,CN7_22*%
X45540000Y-156680000D03*
%TO.P,U3,CN7_23*%
X43000000Y-159220000D03*
%TO.P,U3,CN7_24*%
X45540000Y-159220000D03*
%TO.P,U3,CN7_25*%
X43000000Y-161760000D03*
%TO.P,U3,CN7_26*%
X45540000Y-161760000D03*
%TO.P,U3,CN7_27*%
X43000000Y-164300000D03*
%TO.P,U3,CN7_28*%
X45540000Y-164300000D03*
%TO.P,U3,CN7_29*%
X43000000Y-166840000D03*
%TO.P,U3,CN7_30*%
X45540000Y-166840000D03*
%TO.P,U3,CN7_31*%
X43000000Y-169380000D03*
%TO.P,U3,CN7_32*%
X45540000Y-169380000D03*
%TO.P,U3,CN7_33*%
X43000000Y-171920000D03*
%TO.P,U3,CN7_34*%
X45540000Y-171920000D03*
%TO.P,U3,CN7_35*%
X43000000Y-174460000D03*
%TO.P,U3,CN7_36*%
X45540000Y-174460000D03*
%TO.P,U3,CN7_37*%
X43000000Y-177000000D03*
%TO.P,U3,CN7_38*%
X45540000Y-177000000D03*
D20*
%TO.P,U3,CN8_1*%
X50620000Y-164300000D03*
D21*
%TO.P,U3,CN8_2*%
X50620000Y-166840000D03*
%TO.P,U3,CN8_3*%
X50620000Y-169380000D03*
%TO.P,U3,CN8_4*%
X50620000Y-171920000D03*
%TO.P,U3,CN8_5*%
X50620000Y-174460000D03*
%TO.P,U3,CN8_6*%
X50620000Y-177000000D03*
D20*
%TO.P,U3,CN9_1*%
X98880000Y-177000000D03*
D21*
%TO.P,U3,CN9_2*%
X98880000Y-174460000D03*
%TO.P,U3,CN9_3*%
X98880000Y-171920000D03*
%TO.P,U3,CN9_4*%
X98880000Y-169380000D03*
%TO.P,U3,CN9_5*%
X98880000Y-166840000D03*
%TO.P,U3,CN9_6*%
X98880000Y-164300000D03*
%TO.P,U3,CN9_7*%
X98880000Y-161760000D03*
%TO.P,U3,CN9_8*%
X98880000Y-159220000D03*
D22*
%TO.P,U3,CN10_1,PC9*%
%TO.N,unconnected-(U3B-PC9-PadCN10_1)*%
X103960000Y-131280000D03*
D23*
%TO.P,U3,CN10_2,PC8*%
%TO.N,unconnected-(U3B-PC8-PadCN10_2)*%
X106500000Y-131280000D03*
%TO.P,U3,CN10_3,PB8*%
%TO.N,unconnected-(U3B-PB8-PadCN10_3)*%
X103960000Y-133820000D03*
%TO.P,U3,CN10_4,PC6*%
%TO.N,unconnected-(U3B-PC6-PadCN10_4)*%
X106500000Y-133820000D03*
%TO.P,U3,CN10_5,PB9*%
%TO.N,unconnected-(U3B-PB9-PadCN10_5)*%
X103960000Y-136360000D03*
%TO.P,U3,CN10_6,PC5*%
%TO.N,unconnected-(U3B-PC5-PadCN10_6)*%
X106500000Y-136360000D03*
%TO.P,U3,CN10_7,AVDD*%
%TO.N,unconnected-(U3B-AVDD-PadCN10_7)*%
X103960000Y-138900000D03*
%TO.P,U3,CN10_8,U5V*%
%TO.N,unconnected-(U3B-U5V-PadCN10_8)*%
X106500000Y-138900000D03*
%TO.P,U3,CN10_9,GND_S2*%
%TO.N,Net-(U3B-GND_S2-PadCN10_20)*%
X103960000Y-141440000D03*
%TO.P,U3,CN10_10*%
%TO.N,N/C*%
X106500000Y-141440000D03*
%TO.P,U3,CN10_11,PA5*%
%TO.N,unconnected-(U3B-PA5-PadCN10_11)*%
X103960000Y-143980000D03*
%TO.P,U3,CN10_12,PA12*%
%TO.N,unconnected-(U3B-PA12-PadCN10_12)*%
X106500000Y-143980000D03*
%TO.P,U3,CN10_13,PA6*%
%TO.N,unconnected-(U3B-PA6-PadCN10_13)*%
X103960000Y-146520000D03*
%TO.P,U3,CN10_14,PA11*%
%TO.N,unconnected-(U3B-PA11-PadCN10_14)*%
X106500000Y-146520000D03*
%TO.P,U3,CN10_15,PA7*%
%TO.N,unconnected-(U3B-PA7-PadCN10_15)*%
X103960000Y-149060000D03*
%TO.P,U3,CN10_16,PB12*%
%TO.N,unconnected-(U3B-PB12-PadCN10_16)*%
X106500000Y-149060000D03*
%TO.P,U3,CN10_17,PB6*%
%TO.N,unconnected-(U3B-PB6-PadCN10_17)*%
X103960000Y-151600000D03*
%TO.P,U3,CN10_18,PB11*%
%TO.N,unconnected-(U3B-PB11-PadCN10_18)*%
X106500000Y-151600000D03*
%TO.P,U3,CN10_19,PC7*%
%TO.N,unconnected-(U3B-PC7-PadCN10_19)*%
X103960000Y-154140000D03*
%TO.P,U3,CN10_20,GND_S2*%
%TO.N,Net-(U3B-GND_S2-PadCN10_20)*%
X106500000Y-154140000D03*
%TO.P,U3,CN10_21,PA9*%
%TO.N,unconnected-(U3B-PA9-PadCN10_21)*%
X103960000Y-156680000D03*
%TO.P,U3,CN10_22,PB2*%
%TO.N,unconnected-(U3B-PB2-PadCN10_22)*%
X106500000Y-156680000D03*
%TO.P,U3,CN10_23,PA8*%
%TO.N,unconnected-(U3B-PA8-PadCN10_23)*%
X103960000Y-159220000D03*
%TO.P,U3,CN10_24,PB1*%
%TO.N,unconnected-(U3B-PB1-PadCN10_24)*%
X106500000Y-159220000D03*
%TO.P,U3,CN10_25,PB10*%
%TO.N,unconnected-(U3B-PB10-PadCN10_25)*%
X103960000Y-161760000D03*
%TO.P,U3,CN10_26,PB15*%
%TO.N,unconnected-(U3B-PB15-PadCN10_26)*%
X106500000Y-161760000D03*
%TO.P,U3,CN10_27,PB4*%
%TO.N,unconnected-(U3B-PB4-PadCN10_27)*%
X103960000Y-164300000D03*
%TO.P,U3,CN10_28,PB14*%
%TO.N,unconnected-(U3B-PB14-PadCN10_28)*%
X106500000Y-164300000D03*
%TO.P,U3,CN10_29,PB5*%
%TO.N,unconnected-(U3B-PB5-PadCN10_29)*%
X103960000Y-166840000D03*
%TO.P,U3,CN10_30,PB13*%
%TO.N,unconnected-(U3B-PB13-PadCN10_30)*%
X106500000Y-166840000D03*
%TO.P,U3,CN10_31,PB3*%
%TO.N,unconnected-(U3B-PB3-PadCN10_31)*%
X103960000Y-169380000D03*
%TO.P,U3,CN10_32,AGND*%
%TO.N,unconnected-(U3B-AGND-PadCN10_32)*%
X106500000Y-169380000D03*
%TO.P,U3,CN10_33,PA10*%
%TO.N,unconnected-(U3B-PA10-PadCN10_33)*%
X103960000Y-171920000D03*
%TO.P,U3,CN10_34,PC4*%
%TO.N,unconnected-(U3B-PC4-PadCN10_34)*%
X106500000Y-171920000D03*
%TO.P,U3,CN10_35,PA2*%
%TO.N,unconnected-(U3B-PA2-PadCN10_35)*%
X103960000Y-174460000D03*
%TO.P,U3,CN10_36*%
%TO.N,N/C*%
X106500000Y-174460000D03*
%TO.P,U3,CN10_37,PA3*%
%TO.N,unconnected-(U3B-PA3-PadCN10_37)*%
X103960000Y-177000000D03*
%TO.P,U3,CN10_38*%
%TO.N,N/C*%
X106500000Y-177000000D03*
%TD*%
D11*
%TO.P,D1,1,K*%
%TO.N,GND*%
X491660000Y-143400000D03*
D12*
%TO.P,D1,2,A*%
%TO.N,Net-(D1-A)*%
X491660000Y-146600000D03*
%TO.P,D1,3*%
%TO.N,N/C*%
X493060000Y-143400000D03*
%TO.P,D1,4*%
X493060000Y-146600000D03*
%TD*%
D24*
%TO.P,U5,1,A0*%
%TO.N,GND*%
X551997800Y-174095000D03*
%TO.P,U5,2,A1*%
X551997800Y-175365000D03*
%TO.P,U5,3,A2*%
X551997800Y-176635000D03*
%TO.P,U5,4,VSS*%
X551997800Y-177905000D03*
%TO.P,U5,5,SDA*%
%TO.N,I2C1_SDA_TDM*%
X556722200Y-177905000D03*
%TO.P,U5,6,SCL*%
%TO.N,I2C1_SCL_TDM*%
X556722200Y-176635000D03*
%TO.P,U5,7,WP*%
%TO.N,unconnected-(U5-WP-Pad7)*%
X556722200Y-175365000D03*
%TO.P,U5,8,VCC*%
%TO.N,VDD_TDM*%
X556722200Y-174095000D03*
%TD*%
%TO.P,U8,1,A0*%
%TO.N,GND*%
X517725429Y-159184600D03*
%TO.P,U8,2,A1*%
X517725429Y-160454600D03*
%TO.P,U8,3,A2*%
X517725429Y-161724600D03*
%TO.P,U8,4,VSS*%
X517725429Y-162994600D03*
%TO.P,U8,5,SDA*%
%TO.N,I2C1_SDA_TDM*%
X522449829Y-162994600D03*
%TO.P,U8,6,SCL*%
%TO.N,I2C1_SCL_TDM*%
X522449829Y-161724600D03*
%TO.P,U8,7,WP*%
%TO.N,unconnected-(U8-WP-Pad7)*%
X522449829Y-160454600D03*
%TO.P,U8,8,VCC*%
%TO.N,VDD_TDM*%
X522449829Y-159184600D03*
%TD*%
D15*
%TO.P,U2,CN7_1*%
%TO.N,N/C*%
X421960000Y-92856000D03*
D16*
%TO.P,U2,CN7_2*%
X424500000Y-92856000D03*
%TO.P,U2,CN7_3*%
X421960000Y-95396000D03*
%TO.P,U2,CN7_4*%
X424500000Y-95396000D03*
%TO.P,U2,CN7_5*%
X421960000Y-97936000D03*
%TO.P,U2,CN7_6*%
X424500000Y-97936000D03*
%TO.P,U2,CN7_7*%
X421960000Y-100476000D03*
%TO.P,U2,CN7_8*%
X424500000Y-100476000D03*
%TO.P,U2,CN7_9*%
X421960000Y-103016000D03*
%TO.P,U2,CN7_10*%
X424500000Y-103016000D03*
%TO.P,U2,CN7_11*%
X421960000Y-105556000D03*
%TO.P,U2,CN7_12*%
X424500000Y-105556000D03*
%TO.P,U2,CN7_13*%
X421960000Y-108096000D03*
%TO.P,U2,CN7_14*%
X424500000Y-108096000D03*
%TO.P,U2,CN7_15*%
X421960000Y-110636000D03*
%TO.P,U2,CN7_16*%
X424500000Y-110636000D03*
%TO.P,U2,CN7_17*%
X421960000Y-113176000D03*
%TO.P,U2,CN7_18*%
X424500000Y-113176000D03*
%TO.P,U2,CN7_19*%
X421960000Y-115716000D03*
%TO.P,U2,CN7_20*%
X424500000Y-115716000D03*
D15*
%TO.P,U2,CN8_1*%
X376240000Y-102000000D03*
D16*
%TO.P,U2,CN8_2*%
X378780000Y-102000000D03*
%TO.P,U2,CN8_3*%
X376240000Y-104540000D03*
%TO.P,U2,CN8_4*%
X378780000Y-104540000D03*
%TO.P,U2,CN8_5*%
X376240000Y-107080000D03*
%TO.P,U2,CN8_6*%
X378780000Y-107080000D03*
%TO.P,U2,CN8_7*%
X376240000Y-109620000D03*
%TO.P,U2,CN8_8*%
X378780000Y-109620000D03*
%TO.P,U2,CN8_9*%
X376240000Y-112160000D03*
%TO.P,U2,CN8_10*%
X378780000Y-112160000D03*
%TO.P,U2,CN8_11*%
X376240000Y-114700000D03*
%TO.P,U2,CN8_12*%
X378780000Y-114700000D03*
%TO.P,U2,CN8_13*%
X376240000Y-117240000D03*
%TO.P,U2,CN8_14*%
X378780000Y-117240000D03*
%TO.P,U2,CN8_15*%
X376240000Y-119780000D03*
%TO.P,U2,CN8_16*%
X378780000Y-119780000D03*
D15*
%TO.P,U2,CN9_1*%
X376240000Y-124860000D03*
D16*
%TO.P,U2,CN9_2*%
X378780000Y-124860000D03*
%TO.P,U2,CN9_3*%
X376240000Y-127400000D03*
%TO.P,U2,CN9_4*%
X378780000Y-127400000D03*
%TO.P,U2,CN9_5*%
X376240000Y-129940000D03*
%TO.P,U2,CN9_6*%
X378780000Y-129940000D03*
%TO.P,U2,CN9_7*%
X376240000Y-132480000D03*
%TO.P,U2,CN9_8*%
X378780000Y-132480000D03*
%TO.P,U2,CN9_9*%
X376240000Y-135020000D03*
%TO.P,U2,CN9_10*%
X378780000Y-135020000D03*
%TO.P,U2,CN9_11*%
X376240000Y-137560000D03*
%TO.P,U2,CN9_12*%
X378780000Y-137560000D03*
%TO.P,U2,CN9_13*%
X376240000Y-140100000D03*
%TO.P,U2,CN9_14*%
X378780000Y-140100000D03*
%TO.P,U2,CN9_15*%
X376240000Y-142640000D03*
%TO.P,U2,CN9_16*%
X378780000Y-142640000D03*
%TO.P,U2,CN9_17*%
X376240000Y-145180000D03*
%TO.P,U2,CN9_18*%
X378780000Y-145180000D03*
%TO.P,U2,CN9_19*%
X376240000Y-147720000D03*
%TO.P,U2,CN9_20*%
X378780000Y-147720000D03*
%TO.P,U2,CN9_21*%
X376240000Y-150260000D03*
%TO.P,U2,CN9_22*%
X378780000Y-150260000D03*
%TO.P,U2,CN9_23*%
X376240000Y-152800000D03*
%TO.P,U2,CN9_24*%
X378780000Y-152800000D03*
%TO.P,U2,CN9_25*%
X376240000Y-155340000D03*
%TO.P,U2,CN9_26*%
X378780000Y-155340000D03*
%TO.P,U2,CN9_27*%
X376240000Y-157880000D03*
%TO.P,U2,CN9_28*%
X378780000Y-157880000D03*
%TO.P,U2,CN9_29*%
X376240000Y-160420000D03*
%TO.P,U2,CN9_30*%
X378780000Y-160420000D03*
D15*
%TO.P,U2,CN10_1*%
X421960000Y-119780000D03*
D16*
%TO.P,U2,CN10_2*%
X424500000Y-119780000D03*
%TO.P,U2,CN10_3*%
X421960000Y-122320000D03*
%TO.P,U2,CN10_4*%
X424500000Y-122320000D03*
%TO.P,U2,CN10_5*%
X421960000Y-124860000D03*
%TO.P,U2,CN10_6*%
X424500000Y-124860000D03*
%TO.P,U2,CN10_7*%
X421960000Y-127400000D03*
%TO.P,U2,CN10_8*%
X424500000Y-127400000D03*
%TO.P,U2,CN10_9*%
X421960000Y-129940000D03*
%TO.P,U2,CN10_10*%
X424500000Y-129940000D03*
%TO.P,U2,CN10_11*%
X421960000Y-132480000D03*
%TO.P,U2,CN10_12*%
X424500000Y-132480000D03*
%TO.P,U2,CN10_13*%
X421960000Y-135020000D03*
%TO.P,U2,CN10_14*%
X424500000Y-135020000D03*
%TO.P,U2,CN10_15*%
X421960000Y-137560000D03*
%TO.P,U2,CN10_16*%
X424500000Y-137560000D03*
%TO.P,U2,CN10_17*%
X421960000Y-140100000D03*
%TO.P,U2,CN10_18*%
X424500000Y-140100000D03*
%TO.P,U2,CN10_19*%
X421960000Y-142640000D03*
%TO.P,U2,CN10_20*%
X424500000Y-142640000D03*
%TO.P,U2,CN10_21*%
X421960000Y-145180000D03*
%TO.P,U2,CN10_22*%
X424500000Y-145180000D03*
%TO.P,U2,CN10_23*%
X421960000Y-147720000D03*
%TO.P,U2,CN10_24*%
X424500000Y-147720000D03*
%TO.P,U2,CN10_25*%
X421960000Y-150260000D03*
%TO.P,U2,CN10_26*%
X424500000Y-150260000D03*
%TO.P,U2,CN10_27*%
X421960000Y-152800000D03*
%TO.P,U2,CN10_28*%
X424500000Y-152800000D03*
%TO.P,U2,CN10_29*%
X421960000Y-155340000D03*
%TO.P,U2,CN10_30*%
X424500000Y-155340000D03*
%TO.P,U2,CN10_31*%
X421960000Y-157880000D03*
%TO.P,U2,CN10_32*%
X424500000Y-157880000D03*
%TO.P,U2,CN10_33*%
X421960000Y-160420000D03*
%TO.P,U2,CN10_34*%
X424500000Y-160420000D03*
D15*
%TO.P,U2,CN11_1,PC10*%
%TO.N,unconnected-(U2A-PC10-PadCN11_1)*%
X368620000Y-91840000D03*
D16*
%TO.P,U2,CN11_2,PC11*%
%TO.N,unconnected-(U2A-PC11-PadCN11_2)*%
X371160000Y-91840000D03*
%TO.P,U2,CN11_3,PC12*%
%TO.N,unconnected-(U2A-PC12-PadCN11_3)*%
X368620000Y-94380000D03*
%TO.P,U2,CN11_4,PD2*%
%TO.N,unconnected-(U2A-PD2-PadCN11_4)*%
X371160000Y-94380000D03*
%TO.P,U2,CN11_5,3V3_VDD*%
%TO.N,unconnected-(U2A-3V3_VDD-PadCN11_5)*%
X368620000Y-96920000D03*
%TO.P,U2,CN11_6,5V_EXT*%
%TO.N,unconnected-(U2A-5V_EXT-PadCN11_6)*%
X371160000Y-96920000D03*
%TO.P,U2,CN11_7,BOOT0*%
%TO.N,unconnected-(U2A-BOOT0-PadCN11_7)*%
X368620000Y-99460000D03*
%TO.P,U2,CN11_8,GND_CN11*%
%TO.N,Net-(U2A-GND_CN11-PadCN11_19)*%
X371160000Y-99460000D03*
%TO.P,U2,CN11_9,PF6*%
%TO.N,unconnected-(U2A-PF6-PadCN11_9)*%
X368620000Y-102000000D03*
%TO.P,U2,CN11_10,NC*%
%TO.N,unconnected-(U2A-NC-PadCN11_10)*%
X371160000Y-102000000D03*
%TO.P,U2,CN11_11,PF7*%
%TO.N,unconnected-(U2A-PF7-PadCN11_11)*%
X368620000Y-104540000D03*
%TO.P,U2,CN11_12,IOREF*%
%TO.N,unconnected-(U2A-IOREF-PadCN11_12)*%
X371160000Y-104540000D03*
%TO.P,U2,CN11_13,PA13*%
%TO.N,unconnected-(U2A-PA13-PadCN11_13)*%
X368620000Y-107080000D03*
%TO.P,U2,CN11_14,NRST*%
%TO.N,unconnected-(U2A-NRST-PadCN11_14)*%
X371160000Y-107080000D03*
%TO.P,U2,CN11_15,PA14*%
%TO.N,unconnected-(U2A-PA14-PadCN11_15)*%
X368620000Y-109620000D03*
%TO.P,U2,CN11_16,3V3*%
%TO.N,unconnected-(U2A-3V3-PadCN11_16)*%
X371160000Y-109620000D03*
%TO.P,U2,CN11_17,PA15*%
%TO.N,unconnected-(U2A-PA15-PadCN11_17)*%
X368620000Y-112160000D03*
%TO.P,U2,CN11_18,5V*%
%TO.N,unconnected-(U2A-5V-PadCN11_18)*%
X371160000Y-112160000D03*
%TO.P,U2,CN11_19,GND_CN11*%
%TO.N,Net-(U2A-GND_CN11-PadCN11_19)*%
X368620000Y-114700000D03*
%TO.P,U2,CN11_20,GND_CN11*%
X371160000Y-114700000D03*
%TO.P,U2,CN11_21,PB7*%
%TO.N,unconnected-(U2A-PB7-PadCN11_21)*%
X368620000Y-117240000D03*
%TO.P,U2,CN11_22,GND_CN11*%
%TO.N,Net-(U2A-GND_CN11-PadCN11_19)*%
X371160000Y-117240000D03*
%TO.P,U2,CN11_23,PC13*%
%TO.N,unconnected-(U2A-PC13-PadCN11_23)*%
X368620000Y-119780000D03*
%TO.P,U2,CN11_24,VIN*%
%TO.N,unconnected-(U2A-VIN-PadCN11_24)*%
X371160000Y-119780000D03*
%TO.P,U2,CN11_25,PC14*%
%TO.N,unconnected-(U2A-PC14-PadCN11_25)*%
X368620000Y-122320000D03*
%TO.P,U2,CN11_26,NC*%
%TO.N,unconnected-(U2A-NC-PadCN11_26)*%
X371160000Y-122320000D03*
%TO.P,U2,CN11_27,PC15*%
%TO.N,unconnected-(U2A-PC15-PadCN11_27)*%
X368620000Y-124860000D03*
%TO.P,U2,CN11_28,PA0*%
%TO.N,unconnected-(U2A-PA0-PadCN11_28)*%
X371160000Y-124860000D03*
%TO.P,U2,CN11_29,PH0*%
%TO.N,unconnected-(U2A-PH0-PadCN11_29)*%
X368620000Y-127400000D03*
%TO.P,U2,CN11_30,PA1*%
%TO.N,unconnected-(U2A-PA1-PadCN11_30)*%
X371160000Y-127400000D03*
%TO.P,U2,CN11_31,PH1*%
%TO.N,unconnected-(U2A-PH1-PadCN11_31)*%
X368620000Y-129940000D03*
%TO.P,U2,CN11_32,PA4*%
%TO.N,unconnected-(U2A-PA4-PadCN11_32)*%
X371160000Y-129940000D03*
%TO.P,U2,CN11_33,VBAT*%
%TO.N,unconnected-(U2A-VBAT-PadCN11_33)*%
X368620000Y-132480000D03*
%TO.P,U2,CN11_34,PB0*%
%TO.N,unconnected-(U2A-PB0-PadCN11_34)*%
X371160000Y-132480000D03*
%TO.P,U2,CN11_35,PC2*%
%TO.N,unconnected-(U2A-PC2-PadCN11_35)*%
X368620000Y-135020000D03*
%TO.P,U2,CN11_36,PC1*%
%TO.N,unconnected-(U2A-PC1-PadCN11_36)*%
X371160000Y-135020000D03*
%TO.P,U2,CN11_37,PC3*%
%TO.N,unconnected-(U2A-PC3-PadCN11_37)*%
X368620000Y-137560000D03*
%TO.P,U2,CN11_38,PC0*%
%TO.N,unconnected-(U2A-PC0-PadCN11_38)*%
X371160000Y-137560000D03*
%TO.P,U2,CN11_39,PD4*%
%TO.N,unconnected-(U2A-PD4-PadCN11_39)*%
X368620000Y-140100000D03*
%TO.P,U2,CN11_40,PD3*%
%TO.N,unconnected-(U2A-PD3-PadCN11_40)*%
X371160000Y-140100000D03*
%TO.P,U2,CN11_41,PD5*%
%TO.N,unconnected-(U2A-PD5-PadCN11_41)*%
X368620000Y-142640000D03*
%TO.P,U2,CN11_42,PG2*%
%TO.N,unconnected-(U2A-PG2-PadCN11_42)*%
X371160000Y-142640000D03*
%TO.P,U2,CN11_43,PD6*%
%TO.N,unconnected-(U2A-PD6-PadCN11_43)*%
X368620000Y-145180000D03*
%TO.P,U2,CN11_44,PG3*%
%TO.N,unconnected-(U2A-PG3-PadCN11_44)*%
X371160000Y-145180000D03*
%TO.P,U2,CN11_45,PD7*%
%TO.N,unconnected-(U2A-PD7-PadCN11_45)*%
X368620000Y-147720000D03*
%TO.P,U2,CN11_46,PE2*%
%TO.N,unconnected-(U2A-PE2-PadCN11_46)*%
X371160000Y-147720000D03*
%TO.P,U2,CN11_47,PE3*%
%TO.N,unconnected-(U2A-PE3-PadCN11_47)*%
X368620000Y-150260000D03*
%TO.P,U2,CN11_48,PE4*%
%TO.N,unconnected-(U2A-PE4-PadCN11_48)*%
X371160000Y-150260000D03*
%TO.P,U2,CN11_49,GND_CN11*%
%TO.N,Net-(U2A-GND_CN11-PadCN11_19)*%
X368620000Y-152800000D03*
%TO.P,U2,CN11_50,PE5*%
%TO.N,unconnected-(U2A-PE5-PadCN11_50)*%
X371160000Y-152800000D03*
%TO.P,U2,CN11_51,PF1*%
%TO.N,unconnected-(U2A-PF1-PadCN11_51)*%
X368620000Y-155340000D03*
%TO.P,U2,CN11_52,PF2*%
%TO.N,unconnected-(U2A-PF2-PadCN11_52)*%
X371160000Y-155340000D03*
%TO.P,U2,CN11_53,PF0*%
%TO.N,unconnected-(U2A-PF0-PadCN11_53)*%
X368620000Y-157880000D03*
%TO.P,U2,CN11_54,PF8*%
%TO.N,unconnected-(U2A-PF8-PadCN11_54)*%
X371160000Y-157880000D03*
%TO.P,U2,CN11_55,PD1*%
%TO.N,unconnected-(U2A-PD1-PadCN11_55)*%
X368620000Y-160420000D03*
%TO.P,U2,CN11_56,PF9*%
%TO.N,unconnected-(U2A-PF9-PadCN11_56)*%
X371160000Y-160420000D03*
%TO.P,U2,CN11_57,PD0*%
%TO.N,unconnected-(U2A-PD0-PadCN11_57)*%
X368620000Y-162960000D03*
%TO.P,U2,CN11_58,PG1*%
%TO.N,unconnected-(U2A-PG1-PadCN11_58)*%
X371160000Y-162960000D03*
%TO.P,U2,CN11_59,PG0*%
%TO.N,unconnected-(U2A-PG0-PadCN11_59)*%
X368620000Y-165500000D03*
%TO.P,U2,CN11_60,GND_CN11*%
%TO.N,Net-(U2A-GND_CN11-PadCN11_19)*%
X371160000Y-165500000D03*
%TO.P,U2,CN11_61,PE1*%
%TO.N,unconnected-(U2A-PE1-PadCN11_61)*%
X368620000Y-168040000D03*
%TO.P,U2,CN11_62,PE6*%
%TO.N,unconnected-(U2A-PE6-PadCN11_62)*%
X371160000Y-168040000D03*
%TO.P,U2,CN11_63,PG9*%
%TO.N,unconnected-(U2A-PG9-PadCN11_63)*%
X368620000Y-170580000D03*
%TO.P,U2,CN11_64,PG15*%
%TO.N,unconnected-(U2A-PG15-PadCN11_64)*%
X371160000Y-170580000D03*
%TO.P,U2,CN11_65,PG12*%
%TO.N,unconnected-(U2A-PG12-PadCN11_65)*%
X368620000Y-173120000D03*
%TO.P,U2,CN11_66,PG10*%
%TO.N,unconnected-(U2A-PG10-PadCN11_66)*%
X371160000Y-173120000D03*
%TO.P,U2,CN11_67,NC*%
%TO.N,unconnected-(U2A-NC-PadCN11_67)*%
X368620000Y-175660000D03*
%TO.P,U2,CN11_68,PG13*%
%TO.N,unconnected-(U2A-PG13-PadCN11_68)*%
X371160000Y-175660000D03*
%TO.P,U2,CN11_69,PD9*%
%TO.N,unconnected-(U2A-PD9-PadCN11_69)*%
X368620000Y-178200000D03*
%TO.P,U2,CN11_70,PG11*%
%TO.N,unconnected-(U2A-PG11-PadCN11_70)*%
X371160000Y-178200000D03*
%TO.P,U2,CN11_71,GND_CN11*%
%TO.N,Net-(U2A-GND_CN11-PadCN11_19)*%
X368620000Y-180740000D03*
%TO.P,U2,CN11_72,GND_CN11*%
X371160000Y-180740000D03*
D15*
%TO.P,U2,CN12_1*%
%TO.N,N/C*%
X429580000Y-91860000D03*
D16*
%TO.P,U2,CN12_2*%
X432120000Y-91860000D03*
%TO.P,U2,CN12_3*%
X429580000Y-94400000D03*
%TO.P,U2,CN12_4*%
X432120000Y-94400000D03*
%TO.P,U2,CN12_5*%
X429580000Y-96940000D03*
%TO.P,U2,CN12_6*%
X432120000Y-96940000D03*
%TO.P,U2,CN12_7*%
X429580000Y-99480000D03*
%TO.P,U2,CN12_8*%
X432120000Y-99480000D03*
%TO.P,U2,CN12_9*%
X429580000Y-102020000D03*
%TO.P,U2,CN12_10*%
X432120000Y-102020000D03*
%TO.P,U2,CN12_11*%
X429580000Y-104560000D03*
%TO.P,U2,CN12_12*%
X432120000Y-104560000D03*
%TO.P,U2,CN12_13*%
X429580000Y-107100000D03*
%TO.P,U2,CN12_14*%
X432120000Y-107100000D03*
%TO.P,U2,CN12_15*%
X429580000Y-109640000D03*
%TO.P,U2,CN12_16*%
X432120000Y-109640000D03*
%TO.P,U2,CN12_17*%
X429580000Y-112180000D03*
%TO.P,U2,CN12_18*%
X432120000Y-112180000D03*
%TO.P,U2,CN12_19*%
X429580000Y-114720000D03*
%TO.P,U2,CN12_20*%
X432120000Y-114720000D03*
%TO.P,U2,CN12_21*%
X429580000Y-117260000D03*
%TO.P,U2,CN12_22*%
X432120000Y-117260000D03*
%TO.P,U2,CN12_23*%
X429580000Y-119800000D03*
%TO.P,U2,CN12_24*%
X432120000Y-119800000D03*
%TO.P,U2,CN12_25*%
X429580000Y-122340000D03*
%TO.P,U2,CN12_26*%
X432120000Y-122340000D03*
%TO.P,U2,CN12_27*%
X429580000Y-124880000D03*
%TO.P,U2,CN12_28*%
X432120000Y-124880000D03*
%TO.P,U2,CN12_29*%
X429580000Y-127420000D03*
%TO.P,U2,CN12_30*%
X432120000Y-127420000D03*
%TO.P,U2,CN12_31*%
X429580000Y-129960000D03*
%TO.P,U2,CN12_32*%
X432120000Y-129960000D03*
%TO.P,U2,CN12_33*%
X429580000Y-132500000D03*
%TO.P,U2,CN12_34*%
X432120000Y-132500000D03*
%TO.P,U2,CN12_35*%
X429580000Y-135040000D03*
%TO.P,U2,CN12_36*%
X432120000Y-135040000D03*
%TO.P,U2,CN12_37*%
X429580000Y-137580000D03*
%TO.P,U2,CN12_38*%
X432120000Y-137580000D03*
%TO.P,U2,CN12_39*%
X429580000Y-140120000D03*
%TO.P,U2,CN12_40*%
X432120000Y-140120000D03*
%TO.P,U2,CN12_41*%
X429580000Y-142660000D03*
%TO.P,U2,CN12_42*%
X432120000Y-142660000D03*
%TO.P,U2,CN12_43*%
X429580000Y-145200000D03*
%TO.P,U2,CN12_44*%
X432120000Y-145200000D03*
%TO.P,U2,CN12_45*%
X429580000Y-147740000D03*
%TO.P,U2,CN12_46*%
X432120000Y-147740000D03*
%TO.P,U2,CN12_47*%
X429580000Y-150280000D03*
%TO.P,U2,CN12_48*%
X432120000Y-150280000D03*
%TO.P,U2,CN12_49*%
X429580000Y-152820000D03*
%TO.P,U2,CN12_50*%
X432120000Y-152820000D03*
%TO.P,U2,CN12_51*%
X429580000Y-155360000D03*
%TO.P,U2,CN12_52*%
X432120000Y-155360000D03*
%TO.P,U2,CN12_53*%
X429580000Y-157900000D03*
%TO.P,U2,CN12_54*%
X432120000Y-157900000D03*
%TO.P,U2,CN12_55*%
X429580000Y-160440000D03*
%TO.P,U2,CN12_56*%
X432120000Y-160440000D03*
%TO.P,U2,CN12_57*%
X429580000Y-162980000D03*
%TO.P,U2,CN12_58*%
X432120000Y-162980000D03*
%TO.P,U2,CN12_59*%
X429580000Y-165520000D03*
%TO.P,U2,CN12_60*%
X432120000Y-165520000D03*
%TO.P,U2,CN12_61*%
X429580000Y-168060000D03*
%TO.P,U2,CN12_62*%
X432120000Y-168060000D03*
%TO.P,U2,CN12_63*%
X429580000Y-170600000D03*
%TO.P,U2,CN12_64*%
X432120000Y-170600000D03*
%TO.P,U2,CN12_65*%
X429580000Y-173140000D03*
%TO.P,U2,CN12_66*%
X432120000Y-173140000D03*
%TO.P,U2,CN12_67*%
X429580000Y-175680000D03*
%TO.P,U2,CN12_68*%
X432120000Y-175680000D03*
%TO.P,U2,CN12_69*%
X429580000Y-178220000D03*
%TO.P,U2,CN12_70*%
X432120000Y-178220000D03*
%TO.P,U2,CN12_71*%
X429580000Y-180760000D03*
%TO.P,U2,CN12_72*%
X432120000Y-180760000D03*
%TD*%
D10*
%TO.P,R11,1*%
%TO.N,I2C1_SCL_TDM*%
X542920086Y-171000000D03*
%TO.P,R11,2*%
%TO.N,5V_TDM*%
X544920086Y-171000000D03*
%TD*%
D25*
%TO.P,U7,1,A1*%
%TO.N,unconnected-(U7-A1-Pad1)*%
X542050000Y-189690000D03*
%TO.P,U7,2,A0*%
%TO.N,unconnected-(U7-A0-Pad2)*%
X542050000Y-190960000D03*
%TO.P,U7,3,SDA*%
%TO.N,I2C1_SDA_TDM*%
X542050000Y-192230000D03*
%TO.P,U7,4,SCL*%
%TO.N,I2C1_SCL_TDM*%
X542050000Y-193500000D03*
%TO.P,U7,5,VS*%
%TO.N,5V_TDM*%
X547000000Y-193500000D03*
%TO.P,U7,6,GND*%
%TO.N,GND*%
X547000000Y-192230000D03*
%TO.P,U7,7,IN-*%
%TO.N,VDD_TDM*%
X547000000Y-190960000D03*
%TO.P,U7,8,IN+*%
%TO.N,5V_TDM*%
X547000000Y-189690000D03*
%TD*%
D26*
X337410000Y-174450000D02*
X261210000Y-174450000D01*
X34180000Y-200880000D02*
G75*
G02*
X29180000Y-195880000I0J5000000D01*
G01*
X313280000Y-75390000D02*
X337410000Y-75390000D01*
X261210000Y-174450000D02*
G75*
G02*
X258670000Y-171910000I0J2540000D01*
G01*
X29180000Y-195880000D02*
X29180000Y-54880000D01*
X258670000Y-171910000D02*
X258670000Y-77930000D01*
X258670000Y-77930000D02*
G75*
G02*
X261210000Y-75390000I2540000J0D01*
G01*
X337410000Y-75390000D02*
G75*
G02*
X339950000Y-77930000I0J-2540000D01*
G01*
X339950000Y-77930000D02*
X339950000Y-171910000D01*
X261210000Y-75390000D02*
X313280000Y-75390000D01*
X34180000Y-49880000D02*
X560180000Y-49951068D01*
X560180000Y-200880000D02*
X34180000Y-200880000D01*
X565180000Y-195880000D02*
G75*
G02*
X560180000Y-200880000I-5000000J0D01*
G01*
X339950000Y-171910000D02*
G75*
G02*
X337410000Y-174450000I-2540000J0D01*
G01*
X565180000Y-54951068D02*
X565180000Y-195880000D01*
X29180000Y-54880000D02*
G75*
G02*
X34180000Y-49880000I5000000J0D01*
G01*
X560180000Y-49951068D02*
G75*
G02*
X565180032Y-54951068I0J-5000032D01*
G01*
M02*
