M48
; DRILL file {KiCad 9.0.2+dfsg-1} date 2025-06-27T22:52:18-0700
; FORMAT={-:-/ absolute / inch / decimal}
; #@! TF.CreationDate,2025-06-27T22:52:18-07:00
; #@! TF.GenerationSoftware,Kicad,Pcbnew,9.0.2+dfsg-1
; #@! TF.FileFunction,NonPlated,1,4,NPTH
FMAT,2
INCH
; #@! TA.AperFunction,NonPlated,NPTH,ComponentDrill
T1C0.0669
; #@! TA.AperFunction,NonPlated,NPTH,ComponentDrill
T2C0.1181
; #@! TA.AperFunction,NonPlated,NPTH,ComponentDrill
T3C0.1260
%
G90
G05
T1
X10.5157Y-2.3031
X10.5157Y-2.5787
T2
X8.1181Y-5.4331
X9.4181Y-7.4831
X10.0181Y-5.4831
X19.6449Y-3.2752
X20.9449Y-5.3252
X21.5449Y-3.3252
T3
X7.4409Y-2.1654
X7.4409Y-7.7165
X11.389Y-3.3071
X11.439Y-6.3071
X12.689Y-5.3571
X13.239Y-6.3071
X13.289Y-3.3571
X16.6929Y-3.3098
X16.7429Y-6.3098
X17.9929Y-5.3598
X18.5429Y-6.3098
X18.5929Y-3.3598
X22.2835Y-2.1654
X22.2835Y-7.7165
M30
