%TF.GenerationSoftware,KiCad,Pcbnew,9.0.2+dfsg-1*%
%TF.CreationDate,2025-06-27T22:52:18-07:00*%
%TF.ProjectId,signalmesh,7369676e-616c-46d6-9573-682e6b696361,rev?*%
%TF.SameCoordinates,Original*%
%TF.FileFunction,Legend,Bot*%
%TF.FilePolarity,Positive*%
%FSLAX46Y46*%
G04 Gerber Fmt 4.6, Leading zero omitted, Abs format (unit mm)*
G04 Created by KiCad (PCBNEW 9.0.2+dfsg-1) date 2025-06-27 22:52:18*
%MOMM*%
%LPD*%
G01*
G04 APERTURE LIST*
G04 Aperture macros list*
%AMRoundRect*
0 Rectangle with rounded corners*
0 $1 Rounding radius*
0 $2 $3 $4 $5 $6 $7 $8 $9 X,Y pos of 4 corners*
0 Add a 4 corners polygon primitive as box body*
4,1,4,$2,$3,$4,$5,$6,$7,$8,$9,$2,$3,0*
0 Add four circle primitives for the rounded corners*
1,1,$1+$1,$2,$3*
1,1,$1+$1,$4,$5*
1,1,$1+$1,$6,$7*
1,1,$1+$1,$8,$9*
0 Add four rect primitives between the rounded corners*
20,1,$1+$1,$2,$3,$4,$5,0*
20,1,$1+$1,$4,$5,$6,$7,0*
20,1,$1+$1,$6,$7,$8,$9,0*
20,1,$1+$1,$8,$9,$2,$3,0*%
G04 Aperture macros list end*
%ADD10C,3.200000*%
%ADD11RoundRect,0.102000X-0.754000X-0.754000X0.754000X-0.754000X0.754000X0.754000X-0.754000X0.754000X0*%
%ADD12C,1.712000*%
%ADD13C,3.000000*%
%ADD14RoundRect,0.102000X-0.802500X-0.802500X0.802500X-0.802500X0.802500X0.802500X-0.802500X0.802500X0*%
%ADD15C,1.809000*%
%ADD16RoundRect,0.102000X-0.765000X-0.765000X0.765000X-0.765000X0.765000X0.765000X-0.765000X0.765000X0*%
%ADD17C,1.734000*%
%ADD18R,1.700000X1.700000*%
%ADD19C,1.700000*%
%ADD20R,0.850000X0.850000*%
%ADD21C,0.850000*%
%ADD22R,1.600000X1.600000*%
%ADD23C,1.600000*%
%ADD24RoundRect,0.250000X0.550000X0.550000X-0.550000X0.550000X-0.550000X-0.550000X0.550000X-0.550000X0*%
%ADD25RoundRect,0.250000X-0.550000X-0.550000X0.550000X-0.550000X0.550000X0.550000X-0.550000X0.550000X0*%
%ADD26RoundRect,0.250000X-0.550000X0.550000X-0.550000X-0.550000X0.550000X-0.550000X0.550000X0.550000X0*%
%ADD27RoundRect,0.250000X0.550000X-0.550000X0.550000X0.550000X-0.550000X0.550000X-0.550000X-0.550000X0*%
G04 APERTURE END LIST*
%LPC*%
D10*
%TO.C,U17*%
X424000000Y-84070000D03*
X425270000Y-160270000D03*
X457020000Y-136140000D03*
X470990000Y-160270000D03*
X472260000Y-85340000D03*
D11*
X469720000Y-88896000D03*
D12*
X472260000Y-88896000D03*
X469720000Y-91436000D03*
X472260000Y-91436000D03*
X469720000Y-93976000D03*
X472260000Y-93976000D03*
X469720000Y-96516000D03*
X472260000Y-96516000D03*
X469720000Y-99056000D03*
X472260000Y-99056000D03*
X469720000Y-101596000D03*
X472260000Y-101596000D03*
X469720000Y-104136000D03*
X472260000Y-104136000D03*
X469720000Y-106676000D03*
X472260000Y-106676000D03*
X469720000Y-109216000D03*
X472260000Y-109216000D03*
X469720000Y-111756000D03*
X472260000Y-111756000D03*
D11*
X424000000Y-98040000D03*
D12*
X426540000Y-98040000D03*
X424000000Y-100580000D03*
X426540000Y-100580000D03*
X424000000Y-103120000D03*
X426540000Y-103120000D03*
X424000000Y-105660000D03*
X426540000Y-105660000D03*
X424000000Y-108200000D03*
X426540000Y-108200000D03*
X424000000Y-110740000D03*
X426540000Y-110740000D03*
X424000000Y-113280000D03*
X426540000Y-113280000D03*
X424000000Y-115820000D03*
X426540000Y-115820000D03*
D11*
X424000000Y-120900000D03*
D12*
X426540000Y-120900000D03*
X424000000Y-123440000D03*
X426540000Y-123440000D03*
X424000000Y-125980000D03*
X426540000Y-125980000D03*
X424000000Y-128520000D03*
X426540000Y-128520000D03*
X424000000Y-131060000D03*
X426540000Y-131060000D03*
X424000000Y-133600000D03*
X426540000Y-133600000D03*
X424000000Y-136140000D03*
X426540000Y-136140000D03*
X424000000Y-138680000D03*
X426540000Y-138680000D03*
X424000000Y-141220000D03*
X426540000Y-141220000D03*
X424000000Y-143760000D03*
X426540000Y-143760000D03*
X424000000Y-146300000D03*
X426540000Y-146300000D03*
X424000000Y-148840000D03*
X426540000Y-148840000D03*
X424000000Y-151380000D03*
X426540000Y-151380000D03*
X424000000Y-153920000D03*
X426540000Y-153920000D03*
X424000000Y-156460000D03*
X426540000Y-156460000D03*
D11*
X469720000Y-115820000D03*
D12*
X472260000Y-115820000D03*
X469720000Y-118360000D03*
X472260000Y-118360000D03*
X469720000Y-120900000D03*
X472260000Y-120900000D03*
X469720000Y-123440000D03*
X472260000Y-123440000D03*
X469720000Y-125980000D03*
X472260000Y-125980000D03*
X469720000Y-128520000D03*
X472260000Y-128520000D03*
X469720000Y-131060000D03*
X472260000Y-131060000D03*
X469720000Y-133600000D03*
X472260000Y-133600000D03*
X469720000Y-136140000D03*
X472260000Y-136140000D03*
X469720000Y-138680000D03*
X472260000Y-138680000D03*
X469720000Y-141220000D03*
X472260000Y-141220000D03*
X469720000Y-143760000D03*
X472260000Y-143760000D03*
X469720000Y-146300000D03*
X472260000Y-146300000D03*
X469720000Y-148840000D03*
X472260000Y-148840000D03*
X469720000Y-151380000D03*
X472260000Y-151380000D03*
X469720000Y-153920000D03*
X472260000Y-153920000D03*
X469720000Y-156460000D03*
X472260000Y-156460000D03*
D11*
X416380000Y-87880000D03*
D12*
X418920000Y-87880000D03*
X416380000Y-90420000D03*
X418920000Y-90420000D03*
X416380000Y-92960000D03*
X418920000Y-92960000D03*
X416380000Y-95500000D03*
X418920000Y-95500000D03*
X416380000Y-98040000D03*
X418920000Y-98040000D03*
X416380000Y-100580000D03*
X418920000Y-100580000D03*
X416380000Y-103120000D03*
X418920000Y-103120000D03*
X416380000Y-105660000D03*
X418920000Y-105660000D03*
X416380000Y-108200000D03*
X418920000Y-108200000D03*
X416380000Y-110740000D03*
X418920000Y-110740000D03*
X416380000Y-113280000D03*
X418920000Y-113280000D03*
X416380000Y-115820000D03*
X418920000Y-115820000D03*
X416380000Y-118360000D03*
X418920000Y-118360000D03*
X416380000Y-120900000D03*
X418920000Y-120900000D03*
X416380000Y-123440000D03*
X418920000Y-123440000D03*
X416380000Y-125980000D03*
X418920000Y-125980000D03*
X416380000Y-128520000D03*
X418920000Y-128520000D03*
X416380000Y-131060000D03*
X418920000Y-131060000D03*
X416380000Y-133600000D03*
X418920000Y-133600000D03*
X416380000Y-136140000D03*
X418920000Y-136140000D03*
X416380000Y-138680000D03*
X418920000Y-138680000D03*
X416380000Y-141220000D03*
X418920000Y-141220000D03*
X416380000Y-143760000D03*
X418920000Y-143760000D03*
X416380000Y-146300000D03*
X418920000Y-146300000D03*
X416380000Y-148840000D03*
X418920000Y-148840000D03*
X416380000Y-151380000D03*
X418920000Y-151380000D03*
X416380000Y-153920000D03*
X418920000Y-153920000D03*
X416380000Y-156460000D03*
X418920000Y-156460000D03*
X416380000Y-159000000D03*
X418920000Y-159000000D03*
X416380000Y-161540000D03*
X418920000Y-161540000D03*
X416380000Y-164080000D03*
X418920000Y-164080000D03*
X416380000Y-166620000D03*
X418920000Y-166620000D03*
X416380000Y-169160000D03*
X418920000Y-169160000D03*
X416380000Y-171700000D03*
X418920000Y-171700000D03*
X416380000Y-174240000D03*
X418920000Y-174240000D03*
X416380000Y-176780000D03*
X418920000Y-176780000D03*
D11*
X477340000Y-87900000D03*
D12*
X479880000Y-87900000D03*
X477340000Y-90440000D03*
X479880000Y-90440000D03*
X477340000Y-92980000D03*
X479880000Y-92980000D03*
X477340000Y-95520000D03*
X479880000Y-95520000D03*
X477340000Y-98060000D03*
X479880000Y-98060000D03*
X477340000Y-100600000D03*
X479880000Y-100600000D03*
X477340000Y-103140000D03*
X479880000Y-103140000D03*
X477340000Y-105680000D03*
X479880000Y-105680000D03*
X477340000Y-108220000D03*
X479880000Y-108220000D03*
X477340000Y-110760000D03*
X479880000Y-110760000D03*
X477340000Y-113300000D03*
X479880000Y-113300000D03*
X477340000Y-115840000D03*
X479880000Y-115840000D03*
X477340000Y-118380000D03*
X479880000Y-118380000D03*
X477340000Y-120920000D03*
X479880000Y-120920000D03*
X477340000Y-123460000D03*
X479880000Y-123460000D03*
X477340000Y-126000000D03*
X479880000Y-126000000D03*
X477340000Y-128540000D03*
X479880000Y-128540000D03*
X477340000Y-131080000D03*
X479880000Y-131080000D03*
X477340000Y-133620000D03*
X479880000Y-133620000D03*
X477340000Y-136160000D03*
X479880000Y-136160000D03*
X477340000Y-138700000D03*
X479880000Y-138700000D03*
X477340000Y-141240000D03*
X479880000Y-141240000D03*
X477340000Y-143780000D03*
X479880000Y-143780000D03*
X477340000Y-146320000D03*
X479880000Y-146320000D03*
X477340000Y-148860000D03*
X479880000Y-148860000D03*
X477340000Y-151400000D03*
X479880000Y-151400000D03*
X477340000Y-153940000D03*
X479880000Y-153940000D03*
X477340000Y-156480000D03*
X479880000Y-156480000D03*
X477340000Y-159020000D03*
X479880000Y-159020000D03*
X477340000Y-161560000D03*
X479880000Y-161560000D03*
X477340000Y-164100000D03*
X479880000Y-164100000D03*
X477340000Y-166640000D03*
X479880000Y-166640000D03*
X477340000Y-169180000D03*
X479880000Y-169180000D03*
X477340000Y-171720000D03*
X479880000Y-171720000D03*
X477340000Y-174260000D03*
X479880000Y-174260000D03*
X477340000Y-176800000D03*
X479880000Y-176800000D03*
%TD*%
D13*
%TO.C,U9*%
X498980000Y-83190000D03*
X532000000Y-135260000D03*
X547240000Y-84460000D03*
D14*
X547240000Y-110880000D03*
D15*
X547240000Y-108340000D03*
X547240000Y-105800000D03*
X547240000Y-103260000D03*
X547240000Y-100720000D03*
X547240000Y-98180000D03*
X547240000Y-95640000D03*
X547240000Y-93100000D03*
X547240000Y-90560000D03*
X547240000Y-88020000D03*
D14*
X498980000Y-97160000D03*
D15*
X498980000Y-99700000D03*
X498980000Y-102240000D03*
X498980000Y-104780000D03*
X498980000Y-107320000D03*
X498980000Y-109860000D03*
X498980000Y-112400000D03*
X498980000Y-114940000D03*
D16*
X491360000Y-87000000D03*
D17*
X493900000Y-87000000D03*
X491360000Y-89540000D03*
X493900000Y-89540000D03*
X491360000Y-92080000D03*
X493900000Y-92080000D03*
X491360000Y-94620000D03*
X493900000Y-94620000D03*
X491360000Y-97160000D03*
X493900000Y-97160000D03*
X491360000Y-99700000D03*
X493900000Y-99700000D03*
X491360000Y-102240000D03*
X493900000Y-102240000D03*
X491360000Y-104780000D03*
X493900000Y-104780000D03*
X491360000Y-107320000D03*
X493900000Y-107320000D03*
X491360000Y-109860000D03*
X493900000Y-109860000D03*
X491360000Y-112400000D03*
X493900000Y-112400000D03*
X491360000Y-114940000D03*
X493900000Y-114940000D03*
X491360000Y-117480000D03*
X493900000Y-117480000D03*
X491360000Y-120020000D03*
X493900000Y-120020000D03*
X491360000Y-122560000D03*
X493900000Y-122560000D03*
X491360000Y-125100000D03*
X493900000Y-125100000D03*
X491360000Y-127640000D03*
X493900000Y-127640000D03*
X491360000Y-130180000D03*
X493900000Y-130180000D03*
X491360000Y-132720000D03*
X493900000Y-132720000D03*
D14*
X498980000Y-120020000D03*
D15*
X498980000Y-122560000D03*
X498980000Y-125100000D03*
X498980000Y-127640000D03*
X498980000Y-130180000D03*
X498980000Y-132720000D03*
D14*
X547240000Y-132720000D03*
D15*
X547240000Y-130180000D03*
X547240000Y-127640000D03*
X547240000Y-125100000D03*
X547240000Y-122560000D03*
X547240000Y-120020000D03*
X547240000Y-117480000D03*
X547240000Y-114940000D03*
D16*
X552320000Y-87000000D03*
D17*
X554860000Y-87000000D03*
X552320000Y-89540000D03*
X554860000Y-89540000D03*
X552320000Y-92080000D03*
X554860000Y-92080000D03*
X552320000Y-94620000D03*
X554860000Y-94620000D03*
X552320000Y-97160000D03*
X554860000Y-97160000D03*
X552320000Y-99700000D03*
X554860000Y-99700000D03*
X552320000Y-102240000D03*
X554860000Y-102240000D03*
X552320000Y-104780000D03*
X554860000Y-104780000D03*
X552320000Y-107320000D03*
X554860000Y-107320000D03*
X552320000Y-109860000D03*
X554860000Y-109860000D03*
X552320000Y-112400000D03*
X554860000Y-112400000D03*
X552320000Y-114940000D03*
X554860000Y-114940000D03*
X552320000Y-117480000D03*
X554860000Y-117480000D03*
X552320000Y-120020000D03*
X554860000Y-120020000D03*
X552320000Y-122560000D03*
X554860000Y-122560000D03*
X552320000Y-125100000D03*
X554860000Y-125100000D03*
X552320000Y-127640000D03*
X554860000Y-127640000D03*
X552320000Y-130180000D03*
X554860000Y-130180000D03*
X552320000Y-132720000D03*
X554860000Y-132720000D03*
%TD*%
D18*
%TO.C,U4*%
X251000000Y-56660000D03*
D19*
X248460000Y-56660000D03*
X245920000Y-56660000D03*
X243380000Y-56660000D03*
X240840000Y-56660000D03*
X238300000Y-56660000D03*
X235760000Y-56660000D03*
X233220000Y-56660000D03*
X230680000Y-56660000D03*
X228140000Y-56660000D03*
X225600000Y-56660000D03*
X223060000Y-56660000D03*
X220520000Y-56660000D03*
X217980000Y-56660000D03*
X215440000Y-56660000D03*
X212900000Y-56660000D03*
X210360000Y-56660000D03*
X207820000Y-56660000D03*
X205280000Y-56660000D03*
X202740000Y-56660000D03*
X202740000Y-71900000D03*
X205280000Y-71900000D03*
X207820000Y-71900000D03*
X210360000Y-71900000D03*
X212900000Y-71900000D03*
X215440000Y-71900000D03*
X217980000Y-71900000D03*
X220520000Y-71900000D03*
X223060000Y-71900000D03*
X225600000Y-71900000D03*
X228140000Y-71900000D03*
X230680000Y-71900000D03*
X233220000Y-71900000D03*
X235760000Y-71900000D03*
X238300000Y-71900000D03*
X240840000Y-71900000D03*
X243380000Y-71900000D03*
X245920000Y-71900000D03*
X248460000Y-71900000D03*
X251000000Y-71900000D03*
X206551000Y-68092000D03*
X206551000Y-65552000D03*
X206551000Y-63012000D03*
X206551000Y-60472000D03*
%TD*%
D13*
%TO.C,U3*%
X206200000Y-138000000D03*
X239220000Y-190070000D03*
X254460000Y-139270000D03*
D14*
X254460000Y-165690000D03*
D15*
X254460000Y-163150000D03*
X254460000Y-160610000D03*
X254460000Y-158070000D03*
X254460000Y-155530000D03*
X254460000Y-152990000D03*
X254460000Y-150450000D03*
X254460000Y-147910000D03*
X254460000Y-145370000D03*
X254460000Y-142830000D03*
D14*
X206200000Y-151970000D03*
D15*
X206200000Y-154510000D03*
X206200000Y-157050000D03*
X206200000Y-159590000D03*
X206200000Y-162130000D03*
X206200000Y-164670000D03*
X206200000Y-167210000D03*
X206200000Y-169750000D03*
D16*
X198580000Y-141810000D03*
D17*
X201120000Y-141810000D03*
X198580000Y-144350000D03*
X201120000Y-144350000D03*
X198580000Y-146890000D03*
X201120000Y-146890000D03*
X198580000Y-149430000D03*
X201120000Y-149430000D03*
X198580000Y-151970000D03*
X201120000Y-151970000D03*
X198580000Y-154510000D03*
X201120000Y-154510000D03*
X198580000Y-157050000D03*
X201120000Y-157050000D03*
X198580000Y-159590000D03*
X201120000Y-159590000D03*
X198580000Y-162130000D03*
X201120000Y-162130000D03*
X198580000Y-164670000D03*
X201120000Y-164670000D03*
X198580000Y-167210000D03*
X201120000Y-167210000D03*
X198580000Y-169750000D03*
X201120000Y-169750000D03*
X198580000Y-172290000D03*
X201120000Y-172290000D03*
X198580000Y-174830000D03*
X201120000Y-174830000D03*
X198580000Y-177370000D03*
X201120000Y-177370000D03*
X198580000Y-179910000D03*
X201120000Y-179910000D03*
X198580000Y-182450000D03*
X201120000Y-182450000D03*
X198580000Y-184990000D03*
X201120000Y-184990000D03*
X198580000Y-187530000D03*
X201120000Y-187530000D03*
D14*
X206200000Y-174830000D03*
D15*
X206200000Y-177370000D03*
X206200000Y-179910000D03*
X206200000Y-182450000D03*
X206200000Y-184990000D03*
X206200000Y-187530000D03*
D14*
X254460000Y-187530000D03*
D15*
X254460000Y-184990000D03*
X254460000Y-182450000D03*
X254460000Y-179910000D03*
X254460000Y-177370000D03*
X254460000Y-174830000D03*
X254460000Y-172290000D03*
X254460000Y-169750000D03*
D16*
X259540000Y-141810000D03*
D17*
X262080000Y-141810000D03*
X259540000Y-144350000D03*
X262080000Y-144350000D03*
X259540000Y-146890000D03*
X262080000Y-146890000D03*
X259540000Y-149430000D03*
X262080000Y-149430000D03*
X259540000Y-151970000D03*
X262080000Y-151970000D03*
X259540000Y-154510000D03*
X262080000Y-154510000D03*
X259540000Y-157050000D03*
X262080000Y-157050000D03*
X259540000Y-159590000D03*
X262080000Y-159590000D03*
X259540000Y-162130000D03*
X262080000Y-162130000D03*
X259540000Y-164670000D03*
X262080000Y-164670000D03*
X259540000Y-167210000D03*
X262080000Y-167210000D03*
X259540000Y-169750000D03*
X262080000Y-169750000D03*
X259540000Y-172290000D03*
X262080000Y-172290000D03*
X259540000Y-174830000D03*
X262080000Y-174830000D03*
X259540000Y-177370000D03*
X262080000Y-177370000D03*
X259540000Y-179910000D03*
X262080000Y-179910000D03*
X259540000Y-182450000D03*
X262080000Y-182450000D03*
X259540000Y-184990000D03*
X262080000Y-184990000D03*
X259540000Y-187530000D03*
X262080000Y-187530000D03*
%TD*%
D10*
%TO.C,U1*%
X289280000Y-84000000D03*
X290550000Y-160200000D03*
X322300000Y-136070000D03*
X336270000Y-160200000D03*
X337540000Y-85270000D03*
D11*
X335000000Y-88826000D03*
D12*
X337540000Y-88826000D03*
X335000000Y-91366000D03*
X337540000Y-91366000D03*
X335000000Y-93906000D03*
X337540000Y-93906000D03*
X335000000Y-96446000D03*
X337540000Y-96446000D03*
X335000000Y-98986000D03*
X337540000Y-98986000D03*
X335000000Y-101526000D03*
X337540000Y-101526000D03*
X335000000Y-104066000D03*
X337540000Y-104066000D03*
X335000000Y-106606000D03*
X337540000Y-106606000D03*
X335000000Y-109146000D03*
X337540000Y-109146000D03*
X335000000Y-111686000D03*
X337540000Y-111686000D03*
D11*
X289280000Y-97970000D03*
D12*
X291820000Y-97970000D03*
X289280000Y-100510000D03*
X291820000Y-100510000D03*
X289280000Y-103050000D03*
X291820000Y-103050000D03*
X289280000Y-105590000D03*
X291820000Y-105590000D03*
X289280000Y-108130000D03*
X291820000Y-108130000D03*
X289280000Y-110670000D03*
X291820000Y-110670000D03*
X289280000Y-113210000D03*
X291820000Y-113210000D03*
X289280000Y-115750000D03*
X291820000Y-115750000D03*
D11*
X289280000Y-120830000D03*
D12*
X291820000Y-120830000D03*
X289280000Y-123370000D03*
X291820000Y-123370000D03*
X289280000Y-125910000D03*
X291820000Y-125910000D03*
X289280000Y-128450000D03*
X291820000Y-128450000D03*
X289280000Y-130990000D03*
X291820000Y-130990000D03*
X289280000Y-133530000D03*
X291820000Y-133530000D03*
X289280000Y-136070000D03*
X291820000Y-136070000D03*
X289280000Y-138610000D03*
X291820000Y-138610000D03*
X289280000Y-141150000D03*
X291820000Y-141150000D03*
X289280000Y-143690000D03*
X291820000Y-143690000D03*
X289280000Y-146230000D03*
X291820000Y-146230000D03*
X289280000Y-148770000D03*
X291820000Y-148770000D03*
X289280000Y-151310000D03*
X291820000Y-151310000D03*
X289280000Y-153850000D03*
X291820000Y-153850000D03*
X289280000Y-156390000D03*
X291820000Y-156390000D03*
D11*
X335000000Y-115750000D03*
D12*
X337540000Y-115750000D03*
X335000000Y-118290000D03*
X337540000Y-118290000D03*
X335000000Y-120830000D03*
X337540000Y-120830000D03*
X335000000Y-123370000D03*
X337540000Y-123370000D03*
X335000000Y-125910000D03*
X337540000Y-125910000D03*
X335000000Y-128450000D03*
X337540000Y-128450000D03*
X335000000Y-130990000D03*
X337540000Y-130990000D03*
X335000000Y-133530000D03*
X337540000Y-133530000D03*
X335000000Y-136070000D03*
X337540000Y-136070000D03*
X335000000Y-138610000D03*
X337540000Y-138610000D03*
X335000000Y-141150000D03*
X337540000Y-141150000D03*
X335000000Y-143690000D03*
X337540000Y-143690000D03*
X335000000Y-146230000D03*
X337540000Y-146230000D03*
X335000000Y-148770000D03*
X337540000Y-148770000D03*
X335000000Y-151310000D03*
X337540000Y-151310000D03*
X335000000Y-153850000D03*
X337540000Y-153850000D03*
X335000000Y-156390000D03*
X337540000Y-156390000D03*
D11*
X281660000Y-87810000D03*
D12*
X284200000Y-87810000D03*
X281660000Y-90350000D03*
X284200000Y-90350000D03*
X281660000Y-92890000D03*
X284200000Y-92890000D03*
X281660000Y-95430000D03*
X284200000Y-95430000D03*
X281660000Y-97970000D03*
X284200000Y-97970000D03*
X281660000Y-100510000D03*
X284200000Y-100510000D03*
X281660000Y-103050000D03*
X284200000Y-103050000D03*
X281660000Y-105590000D03*
X284200000Y-105590000D03*
X281660000Y-108130000D03*
X284200000Y-108130000D03*
X281660000Y-110670000D03*
X284200000Y-110670000D03*
X281660000Y-113210000D03*
X284200000Y-113210000D03*
X281660000Y-115750000D03*
X284200000Y-115750000D03*
X281660000Y-118290000D03*
X284200000Y-118290000D03*
X281660000Y-120830000D03*
X284200000Y-120830000D03*
X281660000Y-123370000D03*
X284200000Y-123370000D03*
X281660000Y-125910000D03*
X284200000Y-125910000D03*
X281660000Y-128450000D03*
X284200000Y-128450000D03*
X281660000Y-130990000D03*
X284200000Y-130990000D03*
X281660000Y-133530000D03*
X284200000Y-133530000D03*
X281660000Y-136070000D03*
X284200000Y-136070000D03*
X281660000Y-138610000D03*
X284200000Y-138610000D03*
X281660000Y-141150000D03*
X284200000Y-141150000D03*
X281660000Y-143690000D03*
X284200000Y-143690000D03*
X281660000Y-146230000D03*
X284200000Y-146230000D03*
X281660000Y-148770000D03*
X284200000Y-148770000D03*
X281660000Y-151310000D03*
X284200000Y-151310000D03*
X281660000Y-153850000D03*
X284200000Y-153850000D03*
X281660000Y-156390000D03*
X284200000Y-156390000D03*
X281660000Y-158930000D03*
X284200000Y-158930000D03*
X281660000Y-161470000D03*
X284200000Y-161470000D03*
X281660000Y-164010000D03*
X284200000Y-164010000D03*
X281660000Y-166550000D03*
X284200000Y-166550000D03*
X281660000Y-169090000D03*
X284200000Y-169090000D03*
X281660000Y-171630000D03*
X284200000Y-171630000D03*
X281660000Y-174170000D03*
X284200000Y-174170000D03*
X281660000Y-176710000D03*
X284200000Y-176710000D03*
D11*
X342620000Y-87830000D03*
D12*
X345160000Y-87830000D03*
X342620000Y-90370000D03*
X345160000Y-90370000D03*
X342620000Y-92910000D03*
X345160000Y-92910000D03*
X342620000Y-95450000D03*
X345160000Y-95450000D03*
X342620000Y-97990000D03*
X345160000Y-97990000D03*
X342620000Y-100530000D03*
X345160000Y-100530000D03*
X342620000Y-103070000D03*
X345160000Y-103070000D03*
X342620000Y-105610000D03*
X345160000Y-105610000D03*
X342620000Y-108150000D03*
X345160000Y-108150000D03*
X342620000Y-110690000D03*
X345160000Y-110690000D03*
X342620000Y-113230000D03*
X345160000Y-113230000D03*
X342620000Y-115770000D03*
X345160000Y-115770000D03*
X342620000Y-118310000D03*
X345160000Y-118310000D03*
X342620000Y-120850000D03*
X345160000Y-120850000D03*
X342620000Y-123390000D03*
X345160000Y-123390000D03*
X342620000Y-125930000D03*
X345160000Y-125930000D03*
X342620000Y-128470000D03*
X345160000Y-128470000D03*
X342620000Y-131010000D03*
X345160000Y-131010000D03*
X342620000Y-133550000D03*
X345160000Y-133550000D03*
X342620000Y-136090000D03*
X345160000Y-136090000D03*
X342620000Y-138630000D03*
X345160000Y-138630000D03*
X342620000Y-141170000D03*
X345160000Y-141170000D03*
X342620000Y-143710000D03*
X345160000Y-143710000D03*
X342620000Y-146250000D03*
X345160000Y-146250000D03*
X342620000Y-148790000D03*
X345160000Y-148790000D03*
X342620000Y-151330000D03*
X345160000Y-151330000D03*
X342620000Y-153870000D03*
X345160000Y-153870000D03*
X342620000Y-156410000D03*
X345160000Y-156410000D03*
X342620000Y-158950000D03*
X345160000Y-158950000D03*
X342620000Y-161490000D03*
X345160000Y-161490000D03*
X342620000Y-164030000D03*
X345160000Y-164030000D03*
X342620000Y-166570000D03*
X345160000Y-166570000D03*
X342620000Y-169110000D03*
X345160000Y-169110000D03*
X342620000Y-171650000D03*
X345160000Y-171650000D03*
X342620000Y-174190000D03*
X345160000Y-174190000D03*
X342620000Y-176730000D03*
X345160000Y-176730000D03*
%TD*%
D19*
%TO.C,J19*%
X267100000Y-58500000D03*
X267100000Y-65500000D03*
%TD*%
D10*
%TO.C,H6*%
X566000000Y-196000000D03*
%TD*%
%TO.C,H5*%
X566000000Y-55000000D03*
%TD*%
%TO.C,H2*%
X189000000Y-55000000D03*
%TD*%
%TO.C,H1*%
X189000000Y-196000000D03*
%TD*%
D20*
%TO.C,J15*%
X556825000Y-188000000D03*
D21*
X556825000Y-189000000D03*
%TD*%
D22*
%TO.C,U18*%
X227350000Y-78250000D03*
D23*
X227350000Y-80790000D03*
X227350000Y-83330000D03*
X227350000Y-85870000D03*
X227350000Y-88410000D03*
X232430000Y-88410000D03*
X232430000Y-85870000D03*
X232430000Y-83330000D03*
X232430000Y-80790000D03*
X232430000Y-78250000D03*
%TD*%
D24*
%TO.C,U27*%
X501300000Y-189120000D03*
D23*
X501300000Y-186580000D03*
X501300000Y-184040000D03*
X501300000Y-181500000D03*
X493680000Y-181500000D03*
X493680000Y-184040000D03*
X493680000Y-186580000D03*
X493680000Y-189120000D03*
%TD*%
D22*
%TO.C,U19*%
X236170000Y-78250000D03*
D23*
X236170000Y-80790000D03*
X236170000Y-83330000D03*
X236170000Y-85870000D03*
X236170000Y-88410000D03*
X241250000Y-88410000D03*
X241250000Y-85870000D03*
X241250000Y-83330000D03*
X241250000Y-80790000D03*
X241250000Y-78250000D03*
%TD*%
D20*
%TO.C,J4*%
X404700000Y-53800000D03*
D21*
X405700000Y-53800000D03*
X406700000Y-53800000D03*
%TD*%
D18*
%TO.C,J9*%
X401010000Y-102940000D03*
D19*
X401010000Y-105480000D03*
X401010000Y-108020000D03*
X401010000Y-110560000D03*
X401010000Y-113100000D03*
X401010000Y-115640000D03*
X401010000Y-118180000D03*
X401010000Y-120720000D03*
X401010000Y-123260000D03*
X401010000Y-125800000D03*
X401010000Y-128340000D03*
X401010000Y-130880000D03*
X401010000Y-133420000D03*
X401010000Y-135960000D03*
X401010000Y-138500000D03*
X401010000Y-141040000D03*
X401010000Y-143580000D03*
X401010000Y-146120000D03*
X401010000Y-148660000D03*
X401010000Y-151200000D03*
X401010000Y-153740000D03*
X401010000Y-156280000D03*
X401010000Y-158820000D03*
X401010000Y-161360000D03*
%TD*%
D23*
%TO.C,TH1*%
X556660000Y-140100000D03*
X559200000Y-140100000D03*
%TD*%
D22*
%TO.C,U2*%
X245000000Y-78250000D03*
D23*
X245000000Y-80790000D03*
X245000000Y-83330000D03*
X245000000Y-85870000D03*
X245000000Y-88410000D03*
X250080000Y-88410000D03*
X250080000Y-85870000D03*
X250080000Y-83330000D03*
X250080000Y-80790000D03*
X250080000Y-78250000D03*
%TD*%
D18*
%TO.C,J1*%
X368700000Y-102980000D03*
D19*
X368700000Y-105520000D03*
X368700000Y-108060000D03*
X368700000Y-110600000D03*
X368700000Y-113140000D03*
X368700000Y-115680000D03*
X368700000Y-118220000D03*
X368700000Y-120760000D03*
X368700000Y-123300000D03*
X368700000Y-125840000D03*
X368700000Y-128380000D03*
X368700000Y-130920000D03*
X368700000Y-133460000D03*
X368700000Y-136000000D03*
X368700000Y-138540000D03*
X368700000Y-141080000D03*
X368700000Y-143620000D03*
X368700000Y-146160000D03*
X368700000Y-148700000D03*
X368700000Y-151240000D03*
X368700000Y-153780000D03*
X368700000Y-156320000D03*
X368700000Y-158860000D03*
X368700000Y-161400000D03*
%TD*%
D18*
%TO.C,J8*%
X359700000Y-102980000D03*
D19*
X359700000Y-105520000D03*
X359700000Y-108060000D03*
X359700000Y-110600000D03*
X359700000Y-113140000D03*
X359700000Y-115680000D03*
X359700000Y-118220000D03*
X359700000Y-120760000D03*
X359700000Y-123300000D03*
X359700000Y-125840000D03*
X359700000Y-128380000D03*
X359700000Y-130920000D03*
X359700000Y-133460000D03*
X359700000Y-136000000D03*
X359700000Y-138540000D03*
X359700000Y-141080000D03*
X359700000Y-143620000D03*
X359700000Y-146160000D03*
X359700000Y-148700000D03*
X359700000Y-151240000D03*
X359700000Y-153780000D03*
X359700000Y-156320000D03*
X359700000Y-158860000D03*
X359700000Y-161400000D03*
%TD*%
D25*
%TO.C,U29*%
X493690000Y-164420000D03*
D23*
X493690000Y-166960000D03*
X493690000Y-169500000D03*
X493690000Y-172040000D03*
X501310000Y-172040000D03*
X501310000Y-169500000D03*
X501310000Y-166960000D03*
X501310000Y-164420000D03*
%TD*%
D18*
%TO.C,J2*%
X392010000Y-102980000D03*
D19*
X392010000Y-105520000D03*
X392010000Y-108060000D03*
X392010000Y-110600000D03*
X392010000Y-113140000D03*
X392010000Y-115680000D03*
X392010000Y-118220000D03*
X392010000Y-120760000D03*
X392010000Y-123300000D03*
X392010000Y-125840000D03*
X392010000Y-128380000D03*
X392010000Y-130920000D03*
X392010000Y-133460000D03*
X392010000Y-136000000D03*
X392010000Y-138540000D03*
X392010000Y-141080000D03*
X392010000Y-143620000D03*
X392010000Y-146160000D03*
X392010000Y-148700000D03*
X392010000Y-151240000D03*
X392010000Y-153780000D03*
X392010000Y-156320000D03*
X392010000Y-158860000D03*
X392010000Y-161400000D03*
%TD*%
D20*
%TO.C,J14*%
X367300000Y-53800000D03*
D21*
X368300000Y-53800000D03*
X369300000Y-53800000D03*
%TD*%
D20*
%TO.C,J11*%
X556825000Y-181305000D03*
D21*
X556825000Y-182305000D03*
%TD*%
D20*
%TO.C,J16*%
X392250000Y-53875000D03*
D21*
X393250000Y-53875000D03*
X394250000Y-53875000D03*
%TD*%
D20*
%TO.C,J6*%
X556825000Y-162180000D03*
D21*
X556825000Y-163180000D03*
%TD*%
D20*
%TO.C,J10*%
X556825000Y-174930000D03*
D21*
X556825000Y-175930000D03*
%TD*%
D20*
%TO.C,J12*%
X379700000Y-53800000D03*
D21*
X380700000Y-53800000D03*
X381700000Y-53800000D03*
%TD*%
D20*
%TO.C,J13*%
X354750000Y-53800000D03*
D21*
X355750000Y-53800000D03*
X356750000Y-53800000D03*
%TD*%
D26*
%TO.C,U31*%
X516800000Y-181700000D03*
D23*
X514260000Y-181700000D03*
X511720000Y-181700000D03*
X509180000Y-181700000D03*
X509180000Y-189320000D03*
X511720000Y-189320000D03*
X514260000Y-189320000D03*
X516800000Y-189320000D03*
%TD*%
D20*
%TO.C,J5*%
X556825000Y-155805000D03*
D21*
X556825000Y-156805000D03*
%TD*%
D27*
%TO.C,U30*%
X509180000Y-171620000D03*
D23*
X511720000Y-171620000D03*
X514260000Y-171620000D03*
X516800000Y-171620000D03*
X516800000Y-164000000D03*
X514260000Y-164000000D03*
X511720000Y-164000000D03*
X509180000Y-164000000D03*
%TD*%
D20*
%TO.C,J7*%
X556825000Y-168555000D03*
D21*
X556825000Y-169555000D03*
%TD*%
%LPD*%
M02*
