M48
; DRILL file {KiCad 9.0.4+dfsg-1} date 2025-09-13T16:22:08-0700
; FORMAT={-:-/ absolute / inch / decimal}
; #@! TF.CreationDate,2025-09-13T16:22:08-07:00
; #@! TF.GenerationSoftware,Kicad,Pcbnew,9.0.4+dfsg-1
; #@! TF.FileFunction,Plated,1,4,PTH
FMAT,2
INCH
; #@! TA.AperFunction,Plated,PTH,ViaDrill
T1C0.0118
; #@! TA.AperFunction,Plated,PTH,ComponentDrill
T2C0.0197
; #@! TA.AperFunction,Plated,PTH,ComponentDrill
T3C0.0295
; #@! TA.AperFunction,Plated,PTH,ComponentDrill
T4C0.0315
; #@! TA.AperFunction,Plated,PTH,ComponentDrill
T5C0.0354
; #@! TA.AperFunction,Plated,PTH,ComponentDrill
T6C0.0394
; #@! TA.AperFunction,Plated,PTH,ComponentDrill
T7C0.0402
; #@! TA.AperFunction,Plated,PTH,ComponentDrill
T8C0.0472
%
G90
G05
T1
X3.0748Y-4.9892
X3.0945Y-3.9291
X3.1063Y-3.0827
X3.1339Y-3.4409
X3.2461Y-3.939
X3.248Y-3.2421
X3.2677Y-2.6102
X3.2913Y-5.3937
X3.2913Y-5.6238
X3.3071Y-3.3051
X3.3524Y-4.185
X3.4173Y-4.1063
X3.4705Y-2.9862
X3.4705Y-3.0472
X3.5236Y-3.1024
X3.5886Y-3.1122
X3.5945Y-3.7618
X3.622Y-3.1437
X3.622Y-3.2461
X3.6227Y-3.348
X3.628Y-3.9665
X3.6772Y-2.6122
X3.6811Y-2.9705
X3.7559Y-3.4508
X3.7953Y-2.811
X3.8189Y-4.0925
X3.8287Y-3.0571
X3.8839Y-5.5984
X3.9291Y-5.4291
X3.9291Y-5.6551
X3.9665Y-3.4823
X3.9734Y-4.4203
X4.0236Y-2.6181
X4.0236Y-2.6713
X4.0305Y-4.3858
X4.1654Y-5.315
X4.2894Y-2.8091
X4.2972Y-5.3996
X4.2992Y-5.5157
X4.3012Y-5.6319
X4.3031Y-5.748
X4.327Y-4.758
X4.3273Y-4.656
X4.39Y-4.8023
X4.4092Y-4.9317
X4.4803Y-2.6201
X4.5482Y-4.3612
X4.8189Y-4.3415
X4.8287Y-2.4134
X4.8465Y-5.3484
X4.8583Y-2.372
X4.8819Y-5.1752
X4.8848Y-3.6309
X5.1594Y-5.1949
T2
X3.1575Y-3.685
X3.1969Y-3.685
T3
X3.4039Y-5.17
X3.5039Y-5.17
X3.5417Y-3.5367
X3.6417Y-3.5367
X3.7917Y-2.6607
X3.8917Y-2.6607
X3.9472Y-3.6831
X4.0472Y-3.6831
X4.1126Y-5.168
X4.2126Y-5.168
T4
X3.3961Y-2.8228
X3.5882Y-2.8228
T6
X2.5572Y-2.4659
X2.5572Y-2.5659
X2.5572Y-2.6659
X2.5572Y-2.7659
X2.5572Y-2.8659
X2.5572Y-2.9659
X2.5572Y-3.0659
X2.5572Y-3.1659
X2.5572Y-3.2659
X2.5572Y-3.3659
X2.5572Y-3.4659
X2.5572Y-3.5659
X2.5572Y-3.6659
X2.5572Y-3.7659
X2.5572Y-3.8659
X2.5572Y-3.9659
X2.5572Y-4.0659
X2.5572Y-4.1659
X2.5572Y-4.2659
X2.5572Y-4.3659
X2.5572Y-4.4659
X2.5572Y-4.5659
X2.5572Y-4.6659
X2.5572Y-4.7659
X2.5572Y-4.8659
X2.5572Y-4.9659
X2.5572Y-5.0659
X2.5572Y-5.1659
X2.5572Y-5.2659
X2.5572Y-5.3659
X2.5572Y-5.4659
X2.5572Y-5.5659
X2.5572Y-5.6659
X2.5572Y-5.7659
X2.5572Y-5.8659
X2.5572Y-5.9659
X2.6572Y-2.4659
X2.6572Y-2.5659
X2.6572Y-2.6659
X2.6572Y-2.7659
X2.6572Y-2.8659
X2.6572Y-2.9659
X2.6572Y-3.0659
X2.6572Y-3.1659
X2.6572Y-3.2659
X2.6572Y-3.3659
X2.6572Y-3.4659
X2.6572Y-3.5659
X2.6572Y-3.6659
X2.6572Y-3.7659
X2.6572Y-3.8659
X2.6572Y-3.9659
X2.6572Y-4.0659
X2.6572Y-4.1659
X2.6572Y-4.2659
X2.6572Y-4.3659
X2.6572Y-4.4659
X2.6572Y-4.5659
X2.6572Y-4.6659
X2.6572Y-4.7659
X2.6572Y-4.8659
X2.6572Y-4.9659
X2.6572Y-5.0659
X2.6572Y-5.1659
X2.6572Y-5.2659
X2.6572Y-5.3659
X2.6572Y-5.4659
X2.6572Y-5.5659
X2.6572Y-5.6659
X2.6572Y-5.7659
X2.6572Y-5.8659
X2.6572Y-5.9659
X2.8012Y-2.5047
X2.8012Y-2.6047
X2.8012Y-2.7047
X2.8856Y-2.2392
X2.9856Y-2.2392
X3.0856Y-2.2392
X3.1608Y-4.3701
X3.164Y-4.6398
X3.2386Y-5.9016
X3.2608Y-4.3701
X3.264Y-4.6398
X3.3386Y-5.9016
X3.364Y-4.6398
X3.4386Y-5.9016
X3.464Y-4.6398
X3.6756Y-4.9567
X3.7258Y-3.9232
X3.7756Y-4.9567
X3.8258Y-3.9232
X3.8756Y-4.9567
X4.5949Y-2.1378
X4.6949Y-2.1378
X4.7949Y-2.1378
X4.9568Y-2.4659
X4.9568Y-2.5659
X4.9568Y-2.6659
X4.9568Y-2.7659
X4.9568Y-2.8659
X4.9568Y-2.9659
X4.9568Y-3.0659
X4.9568Y-3.1659
X4.9568Y-3.2659
X4.9568Y-3.3659
X4.9568Y-3.4659
X4.9568Y-3.5659
X4.9568Y-3.6659
X4.9568Y-3.7659
X4.9568Y-3.8659
X4.9568Y-3.9659
X4.9568Y-4.0659
X4.9568Y-4.1659
X4.9568Y-4.2659
X4.9568Y-4.3659
X4.9568Y-4.4659
X4.9568Y-4.5659
X4.9568Y-4.6659
X4.9568Y-4.7659
X4.9568Y-4.8659
X4.9568Y-4.9659
X4.9568Y-5.0659
X4.9568Y-5.1659
X4.9568Y-5.2659
X4.9568Y-5.3659
X4.9568Y-5.4659
X4.9568Y-5.5659
X4.9568Y-5.6659
X4.9568Y-5.7659
X4.9568Y-5.8659
X4.9568Y-5.9659
X5.0568Y-2.4659
X5.0568Y-2.5659
X5.0568Y-2.6659
X5.0568Y-2.7659
X5.0568Y-2.8659
X5.0568Y-2.9659
X5.0568Y-3.0659
X5.0568Y-3.1659
X5.0568Y-3.2659
X5.0568Y-3.3659
X5.0568Y-3.4659
X5.0568Y-3.5659
X5.0568Y-3.6659
X5.0568Y-3.7659
X5.0568Y-3.8659
X5.0568Y-3.9659
X5.0568Y-4.0659
X5.0568Y-4.1659
X5.0568Y-4.2659
X5.0568Y-4.3659
X5.0568Y-4.4659
X5.0568Y-4.5659
X5.0568Y-4.6659
X5.0568Y-4.7659
X5.0568Y-4.8659
X5.0568Y-4.9659
X5.0568Y-5.0659
X5.0568Y-5.1659
X5.0568Y-5.2659
X5.0568Y-5.3659
X5.0568Y-5.4659
X5.0568Y-5.5659
X5.0568Y-5.6659
X5.0568Y-5.7659
X5.0568Y-5.8659
X5.0568Y-5.9659
T7
X2.8571Y-2.865
X2.8571Y-2.965
X2.8571Y-3.065
X2.8571Y-3.165
X2.8571Y-3.265
X2.8571Y-3.365
X2.8571Y-3.465
X2.8571Y-3.565
X2.8571Y-3.765
X2.8571Y-3.865
X2.8571Y-3.965
X2.8571Y-4.065
X2.8571Y-4.165
X2.8571Y-4.265
X2.8571Y-4.365
X2.8571Y-4.465
X2.8571Y-4.565
X2.8571Y-4.665
X2.8571Y-4.765
X2.8571Y-4.865
X2.8571Y-4.965
X2.8571Y-5.065
X2.8571Y-5.165
X2.9571Y-2.865
X2.9571Y-2.965
X2.9571Y-3.065
X2.9571Y-3.165
X2.9571Y-3.265
X2.9571Y-3.365
X2.9571Y-3.465
X2.9571Y-3.565
X2.9571Y-3.765
X2.9571Y-3.865
X2.9571Y-3.965
X2.9571Y-4.065
X2.9571Y-4.165
X2.9571Y-4.265
X2.9571Y-4.365
X2.9571Y-4.465
X2.9571Y-4.565
X2.9571Y-4.665
X2.9571Y-4.765
X2.9571Y-4.865
X2.9571Y-4.965
X2.9571Y-5.065
X2.9571Y-5.165
X4.6571Y-2.505
X4.6571Y-2.605
X4.6571Y-2.705
X4.6571Y-2.805
X4.6571Y-2.905
X4.6571Y-3.005
X4.6571Y-3.105
X4.6571Y-3.205
X4.6571Y-3.305
X4.6571Y-3.405
X4.6571Y-3.565
X4.6571Y-3.665
X4.6571Y-3.765
X4.6571Y-3.865
X4.6571Y-3.965
X4.6571Y-4.065
X4.6571Y-4.165
X4.6571Y-4.265
X4.6571Y-4.365
X4.6571Y-4.465
X4.6571Y-4.565
X4.6571Y-4.665
X4.6571Y-4.765
X4.6571Y-4.865
X4.6571Y-4.965
X4.6571Y-5.065
X4.6571Y-5.165
X4.7571Y-2.505
X4.7571Y-2.605
X4.7571Y-2.705
X4.7571Y-2.805
X4.7571Y-2.905
X4.7571Y-3.005
X4.7571Y-3.105
X4.7571Y-3.205
X4.7571Y-3.305
X4.7571Y-3.405
X4.7571Y-3.565
X4.7571Y-3.665
X4.7571Y-3.765
X4.7571Y-3.865
X4.7571Y-3.965
X4.7571Y-4.065
X4.7571Y-4.165
X4.7571Y-4.265
X4.7571Y-4.365
X4.7571Y-4.465
X4.7571Y-4.565
X4.7571Y-4.665
X4.7571Y-4.765
X4.7571Y-4.865
X4.7571Y-4.965
X4.7571Y-5.065
X4.7571Y-5.165
T8
X3.7362Y-4.6752
X3.9154Y-4.6752
T5
G00X3.2339Y-2.5098
M15
G01X3.2339Y-2.4469
M16
G05
G00X3.6827Y-2.5098
M15
G01X3.6827Y-2.4469
M16
G05
G00X4.0157Y-2.5118
M15
G01X4.0157Y-2.4488
M16
G05
G00X4.4646Y-2.5118
M15
G01X4.4646Y-2.4488
M16
G05
M30
