%TF.GenerationSoftware,KiCad,Pcbnew,9.0.4+dfsg-1*%
%TF.CreationDate,2025-09-25T11:08:23-07:00*%
%TF.ProjectId,7SDD,37534444-2e6b-4696-9361-645f70636258,1*%
%TF.SameCoordinates,Original*%
%TF.FileFunction,Soldermask,Bot*%
%TF.FilePolarity,Negative*%
%FSLAX46Y46*%
G04 Gerber Fmt 4.6, Leading zero omitted, Abs format (unit mm)*
G04 Created by KiCad (PCBNEW 9.0.4+dfsg-1) date 2025-09-25 11:08:23*
%MOMM*%
%LPD*%
G01*
G04 APERTURE LIST*
%ADD10C,0.900000*%
%ADD11R,1.600000X1.600000*%
%ADD12C,1.600000*%
%ADD13R,1.700000X1.700000*%
%ADD14C,1.700000*%
G04 APERTURE END LIST*
D10*
%TO.C,SW1*%
X182170000Y-105200000D03*
X182170000Y-102200000D03*
%TD*%
D11*
%TO.C,U7*%
X210665000Y-112930000D03*
D12*
X210665000Y-115470000D03*
X210665000Y-118010000D03*
X210665000Y-120550000D03*
X210665000Y-123090000D03*
X215745000Y-123090000D03*
X215745000Y-120550000D03*
X215745000Y-118010000D03*
X215745000Y-115470000D03*
X215745000Y-112930000D03*
%TD*%
D13*
%TO.C,J4*%
X193630000Y-87750000D03*
D14*
X196170000Y-87750000D03*
X198710000Y-87750000D03*
X201250000Y-87750000D03*
%TD*%
D13*
%TO.C,J2*%
X207240000Y-87750000D03*
D14*
X209780000Y-87750000D03*
X212320000Y-87750000D03*
X214860000Y-87750000D03*
%TD*%
D11*
%TO.C,U5*%
X201350000Y-112930000D03*
D12*
X201350000Y-115470000D03*
X201350000Y-118010000D03*
X201350000Y-120550000D03*
X201350000Y-123090000D03*
X206430000Y-123090000D03*
X206430000Y-120550000D03*
X206430000Y-118010000D03*
X206430000Y-115470000D03*
X206430000Y-112930000D03*
%TD*%
D11*
%TO.C,U4*%
X192035000Y-112930000D03*
D12*
X192035000Y-115470000D03*
X192035000Y-118010000D03*
X192035000Y-120550000D03*
X192035000Y-123090000D03*
X197115000Y-123090000D03*
X197115000Y-120550000D03*
X197115000Y-118010000D03*
X197115000Y-115470000D03*
X197115000Y-112930000D03*
%TD*%
D11*
%TO.C,U3*%
X182720000Y-112930000D03*
D12*
X182720000Y-115470000D03*
X182720000Y-118010000D03*
X182720000Y-120550000D03*
X182720000Y-123090000D03*
X187800000Y-123090000D03*
X187800000Y-120550000D03*
X187800000Y-118010000D03*
X187800000Y-115470000D03*
X187800000Y-112930000D03*
%TD*%
M02*
