%TF.GenerationSoftware,KiCad,Pcbnew,9.0.4+dfsg-1*%
%TF.CreationDate,2025-09-25T11:08:23-07:00*%
%TF.ProjectId,7SDD,37534444-2e6b-4696-9361-645f70636258,1*%
%TF.SameCoordinates,Original*%
%TF.FileFunction,Soldermask,Top*%
%TF.FilePolarity,Negative*%
%FSLAX46Y46*%
G04 Gerber Fmt 4.6, Leading zero omitted, Abs format (unit mm)*
G04 Created by KiCad (PCBNEW 9.0.4+dfsg-1) date 2025-09-25 11:08:23*
%MOMM*%
%LPD*%
G01*
G04 APERTURE LIST*
G04 Aperture macros list*
%AMRoundRect*
0 Rectangle with rounded corners*
0 $1 Rounding radius*
0 $2 $3 $4 $5 $6 $7 $8 $9 X,Y pos of 4 corners*
0 Add a 4 corners polygon primitive as box body*
4,1,4,$2,$3,$4,$5,$6,$7,$8,$9,$2,$3,0*
0 Add four circle primitives for the rounded corners*
1,1,$1+$1,$2,$3*
1,1,$1+$1,$4,$5*
1,1,$1+$1,$6,$7*
1,1,$1+$1,$8,$9*
0 Add four rect primitives between the rounded corners*
20,1,$1+$1,$2,$3,$4,$5,0*
20,1,$1+$1,$4,$5,$6,$7,0*
20,1,$1+$1,$6,$7,$8,$9,0*
20,1,$1+$1,$8,$9,$2,$3,0*%
G04 Aperture macros list end*
%ADD10RoundRect,0.140000X0.140000X0.170000X-0.140000X0.170000X-0.140000X-0.170000X0.140000X-0.170000X0*%
%ADD11RoundRect,0.140000X-0.140000X-0.170000X0.140000X-0.170000X0.140000X0.170000X-0.140000X0.170000X0*%
%ADD12RoundRect,0.218750X0.218750X0.256250X-0.218750X0.256250X-0.218750X-0.256250X0.218750X-0.256250X0*%
%ADD13RoundRect,0.135000X-0.135000X-0.185000X0.135000X-0.185000X0.135000X0.185000X-0.135000X0.185000X0*%
%ADD14RoundRect,0.250000X0.475000X-0.250000X0.475000X0.250000X-0.475000X0.250000X-0.475000X-0.250000X0*%
%ADD15RoundRect,0.250000X-0.475000X0.250000X-0.475000X-0.250000X0.475000X-0.250000X0.475000X0.250000X0*%
%ADD16RoundRect,0.375000X0.625000X0.375000X-0.625000X0.375000X-0.625000X-0.375000X0.625000X-0.375000X0*%
%ADD17RoundRect,0.500000X0.500000X1.400000X-0.500000X1.400000X-0.500000X-1.400000X0.500000X-1.400000X0*%
%ADD18RoundRect,0.135000X0.135000X0.185000X-0.135000X0.185000X-0.135000X-0.185000X0.135000X-0.185000X0*%
%ADD19RoundRect,0.250000X-0.350000X0.450000X-0.350000X-0.450000X0.350000X-0.450000X0.350000X0.450000X0*%
%ADD20RoundRect,0.218750X-0.256250X0.218750X-0.256250X-0.218750X0.256250X-0.218750X0.256250X0.218750X0*%
%ADD21R,1.500000X0.700000*%
%ADD22R,0.800000X1.000000*%
%ADD23RoundRect,0.225000X-0.225000X-0.250000X0.225000X-0.250000X0.225000X0.250000X-0.225000X0.250000X0*%
%ADD24R,1.380000X0.450000*%
%ADD25R,1.300000X1.650000*%
%ADD26R,1.550000X1.425000*%
%ADD27R,1.900000X1.800000*%
%ADD28R,1.900000X1.000000*%
%ADD29R,1.600000X1.600000*%
%ADD30C,1.600000*%
%ADD31RoundRect,0.075000X-0.662500X-0.075000X0.662500X-0.075000X0.662500X0.075000X-0.662500X0.075000X0*%
%ADD32RoundRect,0.075000X-0.075000X-0.662500X0.075000X-0.662500X0.075000X0.662500X-0.075000X0.662500X0*%
%ADD33RoundRect,0.140000X-0.170000X0.140000X-0.170000X-0.140000X0.170000X-0.140000X0.170000X0.140000X0*%
%ADD34RoundRect,0.135000X-0.185000X0.135000X-0.185000X-0.135000X0.185000X-0.135000X0.185000X0.135000X0*%
%ADD35R,1.700000X1.700000*%
%ADD36C,1.700000*%
G04 APERTURE END LIST*
D10*
%TO.C,C3*%
X188430000Y-101750000D03*
X187470000Y-101750000D03*
%TD*%
D11*
%TO.C,C12*%
X185075000Y-89175000D03*
X186035000Y-89175000D03*
%TD*%
%TO.C,C13*%
X185045000Y-90975000D03*
X186005000Y-90975000D03*
%TD*%
D12*
%TO.C,D2*%
X212355000Y-92145000D03*
X213930000Y-92145000D03*
%TD*%
%TO.C,D3*%
X212355000Y-94885000D03*
X213930000Y-94885000D03*
%TD*%
D13*
%TO.C,R8*%
X217115000Y-92150000D03*
X216095000Y-92150000D03*
%TD*%
%TO.C,R10*%
X217125000Y-97625000D03*
X216105000Y-97625000D03*
%TD*%
D12*
%TO.C,D4*%
X212365000Y-97625000D03*
X213940000Y-97625000D03*
%TD*%
D13*
%TO.C,R9*%
X217115000Y-94875000D03*
X216095000Y-94875000D03*
%TD*%
D14*
%TO.C,C1*%
X209825000Y-103700000D03*
X209825000Y-101800000D03*
%TD*%
D15*
%TO.C,C2*%
X209825000Y-108562500D03*
X209825000Y-106662500D03*
%TD*%
D16*
%TO.C,U1*%
X206975000Y-108462500D03*
X206975000Y-106162500D03*
D17*
X200675000Y-106162500D03*
D16*
X206975000Y-103862500D03*
%TD*%
D18*
%TO.C,R1*%
X209135000Y-92150000D03*
X208115000Y-92150000D03*
%TD*%
D10*
%TO.C,C7*%
X185820000Y-97225000D03*
X186780000Y-97225000D03*
%TD*%
D13*
%TO.C,R4*%
X188060000Y-104450000D03*
X187040000Y-104450000D03*
%TD*%
D10*
%TO.C,C9*%
X185840000Y-92825000D03*
X186800000Y-92825000D03*
%TD*%
D19*
%TO.C,Y1*%
X183850000Y-94875000D03*
X183850000Y-97075000D03*
X182150000Y-97075000D03*
X182150000Y-94875000D03*
%TD*%
D10*
%TO.C,C4*%
X185820000Y-94825000D03*
X186780000Y-94825000D03*
%TD*%
D20*
%TO.C,FB1*%
X182400000Y-91325000D03*
X182400000Y-89750000D03*
%TD*%
D11*
%TO.C,C11*%
X183530000Y-87875000D03*
X182570000Y-87875000D03*
%TD*%
D21*
%TO.C,SW1*%
X183930000Y-105950000D03*
X183930000Y-104450000D03*
X183930000Y-101450000D03*
D22*
X181070000Y-107350000D03*
X183280000Y-107350000D03*
X181070000Y-100050000D03*
X183280000Y-100050000D03*
%TD*%
D23*
%TO.C,C5*%
X189525000Y-88050000D03*
X187975000Y-88050000D03*
%TD*%
D12*
%TO.C,D1*%
X204862500Y-92140000D03*
X206437500Y-92140000D03*
%TD*%
D24*
%TO.C,J3*%
X214690000Y-106400000D03*
X214690000Y-105750000D03*
X214690000Y-105100000D03*
X214690000Y-104450000D03*
X214690000Y-103800000D03*
D25*
X217350000Y-108475000D03*
D26*
X214775000Y-107587500D03*
D27*
X217350000Y-106250000D03*
D28*
X217350000Y-103550000D03*
D26*
X214775000Y-102612500D03*
D25*
X217350000Y-101725000D03*
%TD*%
D11*
%TO.C,C8*%
X188270000Y-90575000D03*
X189230000Y-90575000D03*
%TD*%
D29*
%TO.C,U7*%
X210665000Y-112930000D03*
D30*
X210665000Y-115470000D03*
X210665000Y-118010000D03*
X210665000Y-120550000D03*
X210665000Y-123090000D03*
X215745000Y-123090000D03*
X215745000Y-120550000D03*
X215745000Y-118010000D03*
X215745000Y-115470000D03*
X215745000Y-112930000D03*
%TD*%
D31*
%TO.C,U2*%
X188987500Y-94400000D03*
X188987500Y-94900000D03*
X188987500Y-95400000D03*
X188987500Y-95900000D03*
X188987500Y-96400000D03*
X188987500Y-96900000D03*
X188987500Y-97400000D03*
X188987500Y-97900000D03*
X188987500Y-98400000D03*
X188987500Y-98900000D03*
X188987500Y-99400000D03*
X188987500Y-99900000D03*
D32*
X190400000Y-101312500D03*
X190900000Y-101312500D03*
X191400000Y-101312500D03*
X191900000Y-101312500D03*
X192400000Y-101312500D03*
X192900000Y-101312500D03*
X193400000Y-101312500D03*
X193900000Y-101312500D03*
X194400000Y-101312500D03*
X194900000Y-101312500D03*
X195400000Y-101312500D03*
X195900000Y-101312500D03*
D31*
X197312500Y-99900000D03*
X197312500Y-99400000D03*
X197312500Y-98900000D03*
X197312500Y-98400000D03*
X197312500Y-97900000D03*
X197312500Y-97400000D03*
X197312500Y-96900000D03*
X197312500Y-96400000D03*
X197312500Y-95900000D03*
X197312500Y-95400000D03*
X197312500Y-94900000D03*
X197312500Y-94400000D03*
D32*
X195900000Y-92987500D03*
X195400000Y-92987500D03*
X194900000Y-92987500D03*
X194400000Y-92987500D03*
X193900000Y-92987500D03*
X193400000Y-92987500D03*
X192900000Y-92987500D03*
X192400000Y-92987500D03*
X191900000Y-92987500D03*
X191400000Y-92987500D03*
X190900000Y-92987500D03*
X190400000Y-92987500D03*
%TD*%
D33*
%TO.C,C6*%
X199350000Y-94170000D03*
X199350000Y-95130000D03*
%TD*%
D34*
%TO.C,R5*%
X201650000Y-94730000D03*
X201650000Y-95750000D03*
%TD*%
D33*
%TO.C,C10*%
X196250000Y-103490000D03*
X196250000Y-104450000D03*
%TD*%
D13*
%TO.C,R6*%
X196040000Y-126483333D03*
X197060000Y-126483333D03*
%TD*%
%TO.C,R2*%
X214690000Y-126450000D03*
X215710000Y-126450000D03*
%TD*%
D35*
%TO.C,J4*%
X193630000Y-87750000D03*
D36*
X196170000Y-87750000D03*
X198710000Y-87750000D03*
X201250000Y-87750000D03*
%TD*%
D35*
%TO.C,J2*%
X207240000Y-87750000D03*
D36*
X209780000Y-87750000D03*
X212320000Y-87750000D03*
X214860000Y-87750000D03*
%TD*%
D29*
%TO.C,U5*%
X201350000Y-112930000D03*
D30*
X201350000Y-115470000D03*
X201350000Y-118010000D03*
X201350000Y-120550000D03*
X201350000Y-123090000D03*
X206430000Y-123090000D03*
X206430000Y-120550000D03*
X206430000Y-118010000D03*
X206430000Y-115470000D03*
X206430000Y-112930000D03*
%TD*%
D29*
%TO.C,U4*%
X192035000Y-112930000D03*
D30*
X192035000Y-115470000D03*
X192035000Y-118010000D03*
X192035000Y-120550000D03*
X192035000Y-123090000D03*
X197115000Y-123090000D03*
X197115000Y-120550000D03*
X197115000Y-118010000D03*
X197115000Y-115470000D03*
X197115000Y-112930000D03*
%TD*%
D13*
%TO.C,R7*%
X205390000Y-126466667D03*
X206410000Y-126466667D03*
%TD*%
%TO.C,R3*%
X186740000Y-126500000D03*
X187760000Y-126500000D03*
%TD*%
D29*
%TO.C,U3*%
X182720000Y-112930000D03*
D30*
X182720000Y-115470000D03*
X182720000Y-118010000D03*
X182720000Y-120550000D03*
X182720000Y-123090000D03*
X187800000Y-123090000D03*
X187800000Y-120550000D03*
X187800000Y-118010000D03*
X187800000Y-115470000D03*
X187800000Y-112930000D03*
%TD*%
M02*
