%TF.GenerationSoftware,KiCad,Pcbnew,9.0.4+dfsg-1*%
%TF.CreationDate,2025-09-25T11:08:23-07:00*%
%TF.ProjectId,7SDD,37534444-2e6b-4696-9361-645f70636258,1*%
%TF.SameCoordinates,Original*%
%TF.FileFunction,Copper,L2,Inr*%
%TF.FilePolarity,Positive*%
%FSLAX46Y46*%
G04 Gerber Fmt 4.6, Leading zero omitted, Abs format (unit mm)*
G04 Created by KiCad (PCBNEW 9.0.4+dfsg-1) date 2025-09-25 11:08:23*
%MOMM*%
%LPD*%
G01*
G04 APERTURE LIST*
%TA.AperFunction,ComponentPad*%
%ADD10R,1.600000X1.600000*%
%TD*%
%TA.AperFunction,ComponentPad*%
%ADD11C,1.600000*%
%TD*%
%TA.AperFunction,ComponentPad*%
%ADD12R,1.700000X1.700000*%
%TD*%
%TA.AperFunction,ComponentPad*%
%ADD13C,1.700000*%
%TD*%
%TA.AperFunction,ViaPad*%
%ADD14C,0.600000*%
%TD*%
%TA.AperFunction,Conductor*%
%ADD15C,0.300000*%
%TD*%
G04 APERTURE END LIST*
D10*
%TO.N,unconnected-(U7-CA-Pad1)*%
%TO.C,U7*%
X210665000Y-112930000D03*
D11*
%TO.N,/SEG_F*%
X210665000Y-115470000D03*
%TO.N,/SEG_G*%
X210665000Y-118010000D03*
%TO.N,/SEG_E*%
X210665000Y-120550000D03*
%TO.N,/SEG_D*%
X210665000Y-123090000D03*
%TO.N,Net-(R2-Pad2)*%
X215745000Y-123090000D03*
%TO.N,/SEG_DP*%
X215745000Y-120550000D03*
%TO.N,/SEG_C*%
X215745000Y-118010000D03*
%TO.N,/SEG_B*%
X215745000Y-115470000D03*
%TO.N,/SEG_A*%
X215745000Y-112930000D03*
%TD*%
D12*
%TO.N,+3.3V*%
%TO.C,J4*%
X193630000Y-87750000D03*
D13*
%TO.N,/STM32F103/SWDIO*%
X196170000Y-87750000D03*
%TO.N,/STM32F103/SWCLK*%
X198710000Y-87750000D03*
%TO.N,GND*%
X201250000Y-87750000D03*
%TD*%
D12*
%TO.N,+3.3V*%
%TO.C,J2*%
X207240000Y-87750000D03*
D13*
%TO.N,/STM32F103/USART1_TX*%
X209780000Y-87750000D03*
%TO.N,/STM32F103/USART1_RX*%
X212320000Y-87750000D03*
%TO.N,GND*%
X214860000Y-87750000D03*
%TD*%
D10*
%TO.N,unconnected-(U5-CA-Pad1)*%
%TO.C,U5*%
X201350000Y-112930000D03*
D11*
%TO.N,/SEG_F*%
X201350000Y-115470000D03*
%TO.N,/SEG_G*%
X201350000Y-118010000D03*
%TO.N,/SEG_E*%
X201350000Y-120550000D03*
%TO.N,/SEG_D*%
X201350000Y-123090000D03*
%TO.N,Net-(R7-Pad2)*%
X206430000Y-123090000D03*
%TO.N,/SEG_DP*%
X206430000Y-120550000D03*
%TO.N,/SEG_C*%
X206430000Y-118010000D03*
%TO.N,/SEG_B*%
X206430000Y-115470000D03*
%TO.N,/SEG_A*%
X206430000Y-112930000D03*
%TD*%
D10*
%TO.N,unconnected-(U4-CA-Pad1)*%
%TO.C,U4*%
X192035000Y-112930000D03*
D11*
%TO.N,/SEG_F*%
X192035000Y-115470000D03*
%TO.N,/SEG_G*%
X192035000Y-118010000D03*
%TO.N,/SEG_E*%
X192035000Y-120550000D03*
%TO.N,/SEG_D*%
X192035000Y-123090000D03*
%TO.N,Net-(R6-Pad2)*%
X197115000Y-123090000D03*
%TO.N,/SEG_DP*%
X197115000Y-120550000D03*
%TO.N,/SEG_C*%
X197115000Y-118010000D03*
%TO.N,/SEG_B*%
X197115000Y-115470000D03*
%TO.N,/SEG_A*%
X197115000Y-112930000D03*
%TD*%
D10*
%TO.N,unconnected-(U3-CA-Pad1)*%
%TO.C,U3*%
X182720000Y-112930000D03*
D11*
%TO.N,/SEG_F*%
X182720000Y-115470000D03*
%TO.N,/SEG_G*%
X182720000Y-118010000D03*
%TO.N,/SEG_E*%
X182720000Y-120550000D03*
%TO.N,/SEG_D*%
X182720000Y-123090000D03*
%TO.N,Net-(R3-Pad2)*%
X187800000Y-123090000D03*
%TO.N,/SEG_DP*%
X187800000Y-120550000D03*
%TO.N,/SEG_C*%
X187800000Y-118010000D03*
%TO.N,/SEG_B*%
X187800000Y-115470000D03*
%TO.N,/SEG_A*%
X187800000Y-112930000D03*
%TD*%
D14*
%TO.N,/STM32F103/SWDIO*%
X195850000Y-94350000D03*
%TO.N,/STM32F103/SWCLK*%
X198700000Y-91975000D03*
%TO.N,/STM32F103/LED1*%
X190850000Y-95225000D03*
%TO.N,/SEG_A*%
X192875000Y-95600000D03*
%TO.N,/SEG_DP*%
X198650000Y-120525000D03*
X200350000Y-98750000D03*
%TO.N,/SEG_G*%
X199100000Y-99450000D03*
%TO.N,+3.3V*%
X189300000Y-92725000D03*
%TO.N,/STM32F103/LED1*%
X195500000Y-95750000D03*
%TO.N,/STM32F103/LED2*%
X191425000Y-96525000D03*
%TO.N,/STM32F103/LED3*%
X191350000Y-97600000D03*
X211125000Y-97625000D03*
%TO.N,/STM32F103/LED2*%
X208175000Y-94875000D03*
%TO.N,/STM32F103/LED1*%
X211100000Y-91225000D03*
%TO.N,GND*%
X187450000Y-98025000D03*
%TO.N,/STM32F103/NRST*%
X188450000Y-100750000D03*
X190200000Y-97600000D03*
%TO.N,+3.3V*%
X203645000Y-125858334D03*
X212985000Y-125866667D03*
X184985000Y-125891667D03*
X194325000Y-125900000D03*
%TO.N,/SEG_E*%
X194500000Y-119210000D03*
X197225000Y-101550000D03*
%TO.N,/SEG_G*%
X184000000Y-116750000D03*
%TO.N,/SEG_D*%
X191450000Y-106375000D03*
X181225000Y-110575000D03*
%TO.N,GND*%
X196025000Y-105475000D03*
%TO.N,/SEG_C*%
X189400000Y-118025000D03*
X190300000Y-110225000D03*
%TO.N,/STM32F103/USART1_TX*%
X207625000Y-90875000D03*
%TO.N,+3.3V*%
X186050000Y-105975000D03*
%TO.N,GND*%
X186250000Y-101525000D03*
X182950000Y-98400000D03*
X186600000Y-95775000D03*
X185275000Y-98125000D03*
X183975000Y-86850000D03*
X185675000Y-87925000D03*
X186925000Y-90575000D03*
%TO.N,+3.3V*%
X187850000Y-92700000D03*
%TO.N,GND*%
X184900000Y-93025000D03*
%TO.N,+3.3V*%
X184600000Y-92000000D03*
X182800000Y-92575000D03*
X188813689Y-89557494D03*
X187525000Y-86825000D03*
%TO.N,GND*%
X189950000Y-86800000D03*
X190400000Y-90325000D03*
X191200000Y-91200000D03*
%TO.N,/SEG_B*%
X190800000Y-103025000D03*
%TO.N,/SEG_A*%
X191850000Y-103175000D03*
%TO.N,/SEG_F*%
X185200000Y-108950000D03*
X195562500Y-99462500D03*
%TO.N,+3.3V*%
X202950000Y-94150000D03*
X203550000Y-92750000D03*
%TO.N,GND*%
X209625000Y-93275000D03*
X215115000Y-94150000D03*
X215130000Y-91425000D03*
X215140000Y-96900000D03*
%TO.N,+3.3V*%
X198550000Y-105075000D03*
X198550000Y-106150000D03*
X198550000Y-107425000D03*
%TO.N,GND*%
X211750000Y-108975000D03*
X211750000Y-108125000D03*
X209125000Y-100475000D03*
X200500000Y-94925000D03*
X213100000Y-103350000D03*
%TO.N,/SEG_B*%
X191762500Y-95762500D03*
%TD*%
D15*
%TO.N,/STM32F103/LED1*%
X190850000Y-95225000D02*
X191250000Y-94825000D01*
X191250000Y-94825000D02*
X194575000Y-94825000D01*
X194575000Y-94825000D02*
X195500000Y-95750000D01*
%TO.N,/SEG_B*%
X191762500Y-95762500D02*
X192075000Y-96075000D01*
X192075000Y-96075000D02*
X192075000Y-101750000D01*
X192075000Y-101750000D02*
X190800000Y-103025000D01*
%TO.N,/SEG_DP*%
X200350000Y-98750000D02*
X200350000Y-109875000D01*
X200350000Y-109875000D02*
X199375000Y-110850000D01*
X199375000Y-110850000D02*
X199375000Y-119800000D01*
X199375000Y-119800000D02*
X198650000Y-120525000D01*
%TO.N,/SEG_G*%
X199100000Y-99450000D02*
X199100000Y-101325000D01*
X199100000Y-101325000D02*
X197125000Y-103300000D01*
X197125000Y-103300000D02*
X195825000Y-103300000D01*
X195825000Y-103300000D02*
X187600000Y-111525000D01*
X187600000Y-111525000D02*
X185475000Y-111525000D01*
X185475000Y-111525000D02*
X184000000Y-113000000D01*
X184000000Y-113000000D02*
X184000000Y-116750000D01*
%TO.N,/STM32F103/NRST*%
X190200000Y-99000000D02*
X188450000Y-100750000D01*
X190200000Y-97600000D02*
X190200000Y-99000000D01*
%TO.N,/SEG_D*%
X187250000Y-110575000D02*
X191425000Y-106400000D01*
X181225000Y-110575000D02*
X187250000Y-110575000D01*
%TO.N,/SEG_C*%
X190300000Y-117125000D02*
X189400000Y-118025000D01*
X190300000Y-110225000D02*
X190300000Y-117125000D01*
%TO.N,/SEG_A*%
X192875000Y-95725000D02*
X193975000Y-96825000D01*
X192875000Y-95600000D02*
X192875000Y-95725000D01*
X193975000Y-96825000D02*
X193975000Y-101050000D01*
X193975000Y-101050000D02*
X191850000Y-103175000D01*
%TD*%
%TA.AperFunction,Conductor*%
%TO.N,+3.3V*%
G36*
X217942256Y-86025867D02*
G01*
X217981033Y-86040935D01*
X217996445Y-86048179D01*
X218100513Y-86106136D01*
X218114796Y-86115431D01*
X218167882Y-86155428D01*
X218209924Y-86187104D01*
X218222798Y-86198270D01*
X218284017Y-86259226D01*
X218300159Y-86275298D01*
X218302487Y-86277679D01*
X218313938Y-86289711D01*
X218318367Y-86294364D01*
X218321857Y-86298189D01*
X218325980Y-86302901D01*
X218333015Y-86310942D01*
X218336049Y-86314546D01*
X218402651Y-86396814D01*
X218413858Y-86413182D01*
X218468379Y-86508339D01*
X218476838Y-86526298D01*
X218491556Y-86565396D01*
X218499506Y-86609085D01*
X218498413Y-127270060D01*
X218490148Y-127314571D01*
X218473743Y-127357223D01*
X218466487Y-127372778D01*
X218407612Y-127479101D01*
X218398279Y-127493504D01*
X218325287Y-127590679D01*
X218314055Y-127603655D01*
X218234160Y-127683975D01*
X218231734Y-127686348D01*
X218216267Y-127701069D01*
X218212428Y-127704572D01*
X218199662Y-127715741D01*
X218196038Y-127718792D01*
X218175381Y-127735516D01*
X218110891Y-127762400D01*
X218098418Y-127763136D01*
X202164252Y-127899658D01*
X202163327Y-127899663D01*
X180720268Y-127923328D01*
X180713562Y-127922074D01*
X180709602Y-127922880D01*
X180675220Y-127914909D01*
X180636462Y-127899849D01*
X180621044Y-127892602D01*
X180516983Y-127834645D01*
X180502702Y-127825351D01*
X180407573Y-127753677D01*
X180394698Y-127742510D01*
X180317067Y-127665211D01*
X180314738Y-127662829D01*
X180299121Y-127646420D01*
X180295618Y-127642581D01*
X180284417Y-127629778D01*
X180281381Y-127626171D01*
X180214818Y-127543955D01*
X180203615Y-127527595D01*
X180149084Y-127432424D01*
X180140630Y-127414474D01*
X180125936Y-127375440D01*
X180117987Y-127331757D01*
X180118436Y-110496153D01*
X180424500Y-110496153D01*
X180424500Y-110653846D01*
X180455261Y-110808489D01*
X180455264Y-110808501D01*
X180515602Y-110954172D01*
X180515609Y-110954185D01*
X180603210Y-111085288D01*
X180603213Y-111085292D01*
X180714707Y-111196786D01*
X180714711Y-111196789D01*
X180845814Y-111284390D01*
X180845827Y-111284397D01*
X180991498Y-111344735D01*
X180991503Y-111344737D01*
X181104165Y-111367147D01*
X181146153Y-111375499D01*
X181146156Y-111375500D01*
X181146158Y-111375500D01*
X181303844Y-111375500D01*
X181303845Y-111375499D01*
X181458497Y-111344737D01*
X181604179Y-111284394D01*
X181661044Y-111246397D01*
X181727721Y-111225520D01*
X181729935Y-111225500D01*
X184555192Y-111225500D01*
X184622231Y-111245185D01*
X184667986Y-111297989D01*
X184677930Y-111367147D01*
X184648905Y-111430703D01*
X184642873Y-111437181D01*
X184161658Y-111918394D01*
X184100335Y-111951879D01*
X184030643Y-111946895D01*
X183974710Y-111905023D01*
X183965142Y-111890135D01*
X183963792Y-111887662D01*
X183877547Y-111772455D01*
X183877544Y-111772452D01*
X183762335Y-111686206D01*
X183762328Y-111686202D01*
X183627482Y-111635908D01*
X183627483Y-111635908D01*
X183567883Y-111629501D01*
X183567881Y-111629500D01*
X183567873Y-111629500D01*
X183567864Y-111629500D01*
X181872129Y-111629500D01*
X181872123Y-111629501D01*
X181812516Y-111635908D01*
X181677671Y-111686202D01*
X181677664Y-111686206D01*
X181562455Y-111772452D01*
X181562452Y-111772455D01*
X181476206Y-111887664D01*
X181476202Y-111887671D01*
X181425908Y-112022517D01*
X181421691Y-112061746D01*
X181419501Y-112082123D01*
X181419500Y-112082135D01*
X181419500Y-113777870D01*
X181419501Y-113777876D01*
X181425908Y-113837483D01*
X181476202Y-113972328D01*
X181476206Y-113972335D01*
X181562452Y-114087544D01*
X181562455Y-114087547D01*
X181677664Y-114173793D01*
X181677671Y-114173797D01*
X181704829Y-114183926D01*
X181812517Y-114224091D01*
X181849441Y-114228060D01*
X181913989Y-114254796D01*
X181953838Y-114312188D01*
X181956333Y-114382013D01*
X181920681Y-114442102D01*
X181909071Y-114451666D01*
X181872784Y-114478030D01*
X181728028Y-114622786D01*
X181607715Y-114788386D01*
X181514781Y-114970776D01*
X181451522Y-115165465D01*
X181419500Y-115367648D01*
X181419500Y-115572351D01*
X181451522Y-115774534D01*
X181514781Y-115969223D01*
X181578691Y-116094653D01*
X181605590Y-116147444D01*
X181607715Y-116151613D01*
X181728028Y-116317213D01*
X181872786Y-116461971D01*
X182027749Y-116574556D01*
X182038390Y-116582287D01*
X182129840Y-116628883D01*
X182131080Y-116629515D01*
X182181876Y-116677490D01*
X182198671Y-116745311D01*
X182176134Y-116811446D01*
X182131080Y-116850485D01*
X182038386Y-116897715D01*
X181872786Y-117018028D01*
X181728028Y-117162786D01*
X181607715Y-117328386D01*
X181514781Y-117510776D01*
X181451522Y-117705465D01*
X181419500Y-117907648D01*
X181419500Y-118112351D01*
X181451522Y-118314534D01*
X181514781Y-118509223D01*
X181578691Y-118634653D01*
X181605590Y-118687444D01*
X181607715Y-118691613D01*
X181728028Y-118857213D01*
X181872786Y-119001971D01*
X182027749Y-119114556D01*
X182038390Y-119122287D01*
X182129840Y-119168883D01*
X182131080Y-119169515D01*
X182181876Y-119217490D01*
X182198671Y-119285311D01*
X182176134Y-119351446D01*
X182131080Y-119390485D01*
X182038386Y-119437715D01*
X181872786Y-119558028D01*
X181728028Y-119702786D01*
X181607715Y-119868386D01*
X181514781Y-120050776D01*
X181451522Y-120245465D01*
X181419500Y-120447648D01*
X181419500Y-120652351D01*
X181451522Y-120854534D01*
X181514781Y-121049223D01*
X181607715Y-121231613D01*
X181728028Y-121397213D01*
X181872786Y-121541971D01*
X182027749Y-121654556D01*
X182038390Y-121662287D01*
X182129840Y-121708883D01*
X182131080Y-121709515D01*
X182181876Y-121757490D01*
X182198671Y-121825311D01*
X182176134Y-121891446D01*
X182131080Y-121930485D01*
X182038386Y-121977715D01*
X181872786Y-122098028D01*
X181728028Y-122242786D01*
X181607715Y-122408386D01*
X181514781Y-122590776D01*
X181451522Y-122785465D01*
X181419500Y-122987648D01*
X181419500Y-123192351D01*
X181451522Y-123394534D01*
X181514781Y-123589223D01*
X181607715Y-123771613D01*
X181728028Y-123937213D01*
X181872786Y-124081971D01*
X182027749Y-124194556D01*
X182038390Y-124202287D01*
X182154607Y-124261503D01*
X182220776Y-124295218D01*
X182220778Y-124295218D01*
X182220781Y-124295220D01*
X182325137Y-124329127D01*
X182415465Y-124358477D01*
X182516557Y-124374488D01*
X182617648Y-124390500D01*
X182617649Y-124390500D01*
X182822351Y-124390500D01*
X182822352Y-124390500D01*
X183024534Y-124358477D01*
X183219219Y-124295220D01*
X183401610Y-124202287D01*
X183494590Y-124134732D01*
X183567213Y-124081971D01*
X183567215Y-124081968D01*
X183567219Y-124081966D01*
X183711966Y-123937219D01*
X183711968Y-123937215D01*
X183711971Y-123937213D01*
X183764732Y-123864590D01*
X183832287Y-123771610D01*
X183925220Y-123589219D01*
X183988477Y-123394534D01*
X184020500Y-123192352D01*
X184020500Y-122987648D01*
X183988477Y-122785466D01*
X183925220Y-122590781D01*
X183925218Y-122590778D01*
X183925218Y-122590776D01*
X183891503Y-122524607D01*
X183832287Y-122408390D01*
X183824556Y-122397749D01*
X183711971Y-122242786D01*
X183567213Y-122098028D01*
X183401614Y-121977715D01*
X183395006Y-121974348D01*
X183308917Y-121930483D01*
X183258123Y-121882511D01*
X183241328Y-121814690D01*
X183263865Y-121748555D01*
X183308917Y-121709516D01*
X183401610Y-121662287D01*
X183422770Y-121646913D01*
X183567213Y-121541971D01*
X183567215Y-121541968D01*
X183567219Y-121541966D01*
X183711966Y-121397219D01*
X183711968Y-121397215D01*
X183711971Y-121397213D01*
X183764732Y-121324590D01*
X183832287Y-121231610D01*
X183925220Y-121049219D01*
X183988477Y-120854534D01*
X184020500Y-120652352D01*
X184020500Y-120447648D01*
X183988477Y-120245466D01*
X183986574Y-120239610D01*
X183925218Y-120050776D01*
X183858276Y-119919397D01*
X183832287Y-119868390D01*
X183805693Y-119831786D01*
X183711971Y-119702786D01*
X183567213Y-119558028D01*
X183401614Y-119437715D01*
X183395006Y-119434348D01*
X183308917Y-119390483D01*
X183258123Y-119342511D01*
X183241328Y-119274690D01*
X183263865Y-119208555D01*
X183308917Y-119169516D01*
X183401610Y-119122287D01*
X183422770Y-119106913D01*
X183567213Y-119001971D01*
X183567215Y-119001968D01*
X183567219Y-119001966D01*
X183711966Y-118857219D01*
X183711968Y-118857215D01*
X183711971Y-118857213D01*
X183776758Y-118768040D01*
X183832287Y-118691610D01*
X183925220Y-118509219D01*
X183988477Y-118314534D01*
X184020500Y-118112352D01*
X184020500Y-117907648D01*
X183988477Y-117705466D01*
X183988474Y-117705457D01*
X183987340Y-117700731D01*
X183989535Y-117700203D01*
X183987776Y-117639725D01*
X184023825Y-117579873D01*
X184083528Y-117549568D01*
X184106986Y-117544901D01*
X184233497Y-117519737D01*
X184379179Y-117459394D01*
X184510289Y-117371789D01*
X184621789Y-117260289D01*
X184709394Y-117129179D01*
X184769737Y-116983497D01*
X184800500Y-116828842D01*
X184800500Y-116671158D01*
X184800500Y-116671155D01*
X184800499Y-116671153D01*
X184782822Y-116582284D01*
X184769737Y-116516503D01*
X184745094Y-116457008D01*
X184709397Y-116370828D01*
X184709396Y-116370827D01*
X184709394Y-116370821D01*
X184671396Y-116313953D01*
X184650520Y-116247276D01*
X184650500Y-116245064D01*
X184650500Y-113320808D01*
X184670185Y-113253769D01*
X184686819Y-113233127D01*
X185708127Y-112211819D01*
X185769450Y-112178334D01*
X185795808Y-112175500D01*
X186522502Y-112175500D01*
X186589541Y-112195185D01*
X186635296Y-112247989D01*
X186645240Y-112317147D01*
X186632987Y-112355795D01*
X186594782Y-112430776D01*
X186531522Y-112625465D01*
X186499500Y-112827648D01*
X186499500Y-113032351D01*
X186531522Y-113234534D01*
X186594781Y-113429223D01*
X186687715Y-113611613D01*
X186808028Y-113777213D01*
X186952786Y-113921971D01*
X187107749Y-114034556D01*
X187118390Y-114042287D01*
X187207212Y-114087544D01*
X187211080Y-114089515D01*
X187261876Y-114137490D01*
X187278671Y-114205311D01*
X187256134Y-114271446D01*
X187211080Y-114310485D01*
X187118386Y-114357715D01*
X186952786Y-114478028D01*
X186808028Y-114622786D01*
X186687715Y-114788386D01*
X186594781Y-114970776D01*
X186531522Y-115165465D01*
X186499500Y-115367648D01*
X186499500Y-115572351D01*
X186531522Y-115774534D01*
X186594781Y-115969223D01*
X186658691Y-116094653D01*
X186685590Y-116147444D01*
X186687715Y-116151613D01*
X186808028Y-116317213D01*
X186952786Y-116461971D01*
X187107749Y-116574556D01*
X187118390Y-116582287D01*
X187209840Y-116628883D01*
X187211080Y-116629515D01*
X187261876Y-116677490D01*
X187278671Y-116745311D01*
X187256134Y-116811446D01*
X187211080Y-116850485D01*
X187118386Y-116897715D01*
X186952786Y-117018028D01*
X186808028Y-117162786D01*
X186687715Y-117328386D01*
X186594781Y-117510776D01*
X186531522Y-117705465D01*
X186499500Y-117907648D01*
X186499500Y-118112351D01*
X186531522Y-118314534D01*
X186594781Y-118509223D01*
X186658691Y-118634653D01*
X186685590Y-118687444D01*
X186687715Y-118691613D01*
X186808028Y-118857213D01*
X186952786Y-119001971D01*
X187107749Y-119114556D01*
X187118390Y-119122287D01*
X187209840Y-119168883D01*
X187211080Y-119169515D01*
X187261876Y-119217490D01*
X187278671Y-119285311D01*
X187256134Y-119351446D01*
X187211080Y-119390485D01*
X187118386Y-119437715D01*
X186952786Y-119558028D01*
X186808028Y-119702786D01*
X186687715Y-119868386D01*
X186594781Y-120050776D01*
X186531522Y-120245465D01*
X186499500Y-120447648D01*
X186499500Y-120652351D01*
X186531522Y-120854534D01*
X186594781Y-121049223D01*
X186687715Y-121231613D01*
X186808028Y-121397213D01*
X186952786Y-121541971D01*
X187107749Y-121654556D01*
X187118390Y-121662287D01*
X187209840Y-121708883D01*
X187211080Y-121709515D01*
X187261876Y-121757490D01*
X187278671Y-121825311D01*
X187256134Y-121891446D01*
X187211080Y-121930485D01*
X187118386Y-121977715D01*
X186952786Y-122098028D01*
X186808028Y-122242786D01*
X186687715Y-122408386D01*
X186594781Y-122590776D01*
X186531522Y-122785465D01*
X186499500Y-122987648D01*
X186499500Y-123192351D01*
X186531522Y-123394534D01*
X186594781Y-123589223D01*
X186687715Y-123771613D01*
X186808028Y-123937213D01*
X186952786Y-124081971D01*
X187107749Y-124194556D01*
X187118390Y-124202287D01*
X187234607Y-124261503D01*
X187300776Y-124295218D01*
X187300778Y-124295218D01*
X187300781Y-124295220D01*
X187405137Y-124329127D01*
X187495465Y-124358477D01*
X187596557Y-124374488D01*
X187697648Y-124390500D01*
X187697649Y-124390500D01*
X187902351Y-124390500D01*
X187902352Y-124390500D01*
X188104534Y-124358477D01*
X188299219Y-124295220D01*
X188481610Y-124202287D01*
X188574590Y-124134732D01*
X188647213Y-124081971D01*
X188647215Y-124081968D01*
X188647219Y-124081966D01*
X188791966Y-123937219D01*
X188791968Y-123937215D01*
X188791971Y-123937213D01*
X188844732Y-123864590D01*
X188912287Y-123771610D01*
X189005220Y-123589219D01*
X189068477Y-123394534D01*
X189100500Y-123192352D01*
X189100500Y-122987648D01*
X189068477Y-122785466D01*
X189005220Y-122590781D01*
X189005218Y-122590778D01*
X189005218Y-122590776D01*
X188971503Y-122524607D01*
X188912287Y-122408390D01*
X188904556Y-122397749D01*
X188791971Y-122242786D01*
X188647213Y-122098028D01*
X188481614Y-121977715D01*
X188475006Y-121974348D01*
X188388917Y-121930483D01*
X188338123Y-121882511D01*
X188321328Y-121814690D01*
X188343865Y-121748555D01*
X188388917Y-121709516D01*
X188481610Y-121662287D01*
X188502770Y-121646913D01*
X188647213Y-121541971D01*
X188647215Y-121541968D01*
X188647219Y-121541966D01*
X188791966Y-121397219D01*
X188791968Y-121397215D01*
X188791971Y-121397213D01*
X188844732Y-121324590D01*
X188912287Y-121231610D01*
X189005220Y-121049219D01*
X189068477Y-120854534D01*
X189100500Y-120652352D01*
X189100500Y-120447648D01*
X189068477Y-120245466D01*
X189066574Y-120239610D01*
X189005218Y-120050776D01*
X188938276Y-119919397D01*
X188912287Y-119868390D01*
X188885693Y-119831786D01*
X188791971Y-119702786D01*
X188647213Y-119558028D01*
X188481614Y-119437715D01*
X188475006Y-119434348D01*
X188388917Y-119390483D01*
X188338123Y-119342511D01*
X188321328Y-119274690D01*
X188343865Y-119208555D01*
X188388917Y-119169516D01*
X188481610Y-119122287D01*
X188502770Y-119106913D01*
X188647213Y-119001971D01*
X188647215Y-119001968D01*
X188647219Y-119001966D01*
X188791966Y-118857219D01*
X188856758Y-118768038D01*
X188912086Y-118725374D01*
X188981699Y-118719393D01*
X189015529Y-118731566D01*
X189020820Y-118734394D01*
X189166498Y-118794735D01*
X189166503Y-118794737D01*
X189321153Y-118825499D01*
X189321156Y-118825500D01*
X189321158Y-118825500D01*
X189478844Y-118825500D01*
X189478845Y-118825499D01*
X189633497Y-118794737D01*
X189779179Y-118734394D01*
X189910289Y-118646789D01*
X190021789Y-118535289D01*
X190109394Y-118404179D01*
X190169737Y-118258497D01*
X190183079Y-118191417D01*
X190215462Y-118129508D01*
X190216901Y-118128042D01*
X190522820Y-117822124D01*
X190584142Y-117788641D01*
X190653834Y-117793625D01*
X190709767Y-117835497D01*
X190734184Y-117900961D01*
X190734500Y-117909807D01*
X190734500Y-118112351D01*
X190766522Y-118314534D01*
X190829781Y-118509223D01*
X190893691Y-118634653D01*
X190920590Y-118687444D01*
X190922715Y-118691613D01*
X191043028Y-118857213D01*
X191187786Y-119001971D01*
X191342749Y-119114556D01*
X191353390Y-119122287D01*
X191444840Y-119168883D01*
X191446080Y-119169515D01*
X191496876Y-119217490D01*
X191513671Y-119285311D01*
X191491134Y-119351446D01*
X191446080Y-119390485D01*
X191353386Y-119437715D01*
X191187786Y-119558028D01*
X191043028Y-119702786D01*
X190922715Y-119868386D01*
X190829781Y-120050776D01*
X190766522Y-120245465D01*
X190734500Y-120447648D01*
X190734500Y-120652351D01*
X190766522Y-120854534D01*
X190829781Y-121049223D01*
X190922715Y-121231613D01*
X191043028Y-121397213D01*
X191187786Y-121541971D01*
X191342749Y-121654556D01*
X191353390Y-121662287D01*
X191444840Y-121708883D01*
X191446080Y-121709515D01*
X191496876Y-121757490D01*
X191513671Y-121825311D01*
X191491134Y-121891446D01*
X191446080Y-121930485D01*
X191353386Y-121977715D01*
X191187786Y-122098028D01*
X191043028Y-122242786D01*
X190922715Y-122408386D01*
X190829781Y-122590776D01*
X190766522Y-122785465D01*
X190734500Y-122987648D01*
X190734500Y-123192351D01*
X190766522Y-123394534D01*
X190829781Y-123589223D01*
X190922715Y-123771613D01*
X191043028Y-123937213D01*
X191187786Y-124081971D01*
X191342749Y-124194556D01*
X191353390Y-124202287D01*
X191469607Y-124261503D01*
X191535776Y-124295218D01*
X191535778Y-124295218D01*
X191535781Y-124295220D01*
X191640137Y-124329127D01*
X191730465Y-124358477D01*
X191831557Y-124374488D01*
X191932648Y-124390500D01*
X191932649Y-124390500D01*
X192137351Y-124390500D01*
X192137352Y-124390500D01*
X192339534Y-124358477D01*
X192534219Y-124295220D01*
X192716610Y-124202287D01*
X192809590Y-124134732D01*
X192882213Y-124081971D01*
X192882215Y-124081968D01*
X192882219Y-124081966D01*
X193026966Y-123937219D01*
X193026968Y-123937215D01*
X193026971Y-123937213D01*
X193079732Y-123864590D01*
X193147287Y-123771610D01*
X193240220Y-123589219D01*
X193303477Y-123394534D01*
X193335500Y-123192352D01*
X193335500Y-122987648D01*
X193303477Y-122785466D01*
X193240220Y-122590781D01*
X193240218Y-122590778D01*
X193240218Y-122590776D01*
X193206503Y-122524607D01*
X193147287Y-122408390D01*
X193139556Y-122397749D01*
X193026971Y-122242786D01*
X192882213Y-122098028D01*
X192716614Y-121977715D01*
X192710006Y-121974348D01*
X192623917Y-121930483D01*
X192573123Y-121882511D01*
X192556328Y-121814690D01*
X192578865Y-121748555D01*
X192623917Y-121709516D01*
X192716610Y-121662287D01*
X192737770Y-121646913D01*
X192882213Y-121541971D01*
X192882215Y-121541968D01*
X192882219Y-121541966D01*
X193026966Y-121397219D01*
X193026968Y-121397215D01*
X193026971Y-121397213D01*
X193079732Y-121324590D01*
X193147287Y-121231610D01*
X193240220Y-121049219D01*
X193303477Y-120854534D01*
X193335500Y-120652352D01*
X193335500Y-120447648D01*
X193303477Y-120245466D01*
X193301574Y-120239610D01*
X193240218Y-120050776D01*
X193173276Y-119919397D01*
X193147287Y-119868390D01*
X193120693Y-119831786D01*
X193026971Y-119702786D01*
X192882213Y-119558028D01*
X192716614Y-119437715D01*
X192710006Y-119434348D01*
X192623917Y-119390483D01*
X192573123Y-119342511D01*
X192556328Y-119274690D01*
X192578865Y-119208555D01*
X192623917Y-119169516D01*
X192699209Y-119131153D01*
X193699500Y-119131153D01*
X193699500Y-119288846D01*
X193730261Y-119443489D01*
X193730264Y-119443501D01*
X193790602Y-119589172D01*
X193790609Y-119589185D01*
X193878210Y-119720288D01*
X193878213Y-119720292D01*
X193989707Y-119831786D01*
X193989711Y-119831789D01*
X194120814Y-119919390D01*
X194120827Y-119919397D01*
X194266498Y-119979735D01*
X194266503Y-119979737D01*
X194421153Y-120010499D01*
X194421156Y-120010500D01*
X194421158Y-120010500D01*
X194578844Y-120010500D01*
X194578845Y-120010499D01*
X194733497Y-119979737D01*
X194879179Y-119919394D01*
X195010289Y-119831789D01*
X195121789Y-119720289D01*
X195209394Y-119589179D01*
X195269737Y-119443497D01*
X195300500Y-119288842D01*
X195300500Y-119131158D01*
X195300500Y-119131155D01*
X195300499Y-119131153D01*
X195298735Y-119122284D01*
X195269737Y-118976503D01*
X195269735Y-118976498D01*
X195209397Y-118830827D01*
X195209390Y-118830814D01*
X195121789Y-118699711D01*
X195121786Y-118699707D01*
X195010292Y-118588213D01*
X195010288Y-118588210D01*
X194879185Y-118500609D01*
X194879172Y-118500602D01*
X194733501Y-118440264D01*
X194733489Y-118440261D01*
X194578845Y-118409500D01*
X194578842Y-118409500D01*
X194421158Y-118409500D01*
X194421155Y-118409500D01*
X194266510Y-118440261D01*
X194266498Y-118440264D01*
X194120827Y-118500602D01*
X194120814Y-118500609D01*
X193989711Y-118588210D01*
X193989707Y-118588213D01*
X193878213Y-118699707D01*
X193878210Y-118699711D01*
X193790609Y-118830814D01*
X193790602Y-118830827D01*
X193730264Y-118976498D01*
X193730261Y-118976510D01*
X193699500Y-119131153D01*
X192699209Y-119131153D01*
X192716610Y-119122287D01*
X192732127Y-119111013D01*
X192850863Y-119024748D01*
X192850864Y-119024747D01*
X192882215Y-119001969D01*
X192882215Y-119001968D01*
X192882219Y-119001966D01*
X193026966Y-118857219D01*
X193026968Y-118857215D01*
X193026971Y-118857213D01*
X193091758Y-118768040D01*
X193147287Y-118691610D01*
X193240220Y-118509219D01*
X193303477Y-118314534D01*
X193335500Y-118112352D01*
X193335500Y-117907648D01*
X193316651Y-117788641D01*
X193303477Y-117705465D01*
X193253125Y-117550500D01*
X193240220Y-117510781D01*
X193240218Y-117510778D01*
X193240218Y-117510776D01*
X193206503Y-117444607D01*
X193147287Y-117328390D01*
X193130923Y-117305867D01*
X193026971Y-117162786D01*
X192882213Y-117018028D01*
X192716614Y-116897715D01*
X192633868Y-116855554D01*
X192623917Y-116850483D01*
X192573123Y-116802511D01*
X192556328Y-116734690D01*
X192578865Y-116668555D01*
X192623917Y-116629516D01*
X192716610Y-116582287D01*
X192807162Y-116516498D01*
X192882213Y-116461971D01*
X192882215Y-116461968D01*
X192882219Y-116461966D01*
X193026966Y-116317219D01*
X193026968Y-116317215D01*
X193026971Y-116317213D01*
X193104208Y-116210903D01*
X193147287Y-116151610D01*
X193240220Y-115969219D01*
X193303477Y-115774534D01*
X193335500Y-115572352D01*
X193335500Y-115367648D01*
X193303477Y-115165466D01*
X193240220Y-114970781D01*
X193240218Y-114970778D01*
X193240218Y-114970776D01*
X193206503Y-114904607D01*
X193147287Y-114788390D01*
X193102633Y-114726928D01*
X193026971Y-114622786D01*
X192882219Y-114478034D01*
X192845930Y-114451669D01*
X192803264Y-114396339D01*
X192797285Y-114326726D01*
X192829890Y-114264931D01*
X192890728Y-114230573D01*
X192905562Y-114228060D01*
X192942483Y-114224091D01*
X193077328Y-114173797D01*
X193077327Y-114173797D01*
X193077331Y-114173796D01*
X193192546Y-114087546D01*
X193278796Y-113972331D01*
X193329091Y-113837483D01*
X193335500Y-113777873D01*
X193335499Y-112082128D01*
X193329091Y-112022517D01*
X193278796Y-111887669D01*
X193278795Y-111887668D01*
X193278793Y-111887664D01*
X193192547Y-111772455D01*
X193192544Y-111772452D01*
X193077335Y-111686206D01*
X193077328Y-111686202D01*
X192942482Y-111635908D01*
X192942483Y-111635908D01*
X192882883Y-111629501D01*
X192882881Y-111629500D01*
X192882873Y-111629500D01*
X192882864Y-111629500D01*
X191187129Y-111629500D01*
X191187123Y-111629501D01*
X191127513Y-111635909D01*
X191117829Y-111639521D01*
X191048137Y-111644503D01*
X190986815Y-111611016D01*
X190953333Y-111549691D01*
X190950500Y-111523338D01*
X190950500Y-110729935D01*
X190970185Y-110662896D01*
X190971366Y-110661090D01*
X191009394Y-110604179D01*
X191069737Y-110458497D01*
X191100500Y-110303842D01*
X191100500Y-110146158D01*
X191100500Y-110146155D01*
X191100499Y-110146153D01*
X191084306Y-110064747D01*
X191069737Y-109991503D01*
X191048019Y-109939071D01*
X191009397Y-109845827D01*
X191009390Y-109845814D01*
X190921789Y-109714711D01*
X190921786Y-109714707D01*
X190810292Y-109603213D01*
X190810288Y-109603210D01*
X190714986Y-109539531D01*
X190670181Y-109485919D01*
X190661474Y-109416594D01*
X190691629Y-109353566D01*
X190696177Y-109348767D01*
X195163336Y-104881608D01*
X195224658Y-104848125D01*
X195294350Y-104853109D01*
X195350283Y-104894981D01*
X195374700Y-104960445D01*
X195359848Y-105028718D01*
X195354119Y-105038181D01*
X195315608Y-105095816D01*
X195315602Y-105095827D01*
X195255264Y-105241498D01*
X195255261Y-105241510D01*
X195224500Y-105396153D01*
X195224500Y-105553846D01*
X195255261Y-105708489D01*
X195255264Y-105708501D01*
X195315602Y-105854172D01*
X195315609Y-105854185D01*
X195403210Y-105985288D01*
X195403213Y-105985292D01*
X195514707Y-106096786D01*
X195514711Y-106096789D01*
X195645814Y-106184390D01*
X195645827Y-106184397D01*
X195791498Y-106244735D01*
X195791503Y-106244737D01*
X195946153Y-106275499D01*
X195946156Y-106275500D01*
X195946158Y-106275500D01*
X196103844Y-106275500D01*
X196103845Y-106275499D01*
X196258497Y-106244737D01*
X196404179Y-106184394D01*
X196535289Y-106096789D01*
X196646789Y-105985289D01*
X196734394Y-105854179D01*
X196794737Y-105708497D01*
X196825500Y-105553842D01*
X196825500Y-105396158D01*
X196825500Y-105396155D01*
X196825499Y-105396153D01*
X196794737Y-105241503D01*
X196794735Y-105241498D01*
X196734397Y-105095827D01*
X196734390Y-105095814D01*
X196646789Y-104964711D01*
X196646786Y-104964707D01*
X196535292Y-104853213D01*
X196535288Y-104853210D01*
X196404185Y-104765609D01*
X196404172Y-104765602D01*
X196258501Y-104705264D01*
X196258489Y-104705261D01*
X196103845Y-104674500D01*
X196103842Y-104674500D01*
X195946158Y-104674500D01*
X195946155Y-104674500D01*
X195791510Y-104705261D01*
X195791498Y-104705264D01*
X195645827Y-104765602D01*
X195645816Y-104765608D01*
X195588181Y-104804119D01*
X195521504Y-104824996D01*
X195454124Y-104806511D01*
X195407434Y-104754532D01*
X195396258Y-104685562D01*
X195424144Y-104621498D01*
X195431600Y-104613345D01*
X196058127Y-103986819D01*
X196119450Y-103953334D01*
X196145808Y-103950500D01*
X197189071Y-103950500D01*
X197273615Y-103933682D01*
X197314744Y-103925501D01*
X197433127Y-103876465D01*
X197464839Y-103855276D01*
X197539669Y-103805277D01*
X198505239Y-102839707D01*
X199487819Y-101857128D01*
X199549142Y-101823643D01*
X199618834Y-101828627D01*
X199674767Y-101870499D01*
X199699184Y-101935963D01*
X199699500Y-101944809D01*
X199699500Y-109554191D01*
X199679815Y-109621230D01*
X199663181Y-109641872D01*
X198869727Y-110435325D01*
X198869721Y-110435332D01*
X198809474Y-110525498D01*
X198809475Y-110525499D01*
X198798535Y-110541871D01*
X198749499Y-110660255D01*
X198749497Y-110660261D01*
X198724500Y-110785928D01*
X198724500Y-119479191D01*
X198704815Y-119546230D01*
X198688181Y-119566873D01*
X198547068Y-119707985D01*
X198536030Y-119714801D01*
X198530089Y-119722172D01*
X198510909Y-119730315D01*
X198498525Y-119737964D01*
X198491170Y-119740410D01*
X198416503Y-119755263D01*
X198294103Y-119805961D01*
X198289877Y-119807368D01*
X198259222Y-119808457D01*
X198228721Y-119811737D01*
X198224626Y-119809687D01*
X198220052Y-119809850D01*
X198193674Y-119794193D01*
X198166242Y-119780461D01*
X198161482Y-119775085D01*
X198159969Y-119774187D01*
X198159035Y-119772322D01*
X198150420Y-119762591D01*
X198106969Y-119702784D01*
X197962213Y-119558028D01*
X197796614Y-119437715D01*
X197790006Y-119434348D01*
X197703917Y-119390483D01*
X197653123Y-119342511D01*
X197636328Y-119274690D01*
X197658865Y-119208555D01*
X197703917Y-119169516D01*
X197796610Y-119122287D01*
X197817770Y-119106913D01*
X197962213Y-119001971D01*
X197962215Y-119001968D01*
X197962219Y-119001966D01*
X198106966Y-118857219D01*
X198106968Y-118857215D01*
X198106971Y-118857213D01*
X198171758Y-118768040D01*
X198227287Y-118691610D01*
X198320220Y-118509219D01*
X198383477Y-118314534D01*
X198415500Y-118112352D01*
X198415500Y-117907648D01*
X198396651Y-117788641D01*
X198383477Y-117705465D01*
X198333125Y-117550500D01*
X198320220Y-117510781D01*
X198320218Y-117510778D01*
X198320218Y-117510776D01*
X198286503Y-117444607D01*
X198227287Y-117328390D01*
X198210923Y-117305867D01*
X198106971Y-117162786D01*
X197962213Y-117018028D01*
X197796614Y-116897715D01*
X197713868Y-116855554D01*
X197703917Y-116850483D01*
X197653123Y-116802511D01*
X197636328Y-116734690D01*
X197658865Y-116668555D01*
X197703917Y-116629516D01*
X197796610Y-116582287D01*
X197887162Y-116516498D01*
X197962213Y-116461971D01*
X197962215Y-116461968D01*
X197962219Y-116461966D01*
X198106966Y-116317219D01*
X198106968Y-116317215D01*
X198106971Y-116317213D01*
X198184208Y-116210903D01*
X198227287Y-116151610D01*
X198320220Y-115969219D01*
X198383477Y-115774534D01*
X198415500Y-115572352D01*
X198415500Y-115367648D01*
X198383477Y-115165466D01*
X198320220Y-114970781D01*
X198320218Y-114970778D01*
X198320218Y-114970776D01*
X198286503Y-114904607D01*
X198227287Y-114788390D01*
X198182633Y-114726928D01*
X198106971Y-114622786D01*
X197962213Y-114478028D01*
X197796614Y-114357715D01*
X197790006Y-114354348D01*
X197703917Y-114310483D01*
X197653123Y-114262511D01*
X197636328Y-114194690D01*
X197658865Y-114128555D01*
X197703917Y-114089516D01*
X197796610Y-114042287D01*
X197817770Y-114026913D01*
X197962213Y-113921971D01*
X197962215Y-113921968D01*
X197962219Y-113921966D01*
X198106966Y-113777219D01*
X198106968Y-113777215D01*
X198106971Y-113777213D01*
X198159732Y-113704590D01*
X198227287Y-113611610D01*
X198320220Y-113429219D01*
X198383477Y-113234534D01*
X198415500Y-113032352D01*
X198415500Y-112827648D01*
X198383477Y-112625466D01*
X198320220Y-112430781D01*
X198320218Y-112430778D01*
X198320218Y-112430776D01*
X198262320Y-112317147D01*
X198227287Y-112248390D01*
X198157032Y-112151691D01*
X198106971Y-112082786D01*
X197962213Y-111938028D01*
X197796613Y-111817715D01*
X197796612Y-111817714D01*
X197796610Y-111817713D01*
X197739653Y-111788691D01*
X197614223Y-111724781D01*
X197419534Y-111661522D01*
X197244995Y-111633878D01*
X197217352Y-111629500D01*
X197012648Y-111629500D01*
X196988329Y-111633351D01*
X196810465Y-111661522D01*
X196615776Y-111724781D01*
X196433386Y-111817715D01*
X196267786Y-111938028D01*
X196123028Y-112082786D01*
X196002715Y-112248386D01*
X195909781Y-112430776D01*
X195846522Y-112625465D01*
X195814500Y-112827648D01*
X195814500Y-113032351D01*
X195846522Y-113234534D01*
X195909781Y-113429223D01*
X196002715Y-113611613D01*
X196123028Y-113777213D01*
X196267786Y-113921971D01*
X196422749Y-114034556D01*
X196433390Y-114042287D01*
X196522212Y-114087544D01*
X196526080Y-114089515D01*
X196576876Y-114137490D01*
X196593671Y-114205311D01*
X196571134Y-114271446D01*
X196526080Y-114310485D01*
X196433386Y-114357715D01*
X196267786Y-114478028D01*
X196123028Y-114622786D01*
X196002715Y-114788386D01*
X195909781Y-114970776D01*
X195846522Y-115165465D01*
X195814500Y-115367648D01*
X195814500Y-115572351D01*
X195846522Y-115774534D01*
X195909781Y-115969223D01*
X195973691Y-116094653D01*
X196000590Y-116147444D01*
X196002715Y-116151613D01*
X196123028Y-116317213D01*
X196267786Y-116461971D01*
X196422749Y-116574556D01*
X196433390Y-116582287D01*
X196524840Y-116628883D01*
X196526080Y-116629515D01*
X196576876Y-116677490D01*
X196593671Y-116745311D01*
X196571134Y-116811446D01*
X196526080Y-116850485D01*
X196433386Y-116897715D01*
X196267786Y-117018028D01*
X196123028Y-117162786D01*
X196002715Y-117328386D01*
X195909781Y-117510776D01*
X195846522Y-117705465D01*
X195814500Y-117907648D01*
X195814500Y-118112351D01*
X195846522Y-118314534D01*
X195909781Y-118509223D01*
X195973691Y-118634653D01*
X196000590Y-118687444D01*
X196002715Y-118691613D01*
X196123028Y-118857213D01*
X196267786Y-119001971D01*
X196422749Y-119114556D01*
X196433390Y-119122287D01*
X196524840Y-119168883D01*
X196526080Y-119169515D01*
X196576876Y-119217490D01*
X196593671Y-119285311D01*
X196571134Y-119351446D01*
X196526080Y-119390485D01*
X196433386Y-119437715D01*
X196267786Y-119558028D01*
X196123028Y-119702786D01*
X196002715Y-119868386D01*
X195909781Y-120050776D01*
X195846522Y-120245465D01*
X195814500Y-120447648D01*
X195814500Y-120652351D01*
X195846522Y-120854534D01*
X195909781Y-121049223D01*
X196002715Y-121231613D01*
X196123028Y-121397213D01*
X196267786Y-121541971D01*
X196422749Y-121654556D01*
X196433390Y-121662287D01*
X196524840Y-121708883D01*
X196526080Y-121709515D01*
X196576876Y-121757490D01*
X196593671Y-121825311D01*
X196571134Y-121891446D01*
X196526080Y-121930485D01*
X196433386Y-121977715D01*
X196267786Y-122098028D01*
X196123028Y-122242786D01*
X196002715Y-122408386D01*
X195909781Y-122590776D01*
X195846522Y-122785465D01*
X195814500Y-122987648D01*
X195814500Y-123192351D01*
X195846522Y-123394534D01*
X195909781Y-123589223D01*
X196002715Y-123771613D01*
X196123028Y-123937213D01*
X196267786Y-124081971D01*
X196422749Y-124194556D01*
X196433390Y-124202287D01*
X196549607Y-124261503D01*
X196615776Y-124295218D01*
X196615778Y-124295218D01*
X196615781Y-124295220D01*
X196720137Y-124329127D01*
X196810465Y-124358477D01*
X196911557Y-124374488D01*
X197012648Y-124390500D01*
X197012649Y-124390500D01*
X197217351Y-124390500D01*
X197217352Y-124390500D01*
X197419534Y-124358477D01*
X197614219Y-124295220D01*
X197796610Y-124202287D01*
X197889590Y-124134732D01*
X197962213Y-124081971D01*
X197962215Y-124081968D01*
X197962219Y-124081966D01*
X198106966Y-123937219D01*
X198106968Y-123937215D01*
X198106971Y-123937213D01*
X198159732Y-123864590D01*
X198227287Y-123771610D01*
X198320220Y-123589219D01*
X198383477Y-123394534D01*
X198415500Y-123192352D01*
X198415500Y-122987648D01*
X198383477Y-122785466D01*
X198320220Y-122590781D01*
X198320218Y-122590778D01*
X198320218Y-122590776D01*
X198286503Y-122524607D01*
X198227287Y-122408390D01*
X198219556Y-122397749D01*
X198106971Y-122242786D01*
X197962213Y-122098028D01*
X197796614Y-121977715D01*
X197790006Y-121974348D01*
X197703917Y-121930483D01*
X197653123Y-121882511D01*
X197636328Y-121814690D01*
X197658865Y-121748555D01*
X197703917Y-121709516D01*
X197796610Y-121662287D01*
X197817770Y-121646913D01*
X197962213Y-121541971D01*
X197962215Y-121541968D01*
X197962219Y-121541966D01*
X198106966Y-121397219D01*
X198178345Y-121298972D01*
X198233674Y-121256308D01*
X198303287Y-121250329D01*
X198326115Y-121257298D01*
X198416498Y-121294735D01*
X198416503Y-121294737D01*
X198571153Y-121325499D01*
X198571156Y-121325500D01*
X198571158Y-121325500D01*
X198728844Y-121325500D01*
X198728845Y-121325499D01*
X198883497Y-121294737D01*
X199029179Y-121234394D01*
X199160289Y-121146789D01*
X199271789Y-121035289D01*
X199359394Y-120904179D01*
X199419737Y-120758497D01*
X199433079Y-120691416D01*
X199465463Y-120629509D01*
X199466956Y-120627988D01*
X199855336Y-120239610D01*
X199916659Y-120206125D01*
X199986351Y-120211109D01*
X200042284Y-120252981D01*
X200066701Y-120318445D01*
X200065490Y-120346688D01*
X200049500Y-120447647D01*
X200049500Y-120652351D01*
X200081522Y-120854534D01*
X200144781Y-121049223D01*
X200237715Y-121231613D01*
X200358028Y-121397213D01*
X200502786Y-121541971D01*
X200657749Y-121654556D01*
X200668390Y-121662287D01*
X200759840Y-121708883D01*
X200761080Y-121709515D01*
X200811876Y-121757490D01*
X200828671Y-121825311D01*
X200806134Y-121891446D01*
X200761080Y-121930485D01*
X200668386Y-121977715D01*
X200502786Y-122098028D01*
X200358028Y-122242786D01*
X200237715Y-122408386D01*
X200144781Y-122590776D01*
X200081522Y-122785465D01*
X200049500Y-122987648D01*
X200049500Y-123192351D01*
X200081522Y-123394534D01*
X200144781Y-123589223D01*
X200237715Y-123771613D01*
X200358028Y-123937213D01*
X200502786Y-124081971D01*
X200657749Y-124194556D01*
X200668390Y-124202287D01*
X200784607Y-124261503D01*
X200850776Y-124295218D01*
X200850778Y-124295218D01*
X200850781Y-124295220D01*
X200955137Y-124329127D01*
X201045465Y-124358477D01*
X201146557Y-124374488D01*
X201247648Y-124390500D01*
X201247649Y-124390500D01*
X201452351Y-124390500D01*
X201452352Y-124390500D01*
X201654534Y-124358477D01*
X201849219Y-124295220D01*
X202031610Y-124202287D01*
X202124590Y-124134732D01*
X202197213Y-124081971D01*
X202197215Y-124081968D01*
X202197219Y-124081966D01*
X202341966Y-123937219D01*
X202341968Y-123937215D01*
X202341971Y-123937213D01*
X202394732Y-123864590D01*
X202462287Y-123771610D01*
X202555220Y-123589219D01*
X202618477Y-123394534D01*
X202650500Y-123192352D01*
X202650500Y-122987648D01*
X202618477Y-122785466D01*
X202555220Y-122590781D01*
X202555218Y-122590778D01*
X202555218Y-122590776D01*
X202521503Y-122524607D01*
X202462287Y-122408390D01*
X202454556Y-122397749D01*
X202341971Y-122242786D01*
X202197213Y-122098028D01*
X202031614Y-121977715D01*
X202025006Y-121974348D01*
X201938917Y-121930483D01*
X201888123Y-121882511D01*
X201871328Y-121814690D01*
X201893865Y-121748555D01*
X201938917Y-121709516D01*
X202031610Y-121662287D01*
X202052770Y-121646913D01*
X202197213Y-121541971D01*
X202197215Y-121541968D01*
X202197219Y-121541966D01*
X202341966Y-121397219D01*
X202341968Y-121397215D01*
X202341971Y-121397213D01*
X202394732Y-121324590D01*
X202462287Y-121231610D01*
X202555220Y-121049219D01*
X202618477Y-120854534D01*
X202650500Y-120652352D01*
X202650500Y-120447648D01*
X202618477Y-120245466D01*
X202616574Y-120239610D01*
X202555218Y-120050776D01*
X202488276Y-119919397D01*
X202462287Y-119868390D01*
X202435693Y-119831786D01*
X202341971Y-119702786D01*
X202197213Y-119558028D01*
X202031614Y-119437715D01*
X202025006Y-119434348D01*
X201938917Y-119390483D01*
X201888123Y-119342511D01*
X201871328Y-119274690D01*
X201893865Y-119208555D01*
X201938917Y-119169516D01*
X202031610Y-119122287D01*
X202052770Y-119106913D01*
X202197213Y-119001971D01*
X202197215Y-119001968D01*
X202197219Y-119001966D01*
X202341966Y-118857219D01*
X202341968Y-118857215D01*
X202341971Y-118857213D01*
X202406758Y-118768040D01*
X202462287Y-118691610D01*
X202555220Y-118509219D01*
X202618477Y-118314534D01*
X202650500Y-118112352D01*
X202650500Y-117907648D01*
X202631651Y-117788641D01*
X202618477Y-117705465D01*
X202568125Y-117550500D01*
X202555220Y-117510781D01*
X202555218Y-117510778D01*
X202555218Y-117510776D01*
X202521503Y-117444607D01*
X202462287Y-117328390D01*
X202445923Y-117305867D01*
X202341971Y-117162786D01*
X202197213Y-117018028D01*
X202031614Y-116897715D01*
X201948868Y-116855554D01*
X201938917Y-116850483D01*
X201888123Y-116802511D01*
X201871328Y-116734690D01*
X201893865Y-116668555D01*
X201938917Y-116629516D01*
X202031610Y-116582287D01*
X202122162Y-116516498D01*
X202197213Y-116461971D01*
X202197215Y-116461968D01*
X202197219Y-116461966D01*
X202341966Y-116317219D01*
X202341968Y-116317215D01*
X202341971Y-116317213D01*
X202419208Y-116210903D01*
X202462287Y-116151610D01*
X202555220Y-115969219D01*
X202618477Y-115774534D01*
X202650500Y-115572352D01*
X202650500Y-115367648D01*
X202618477Y-115165466D01*
X202555220Y-114970781D01*
X202555218Y-114970778D01*
X202555218Y-114970776D01*
X202521503Y-114904607D01*
X202462287Y-114788390D01*
X202417633Y-114726928D01*
X202341971Y-114622786D01*
X202197219Y-114478034D01*
X202160930Y-114451669D01*
X202118264Y-114396339D01*
X202112285Y-114326726D01*
X202144890Y-114264931D01*
X202205728Y-114230573D01*
X202220562Y-114228060D01*
X202257483Y-114224091D01*
X202392328Y-114173797D01*
X202392327Y-114173797D01*
X202392331Y-114173796D01*
X202507546Y-114087546D01*
X202593796Y-113972331D01*
X202644091Y-113837483D01*
X202650500Y-113777873D01*
X202650499Y-112827648D01*
X205129500Y-112827648D01*
X205129500Y-113032351D01*
X205161522Y-113234534D01*
X205224781Y-113429223D01*
X205317715Y-113611613D01*
X205438028Y-113777213D01*
X205582786Y-113921971D01*
X205737749Y-114034556D01*
X205748390Y-114042287D01*
X205837212Y-114087544D01*
X205841080Y-114089515D01*
X205891876Y-114137490D01*
X205908671Y-114205311D01*
X205886134Y-114271446D01*
X205841080Y-114310485D01*
X205748386Y-114357715D01*
X205582786Y-114478028D01*
X205438028Y-114622786D01*
X205317715Y-114788386D01*
X205224781Y-114970776D01*
X205161522Y-115165465D01*
X205129500Y-115367648D01*
X205129500Y-115572351D01*
X205161522Y-115774534D01*
X205224781Y-115969223D01*
X205288691Y-116094653D01*
X205315590Y-116147444D01*
X205317715Y-116151613D01*
X205438028Y-116317213D01*
X205582786Y-116461971D01*
X205737749Y-116574556D01*
X205748390Y-116582287D01*
X205839840Y-116628883D01*
X205841080Y-116629515D01*
X205891876Y-116677490D01*
X205908671Y-116745311D01*
X205886134Y-116811446D01*
X205841080Y-116850485D01*
X205748386Y-116897715D01*
X205582786Y-117018028D01*
X205438028Y-117162786D01*
X205317715Y-117328386D01*
X205224781Y-117510776D01*
X205161522Y-117705465D01*
X205129500Y-117907648D01*
X205129500Y-118112351D01*
X205161522Y-118314534D01*
X205224781Y-118509223D01*
X205288691Y-118634653D01*
X205315590Y-118687444D01*
X205317715Y-118691613D01*
X205438028Y-118857213D01*
X205582786Y-119001971D01*
X205737749Y-119114556D01*
X205748390Y-119122287D01*
X205839840Y-119168883D01*
X205841080Y-119169515D01*
X205891876Y-119217490D01*
X205908671Y-119285311D01*
X205886134Y-119351446D01*
X205841080Y-119390485D01*
X205748386Y-119437715D01*
X205582786Y-119558028D01*
X205438028Y-119702786D01*
X205317715Y-119868386D01*
X205224781Y-120050776D01*
X205161522Y-120245465D01*
X205129500Y-120447648D01*
X205129500Y-120652351D01*
X205161522Y-120854534D01*
X205224781Y-121049223D01*
X205317715Y-121231613D01*
X205438028Y-121397213D01*
X205582786Y-121541971D01*
X205737749Y-121654556D01*
X205748390Y-121662287D01*
X205839840Y-121708883D01*
X205841080Y-121709515D01*
X205891876Y-121757490D01*
X205908671Y-121825311D01*
X205886134Y-121891446D01*
X205841080Y-121930485D01*
X205748386Y-121977715D01*
X205582786Y-122098028D01*
X205438028Y-122242786D01*
X205317715Y-122408386D01*
X205224781Y-122590776D01*
X205161522Y-122785465D01*
X205129500Y-122987648D01*
X205129500Y-123192351D01*
X205161522Y-123394534D01*
X205224781Y-123589223D01*
X205317715Y-123771613D01*
X205438028Y-123937213D01*
X205582786Y-124081971D01*
X205737749Y-124194556D01*
X205748390Y-124202287D01*
X205864607Y-124261503D01*
X205930776Y-124295218D01*
X205930778Y-124295218D01*
X205930781Y-124295220D01*
X206035137Y-124329127D01*
X206125465Y-124358477D01*
X206226557Y-124374488D01*
X206327648Y-124390500D01*
X206327649Y-124390500D01*
X206532351Y-124390500D01*
X206532352Y-124390500D01*
X206734534Y-124358477D01*
X206929219Y-124295220D01*
X207111610Y-124202287D01*
X207204590Y-124134732D01*
X207277213Y-124081971D01*
X207277215Y-124081968D01*
X207277219Y-124081966D01*
X207421966Y-123937219D01*
X207421968Y-123937215D01*
X207421971Y-123937213D01*
X207474732Y-123864590D01*
X207542287Y-123771610D01*
X207635220Y-123589219D01*
X207698477Y-123394534D01*
X207730500Y-123192352D01*
X207730500Y-122987648D01*
X207698477Y-122785466D01*
X207635220Y-122590781D01*
X207635218Y-122590778D01*
X207635218Y-122590776D01*
X207601503Y-122524607D01*
X207542287Y-122408390D01*
X207534556Y-122397749D01*
X207421971Y-122242786D01*
X207277213Y-122098028D01*
X207111614Y-121977715D01*
X207105006Y-121974348D01*
X207018917Y-121930483D01*
X206968123Y-121882511D01*
X206951328Y-121814690D01*
X206973865Y-121748555D01*
X207018917Y-121709516D01*
X207111610Y-121662287D01*
X207132770Y-121646913D01*
X207277213Y-121541971D01*
X207277215Y-121541968D01*
X207277219Y-121541966D01*
X207421966Y-121397219D01*
X207421968Y-121397215D01*
X207421971Y-121397213D01*
X207474732Y-121324590D01*
X207542287Y-121231610D01*
X207635220Y-121049219D01*
X207698477Y-120854534D01*
X207730500Y-120652352D01*
X207730500Y-120447648D01*
X207698477Y-120245466D01*
X207696574Y-120239610D01*
X207635218Y-120050776D01*
X207568276Y-119919397D01*
X207542287Y-119868390D01*
X207515693Y-119831786D01*
X207421971Y-119702786D01*
X207277213Y-119558028D01*
X207111614Y-119437715D01*
X207105006Y-119434348D01*
X207018917Y-119390483D01*
X206968123Y-119342511D01*
X206951328Y-119274690D01*
X206973865Y-119208555D01*
X207018917Y-119169516D01*
X207111610Y-119122287D01*
X207132770Y-119106913D01*
X207277213Y-119001971D01*
X207277215Y-119001968D01*
X207277219Y-119001966D01*
X207421966Y-118857219D01*
X207421968Y-118857215D01*
X207421971Y-118857213D01*
X207486758Y-118768040D01*
X207542287Y-118691610D01*
X207635220Y-118509219D01*
X207698477Y-118314534D01*
X207730500Y-118112352D01*
X207730500Y-117907648D01*
X207711651Y-117788641D01*
X207698477Y-117705465D01*
X207648125Y-117550500D01*
X207635220Y-117510781D01*
X207635218Y-117510778D01*
X207635218Y-117510776D01*
X207601503Y-117444607D01*
X207542287Y-117328390D01*
X207525923Y-117305867D01*
X207421971Y-117162786D01*
X207277213Y-117018028D01*
X207111614Y-116897715D01*
X207028868Y-116855554D01*
X207018917Y-116850483D01*
X206968123Y-116802511D01*
X206951328Y-116734690D01*
X206973865Y-116668555D01*
X207018917Y-116629516D01*
X207111610Y-116582287D01*
X207202162Y-116516498D01*
X207277213Y-116461971D01*
X207277215Y-116461968D01*
X207277219Y-116461966D01*
X207421966Y-116317219D01*
X207421968Y-116317215D01*
X207421971Y-116317213D01*
X207499208Y-116210903D01*
X207542287Y-116151610D01*
X207635220Y-115969219D01*
X207698477Y-115774534D01*
X207730500Y-115572352D01*
X207730500Y-115367648D01*
X207698477Y-115165466D01*
X207635220Y-114970781D01*
X207635218Y-114970778D01*
X207635218Y-114970776D01*
X207601503Y-114904607D01*
X207542287Y-114788390D01*
X207497633Y-114726928D01*
X207421971Y-114622786D01*
X207277213Y-114478028D01*
X207111614Y-114357715D01*
X207105006Y-114354348D01*
X207018917Y-114310483D01*
X206968123Y-114262511D01*
X206951328Y-114194690D01*
X206973865Y-114128555D01*
X207018917Y-114089516D01*
X207111610Y-114042287D01*
X207132770Y-114026913D01*
X207277213Y-113921971D01*
X207277215Y-113921968D01*
X207277219Y-113921966D01*
X207421966Y-113777219D01*
X207421968Y-113777215D01*
X207421971Y-113777213D01*
X207474732Y-113704590D01*
X207542287Y-113611610D01*
X207635220Y-113429219D01*
X207698477Y-113234534D01*
X207730500Y-113032352D01*
X207730500Y-112827648D01*
X207698477Y-112625466D01*
X207635220Y-112430781D01*
X207635218Y-112430778D01*
X207635218Y-112430776D01*
X207542287Y-112248390D01*
X207472032Y-112151691D01*
X207472031Y-112151688D01*
X207421971Y-112082787D01*
X207421967Y-112082782D01*
X207421320Y-112082135D01*
X209364500Y-112082135D01*
X209364500Y-113777870D01*
X209364501Y-113777876D01*
X209370908Y-113837483D01*
X209421202Y-113972328D01*
X209421206Y-113972335D01*
X209507452Y-114087544D01*
X209507455Y-114087547D01*
X209622664Y-114173793D01*
X209622671Y-114173797D01*
X209649829Y-114183926D01*
X209757517Y-114224091D01*
X209794441Y-114228060D01*
X209858989Y-114254796D01*
X209898838Y-114312188D01*
X209901333Y-114382013D01*
X209865681Y-114442102D01*
X209854071Y-114451666D01*
X209817784Y-114478030D01*
X209673028Y-114622786D01*
X209552715Y-114788386D01*
X209459781Y-114970776D01*
X209396522Y-115165465D01*
X209364500Y-115367648D01*
X209364500Y-115572351D01*
X209396522Y-115774534D01*
X209459781Y-115969223D01*
X209523691Y-116094653D01*
X209550590Y-116147444D01*
X209552715Y-116151613D01*
X209673028Y-116317213D01*
X209817786Y-116461971D01*
X209972749Y-116574556D01*
X209983390Y-116582287D01*
X210074840Y-116628883D01*
X210076080Y-116629515D01*
X210126876Y-116677490D01*
X210143671Y-116745311D01*
X210121134Y-116811446D01*
X210076080Y-116850485D01*
X209983386Y-116897715D01*
X209817786Y-117018028D01*
X209673028Y-117162786D01*
X209552715Y-117328386D01*
X209459781Y-117510776D01*
X209396522Y-117705465D01*
X209364500Y-117907648D01*
X209364500Y-118112351D01*
X209396522Y-118314534D01*
X209459781Y-118509223D01*
X209523691Y-118634653D01*
X209550590Y-118687444D01*
X209552715Y-118691613D01*
X209673028Y-118857213D01*
X209817786Y-119001971D01*
X209972749Y-119114556D01*
X209983390Y-119122287D01*
X210074840Y-119168883D01*
X210076080Y-119169515D01*
X210126876Y-119217490D01*
X210143671Y-119285311D01*
X210121134Y-119351446D01*
X210076080Y-119390485D01*
X209983386Y-119437715D01*
X209817786Y-119558028D01*
X209673028Y-119702786D01*
X209552715Y-119868386D01*
X209459781Y-120050776D01*
X209396522Y-120245465D01*
X209364500Y-120447648D01*
X209364500Y-120652351D01*
X209396522Y-120854534D01*
X209459781Y-121049223D01*
X209552715Y-121231613D01*
X209673028Y-121397213D01*
X209817786Y-121541971D01*
X209972749Y-121654556D01*
X209983390Y-121662287D01*
X210074840Y-121708883D01*
X210076080Y-121709515D01*
X210126876Y-121757490D01*
X210143671Y-121825311D01*
X210121134Y-121891446D01*
X210076080Y-121930485D01*
X209983386Y-121977715D01*
X209817786Y-122098028D01*
X209673028Y-122242786D01*
X209552715Y-122408386D01*
X209459781Y-122590776D01*
X209396522Y-122785465D01*
X209364500Y-122987648D01*
X209364500Y-123192351D01*
X209396522Y-123394534D01*
X209459781Y-123589223D01*
X209552715Y-123771613D01*
X209673028Y-123937213D01*
X209817786Y-124081971D01*
X209972749Y-124194556D01*
X209983390Y-124202287D01*
X210099607Y-124261503D01*
X210165776Y-124295218D01*
X210165778Y-124295218D01*
X210165781Y-124295220D01*
X210270137Y-124329127D01*
X210360465Y-124358477D01*
X210461557Y-124374488D01*
X210562648Y-124390500D01*
X210562649Y-124390500D01*
X210767351Y-124390500D01*
X210767352Y-124390500D01*
X210969534Y-124358477D01*
X211164219Y-124295220D01*
X211346610Y-124202287D01*
X211439590Y-124134732D01*
X211512213Y-124081971D01*
X211512215Y-124081968D01*
X211512219Y-124081966D01*
X211656966Y-123937219D01*
X211656968Y-123937215D01*
X211656971Y-123937213D01*
X211709732Y-123864590D01*
X211777287Y-123771610D01*
X211870220Y-123589219D01*
X211933477Y-123394534D01*
X211965500Y-123192352D01*
X211965500Y-122987648D01*
X211933477Y-122785466D01*
X211870220Y-122590781D01*
X211870218Y-122590778D01*
X211870218Y-122590776D01*
X211836503Y-122524607D01*
X211777287Y-122408390D01*
X211769556Y-122397749D01*
X211656971Y-122242786D01*
X211512213Y-122098028D01*
X211346614Y-121977715D01*
X211340006Y-121974348D01*
X211253917Y-121930483D01*
X211203123Y-121882511D01*
X211186328Y-121814690D01*
X211208865Y-121748555D01*
X211253917Y-121709516D01*
X211346610Y-121662287D01*
X211367770Y-121646913D01*
X211512213Y-121541971D01*
X211512215Y-121541968D01*
X211512219Y-121541966D01*
X211656966Y-121397219D01*
X211656968Y-121397215D01*
X211656971Y-121397213D01*
X211709732Y-121324590D01*
X211777287Y-121231610D01*
X211870220Y-121049219D01*
X211933477Y-120854534D01*
X211965500Y-120652352D01*
X211965500Y-120447648D01*
X211933477Y-120245466D01*
X211931574Y-120239610D01*
X211870218Y-120050776D01*
X211803276Y-119919397D01*
X211777287Y-119868390D01*
X211750693Y-119831786D01*
X211656971Y-119702786D01*
X211512213Y-119558028D01*
X211346614Y-119437715D01*
X211340006Y-119434348D01*
X211253917Y-119390483D01*
X211203123Y-119342511D01*
X211186328Y-119274690D01*
X211208865Y-119208555D01*
X211253917Y-119169516D01*
X211346610Y-119122287D01*
X211367770Y-119106913D01*
X211512213Y-119001971D01*
X211512215Y-119001968D01*
X211512219Y-119001966D01*
X211656966Y-118857219D01*
X211656968Y-118857215D01*
X211656971Y-118857213D01*
X211721758Y-118768040D01*
X211777287Y-118691610D01*
X211870220Y-118509219D01*
X211933477Y-118314534D01*
X211965500Y-118112352D01*
X211965500Y-117907648D01*
X211946651Y-117788641D01*
X211933477Y-117705465D01*
X211883125Y-117550500D01*
X211870220Y-117510781D01*
X211870218Y-117510778D01*
X211870218Y-117510776D01*
X211836503Y-117444607D01*
X211777287Y-117328390D01*
X211760923Y-117305867D01*
X211656971Y-117162786D01*
X211512213Y-117018028D01*
X211346614Y-116897715D01*
X211263868Y-116855554D01*
X211253917Y-116850483D01*
X211203123Y-116802511D01*
X211186328Y-116734690D01*
X211208865Y-116668555D01*
X211253917Y-116629516D01*
X211346610Y-116582287D01*
X211437162Y-116516498D01*
X211512213Y-116461971D01*
X211512215Y-116461968D01*
X211512219Y-116461966D01*
X211656966Y-116317219D01*
X211656968Y-116317215D01*
X211656971Y-116317213D01*
X211734208Y-116210903D01*
X211777287Y-116151610D01*
X211870220Y-115969219D01*
X211933477Y-115774534D01*
X211965500Y-115572352D01*
X211965500Y-115367648D01*
X211933477Y-115165466D01*
X211870220Y-114970781D01*
X211870218Y-114970778D01*
X211870218Y-114970776D01*
X211836503Y-114904607D01*
X211777287Y-114788390D01*
X211732633Y-114726928D01*
X211656971Y-114622786D01*
X211512219Y-114478034D01*
X211475930Y-114451669D01*
X211433264Y-114396339D01*
X211427285Y-114326726D01*
X211459890Y-114264931D01*
X211520728Y-114230573D01*
X211535562Y-114228060D01*
X211572483Y-114224091D01*
X211707328Y-114173797D01*
X211707327Y-114173797D01*
X211707331Y-114173796D01*
X211822546Y-114087546D01*
X211908796Y-113972331D01*
X211959091Y-113837483D01*
X211965500Y-113777873D01*
X211965499Y-112827648D01*
X214444500Y-112827648D01*
X214444500Y-113032351D01*
X214476522Y-113234534D01*
X214539781Y-113429223D01*
X214632715Y-113611613D01*
X214753028Y-113777213D01*
X214897786Y-113921971D01*
X215052749Y-114034556D01*
X215063390Y-114042287D01*
X215152212Y-114087544D01*
X215156080Y-114089515D01*
X215206876Y-114137490D01*
X215223671Y-114205311D01*
X215201134Y-114271446D01*
X215156080Y-114310485D01*
X215063386Y-114357715D01*
X214897786Y-114478028D01*
X214753028Y-114622786D01*
X214632715Y-114788386D01*
X214539781Y-114970776D01*
X214476522Y-115165465D01*
X214444500Y-115367648D01*
X214444500Y-115572351D01*
X214476522Y-115774534D01*
X214539781Y-115969223D01*
X214603691Y-116094653D01*
X214630590Y-116147444D01*
X214632715Y-116151613D01*
X214753028Y-116317213D01*
X214897786Y-116461971D01*
X215052749Y-116574556D01*
X215063390Y-116582287D01*
X215154840Y-116628883D01*
X215156080Y-116629515D01*
X215206876Y-116677490D01*
X215223671Y-116745311D01*
X215201134Y-116811446D01*
X215156080Y-116850485D01*
X215063386Y-116897715D01*
X214897786Y-117018028D01*
X214753028Y-117162786D01*
X214632715Y-117328386D01*
X214539781Y-117510776D01*
X214476522Y-117705465D01*
X214444500Y-117907648D01*
X214444500Y-118112351D01*
X214476522Y-118314534D01*
X214539781Y-118509223D01*
X214603691Y-118634653D01*
X214630590Y-118687444D01*
X214632715Y-118691613D01*
X214753028Y-118857213D01*
X214897786Y-119001971D01*
X215052749Y-119114556D01*
X215063390Y-119122287D01*
X215154840Y-119168883D01*
X215156080Y-119169515D01*
X215206876Y-119217490D01*
X215223671Y-119285311D01*
X215201134Y-119351446D01*
X215156080Y-119390485D01*
X215063386Y-119437715D01*
X214897786Y-119558028D01*
X214753028Y-119702786D01*
X214632715Y-119868386D01*
X214539781Y-120050776D01*
X214476522Y-120245465D01*
X214444500Y-120447648D01*
X214444500Y-120652351D01*
X214476522Y-120854534D01*
X214539781Y-121049223D01*
X214632715Y-121231613D01*
X214753028Y-121397213D01*
X214897786Y-121541971D01*
X215052749Y-121654556D01*
X215063390Y-121662287D01*
X215154840Y-121708883D01*
X215156080Y-121709515D01*
X215206876Y-121757490D01*
X215223671Y-121825311D01*
X215201134Y-121891446D01*
X215156080Y-121930485D01*
X215063386Y-121977715D01*
X214897786Y-122098028D01*
X214753028Y-122242786D01*
X214632715Y-122408386D01*
X214539781Y-122590776D01*
X214476522Y-122785465D01*
X214444500Y-122987648D01*
X214444500Y-123192351D01*
X214476522Y-123394534D01*
X214539781Y-123589223D01*
X214632715Y-123771613D01*
X214753028Y-123937213D01*
X214897786Y-124081971D01*
X215052749Y-124194556D01*
X215063390Y-124202287D01*
X215179607Y-124261503D01*
X215245776Y-124295218D01*
X215245778Y-124295218D01*
X215245781Y-124295220D01*
X215350137Y-124329127D01*
X215440465Y-124358477D01*
X215541557Y-124374488D01*
X215642648Y-124390500D01*
X215642649Y-124390500D01*
X215847351Y-124390500D01*
X215847352Y-124390500D01*
X216049534Y-124358477D01*
X216244219Y-124295220D01*
X216426610Y-124202287D01*
X216519590Y-124134732D01*
X216592213Y-124081971D01*
X216592215Y-124081968D01*
X216592219Y-124081966D01*
X216736966Y-123937219D01*
X216736968Y-123937215D01*
X216736971Y-123937213D01*
X216789732Y-123864590D01*
X216857287Y-123771610D01*
X216950220Y-123589219D01*
X217013477Y-123394534D01*
X217045500Y-123192352D01*
X217045500Y-122987648D01*
X217013477Y-122785466D01*
X216950220Y-122590781D01*
X216950218Y-122590778D01*
X216950218Y-122590776D01*
X216916503Y-122524607D01*
X216857287Y-122408390D01*
X216849556Y-122397749D01*
X216736971Y-122242786D01*
X216592213Y-122098028D01*
X216426614Y-121977715D01*
X216420006Y-121974348D01*
X216333917Y-121930483D01*
X216283123Y-121882511D01*
X216266328Y-121814690D01*
X216288865Y-121748555D01*
X216333917Y-121709516D01*
X216426610Y-121662287D01*
X216447770Y-121646913D01*
X216592213Y-121541971D01*
X216592215Y-121541968D01*
X216592219Y-121541966D01*
X216736966Y-121397219D01*
X216736968Y-121397215D01*
X216736971Y-121397213D01*
X216789732Y-121324590D01*
X216857287Y-121231610D01*
X216950220Y-121049219D01*
X217013477Y-120854534D01*
X217045500Y-120652352D01*
X217045500Y-120447648D01*
X217013477Y-120245466D01*
X217011574Y-120239610D01*
X216950218Y-120050776D01*
X216883276Y-119919397D01*
X216857287Y-119868390D01*
X216830693Y-119831786D01*
X216736971Y-119702786D01*
X216592213Y-119558028D01*
X216426614Y-119437715D01*
X216420006Y-119434348D01*
X216333917Y-119390483D01*
X216283123Y-119342511D01*
X216266328Y-119274690D01*
X216288865Y-119208555D01*
X216333917Y-119169516D01*
X216426610Y-119122287D01*
X216447770Y-119106913D01*
X216592213Y-119001971D01*
X216592215Y-119001968D01*
X216592219Y-119001966D01*
X216736966Y-118857219D01*
X216736968Y-118857215D01*
X216736971Y-118857213D01*
X216801758Y-118768040D01*
X216857287Y-118691610D01*
X216950220Y-118509219D01*
X217013477Y-118314534D01*
X217045500Y-118112352D01*
X217045500Y-117907648D01*
X217026651Y-117788641D01*
X217013477Y-117705465D01*
X216963125Y-117550500D01*
X216950220Y-117510781D01*
X216950218Y-117510778D01*
X216950218Y-117510776D01*
X216916503Y-117444607D01*
X216857287Y-117328390D01*
X216840923Y-117305867D01*
X216736971Y-117162786D01*
X216592213Y-117018028D01*
X216426614Y-116897715D01*
X216343868Y-116855554D01*
X216333917Y-116850483D01*
X216283123Y-116802511D01*
X216266328Y-116734690D01*
X216288865Y-116668555D01*
X216333917Y-116629516D01*
X216426610Y-116582287D01*
X216517162Y-116516498D01*
X216592213Y-116461971D01*
X216592215Y-116461968D01*
X216592219Y-116461966D01*
X216736966Y-116317219D01*
X216736968Y-116317215D01*
X216736971Y-116317213D01*
X216814208Y-116210903D01*
X216857287Y-116151610D01*
X216950220Y-115969219D01*
X217013477Y-115774534D01*
X217045500Y-115572352D01*
X217045500Y-115367648D01*
X217013477Y-115165466D01*
X216950220Y-114970781D01*
X216950218Y-114970778D01*
X216950218Y-114970776D01*
X216916503Y-114904607D01*
X216857287Y-114788390D01*
X216812633Y-114726928D01*
X216736971Y-114622786D01*
X216592213Y-114478028D01*
X216426614Y-114357715D01*
X216420006Y-114354348D01*
X216333917Y-114310483D01*
X216283123Y-114262511D01*
X216266328Y-114194690D01*
X216288865Y-114128555D01*
X216333917Y-114089516D01*
X216426610Y-114042287D01*
X216447770Y-114026913D01*
X216592213Y-113921971D01*
X216592215Y-113921968D01*
X216592219Y-113921966D01*
X216736966Y-113777219D01*
X216736968Y-113777215D01*
X216736971Y-113777213D01*
X216789732Y-113704590D01*
X216857287Y-113611610D01*
X216950220Y-113429219D01*
X217013477Y-113234534D01*
X217045500Y-113032352D01*
X217045500Y-112827648D01*
X217013477Y-112625466D01*
X216950220Y-112430781D01*
X216950218Y-112430778D01*
X216950218Y-112430776D01*
X216892320Y-112317147D01*
X216857287Y-112248390D01*
X216787032Y-112151691D01*
X216736971Y-112082786D01*
X216592213Y-111938028D01*
X216426613Y-111817715D01*
X216426612Y-111817714D01*
X216426610Y-111817713D01*
X216369653Y-111788691D01*
X216244223Y-111724781D01*
X216049534Y-111661522D01*
X215874995Y-111633878D01*
X215847352Y-111629500D01*
X215642648Y-111629500D01*
X215618329Y-111633351D01*
X215440465Y-111661522D01*
X215245776Y-111724781D01*
X215063386Y-111817715D01*
X214897786Y-111938028D01*
X214753028Y-112082786D01*
X214632715Y-112248386D01*
X214539781Y-112430776D01*
X214476522Y-112625465D01*
X214444500Y-112827648D01*
X211965499Y-112827648D01*
X211965499Y-112082128D01*
X211959091Y-112022517D01*
X211908796Y-111887669D01*
X211908795Y-111887668D01*
X211908793Y-111887664D01*
X211822547Y-111772455D01*
X211822544Y-111772452D01*
X211707335Y-111686206D01*
X211707328Y-111686202D01*
X211572482Y-111635908D01*
X211572483Y-111635908D01*
X211512883Y-111629501D01*
X211512881Y-111629500D01*
X211512873Y-111629500D01*
X211512864Y-111629500D01*
X209817129Y-111629500D01*
X209817123Y-111629501D01*
X209757516Y-111635908D01*
X209622671Y-111686202D01*
X209622664Y-111686206D01*
X209507455Y-111772452D01*
X209507452Y-111772455D01*
X209421206Y-111887664D01*
X209421202Y-111887671D01*
X209370908Y-112022517D01*
X209366691Y-112061746D01*
X209364501Y-112082123D01*
X209364500Y-112082135D01*
X207421320Y-112082135D01*
X207277213Y-111938028D01*
X207111613Y-111817715D01*
X207111612Y-111817714D01*
X207111610Y-111817713D01*
X207054653Y-111788691D01*
X206929223Y-111724781D01*
X206734534Y-111661522D01*
X206559995Y-111633878D01*
X206532352Y-111629500D01*
X206327648Y-111629500D01*
X206303329Y-111633351D01*
X206125465Y-111661522D01*
X205930776Y-111724781D01*
X205748386Y-111817715D01*
X205582786Y-111938028D01*
X205438028Y-112082786D01*
X205317715Y-112248386D01*
X205224781Y-112430776D01*
X205161522Y-112625465D01*
X205129500Y-112827648D01*
X202650499Y-112827648D01*
X202650499Y-112082128D01*
X202644091Y-112022517D01*
X202593796Y-111887669D01*
X202593795Y-111887668D01*
X202593793Y-111887664D01*
X202507547Y-111772455D01*
X202507544Y-111772452D01*
X202392335Y-111686206D01*
X202392328Y-111686202D01*
X202257482Y-111635908D01*
X202257483Y-111635908D01*
X202197883Y-111629501D01*
X202197881Y-111629500D01*
X202197873Y-111629500D01*
X202197864Y-111629500D01*
X200502129Y-111629500D01*
X200502123Y-111629501D01*
X200442516Y-111635908D01*
X200307671Y-111686202D01*
X200307669Y-111686204D01*
X200223811Y-111748980D01*
X200158347Y-111773397D01*
X200090074Y-111758545D01*
X200040668Y-111709140D01*
X200025500Y-111649713D01*
X200025500Y-111170807D01*
X200045185Y-111103768D01*
X200061819Y-111083126D01*
X200855273Y-110289672D01*
X200855276Y-110289669D01*
X200926465Y-110183127D01*
X200975501Y-110064744D01*
X200975508Y-110064711D01*
X200997687Y-109953211D01*
X201000500Y-109939071D01*
X201000500Y-108046153D01*
X210949500Y-108046153D01*
X210949500Y-108203846D01*
X210980261Y-108358489D01*
X210980264Y-108358501D01*
X211039930Y-108502548D01*
X211047399Y-108572017D01*
X211039930Y-108597452D01*
X210980264Y-108741498D01*
X210980261Y-108741510D01*
X210949500Y-108896153D01*
X210949500Y-109053846D01*
X210980261Y-109208489D01*
X210980264Y-109208501D01*
X211040602Y-109354172D01*
X211040609Y-109354185D01*
X211128210Y-109485288D01*
X211128213Y-109485292D01*
X211239707Y-109596786D01*
X211239711Y-109596789D01*
X211370814Y-109684390D01*
X211370827Y-109684397D01*
X211516498Y-109744735D01*
X211516503Y-109744737D01*
X211666131Y-109774500D01*
X211671153Y-109775499D01*
X211671156Y-109775500D01*
X211671158Y-109775500D01*
X211828844Y-109775500D01*
X211828845Y-109775499D01*
X211983497Y-109744737D01*
X212129179Y-109684394D01*
X212260289Y-109596789D01*
X212371789Y-109485289D01*
X212459394Y-109354179D01*
X212519737Y-109208497D01*
X212550500Y-109053842D01*
X212550500Y-108896158D01*
X212550500Y-108896155D01*
X212550499Y-108896153D01*
X212545527Y-108871158D01*
X212519737Y-108741503D01*
X212460070Y-108597452D01*
X212452601Y-108527983D01*
X212460070Y-108502548D01*
X212519735Y-108358501D01*
X212519737Y-108358497D01*
X212550500Y-108203842D01*
X212550500Y-108046158D01*
X212550500Y-108046155D01*
X212550499Y-108046153D01*
X212519738Y-107891510D01*
X212519737Y-107891503D01*
X212519735Y-107891498D01*
X212459397Y-107745827D01*
X212459390Y-107745814D01*
X212371789Y-107614711D01*
X212371786Y-107614707D01*
X212260292Y-107503213D01*
X212260288Y-107503210D01*
X212129185Y-107415609D01*
X212129172Y-107415602D01*
X211983501Y-107355264D01*
X211983489Y-107355261D01*
X211828845Y-107324500D01*
X211828842Y-107324500D01*
X211671158Y-107324500D01*
X211671155Y-107324500D01*
X211516510Y-107355261D01*
X211516498Y-107355264D01*
X211370827Y-107415602D01*
X211370814Y-107415609D01*
X211239711Y-107503210D01*
X211239707Y-107503213D01*
X211128213Y-107614707D01*
X211128210Y-107614711D01*
X211040609Y-107745814D01*
X211040602Y-107745827D01*
X210980264Y-107891498D01*
X210980261Y-107891510D01*
X210949500Y-108046153D01*
X201000500Y-108046153D01*
X201000500Y-103271153D01*
X212299500Y-103271153D01*
X212299500Y-103428846D01*
X212330261Y-103583489D01*
X212330264Y-103583501D01*
X212390602Y-103729172D01*
X212390609Y-103729185D01*
X212478210Y-103860288D01*
X212478213Y-103860292D01*
X212589707Y-103971786D01*
X212589711Y-103971789D01*
X212720814Y-104059390D01*
X212720827Y-104059397D01*
X212866498Y-104119735D01*
X212866503Y-104119737D01*
X213021153Y-104150499D01*
X213021156Y-104150500D01*
X213021158Y-104150500D01*
X213178844Y-104150500D01*
X213178845Y-104150499D01*
X213333497Y-104119737D01*
X213479179Y-104059394D01*
X213610289Y-103971789D01*
X213721789Y-103860289D01*
X213809394Y-103729179D01*
X213869737Y-103583497D01*
X213900500Y-103428842D01*
X213900500Y-103271158D01*
X213900500Y-103271155D01*
X213900499Y-103271153D01*
X213869738Y-103116510D01*
X213869737Y-103116503D01*
X213864493Y-103103842D01*
X213809397Y-102970827D01*
X213809390Y-102970814D01*
X213721789Y-102839711D01*
X213721786Y-102839707D01*
X213610292Y-102728213D01*
X213610288Y-102728210D01*
X213479185Y-102640609D01*
X213479172Y-102640602D01*
X213333501Y-102580264D01*
X213333489Y-102580261D01*
X213178845Y-102549500D01*
X213178842Y-102549500D01*
X213021158Y-102549500D01*
X213021155Y-102549500D01*
X212866510Y-102580261D01*
X212866498Y-102580264D01*
X212720827Y-102640602D01*
X212720814Y-102640609D01*
X212589711Y-102728210D01*
X212589707Y-102728213D01*
X212478213Y-102839707D01*
X212478210Y-102839711D01*
X212390609Y-102970814D01*
X212390602Y-102970827D01*
X212330264Y-103116498D01*
X212330261Y-103116510D01*
X212299500Y-103271153D01*
X201000500Y-103271153D01*
X201000500Y-100396153D01*
X208324500Y-100396153D01*
X208324500Y-100553846D01*
X208355261Y-100708489D01*
X208355264Y-100708501D01*
X208415602Y-100854172D01*
X208415609Y-100854185D01*
X208503210Y-100985288D01*
X208503213Y-100985292D01*
X208614707Y-101096786D01*
X208614711Y-101096789D01*
X208745814Y-101184390D01*
X208745827Y-101184397D01*
X208891498Y-101244735D01*
X208891503Y-101244737D01*
X209046153Y-101275499D01*
X209046156Y-101275500D01*
X209046158Y-101275500D01*
X209203844Y-101275500D01*
X209203845Y-101275499D01*
X209358497Y-101244737D01*
X209504179Y-101184394D01*
X209635289Y-101096789D01*
X209746789Y-100985289D01*
X209834394Y-100854179D01*
X209894737Y-100708497D01*
X209925500Y-100553842D01*
X209925500Y-100396158D01*
X209925500Y-100396155D01*
X209925499Y-100396153D01*
X209894738Y-100241510D01*
X209894737Y-100241503D01*
X209890898Y-100232235D01*
X209834397Y-100095827D01*
X209834390Y-100095814D01*
X209746789Y-99964711D01*
X209746786Y-99964707D01*
X209635292Y-99853213D01*
X209635288Y-99853210D01*
X209504185Y-99765609D01*
X209504172Y-99765602D01*
X209358501Y-99705264D01*
X209358489Y-99705261D01*
X209203845Y-99674500D01*
X209203842Y-99674500D01*
X209046158Y-99674500D01*
X209046155Y-99674500D01*
X208891510Y-99705261D01*
X208891498Y-99705264D01*
X208745827Y-99765602D01*
X208745814Y-99765609D01*
X208614711Y-99853210D01*
X208614707Y-99853213D01*
X208503213Y-99964707D01*
X208503210Y-99964711D01*
X208415609Y-100095814D01*
X208415602Y-100095827D01*
X208355264Y-100241498D01*
X208355261Y-100241510D01*
X208324500Y-100396153D01*
X201000500Y-100396153D01*
X201000500Y-99254935D01*
X201020185Y-99187896D01*
X201021366Y-99186090D01*
X201059394Y-99129179D01*
X201119737Y-98983497D01*
X201150500Y-98828842D01*
X201150500Y-98671158D01*
X201150500Y-98671155D01*
X201150499Y-98671153D01*
X201143365Y-98635288D01*
X201119737Y-98516503D01*
X201104138Y-98478844D01*
X201059397Y-98370827D01*
X201059390Y-98370814D01*
X200971789Y-98239711D01*
X200971786Y-98239707D01*
X200860292Y-98128213D01*
X200860288Y-98128210D01*
X200729185Y-98040609D01*
X200729172Y-98040602D01*
X200583501Y-97980264D01*
X200583489Y-97980261D01*
X200428845Y-97949500D01*
X200428842Y-97949500D01*
X200271158Y-97949500D01*
X200271155Y-97949500D01*
X200116510Y-97980261D01*
X200116498Y-97980264D01*
X199970827Y-98040602D01*
X199970814Y-98040609D01*
X199839711Y-98128210D01*
X199839707Y-98128213D01*
X199728213Y-98239707D01*
X199728210Y-98239711D01*
X199640609Y-98370814D01*
X199640602Y-98370827D01*
X199580264Y-98516498D01*
X199580261Y-98516508D01*
X199560861Y-98614040D01*
X199528476Y-98675951D01*
X199467760Y-98710525D01*
X199397991Y-98706785D01*
X199391792Y-98704409D01*
X199333501Y-98680264D01*
X199333489Y-98680261D01*
X199178845Y-98649500D01*
X199178842Y-98649500D01*
X199021158Y-98649500D01*
X199021155Y-98649500D01*
X198866510Y-98680261D01*
X198866498Y-98680264D01*
X198720827Y-98740602D01*
X198720814Y-98740609D01*
X198589711Y-98828210D01*
X198589707Y-98828213D01*
X198478213Y-98939707D01*
X198478210Y-98939711D01*
X198390609Y-99070814D01*
X198390602Y-99070827D01*
X198330264Y-99216498D01*
X198330261Y-99216510D01*
X198299500Y-99371153D01*
X198299500Y-99528846D01*
X198330261Y-99683489D01*
X198330264Y-99683501D01*
X198390602Y-99829172D01*
X198390606Y-99829179D01*
X198428602Y-99886044D01*
X198449480Y-99952721D01*
X198449500Y-99954935D01*
X198449500Y-101004192D01*
X198429815Y-101071231D01*
X198413181Y-101091873D01*
X198182728Y-101322325D01*
X198121405Y-101355810D01*
X198051713Y-101350826D01*
X197995780Y-101308954D01*
X197980486Y-101282097D01*
X197934395Y-101170823D01*
X197934390Y-101170814D01*
X197846789Y-101039711D01*
X197846786Y-101039707D01*
X197735292Y-100928213D01*
X197735288Y-100928210D01*
X197604185Y-100840609D01*
X197604172Y-100840602D01*
X197458501Y-100780264D01*
X197458489Y-100780261D01*
X197303845Y-100749500D01*
X197303842Y-100749500D01*
X197146158Y-100749500D01*
X197146155Y-100749500D01*
X196991510Y-100780261D01*
X196991498Y-100780264D01*
X196845827Y-100840602D01*
X196845814Y-100840609D01*
X196714711Y-100928210D01*
X196714707Y-100928213D01*
X196603213Y-101039707D01*
X196603210Y-101039711D01*
X196515609Y-101170814D01*
X196515602Y-101170827D01*
X196455264Y-101316498D01*
X196455261Y-101316510D01*
X196424500Y-101471153D01*
X196424500Y-101628846D01*
X196455261Y-101783489D01*
X196455264Y-101783501D01*
X196515602Y-101929172D01*
X196515609Y-101929185D01*
X196603210Y-102060288D01*
X196603213Y-102060292D01*
X196714707Y-102171786D01*
X196714711Y-102171789D01*
X196845814Y-102259390D01*
X196845823Y-102259395D01*
X196957097Y-102305486D01*
X196982641Y-102326071D01*
X197008911Y-102345736D01*
X197009713Y-102347887D01*
X197011500Y-102349327D01*
X197021859Y-102380452D01*
X197033328Y-102411200D01*
X197032840Y-102413442D01*
X197033565Y-102415621D01*
X197025448Y-102447422D01*
X197018476Y-102479473D01*
X197016642Y-102481922D01*
X197016286Y-102483320D01*
X196997326Y-102507728D01*
X196891871Y-102613182D01*
X196830551Y-102646666D01*
X196804192Y-102649500D01*
X195760929Y-102649500D01*
X195635261Y-102674497D01*
X195635251Y-102674500D01*
X195586220Y-102694810D01*
X195516881Y-102723530D01*
X195516863Y-102723540D01*
X195410332Y-102794721D01*
X195410325Y-102794727D01*
X192286196Y-105918856D01*
X192224873Y-105952341D01*
X192155181Y-105947357D01*
X192099248Y-105905485D01*
X192095413Y-105900066D01*
X192071789Y-105864711D01*
X192071786Y-105864707D01*
X191960292Y-105753213D01*
X191960288Y-105753210D01*
X191829185Y-105665609D01*
X191829172Y-105665602D01*
X191683501Y-105605264D01*
X191683489Y-105605261D01*
X191528845Y-105574500D01*
X191528842Y-105574500D01*
X191371158Y-105574500D01*
X191371155Y-105574500D01*
X191216510Y-105605261D01*
X191216498Y-105605264D01*
X191070827Y-105665602D01*
X191070814Y-105665609D01*
X190939711Y-105753210D01*
X190939707Y-105753213D01*
X190828213Y-105864707D01*
X190828210Y-105864711D01*
X190740609Y-105995814D01*
X190740602Y-105995827D01*
X190680264Y-106141498D01*
X190680261Y-106141508D01*
X190666920Y-106208579D01*
X190634535Y-106270490D01*
X190632984Y-106272068D01*
X187016873Y-109888181D01*
X186955550Y-109921666D01*
X186929192Y-109924500D01*
X185562546Y-109924500D01*
X185495507Y-109904815D01*
X185449752Y-109852011D01*
X185439808Y-109782853D01*
X185468833Y-109719297D01*
X185515094Y-109685939D01*
X185579172Y-109659397D01*
X185579172Y-109659396D01*
X185579179Y-109659394D01*
X185710289Y-109571789D01*
X185821789Y-109460289D01*
X185909394Y-109329179D01*
X185969737Y-109183497D01*
X186000500Y-109028842D01*
X186000500Y-108871158D01*
X186000500Y-108871155D01*
X186000499Y-108871153D01*
X185969738Y-108716510D01*
X185969737Y-108716503D01*
X185920425Y-108597452D01*
X185909397Y-108570827D01*
X185909390Y-108570814D01*
X185821789Y-108439711D01*
X185821786Y-108439707D01*
X185710292Y-108328213D01*
X185710288Y-108328210D01*
X185579185Y-108240609D01*
X185579172Y-108240602D01*
X185433501Y-108180264D01*
X185433489Y-108180261D01*
X185278845Y-108149500D01*
X185278842Y-108149500D01*
X185121158Y-108149500D01*
X185121155Y-108149500D01*
X184966510Y-108180261D01*
X184966498Y-108180264D01*
X184820827Y-108240602D01*
X184820814Y-108240609D01*
X184689711Y-108328210D01*
X184689707Y-108328213D01*
X184578213Y-108439707D01*
X184578210Y-108439711D01*
X184490609Y-108570814D01*
X184490602Y-108570827D01*
X184430264Y-108716498D01*
X184430261Y-108716510D01*
X184399500Y-108871153D01*
X184399500Y-109028846D01*
X184430261Y-109183489D01*
X184430264Y-109183501D01*
X184490602Y-109329172D01*
X184490609Y-109329185D01*
X184578210Y-109460288D01*
X184578213Y-109460292D01*
X184689707Y-109571786D01*
X184689711Y-109571789D01*
X184820814Y-109659390D01*
X184820827Y-109659397D01*
X184884906Y-109685939D01*
X184939310Y-109729779D01*
X184961375Y-109796073D01*
X184944096Y-109863773D01*
X184892959Y-109911384D01*
X184837454Y-109924500D01*
X181729935Y-109924500D01*
X181662896Y-109904815D01*
X181661090Y-109903633D01*
X181604179Y-109865606D01*
X181604172Y-109865602D01*
X181458501Y-109805264D01*
X181458489Y-109805261D01*
X181303845Y-109774500D01*
X181303842Y-109774500D01*
X181146158Y-109774500D01*
X181146155Y-109774500D01*
X180991510Y-109805261D01*
X180991498Y-109805264D01*
X180845827Y-109865602D01*
X180845814Y-109865609D01*
X180714711Y-109953210D01*
X180714707Y-109953213D01*
X180603213Y-110064707D01*
X180603210Y-110064711D01*
X180515609Y-110195814D01*
X180515602Y-110195827D01*
X180455264Y-110341498D01*
X180455261Y-110341510D01*
X180424500Y-110496153D01*
X180118436Y-110496153D01*
X180118575Y-105268995D01*
X181469499Y-105268995D01*
X181496418Y-105404322D01*
X181496421Y-105404332D01*
X181549221Y-105531804D01*
X181549228Y-105531817D01*
X181625885Y-105646541D01*
X181625888Y-105646545D01*
X181723454Y-105744111D01*
X181723458Y-105744114D01*
X181838182Y-105820771D01*
X181838195Y-105820778D01*
X181944260Y-105864711D01*
X181965672Y-105873580D01*
X181965676Y-105873580D01*
X181965677Y-105873581D01*
X182101004Y-105900500D01*
X182101007Y-105900500D01*
X182238995Y-105900500D01*
X182330041Y-105882389D01*
X182374328Y-105873580D01*
X182501811Y-105820775D01*
X182616542Y-105744114D01*
X182714114Y-105646542D01*
X182790775Y-105531811D01*
X182843580Y-105404328D01*
X182870500Y-105268993D01*
X182870500Y-105131007D01*
X182870500Y-105131004D01*
X182843581Y-104995677D01*
X182843580Y-104995676D01*
X182843580Y-104995672D01*
X182801873Y-104894981D01*
X182790778Y-104868195D01*
X182790771Y-104868182D01*
X182714114Y-104753458D01*
X182714111Y-104753454D01*
X182616545Y-104655888D01*
X182616541Y-104655885D01*
X182501817Y-104579228D01*
X182501804Y-104579221D01*
X182374332Y-104526421D01*
X182374322Y-104526418D01*
X182238995Y-104499500D01*
X182238993Y-104499500D01*
X182101007Y-104499500D01*
X182101005Y-104499500D01*
X181965677Y-104526418D01*
X181965667Y-104526421D01*
X181838195Y-104579221D01*
X181838182Y-104579228D01*
X181723458Y-104655885D01*
X181723454Y-104655888D01*
X181625888Y-104753454D01*
X181625885Y-104753458D01*
X181549228Y-104868182D01*
X181549221Y-104868195D01*
X181496421Y-104995667D01*
X181496418Y-104995677D01*
X181469500Y-105131004D01*
X181469500Y-105131007D01*
X181469500Y-105268993D01*
X181469500Y-105268995D01*
X181469499Y-105268995D01*
X180118575Y-105268995D01*
X180118655Y-102268995D01*
X181469499Y-102268995D01*
X181496418Y-102404322D01*
X181496421Y-102404332D01*
X181549221Y-102531804D01*
X181549228Y-102531817D01*
X181625885Y-102646541D01*
X181625888Y-102646545D01*
X181723454Y-102744111D01*
X181723458Y-102744114D01*
X181838182Y-102820771D01*
X181838195Y-102820778D01*
X181965667Y-102873578D01*
X181965672Y-102873580D01*
X181965676Y-102873580D01*
X181965677Y-102873581D01*
X182101004Y-102900500D01*
X182101007Y-102900500D01*
X182238995Y-102900500D01*
X182330041Y-102882389D01*
X182374328Y-102873580D01*
X182501811Y-102820775D01*
X182616542Y-102744114D01*
X182714114Y-102646542D01*
X182790775Y-102531811D01*
X182843580Y-102404328D01*
X182854287Y-102350500D01*
X182870500Y-102268995D01*
X182870500Y-102131004D01*
X182843581Y-101995677D01*
X182843580Y-101995676D01*
X182843580Y-101995672D01*
X182818848Y-101935963D01*
X182790778Y-101868195D01*
X182790771Y-101868182D01*
X182714114Y-101753458D01*
X182714111Y-101753454D01*
X182616545Y-101655888D01*
X182616541Y-101655885D01*
X182501817Y-101579228D01*
X182501804Y-101579221D01*
X182442427Y-101554627D01*
X182374332Y-101526421D01*
X182374322Y-101526418D01*
X182238995Y-101499500D01*
X182238993Y-101499500D01*
X182101007Y-101499500D01*
X182101005Y-101499500D01*
X181965677Y-101526418D01*
X181965667Y-101526421D01*
X181838195Y-101579221D01*
X181838182Y-101579228D01*
X181723458Y-101655885D01*
X181723454Y-101655888D01*
X181625888Y-101753454D01*
X181625885Y-101753458D01*
X181549228Y-101868182D01*
X181549221Y-101868195D01*
X181496421Y-101995667D01*
X181496418Y-101995677D01*
X181469500Y-102131004D01*
X181469500Y-102131007D01*
X181469500Y-102268993D01*
X181469500Y-102268995D01*
X181469499Y-102268995D01*
X180118655Y-102268995D01*
X180118677Y-101446153D01*
X185449500Y-101446153D01*
X185449500Y-101603846D01*
X185480261Y-101758489D01*
X185480264Y-101758501D01*
X185540602Y-101904172D01*
X185540609Y-101904185D01*
X185628210Y-102035288D01*
X185628213Y-102035292D01*
X185739707Y-102146786D01*
X185739711Y-102146789D01*
X185870814Y-102234390D01*
X185870827Y-102234397D01*
X186016498Y-102294735D01*
X186016503Y-102294737D01*
X186142186Y-102319737D01*
X186171153Y-102325499D01*
X186171156Y-102325500D01*
X186171158Y-102325500D01*
X186328844Y-102325500D01*
X186328845Y-102325499D01*
X186483497Y-102294737D01*
X186596166Y-102248067D01*
X186629172Y-102234397D01*
X186629172Y-102234396D01*
X186629179Y-102234394D01*
X186760289Y-102146789D01*
X186871789Y-102035289D01*
X186959394Y-101904179D01*
X187019737Y-101758497D01*
X187050500Y-101603842D01*
X187050500Y-101446158D01*
X187050500Y-101446155D01*
X187050499Y-101446153D01*
X187047125Y-101429191D01*
X187019737Y-101291503D01*
X187015841Y-101282097D01*
X186959397Y-101145827D01*
X186959390Y-101145814D01*
X186871789Y-101014711D01*
X186871786Y-101014707D01*
X186760292Y-100903213D01*
X186760288Y-100903210D01*
X186629185Y-100815609D01*
X186629172Y-100815602D01*
X186542318Y-100779627D01*
X186483501Y-100755264D01*
X186483489Y-100755261D01*
X186328845Y-100724500D01*
X186328842Y-100724500D01*
X186171158Y-100724500D01*
X186171155Y-100724500D01*
X186016510Y-100755261D01*
X186016498Y-100755264D01*
X185870827Y-100815602D01*
X185870814Y-100815609D01*
X185739711Y-100903210D01*
X185739707Y-100903213D01*
X185628213Y-101014707D01*
X185628210Y-101014711D01*
X185540609Y-101145814D01*
X185540602Y-101145827D01*
X185480264Y-101291498D01*
X185480261Y-101291510D01*
X185449500Y-101446153D01*
X180118677Y-101446153D01*
X180118698Y-100671153D01*
X187649500Y-100671153D01*
X187649500Y-100828846D01*
X187680261Y-100983489D01*
X187680264Y-100983501D01*
X187740602Y-101129172D01*
X187740609Y-101129185D01*
X187828210Y-101260288D01*
X187828213Y-101260292D01*
X187939707Y-101371786D01*
X187939711Y-101371789D01*
X188070814Y-101459390D01*
X188070827Y-101459397D01*
X188167646Y-101499500D01*
X188216503Y-101519737D01*
X188371153Y-101550499D01*
X188371156Y-101550500D01*
X188371158Y-101550500D01*
X188528844Y-101550500D01*
X188528845Y-101550499D01*
X188683497Y-101519737D01*
X188829179Y-101459394D01*
X188960289Y-101371789D01*
X189071789Y-101260289D01*
X189159394Y-101129179D01*
X189219737Y-100983497D01*
X189233079Y-100916416D01*
X189265463Y-100854509D01*
X189266958Y-100852986D01*
X190705277Y-99414669D01*
X190776465Y-99308127D01*
X190796294Y-99260256D01*
X190825501Y-99189744D01*
X190835876Y-99137586D01*
X190850500Y-99064071D01*
X190850500Y-98445134D01*
X190870185Y-98378095D01*
X190922989Y-98332340D01*
X190992147Y-98322396D01*
X191021950Y-98330572D01*
X191116503Y-98369737D01*
X191242176Y-98394735D01*
X191271153Y-98400499D01*
X191271156Y-98400500D01*
X191271158Y-98400500D01*
X191300500Y-98400500D01*
X191367539Y-98420185D01*
X191413294Y-98472989D01*
X191424500Y-98524500D01*
X191424500Y-101429191D01*
X191404815Y-101496230D01*
X191388181Y-101516872D01*
X190697068Y-102207984D01*
X190635745Y-102241469D01*
X190633579Y-102241920D01*
X190566508Y-102255261D01*
X190566498Y-102255264D01*
X190420827Y-102315602D01*
X190420814Y-102315609D01*
X190289711Y-102403210D01*
X190289707Y-102403213D01*
X190178213Y-102514707D01*
X190178210Y-102514711D01*
X190090609Y-102645814D01*
X190090602Y-102645827D01*
X190030264Y-102791498D01*
X190030261Y-102791510D01*
X189999500Y-102946153D01*
X189999500Y-103103846D01*
X190030261Y-103258489D01*
X190030264Y-103258501D01*
X190090602Y-103404172D01*
X190090609Y-103404185D01*
X190178210Y-103535288D01*
X190178213Y-103535292D01*
X190289707Y-103646786D01*
X190289711Y-103646789D01*
X190420814Y-103734390D01*
X190420827Y-103734397D01*
X190566498Y-103794735D01*
X190566503Y-103794737D01*
X190721153Y-103825499D01*
X190721156Y-103825500D01*
X190721158Y-103825500D01*
X190878844Y-103825500D01*
X190878845Y-103825499D01*
X191033497Y-103794737D01*
X191172026Y-103737356D01*
X191241494Y-103729888D01*
X191303973Y-103761163D01*
X191307158Y-103764237D01*
X191339707Y-103796786D01*
X191339711Y-103796789D01*
X191470814Y-103884390D01*
X191470827Y-103884397D01*
X191570065Y-103925502D01*
X191616503Y-103944737D01*
X191752487Y-103971786D01*
X191771153Y-103975499D01*
X191771156Y-103975500D01*
X191771158Y-103975500D01*
X191928844Y-103975500D01*
X191928845Y-103975499D01*
X192083497Y-103944737D01*
X192229179Y-103884394D01*
X192360289Y-103796789D01*
X192471789Y-103685289D01*
X192559394Y-103554179D01*
X192619737Y-103408497D01*
X192633079Y-103341416D01*
X192665463Y-103279509D01*
X192666958Y-103277986D01*
X194480277Y-101464669D01*
X194551465Y-101358127D01*
X194560907Y-101335331D01*
X194600501Y-101239744D01*
X194614211Y-101170821D01*
X194625500Y-101114071D01*
X194625500Y-99909816D01*
X194645185Y-99842777D01*
X194697989Y-99797022D01*
X194767147Y-99787078D01*
X194830703Y-99816103D01*
X194852602Y-99840925D01*
X194940710Y-99972788D01*
X194940713Y-99972792D01*
X195052207Y-100084286D01*
X195052211Y-100084289D01*
X195183314Y-100171890D01*
X195183327Y-100171897D01*
X195328998Y-100232235D01*
X195329003Y-100232237D01*
X195483653Y-100262999D01*
X195483656Y-100263000D01*
X195483658Y-100263000D01*
X195641344Y-100263000D01*
X195641345Y-100262999D01*
X195795997Y-100232237D01*
X195941679Y-100171894D01*
X196072789Y-100084289D01*
X196184289Y-99972789D01*
X196271894Y-99841679D01*
X196332237Y-99695997D01*
X196363000Y-99541342D01*
X196363000Y-99383658D01*
X196363000Y-99383655D01*
X196362999Y-99383653D01*
X196347975Y-99308125D01*
X196332237Y-99229003D01*
X196320431Y-99200500D01*
X196271897Y-99083327D01*
X196271890Y-99083314D01*
X196184289Y-98952211D01*
X196184286Y-98952207D01*
X196072792Y-98840713D01*
X196072788Y-98840710D01*
X195941685Y-98753109D01*
X195941672Y-98753102D01*
X195796001Y-98692764D01*
X195795989Y-98692761D01*
X195641345Y-98662000D01*
X195641342Y-98662000D01*
X195483658Y-98662000D01*
X195483655Y-98662000D01*
X195329010Y-98692761D01*
X195328998Y-98692764D01*
X195183327Y-98753102D01*
X195183314Y-98753109D01*
X195052211Y-98840710D01*
X195052207Y-98840713D01*
X194940713Y-98952207D01*
X194940710Y-98952211D01*
X194852602Y-99084074D01*
X194798990Y-99128879D01*
X194729665Y-99137586D01*
X194666637Y-99107431D01*
X194629918Y-99047988D01*
X194625500Y-99015183D01*
X194625500Y-97546153D01*
X210324500Y-97546153D01*
X210324500Y-97703846D01*
X210355261Y-97858489D01*
X210355264Y-97858501D01*
X210415602Y-98004172D01*
X210415609Y-98004185D01*
X210503210Y-98135288D01*
X210503213Y-98135292D01*
X210614707Y-98246786D01*
X210614711Y-98246789D01*
X210745814Y-98334390D01*
X210745827Y-98334397D01*
X210851325Y-98378095D01*
X210891503Y-98394737D01*
X211019438Y-98420185D01*
X211046153Y-98425499D01*
X211046156Y-98425500D01*
X211046158Y-98425500D01*
X211203844Y-98425500D01*
X211203845Y-98425499D01*
X211358497Y-98394737D01*
X211504179Y-98334394D01*
X211635289Y-98246789D01*
X211746789Y-98135289D01*
X211834394Y-98004179D01*
X211894737Y-97858497D01*
X211925500Y-97703842D01*
X211925500Y-97546158D01*
X211925500Y-97546155D01*
X211925499Y-97546153D01*
X211899531Y-97415606D01*
X211894737Y-97391503D01*
X211884380Y-97366498D01*
X211834397Y-97245827D01*
X211834390Y-97245814D01*
X211746789Y-97114711D01*
X211746786Y-97114707D01*
X211635292Y-97003213D01*
X211635288Y-97003210D01*
X211508014Y-96918168D01*
X211508013Y-96918167D01*
X211504186Y-96915610D01*
X211504172Y-96915602D01*
X211358501Y-96855264D01*
X211358489Y-96855261D01*
X211203845Y-96824500D01*
X211203842Y-96824500D01*
X211046158Y-96824500D01*
X211046155Y-96824500D01*
X210891510Y-96855261D01*
X210891498Y-96855264D01*
X210745827Y-96915602D01*
X210745814Y-96915609D01*
X210614711Y-97003210D01*
X210614707Y-97003213D01*
X210503213Y-97114707D01*
X210503210Y-97114711D01*
X210415609Y-97245814D01*
X210415602Y-97245827D01*
X210355264Y-97391498D01*
X210355261Y-97391510D01*
X210324500Y-97546153D01*
X194625500Y-97546153D01*
X194625500Y-96821153D01*
X214339500Y-96821153D01*
X214339500Y-96978846D01*
X214370261Y-97133489D01*
X214370264Y-97133501D01*
X214430602Y-97279172D01*
X214430609Y-97279185D01*
X214518210Y-97410288D01*
X214518213Y-97410292D01*
X214629707Y-97521786D01*
X214629711Y-97521789D01*
X214760814Y-97609390D01*
X214760827Y-97609397D01*
X214906498Y-97669735D01*
X214906503Y-97669737D01*
X215061153Y-97700499D01*
X215061156Y-97700500D01*
X215061158Y-97700500D01*
X215218844Y-97700500D01*
X215218845Y-97700499D01*
X215373497Y-97669737D01*
X215519179Y-97609394D01*
X215650289Y-97521789D01*
X215761789Y-97410289D01*
X215849394Y-97279179D01*
X215909737Y-97133497D01*
X215940500Y-96978842D01*
X215940500Y-96821158D01*
X215940500Y-96821155D01*
X215940499Y-96821153D01*
X215928036Y-96758497D01*
X215909737Y-96666503D01*
X215872043Y-96575500D01*
X215849397Y-96520827D01*
X215849390Y-96520814D01*
X215761789Y-96389711D01*
X215761786Y-96389707D01*
X215650292Y-96278213D01*
X215650288Y-96278210D01*
X215519185Y-96190609D01*
X215519172Y-96190602D01*
X215373501Y-96130264D01*
X215373489Y-96130261D01*
X215218845Y-96099500D01*
X215218842Y-96099500D01*
X215061158Y-96099500D01*
X215061155Y-96099500D01*
X214906510Y-96130261D01*
X214906498Y-96130264D01*
X214760827Y-96190602D01*
X214760814Y-96190609D01*
X214629711Y-96278210D01*
X214629707Y-96278213D01*
X214518213Y-96389707D01*
X214518210Y-96389711D01*
X214430609Y-96520814D01*
X214430602Y-96520827D01*
X214370264Y-96666498D01*
X214370261Y-96666510D01*
X214339500Y-96821153D01*
X194625500Y-96821153D01*
X194625500Y-96760928D01*
X194600502Y-96635261D01*
X194600501Y-96635260D01*
X194600501Y-96635256D01*
X194551465Y-96516873D01*
X194537148Y-96495446D01*
X194533290Y-96489671D01*
X194480275Y-96410328D01*
X194480272Y-96410325D01*
X193757127Y-95687181D01*
X193723642Y-95625858D01*
X193728626Y-95556167D01*
X193770498Y-95500233D01*
X193835962Y-95475816D01*
X193844808Y-95475500D01*
X194254192Y-95475500D01*
X194321231Y-95495185D01*
X194341873Y-95511819D01*
X194682984Y-95852930D01*
X194716469Y-95914253D01*
X194716920Y-95916420D01*
X194730261Y-95983489D01*
X194730264Y-95983501D01*
X194790602Y-96129172D01*
X194790609Y-96129185D01*
X194878210Y-96260288D01*
X194878213Y-96260292D01*
X194989707Y-96371786D01*
X194989711Y-96371789D01*
X195120814Y-96459390D01*
X195120827Y-96459397D01*
X195266498Y-96519735D01*
X195266503Y-96519737D01*
X195392176Y-96544735D01*
X195421153Y-96550499D01*
X195421156Y-96550500D01*
X195421158Y-96550500D01*
X195578844Y-96550500D01*
X195578845Y-96550499D01*
X195733497Y-96519737D01*
X195879179Y-96459394D01*
X196010289Y-96371789D01*
X196121789Y-96260289D01*
X196209394Y-96129179D01*
X196269737Y-95983497D01*
X196300500Y-95828842D01*
X196300500Y-95671158D01*
X196300500Y-95671155D01*
X196300499Y-95671153D01*
X196295245Y-95644738D01*
X196269737Y-95516503D01*
X196245712Y-95458501D01*
X196209397Y-95370827D01*
X196209390Y-95370814D01*
X196134646Y-95258952D01*
X196113768Y-95192274D01*
X196132253Y-95124894D01*
X196184231Y-95078204D01*
X196190296Y-95075500D01*
X196229173Y-95059397D01*
X196229176Y-95059395D01*
X196229179Y-95059394D01*
X196360289Y-94971789D01*
X196471789Y-94860289D01*
X196481234Y-94846153D01*
X199699500Y-94846153D01*
X199699500Y-95003846D01*
X199730261Y-95158489D01*
X199730264Y-95158501D01*
X199790602Y-95304172D01*
X199790609Y-95304185D01*
X199878210Y-95435288D01*
X199878213Y-95435292D01*
X199989707Y-95546786D01*
X199989711Y-95546789D01*
X200120814Y-95634390D01*
X200120827Y-95634397D01*
X200220060Y-95675500D01*
X200266503Y-95694737D01*
X200421153Y-95725499D01*
X200421156Y-95725500D01*
X200421158Y-95725500D01*
X200578844Y-95725500D01*
X200578845Y-95725499D01*
X200733497Y-95694737D01*
X200879179Y-95634394D01*
X201010289Y-95546789D01*
X201121789Y-95435289D01*
X201209394Y-95304179D01*
X201269737Y-95158497D01*
X201300500Y-95003842D01*
X201300500Y-94846158D01*
X201300500Y-94846155D01*
X201294155Y-94814258D01*
X201294155Y-94814257D01*
X201290554Y-94796153D01*
X207374500Y-94796153D01*
X207374500Y-94953846D01*
X207405261Y-95108489D01*
X207405264Y-95108501D01*
X207465602Y-95254172D01*
X207465609Y-95254185D01*
X207553210Y-95385288D01*
X207553213Y-95385292D01*
X207664707Y-95496786D01*
X207664711Y-95496789D01*
X207795814Y-95584390D01*
X207795827Y-95584397D01*
X207941498Y-95644735D01*
X207941503Y-95644737D01*
X208096153Y-95675499D01*
X208096156Y-95675500D01*
X208096158Y-95675500D01*
X208253844Y-95675500D01*
X208253845Y-95675499D01*
X208408497Y-95644737D01*
X208554179Y-95584394D01*
X208685289Y-95496789D01*
X208796789Y-95385289D01*
X208884394Y-95254179D01*
X208944737Y-95108497D01*
X208975500Y-94953842D01*
X208975500Y-94796158D01*
X208975500Y-94796155D01*
X208975499Y-94796153D01*
X208970652Y-94771786D01*
X208944737Y-94641503D01*
X208920712Y-94583501D01*
X208884397Y-94495827D01*
X208884390Y-94495814D01*
X208796789Y-94364711D01*
X208796786Y-94364707D01*
X208685292Y-94253213D01*
X208685288Y-94253210D01*
X208554185Y-94165609D01*
X208554172Y-94165602D01*
X208408501Y-94105264D01*
X208408489Y-94105261D01*
X208253845Y-94074500D01*
X208253842Y-94074500D01*
X208096158Y-94074500D01*
X208096155Y-94074500D01*
X207941510Y-94105261D01*
X207941498Y-94105264D01*
X207795827Y-94165602D01*
X207795814Y-94165609D01*
X207664711Y-94253210D01*
X207664707Y-94253213D01*
X207553213Y-94364707D01*
X207553210Y-94364711D01*
X207465609Y-94495814D01*
X207465602Y-94495827D01*
X207405264Y-94641498D01*
X207405261Y-94641510D01*
X207374500Y-94796153D01*
X201290554Y-94796153D01*
X201274353Y-94714711D01*
X201269737Y-94691503D01*
X201256808Y-94660289D01*
X201209397Y-94545827D01*
X201209390Y-94545814D01*
X201121789Y-94414711D01*
X201121786Y-94414707D01*
X201010292Y-94303213D01*
X201010288Y-94303210D01*
X200879185Y-94215609D01*
X200879172Y-94215602D01*
X200733501Y-94155264D01*
X200733489Y-94155261D01*
X200578845Y-94124500D01*
X200578842Y-94124500D01*
X200421158Y-94124500D01*
X200421155Y-94124500D01*
X200266510Y-94155261D01*
X200266498Y-94155264D01*
X200120827Y-94215602D01*
X200120814Y-94215609D01*
X199989711Y-94303210D01*
X199989707Y-94303213D01*
X199878213Y-94414707D01*
X199878210Y-94414711D01*
X199790609Y-94545814D01*
X199790602Y-94545827D01*
X199730264Y-94691498D01*
X199730261Y-94691510D01*
X199699500Y-94846153D01*
X196481234Y-94846153D01*
X196514642Y-94796155D01*
X196531334Y-94771175D01*
X196531335Y-94771173D01*
X196559387Y-94729190D01*
X196559388Y-94729186D01*
X196559394Y-94729179D01*
X196565389Y-94714707D01*
X196611571Y-94603211D01*
X196619737Y-94583497D01*
X196650500Y-94428842D01*
X196650500Y-94271158D01*
X196650500Y-94271155D01*
X196650499Y-94271153D01*
X196642156Y-94229212D01*
X196619737Y-94116503D01*
X196615081Y-94105263D01*
X196559397Y-93970827D01*
X196559390Y-93970814D01*
X196471789Y-93839711D01*
X196471786Y-93839707D01*
X196360292Y-93728213D01*
X196360288Y-93728210D01*
X196229185Y-93640609D01*
X196229172Y-93640602D01*
X196083501Y-93580264D01*
X196083489Y-93580261D01*
X195928845Y-93549500D01*
X195928842Y-93549500D01*
X195771158Y-93549500D01*
X195771155Y-93549500D01*
X195616510Y-93580261D01*
X195616498Y-93580264D01*
X195470827Y-93640602D01*
X195470814Y-93640609D01*
X195339711Y-93728210D01*
X195339707Y-93728213D01*
X195228213Y-93839707D01*
X195228210Y-93839711D01*
X195140609Y-93970814D01*
X195140602Y-93970827D01*
X195080264Y-94116498D01*
X195080261Y-94116508D01*
X195070158Y-94167301D01*
X195037773Y-94229212D01*
X194977057Y-94263786D01*
X194907287Y-94260045D01*
X194888818Y-94250803D01*
X194888497Y-94251405D01*
X194883129Y-94248535D01*
X194764744Y-94199499D01*
X194764738Y-94199497D01*
X194639071Y-94174500D01*
X194639069Y-94174500D01*
X191185931Y-94174500D01*
X191185929Y-94174500D01*
X191060261Y-94199497D01*
X191060255Y-94199499D01*
X190941870Y-94248535D01*
X190835335Y-94319720D01*
X190835326Y-94319727D01*
X190747067Y-94407985D01*
X190685744Y-94441469D01*
X190683579Y-94441920D01*
X190616508Y-94455261D01*
X190616498Y-94455264D01*
X190470827Y-94515602D01*
X190470814Y-94515609D01*
X190339711Y-94603210D01*
X190339707Y-94603213D01*
X190228213Y-94714707D01*
X190228210Y-94714711D01*
X190140609Y-94845814D01*
X190140602Y-94845827D01*
X190080264Y-94991498D01*
X190080261Y-94991510D01*
X190049500Y-95146153D01*
X190049500Y-95303846D01*
X190080261Y-95458489D01*
X190080264Y-95458501D01*
X190140602Y-95604172D01*
X190140609Y-95604185D01*
X190228210Y-95735288D01*
X190228213Y-95735292D01*
X190339707Y-95846786D01*
X190339711Y-95846789D01*
X190470814Y-95934390D01*
X190470827Y-95934397D01*
X190616498Y-95994735D01*
X190616503Y-95994737D01*
X190617685Y-95994972D01*
X190618246Y-95995265D01*
X190622335Y-95996506D01*
X190622099Y-95997281D01*
X190679597Y-96027355D01*
X190714173Y-96088070D01*
X190710435Y-96157840D01*
X190708058Y-96164042D01*
X190655264Y-96291498D01*
X190655261Y-96291510D01*
X190624500Y-96446153D01*
X190624500Y-96603846D01*
X190645473Y-96709283D01*
X190639246Y-96778874D01*
X190596383Y-96834052D01*
X190530493Y-96857296D01*
X190476404Y-96848035D01*
X190433501Y-96830264D01*
X190433489Y-96830261D01*
X190278845Y-96799500D01*
X190278842Y-96799500D01*
X190121158Y-96799500D01*
X190121155Y-96799500D01*
X189966510Y-96830261D01*
X189966498Y-96830264D01*
X189820827Y-96890602D01*
X189820814Y-96890609D01*
X189689711Y-96978210D01*
X189689707Y-96978213D01*
X189578213Y-97089707D01*
X189578210Y-97089711D01*
X189490609Y-97220814D01*
X189490602Y-97220827D01*
X189430264Y-97366498D01*
X189430261Y-97366510D01*
X189399500Y-97521153D01*
X189399500Y-97678846D01*
X189430261Y-97833489D01*
X189430264Y-97833501D01*
X189490602Y-97979172D01*
X189490606Y-97979179D01*
X189528602Y-98036044D01*
X189549480Y-98102721D01*
X189549500Y-98104935D01*
X189549500Y-98679191D01*
X189529815Y-98746230D01*
X189513181Y-98766872D01*
X188347068Y-99932984D01*
X188285745Y-99966469D01*
X188283579Y-99966920D01*
X188216508Y-99980261D01*
X188216498Y-99980264D01*
X188070827Y-100040602D01*
X188070814Y-100040609D01*
X187939711Y-100128210D01*
X187939707Y-100128213D01*
X187828213Y-100239707D01*
X187828210Y-100239711D01*
X187740609Y-100370814D01*
X187740602Y-100370827D01*
X187680264Y-100516498D01*
X187680261Y-100516510D01*
X187649500Y-100671153D01*
X180118698Y-100671153D01*
X180118761Y-98321153D01*
X182149500Y-98321153D01*
X182149500Y-98478846D01*
X182180261Y-98633489D01*
X182180264Y-98633501D01*
X182240602Y-98779172D01*
X182240609Y-98779185D01*
X182328210Y-98910288D01*
X182328213Y-98910292D01*
X182439707Y-99021786D01*
X182439711Y-99021789D01*
X182570814Y-99109390D01*
X182570827Y-99109397D01*
X182716498Y-99169735D01*
X182716503Y-99169737D01*
X182871153Y-99200499D01*
X182871156Y-99200500D01*
X182871158Y-99200500D01*
X183028844Y-99200500D01*
X183028845Y-99200499D01*
X183183497Y-99169737D01*
X183329179Y-99109394D01*
X183460289Y-99021789D01*
X183571789Y-98910289D01*
X183659394Y-98779179D01*
X183719737Y-98633497D01*
X183750500Y-98478842D01*
X183750500Y-98321158D01*
X183750500Y-98321155D01*
X183750499Y-98321153D01*
X183727165Y-98203846D01*
X183719737Y-98166503D01*
X183706808Y-98135289D01*
X183687021Y-98087518D01*
X183669887Y-98046153D01*
X184474500Y-98046153D01*
X184474500Y-98203846D01*
X184505261Y-98358489D01*
X184505264Y-98358501D01*
X184565602Y-98504172D01*
X184565609Y-98504185D01*
X184653210Y-98635288D01*
X184653213Y-98635292D01*
X184764707Y-98746786D01*
X184764711Y-98746789D01*
X184895814Y-98834390D01*
X184895827Y-98834397D01*
X185041498Y-98894735D01*
X185041503Y-98894737D01*
X185196153Y-98925499D01*
X185196156Y-98925500D01*
X185196158Y-98925500D01*
X185353844Y-98925500D01*
X185353845Y-98925499D01*
X185508497Y-98894737D01*
X185621166Y-98848067D01*
X185654172Y-98834397D01*
X185654172Y-98834396D01*
X185654179Y-98834394D01*
X185785289Y-98746789D01*
X185896789Y-98635289D01*
X185984394Y-98504179D01*
X186044737Y-98358497D01*
X186075500Y-98203842D01*
X186075500Y-98046158D01*
X186075500Y-98046155D01*
X186059209Y-97964258D01*
X186059209Y-97964257D01*
X186055608Y-97946153D01*
X186649500Y-97946153D01*
X186649500Y-98103846D01*
X186680261Y-98258489D01*
X186680264Y-98258501D01*
X186740602Y-98404172D01*
X186740609Y-98404185D01*
X186828210Y-98535288D01*
X186828213Y-98535292D01*
X186939707Y-98646786D01*
X186939711Y-98646789D01*
X187070814Y-98734390D01*
X187070827Y-98734397D01*
X187216498Y-98794735D01*
X187216503Y-98794737D01*
X187371153Y-98825499D01*
X187371156Y-98825500D01*
X187371158Y-98825500D01*
X187528844Y-98825500D01*
X187528845Y-98825499D01*
X187683497Y-98794737D01*
X187814182Y-98740606D01*
X187829172Y-98734397D01*
X187829172Y-98734396D01*
X187829179Y-98734394D01*
X187960289Y-98646789D01*
X188071789Y-98535289D01*
X188159394Y-98404179D01*
X188219737Y-98258497D01*
X188250500Y-98103842D01*
X188250500Y-97946158D01*
X188250500Y-97946155D01*
X188250499Y-97946153D01*
X188228090Y-97833497D01*
X188219737Y-97791503D01*
X188182043Y-97700500D01*
X188159397Y-97645827D01*
X188159390Y-97645814D01*
X188071789Y-97514711D01*
X188071786Y-97514707D01*
X187960292Y-97403213D01*
X187960288Y-97403210D01*
X187829185Y-97315609D01*
X187829172Y-97315602D01*
X187683501Y-97255264D01*
X187683489Y-97255261D01*
X187528845Y-97224500D01*
X187528842Y-97224500D01*
X187371158Y-97224500D01*
X187371155Y-97224500D01*
X187216510Y-97255261D01*
X187216498Y-97255264D01*
X187070827Y-97315602D01*
X187070814Y-97315609D01*
X186939711Y-97403210D01*
X186939707Y-97403213D01*
X186828213Y-97514707D01*
X186828210Y-97514711D01*
X186740609Y-97645814D01*
X186740602Y-97645827D01*
X186680264Y-97791498D01*
X186680261Y-97791510D01*
X186649500Y-97946153D01*
X186055608Y-97946153D01*
X186044738Y-97891510D01*
X186044737Y-97891503D01*
X186020712Y-97833501D01*
X185984397Y-97745827D01*
X185984390Y-97745814D01*
X185896789Y-97614711D01*
X185896786Y-97614707D01*
X185785292Y-97503213D01*
X185785288Y-97503210D01*
X185654185Y-97415609D01*
X185654172Y-97415602D01*
X185508501Y-97355264D01*
X185508489Y-97355261D01*
X185353845Y-97324500D01*
X185353842Y-97324500D01*
X185196158Y-97324500D01*
X185196155Y-97324500D01*
X185041510Y-97355261D01*
X185041498Y-97355264D01*
X184895827Y-97415602D01*
X184895814Y-97415609D01*
X184764711Y-97503210D01*
X184764707Y-97503213D01*
X184653213Y-97614707D01*
X184653210Y-97614711D01*
X184565609Y-97745814D01*
X184565602Y-97745827D01*
X184505264Y-97891498D01*
X184505261Y-97891510D01*
X184474500Y-98046153D01*
X183669887Y-98046153D01*
X183659397Y-98020827D01*
X183659390Y-98020814D01*
X183571789Y-97889711D01*
X183571786Y-97889707D01*
X183460292Y-97778213D01*
X183460288Y-97778210D01*
X183329185Y-97690609D01*
X183329172Y-97690602D01*
X183183501Y-97630264D01*
X183183489Y-97630261D01*
X183028845Y-97599500D01*
X183028842Y-97599500D01*
X182871158Y-97599500D01*
X182871155Y-97599500D01*
X182716510Y-97630261D01*
X182716498Y-97630264D01*
X182570827Y-97690602D01*
X182570814Y-97690609D01*
X182439711Y-97778210D01*
X182439707Y-97778213D01*
X182328213Y-97889707D01*
X182328210Y-97889711D01*
X182240609Y-98020814D01*
X182240602Y-98020827D01*
X182180264Y-98166498D01*
X182180261Y-98166510D01*
X182149500Y-98321153D01*
X180118761Y-98321153D01*
X180118822Y-96025500D01*
X180118831Y-95696153D01*
X185799500Y-95696153D01*
X185799500Y-95853846D01*
X185830261Y-96008489D01*
X185830264Y-96008501D01*
X185890602Y-96154172D01*
X185890609Y-96154185D01*
X185978210Y-96285288D01*
X185978213Y-96285292D01*
X186089707Y-96396786D01*
X186089711Y-96396789D01*
X186220814Y-96484390D01*
X186220827Y-96484397D01*
X186366498Y-96544735D01*
X186366503Y-96544737D01*
X186521153Y-96575499D01*
X186521156Y-96575500D01*
X186521158Y-96575500D01*
X186678844Y-96575500D01*
X186678845Y-96575499D01*
X186833497Y-96544737D01*
X186979179Y-96484394D01*
X187110289Y-96396789D01*
X187221789Y-96285289D01*
X187309394Y-96154179D01*
X187369737Y-96008497D01*
X187400500Y-95853842D01*
X187400500Y-95696158D01*
X187400500Y-95696155D01*
X187400499Y-95696153D01*
X187395527Y-95671158D01*
X187369737Y-95541503D01*
X187335352Y-95458489D01*
X187309397Y-95395827D01*
X187309390Y-95395814D01*
X187221789Y-95264711D01*
X187221786Y-95264707D01*
X187110292Y-95153213D01*
X187110288Y-95153210D01*
X186979185Y-95065609D01*
X186979172Y-95065602D01*
X186833501Y-95005264D01*
X186833489Y-95005261D01*
X186678845Y-94974500D01*
X186678842Y-94974500D01*
X186521158Y-94974500D01*
X186521155Y-94974500D01*
X186366510Y-95005261D01*
X186366498Y-95005264D01*
X186220827Y-95065602D01*
X186220814Y-95065609D01*
X186089711Y-95153210D01*
X186089707Y-95153213D01*
X185978213Y-95264707D01*
X185978210Y-95264711D01*
X185890609Y-95395814D01*
X185890602Y-95395827D01*
X185830264Y-95541498D01*
X185830261Y-95541510D01*
X185799500Y-95696153D01*
X180118831Y-95696153D01*
X180118831Y-95690063D01*
X180118851Y-94950499D01*
X180118904Y-92946153D01*
X184099500Y-92946153D01*
X184099500Y-93103846D01*
X184130261Y-93258489D01*
X184130264Y-93258501D01*
X184190602Y-93404172D01*
X184190609Y-93404185D01*
X184278210Y-93535288D01*
X184278213Y-93535292D01*
X184389707Y-93646786D01*
X184389711Y-93646789D01*
X184520814Y-93734390D01*
X184520827Y-93734397D01*
X184666498Y-93794735D01*
X184666503Y-93794737D01*
X184821153Y-93825499D01*
X184821156Y-93825500D01*
X184821158Y-93825500D01*
X184978844Y-93825500D01*
X184978845Y-93825499D01*
X185133497Y-93794737D01*
X185279179Y-93734394D01*
X185410289Y-93646789D01*
X185521789Y-93535289D01*
X185609394Y-93404179D01*
X185669737Y-93258497D01*
X185682138Y-93196153D01*
X208824500Y-93196153D01*
X208824500Y-93353846D01*
X208855261Y-93508489D01*
X208855264Y-93508501D01*
X208915602Y-93654172D01*
X208915609Y-93654185D01*
X209003210Y-93785288D01*
X209003213Y-93785292D01*
X209114707Y-93896786D01*
X209114711Y-93896789D01*
X209245814Y-93984390D01*
X209245827Y-93984397D01*
X209391498Y-94044735D01*
X209391503Y-94044737D01*
X209541131Y-94074500D01*
X209546153Y-94075499D01*
X209546156Y-94075500D01*
X209546158Y-94075500D01*
X209703844Y-94075500D01*
X209703845Y-94075499D01*
X209725694Y-94071153D01*
X214314500Y-94071153D01*
X214314500Y-94228846D01*
X214345261Y-94383489D01*
X214345264Y-94383501D01*
X214405602Y-94529172D01*
X214405609Y-94529185D01*
X214493210Y-94660288D01*
X214493213Y-94660292D01*
X214604707Y-94771786D01*
X214604711Y-94771789D01*
X214735814Y-94859390D01*
X214735827Y-94859397D01*
X214881498Y-94919735D01*
X214881503Y-94919737D01*
X215036153Y-94950499D01*
X215036156Y-94950500D01*
X215036158Y-94950500D01*
X215193844Y-94950500D01*
X215193845Y-94950499D01*
X215348497Y-94919737D01*
X215494179Y-94859394D01*
X215625289Y-94771789D01*
X215736789Y-94660289D01*
X215824394Y-94529179D01*
X215884737Y-94383497D01*
X215915500Y-94228842D01*
X215915500Y-94071158D01*
X215915500Y-94071155D01*
X215915499Y-94071153D01*
X215910245Y-94044738D01*
X215884737Y-93916503D01*
X215852929Y-93839711D01*
X215824397Y-93770827D01*
X215824390Y-93770814D01*
X215736789Y-93639711D01*
X215736786Y-93639707D01*
X215625292Y-93528213D01*
X215625288Y-93528210D01*
X215494185Y-93440609D01*
X215494172Y-93440602D01*
X215348501Y-93380264D01*
X215348489Y-93380261D01*
X215193845Y-93349500D01*
X215193842Y-93349500D01*
X215036158Y-93349500D01*
X215036155Y-93349500D01*
X214881510Y-93380261D01*
X214881498Y-93380264D01*
X214735827Y-93440602D01*
X214735814Y-93440609D01*
X214604711Y-93528210D01*
X214604707Y-93528213D01*
X214493213Y-93639707D01*
X214493210Y-93639711D01*
X214405609Y-93770814D01*
X214405602Y-93770827D01*
X214345264Y-93916498D01*
X214345261Y-93916510D01*
X214314500Y-94071153D01*
X209725694Y-94071153D01*
X209858497Y-94044737D01*
X210004179Y-93984394D01*
X210004185Y-93984390D01*
X210037749Y-93961964D01*
X210105792Y-93916498D01*
X210135289Y-93896789D01*
X210246789Y-93785289D01*
X210334394Y-93654179D01*
X210340389Y-93639707D01*
X210365011Y-93580263D01*
X210394737Y-93508497D01*
X210425500Y-93353842D01*
X210425500Y-93196158D01*
X210425500Y-93196155D01*
X210425499Y-93196153D01*
X210394738Y-93041510D01*
X210394737Y-93041503D01*
X210355242Y-92946153D01*
X210334397Y-92895827D01*
X210334390Y-92895814D01*
X210246789Y-92764711D01*
X210246786Y-92764707D01*
X210135292Y-92653213D01*
X210135288Y-92653210D01*
X210004185Y-92565609D01*
X210004172Y-92565602D01*
X209858501Y-92505264D01*
X209858489Y-92505261D01*
X209703845Y-92474500D01*
X209703842Y-92474500D01*
X209546158Y-92474500D01*
X209546155Y-92474500D01*
X209391510Y-92505261D01*
X209391498Y-92505264D01*
X209245827Y-92565602D01*
X209245814Y-92565609D01*
X209114711Y-92653210D01*
X209114707Y-92653213D01*
X209003213Y-92764707D01*
X209003210Y-92764711D01*
X208915609Y-92895814D01*
X208915602Y-92895827D01*
X208855264Y-93041498D01*
X208855261Y-93041510D01*
X208824500Y-93196153D01*
X185682138Y-93196153D01*
X185688161Y-93165874D01*
X185700500Y-93103844D01*
X185700500Y-92946155D01*
X185700499Y-92946153D01*
X185669738Y-92791510D01*
X185669737Y-92791503D01*
X185669735Y-92791498D01*
X185609397Y-92645827D01*
X185609390Y-92645814D01*
X185521789Y-92514711D01*
X185521786Y-92514707D01*
X185410292Y-92403213D01*
X185410288Y-92403210D01*
X185279185Y-92315609D01*
X185279172Y-92315602D01*
X185133501Y-92255264D01*
X185133489Y-92255261D01*
X184978845Y-92224500D01*
X184978842Y-92224500D01*
X184821158Y-92224500D01*
X184821155Y-92224500D01*
X184666510Y-92255261D01*
X184666498Y-92255264D01*
X184520827Y-92315602D01*
X184520814Y-92315609D01*
X184389711Y-92403210D01*
X184389707Y-92403213D01*
X184278213Y-92514707D01*
X184278210Y-92514711D01*
X184190609Y-92645814D01*
X184190602Y-92645827D01*
X184130264Y-92791498D01*
X184130261Y-92791510D01*
X184099500Y-92946153D01*
X180118904Y-92946153D01*
X180118969Y-90496153D01*
X186124500Y-90496153D01*
X186124500Y-90653846D01*
X186155261Y-90808489D01*
X186155264Y-90808501D01*
X186215602Y-90954172D01*
X186215609Y-90954185D01*
X186303210Y-91085288D01*
X186303213Y-91085292D01*
X186414707Y-91196786D01*
X186414711Y-91196789D01*
X186545814Y-91284390D01*
X186545827Y-91284397D01*
X186621823Y-91315875D01*
X186691503Y-91344737D01*
X186846153Y-91375499D01*
X186846156Y-91375500D01*
X186846158Y-91375500D01*
X187003844Y-91375500D01*
X187003845Y-91375499D01*
X187158497Y-91344737D01*
X187304179Y-91284394D01*
X187435289Y-91196789D01*
X187546789Y-91085289D01*
X187634394Y-90954179D01*
X187694737Y-90808497D01*
X187725500Y-90653842D01*
X187725500Y-90496158D01*
X187725500Y-90496155D01*
X187725499Y-90496153D01*
X187712393Y-90430264D01*
X187694737Y-90341503D01*
X187655242Y-90246153D01*
X189599500Y-90246153D01*
X189599500Y-90403846D01*
X189630261Y-90558489D01*
X189630264Y-90558501D01*
X189690602Y-90704172D01*
X189690609Y-90704185D01*
X189778210Y-90835288D01*
X189778213Y-90835292D01*
X189889707Y-90946786D01*
X189889711Y-90946789D01*
X190020814Y-91034390D01*
X190020827Y-91034397D01*
X190166498Y-91094735D01*
X190166503Y-91094737D01*
X190276987Y-91116713D01*
X190299691Y-91121230D01*
X190361602Y-91153615D01*
X190396176Y-91214330D01*
X190399500Y-91242847D01*
X190399500Y-91278846D01*
X190430261Y-91433489D01*
X190430264Y-91433501D01*
X190490602Y-91579172D01*
X190490609Y-91579185D01*
X190578210Y-91710288D01*
X190578213Y-91710292D01*
X190689707Y-91821786D01*
X190689711Y-91821789D01*
X190820814Y-91909390D01*
X190820827Y-91909397D01*
X190966498Y-91969735D01*
X190966503Y-91969737D01*
X191092176Y-91994735D01*
X191121153Y-92000499D01*
X191121156Y-92000500D01*
X191121158Y-92000500D01*
X191278844Y-92000500D01*
X191278845Y-92000499D01*
X191433497Y-91969737D01*
X191579179Y-91909394D01*
X191598996Y-91896153D01*
X197899500Y-91896153D01*
X197899500Y-92053846D01*
X197930261Y-92208489D01*
X197930264Y-92208501D01*
X197990602Y-92354172D01*
X197990609Y-92354185D01*
X198078210Y-92485288D01*
X198078213Y-92485292D01*
X198189707Y-92596786D01*
X198189711Y-92596789D01*
X198320814Y-92684390D01*
X198320827Y-92684397D01*
X198466498Y-92744735D01*
X198466503Y-92744737D01*
X198621153Y-92775499D01*
X198621156Y-92775500D01*
X198621158Y-92775500D01*
X198778844Y-92775500D01*
X198778845Y-92775499D01*
X198933497Y-92744737D01*
X199079179Y-92684394D01*
X199210289Y-92596789D01*
X199321789Y-92485289D01*
X199409394Y-92354179D01*
X199469737Y-92208497D01*
X199500500Y-92053842D01*
X199500500Y-91896158D01*
X199500500Y-91896155D01*
X199500499Y-91896153D01*
X199482204Y-91804179D01*
X199469737Y-91741503D01*
X199456808Y-91710289D01*
X199409397Y-91595827D01*
X199409390Y-91595814D01*
X199321789Y-91464711D01*
X199321786Y-91464707D01*
X199210292Y-91353213D01*
X199210288Y-91353210D01*
X199079185Y-91265609D01*
X199079172Y-91265602D01*
X198933501Y-91205264D01*
X198933489Y-91205261D01*
X198778845Y-91174500D01*
X198778842Y-91174500D01*
X198621158Y-91174500D01*
X198621155Y-91174500D01*
X198466510Y-91205261D01*
X198466498Y-91205264D01*
X198320827Y-91265602D01*
X198320814Y-91265609D01*
X198189711Y-91353210D01*
X198189707Y-91353213D01*
X198078213Y-91464707D01*
X198078210Y-91464711D01*
X197990609Y-91595814D01*
X197990602Y-91595827D01*
X197930264Y-91741498D01*
X197930261Y-91741510D01*
X197899500Y-91896153D01*
X191598996Y-91896153D01*
X191710289Y-91821789D01*
X191710292Y-91821786D01*
X191729694Y-91802385D01*
X191821786Y-91710292D01*
X191821789Y-91710289D01*
X191909394Y-91579179D01*
X191969737Y-91433497D01*
X192000500Y-91278842D01*
X192000500Y-91121158D01*
X192000500Y-91121155D01*
X192000499Y-91121153D01*
X191995245Y-91094738D01*
X191969737Y-90966503D01*
X191919752Y-90845827D01*
X191916327Y-90837558D01*
X191916311Y-90837520D01*
X191915386Y-90835288D01*
X191909394Y-90820821D01*
X191909391Y-90820816D01*
X191909390Y-90820814D01*
X191892912Y-90796153D01*
X206824500Y-90796153D01*
X206824500Y-90953846D01*
X206855261Y-91108489D01*
X206855264Y-91108501D01*
X206915602Y-91254172D01*
X206915609Y-91254185D01*
X207003210Y-91385288D01*
X207003213Y-91385292D01*
X207114707Y-91496786D01*
X207114711Y-91496789D01*
X207245814Y-91584390D01*
X207245827Y-91584397D01*
X207391498Y-91644735D01*
X207391503Y-91644737D01*
X207546153Y-91675499D01*
X207546156Y-91675500D01*
X207546158Y-91675500D01*
X207703844Y-91675500D01*
X207703845Y-91675499D01*
X207858497Y-91644737D01*
X207976592Y-91595821D01*
X208004172Y-91584397D01*
X208004172Y-91584396D01*
X208004179Y-91584394D01*
X208135289Y-91496789D01*
X208246789Y-91385289D01*
X208334394Y-91254179D01*
X208379139Y-91146153D01*
X210299500Y-91146153D01*
X210299500Y-91303846D01*
X210330261Y-91458489D01*
X210330264Y-91458501D01*
X210390602Y-91604172D01*
X210390609Y-91604185D01*
X210478210Y-91735288D01*
X210478213Y-91735292D01*
X210589707Y-91846786D01*
X210589711Y-91846789D01*
X210720814Y-91934390D01*
X210720827Y-91934397D01*
X210866498Y-91994735D01*
X210866503Y-91994737D01*
X211021153Y-92025499D01*
X211021156Y-92025500D01*
X211021158Y-92025500D01*
X211178844Y-92025500D01*
X211178845Y-92025499D01*
X211333497Y-91994737D01*
X211479179Y-91934394D01*
X211610289Y-91846789D01*
X211721789Y-91735289D01*
X211809394Y-91604179D01*
X211812854Y-91595827D01*
X211850954Y-91503844D01*
X211869737Y-91458497D01*
X211886246Y-91375500D01*
X211892084Y-91346153D01*
X214329500Y-91346153D01*
X214329500Y-91503846D01*
X214360261Y-91658489D01*
X214360264Y-91658501D01*
X214420602Y-91804172D01*
X214420609Y-91804185D01*
X214508210Y-91935288D01*
X214508213Y-91935292D01*
X214619707Y-92046786D01*
X214619711Y-92046789D01*
X214750814Y-92134390D01*
X214750827Y-92134397D01*
X214896498Y-92194735D01*
X214896503Y-92194737D01*
X215046131Y-92224500D01*
X215051153Y-92225499D01*
X215051156Y-92225500D01*
X215051158Y-92225500D01*
X215208844Y-92225500D01*
X215208845Y-92225499D01*
X215363497Y-92194737D01*
X215509179Y-92134394D01*
X215640289Y-92046789D01*
X215751789Y-91935289D01*
X215839394Y-91804179D01*
X215899737Y-91658497D01*
X215930500Y-91503842D01*
X215930500Y-91346158D01*
X215930500Y-91346155D01*
X215930499Y-91346153D01*
X215924476Y-91315874D01*
X215899737Y-91191503D01*
X215892694Y-91174500D01*
X215839397Y-91045827D01*
X215839390Y-91045814D01*
X215751789Y-90914711D01*
X215751786Y-90914707D01*
X215640292Y-90803213D01*
X215640288Y-90803210D01*
X215509185Y-90715609D01*
X215509172Y-90715602D01*
X215363501Y-90655264D01*
X215363489Y-90655261D01*
X215208845Y-90624500D01*
X215208842Y-90624500D01*
X215051158Y-90624500D01*
X215051155Y-90624500D01*
X214896510Y-90655261D01*
X214896498Y-90655264D01*
X214750827Y-90715602D01*
X214750814Y-90715609D01*
X214619711Y-90803210D01*
X214619707Y-90803213D01*
X214508213Y-90914707D01*
X214508210Y-90914711D01*
X214420609Y-91045814D01*
X214420602Y-91045827D01*
X214360264Y-91191498D01*
X214360261Y-91191510D01*
X214329500Y-91346153D01*
X211892084Y-91346153D01*
X211898107Y-91315875D01*
X211898107Y-91315874D01*
X211900500Y-91303844D01*
X211900500Y-91146155D01*
X211900499Y-91146153D01*
X211895527Y-91121158D01*
X211869737Y-90991503D01*
X211859380Y-90966498D01*
X211809397Y-90845827D01*
X211809390Y-90845814D01*
X211721789Y-90714711D01*
X211721786Y-90714707D01*
X211610292Y-90603213D01*
X211610288Y-90603210D01*
X211479185Y-90515609D01*
X211479172Y-90515602D01*
X211333501Y-90455264D01*
X211333489Y-90455261D01*
X211178845Y-90424500D01*
X211178842Y-90424500D01*
X211021158Y-90424500D01*
X211021155Y-90424500D01*
X210866510Y-90455261D01*
X210866498Y-90455264D01*
X210720827Y-90515602D01*
X210720814Y-90515609D01*
X210589711Y-90603210D01*
X210589707Y-90603213D01*
X210478213Y-90714707D01*
X210478210Y-90714711D01*
X210390609Y-90845814D01*
X210390602Y-90845827D01*
X210330264Y-90991498D01*
X210330261Y-90991510D01*
X210299500Y-91146153D01*
X208379139Y-91146153D01*
X208394737Y-91108497D01*
X208425500Y-90953842D01*
X208425500Y-90796158D01*
X208425500Y-90796155D01*
X208425499Y-90796153D01*
X208394737Y-90641503D01*
X208368521Y-90578211D01*
X208334397Y-90495827D01*
X208334390Y-90495814D01*
X208246789Y-90364711D01*
X208246786Y-90364707D01*
X208135292Y-90253213D01*
X208135288Y-90253210D01*
X208004185Y-90165609D01*
X208004172Y-90165602D01*
X207858501Y-90105264D01*
X207858489Y-90105261D01*
X207703845Y-90074500D01*
X207703842Y-90074500D01*
X207546158Y-90074500D01*
X207546155Y-90074500D01*
X207391510Y-90105261D01*
X207391498Y-90105264D01*
X207245827Y-90165602D01*
X207245814Y-90165609D01*
X207114711Y-90253210D01*
X207114707Y-90253213D01*
X207003213Y-90364707D01*
X207003210Y-90364711D01*
X206915609Y-90495814D01*
X206915602Y-90495827D01*
X206855264Y-90641498D01*
X206855261Y-90641510D01*
X206824500Y-90796153D01*
X191892912Y-90796153D01*
X191821789Y-90689711D01*
X191821786Y-90689707D01*
X191710292Y-90578213D01*
X191710288Y-90578210D01*
X191579185Y-90490609D01*
X191579172Y-90490602D01*
X191433501Y-90430264D01*
X191433491Y-90430261D01*
X191300308Y-90403769D01*
X191238397Y-90371384D01*
X191203823Y-90310668D01*
X191200500Y-90282152D01*
X191200500Y-90246155D01*
X191200499Y-90246153D01*
X191190486Y-90195814D01*
X191169737Y-90091503D01*
X191162694Y-90074500D01*
X191109397Y-89945827D01*
X191109390Y-89945814D01*
X191021789Y-89814711D01*
X191021786Y-89814707D01*
X190910292Y-89703213D01*
X190910288Y-89703210D01*
X190779185Y-89615609D01*
X190779172Y-89615602D01*
X190633501Y-89555264D01*
X190633489Y-89555261D01*
X190478845Y-89524500D01*
X190478842Y-89524500D01*
X190321158Y-89524500D01*
X190321155Y-89524500D01*
X190166510Y-89555261D01*
X190166498Y-89555264D01*
X190020827Y-89615602D01*
X190020814Y-89615609D01*
X189889711Y-89703210D01*
X189889707Y-89703213D01*
X189778213Y-89814707D01*
X189778210Y-89814711D01*
X189690609Y-89945814D01*
X189690602Y-89945827D01*
X189630264Y-90091498D01*
X189630261Y-90091510D01*
X189599500Y-90246153D01*
X187655242Y-90246153D01*
X187654933Y-90245408D01*
X187634397Y-90195827D01*
X187634390Y-90195814D01*
X187546789Y-90064711D01*
X187546786Y-90064707D01*
X187435292Y-89953213D01*
X187435288Y-89953210D01*
X187304185Y-89865609D01*
X187304172Y-89865602D01*
X187158501Y-89805264D01*
X187158489Y-89805261D01*
X187003845Y-89774500D01*
X187003842Y-89774500D01*
X186846158Y-89774500D01*
X186846155Y-89774500D01*
X186691510Y-89805261D01*
X186691498Y-89805264D01*
X186545827Y-89865602D01*
X186545814Y-89865609D01*
X186414711Y-89953210D01*
X186414707Y-89953213D01*
X186303213Y-90064707D01*
X186303210Y-90064711D01*
X186215609Y-90195814D01*
X186215602Y-90195827D01*
X186155264Y-90341498D01*
X186155261Y-90341510D01*
X186124500Y-90496153D01*
X180118969Y-90496153D01*
X180119040Y-87846153D01*
X184874500Y-87846153D01*
X184874500Y-88003846D01*
X184905261Y-88158489D01*
X184905264Y-88158501D01*
X184965602Y-88304172D01*
X184965609Y-88304185D01*
X185053210Y-88435288D01*
X185053213Y-88435292D01*
X185164707Y-88546786D01*
X185164711Y-88546789D01*
X185295814Y-88634390D01*
X185295827Y-88634397D01*
X185372562Y-88666181D01*
X185441503Y-88694737D01*
X185596153Y-88725499D01*
X185596156Y-88725500D01*
X185596158Y-88725500D01*
X185753844Y-88725500D01*
X185753845Y-88725499D01*
X185908497Y-88694737D01*
X186054179Y-88634394D01*
X186185289Y-88546789D01*
X186296789Y-88435289D01*
X186384394Y-88304179D01*
X186444737Y-88158497D01*
X186475500Y-88003842D01*
X186475500Y-87846158D01*
X186475500Y-87846155D01*
X186475499Y-87846153D01*
X186474288Y-87840063D01*
X186444737Y-87691503D01*
X186407043Y-87600500D01*
X186384397Y-87545827D01*
X186384390Y-87545814D01*
X186296789Y-87414711D01*
X186296786Y-87414707D01*
X186185292Y-87303213D01*
X186185288Y-87303210D01*
X186054185Y-87215609D01*
X186054172Y-87215602D01*
X185908501Y-87155264D01*
X185908489Y-87155261D01*
X185753845Y-87124500D01*
X185753842Y-87124500D01*
X185596158Y-87124500D01*
X185596155Y-87124500D01*
X185441510Y-87155261D01*
X185441498Y-87155264D01*
X185295827Y-87215602D01*
X185295814Y-87215609D01*
X185164711Y-87303210D01*
X185164707Y-87303213D01*
X185053213Y-87414707D01*
X185053210Y-87414711D01*
X184965609Y-87545814D01*
X184965602Y-87545827D01*
X184905264Y-87691498D01*
X184905261Y-87691510D01*
X184874500Y-87846153D01*
X180119040Y-87846153D01*
X180119071Y-86670700D01*
X180120254Y-86664331D01*
X180119483Y-86660605D01*
X180127335Y-86626196D01*
X180143746Y-86583524D01*
X180150994Y-86567982D01*
X180209874Y-86461638D01*
X180219197Y-86447249D01*
X180292197Y-86350052D01*
X180303414Y-86337092D01*
X180382248Y-86257831D01*
X180384652Y-86255480D01*
X180401258Y-86239672D01*
X180405004Y-86236251D01*
X180417878Y-86224987D01*
X180421377Y-86222041D01*
X180503662Y-86155419D01*
X180520027Y-86144213D01*
X180615168Y-86089699D01*
X180633119Y-86081243D01*
X180672455Y-86066435D01*
X180716002Y-86058485D01*
X183337832Y-86055591D01*
X183404891Y-86075202D01*
X183450704Y-86127955D01*
X183460724Y-86197103D01*
X183431770Y-86260690D01*
X183425649Y-86267272D01*
X183353210Y-86339711D01*
X183265609Y-86470814D01*
X183265602Y-86470827D01*
X183205264Y-86616498D01*
X183205261Y-86616510D01*
X183174500Y-86771153D01*
X183174500Y-86928846D01*
X183205261Y-87083489D01*
X183205264Y-87083501D01*
X183265602Y-87229172D01*
X183265609Y-87229185D01*
X183353210Y-87360288D01*
X183353213Y-87360292D01*
X183464707Y-87471786D01*
X183464711Y-87471789D01*
X183595814Y-87559390D01*
X183595827Y-87559397D01*
X183695060Y-87600500D01*
X183741503Y-87619737D01*
X183862038Y-87643713D01*
X183896153Y-87650499D01*
X183896156Y-87650500D01*
X183896158Y-87650500D01*
X184053844Y-87650500D01*
X184053845Y-87650499D01*
X184208497Y-87619737D01*
X184354179Y-87559394D01*
X184485289Y-87471789D01*
X184596789Y-87360289D01*
X184684394Y-87229179D01*
X184744737Y-87083497D01*
X184775500Y-86928842D01*
X184775500Y-86771158D01*
X184775500Y-86771155D01*
X184775499Y-86771153D01*
X184755518Y-86670703D01*
X184744737Y-86616503D01*
X184735809Y-86594949D01*
X184684397Y-86470827D01*
X184684390Y-86470814D01*
X184596789Y-86339711D01*
X184596786Y-86339707D01*
X184522947Y-86265868D01*
X184489462Y-86204545D01*
X184494446Y-86134853D01*
X184536318Y-86078920D01*
X184601782Y-86054503D01*
X184610466Y-86054187D01*
X189269378Y-86049045D01*
X189336437Y-86068656D01*
X189382250Y-86121409D01*
X189392270Y-86190557D01*
X189363316Y-86254144D01*
X189357196Y-86260725D01*
X189328210Y-86289711D01*
X189240609Y-86420814D01*
X189240602Y-86420827D01*
X189180264Y-86566498D01*
X189180261Y-86566510D01*
X189149500Y-86721153D01*
X189149500Y-86878846D01*
X189180261Y-87033489D01*
X189180264Y-87033501D01*
X189240602Y-87179172D01*
X189240609Y-87179185D01*
X189328210Y-87310288D01*
X189328213Y-87310292D01*
X189439707Y-87421786D01*
X189439711Y-87421789D01*
X189570814Y-87509390D01*
X189570827Y-87509397D01*
X189716498Y-87569735D01*
X189716503Y-87569737D01*
X189871153Y-87600499D01*
X189871156Y-87600500D01*
X189871158Y-87600500D01*
X190028844Y-87600500D01*
X190028845Y-87600499D01*
X190183497Y-87569737D01*
X190329179Y-87509394D01*
X190460289Y-87421789D01*
X190571789Y-87310289D01*
X190659394Y-87179179D01*
X190719737Y-87033497D01*
X190750500Y-86878842D01*
X190750500Y-86852155D01*
X192280000Y-86852155D01*
X192280000Y-87500000D01*
X193196988Y-87500000D01*
X193164075Y-87557007D01*
X193130000Y-87684174D01*
X193130000Y-87815826D01*
X193164075Y-87942993D01*
X193196988Y-88000000D01*
X192280000Y-88000000D01*
X192280000Y-88647844D01*
X192286401Y-88707372D01*
X192286403Y-88707379D01*
X192336645Y-88842086D01*
X192336649Y-88842093D01*
X192422809Y-88957187D01*
X192422812Y-88957190D01*
X192537906Y-89043350D01*
X192537913Y-89043354D01*
X192672620Y-89093596D01*
X192672627Y-89093598D01*
X192732155Y-89099999D01*
X192732172Y-89100000D01*
X193380000Y-89100000D01*
X193380000Y-88183012D01*
X193437007Y-88215925D01*
X193564174Y-88250000D01*
X193695826Y-88250000D01*
X193822993Y-88215925D01*
X193880000Y-88183012D01*
X193880000Y-89100000D01*
X194527828Y-89100000D01*
X194527844Y-89099999D01*
X194587372Y-89093598D01*
X194587379Y-89093596D01*
X194722086Y-89043354D01*
X194722093Y-89043350D01*
X194837187Y-88957190D01*
X194837190Y-88957187D01*
X194923350Y-88842093D01*
X194923354Y-88842086D01*
X194972422Y-88710529D01*
X195014293Y-88654595D01*
X195079757Y-88630178D01*
X195148030Y-88645030D01*
X195176285Y-88666181D01*
X195290213Y-88780109D01*
X195462179Y-88905048D01*
X195462181Y-88905049D01*
X195462184Y-88905051D01*
X195651588Y-89001557D01*
X195853757Y-89067246D01*
X196063713Y-89100500D01*
X196063714Y-89100500D01*
X196276286Y-89100500D01*
X196276287Y-89100500D01*
X196486243Y-89067246D01*
X196688412Y-89001557D01*
X196877816Y-88905051D01*
X196964471Y-88842093D01*
X197049786Y-88780109D01*
X197049788Y-88780106D01*
X197049792Y-88780104D01*
X197200104Y-88629792D01*
X197200106Y-88629788D01*
X197200109Y-88629786D01*
X197325048Y-88457820D01*
X197325047Y-88457820D01*
X197325051Y-88457816D01*
X197329514Y-88449054D01*
X197377488Y-88398259D01*
X197445308Y-88381463D01*
X197511444Y-88403999D01*
X197550486Y-88449056D01*
X197554951Y-88457820D01*
X197679890Y-88629786D01*
X197830213Y-88780109D01*
X198002179Y-88905048D01*
X198002181Y-88905049D01*
X198002184Y-88905051D01*
X198191588Y-89001557D01*
X198393757Y-89067246D01*
X198603713Y-89100500D01*
X198603714Y-89100500D01*
X198816286Y-89100500D01*
X198816287Y-89100500D01*
X199026243Y-89067246D01*
X199228412Y-89001557D01*
X199417816Y-88905051D01*
X199504471Y-88842093D01*
X199589786Y-88780109D01*
X199589788Y-88780106D01*
X199589792Y-88780104D01*
X199740104Y-88629792D01*
X199740106Y-88629788D01*
X199740109Y-88629786D01*
X199865048Y-88457820D01*
X199865047Y-88457820D01*
X199865051Y-88457816D01*
X199869514Y-88449054D01*
X199917488Y-88398259D01*
X199985308Y-88381463D01*
X200051444Y-88403999D01*
X200090486Y-88449056D01*
X200094951Y-88457820D01*
X200219890Y-88629786D01*
X200370213Y-88780109D01*
X200542179Y-88905048D01*
X200542181Y-88905049D01*
X200542184Y-88905051D01*
X200731588Y-89001557D01*
X200933757Y-89067246D01*
X201143713Y-89100500D01*
X201143714Y-89100500D01*
X201356286Y-89100500D01*
X201356287Y-89100500D01*
X201566243Y-89067246D01*
X201768412Y-89001557D01*
X201957816Y-88905051D01*
X202044471Y-88842093D01*
X202129786Y-88780109D01*
X202129788Y-88780106D01*
X202129792Y-88780104D01*
X202280104Y-88629792D01*
X202280106Y-88629788D01*
X202280109Y-88629786D01*
X202405048Y-88457820D01*
X202405047Y-88457820D01*
X202405051Y-88457816D01*
X202501557Y-88268412D01*
X202567246Y-88066243D01*
X202600500Y-87856287D01*
X202600500Y-87643713D01*
X202567246Y-87433757D01*
X202501557Y-87231588D01*
X202405051Y-87042184D01*
X202405049Y-87042181D01*
X202405048Y-87042179D01*
X202317542Y-86921736D01*
X202280109Y-86870214D01*
X202280105Y-86870209D01*
X202262051Y-86852155D01*
X205890000Y-86852155D01*
X205890000Y-87500000D01*
X206806988Y-87500000D01*
X206774075Y-87557007D01*
X206740000Y-87684174D01*
X206740000Y-87815826D01*
X206774075Y-87942993D01*
X206806988Y-88000000D01*
X205890000Y-88000000D01*
X205890000Y-88647844D01*
X205896401Y-88707372D01*
X205896403Y-88707379D01*
X205946645Y-88842086D01*
X205946649Y-88842093D01*
X206032809Y-88957187D01*
X206032812Y-88957190D01*
X206147906Y-89043350D01*
X206147913Y-89043354D01*
X206282620Y-89093596D01*
X206282627Y-89093598D01*
X206342155Y-89099999D01*
X206342172Y-89100000D01*
X206990000Y-89100000D01*
X206990000Y-88183012D01*
X207047007Y-88215925D01*
X207174174Y-88250000D01*
X207305826Y-88250000D01*
X207432993Y-88215925D01*
X207490000Y-88183012D01*
X207490000Y-89100000D01*
X208137828Y-89100000D01*
X208137844Y-89099999D01*
X208197372Y-89093598D01*
X208197379Y-89093596D01*
X208332086Y-89043354D01*
X208332093Y-89043350D01*
X208447187Y-88957190D01*
X208447190Y-88957187D01*
X208533350Y-88842093D01*
X208533354Y-88842086D01*
X208582422Y-88710529D01*
X208624293Y-88654595D01*
X208689757Y-88630178D01*
X208758030Y-88645030D01*
X208786285Y-88666181D01*
X208900213Y-88780109D01*
X209072179Y-88905048D01*
X209072181Y-88905049D01*
X209072184Y-88905051D01*
X209261588Y-89001557D01*
X209463757Y-89067246D01*
X209673713Y-89100500D01*
X209673714Y-89100500D01*
X209886286Y-89100500D01*
X209886287Y-89100500D01*
X210096243Y-89067246D01*
X210298412Y-89001557D01*
X210487816Y-88905051D01*
X210574471Y-88842093D01*
X210659786Y-88780109D01*
X210659788Y-88780106D01*
X210659792Y-88780104D01*
X210810104Y-88629792D01*
X210810106Y-88629788D01*
X210810109Y-88629786D01*
X210935048Y-88457820D01*
X210935047Y-88457820D01*
X210935051Y-88457816D01*
X210939514Y-88449054D01*
X210987488Y-88398259D01*
X211055308Y-88381463D01*
X211121444Y-88403999D01*
X211160486Y-88449056D01*
X211164951Y-88457820D01*
X211289890Y-88629786D01*
X211440213Y-88780109D01*
X211612179Y-88905048D01*
X211612181Y-88905049D01*
X211612184Y-88905051D01*
X211801588Y-89001557D01*
X212003757Y-89067246D01*
X212213713Y-89100500D01*
X212213714Y-89100500D01*
X212426286Y-89100500D01*
X212426287Y-89100500D01*
X212636243Y-89067246D01*
X212838412Y-89001557D01*
X213027816Y-88905051D01*
X213114471Y-88842093D01*
X213199786Y-88780109D01*
X213199788Y-88780106D01*
X213199792Y-88780104D01*
X213350104Y-88629792D01*
X213350106Y-88629788D01*
X213350109Y-88629786D01*
X213475048Y-88457820D01*
X213475047Y-88457820D01*
X213475051Y-88457816D01*
X213479514Y-88449054D01*
X213527488Y-88398259D01*
X213595308Y-88381463D01*
X213661444Y-88403999D01*
X213700486Y-88449056D01*
X213704951Y-88457820D01*
X213829890Y-88629786D01*
X213980213Y-88780109D01*
X214152179Y-88905048D01*
X214152181Y-88905049D01*
X214152184Y-88905051D01*
X214341588Y-89001557D01*
X214543757Y-89067246D01*
X214753713Y-89100500D01*
X214753714Y-89100500D01*
X214966286Y-89100500D01*
X214966287Y-89100500D01*
X215176243Y-89067246D01*
X215378412Y-89001557D01*
X215567816Y-88905051D01*
X215654471Y-88842093D01*
X215739786Y-88780109D01*
X215739788Y-88780106D01*
X215739792Y-88780104D01*
X215890104Y-88629792D01*
X215890106Y-88629788D01*
X215890109Y-88629786D01*
X216015048Y-88457820D01*
X216015047Y-88457820D01*
X216015051Y-88457816D01*
X216111557Y-88268412D01*
X216177246Y-88066243D01*
X216210500Y-87856287D01*
X216210500Y-87643713D01*
X216177246Y-87433757D01*
X216111557Y-87231588D01*
X216015051Y-87042184D01*
X216015049Y-87042181D01*
X216015048Y-87042179D01*
X215890109Y-86870213D01*
X215739786Y-86719890D01*
X215567820Y-86594951D01*
X215378414Y-86498444D01*
X215378413Y-86498443D01*
X215378412Y-86498443D01*
X215176243Y-86432754D01*
X215176241Y-86432753D01*
X215176240Y-86432753D01*
X215014957Y-86407208D01*
X214966287Y-86399500D01*
X214753713Y-86399500D01*
X214705042Y-86407208D01*
X214543760Y-86432753D01*
X214341585Y-86498444D01*
X214152179Y-86594951D01*
X213980213Y-86719890D01*
X213829890Y-86870213D01*
X213704949Y-87042182D01*
X213700484Y-87050946D01*
X213652509Y-87101742D01*
X213584688Y-87118536D01*
X213518553Y-87095998D01*
X213479516Y-87050946D01*
X213475050Y-87042182D01*
X213350109Y-86870213D01*
X213199786Y-86719890D01*
X213027820Y-86594951D01*
X212838414Y-86498444D01*
X212838413Y-86498443D01*
X212838412Y-86498443D01*
X212636243Y-86432754D01*
X212636241Y-86432753D01*
X212636240Y-86432753D01*
X212474957Y-86407208D01*
X212426287Y-86399500D01*
X212213713Y-86399500D01*
X212165042Y-86407208D01*
X212003760Y-86432753D01*
X211801585Y-86498444D01*
X211612179Y-86594951D01*
X211440213Y-86719890D01*
X211289890Y-86870213D01*
X211164949Y-87042182D01*
X211160484Y-87050946D01*
X211112509Y-87101742D01*
X211044688Y-87118536D01*
X210978553Y-87095998D01*
X210939516Y-87050946D01*
X210935050Y-87042182D01*
X210810109Y-86870213D01*
X210659786Y-86719890D01*
X210487820Y-86594951D01*
X210298414Y-86498444D01*
X210298413Y-86498443D01*
X210298412Y-86498443D01*
X210096243Y-86432754D01*
X210096241Y-86432753D01*
X210096240Y-86432753D01*
X209934957Y-86407208D01*
X209886287Y-86399500D01*
X209673713Y-86399500D01*
X209625042Y-86407208D01*
X209463760Y-86432753D01*
X209261585Y-86498444D01*
X209072179Y-86594951D01*
X208900215Y-86719889D01*
X208786285Y-86833819D01*
X208724962Y-86867303D01*
X208655270Y-86862319D01*
X208599337Y-86820447D01*
X208582422Y-86789470D01*
X208533354Y-86657913D01*
X208533350Y-86657906D01*
X208447190Y-86542812D01*
X208447187Y-86542809D01*
X208332093Y-86456649D01*
X208332086Y-86456645D01*
X208197379Y-86406403D01*
X208197372Y-86406401D01*
X208137844Y-86400000D01*
X207490000Y-86400000D01*
X207490000Y-87316988D01*
X207432993Y-87284075D01*
X207305826Y-87250000D01*
X207174174Y-87250000D01*
X207047007Y-87284075D01*
X206990000Y-87316988D01*
X206990000Y-86400000D01*
X206342155Y-86400000D01*
X206282627Y-86406401D01*
X206282620Y-86406403D01*
X206147913Y-86456645D01*
X206147906Y-86456649D01*
X206032812Y-86542809D01*
X206032809Y-86542812D01*
X205946649Y-86657906D01*
X205946645Y-86657913D01*
X205896403Y-86792620D01*
X205896401Y-86792627D01*
X205890000Y-86852155D01*
X202262051Y-86852155D01*
X202129786Y-86719890D01*
X201957820Y-86594951D01*
X201768414Y-86498444D01*
X201768413Y-86498443D01*
X201768412Y-86498443D01*
X201566243Y-86432754D01*
X201566241Y-86432753D01*
X201566240Y-86432753D01*
X201404957Y-86407208D01*
X201356287Y-86399500D01*
X201143713Y-86399500D01*
X201095042Y-86407208D01*
X200933760Y-86432753D01*
X200731585Y-86498444D01*
X200542179Y-86594951D01*
X200370213Y-86719890D01*
X200219890Y-86870213D01*
X200094949Y-87042182D01*
X200090484Y-87050946D01*
X200042509Y-87101742D01*
X199974688Y-87118536D01*
X199908553Y-87095998D01*
X199869516Y-87050946D01*
X199865050Y-87042182D01*
X199740109Y-86870213D01*
X199589786Y-86719890D01*
X199417820Y-86594951D01*
X199228414Y-86498444D01*
X199228413Y-86498443D01*
X199228412Y-86498443D01*
X199026243Y-86432754D01*
X199026241Y-86432753D01*
X199026240Y-86432753D01*
X198864957Y-86407208D01*
X198816287Y-86399500D01*
X198603713Y-86399500D01*
X198555042Y-86407208D01*
X198393760Y-86432753D01*
X198191585Y-86498444D01*
X198002179Y-86594951D01*
X197830213Y-86719890D01*
X197679890Y-86870213D01*
X197554949Y-87042182D01*
X197550484Y-87050946D01*
X197502509Y-87101742D01*
X197434688Y-87118536D01*
X197368553Y-87095998D01*
X197329516Y-87050946D01*
X197325050Y-87042182D01*
X197200109Y-86870213D01*
X197049786Y-86719890D01*
X196877820Y-86594951D01*
X196688414Y-86498444D01*
X196688413Y-86498443D01*
X196688412Y-86498443D01*
X196486243Y-86432754D01*
X196486241Y-86432753D01*
X196486240Y-86432753D01*
X196324957Y-86407208D01*
X196276287Y-86399500D01*
X196063713Y-86399500D01*
X196015042Y-86407208D01*
X195853760Y-86432753D01*
X195651585Y-86498444D01*
X195462179Y-86594951D01*
X195290215Y-86719889D01*
X195176285Y-86833819D01*
X195114962Y-86867303D01*
X195045270Y-86862319D01*
X194989337Y-86820447D01*
X194972422Y-86789470D01*
X194923354Y-86657913D01*
X194923350Y-86657906D01*
X194837190Y-86542812D01*
X194837187Y-86542809D01*
X194722093Y-86456649D01*
X194722086Y-86456645D01*
X194587379Y-86406403D01*
X194587372Y-86406401D01*
X194527844Y-86400000D01*
X193880000Y-86400000D01*
X193880000Y-87316988D01*
X193822993Y-87284075D01*
X193695826Y-87250000D01*
X193564174Y-87250000D01*
X193437007Y-87284075D01*
X193380000Y-87316988D01*
X193380000Y-86400000D01*
X192732155Y-86400000D01*
X192672627Y-86406401D01*
X192672620Y-86406403D01*
X192537913Y-86456645D01*
X192537906Y-86456649D01*
X192422812Y-86542809D01*
X192422809Y-86542812D01*
X192336649Y-86657906D01*
X192336645Y-86657913D01*
X192286403Y-86792620D01*
X192286401Y-86792627D01*
X192280000Y-86852155D01*
X190750500Y-86852155D01*
X190750500Y-86721158D01*
X190750500Y-86721155D01*
X190750499Y-86721153D01*
X190729684Y-86616510D01*
X190719737Y-86566503D01*
X190719735Y-86566498D01*
X190659397Y-86420827D01*
X190659390Y-86420814D01*
X190571789Y-86289711D01*
X190571786Y-86289707D01*
X190541305Y-86259226D01*
X190507820Y-86197903D01*
X190512804Y-86128211D01*
X190554676Y-86072278D01*
X190620140Y-86047861D01*
X190628828Y-86047545D01*
X217897217Y-86017450D01*
X217942256Y-86025867D01*
G37*
%TD.AperFunction*%
%TD*%
M02*
