%TF.GenerationSoftware,KiCad,Pcbnew,9.0.4+dfsg-1*%
%TF.CreationDate,2025-09-13T16:22:08-07:00*%
%TF.ProjectId,APM,41504d2e-6b69-4636-9164-5f7063625858,rev?*%
%TF.SameCoordinates,Original*%
%TF.FileFunction,Soldermask,Bot*%
%TF.FilePolarity,Negative*%
%FSLAX46Y46*%
G04 Gerber Fmt 4.6, Leading zero omitted, Abs format (unit mm)*
G04 Created by KiCad (PCBNEW 9.0.4+dfsg-1) date 2025-09-13 16:22:08*
%MOMM*%
%LPD*%
G01*
G04 APERTURE LIST*
G04 Aperture macros list*
%AMRoundRect*
0 Rectangle with rounded corners*
0 $1 Rounding radius*
0 $2 $3 $4 $5 $6 $7 $8 $9 X,Y pos of 4 corners*
0 Add a 4 corners polygon primitive as box body*
4,1,4,$2,$3,$4,$5,$6,$7,$8,$9,$2,$3,0*
0 Add four circle primitives for the rounded corners*
1,1,$1+$1,$2,$3*
1,1,$1+$1,$4,$5*
1,1,$1+$1,$6,$7*
1,1,$1+$1,$8,$9*
0 Add four rect primitives between the rounded corners*
20,1,$1+$1,$2,$3,$4,$5,0*
20,1,$1+$1,$4,$5,$6,$7,0*
20,1,$1+$1,$6,$7,$8,$9,0*
20,1,$1+$1,$8,$9,$2,$3,0*%
G04 Aperture macros list end*
%ADD10R,1.800000X2.200000*%
%ADD11R,0.300000X1.300000*%
%ADD12RoundRect,0.218750X0.218750X0.256250X-0.218750X0.256250X-0.218750X-0.256250X0.218750X-0.256250X0*%
%ADD13C,3.200000*%
%ADD14R,1.700000X1.700000*%
%ADD15C,1.700000*%
%ADD16R,1.530000X1.530000*%
%ADD17C,1.530000*%
%ADD18RoundRect,0.250000X0.350000X0.450000X-0.350000X0.450000X-0.350000X-0.450000X0.350000X-0.450000X0*%
%ADD19R,1.050000X1.500000*%
%ADD20O,1.050000X1.500000*%
%ADD21RoundRect,0.250000X-0.475000X0.250000X-0.475000X-0.250000X0.475000X-0.250000X0.475000X0.250000X0*%
%ADD22R,1.500000X1.500000*%
%ADD23RoundRect,0.218750X-0.218750X-0.256250X0.218750X-0.256250X0.218750X0.256250X-0.218750X0.256250X0*%
%ADD24RoundRect,0.150000X0.825000X0.150000X-0.825000X0.150000X-0.825000X-0.150000X0.825000X-0.150000X0*%
%ADD25RoundRect,0.150000X-0.150000X0.825000X-0.150000X-0.825000X0.150000X-0.825000X0.150000X0.825000X0*%
%ADD26R,0.850000X0.850000*%
%ADD27C,0.850000*%
%ADD28C,1.100000*%
%ADD29R,1.100000X2.500000*%
%ADD30O,1.900000X3.500000*%
%ADD31R,2.180000X1.600000*%
%ADD32RoundRect,0.250000X0.250000X0.475000X-0.250000X0.475000X-0.250000X-0.475000X0.250000X-0.475000X0*%
%ADD33C,2.500000*%
%ADD34RoundRect,0.250000X-0.450000X0.350000X-0.450000X-0.350000X0.450000X-0.350000X0.450000X0.350000X0*%
%ADD35RoundRect,0.250000X-0.350000X-0.450000X0.350000X-0.450000X0.350000X0.450000X-0.350000X0.450000X0*%
%ADD36C,1.500000*%
G04 APERTURE END LIST*
D10*
%TO.C,J14*%
X113356748Y-120403415D03*
X105056748Y-120403415D03*
D11*
X111456748Y-123653415D03*
X110956748Y-123653415D03*
X110456748Y-123653415D03*
X109956748Y-123653415D03*
X109456748Y-123653415D03*
X108956748Y-123653415D03*
X108456748Y-123653415D03*
X107956748Y-123653415D03*
X107456748Y-123653415D03*
X106956748Y-123653415D03*
%TD*%
D12*
%TO.C,D17*%
X106462500Y-141250000D03*
X108037500Y-141250000D03*
%TD*%
D13*
%TO.C,REF\u002A\u002A*%
X127300000Y-54650000D03*
%TD*%
%TO.C,REF\u002A\u002A*%
X75900000Y-151300000D03*
%TD*%
D14*
%TO.C,J15*%
X125902010Y-62633948D03*
D15*
X128442010Y-62633948D03*
X125902010Y-65173948D03*
X128442010Y-65173948D03*
X125902010Y-67713948D03*
X128442010Y-67713948D03*
X125902010Y-70253948D03*
X128442010Y-70253948D03*
X125902010Y-72793948D03*
X128442010Y-72793948D03*
X125902010Y-75333948D03*
X128442010Y-75333948D03*
X125902010Y-77873948D03*
X128442010Y-77873948D03*
X125902010Y-80413948D03*
X128442010Y-80413948D03*
X125902010Y-82953948D03*
X128442010Y-82953948D03*
X125902010Y-85493948D03*
X128442010Y-85493948D03*
X125902010Y-88033948D03*
X128442010Y-88033948D03*
X125902010Y-90573948D03*
X128442010Y-90573948D03*
X125902010Y-93113948D03*
X128442010Y-93113948D03*
X125902010Y-95653948D03*
X128442010Y-95653948D03*
X125902010Y-98193948D03*
X128442010Y-98193948D03*
X125902010Y-100733948D03*
X128442010Y-100733948D03*
X125902010Y-103273948D03*
X128442010Y-103273948D03*
X125902010Y-105813948D03*
X128442010Y-105813948D03*
X125902010Y-108353948D03*
X128442010Y-108353948D03*
X125902010Y-110893948D03*
X128442010Y-110893948D03*
X125902010Y-113433948D03*
X128442010Y-113433948D03*
X125902010Y-115973948D03*
X128442010Y-115973948D03*
X125902010Y-118513948D03*
X128442010Y-118513948D03*
X125902010Y-121053948D03*
X128442010Y-121053948D03*
X125902010Y-123593948D03*
X128442010Y-123593948D03*
X125902010Y-126133948D03*
X128442010Y-126133948D03*
X125902010Y-128673948D03*
X128442010Y-128673948D03*
X125902010Y-131213948D03*
X128442010Y-131213948D03*
X125902010Y-133753948D03*
X128442010Y-133753948D03*
X125902010Y-136293948D03*
X128442010Y-136293948D03*
X125902010Y-138833948D03*
X128442010Y-138833948D03*
X125902010Y-141373948D03*
X128442010Y-141373948D03*
X125902010Y-143913948D03*
X128442010Y-143913948D03*
X125902010Y-146453948D03*
X128442010Y-146453948D03*
X125902010Y-148993948D03*
X128442010Y-148993948D03*
X125902010Y-151533948D03*
X128442010Y-151533948D03*
%TD*%
D14*
%TO.C,J13*%
X64954058Y-62633948D03*
D15*
X67494058Y-62633948D03*
X64954058Y-65173948D03*
X67494058Y-65173948D03*
X64954058Y-67713948D03*
X67494058Y-67713948D03*
X64954058Y-70253948D03*
X67494058Y-70253948D03*
X64954058Y-72793948D03*
X67494058Y-72793948D03*
X64954058Y-75333948D03*
X67494058Y-75333948D03*
X64954058Y-77873948D03*
X67494058Y-77873948D03*
X64954058Y-80413948D03*
X67494058Y-80413948D03*
X64954058Y-82953948D03*
X67494058Y-82953948D03*
X64954058Y-85493948D03*
X67494058Y-85493948D03*
X64954058Y-88033948D03*
X67494058Y-88033948D03*
X64954058Y-90573948D03*
X67494058Y-90573948D03*
X64954058Y-93113948D03*
X67494058Y-93113948D03*
X64954058Y-95653948D03*
X67494058Y-95653948D03*
X64954058Y-98193948D03*
X67494058Y-98193948D03*
X64954058Y-100733948D03*
X67494058Y-100733948D03*
X64954058Y-103273948D03*
X67494058Y-103273948D03*
X64954058Y-105813948D03*
X67494058Y-105813948D03*
X64954058Y-108353948D03*
X67494058Y-108353948D03*
X64954058Y-110893948D03*
X67494058Y-110893948D03*
X64954058Y-113433948D03*
X67494058Y-113433948D03*
X64954058Y-115973948D03*
X67494058Y-115973948D03*
X64954058Y-118513948D03*
X67494058Y-118513948D03*
X64954058Y-121053948D03*
X67494058Y-121053948D03*
X64954058Y-123593948D03*
X67494058Y-123593948D03*
X64954058Y-126133948D03*
X67494058Y-126133948D03*
X64954058Y-128673948D03*
X67494058Y-128673948D03*
X64954058Y-131213948D03*
X67494058Y-131213948D03*
X64954058Y-133753948D03*
X67494058Y-133753948D03*
X64954058Y-136293948D03*
X67494058Y-136293948D03*
X64954058Y-138833948D03*
X67494058Y-138833948D03*
X64954058Y-141373948D03*
X67494058Y-141373948D03*
X64954058Y-143913948D03*
X67494058Y-143913948D03*
X64954058Y-146453948D03*
X67494058Y-146453948D03*
X64954058Y-148993948D03*
X67494058Y-148993948D03*
X64954058Y-151533948D03*
X67494058Y-151533948D03*
%TD*%
D13*
%TO.C,REF\u002A\u002A*%
X66250000Y-54550000D03*
%TD*%
%TO.C,REF\u002A\u002A*%
X117600000Y-151300000D03*
%TD*%
D16*
%TO.C,U1*%
X118290000Y-63626000D03*
D17*
X120830000Y-63626000D03*
X118290000Y-66166000D03*
X120830000Y-66166000D03*
X118290000Y-68706000D03*
X120830000Y-68706000D03*
X118290000Y-71246000D03*
X120830000Y-71246000D03*
X118290000Y-73786000D03*
X120830000Y-73786000D03*
X118290000Y-76326000D03*
X120830000Y-76326000D03*
X118290000Y-78866000D03*
X120830000Y-78866000D03*
X118290000Y-81406000D03*
X120830000Y-81406000D03*
X118290000Y-83946000D03*
X120830000Y-83946000D03*
X118290000Y-86486000D03*
X120830000Y-86486000D03*
D16*
X72570000Y-72770000D03*
D17*
X75110000Y-72770000D03*
X72570000Y-75310000D03*
X75110000Y-75310000D03*
X72570000Y-77850000D03*
X75110000Y-77850000D03*
X72570000Y-80390000D03*
X75110000Y-80390000D03*
X72570000Y-82930000D03*
X75110000Y-82930000D03*
X72570000Y-85470000D03*
X75110000Y-85470000D03*
X72570000Y-88010000D03*
X75110000Y-88010000D03*
X72570000Y-90550000D03*
X75110000Y-90550000D03*
D16*
X72570000Y-95630000D03*
D17*
X75110000Y-95630000D03*
X72570000Y-98170000D03*
X75110000Y-98170000D03*
X72570000Y-100710000D03*
X75110000Y-100710000D03*
X72570000Y-103250000D03*
X75110000Y-103250000D03*
X72570000Y-105790000D03*
X75110000Y-105790000D03*
X72570000Y-108330000D03*
X75110000Y-108330000D03*
X72570000Y-110870000D03*
X75110000Y-110870000D03*
X72570000Y-113410000D03*
X75110000Y-113410000D03*
X72570000Y-115950000D03*
X75110000Y-115950000D03*
X72570000Y-118490000D03*
X75110000Y-118490000D03*
X72570000Y-121030000D03*
X75110000Y-121030000D03*
X72570000Y-123570000D03*
X75110000Y-123570000D03*
X72570000Y-126110000D03*
X75110000Y-126110000D03*
X72570000Y-128650000D03*
X75110000Y-128650000D03*
X72570000Y-131190000D03*
X75110000Y-131190000D03*
D16*
X118290000Y-90550000D03*
D17*
X120830000Y-90550000D03*
X118290000Y-93090000D03*
X120830000Y-93090000D03*
X118290000Y-95630000D03*
X120830000Y-95630000D03*
X118290000Y-98170000D03*
X120830000Y-98170000D03*
X118290000Y-100710000D03*
X120830000Y-100710000D03*
X118290000Y-103250000D03*
X120830000Y-103250000D03*
X118290000Y-105790000D03*
X120830000Y-105790000D03*
X118290000Y-108330000D03*
X120830000Y-108330000D03*
X118290000Y-110870000D03*
X120830000Y-110870000D03*
X118290000Y-113410000D03*
X120830000Y-113410000D03*
X118290000Y-115950000D03*
X120830000Y-115950000D03*
X118290000Y-118490000D03*
X120830000Y-118490000D03*
X118290000Y-121030000D03*
X120830000Y-121030000D03*
X118290000Y-123570000D03*
X120830000Y-123570000D03*
X118290000Y-126110000D03*
X120830000Y-126110000D03*
X118290000Y-128650000D03*
X120830000Y-128650000D03*
X118290000Y-131190000D03*
X120830000Y-131190000D03*
%TD*%
D18*
%TO.C,R6*%
X87100000Y-94100000D03*
X85100000Y-94100000D03*
%TD*%
%TO.C,R3*%
X114025000Y-113675000D03*
X112025000Y-113675000D03*
%TD*%
D14*
%TO.C,J5*%
X82825000Y-111000000D03*
D15*
X80285000Y-111000000D03*
%TD*%
D19*
%TO.C,TH4*%
X102800000Y-93550000D03*
D20*
X100260000Y-93550000D03*
%TD*%
D21*
%TO.C,C30*%
X91190000Y-75750000D03*
X91190000Y-77650000D03*
%TD*%
D12*
%TO.C,D15*%
X108100000Y-147100000D03*
X106525000Y-147100000D03*
%TD*%
D14*
%TO.C,J1*%
X71150000Y-68700000D03*
D15*
X71150000Y-66160000D03*
X71150000Y-63620000D03*
%TD*%
D18*
%TO.C,R92*%
X98740000Y-84750000D03*
X96740000Y-84750000D03*
%TD*%
D14*
%TO.C,J4*%
X87985000Y-117850000D03*
D15*
X85445000Y-117850000D03*
X82905000Y-117850000D03*
X80365000Y-117850000D03*
%TD*%
D19*
%TO.C,TH5*%
X104460000Y-131268000D03*
D20*
X107000000Y-131268000D03*
%TD*%
D22*
%TO.C,TP7*%
X106850000Y-96800000D03*
%TD*%
D23*
%TO.C,D60*%
X93182500Y-76820000D03*
X94757500Y-76820000D03*
%TD*%
D14*
%TO.C,J2*%
X116710000Y-54300000D03*
D15*
X119250000Y-54300000D03*
X121790000Y-54300000D03*
%TD*%
D18*
%TO.C,R1*%
X99142500Y-145810000D03*
X97142500Y-145810000D03*
%TD*%
%TO.C,R8*%
X88650000Y-127725000D03*
X86650000Y-127725000D03*
%TD*%
D23*
%TO.C,D63*%
X93182500Y-84590000D03*
X94757500Y-84590000D03*
%TD*%
D22*
%TO.C,TP4*%
X82000000Y-131400000D03*
%TD*%
%TO.C,TP3*%
X111450000Y-131350000D03*
%TD*%
D12*
%TO.C,D16*%
X108100000Y-144200000D03*
X106525000Y-144200000D03*
%TD*%
D14*
%TO.C,J3*%
X87340000Y-149900000D03*
D15*
X84800000Y-149900000D03*
X82260000Y-149900000D03*
%TD*%
D24*
%TO.C,U13*%
X85475000Y-97745000D03*
X85475000Y-99015000D03*
X85475000Y-100285000D03*
X85475000Y-101555000D03*
X80525000Y-101555000D03*
X80525000Y-100285000D03*
X80525000Y-99015000D03*
X80525000Y-97745000D03*
%TD*%
D25*
%TO.C,U38*%
X79310000Y-80475000D03*
X80580000Y-80475000D03*
X81850000Y-80475000D03*
X83120000Y-80475000D03*
X84390000Y-80475000D03*
X85660000Y-80475000D03*
X86930000Y-80475000D03*
X88200000Y-80475000D03*
X88200000Y-85425000D03*
X86930000Y-85425000D03*
X85660000Y-85425000D03*
X84390000Y-85425000D03*
X83120000Y-85425000D03*
X81850000Y-85425000D03*
X80580000Y-85425000D03*
X79310000Y-85425000D03*
%TD*%
D26*
%TO.C,J7*%
X80200000Y-93600000D03*
D27*
X81200000Y-93600000D03*
%TD*%
D23*
%TO.C,D62*%
X93182500Y-82000000D03*
X94757500Y-82000000D03*
%TD*%
D18*
%TO.C,R88*%
X98740000Y-72950000D03*
X96740000Y-72950000D03*
%TD*%
D19*
%TO.C,TH3*%
X86460000Y-131318000D03*
D20*
X89000000Y-131318000D03*
%TD*%
D18*
%TO.C,R28*%
X90540000Y-97000000D03*
X88540000Y-97000000D03*
%TD*%
%TO.C,R2*%
X99142500Y-140060000D03*
X97142500Y-140060000D03*
%TD*%
D28*
%TO.C,J21*%
X105400000Y-63000000D03*
X110000000Y-63000000D03*
D29*
X111200000Y-65750000D03*
X108700000Y-65750000D03*
X106700000Y-65750000D03*
X104200000Y-65750000D03*
D30*
X102000000Y-63000000D03*
X113400000Y-63000000D03*
%TD*%
D18*
%TO.C,R7*%
X104250000Y-73900000D03*
X102250000Y-73900000D03*
%TD*%
%TO.C,R30*%
X90600000Y-103670000D03*
X88600000Y-103670000D03*
%TD*%
D21*
%TO.C,C31*%
X86290000Y-75750000D03*
X86290000Y-77650000D03*
%TD*%
D14*
%TO.C,J12*%
X93360000Y-125900000D03*
D15*
X95900000Y-125900000D03*
X98440000Y-125900000D03*
%TD*%
D18*
%TO.C,R26*%
X90600000Y-100300000D03*
X88600000Y-100300000D03*
%TD*%
%TO.C,R41*%
X103892500Y-138260000D03*
X101892500Y-138260000D03*
%TD*%
%TO.C,R38*%
X103892500Y-147110000D03*
X101892500Y-147110000D03*
%TD*%
%TO.C,R40*%
X103892500Y-141210000D03*
X101892500Y-141210000D03*
%TD*%
%TO.C,R39*%
X103892500Y-144160000D03*
X101892500Y-144160000D03*
%TD*%
D12*
%TO.C,D7*%
X95525000Y-103675000D03*
X93950000Y-103675000D03*
%TD*%
D31*
%TO.C,SW1*%
X94032500Y-145810000D03*
X84852500Y-145810000D03*
%TD*%
D19*
%TO.C,TH1*%
X92500000Y-89832000D03*
D20*
X89960000Y-89832000D03*
%TD*%
D14*
%TO.C,J11*%
X97175000Y-99650000D03*
D15*
X94635000Y-99650000D03*
%TD*%
D19*
%TO.C,TH2*%
X98850000Y-67582000D03*
D20*
X96310000Y-67582000D03*
%TD*%
D18*
%TO.C,R89*%
X98740000Y-75900000D03*
X96740000Y-75900000D03*
%TD*%
D32*
%TO.C,C5*%
X83650000Y-106000000D03*
X81750000Y-106000000D03*
%TD*%
D33*
%TO.C,TP1*%
X94900000Y-118750000D03*
%TD*%
%TO.C,TP2*%
X99450000Y-118750000D03*
%TD*%
D32*
%TO.C,C29*%
X98850000Y-88330000D03*
X96950000Y-88330000D03*
%TD*%
D31*
%TO.C,SW2*%
X94032500Y-140060000D03*
X84852500Y-140060000D03*
%TD*%
D18*
%TO.C,R90*%
X78400000Y-63700000D03*
X76400000Y-63700000D03*
%TD*%
D22*
%TO.C,TP6*%
X85450000Y-89750000D03*
%TD*%
D23*
%TO.C,D32*%
X102450000Y-69350000D03*
X104025000Y-69350000D03*
%TD*%
%TO.C,D61*%
X93182500Y-79410000D03*
X94757500Y-79410000D03*
%TD*%
D34*
%TO.C,R53*%
X95900000Y-93600000D03*
X95900000Y-95600000D03*
%TD*%
D35*
%TO.C,R50*%
X107950000Y-69350000D03*
X109950000Y-69350000D03*
%TD*%
%TO.C,R4*%
X112025000Y-110400000D03*
X114025000Y-110400000D03*
%TD*%
D28*
%TO.C,J29*%
X85540000Y-62950000D03*
X90140000Y-62950000D03*
D29*
X91340000Y-65700000D03*
X88840000Y-65700000D03*
X86840000Y-65700000D03*
X84340000Y-65700000D03*
D30*
X82140000Y-62950000D03*
X93540000Y-62950000D03*
%TD*%
D18*
%TO.C,R91*%
X98740000Y-81800000D03*
X96740000Y-81800000D03*
%TD*%
D12*
%TO.C,D18*%
X107987500Y-138300000D03*
X106412500Y-138300000D03*
%TD*%
D22*
%TO.C,TP5*%
X108000000Y-73950000D03*
%TD*%
D36*
%TO.C,Y7*%
X91140000Y-71700000D03*
X86260000Y-71700000D03*
%TD*%
D35*
%TO.C,R9*%
X104650000Y-127725000D03*
X106650000Y-127725000D03*
%TD*%
D14*
%TO.C,J30*%
X78375000Y-56875000D03*
D15*
X75835000Y-56875000D03*
X73295000Y-56875000D03*
%TD*%
M02*
