%TF.GenerationSoftware,KiCad,Pcbnew,9.0.0+dfsg-1*%
%TF.CreationDate,2025-06-19T15:00:10-07:00*%
%TF.ProjectId,signalmesh,7369676e-616c-46d6-9573-682e6b696361,rev?*%
%TF.SameCoordinates,Original*%
%TF.FileFunction,Legend,Top*%
%TF.FilePolarity,Positive*%
%FSLAX46Y46*%
G04 Gerber Fmt 4.6, Leading zero omitted, Abs format (unit mm)*
G04 Created by KiCad (PCBNEW 9.0.0+dfsg-1) date 2025-06-19 15:00:10*
%MOMM*%
%LPD*%
G01*
G04 APERTURE LIST*
G04 Aperture macros list*
%AMRoundRect*
0 Rectangle with rounded corners*
0 $1 Rounding radius*
0 $2 $3 $4 $5 $6 $7 $8 $9 X,Y pos of 4 corners*
0 Add a 4 corners polygon primitive as box body*
4,1,4,$2,$3,$4,$5,$6,$7,$8,$9,$2,$3,0*
0 Add four circle primitives for the rounded corners*
1,1,$1+$1,$2,$3*
1,1,$1+$1,$4,$5*
1,1,$1+$1,$6,$7*
1,1,$1+$1,$8,$9*
0 Add four rect primitives between the rounded corners*
20,1,$1+$1,$2,$3,$4,$5,0*
20,1,$1+$1,$4,$5,$6,$7,0*
20,1,$1+$1,$6,$7,$8,$9,0*
20,1,$1+$1,$8,$9,$2,$3,0*%
G04 Aperture macros list end*
%ADD10C,0.100000*%
%ADD11C,0.200000*%
%ADD12C,0.150000*%
%ADD13C,0.120000*%
%ADD14C,0.127000*%
%ADD15C,0.152400*%
%ADD16RoundRect,0.250000X-0.350000X-0.450000X0.350000X-0.450000X0.350000X0.450000X-0.350000X0.450000X0*%
%ADD17R,0.800000X1.600000*%
%ADD18O,0.800000X1.600000*%
%ADD19RoundRect,0.250000X0.450000X-0.350000X0.450000X0.350000X-0.450000X0.350000X-0.450000X-0.350000X0*%
%ADD20RoundRect,0.250000X-0.450000X0.350000X-0.450000X-0.350000X0.450000X-0.350000X0.450000X0.350000X0*%
%ADD21C,3.200000*%
%ADD22RoundRect,0.102000X-0.754000X-0.754000X0.754000X-0.754000X0.754000X0.754000X-0.754000X0.754000X0*%
%ADD23C,1.712000*%
%ADD24R,0.350000X0.500000*%
%ADD25R,1.700000X1.700000*%
%ADD26C,1.700000*%
%ADD27C,3.000000*%
%ADD28RoundRect,0.102000X-0.802500X-0.802500X0.802500X-0.802500X0.802500X0.802500X-0.802500X0.802500X0*%
%ADD29C,1.809000*%
%ADD30RoundRect,0.102000X-0.765000X-0.765000X0.765000X-0.765000X0.765000X0.765000X-0.765000X0.765000X0*%
%ADD31C,1.734000*%
%ADD32RoundRect,0.102000X-0.990600X-0.279400X0.990600X-0.279400X0.990600X0.279400X-0.990600X0.279400X0*%
%ADD33RoundRect,0.150000X-0.825000X-0.150000X0.825000X-0.150000X0.825000X0.150000X-0.825000X0.150000X0*%
%TA.AperFunction,Profile*%
%ADD34C,0.050000*%
%TD*%
G04 APERTURE END LIST*
D10*
X290500000Y-89825000D02*
X310820000Y-89825000D01*
X310820000Y-156500000D01*
X290500000Y-156500000D01*
X290500000Y-89825000D01*
D11*
X385476000Y-120155586D02*
X385764000Y-120251586D01*
X385764000Y-120251586D02*
X386244000Y-120251586D01*
X386244000Y-120251586D02*
X386436000Y-120155586D01*
X386436000Y-120155586D02*
X386532000Y-120059586D01*
X386532000Y-120059586D02*
X386628000Y-119867586D01*
X386628000Y-119867586D02*
X386628000Y-119675586D01*
X386628000Y-119675586D02*
X386532000Y-119483586D01*
X386532000Y-119483586D02*
X386436000Y-119387586D01*
X386436000Y-119387586D02*
X386244000Y-119291586D01*
X386244000Y-119291586D02*
X385860000Y-119195586D01*
X385860000Y-119195586D02*
X385668000Y-119099586D01*
X385668000Y-119099586D02*
X385572000Y-119003586D01*
X385572000Y-119003586D02*
X385476000Y-118811586D01*
X385476000Y-118811586D02*
X385476000Y-118619586D01*
X385476000Y-118619586D02*
X385572000Y-118427586D01*
X385572000Y-118427586D02*
X385668000Y-118331586D01*
X385668000Y-118331586D02*
X385860000Y-118235586D01*
X385860000Y-118235586D02*
X386340000Y-118235586D01*
X386340000Y-118235586D02*
X386628000Y-118331586D01*
X387204000Y-118235586D02*
X388356000Y-118235586D01*
X387780000Y-120251586D02*
X387780000Y-118235586D01*
X389028000Y-120251586D02*
X389028000Y-118235586D01*
X389028000Y-118235586D02*
X389700000Y-119675586D01*
X389700000Y-119675586D02*
X390372000Y-118235586D01*
X390372000Y-118235586D02*
X390372000Y-120251586D01*
X391140000Y-118235586D02*
X392388000Y-118235586D01*
X392388000Y-118235586D02*
X391716000Y-119003586D01*
X391716000Y-119003586D02*
X392004000Y-119003586D01*
X392004000Y-119003586D02*
X392196000Y-119099586D01*
X392196000Y-119099586D02*
X392292000Y-119195586D01*
X392292000Y-119195586D02*
X392388000Y-119387586D01*
X392388000Y-119387586D02*
X392388000Y-119867586D01*
X392388000Y-119867586D02*
X392292000Y-120059586D01*
X392292000Y-120059586D02*
X392196000Y-120155586D01*
X392196000Y-120155586D02*
X392004000Y-120251586D01*
X392004000Y-120251586D02*
X391428000Y-120251586D01*
X391428000Y-120251586D02*
X391236000Y-120155586D01*
X391236000Y-120155586D02*
X391140000Y-120059586D01*
X393156000Y-118427586D02*
X393252000Y-118331586D01*
X393252000Y-118331586D02*
X393444000Y-118235586D01*
X393444000Y-118235586D02*
X393924000Y-118235586D01*
X393924000Y-118235586D02*
X394116000Y-118331586D01*
X394116000Y-118331586D02*
X394212000Y-118427586D01*
X394212000Y-118427586D02*
X394308000Y-118619586D01*
X394308000Y-118619586D02*
X394308000Y-118811586D01*
X394308000Y-118811586D02*
X394212000Y-119099586D01*
X394212000Y-119099586D02*
X393060000Y-120251586D01*
X393060000Y-120251586D02*
X394308000Y-120251586D01*
X395172000Y-120251586D02*
X395172000Y-118235586D01*
X395172000Y-119195586D02*
X396324000Y-119195586D01*
X396324000Y-120251586D02*
X396324000Y-118235586D01*
X397092000Y-118235586D02*
X398436000Y-118235586D01*
X398436000Y-118235586D02*
X397572000Y-120251586D01*
X400164000Y-118235586D02*
X399204000Y-118235586D01*
X399204000Y-118235586D02*
X399108000Y-119195586D01*
X399108000Y-119195586D02*
X399204000Y-119099586D01*
X399204000Y-119099586D02*
X399396000Y-119003586D01*
X399396000Y-119003586D02*
X399876000Y-119003586D01*
X399876000Y-119003586D02*
X400068000Y-119099586D01*
X400068000Y-119099586D02*
X400164000Y-119195586D01*
X400164000Y-119195586D02*
X400260000Y-119387586D01*
X400260000Y-119387586D02*
X400260000Y-119867586D01*
X400260000Y-119867586D02*
X400164000Y-120059586D01*
X400164000Y-120059586D02*
X400068000Y-120155586D01*
X400068000Y-120155586D02*
X399876000Y-120251586D01*
X399876000Y-120251586D02*
X399396000Y-120251586D01*
X399396000Y-120251586D02*
X399204000Y-120155586D01*
X399204000Y-120155586D02*
X399108000Y-120059586D01*
X400932000Y-118235586D02*
X402180000Y-118235586D01*
X402180000Y-118235586D02*
X401508000Y-119003586D01*
X401508000Y-119003586D02*
X401796000Y-119003586D01*
X401796000Y-119003586D02*
X401988000Y-119099586D01*
X401988000Y-119099586D02*
X402084000Y-119195586D01*
X402084000Y-119195586D02*
X402180000Y-119387586D01*
X402180000Y-119387586D02*
X402180000Y-119867586D01*
X402180000Y-119867586D02*
X402084000Y-120059586D01*
X402084000Y-120059586D02*
X401988000Y-120155586D01*
X401988000Y-120155586D02*
X401796000Y-120251586D01*
X401796000Y-120251586D02*
X401220000Y-120251586D01*
X401220000Y-120251586D02*
X401028000Y-120155586D01*
X401028000Y-120155586D02*
X400932000Y-120059586D01*
X404580000Y-120251586D02*
X404580000Y-118235586D01*
X404580000Y-118235586D02*
X405732000Y-120251586D01*
X405732000Y-120251586D02*
X405732000Y-118235586D01*
X406692000Y-118235586D02*
X406692000Y-119867586D01*
X406692000Y-119867586D02*
X406788000Y-120059586D01*
X406788000Y-120059586D02*
X406884000Y-120155586D01*
X406884000Y-120155586D02*
X407076000Y-120251586D01*
X407076000Y-120251586D02*
X407460000Y-120251586D01*
X407460000Y-120251586D02*
X407652000Y-120155586D01*
X407652000Y-120155586D02*
X407748000Y-120059586D01*
X407748000Y-120059586D02*
X407844000Y-119867586D01*
X407844000Y-119867586D02*
X407844000Y-118235586D01*
X409956000Y-120059586D02*
X409860000Y-120155586D01*
X409860000Y-120155586D02*
X409572000Y-120251586D01*
X409572000Y-120251586D02*
X409380000Y-120251586D01*
X409380000Y-120251586D02*
X409092000Y-120155586D01*
X409092000Y-120155586D02*
X408900000Y-119963586D01*
X408900000Y-119963586D02*
X408804000Y-119771586D01*
X408804000Y-119771586D02*
X408708000Y-119387586D01*
X408708000Y-119387586D02*
X408708000Y-119099586D01*
X408708000Y-119099586D02*
X408804000Y-118715586D01*
X408804000Y-118715586D02*
X408900000Y-118523586D01*
X408900000Y-118523586D02*
X409092000Y-118331586D01*
X409092000Y-118331586D02*
X409380000Y-118235586D01*
X409380000Y-118235586D02*
X409572000Y-118235586D01*
X409572000Y-118235586D02*
X409860000Y-118331586D01*
X409860000Y-118331586D02*
X409956000Y-118427586D01*
X411780000Y-120251586D02*
X410820000Y-120251586D01*
X410820000Y-120251586D02*
X410820000Y-118235586D01*
X412452000Y-119195586D02*
X413124000Y-119195586D01*
X413412000Y-120251586D02*
X412452000Y-120251586D01*
X412452000Y-120251586D02*
X412452000Y-118235586D01*
X412452000Y-118235586D02*
X413412000Y-118235586D01*
X414660000Y-118235586D02*
X415044000Y-118235586D01*
X415044000Y-118235586D02*
X415236000Y-118331586D01*
X415236000Y-118331586D02*
X415428000Y-118523586D01*
X415428000Y-118523586D02*
X415524000Y-118907586D01*
X415524000Y-118907586D02*
X415524000Y-119579586D01*
X415524000Y-119579586D02*
X415428000Y-119963586D01*
X415428000Y-119963586D02*
X415236000Y-120155586D01*
X415236000Y-120155586D02*
X415044000Y-120251586D01*
X415044000Y-120251586D02*
X414660000Y-120251586D01*
X414660000Y-120251586D02*
X414468000Y-120155586D01*
X414468000Y-120155586D02*
X414276000Y-119963586D01*
X414276000Y-119963586D02*
X414180000Y-119579586D01*
X414180000Y-119579586D02*
X414180000Y-118907586D01*
X414180000Y-118907586D02*
X414276000Y-118523586D01*
X414276000Y-118523586D02*
X414468000Y-118331586D01*
X414468000Y-118331586D02*
X414660000Y-118235586D01*
X385668000Y-123497233D02*
X385668000Y-121481233D01*
X385668000Y-121481233D02*
X386148000Y-121481233D01*
X386148000Y-121481233D02*
X386436000Y-121577233D01*
X386436000Y-121577233D02*
X386628000Y-121769233D01*
X386628000Y-121769233D02*
X386724000Y-121961233D01*
X386724000Y-121961233D02*
X386820000Y-122345233D01*
X386820000Y-122345233D02*
X386820000Y-122633233D01*
X386820000Y-122633233D02*
X386724000Y-123017233D01*
X386724000Y-123017233D02*
X386628000Y-123209233D01*
X386628000Y-123209233D02*
X386436000Y-123401233D01*
X386436000Y-123401233D02*
X386148000Y-123497233D01*
X386148000Y-123497233D02*
X385668000Y-123497233D01*
X388548000Y-123497233D02*
X388548000Y-122441233D01*
X388548000Y-122441233D02*
X388452000Y-122249233D01*
X388452000Y-122249233D02*
X388260000Y-122153233D01*
X388260000Y-122153233D02*
X387876000Y-122153233D01*
X387876000Y-122153233D02*
X387684000Y-122249233D01*
X388548000Y-123401233D02*
X388356000Y-123497233D01*
X388356000Y-123497233D02*
X387876000Y-123497233D01*
X387876000Y-123497233D02*
X387684000Y-123401233D01*
X387684000Y-123401233D02*
X387588000Y-123209233D01*
X387588000Y-123209233D02*
X387588000Y-123017233D01*
X387588000Y-123017233D02*
X387684000Y-122825233D01*
X387684000Y-122825233D02*
X387876000Y-122729233D01*
X387876000Y-122729233D02*
X388356000Y-122729233D01*
X388356000Y-122729233D02*
X388548000Y-122633233D01*
X389220000Y-122153233D02*
X389988000Y-122153233D01*
X389508000Y-121481233D02*
X389508000Y-123209233D01*
X389508000Y-123209233D02*
X389604000Y-123401233D01*
X389604000Y-123401233D02*
X389796000Y-123497233D01*
X389796000Y-123497233D02*
X389988000Y-123497233D01*
X391524000Y-123497233D02*
X391524000Y-122441233D01*
X391524000Y-122441233D02*
X391428000Y-122249233D01*
X391428000Y-122249233D02*
X391236000Y-122153233D01*
X391236000Y-122153233D02*
X390852000Y-122153233D01*
X390852000Y-122153233D02*
X390660000Y-122249233D01*
X391524000Y-123401233D02*
X391332000Y-123497233D01*
X391332000Y-123497233D02*
X390852000Y-123497233D01*
X390852000Y-123497233D02*
X390660000Y-123401233D01*
X390660000Y-123401233D02*
X390564000Y-123209233D01*
X390564000Y-123209233D02*
X390564000Y-123017233D01*
X390564000Y-123017233D02*
X390660000Y-122825233D01*
X390660000Y-122825233D02*
X390852000Y-122729233D01*
X390852000Y-122729233D02*
X391332000Y-122729233D01*
X391332000Y-122729233D02*
X391524000Y-122633233D01*
X393924000Y-123401233D02*
X394212000Y-123497233D01*
X394212000Y-123497233D02*
X394692000Y-123497233D01*
X394692000Y-123497233D02*
X394884000Y-123401233D01*
X394884000Y-123401233D02*
X394980000Y-123305233D01*
X394980000Y-123305233D02*
X395076000Y-123113233D01*
X395076000Y-123113233D02*
X395076000Y-122921233D01*
X395076000Y-122921233D02*
X394980000Y-122729233D01*
X394980000Y-122729233D02*
X394884000Y-122633233D01*
X394884000Y-122633233D02*
X394692000Y-122537233D01*
X394692000Y-122537233D02*
X394308000Y-122441233D01*
X394308000Y-122441233D02*
X394116000Y-122345233D01*
X394116000Y-122345233D02*
X394020000Y-122249233D01*
X394020000Y-122249233D02*
X393924000Y-122057233D01*
X393924000Y-122057233D02*
X393924000Y-121865233D01*
X393924000Y-121865233D02*
X394020000Y-121673233D01*
X394020000Y-121673233D02*
X394116000Y-121577233D01*
X394116000Y-121577233D02*
X394308000Y-121481233D01*
X394308000Y-121481233D02*
X394788000Y-121481233D01*
X394788000Y-121481233D02*
X395076000Y-121577233D01*
X395940000Y-123497233D02*
X395940000Y-122153233D01*
X395940000Y-121481233D02*
X395844000Y-121577233D01*
X395844000Y-121577233D02*
X395940000Y-121673233D01*
X395940000Y-121673233D02*
X396036000Y-121577233D01*
X396036000Y-121577233D02*
X395940000Y-121481233D01*
X395940000Y-121481233D02*
X395940000Y-121673233D01*
X396900000Y-122153233D02*
X396900000Y-124169233D01*
X396900000Y-122249233D02*
X397092000Y-122153233D01*
X397092000Y-122153233D02*
X397476000Y-122153233D01*
X397476000Y-122153233D02*
X397668000Y-122249233D01*
X397668000Y-122249233D02*
X397764000Y-122345233D01*
X397764000Y-122345233D02*
X397860000Y-122537233D01*
X397860000Y-122537233D02*
X397860000Y-123113233D01*
X397860000Y-123113233D02*
X397764000Y-123305233D01*
X397764000Y-123305233D02*
X397668000Y-123401233D01*
X397668000Y-123401233D02*
X397476000Y-123497233D01*
X397476000Y-123497233D02*
X397092000Y-123497233D01*
X397092000Y-123497233D02*
X396900000Y-123401233D01*
X398724000Y-123497233D02*
X398724000Y-121481233D01*
X399588000Y-123497233D02*
X399588000Y-122441233D01*
X399588000Y-122441233D02*
X399492000Y-122249233D01*
X399492000Y-122249233D02*
X399300000Y-122153233D01*
X399300000Y-122153233D02*
X399012000Y-122153233D01*
X399012000Y-122153233D02*
X398820000Y-122249233D01*
X398820000Y-122249233D02*
X398724000Y-122345233D01*
X400836000Y-123497233D02*
X400644000Y-123401233D01*
X400644000Y-123401233D02*
X400548000Y-123305233D01*
X400548000Y-123305233D02*
X400452000Y-123113233D01*
X400452000Y-123113233D02*
X400452000Y-122537233D01*
X400452000Y-122537233D02*
X400548000Y-122345233D01*
X400548000Y-122345233D02*
X400644000Y-122249233D01*
X400644000Y-122249233D02*
X400836000Y-122153233D01*
X400836000Y-122153233D02*
X401124000Y-122153233D01*
X401124000Y-122153233D02*
X401316000Y-122249233D01*
X401316000Y-122249233D02*
X401412000Y-122345233D01*
X401412000Y-122345233D02*
X401508000Y-122537233D01*
X401508000Y-122537233D02*
X401508000Y-123113233D01*
X401508000Y-123113233D02*
X401412000Y-123305233D01*
X401412000Y-123305233D02*
X401316000Y-123401233D01*
X401316000Y-123401233D02*
X401124000Y-123497233D01*
X401124000Y-123497233D02*
X400836000Y-123497233D01*
X402372000Y-122153233D02*
X402372000Y-123497233D01*
X402372000Y-122345233D02*
X402468000Y-122249233D01*
X402468000Y-122249233D02*
X402660000Y-122153233D01*
X402660000Y-122153233D02*
X402948000Y-122153233D01*
X402948000Y-122153233D02*
X403140000Y-122249233D01*
X403140000Y-122249233D02*
X403236000Y-122441233D01*
X403236000Y-122441233D02*
X403236000Y-123497233D01*
X405732000Y-123497233D02*
X405732000Y-121481233D01*
X405732000Y-121481233D02*
X406404000Y-122921233D01*
X406404000Y-122921233D02*
X407076000Y-121481233D01*
X407076000Y-121481233D02*
X407076000Y-123497233D01*
X408324000Y-123497233D02*
X408132000Y-123401233D01*
X408132000Y-123401233D02*
X408036000Y-123305233D01*
X408036000Y-123305233D02*
X407940000Y-123113233D01*
X407940000Y-123113233D02*
X407940000Y-122537233D01*
X407940000Y-122537233D02*
X408036000Y-122345233D01*
X408036000Y-122345233D02*
X408132000Y-122249233D01*
X408132000Y-122249233D02*
X408324000Y-122153233D01*
X408324000Y-122153233D02*
X408612000Y-122153233D01*
X408612000Y-122153233D02*
X408804000Y-122249233D01*
X408804000Y-122249233D02*
X408900000Y-122345233D01*
X408900000Y-122345233D02*
X408996000Y-122537233D01*
X408996000Y-122537233D02*
X408996000Y-123113233D01*
X408996000Y-123113233D02*
X408900000Y-123305233D01*
X408900000Y-123305233D02*
X408804000Y-123401233D01*
X408804000Y-123401233D02*
X408612000Y-123497233D01*
X408612000Y-123497233D02*
X408324000Y-123497233D01*
X410724000Y-123497233D02*
X410724000Y-121481233D01*
X410724000Y-123401233D02*
X410532000Y-123497233D01*
X410532000Y-123497233D02*
X410148000Y-123497233D01*
X410148000Y-123497233D02*
X409956000Y-123401233D01*
X409956000Y-123401233D02*
X409860000Y-123305233D01*
X409860000Y-123305233D02*
X409764000Y-123113233D01*
X409764000Y-123113233D02*
X409764000Y-122537233D01*
X409764000Y-122537233D02*
X409860000Y-122345233D01*
X409860000Y-122345233D02*
X409956000Y-122249233D01*
X409956000Y-122249233D02*
X410148000Y-122153233D01*
X410148000Y-122153233D02*
X410532000Y-122153233D01*
X410532000Y-122153233D02*
X410724000Y-122249233D01*
X412548000Y-122153233D02*
X412548000Y-123497233D01*
X411684000Y-122153233D02*
X411684000Y-123209233D01*
X411684000Y-123209233D02*
X411780000Y-123401233D01*
X411780000Y-123401233D02*
X411972000Y-123497233D01*
X411972000Y-123497233D02*
X412260000Y-123497233D01*
X412260000Y-123497233D02*
X412452000Y-123401233D01*
X412452000Y-123401233D02*
X412548000Y-123305233D01*
X413796000Y-123497233D02*
X413604000Y-123401233D01*
X413604000Y-123401233D02*
X413508000Y-123209233D01*
X413508000Y-123209233D02*
X413508000Y-121481233D01*
X415332000Y-123401233D02*
X415140000Y-123497233D01*
X415140000Y-123497233D02*
X414756000Y-123497233D01*
X414756000Y-123497233D02*
X414564000Y-123401233D01*
X414564000Y-123401233D02*
X414468000Y-123209233D01*
X414468000Y-123209233D02*
X414468000Y-122441233D01*
X414468000Y-122441233D02*
X414564000Y-122249233D01*
X414564000Y-122249233D02*
X414756000Y-122153233D01*
X414756000Y-122153233D02*
X415140000Y-122153233D01*
X415140000Y-122153233D02*
X415332000Y-122249233D01*
X415332000Y-122249233D02*
X415428000Y-122441233D01*
X415428000Y-122441233D02*
X415428000Y-122633233D01*
X415428000Y-122633233D02*
X414468000Y-122825233D01*
X397860000Y-126742880D02*
X397860000Y-124726880D01*
X397860000Y-124726880D02*
X398340000Y-124726880D01*
X398340000Y-124726880D02*
X398628000Y-124822880D01*
X398628000Y-124822880D02*
X398820000Y-125014880D01*
X398820000Y-125014880D02*
X398916000Y-125206880D01*
X398916000Y-125206880D02*
X399012000Y-125590880D01*
X399012000Y-125590880D02*
X399012000Y-125878880D01*
X399012000Y-125878880D02*
X398916000Y-126262880D01*
X398916000Y-126262880D02*
X398820000Y-126454880D01*
X398820000Y-126454880D02*
X398628000Y-126646880D01*
X398628000Y-126646880D02*
X398340000Y-126742880D01*
X398340000Y-126742880D02*
X397860000Y-126742880D01*
X399780000Y-126646880D02*
X400068000Y-126742880D01*
X400068000Y-126742880D02*
X400548000Y-126742880D01*
X400548000Y-126742880D02*
X400740000Y-126646880D01*
X400740000Y-126646880D02*
X400836000Y-126550880D01*
X400836000Y-126550880D02*
X400932000Y-126358880D01*
X400932000Y-126358880D02*
X400932000Y-126166880D01*
X400932000Y-126166880D02*
X400836000Y-125974880D01*
X400836000Y-125974880D02*
X400740000Y-125878880D01*
X400740000Y-125878880D02*
X400548000Y-125782880D01*
X400548000Y-125782880D02*
X400164000Y-125686880D01*
X400164000Y-125686880D02*
X399972000Y-125590880D01*
X399972000Y-125590880D02*
X399876000Y-125494880D01*
X399876000Y-125494880D02*
X399780000Y-125302880D01*
X399780000Y-125302880D02*
X399780000Y-125110880D01*
X399780000Y-125110880D02*
X399876000Y-124918880D01*
X399876000Y-124918880D02*
X399972000Y-124822880D01*
X399972000Y-124822880D02*
X400164000Y-124726880D01*
X400164000Y-124726880D02*
X400644000Y-124726880D01*
X400644000Y-124726880D02*
X400932000Y-124822880D01*
X401796000Y-126742880D02*
X401796000Y-124726880D01*
X401796000Y-124726880D02*
X402468000Y-126166880D01*
X402468000Y-126166880D02*
X403140000Y-124726880D01*
X403140000Y-124726880D02*
X403140000Y-126742880D01*
X34502054Y-197589656D02*
X34597292Y-197637275D01*
X34597292Y-197637275D02*
X34787768Y-197637275D01*
X34787768Y-197637275D02*
X34883006Y-197589656D01*
X34883006Y-197589656D02*
X34930625Y-197494417D01*
X34930625Y-197494417D02*
X34930625Y-197446798D01*
X34930625Y-197446798D02*
X34883006Y-197351560D01*
X34883006Y-197351560D02*
X34787768Y-197303941D01*
X34787768Y-197303941D02*
X34644911Y-197303941D01*
X34644911Y-197303941D02*
X34549673Y-197256322D01*
X34549673Y-197256322D02*
X34502054Y-197161084D01*
X34502054Y-197161084D02*
X34502054Y-197113465D01*
X34502054Y-197113465D02*
X34549673Y-197018227D01*
X34549673Y-197018227D02*
X34644911Y-196970608D01*
X34644911Y-196970608D02*
X34787768Y-196970608D01*
X34787768Y-196970608D02*
X34883006Y-197018227D01*
X35359197Y-197637275D02*
X35359197Y-196970608D01*
X35359197Y-196637275D02*
X35311578Y-196684894D01*
X35311578Y-196684894D02*
X35359197Y-196732513D01*
X35359197Y-196732513D02*
X35406816Y-196684894D01*
X35406816Y-196684894D02*
X35359197Y-196637275D01*
X35359197Y-196637275D02*
X35359197Y-196732513D01*
X36263958Y-196970608D02*
X36263958Y-197780132D01*
X36263958Y-197780132D02*
X36216339Y-197875370D01*
X36216339Y-197875370D02*
X36168720Y-197922989D01*
X36168720Y-197922989D02*
X36073482Y-197970608D01*
X36073482Y-197970608D02*
X35930625Y-197970608D01*
X35930625Y-197970608D02*
X35835387Y-197922989D01*
X36263958Y-197589656D02*
X36168720Y-197637275D01*
X36168720Y-197637275D02*
X35978244Y-197637275D01*
X35978244Y-197637275D02*
X35883006Y-197589656D01*
X35883006Y-197589656D02*
X35835387Y-197542036D01*
X35835387Y-197542036D02*
X35787768Y-197446798D01*
X35787768Y-197446798D02*
X35787768Y-197161084D01*
X35787768Y-197161084D02*
X35835387Y-197065846D01*
X35835387Y-197065846D02*
X35883006Y-197018227D01*
X35883006Y-197018227D02*
X35978244Y-196970608D01*
X35978244Y-196970608D02*
X36168720Y-196970608D01*
X36168720Y-196970608D02*
X36263958Y-197018227D01*
X36740149Y-196970608D02*
X36740149Y-197637275D01*
X36740149Y-197065846D02*
X36787768Y-197018227D01*
X36787768Y-197018227D02*
X36883006Y-196970608D01*
X36883006Y-196970608D02*
X37025863Y-196970608D01*
X37025863Y-196970608D02*
X37121101Y-197018227D01*
X37121101Y-197018227D02*
X37168720Y-197113465D01*
X37168720Y-197113465D02*
X37168720Y-197637275D01*
X38073482Y-197637275D02*
X38073482Y-197113465D01*
X38073482Y-197113465D02*
X38025863Y-197018227D01*
X38025863Y-197018227D02*
X37930625Y-196970608D01*
X37930625Y-196970608D02*
X37740149Y-196970608D01*
X37740149Y-196970608D02*
X37644911Y-197018227D01*
X38073482Y-197589656D02*
X37978244Y-197637275D01*
X37978244Y-197637275D02*
X37740149Y-197637275D01*
X37740149Y-197637275D02*
X37644911Y-197589656D01*
X37644911Y-197589656D02*
X37597292Y-197494417D01*
X37597292Y-197494417D02*
X37597292Y-197399179D01*
X37597292Y-197399179D02*
X37644911Y-197303941D01*
X37644911Y-197303941D02*
X37740149Y-197256322D01*
X37740149Y-197256322D02*
X37978244Y-197256322D01*
X37978244Y-197256322D02*
X38073482Y-197208703D01*
X38692530Y-197637275D02*
X38597292Y-197589656D01*
X38597292Y-197589656D02*
X38549673Y-197494417D01*
X38549673Y-197494417D02*
X38549673Y-196637275D01*
X39073483Y-197637275D02*
X39073483Y-196970608D01*
X39073483Y-197065846D02*
X39121102Y-197018227D01*
X39121102Y-197018227D02*
X39216340Y-196970608D01*
X39216340Y-196970608D02*
X39359197Y-196970608D01*
X39359197Y-196970608D02*
X39454435Y-197018227D01*
X39454435Y-197018227D02*
X39502054Y-197113465D01*
X39502054Y-197113465D02*
X39502054Y-197637275D01*
X39502054Y-197113465D02*
X39549673Y-197018227D01*
X39549673Y-197018227D02*
X39644911Y-196970608D01*
X39644911Y-196970608D02*
X39787768Y-196970608D01*
X39787768Y-196970608D02*
X39883007Y-197018227D01*
X39883007Y-197018227D02*
X39930626Y-197113465D01*
X39930626Y-197113465D02*
X39930626Y-197637275D01*
X40787768Y-197589656D02*
X40692530Y-197637275D01*
X40692530Y-197637275D02*
X40502054Y-197637275D01*
X40502054Y-197637275D02*
X40406816Y-197589656D01*
X40406816Y-197589656D02*
X40359197Y-197494417D01*
X40359197Y-197494417D02*
X40359197Y-197113465D01*
X40359197Y-197113465D02*
X40406816Y-197018227D01*
X40406816Y-197018227D02*
X40502054Y-196970608D01*
X40502054Y-196970608D02*
X40692530Y-196970608D01*
X40692530Y-196970608D02*
X40787768Y-197018227D01*
X40787768Y-197018227D02*
X40835387Y-197113465D01*
X40835387Y-197113465D02*
X40835387Y-197208703D01*
X40835387Y-197208703D02*
X40359197Y-197303941D01*
X41216340Y-197589656D02*
X41311578Y-197637275D01*
X41311578Y-197637275D02*
X41502054Y-197637275D01*
X41502054Y-197637275D02*
X41597292Y-197589656D01*
X41597292Y-197589656D02*
X41644911Y-197494417D01*
X41644911Y-197494417D02*
X41644911Y-197446798D01*
X41644911Y-197446798D02*
X41597292Y-197351560D01*
X41597292Y-197351560D02*
X41502054Y-197303941D01*
X41502054Y-197303941D02*
X41359197Y-197303941D01*
X41359197Y-197303941D02*
X41263959Y-197256322D01*
X41263959Y-197256322D02*
X41216340Y-197161084D01*
X41216340Y-197161084D02*
X41216340Y-197113465D01*
X41216340Y-197113465D02*
X41263959Y-197018227D01*
X41263959Y-197018227D02*
X41359197Y-196970608D01*
X41359197Y-196970608D02*
X41502054Y-196970608D01*
X41502054Y-196970608D02*
X41597292Y-197018227D01*
X42073483Y-197637275D02*
X42073483Y-196637275D01*
X42502054Y-197637275D02*
X42502054Y-197113465D01*
X42502054Y-197113465D02*
X42454435Y-197018227D01*
X42454435Y-197018227D02*
X42359197Y-196970608D01*
X42359197Y-196970608D02*
X42216340Y-196970608D01*
X42216340Y-196970608D02*
X42121102Y-197018227D01*
X42121102Y-197018227D02*
X42073483Y-197065846D01*
X44168721Y-197637275D02*
X44168721Y-196637275D01*
X44168721Y-197589656D02*
X44073483Y-197637275D01*
X44073483Y-197637275D02*
X43883007Y-197637275D01*
X43883007Y-197637275D02*
X43787769Y-197589656D01*
X43787769Y-197589656D02*
X43740150Y-197542036D01*
X43740150Y-197542036D02*
X43692531Y-197446798D01*
X43692531Y-197446798D02*
X43692531Y-197161084D01*
X43692531Y-197161084D02*
X43740150Y-197065846D01*
X43740150Y-197065846D02*
X43787769Y-197018227D01*
X43787769Y-197018227D02*
X43883007Y-196970608D01*
X43883007Y-196970608D02*
X44073483Y-196970608D01*
X44073483Y-196970608D02*
X44168721Y-197018227D01*
X45025864Y-197589656D02*
X44930626Y-197637275D01*
X44930626Y-197637275D02*
X44740150Y-197637275D01*
X44740150Y-197637275D02*
X44644912Y-197589656D01*
X44644912Y-197589656D02*
X44597293Y-197494417D01*
X44597293Y-197494417D02*
X44597293Y-197113465D01*
X44597293Y-197113465D02*
X44644912Y-197018227D01*
X44644912Y-197018227D02*
X44740150Y-196970608D01*
X44740150Y-196970608D02*
X44930626Y-196970608D01*
X44930626Y-196970608D02*
X45025864Y-197018227D01*
X45025864Y-197018227D02*
X45073483Y-197113465D01*
X45073483Y-197113465D02*
X45073483Y-197208703D01*
X45073483Y-197208703D02*
X44597293Y-197303941D01*
X45406817Y-196970608D02*
X45644912Y-197637275D01*
X45644912Y-197637275D02*
X45883007Y-196970608D01*
X47025865Y-197637275D02*
X47025865Y-196637275D01*
X47025865Y-197018227D02*
X47121103Y-196970608D01*
X47121103Y-196970608D02*
X47311579Y-196970608D01*
X47311579Y-196970608D02*
X47406817Y-197018227D01*
X47406817Y-197018227D02*
X47454436Y-197065846D01*
X47454436Y-197065846D02*
X47502055Y-197161084D01*
X47502055Y-197161084D02*
X47502055Y-197446798D01*
X47502055Y-197446798D02*
X47454436Y-197542036D01*
X47454436Y-197542036D02*
X47406817Y-197589656D01*
X47406817Y-197589656D02*
X47311579Y-197637275D01*
X47311579Y-197637275D02*
X47121103Y-197637275D01*
X47121103Y-197637275D02*
X47025865Y-197589656D01*
X48073484Y-197637275D02*
X47978246Y-197589656D01*
X47978246Y-197589656D02*
X47930627Y-197542036D01*
X47930627Y-197542036D02*
X47883008Y-197446798D01*
X47883008Y-197446798D02*
X47883008Y-197161084D01*
X47883008Y-197161084D02*
X47930627Y-197065846D01*
X47930627Y-197065846D02*
X47978246Y-197018227D01*
X47978246Y-197018227D02*
X48073484Y-196970608D01*
X48073484Y-196970608D02*
X48216341Y-196970608D01*
X48216341Y-196970608D02*
X48311579Y-197018227D01*
X48311579Y-197018227D02*
X48359198Y-197065846D01*
X48359198Y-197065846D02*
X48406817Y-197161084D01*
X48406817Y-197161084D02*
X48406817Y-197446798D01*
X48406817Y-197446798D02*
X48359198Y-197542036D01*
X48359198Y-197542036D02*
X48311579Y-197589656D01*
X48311579Y-197589656D02*
X48216341Y-197637275D01*
X48216341Y-197637275D02*
X48073484Y-197637275D01*
X49263960Y-197637275D02*
X49263960Y-197113465D01*
X49263960Y-197113465D02*
X49216341Y-197018227D01*
X49216341Y-197018227D02*
X49121103Y-196970608D01*
X49121103Y-196970608D02*
X48930627Y-196970608D01*
X48930627Y-196970608D02*
X48835389Y-197018227D01*
X49263960Y-197589656D02*
X49168722Y-197637275D01*
X49168722Y-197637275D02*
X48930627Y-197637275D01*
X48930627Y-197637275D02*
X48835389Y-197589656D01*
X48835389Y-197589656D02*
X48787770Y-197494417D01*
X48787770Y-197494417D02*
X48787770Y-197399179D01*
X48787770Y-197399179D02*
X48835389Y-197303941D01*
X48835389Y-197303941D02*
X48930627Y-197256322D01*
X48930627Y-197256322D02*
X49168722Y-197256322D01*
X49168722Y-197256322D02*
X49263960Y-197208703D01*
X49740151Y-197637275D02*
X49740151Y-196970608D01*
X49740151Y-197161084D02*
X49787770Y-197065846D01*
X49787770Y-197065846D02*
X49835389Y-197018227D01*
X49835389Y-197018227D02*
X49930627Y-196970608D01*
X49930627Y-196970608D02*
X50025865Y-196970608D01*
X50787770Y-197637275D02*
X50787770Y-196637275D01*
X50787770Y-197589656D02*
X50692532Y-197637275D01*
X50692532Y-197637275D02*
X50502056Y-197637275D01*
X50502056Y-197637275D02*
X50406818Y-197589656D01*
X50406818Y-197589656D02*
X50359199Y-197542036D01*
X50359199Y-197542036D02*
X50311580Y-197446798D01*
X50311580Y-197446798D02*
X50311580Y-197161084D01*
X50311580Y-197161084D02*
X50359199Y-197065846D01*
X50359199Y-197065846D02*
X50406818Y-197018227D01*
X50406818Y-197018227D02*
X50502056Y-196970608D01*
X50502056Y-196970608D02*
X50692532Y-196970608D01*
X50692532Y-196970608D02*
X50787770Y-197018227D01*
X51930628Y-196970608D02*
X52168723Y-197637275D01*
X52168723Y-197637275D02*
X52406818Y-196970608D01*
X53311580Y-197637275D02*
X52740152Y-197637275D01*
X53025866Y-197637275D02*
X53025866Y-196637275D01*
X53025866Y-196637275D02*
X52930628Y-196780132D01*
X52930628Y-196780132D02*
X52835390Y-196875370D01*
X52835390Y-196875370D02*
X52740152Y-196922989D01*
X53740152Y-197542036D02*
X53787771Y-197589656D01*
X53787771Y-197589656D02*
X53740152Y-197637275D01*
X53740152Y-197637275D02*
X53692533Y-197589656D01*
X53692533Y-197589656D02*
X53740152Y-197542036D01*
X53740152Y-197542036D02*
X53740152Y-197637275D01*
X54406818Y-196637275D02*
X54502056Y-196637275D01*
X54502056Y-196637275D02*
X54597294Y-196684894D01*
X54597294Y-196684894D02*
X54644913Y-196732513D01*
X54644913Y-196732513D02*
X54692532Y-196827751D01*
X54692532Y-196827751D02*
X54740151Y-197018227D01*
X54740151Y-197018227D02*
X54740151Y-197256322D01*
X54740151Y-197256322D02*
X54692532Y-197446798D01*
X54692532Y-197446798D02*
X54644913Y-197542036D01*
X54644913Y-197542036D02*
X54597294Y-197589656D01*
X54597294Y-197589656D02*
X54502056Y-197637275D01*
X54502056Y-197637275D02*
X54406818Y-197637275D01*
X54406818Y-197637275D02*
X54311580Y-197589656D01*
X54311580Y-197589656D02*
X54263961Y-197542036D01*
X54263961Y-197542036D02*
X54216342Y-197446798D01*
X54216342Y-197446798D02*
X54168723Y-197256322D01*
X54168723Y-197256322D02*
X54168723Y-197018227D01*
X54168723Y-197018227D02*
X54216342Y-196827751D01*
X54216342Y-196827751D02*
X54263961Y-196732513D01*
X54263961Y-196732513D02*
X54311580Y-196684894D01*
X54311580Y-196684894D02*
X54406818Y-196637275D01*
X34549673Y-199247219D02*
X34549673Y-198247219D01*
X34549673Y-198628171D02*
X34644911Y-198580552D01*
X34644911Y-198580552D02*
X34835387Y-198580552D01*
X34835387Y-198580552D02*
X34930625Y-198628171D01*
X34930625Y-198628171D02*
X34978244Y-198675790D01*
X34978244Y-198675790D02*
X35025863Y-198771028D01*
X35025863Y-198771028D02*
X35025863Y-199056742D01*
X35025863Y-199056742D02*
X34978244Y-199151980D01*
X34978244Y-199151980D02*
X34930625Y-199199600D01*
X34930625Y-199199600D02*
X34835387Y-199247219D01*
X34835387Y-199247219D02*
X34644911Y-199247219D01*
X34644911Y-199247219D02*
X34549673Y-199199600D01*
X35359197Y-198580552D02*
X35597292Y-199247219D01*
X35835387Y-198580552D02*
X35597292Y-199247219D01*
X35597292Y-199247219D02*
X35502054Y-199485314D01*
X35502054Y-199485314D02*
X35454435Y-199532933D01*
X35454435Y-199532933D02*
X35359197Y-199580552D01*
X36930626Y-198961504D02*
X37406816Y-198961504D01*
X36835388Y-199247219D02*
X37168721Y-198247219D01*
X37168721Y-198247219D02*
X37502054Y-199247219D01*
X37835388Y-199247219D02*
X37835388Y-198247219D01*
X37930626Y-198866266D02*
X38216340Y-199247219D01*
X38216340Y-198580552D02*
X37835388Y-198961504D01*
X38644912Y-199247219D02*
X38644912Y-198580552D01*
X38644912Y-198247219D02*
X38597293Y-198294838D01*
X38597293Y-198294838D02*
X38644912Y-198342457D01*
X38644912Y-198342457D02*
X38692531Y-198294838D01*
X38692531Y-198294838D02*
X38644912Y-198247219D01*
X38644912Y-198247219D02*
X38644912Y-198342457D01*
X39502054Y-199199600D02*
X39406816Y-199247219D01*
X39406816Y-199247219D02*
X39216340Y-199247219D01*
X39216340Y-199247219D02*
X39121102Y-199199600D01*
X39121102Y-199199600D02*
X39073483Y-199104361D01*
X39073483Y-199104361D02*
X39073483Y-198723409D01*
X39073483Y-198723409D02*
X39121102Y-198628171D01*
X39121102Y-198628171D02*
X39216340Y-198580552D01*
X39216340Y-198580552D02*
X39406816Y-198580552D01*
X39406816Y-198580552D02*
X39502054Y-198628171D01*
X39502054Y-198628171D02*
X39549673Y-198723409D01*
X39549673Y-198723409D02*
X39549673Y-198818647D01*
X39549673Y-198818647D02*
X39073483Y-198913885D01*
X40121102Y-199247219D02*
X40025864Y-199199600D01*
X40025864Y-199199600D02*
X39978245Y-199104361D01*
X39978245Y-199104361D02*
X39978245Y-198247219D01*
X41216341Y-198961504D02*
X41692531Y-198961504D01*
X41121103Y-199247219D02*
X41454436Y-198247219D01*
X41454436Y-198247219D02*
X41787769Y-199247219D01*
X42121103Y-199247219D02*
X42121103Y-198580552D01*
X42121103Y-198771028D02*
X42168722Y-198675790D01*
X42168722Y-198675790D02*
X42216341Y-198628171D01*
X42216341Y-198628171D02*
X42311579Y-198580552D01*
X42311579Y-198580552D02*
X42406817Y-198580552D01*
X42740151Y-199247219D02*
X42740151Y-198580552D01*
X42740151Y-198247219D02*
X42692532Y-198294838D01*
X42692532Y-198294838D02*
X42740151Y-198342457D01*
X42740151Y-198342457D02*
X42787770Y-198294838D01*
X42787770Y-198294838D02*
X42740151Y-198247219D01*
X42740151Y-198247219D02*
X42740151Y-198342457D01*
X43597293Y-199199600D02*
X43502055Y-199247219D01*
X43502055Y-199247219D02*
X43311579Y-199247219D01*
X43311579Y-199247219D02*
X43216341Y-199199600D01*
X43216341Y-199199600D02*
X43168722Y-199104361D01*
X43168722Y-199104361D02*
X43168722Y-198723409D01*
X43168722Y-198723409D02*
X43216341Y-198628171D01*
X43216341Y-198628171D02*
X43311579Y-198580552D01*
X43311579Y-198580552D02*
X43502055Y-198580552D01*
X43502055Y-198580552D02*
X43597293Y-198628171D01*
X43597293Y-198628171D02*
X43644912Y-198723409D01*
X43644912Y-198723409D02*
X43644912Y-198818647D01*
X43644912Y-198818647D02*
X43168722Y-198913885D01*
X44025865Y-199199600D02*
X44121103Y-199247219D01*
X44121103Y-199247219D02*
X44311579Y-199247219D01*
X44311579Y-199247219D02*
X44406817Y-199199600D01*
X44406817Y-199199600D02*
X44454436Y-199104361D01*
X44454436Y-199104361D02*
X44454436Y-199056742D01*
X44454436Y-199056742D02*
X44406817Y-198961504D01*
X44406817Y-198961504D02*
X44311579Y-198913885D01*
X44311579Y-198913885D02*
X44168722Y-198913885D01*
X44168722Y-198913885D02*
X44073484Y-198866266D01*
X44073484Y-198866266D02*
X44025865Y-198771028D01*
X44025865Y-198771028D02*
X44025865Y-198723409D01*
X44025865Y-198723409D02*
X44073484Y-198628171D01*
X44073484Y-198628171D02*
X44168722Y-198580552D01*
X44168722Y-198580552D02*
X44311579Y-198580552D01*
X44311579Y-198580552D02*
X44406817Y-198628171D01*
X45597294Y-198342457D02*
X45644913Y-198294838D01*
X45644913Y-198294838D02*
X45740151Y-198247219D01*
X45740151Y-198247219D02*
X45978246Y-198247219D01*
X45978246Y-198247219D02*
X46073484Y-198294838D01*
X46073484Y-198294838D02*
X46121103Y-198342457D01*
X46121103Y-198342457D02*
X46168722Y-198437695D01*
X46168722Y-198437695D02*
X46168722Y-198532933D01*
X46168722Y-198532933D02*
X46121103Y-198675790D01*
X46121103Y-198675790D02*
X45549675Y-199247219D01*
X45549675Y-199247219D02*
X46168722Y-199247219D01*
X46787770Y-198247219D02*
X46883008Y-198247219D01*
X46883008Y-198247219D02*
X46978246Y-198294838D01*
X46978246Y-198294838D02*
X47025865Y-198342457D01*
X47025865Y-198342457D02*
X47073484Y-198437695D01*
X47073484Y-198437695D02*
X47121103Y-198628171D01*
X47121103Y-198628171D02*
X47121103Y-198866266D01*
X47121103Y-198866266D02*
X47073484Y-199056742D01*
X47073484Y-199056742D02*
X47025865Y-199151980D01*
X47025865Y-199151980D02*
X46978246Y-199199600D01*
X46978246Y-199199600D02*
X46883008Y-199247219D01*
X46883008Y-199247219D02*
X46787770Y-199247219D01*
X46787770Y-199247219D02*
X46692532Y-199199600D01*
X46692532Y-199199600D02*
X46644913Y-199151980D01*
X46644913Y-199151980D02*
X46597294Y-199056742D01*
X46597294Y-199056742D02*
X46549675Y-198866266D01*
X46549675Y-198866266D02*
X46549675Y-198628171D01*
X46549675Y-198628171D02*
X46597294Y-198437695D01*
X46597294Y-198437695D02*
X46644913Y-198342457D01*
X46644913Y-198342457D02*
X46692532Y-198294838D01*
X46692532Y-198294838D02*
X46787770Y-198247219D01*
X47502056Y-198342457D02*
X47549675Y-198294838D01*
X47549675Y-198294838D02*
X47644913Y-198247219D01*
X47644913Y-198247219D02*
X47883008Y-198247219D01*
X47883008Y-198247219D02*
X47978246Y-198294838D01*
X47978246Y-198294838D02*
X48025865Y-198342457D01*
X48025865Y-198342457D02*
X48073484Y-198437695D01*
X48073484Y-198437695D02*
X48073484Y-198532933D01*
X48073484Y-198532933D02*
X48025865Y-198675790D01*
X48025865Y-198675790D02*
X47454437Y-199247219D01*
X47454437Y-199247219D02*
X48073484Y-199247219D01*
X48978246Y-198247219D02*
X48502056Y-198247219D01*
X48502056Y-198247219D02*
X48454437Y-198723409D01*
X48454437Y-198723409D02*
X48502056Y-198675790D01*
X48502056Y-198675790D02*
X48597294Y-198628171D01*
X48597294Y-198628171D02*
X48835389Y-198628171D01*
X48835389Y-198628171D02*
X48930627Y-198675790D01*
X48930627Y-198675790D02*
X48978246Y-198723409D01*
X48978246Y-198723409D02*
X49025865Y-198818647D01*
X49025865Y-198818647D02*
X49025865Y-199056742D01*
X49025865Y-199056742D02*
X48978246Y-199151980D01*
X48978246Y-199151980D02*
X48930627Y-199199600D01*
X48930627Y-199199600D02*
X48835389Y-199247219D01*
X48835389Y-199247219D02*
X48597294Y-199247219D01*
X48597294Y-199247219D02*
X48502056Y-199199600D01*
X48502056Y-199199600D02*
X48454437Y-199151980D01*
X59668000Y-134155586D02*
X59956000Y-134251586D01*
X59956000Y-134251586D02*
X60436000Y-134251586D01*
X60436000Y-134251586D02*
X60628000Y-134155586D01*
X60628000Y-134155586D02*
X60724000Y-134059586D01*
X60724000Y-134059586D02*
X60820000Y-133867586D01*
X60820000Y-133867586D02*
X60820000Y-133675586D01*
X60820000Y-133675586D02*
X60724000Y-133483586D01*
X60724000Y-133483586D02*
X60628000Y-133387586D01*
X60628000Y-133387586D02*
X60436000Y-133291586D01*
X60436000Y-133291586D02*
X60052000Y-133195586D01*
X60052000Y-133195586D02*
X59860000Y-133099586D01*
X59860000Y-133099586D02*
X59764000Y-133003586D01*
X59764000Y-133003586D02*
X59668000Y-132811586D01*
X59668000Y-132811586D02*
X59668000Y-132619586D01*
X59668000Y-132619586D02*
X59764000Y-132427586D01*
X59764000Y-132427586D02*
X59860000Y-132331586D01*
X59860000Y-132331586D02*
X60052000Y-132235586D01*
X60052000Y-132235586D02*
X60532000Y-132235586D01*
X60532000Y-132235586D02*
X60820000Y-132331586D01*
X61396000Y-132235586D02*
X62548000Y-132235586D01*
X61972000Y-134251586D02*
X61972000Y-132235586D01*
X63220000Y-134251586D02*
X63220000Y-132235586D01*
X63220000Y-132235586D02*
X63892000Y-133675586D01*
X63892000Y-133675586D02*
X64564000Y-132235586D01*
X64564000Y-132235586D02*
X64564000Y-134251586D01*
X65332000Y-132235586D02*
X66580000Y-132235586D01*
X66580000Y-132235586D02*
X65908000Y-133003586D01*
X65908000Y-133003586D02*
X66196000Y-133003586D01*
X66196000Y-133003586D02*
X66388000Y-133099586D01*
X66388000Y-133099586D02*
X66484000Y-133195586D01*
X66484000Y-133195586D02*
X66580000Y-133387586D01*
X66580000Y-133387586D02*
X66580000Y-133867586D01*
X66580000Y-133867586D02*
X66484000Y-134059586D01*
X66484000Y-134059586D02*
X66388000Y-134155586D01*
X66388000Y-134155586D02*
X66196000Y-134251586D01*
X66196000Y-134251586D02*
X65620000Y-134251586D01*
X65620000Y-134251586D02*
X65428000Y-134155586D01*
X65428000Y-134155586D02*
X65332000Y-134059586D01*
X67348000Y-132427586D02*
X67444000Y-132331586D01*
X67444000Y-132331586D02*
X67636000Y-132235586D01*
X67636000Y-132235586D02*
X68116000Y-132235586D01*
X68116000Y-132235586D02*
X68308000Y-132331586D01*
X68308000Y-132331586D02*
X68404000Y-132427586D01*
X68404000Y-132427586D02*
X68500000Y-132619586D01*
X68500000Y-132619586D02*
X68500000Y-132811586D01*
X68500000Y-132811586D02*
X68404000Y-133099586D01*
X68404000Y-133099586D02*
X67252000Y-134251586D01*
X67252000Y-134251586D02*
X68500000Y-134251586D01*
X70036000Y-133195586D02*
X69364000Y-133195586D01*
X69364000Y-134251586D02*
X69364000Y-132235586D01*
X69364000Y-132235586D02*
X70324000Y-132235586D01*
X70900000Y-132235586D02*
X72148000Y-132235586D01*
X72148000Y-132235586D02*
X71476000Y-133003586D01*
X71476000Y-133003586D02*
X71764000Y-133003586D01*
X71764000Y-133003586D02*
X71956000Y-133099586D01*
X71956000Y-133099586D02*
X72052000Y-133195586D01*
X72052000Y-133195586D02*
X72148000Y-133387586D01*
X72148000Y-133387586D02*
X72148000Y-133867586D01*
X72148000Y-133867586D02*
X72052000Y-134059586D01*
X72052000Y-134059586D02*
X71956000Y-134155586D01*
X71956000Y-134155586D02*
X71764000Y-134251586D01*
X71764000Y-134251586D02*
X71188000Y-134251586D01*
X71188000Y-134251586D02*
X70996000Y-134155586D01*
X70996000Y-134155586D02*
X70900000Y-134059586D01*
X72820000Y-132235586D02*
X74068000Y-132235586D01*
X74068000Y-132235586D02*
X73396000Y-133003586D01*
X73396000Y-133003586D02*
X73684000Y-133003586D01*
X73684000Y-133003586D02*
X73876000Y-133099586D01*
X73876000Y-133099586D02*
X73972000Y-133195586D01*
X73972000Y-133195586D02*
X74068000Y-133387586D01*
X74068000Y-133387586D02*
X74068000Y-133867586D01*
X74068000Y-133867586D02*
X73972000Y-134059586D01*
X73972000Y-134059586D02*
X73876000Y-134155586D01*
X73876000Y-134155586D02*
X73684000Y-134251586D01*
X73684000Y-134251586D02*
X73108000Y-134251586D01*
X73108000Y-134251586D02*
X72916000Y-134155586D01*
X72916000Y-134155586D02*
X72820000Y-134059586D01*
X75796000Y-132907586D02*
X75796000Y-134251586D01*
X75316000Y-132139586D02*
X74836000Y-133579586D01*
X74836000Y-133579586D02*
X76084000Y-133579586D01*
X78388000Y-134251586D02*
X78388000Y-132235586D01*
X78388000Y-132235586D02*
X79540000Y-134251586D01*
X79540000Y-134251586D02*
X79540000Y-132235586D01*
X80500000Y-132235586D02*
X80500000Y-133867586D01*
X80500000Y-133867586D02*
X80596000Y-134059586D01*
X80596000Y-134059586D02*
X80692000Y-134155586D01*
X80692000Y-134155586D02*
X80884000Y-134251586D01*
X80884000Y-134251586D02*
X81268000Y-134251586D01*
X81268000Y-134251586D02*
X81460000Y-134155586D01*
X81460000Y-134155586D02*
X81556000Y-134059586D01*
X81556000Y-134059586D02*
X81652000Y-133867586D01*
X81652000Y-133867586D02*
X81652000Y-132235586D01*
X83764000Y-134059586D02*
X83668000Y-134155586D01*
X83668000Y-134155586D02*
X83380000Y-134251586D01*
X83380000Y-134251586D02*
X83188000Y-134251586D01*
X83188000Y-134251586D02*
X82900000Y-134155586D01*
X82900000Y-134155586D02*
X82708000Y-133963586D01*
X82708000Y-133963586D02*
X82612000Y-133771586D01*
X82612000Y-133771586D02*
X82516000Y-133387586D01*
X82516000Y-133387586D02*
X82516000Y-133099586D01*
X82516000Y-133099586D02*
X82612000Y-132715586D01*
X82612000Y-132715586D02*
X82708000Y-132523586D01*
X82708000Y-132523586D02*
X82900000Y-132331586D01*
X82900000Y-132331586D02*
X83188000Y-132235586D01*
X83188000Y-132235586D02*
X83380000Y-132235586D01*
X83380000Y-132235586D02*
X83668000Y-132331586D01*
X83668000Y-132331586D02*
X83764000Y-132427586D01*
X85588000Y-134251586D02*
X84628000Y-134251586D01*
X84628000Y-134251586D02*
X84628000Y-132235586D01*
X86260000Y-133195586D02*
X86932000Y-133195586D01*
X87220000Y-134251586D02*
X86260000Y-134251586D01*
X86260000Y-134251586D02*
X86260000Y-132235586D01*
X86260000Y-132235586D02*
X87220000Y-132235586D01*
X88468000Y-132235586D02*
X88852000Y-132235586D01*
X88852000Y-132235586D02*
X89044000Y-132331586D01*
X89044000Y-132331586D02*
X89236000Y-132523586D01*
X89236000Y-132523586D02*
X89332000Y-132907586D01*
X89332000Y-132907586D02*
X89332000Y-133579586D01*
X89332000Y-133579586D02*
X89236000Y-133963586D01*
X89236000Y-133963586D02*
X89044000Y-134155586D01*
X89044000Y-134155586D02*
X88852000Y-134251586D01*
X88852000Y-134251586D02*
X88468000Y-134251586D01*
X88468000Y-134251586D02*
X88276000Y-134155586D01*
X88276000Y-134155586D02*
X88084000Y-133963586D01*
X88084000Y-133963586D02*
X87988000Y-133579586D01*
X87988000Y-133579586D02*
X87988000Y-132907586D01*
X87988000Y-132907586D02*
X88084000Y-132523586D01*
X88084000Y-132523586D02*
X88276000Y-132331586D01*
X88276000Y-132331586D02*
X88468000Y-132235586D01*
X54724000Y-135481233D02*
X54724000Y-137113233D01*
X54724000Y-137113233D02*
X54820000Y-137305233D01*
X54820000Y-137305233D02*
X54916000Y-137401233D01*
X54916000Y-137401233D02*
X55108000Y-137497233D01*
X55108000Y-137497233D02*
X55492000Y-137497233D01*
X55492000Y-137497233D02*
X55684000Y-137401233D01*
X55684000Y-137401233D02*
X55780000Y-137305233D01*
X55780000Y-137305233D02*
X55876000Y-137113233D01*
X55876000Y-137113233D02*
X55876000Y-135481233D01*
X56836000Y-136153233D02*
X56836000Y-138169233D01*
X56836000Y-136249233D02*
X57028000Y-136153233D01*
X57028000Y-136153233D02*
X57412000Y-136153233D01*
X57412000Y-136153233D02*
X57604000Y-136249233D01*
X57604000Y-136249233D02*
X57700000Y-136345233D01*
X57700000Y-136345233D02*
X57796000Y-136537233D01*
X57796000Y-136537233D02*
X57796000Y-137113233D01*
X57796000Y-137113233D02*
X57700000Y-137305233D01*
X57700000Y-137305233D02*
X57604000Y-137401233D01*
X57604000Y-137401233D02*
X57412000Y-137497233D01*
X57412000Y-137497233D02*
X57028000Y-137497233D01*
X57028000Y-137497233D02*
X56836000Y-137401233D01*
X59524000Y-137497233D02*
X59524000Y-135481233D01*
X59524000Y-137401233D02*
X59332000Y-137497233D01*
X59332000Y-137497233D02*
X58948000Y-137497233D01*
X58948000Y-137497233D02*
X58756000Y-137401233D01*
X58756000Y-137401233D02*
X58660000Y-137305233D01*
X58660000Y-137305233D02*
X58564000Y-137113233D01*
X58564000Y-137113233D02*
X58564000Y-136537233D01*
X58564000Y-136537233D02*
X58660000Y-136345233D01*
X58660000Y-136345233D02*
X58756000Y-136249233D01*
X58756000Y-136249233D02*
X58948000Y-136153233D01*
X58948000Y-136153233D02*
X59332000Y-136153233D01*
X59332000Y-136153233D02*
X59524000Y-136249233D01*
X61348000Y-137497233D02*
X61348000Y-136441233D01*
X61348000Y-136441233D02*
X61252000Y-136249233D01*
X61252000Y-136249233D02*
X61060000Y-136153233D01*
X61060000Y-136153233D02*
X60676000Y-136153233D01*
X60676000Y-136153233D02*
X60484000Y-136249233D01*
X61348000Y-137401233D02*
X61156000Y-137497233D01*
X61156000Y-137497233D02*
X60676000Y-137497233D01*
X60676000Y-137497233D02*
X60484000Y-137401233D01*
X60484000Y-137401233D02*
X60388000Y-137209233D01*
X60388000Y-137209233D02*
X60388000Y-137017233D01*
X60388000Y-137017233D02*
X60484000Y-136825233D01*
X60484000Y-136825233D02*
X60676000Y-136729233D01*
X60676000Y-136729233D02*
X61156000Y-136729233D01*
X61156000Y-136729233D02*
X61348000Y-136633233D01*
X62020000Y-136153233D02*
X62788000Y-136153233D01*
X62308000Y-135481233D02*
X62308000Y-137209233D01*
X62308000Y-137209233D02*
X62404000Y-137401233D01*
X62404000Y-137401233D02*
X62596000Y-137497233D01*
X62596000Y-137497233D02*
X62788000Y-137497233D01*
X64228000Y-137401233D02*
X64036000Y-137497233D01*
X64036000Y-137497233D02*
X63652000Y-137497233D01*
X63652000Y-137497233D02*
X63460000Y-137401233D01*
X63460000Y-137401233D02*
X63364000Y-137209233D01*
X63364000Y-137209233D02*
X63364000Y-136441233D01*
X63364000Y-136441233D02*
X63460000Y-136249233D01*
X63460000Y-136249233D02*
X63652000Y-136153233D01*
X63652000Y-136153233D02*
X64036000Y-136153233D01*
X64036000Y-136153233D02*
X64228000Y-136249233D01*
X64228000Y-136249233D02*
X64324000Y-136441233D01*
X64324000Y-136441233D02*
X64324000Y-136633233D01*
X64324000Y-136633233D02*
X63364000Y-136825233D01*
X68356000Y-137497233D02*
X68260000Y-137497233D01*
X68260000Y-137497233D02*
X68068000Y-137401233D01*
X68068000Y-137401233D02*
X67780000Y-137113233D01*
X67780000Y-137113233D02*
X67300000Y-136537233D01*
X67300000Y-136537233D02*
X67108000Y-136249233D01*
X67108000Y-136249233D02*
X67012000Y-135961233D01*
X67012000Y-135961233D02*
X67012000Y-135769233D01*
X67012000Y-135769233D02*
X67108000Y-135577233D01*
X67108000Y-135577233D02*
X67300000Y-135481233D01*
X67300000Y-135481233D02*
X67396000Y-135481233D01*
X67396000Y-135481233D02*
X67588000Y-135577233D01*
X67588000Y-135577233D02*
X67684000Y-135769233D01*
X67684000Y-135769233D02*
X67684000Y-135865233D01*
X67684000Y-135865233D02*
X67588000Y-136057233D01*
X67588000Y-136057233D02*
X67492000Y-136153233D01*
X67492000Y-136153233D02*
X66916000Y-136537233D01*
X66916000Y-136537233D02*
X66820000Y-136633233D01*
X66820000Y-136633233D02*
X66724000Y-136825233D01*
X66724000Y-136825233D02*
X66724000Y-137113233D01*
X66724000Y-137113233D02*
X66820000Y-137305233D01*
X66820000Y-137305233D02*
X66916000Y-137401233D01*
X66916000Y-137401233D02*
X67108000Y-137497233D01*
X67108000Y-137497233D02*
X67396000Y-137497233D01*
X67396000Y-137497233D02*
X67588000Y-137401233D01*
X67588000Y-137401233D02*
X67684000Y-137305233D01*
X67684000Y-137305233D02*
X67972000Y-136921233D01*
X67972000Y-136921233D02*
X68068000Y-136633233D01*
X68068000Y-136633233D02*
X68068000Y-136441233D01*
X70756000Y-135481233D02*
X70756000Y-137113233D01*
X70756000Y-137113233D02*
X70852000Y-137305233D01*
X70852000Y-137305233D02*
X70948000Y-137401233D01*
X70948000Y-137401233D02*
X71140000Y-137497233D01*
X71140000Y-137497233D02*
X71524000Y-137497233D01*
X71524000Y-137497233D02*
X71716000Y-137401233D01*
X71716000Y-137401233D02*
X71812000Y-137305233D01*
X71812000Y-137305233D02*
X71908000Y-137113233D01*
X71908000Y-137113233D02*
X71908000Y-135481233D01*
X72868000Y-136153233D02*
X72868000Y-138169233D01*
X72868000Y-136249233D02*
X73060000Y-136153233D01*
X73060000Y-136153233D02*
X73444000Y-136153233D01*
X73444000Y-136153233D02*
X73636000Y-136249233D01*
X73636000Y-136249233D02*
X73732000Y-136345233D01*
X73732000Y-136345233D02*
X73828000Y-136537233D01*
X73828000Y-136537233D02*
X73828000Y-137113233D01*
X73828000Y-137113233D02*
X73732000Y-137305233D01*
X73732000Y-137305233D02*
X73636000Y-137401233D01*
X73636000Y-137401233D02*
X73444000Y-137497233D01*
X73444000Y-137497233D02*
X73060000Y-137497233D01*
X73060000Y-137497233D02*
X72868000Y-137401233D01*
X75556000Y-136153233D02*
X75556000Y-137785233D01*
X75556000Y-137785233D02*
X75460000Y-137977233D01*
X75460000Y-137977233D02*
X75364000Y-138073233D01*
X75364000Y-138073233D02*
X75172000Y-138169233D01*
X75172000Y-138169233D02*
X74884000Y-138169233D01*
X74884000Y-138169233D02*
X74692000Y-138073233D01*
X75556000Y-137401233D02*
X75364000Y-137497233D01*
X75364000Y-137497233D02*
X74980000Y-137497233D01*
X74980000Y-137497233D02*
X74788000Y-137401233D01*
X74788000Y-137401233D02*
X74692000Y-137305233D01*
X74692000Y-137305233D02*
X74596000Y-137113233D01*
X74596000Y-137113233D02*
X74596000Y-136537233D01*
X74596000Y-136537233D02*
X74692000Y-136345233D01*
X74692000Y-136345233D02*
X74788000Y-136249233D01*
X74788000Y-136249233D02*
X74980000Y-136153233D01*
X74980000Y-136153233D02*
X75364000Y-136153233D01*
X75364000Y-136153233D02*
X75556000Y-136249233D01*
X76516000Y-137497233D02*
X76516000Y-136153233D01*
X76516000Y-136537233D02*
X76612000Y-136345233D01*
X76612000Y-136345233D02*
X76708000Y-136249233D01*
X76708000Y-136249233D02*
X76900000Y-136153233D01*
X76900000Y-136153233D02*
X77092000Y-136153233D01*
X78628000Y-137497233D02*
X78628000Y-136441233D01*
X78628000Y-136441233D02*
X78532000Y-136249233D01*
X78532000Y-136249233D02*
X78340000Y-136153233D01*
X78340000Y-136153233D02*
X77956000Y-136153233D01*
X77956000Y-136153233D02*
X77764000Y-136249233D01*
X78628000Y-137401233D02*
X78436000Y-137497233D01*
X78436000Y-137497233D02*
X77956000Y-137497233D01*
X77956000Y-137497233D02*
X77764000Y-137401233D01*
X77764000Y-137401233D02*
X77668000Y-137209233D01*
X77668000Y-137209233D02*
X77668000Y-137017233D01*
X77668000Y-137017233D02*
X77764000Y-136825233D01*
X77764000Y-136825233D02*
X77956000Y-136729233D01*
X77956000Y-136729233D02*
X78436000Y-136729233D01*
X78436000Y-136729233D02*
X78628000Y-136633233D01*
X80452000Y-137497233D02*
X80452000Y-135481233D01*
X80452000Y-137401233D02*
X80260000Y-137497233D01*
X80260000Y-137497233D02*
X79876000Y-137497233D01*
X79876000Y-137497233D02*
X79684000Y-137401233D01*
X79684000Y-137401233D02*
X79588000Y-137305233D01*
X79588000Y-137305233D02*
X79492000Y-137113233D01*
X79492000Y-137113233D02*
X79492000Y-136537233D01*
X79492000Y-136537233D02*
X79588000Y-136345233D01*
X79588000Y-136345233D02*
X79684000Y-136249233D01*
X79684000Y-136249233D02*
X79876000Y-136153233D01*
X79876000Y-136153233D02*
X80260000Y-136153233D01*
X80260000Y-136153233D02*
X80452000Y-136249233D01*
X82180000Y-137401233D02*
X81988000Y-137497233D01*
X81988000Y-137497233D02*
X81604000Y-137497233D01*
X81604000Y-137497233D02*
X81412000Y-137401233D01*
X81412000Y-137401233D02*
X81316000Y-137209233D01*
X81316000Y-137209233D02*
X81316000Y-136441233D01*
X81316000Y-136441233D02*
X81412000Y-136249233D01*
X81412000Y-136249233D02*
X81604000Y-136153233D01*
X81604000Y-136153233D02*
X81988000Y-136153233D01*
X81988000Y-136153233D02*
X82180000Y-136249233D01*
X82180000Y-136249233D02*
X82276000Y-136441233D01*
X82276000Y-136441233D02*
X82276000Y-136633233D01*
X82276000Y-136633233D02*
X81316000Y-136825233D01*
X84676000Y-137497233D02*
X84676000Y-135481233D01*
X84676000Y-135481233D02*
X85348000Y-136921233D01*
X85348000Y-136921233D02*
X86020000Y-135481233D01*
X86020000Y-135481233D02*
X86020000Y-137497233D01*
X87268000Y-137497233D02*
X87076000Y-137401233D01*
X87076000Y-137401233D02*
X86980000Y-137305233D01*
X86980000Y-137305233D02*
X86884000Y-137113233D01*
X86884000Y-137113233D02*
X86884000Y-136537233D01*
X86884000Y-136537233D02*
X86980000Y-136345233D01*
X86980000Y-136345233D02*
X87076000Y-136249233D01*
X87076000Y-136249233D02*
X87268000Y-136153233D01*
X87268000Y-136153233D02*
X87556000Y-136153233D01*
X87556000Y-136153233D02*
X87748000Y-136249233D01*
X87748000Y-136249233D02*
X87844000Y-136345233D01*
X87844000Y-136345233D02*
X87940000Y-136537233D01*
X87940000Y-136537233D02*
X87940000Y-137113233D01*
X87940000Y-137113233D02*
X87844000Y-137305233D01*
X87844000Y-137305233D02*
X87748000Y-137401233D01*
X87748000Y-137401233D02*
X87556000Y-137497233D01*
X87556000Y-137497233D02*
X87268000Y-137497233D01*
X89668000Y-137497233D02*
X89668000Y-135481233D01*
X89668000Y-137401233D02*
X89476000Y-137497233D01*
X89476000Y-137497233D02*
X89092000Y-137497233D01*
X89092000Y-137497233D02*
X88900000Y-137401233D01*
X88900000Y-137401233D02*
X88804000Y-137305233D01*
X88804000Y-137305233D02*
X88708000Y-137113233D01*
X88708000Y-137113233D02*
X88708000Y-136537233D01*
X88708000Y-136537233D02*
X88804000Y-136345233D01*
X88804000Y-136345233D02*
X88900000Y-136249233D01*
X88900000Y-136249233D02*
X89092000Y-136153233D01*
X89092000Y-136153233D02*
X89476000Y-136153233D01*
X89476000Y-136153233D02*
X89668000Y-136249233D01*
X91492000Y-136153233D02*
X91492000Y-137497233D01*
X90628000Y-136153233D02*
X90628000Y-137209233D01*
X90628000Y-137209233D02*
X90724000Y-137401233D01*
X90724000Y-137401233D02*
X90916000Y-137497233D01*
X90916000Y-137497233D02*
X91204000Y-137497233D01*
X91204000Y-137497233D02*
X91396000Y-137401233D01*
X91396000Y-137401233D02*
X91492000Y-137305233D01*
X92740000Y-137497233D02*
X92548000Y-137401233D01*
X92548000Y-137401233D02*
X92452000Y-137209233D01*
X92452000Y-137209233D02*
X92452000Y-135481233D01*
X94276000Y-137401233D02*
X94084000Y-137497233D01*
X94084000Y-137497233D02*
X93700000Y-137497233D01*
X93700000Y-137497233D02*
X93508000Y-137401233D01*
X93508000Y-137401233D02*
X93412000Y-137209233D01*
X93412000Y-137209233D02*
X93412000Y-136441233D01*
X93412000Y-136441233D02*
X93508000Y-136249233D01*
X93508000Y-136249233D02*
X93700000Y-136153233D01*
X93700000Y-136153233D02*
X94084000Y-136153233D01*
X94084000Y-136153233D02*
X94276000Y-136249233D01*
X94276000Y-136249233D02*
X94372000Y-136441233D01*
X94372000Y-136441233D02*
X94372000Y-136633233D01*
X94372000Y-136633233D02*
X93412000Y-136825233D01*
X71716000Y-138726880D02*
X71716000Y-140358880D01*
X71716000Y-140358880D02*
X71812000Y-140550880D01*
X71812000Y-140550880D02*
X71908000Y-140646880D01*
X71908000Y-140646880D02*
X72100000Y-140742880D01*
X72100000Y-140742880D02*
X72484000Y-140742880D01*
X72484000Y-140742880D02*
X72676000Y-140646880D01*
X72676000Y-140646880D02*
X72772000Y-140550880D01*
X72772000Y-140550880D02*
X72868000Y-140358880D01*
X72868000Y-140358880D02*
X72868000Y-138726880D01*
X73828000Y-138726880D02*
X73828000Y-140358880D01*
X73828000Y-140358880D02*
X73924000Y-140550880D01*
X73924000Y-140550880D02*
X74020000Y-140646880D01*
X74020000Y-140646880D02*
X74212000Y-140742880D01*
X74212000Y-140742880D02*
X74596000Y-140742880D01*
X74596000Y-140742880D02*
X74788000Y-140646880D01*
X74788000Y-140646880D02*
X74884000Y-140550880D01*
X74884000Y-140550880D02*
X74980000Y-140358880D01*
X74980000Y-140358880D02*
X74980000Y-138726880D01*
X75940000Y-140742880D02*
X75940000Y-138726880D01*
X75940000Y-138726880D02*
X76612000Y-140166880D01*
X76612000Y-140166880D02*
X77284000Y-138726880D01*
X77284000Y-138726880D02*
X77284000Y-140742880D01*
X508528000Y-89655586D02*
X508816000Y-89751586D01*
X508816000Y-89751586D02*
X509296000Y-89751586D01*
X509296000Y-89751586D02*
X509488000Y-89655586D01*
X509488000Y-89655586D02*
X509584000Y-89559586D01*
X509584000Y-89559586D02*
X509680000Y-89367586D01*
X509680000Y-89367586D02*
X509680000Y-89175586D01*
X509680000Y-89175586D02*
X509584000Y-88983586D01*
X509584000Y-88983586D02*
X509488000Y-88887586D01*
X509488000Y-88887586D02*
X509296000Y-88791586D01*
X509296000Y-88791586D02*
X508912000Y-88695586D01*
X508912000Y-88695586D02*
X508720000Y-88599586D01*
X508720000Y-88599586D02*
X508624000Y-88503586D01*
X508624000Y-88503586D02*
X508528000Y-88311586D01*
X508528000Y-88311586D02*
X508528000Y-88119586D01*
X508528000Y-88119586D02*
X508624000Y-87927586D01*
X508624000Y-87927586D02*
X508720000Y-87831586D01*
X508720000Y-87831586D02*
X508912000Y-87735586D01*
X508912000Y-87735586D02*
X509392000Y-87735586D01*
X509392000Y-87735586D02*
X509680000Y-87831586D01*
X510256000Y-87735586D02*
X511408000Y-87735586D01*
X510832000Y-89751586D02*
X510832000Y-87735586D01*
X512080000Y-89751586D02*
X512080000Y-87735586D01*
X512080000Y-87735586D02*
X512752000Y-89175586D01*
X512752000Y-89175586D02*
X513424000Y-87735586D01*
X513424000Y-87735586D02*
X513424000Y-89751586D01*
X514192000Y-87735586D02*
X515440000Y-87735586D01*
X515440000Y-87735586D02*
X514768000Y-88503586D01*
X514768000Y-88503586D02*
X515056000Y-88503586D01*
X515056000Y-88503586D02*
X515248000Y-88599586D01*
X515248000Y-88599586D02*
X515344000Y-88695586D01*
X515344000Y-88695586D02*
X515440000Y-88887586D01*
X515440000Y-88887586D02*
X515440000Y-89367586D01*
X515440000Y-89367586D02*
X515344000Y-89559586D01*
X515344000Y-89559586D02*
X515248000Y-89655586D01*
X515248000Y-89655586D02*
X515056000Y-89751586D01*
X515056000Y-89751586D02*
X514480000Y-89751586D01*
X514480000Y-89751586D02*
X514288000Y-89655586D01*
X514288000Y-89655586D02*
X514192000Y-89559586D01*
X516208000Y-87927586D02*
X516304000Y-87831586D01*
X516304000Y-87831586D02*
X516496000Y-87735586D01*
X516496000Y-87735586D02*
X516976000Y-87735586D01*
X516976000Y-87735586D02*
X517168000Y-87831586D01*
X517168000Y-87831586D02*
X517264000Y-87927586D01*
X517264000Y-87927586D02*
X517360000Y-88119586D01*
X517360000Y-88119586D02*
X517360000Y-88311586D01*
X517360000Y-88311586D02*
X517264000Y-88599586D01*
X517264000Y-88599586D02*
X516112000Y-89751586D01*
X516112000Y-89751586D02*
X517360000Y-89751586D01*
X518896000Y-88695586D02*
X518224000Y-88695586D01*
X518224000Y-89751586D02*
X518224000Y-87735586D01*
X518224000Y-87735586D02*
X519184000Y-87735586D01*
X520816000Y-88407586D02*
X520816000Y-89751586D01*
X520336000Y-87639586D02*
X519856000Y-89079586D01*
X519856000Y-89079586D02*
X521104000Y-89079586D01*
X522736000Y-88407586D02*
X522736000Y-89751586D01*
X522256000Y-87639586D02*
X521776000Y-89079586D01*
X521776000Y-89079586D02*
X523024000Y-89079586D01*
X524656000Y-87735586D02*
X524272000Y-87735586D01*
X524272000Y-87735586D02*
X524080000Y-87831586D01*
X524080000Y-87831586D02*
X523984000Y-87927586D01*
X523984000Y-87927586D02*
X523792000Y-88215586D01*
X523792000Y-88215586D02*
X523696000Y-88599586D01*
X523696000Y-88599586D02*
X523696000Y-89367586D01*
X523696000Y-89367586D02*
X523792000Y-89559586D01*
X523792000Y-89559586D02*
X523888000Y-89655586D01*
X523888000Y-89655586D02*
X524080000Y-89751586D01*
X524080000Y-89751586D02*
X524464000Y-89751586D01*
X524464000Y-89751586D02*
X524656000Y-89655586D01*
X524656000Y-89655586D02*
X524752000Y-89559586D01*
X524752000Y-89559586D02*
X524848000Y-89367586D01*
X524848000Y-89367586D02*
X524848000Y-88887586D01*
X524848000Y-88887586D02*
X524752000Y-88695586D01*
X524752000Y-88695586D02*
X524656000Y-88599586D01*
X524656000Y-88599586D02*
X524464000Y-88503586D01*
X524464000Y-88503586D02*
X524080000Y-88503586D01*
X524080000Y-88503586D02*
X523888000Y-88599586D01*
X523888000Y-88599586D02*
X523792000Y-88695586D01*
X523792000Y-88695586D02*
X523696000Y-88887586D01*
X527248000Y-89751586D02*
X527248000Y-87735586D01*
X527248000Y-87735586D02*
X528400000Y-89751586D01*
X528400000Y-89751586D02*
X528400000Y-87735586D01*
X529360000Y-87735586D02*
X529360000Y-89367586D01*
X529360000Y-89367586D02*
X529456000Y-89559586D01*
X529456000Y-89559586D02*
X529552000Y-89655586D01*
X529552000Y-89655586D02*
X529744000Y-89751586D01*
X529744000Y-89751586D02*
X530128000Y-89751586D01*
X530128000Y-89751586D02*
X530320000Y-89655586D01*
X530320000Y-89655586D02*
X530416000Y-89559586D01*
X530416000Y-89559586D02*
X530512000Y-89367586D01*
X530512000Y-89367586D02*
X530512000Y-87735586D01*
X532624000Y-89559586D02*
X532528000Y-89655586D01*
X532528000Y-89655586D02*
X532240000Y-89751586D01*
X532240000Y-89751586D02*
X532048000Y-89751586D01*
X532048000Y-89751586D02*
X531760000Y-89655586D01*
X531760000Y-89655586D02*
X531568000Y-89463586D01*
X531568000Y-89463586D02*
X531472000Y-89271586D01*
X531472000Y-89271586D02*
X531376000Y-88887586D01*
X531376000Y-88887586D02*
X531376000Y-88599586D01*
X531376000Y-88599586D02*
X531472000Y-88215586D01*
X531472000Y-88215586D02*
X531568000Y-88023586D01*
X531568000Y-88023586D02*
X531760000Y-87831586D01*
X531760000Y-87831586D02*
X532048000Y-87735586D01*
X532048000Y-87735586D02*
X532240000Y-87735586D01*
X532240000Y-87735586D02*
X532528000Y-87831586D01*
X532528000Y-87831586D02*
X532624000Y-87927586D01*
X534448000Y-89751586D02*
X533488000Y-89751586D01*
X533488000Y-89751586D02*
X533488000Y-87735586D01*
X535120000Y-88695586D02*
X535792000Y-88695586D01*
X536080000Y-89751586D02*
X535120000Y-89751586D01*
X535120000Y-89751586D02*
X535120000Y-87735586D01*
X535120000Y-87735586D02*
X536080000Y-87735586D01*
X537328000Y-87735586D02*
X537712000Y-87735586D01*
X537712000Y-87735586D02*
X537904000Y-87831586D01*
X537904000Y-87831586D02*
X538096000Y-88023586D01*
X538096000Y-88023586D02*
X538192000Y-88407586D01*
X538192000Y-88407586D02*
X538192000Y-89079586D01*
X538192000Y-89079586D02*
X538096000Y-89463586D01*
X538096000Y-89463586D02*
X537904000Y-89655586D01*
X537904000Y-89655586D02*
X537712000Y-89751586D01*
X537712000Y-89751586D02*
X537328000Y-89751586D01*
X537328000Y-89751586D02*
X537136000Y-89655586D01*
X537136000Y-89655586D02*
X536944000Y-89463586D01*
X536944000Y-89463586D02*
X536848000Y-89079586D01*
X536848000Y-89079586D02*
X536848000Y-88407586D01*
X536848000Y-88407586D02*
X536944000Y-88023586D01*
X536944000Y-88023586D02*
X537136000Y-87831586D01*
X537136000Y-87831586D02*
X537328000Y-87735586D01*
X502912000Y-90981233D02*
X504064000Y-90981233D01*
X503488000Y-92997233D02*
X503488000Y-90981233D01*
X505504000Y-92901233D02*
X505312000Y-92997233D01*
X505312000Y-92997233D02*
X504928000Y-92997233D01*
X504928000Y-92997233D02*
X504736000Y-92901233D01*
X504736000Y-92901233D02*
X504640000Y-92709233D01*
X504640000Y-92709233D02*
X504640000Y-91941233D01*
X504640000Y-91941233D02*
X504736000Y-91749233D01*
X504736000Y-91749233D02*
X504928000Y-91653233D01*
X504928000Y-91653233D02*
X505312000Y-91653233D01*
X505312000Y-91653233D02*
X505504000Y-91749233D01*
X505504000Y-91749233D02*
X505600000Y-91941233D01*
X505600000Y-91941233D02*
X505600000Y-92133233D01*
X505600000Y-92133233D02*
X504640000Y-92325233D01*
X506752000Y-92997233D02*
X506560000Y-92901233D01*
X506560000Y-92901233D02*
X506464000Y-92709233D01*
X506464000Y-92709233D02*
X506464000Y-90981233D01*
X508288000Y-92901233D02*
X508096000Y-92997233D01*
X508096000Y-92997233D02*
X507712000Y-92997233D01*
X507712000Y-92997233D02*
X507520000Y-92901233D01*
X507520000Y-92901233D02*
X507424000Y-92709233D01*
X507424000Y-92709233D02*
X507424000Y-91941233D01*
X507424000Y-91941233D02*
X507520000Y-91749233D01*
X507520000Y-91749233D02*
X507712000Y-91653233D01*
X507712000Y-91653233D02*
X508096000Y-91653233D01*
X508096000Y-91653233D02*
X508288000Y-91749233D01*
X508288000Y-91749233D02*
X508384000Y-91941233D01*
X508384000Y-91941233D02*
X508384000Y-92133233D01*
X508384000Y-92133233D02*
X507424000Y-92325233D01*
X509248000Y-92997233D02*
X509248000Y-91653233D01*
X509248000Y-91845233D02*
X509344000Y-91749233D01*
X509344000Y-91749233D02*
X509536000Y-91653233D01*
X509536000Y-91653233D02*
X509824000Y-91653233D01*
X509824000Y-91653233D02*
X510016000Y-91749233D01*
X510016000Y-91749233D02*
X510112000Y-91941233D01*
X510112000Y-91941233D02*
X510112000Y-92997233D01*
X510112000Y-91941233D02*
X510208000Y-91749233D01*
X510208000Y-91749233D02*
X510400000Y-91653233D01*
X510400000Y-91653233D02*
X510688000Y-91653233D01*
X510688000Y-91653233D02*
X510880000Y-91749233D01*
X510880000Y-91749233D02*
X510976000Y-91941233D01*
X510976000Y-91941233D02*
X510976000Y-92997233D01*
X512704000Y-92901233D02*
X512512000Y-92997233D01*
X512512000Y-92997233D02*
X512128000Y-92997233D01*
X512128000Y-92997233D02*
X511936000Y-92901233D01*
X511936000Y-92901233D02*
X511840000Y-92709233D01*
X511840000Y-92709233D02*
X511840000Y-91941233D01*
X511840000Y-91941233D02*
X511936000Y-91749233D01*
X511936000Y-91749233D02*
X512128000Y-91653233D01*
X512128000Y-91653233D02*
X512512000Y-91653233D01*
X512512000Y-91653233D02*
X512704000Y-91749233D01*
X512704000Y-91749233D02*
X512800000Y-91941233D01*
X512800000Y-91941233D02*
X512800000Y-92133233D01*
X512800000Y-92133233D02*
X511840000Y-92325233D01*
X513376000Y-91653233D02*
X514144000Y-91653233D01*
X513664000Y-90981233D02*
X513664000Y-92709233D01*
X513664000Y-92709233D02*
X513760000Y-92901233D01*
X513760000Y-92901233D02*
X513952000Y-92997233D01*
X513952000Y-92997233D02*
X514144000Y-92997233D01*
X514816000Y-92997233D02*
X514816000Y-91653233D01*
X514816000Y-92037233D02*
X514912000Y-91845233D01*
X514912000Y-91845233D02*
X515008000Y-91749233D01*
X515008000Y-91749233D02*
X515200000Y-91653233D01*
X515200000Y-91653233D02*
X515392000Y-91653233D01*
X515872000Y-91653233D02*
X516352000Y-92997233D01*
X516832000Y-91653233D02*
X516352000Y-92997233D01*
X516352000Y-92997233D02*
X516160000Y-93477233D01*
X516160000Y-93477233D02*
X516064000Y-93573233D01*
X516064000Y-93573233D02*
X515872000Y-93669233D01*
X520768000Y-92997233D02*
X520672000Y-92997233D01*
X520672000Y-92997233D02*
X520480000Y-92901233D01*
X520480000Y-92901233D02*
X520192000Y-92613233D01*
X520192000Y-92613233D02*
X519712000Y-92037233D01*
X519712000Y-92037233D02*
X519520000Y-91749233D01*
X519520000Y-91749233D02*
X519424000Y-91461233D01*
X519424000Y-91461233D02*
X519424000Y-91269233D01*
X519424000Y-91269233D02*
X519520000Y-91077233D01*
X519520000Y-91077233D02*
X519712000Y-90981233D01*
X519712000Y-90981233D02*
X519808000Y-90981233D01*
X519808000Y-90981233D02*
X520000000Y-91077233D01*
X520000000Y-91077233D02*
X520096000Y-91269233D01*
X520096000Y-91269233D02*
X520096000Y-91365233D01*
X520096000Y-91365233D02*
X520000000Y-91557233D01*
X520000000Y-91557233D02*
X519904000Y-91653233D01*
X519904000Y-91653233D02*
X519328000Y-92037233D01*
X519328000Y-92037233D02*
X519232000Y-92133233D01*
X519232000Y-92133233D02*
X519136000Y-92325233D01*
X519136000Y-92325233D02*
X519136000Y-92613233D01*
X519136000Y-92613233D02*
X519232000Y-92805233D01*
X519232000Y-92805233D02*
X519328000Y-92901233D01*
X519328000Y-92901233D02*
X519520000Y-92997233D01*
X519520000Y-92997233D02*
X519808000Y-92997233D01*
X519808000Y-92997233D02*
X520000000Y-92901233D01*
X520000000Y-92901233D02*
X520096000Y-92805233D01*
X520096000Y-92805233D02*
X520384000Y-92421233D01*
X520384000Y-92421233D02*
X520480000Y-92133233D01*
X520480000Y-92133233D02*
X520480000Y-91941233D01*
X523168000Y-92997233D02*
X523168000Y-90981233D01*
X523168000Y-90981233D02*
X523648000Y-90981233D01*
X523648000Y-90981233D02*
X523936000Y-91077233D01*
X523936000Y-91077233D02*
X524128000Y-91269233D01*
X524128000Y-91269233D02*
X524224000Y-91461233D01*
X524224000Y-91461233D02*
X524320000Y-91845233D01*
X524320000Y-91845233D02*
X524320000Y-92133233D01*
X524320000Y-92133233D02*
X524224000Y-92517233D01*
X524224000Y-92517233D02*
X524128000Y-92709233D01*
X524128000Y-92709233D02*
X523936000Y-92901233D01*
X523936000Y-92901233D02*
X523648000Y-92997233D01*
X523648000Y-92997233D02*
X523168000Y-92997233D01*
X525952000Y-92901233D02*
X525760000Y-92997233D01*
X525760000Y-92997233D02*
X525376000Y-92997233D01*
X525376000Y-92997233D02*
X525184000Y-92901233D01*
X525184000Y-92901233D02*
X525088000Y-92709233D01*
X525088000Y-92709233D02*
X525088000Y-91941233D01*
X525088000Y-91941233D02*
X525184000Y-91749233D01*
X525184000Y-91749233D02*
X525376000Y-91653233D01*
X525376000Y-91653233D02*
X525760000Y-91653233D01*
X525760000Y-91653233D02*
X525952000Y-91749233D01*
X525952000Y-91749233D02*
X526048000Y-91941233D01*
X526048000Y-91941233D02*
X526048000Y-92133233D01*
X526048000Y-92133233D02*
X525088000Y-92325233D01*
X526912000Y-92997233D02*
X526912000Y-90981233D01*
X526912000Y-91749233D02*
X527104000Y-91653233D01*
X527104000Y-91653233D02*
X527488000Y-91653233D01*
X527488000Y-91653233D02*
X527680000Y-91749233D01*
X527680000Y-91749233D02*
X527776000Y-91845233D01*
X527776000Y-91845233D02*
X527872000Y-92037233D01*
X527872000Y-92037233D02*
X527872000Y-92613233D01*
X527872000Y-92613233D02*
X527776000Y-92805233D01*
X527776000Y-92805233D02*
X527680000Y-92901233D01*
X527680000Y-92901233D02*
X527488000Y-92997233D01*
X527488000Y-92997233D02*
X527104000Y-92997233D01*
X527104000Y-92997233D02*
X526912000Y-92901233D01*
X529600000Y-91653233D02*
X529600000Y-92997233D01*
X528736000Y-91653233D02*
X528736000Y-92709233D01*
X528736000Y-92709233D02*
X528832000Y-92901233D01*
X528832000Y-92901233D02*
X529024000Y-92997233D01*
X529024000Y-92997233D02*
X529312000Y-92997233D01*
X529312000Y-92997233D02*
X529504000Y-92901233D01*
X529504000Y-92901233D02*
X529600000Y-92805233D01*
X531424000Y-91653233D02*
X531424000Y-93285233D01*
X531424000Y-93285233D02*
X531328000Y-93477233D01*
X531328000Y-93477233D02*
X531232000Y-93573233D01*
X531232000Y-93573233D02*
X531040000Y-93669233D01*
X531040000Y-93669233D02*
X530752000Y-93669233D01*
X530752000Y-93669233D02*
X530560000Y-93573233D01*
X531424000Y-92901233D02*
X531232000Y-92997233D01*
X531232000Y-92997233D02*
X530848000Y-92997233D01*
X530848000Y-92997233D02*
X530656000Y-92901233D01*
X530656000Y-92901233D02*
X530560000Y-92805233D01*
X530560000Y-92805233D02*
X530464000Y-92613233D01*
X530464000Y-92613233D02*
X530464000Y-92037233D01*
X530464000Y-92037233D02*
X530560000Y-91845233D01*
X530560000Y-91845233D02*
X530656000Y-91749233D01*
X530656000Y-91749233D02*
X530848000Y-91653233D01*
X530848000Y-91653233D02*
X531232000Y-91653233D01*
X531232000Y-91653233D02*
X531424000Y-91749233D01*
X533920000Y-92997233D02*
X533920000Y-90981233D01*
X533920000Y-90981233D02*
X534592000Y-92421233D01*
X534592000Y-92421233D02*
X535264000Y-90981233D01*
X535264000Y-90981233D02*
X535264000Y-92997233D01*
X536512000Y-92997233D02*
X536320000Y-92901233D01*
X536320000Y-92901233D02*
X536224000Y-92805233D01*
X536224000Y-92805233D02*
X536128000Y-92613233D01*
X536128000Y-92613233D02*
X536128000Y-92037233D01*
X536128000Y-92037233D02*
X536224000Y-91845233D01*
X536224000Y-91845233D02*
X536320000Y-91749233D01*
X536320000Y-91749233D02*
X536512000Y-91653233D01*
X536512000Y-91653233D02*
X536800000Y-91653233D01*
X536800000Y-91653233D02*
X536992000Y-91749233D01*
X536992000Y-91749233D02*
X537088000Y-91845233D01*
X537088000Y-91845233D02*
X537184000Y-92037233D01*
X537184000Y-92037233D02*
X537184000Y-92613233D01*
X537184000Y-92613233D02*
X537088000Y-92805233D01*
X537088000Y-92805233D02*
X536992000Y-92901233D01*
X536992000Y-92901233D02*
X536800000Y-92997233D01*
X536800000Y-92997233D02*
X536512000Y-92997233D01*
X538912000Y-92997233D02*
X538912000Y-90981233D01*
X538912000Y-92901233D02*
X538720000Y-92997233D01*
X538720000Y-92997233D02*
X538336000Y-92997233D01*
X538336000Y-92997233D02*
X538144000Y-92901233D01*
X538144000Y-92901233D02*
X538048000Y-92805233D01*
X538048000Y-92805233D02*
X537952000Y-92613233D01*
X537952000Y-92613233D02*
X537952000Y-92037233D01*
X537952000Y-92037233D02*
X538048000Y-91845233D01*
X538048000Y-91845233D02*
X538144000Y-91749233D01*
X538144000Y-91749233D02*
X538336000Y-91653233D01*
X538336000Y-91653233D02*
X538720000Y-91653233D01*
X538720000Y-91653233D02*
X538912000Y-91749233D01*
X540736000Y-91653233D02*
X540736000Y-92997233D01*
X539872000Y-91653233D02*
X539872000Y-92709233D01*
X539872000Y-92709233D02*
X539968000Y-92901233D01*
X539968000Y-92901233D02*
X540160000Y-92997233D01*
X540160000Y-92997233D02*
X540448000Y-92997233D01*
X540448000Y-92997233D02*
X540640000Y-92901233D01*
X540640000Y-92901233D02*
X540736000Y-92805233D01*
X541984000Y-92997233D02*
X541792000Y-92901233D01*
X541792000Y-92901233D02*
X541696000Y-92709233D01*
X541696000Y-92709233D02*
X541696000Y-90981233D01*
X543520000Y-92901233D02*
X543328000Y-92997233D01*
X543328000Y-92997233D02*
X542944000Y-92997233D01*
X542944000Y-92997233D02*
X542752000Y-92901233D01*
X542752000Y-92901233D02*
X542656000Y-92709233D01*
X542656000Y-92709233D02*
X542656000Y-91941233D01*
X542656000Y-91941233D02*
X542752000Y-91749233D01*
X542752000Y-91749233D02*
X542944000Y-91653233D01*
X542944000Y-91653233D02*
X543328000Y-91653233D01*
X543328000Y-91653233D02*
X543520000Y-91749233D01*
X543520000Y-91749233D02*
X543616000Y-91941233D01*
X543616000Y-91941233D02*
X543616000Y-92133233D01*
X543616000Y-92133233D02*
X542656000Y-92325233D01*
X520624000Y-94226880D02*
X521776000Y-94226880D01*
X521200000Y-96242880D02*
X521200000Y-94226880D01*
X522448000Y-96242880D02*
X522448000Y-94226880D01*
X522448000Y-94226880D02*
X522928000Y-94226880D01*
X522928000Y-94226880D02*
X523216000Y-94322880D01*
X523216000Y-94322880D02*
X523408000Y-94514880D01*
X523408000Y-94514880D02*
X523504000Y-94706880D01*
X523504000Y-94706880D02*
X523600000Y-95090880D01*
X523600000Y-95090880D02*
X523600000Y-95378880D01*
X523600000Y-95378880D02*
X523504000Y-95762880D01*
X523504000Y-95762880D02*
X523408000Y-95954880D01*
X523408000Y-95954880D02*
X523216000Y-96146880D01*
X523216000Y-96146880D02*
X522928000Y-96242880D01*
X522928000Y-96242880D02*
X522448000Y-96242880D01*
X524464000Y-96242880D02*
X524464000Y-94226880D01*
X524464000Y-94226880D02*
X525136000Y-95666880D01*
X525136000Y-95666880D02*
X525808000Y-94226880D01*
X525808000Y-94226880D02*
X525808000Y-96242880D01*
X50812000Y-64155586D02*
X51100000Y-64251586D01*
X51100000Y-64251586D02*
X51580000Y-64251586D01*
X51580000Y-64251586D02*
X51772000Y-64155586D01*
X51772000Y-64155586D02*
X51868000Y-64059586D01*
X51868000Y-64059586D02*
X51964000Y-63867586D01*
X51964000Y-63867586D02*
X51964000Y-63675586D01*
X51964000Y-63675586D02*
X51868000Y-63483586D01*
X51868000Y-63483586D02*
X51772000Y-63387586D01*
X51772000Y-63387586D02*
X51580000Y-63291586D01*
X51580000Y-63291586D02*
X51196000Y-63195586D01*
X51196000Y-63195586D02*
X51004000Y-63099586D01*
X51004000Y-63099586D02*
X50908000Y-63003586D01*
X50908000Y-63003586D02*
X50812000Y-62811586D01*
X50812000Y-62811586D02*
X50812000Y-62619586D01*
X50812000Y-62619586D02*
X50908000Y-62427586D01*
X50908000Y-62427586D02*
X51004000Y-62331586D01*
X51004000Y-62331586D02*
X51196000Y-62235586D01*
X51196000Y-62235586D02*
X51676000Y-62235586D01*
X51676000Y-62235586D02*
X51964000Y-62331586D01*
X52540000Y-62235586D02*
X53692000Y-62235586D01*
X53116000Y-64251586D02*
X53116000Y-62235586D01*
X54364000Y-64251586D02*
X54364000Y-62235586D01*
X54364000Y-62235586D02*
X55036000Y-63675586D01*
X55036000Y-63675586D02*
X55708000Y-62235586D01*
X55708000Y-62235586D02*
X55708000Y-64251586D01*
X56476000Y-62235586D02*
X57724000Y-62235586D01*
X57724000Y-62235586D02*
X57052000Y-63003586D01*
X57052000Y-63003586D02*
X57340000Y-63003586D01*
X57340000Y-63003586D02*
X57532000Y-63099586D01*
X57532000Y-63099586D02*
X57628000Y-63195586D01*
X57628000Y-63195586D02*
X57724000Y-63387586D01*
X57724000Y-63387586D02*
X57724000Y-63867586D01*
X57724000Y-63867586D02*
X57628000Y-64059586D01*
X57628000Y-64059586D02*
X57532000Y-64155586D01*
X57532000Y-64155586D02*
X57340000Y-64251586D01*
X57340000Y-64251586D02*
X56764000Y-64251586D01*
X56764000Y-64251586D02*
X56572000Y-64155586D01*
X56572000Y-64155586D02*
X56476000Y-64059586D01*
X58492000Y-62427586D02*
X58588000Y-62331586D01*
X58588000Y-62331586D02*
X58780000Y-62235586D01*
X58780000Y-62235586D02*
X59260000Y-62235586D01*
X59260000Y-62235586D02*
X59452000Y-62331586D01*
X59452000Y-62331586D02*
X59548000Y-62427586D01*
X59548000Y-62427586D02*
X59644000Y-62619586D01*
X59644000Y-62619586D02*
X59644000Y-62811586D01*
X59644000Y-62811586D02*
X59548000Y-63099586D01*
X59548000Y-63099586D02*
X58396000Y-64251586D01*
X58396000Y-64251586D02*
X59644000Y-64251586D01*
X61180000Y-63195586D02*
X60508000Y-63195586D01*
X60508000Y-64251586D02*
X60508000Y-62235586D01*
X60508000Y-62235586D02*
X61468000Y-62235586D01*
X63292000Y-64251586D02*
X62140000Y-64251586D01*
X62716000Y-64251586D02*
X62716000Y-62235586D01*
X62716000Y-62235586D02*
X62524000Y-62523586D01*
X62524000Y-62523586D02*
X62332000Y-62715586D01*
X62332000Y-62715586D02*
X62140000Y-62811586D01*
X64540000Y-62235586D02*
X64732000Y-62235586D01*
X64732000Y-62235586D02*
X64924000Y-62331586D01*
X64924000Y-62331586D02*
X65020000Y-62427586D01*
X65020000Y-62427586D02*
X65116000Y-62619586D01*
X65116000Y-62619586D02*
X65212000Y-63003586D01*
X65212000Y-63003586D02*
X65212000Y-63483586D01*
X65212000Y-63483586D02*
X65116000Y-63867586D01*
X65116000Y-63867586D02*
X65020000Y-64059586D01*
X65020000Y-64059586D02*
X64924000Y-64155586D01*
X64924000Y-64155586D02*
X64732000Y-64251586D01*
X64732000Y-64251586D02*
X64540000Y-64251586D01*
X64540000Y-64251586D02*
X64348000Y-64155586D01*
X64348000Y-64155586D02*
X64252000Y-64059586D01*
X64252000Y-64059586D02*
X64156000Y-63867586D01*
X64156000Y-63867586D02*
X64060000Y-63483586D01*
X64060000Y-63483586D02*
X64060000Y-63003586D01*
X64060000Y-63003586D02*
X64156000Y-62619586D01*
X64156000Y-62619586D02*
X64252000Y-62427586D01*
X64252000Y-62427586D02*
X64348000Y-62331586D01*
X64348000Y-62331586D02*
X64540000Y-62235586D01*
X65884000Y-62235586D02*
X67132000Y-62235586D01*
X67132000Y-62235586D02*
X66460000Y-63003586D01*
X66460000Y-63003586D02*
X66748000Y-63003586D01*
X66748000Y-63003586D02*
X66940000Y-63099586D01*
X66940000Y-63099586D02*
X67036000Y-63195586D01*
X67036000Y-63195586D02*
X67132000Y-63387586D01*
X67132000Y-63387586D02*
X67132000Y-63867586D01*
X67132000Y-63867586D02*
X67036000Y-64059586D01*
X67036000Y-64059586D02*
X66940000Y-64155586D01*
X66940000Y-64155586D02*
X66748000Y-64251586D01*
X66748000Y-64251586D02*
X66172000Y-64251586D01*
X66172000Y-64251586D02*
X65980000Y-64155586D01*
X65980000Y-64155586D02*
X65884000Y-64059586D01*
X70204000Y-63195586D02*
X70492000Y-63291586D01*
X70492000Y-63291586D02*
X70588000Y-63387586D01*
X70588000Y-63387586D02*
X70684000Y-63579586D01*
X70684000Y-63579586D02*
X70684000Y-63867586D01*
X70684000Y-63867586D02*
X70588000Y-64059586D01*
X70588000Y-64059586D02*
X70492000Y-64155586D01*
X70492000Y-64155586D02*
X70300000Y-64251586D01*
X70300000Y-64251586D02*
X69532000Y-64251586D01*
X69532000Y-64251586D02*
X69532000Y-62235586D01*
X69532000Y-62235586D02*
X70204000Y-62235586D01*
X70204000Y-62235586D02*
X70396000Y-62331586D01*
X70396000Y-62331586D02*
X70492000Y-62427586D01*
X70492000Y-62427586D02*
X70588000Y-62619586D01*
X70588000Y-62619586D02*
X70588000Y-62811586D01*
X70588000Y-62811586D02*
X70492000Y-63003586D01*
X70492000Y-63003586D02*
X70396000Y-63099586D01*
X70396000Y-63099586D02*
X70204000Y-63195586D01*
X70204000Y-63195586D02*
X69532000Y-63195586D01*
X71836000Y-64251586D02*
X71644000Y-64155586D01*
X71644000Y-64155586D02*
X71548000Y-63963586D01*
X71548000Y-63963586D02*
X71548000Y-62235586D01*
X73468000Y-62907586D02*
X73468000Y-64251586D01*
X72604000Y-62907586D02*
X72604000Y-63963586D01*
X72604000Y-63963586D02*
X72700000Y-64155586D01*
X72700000Y-64155586D02*
X72892000Y-64251586D01*
X72892000Y-64251586D02*
X73180000Y-64251586D01*
X73180000Y-64251586D02*
X73372000Y-64155586D01*
X73372000Y-64155586D02*
X73468000Y-64059586D01*
X75196000Y-64155586D02*
X75004000Y-64251586D01*
X75004000Y-64251586D02*
X74620000Y-64251586D01*
X74620000Y-64251586D02*
X74428000Y-64155586D01*
X74428000Y-64155586D02*
X74332000Y-63963586D01*
X74332000Y-63963586D02*
X74332000Y-63195586D01*
X74332000Y-63195586D02*
X74428000Y-63003586D01*
X74428000Y-63003586D02*
X74620000Y-62907586D01*
X74620000Y-62907586D02*
X75004000Y-62907586D01*
X75004000Y-62907586D02*
X75196000Y-63003586D01*
X75196000Y-63003586D02*
X75292000Y-63195586D01*
X75292000Y-63195586D02*
X75292000Y-63387586D01*
X75292000Y-63387586D02*
X74332000Y-63579586D01*
X76156000Y-62907586D02*
X76156000Y-64923586D01*
X76156000Y-63003586D02*
X76348000Y-62907586D01*
X76348000Y-62907586D02*
X76732000Y-62907586D01*
X76732000Y-62907586D02*
X76924000Y-63003586D01*
X76924000Y-63003586D02*
X77020000Y-63099586D01*
X77020000Y-63099586D02*
X77116000Y-63291586D01*
X77116000Y-63291586D02*
X77116000Y-63867586D01*
X77116000Y-63867586D02*
X77020000Y-64059586D01*
X77020000Y-64059586D02*
X76924000Y-64155586D01*
X76924000Y-64155586D02*
X76732000Y-64251586D01*
X76732000Y-64251586D02*
X76348000Y-64251586D01*
X76348000Y-64251586D02*
X76156000Y-64155586D01*
X77980000Y-64251586D02*
X77980000Y-62907586D01*
X77980000Y-62235586D02*
X77884000Y-62331586D01*
X77884000Y-62331586D02*
X77980000Y-62427586D01*
X77980000Y-62427586D02*
X78076000Y-62331586D01*
X78076000Y-62331586D02*
X77980000Y-62235586D01*
X77980000Y-62235586D02*
X77980000Y-62427586D01*
X79228000Y-64251586D02*
X79036000Y-64155586D01*
X79036000Y-64155586D02*
X78940000Y-63963586D01*
X78940000Y-63963586D02*
X78940000Y-62235586D01*
X80284000Y-64251586D02*
X80092000Y-64155586D01*
X80092000Y-64155586D02*
X79996000Y-63963586D01*
X79996000Y-63963586D02*
X79996000Y-62235586D01*
X50620000Y-65481233D02*
X51964000Y-65481233D01*
X51964000Y-65481233D02*
X51100000Y-67497233D01*
X52636000Y-67401233D02*
X52924000Y-67497233D01*
X52924000Y-67497233D02*
X53404000Y-67497233D01*
X53404000Y-67497233D02*
X53596000Y-67401233D01*
X53596000Y-67401233D02*
X53692000Y-67305233D01*
X53692000Y-67305233D02*
X53788000Y-67113233D01*
X53788000Y-67113233D02*
X53788000Y-66921233D01*
X53788000Y-66921233D02*
X53692000Y-66729233D01*
X53692000Y-66729233D02*
X53596000Y-66633233D01*
X53596000Y-66633233D02*
X53404000Y-66537233D01*
X53404000Y-66537233D02*
X53020000Y-66441233D01*
X53020000Y-66441233D02*
X52828000Y-66345233D01*
X52828000Y-66345233D02*
X52732000Y-66249233D01*
X52732000Y-66249233D02*
X52636000Y-66057233D01*
X52636000Y-66057233D02*
X52636000Y-65865233D01*
X52636000Y-65865233D02*
X52732000Y-65673233D01*
X52732000Y-65673233D02*
X52828000Y-65577233D01*
X52828000Y-65577233D02*
X53020000Y-65481233D01*
X53020000Y-65481233D02*
X53500000Y-65481233D01*
X53500000Y-65481233D02*
X53788000Y-65577233D01*
X54652000Y-66441233D02*
X55324000Y-66441233D01*
X55612000Y-67497233D02*
X54652000Y-67497233D01*
X54652000Y-67497233D02*
X54652000Y-65481233D01*
X54652000Y-65481233D02*
X55612000Y-65481233D01*
X57532000Y-65577233D02*
X57340000Y-65481233D01*
X57340000Y-65481233D02*
X57052000Y-65481233D01*
X57052000Y-65481233D02*
X56764000Y-65577233D01*
X56764000Y-65577233D02*
X56572000Y-65769233D01*
X56572000Y-65769233D02*
X56476000Y-65961233D01*
X56476000Y-65961233D02*
X56380000Y-66345233D01*
X56380000Y-66345233D02*
X56380000Y-66633233D01*
X56380000Y-66633233D02*
X56476000Y-67017233D01*
X56476000Y-67017233D02*
X56572000Y-67209233D01*
X56572000Y-67209233D02*
X56764000Y-67401233D01*
X56764000Y-67401233D02*
X57052000Y-67497233D01*
X57052000Y-67497233D02*
X57244000Y-67497233D01*
X57244000Y-67497233D02*
X57532000Y-67401233D01*
X57532000Y-67401233D02*
X57628000Y-67305233D01*
X57628000Y-67305233D02*
X57628000Y-66633233D01*
X57628000Y-66633233D02*
X57244000Y-66633233D01*
X60028000Y-67497233D02*
X60028000Y-65481233D01*
X60028000Y-65481233D02*
X60508000Y-65481233D01*
X60508000Y-65481233D02*
X60796000Y-65577233D01*
X60796000Y-65577233D02*
X60988000Y-65769233D01*
X60988000Y-65769233D02*
X61084000Y-65961233D01*
X61084000Y-65961233D02*
X61180000Y-66345233D01*
X61180000Y-66345233D02*
X61180000Y-66633233D01*
X61180000Y-66633233D02*
X61084000Y-67017233D01*
X61084000Y-67017233D02*
X60988000Y-67209233D01*
X60988000Y-67209233D02*
X60796000Y-67401233D01*
X60796000Y-67401233D02*
X60508000Y-67497233D01*
X60508000Y-67497233D02*
X60028000Y-67497233D01*
X62044000Y-67497233D02*
X62044000Y-66153233D01*
X62044000Y-65481233D02*
X61948000Y-65577233D01*
X61948000Y-65577233D02*
X62044000Y-65673233D01*
X62044000Y-65673233D02*
X62140000Y-65577233D01*
X62140000Y-65577233D02*
X62044000Y-65481233D01*
X62044000Y-65481233D02*
X62044000Y-65673233D01*
X62908000Y-67401233D02*
X63100000Y-67497233D01*
X63100000Y-67497233D02*
X63484000Y-67497233D01*
X63484000Y-67497233D02*
X63676000Y-67401233D01*
X63676000Y-67401233D02*
X63772000Y-67209233D01*
X63772000Y-67209233D02*
X63772000Y-67113233D01*
X63772000Y-67113233D02*
X63676000Y-66921233D01*
X63676000Y-66921233D02*
X63484000Y-66825233D01*
X63484000Y-66825233D02*
X63196000Y-66825233D01*
X63196000Y-66825233D02*
X63004000Y-66729233D01*
X63004000Y-66729233D02*
X62908000Y-66537233D01*
X62908000Y-66537233D02*
X62908000Y-66441233D01*
X62908000Y-66441233D02*
X63004000Y-66249233D01*
X63004000Y-66249233D02*
X63196000Y-66153233D01*
X63196000Y-66153233D02*
X63484000Y-66153233D01*
X63484000Y-66153233D02*
X63676000Y-66249233D01*
X64636000Y-66153233D02*
X64636000Y-68169233D01*
X64636000Y-66249233D02*
X64828000Y-66153233D01*
X64828000Y-66153233D02*
X65212000Y-66153233D01*
X65212000Y-66153233D02*
X65404000Y-66249233D01*
X65404000Y-66249233D02*
X65500000Y-66345233D01*
X65500000Y-66345233D02*
X65596000Y-66537233D01*
X65596000Y-66537233D02*
X65596000Y-67113233D01*
X65596000Y-67113233D02*
X65500000Y-67305233D01*
X65500000Y-67305233D02*
X65404000Y-67401233D01*
X65404000Y-67401233D02*
X65212000Y-67497233D01*
X65212000Y-67497233D02*
X64828000Y-67497233D01*
X64828000Y-67497233D02*
X64636000Y-67401233D01*
X66748000Y-67497233D02*
X66556000Y-67401233D01*
X66556000Y-67401233D02*
X66460000Y-67209233D01*
X66460000Y-67209233D02*
X66460000Y-65481233D01*
X68380000Y-67497233D02*
X68380000Y-66441233D01*
X68380000Y-66441233D02*
X68284000Y-66249233D01*
X68284000Y-66249233D02*
X68092000Y-66153233D01*
X68092000Y-66153233D02*
X67708000Y-66153233D01*
X67708000Y-66153233D02*
X67516000Y-66249233D01*
X68380000Y-67401233D02*
X68188000Y-67497233D01*
X68188000Y-67497233D02*
X67708000Y-67497233D01*
X67708000Y-67497233D02*
X67516000Y-67401233D01*
X67516000Y-67401233D02*
X67420000Y-67209233D01*
X67420000Y-67209233D02*
X67420000Y-67017233D01*
X67420000Y-67017233D02*
X67516000Y-66825233D01*
X67516000Y-66825233D02*
X67708000Y-66729233D01*
X67708000Y-66729233D02*
X68188000Y-66729233D01*
X68188000Y-66729233D02*
X68380000Y-66633233D01*
X69148000Y-66153233D02*
X69628000Y-67497233D01*
X70108000Y-66153233D02*
X69628000Y-67497233D01*
X69628000Y-67497233D02*
X69436000Y-67977233D01*
X69436000Y-67977233D02*
X69340000Y-68073233D01*
X69340000Y-68073233D02*
X69148000Y-68169233D01*
X72412000Y-67497233D02*
X72412000Y-65481233D01*
X72412000Y-65481233D02*
X72892000Y-65481233D01*
X72892000Y-65481233D02*
X73180000Y-65577233D01*
X73180000Y-65577233D02*
X73372000Y-65769233D01*
X73372000Y-65769233D02*
X73468000Y-65961233D01*
X73468000Y-65961233D02*
X73564000Y-66345233D01*
X73564000Y-66345233D02*
X73564000Y-66633233D01*
X73564000Y-66633233D02*
X73468000Y-67017233D01*
X73468000Y-67017233D02*
X73372000Y-67209233D01*
X73372000Y-67209233D02*
X73180000Y-67401233D01*
X73180000Y-67401233D02*
X72892000Y-67497233D01*
X72892000Y-67497233D02*
X72412000Y-67497233D01*
X74428000Y-67497233D02*
X74428000Y-66153233D01*
X74428000Y-66537233D02*
X74524000Y-66345233D01*
X74524000Y-66345233D02*
X74620000Y-66249233D01*
X74620000Y-66249233D02*
X74812000Y-66153233D01*
X74812000Y-66153233D02*
X75004000Y-66153233D01*
X75676000Y-67497233D02*
X75676000Y-66153233D01*
X75676000Y-65481233D02*
X75580000Y-65577233D01*
X75580000Y-65577233D02*
X75676000Y-65673233D01*
X75676000Y-65673233D02*
X75772000Y-65577233D01*
X75772000Y-65577233D02*
X75676000Y-65481233D01*
X75676000Y-65481233D02*
X75676000Y-65673233D01*
X76444000Y-66153233D02*
X76924000Y-67497233D01*
X76924000Y-67497233D02*
X77404000Y-66153233D01*
X78940000Y-67401233D02*
X78748000Y-67497233D01*
X78748000Y-67497233D02*
X78364000Y-67497233D01*
X78364000Y-67497233D02*
X78172000Y-67401233D01*
X78172000Y-67401233D02*
X78076000Y-67209233D01*
X78076000Y-67209233D02*
X78076000Y-66441233D01*
X78076000Y-66441233D02*
X78172000Y-66249233D01*
X78172000Y-66249233D02*
X78364000Y-66153233D01*
X78364000Y-66153233D02*
X78748000Y-66153233D01*
X78748000Y-66153233D02*
X78940000Y-66249233D01*
X78940000Y-66249233D02*
X79036000Y-66441233D01*
X79036000Y-66441233D02*
X79036000Y-66633233D01*
X79036000Y-66633233D02*
X78076000Y-66825233D01*
X79900000Y-67497233D02*
X79900000Y-66153233D01*
X79900000Y-66537233D02*
X79996000Y-66345233D01*
X79996000Y-66345233D02*
X80092000Y-66249233D01*
X80092000Y-66249233D02*
X80284000Y-66153233D01*
X80284000Y-66153233D02*
X80476000Y-66153233D01*
X62908000Y-70646880D02*
X63196000Y-70742880D01*
X63196000Y-70742880D02*
X63676000Y-70742880D01*
X63676000Y-70742880D02*
X63868000Y-70646880D01*
X63868000Y-70646880D02*
X63964000Y-70550880D01*
X63964000Y-70550880D02*
X64060000Y-70358880D01*
X64060000Y-70358880D02*
X64060000Y-70166880D01*
X64060000Y-70166880D02*
X63964000Y-69974880D01*
X63964000Y-69974880D02*
X63868000Y-69878880D01*
X63868000Y-69878880D02*
X63676000Y-69782880D01*
X63676000Y-69782880D02*
X63292000Y-69686880D01*
X63292000Y-69686880D02*
X63100000Y-69590880D01*
X63100000Y-69590880D02*
X63004000Y-69494880D01*
X63004000Y-69494880D02*
X62908000Y-69302880D01*
X62908000Y-69302880D02*
X62908000Y-69110880D01*
X62908000Y-69110880D02*
X63004000Y-68918880D01*
X63004000Y-68918880D02*
X63100000Y-68822880D01*
X63100000Y-68822880D02*
X63292000Y-68726880D01*
X63292000Y-68726880D02*
X63772000Y-68726880D01*
X63772000Y-68726880D02*
X64060000Y-68822880D01*
X64924000Y-70742880D02*
X64924000Y-68726880D01*
X64924000Y-68726880D02*
X65404000Y-68726880D01*
X65404000Y-68726880D02*
X65692000Y-68822880D01*
X65692000Y-68822880D02*
X65884000Y-69014880D01*
X65884000Y-69014880D02*
X65980000Y-69206880D01*
X65980000Y-69206880D02*
X66076000Y-69590880D01*
X66076000Y-69590880D02*
X66076000Y-69878880D01*
X66076000Y-69878880D02*
X65980000Y-70262880D01*
X65980000Y-70262880D02*
X65884000Y-70454880D01*
X65884000Y-70454880D02*
X65692000Y-70646880D01*
X65692000Y-70646880D02*
X65404000Y-70742880D01*
X65404000Y-70742880D02*
X64924000Y-70742880D01*
X66940000Y-70742880D02*
X66940000Y-68726880D01*
X66940000Y-68726880D02*
X67420000Y-68726880D01*
X67420000Y-68726880D02*
X67708000Y-68822880D01*
X67708000Y-68822880D02*
X67900000Y-69014880D01*
X67900000Y-69014880D02*
X67996000Y-69206880D01*
X67996000Y-69206880D02*
X68092000Y-69590880D01*
X68092000Y-69590880D02*
X68092000Y-69878880D01*
X68092000Y-69878880D02*
X67996000Y-70262880D01*
X67996000Y-70262880D02*
X67900000Y-70454880D01*
X67900000Y-70454880D02*
X67708000Y-70646880D01*
X67708000Y-70646880D02*
X67420000Y-70742880D01*
X67420000Y-70742880D02*
X66940000Y-70742880D01*
X184976000Y-119655586D02*
X185264000Y-119751586D01*
X185264000Y-119751586D02*
X185744000Y-119751586D01*
X185744000Y-119751586D02*
X185936000Y-119655586D01*
X185936000Y-119655586D02*
X186032000Y-119559586D01*
X186032000Y-119559586D02*
X186128000Y-119367586D01*
X186128000Y-119367586D02*
X186128000Y-119175586D01*
X186128000Y-119175586D02*
X186032000Y-118983586D01*
X186032000Y-118983586D02*
X185936000Y-118887586D01*
X185936000Y-118887586D02*
X185744000Y-118791586D01*
X185744000Y-118791586D02*
X185360000Y-118695586D01*
X185360000Y-118695586D02*
X185168000Y-118599586D01*
X185168000Y-118599586D02*
X185072000Y-118503586D01*
X185072000Y-118503586D02*
X184976000Y-118311586D01*
X184976000Y-118311586D02*
X184976000Y-118119586D01*
X184976000Y-118119586D02*
X185072000Y-117927586D01*
X185072000Y-117927586D02*
X185168000Y-117831586D01*
X185168000Y-117831586D02*
X185360000Y-117735586D01*
X185360000Y-117735586D02*
X185840000Y-117735586D01*
X185840000Y-117735586D02*
X186128000Y-117831586D01*
X186704000Y-117735586D02*
X187856000Y-117735586D01*
X187280000Y-119751586D02*
X187280000Y-117735586D01*
X188528000Y-119751586D02*
X188528000Y-117735586D01*
X188528000Y-117735586D02*
X189200000Y-119175586D01*
X189200000Y-119175586D02*
X189872000Y-117735586D01*
X189872000Y-117735586D02*
X189872000Y-119751586D01*
X190640000Y-117735586D02*
X191888000Y-117735586D01*
X191888000Y-117735586D02*
X191216000Y-118503586D01*
X191216000Y-118503586D02*
X191504000Y-118503586D01*
X191504000Y-118503586D02*
X191696000Y-118599586D01*
X191696000Y-118599586D02*
X191792000Y-118695586D01*
X191792000Y-118695586D02*
X191888000Y-118887586D01*
X191888000Y-118887586D02*
X191888000Y-119367586D01*
X191888000Y-119367586D02*
X191792000Y-119559586D01*
X191792000Y-119559586D02*
X191696000Y-119655586D01*
X191696000Y-119655586D02*
X191504000Y-119751586D01*
X191504000Y-119751586D02*
X190928000Y-119751586D01*
X190928000Y-119751586D02*
X190736000Y-119655586D01*
X190736000Y-119655586D02*
X190640000Y-119559586D01*
X192656000Y-117927586D02*
X192752000Y-117831586D01*
X192752000Y-117831586D02*
X192944000Y-117735586D01*
X192944000Y-117735586D02*
X193424000Y-117735586D01*
X193424000Y-117735586D02*
X193616000Y-117831586D01*
X193616000Y-117831586D02*
X193712000Y-117927586D01*
X193712000Y-117927586D02*
X193808000Y-118119586D01*
X193808000Y-118119586D02*
X193808000Y-118311586D01*
X193808000Y-118311586D02*
X193712000Y-118599586D01*
X193712000Y-118599586D02*
X192560000Y-119751586D01*
X192560000Y-119751586D02*
X193808000Y-119751586D01*
X194672000Y-119751586D02*
X194672000Y-117735586D01*
X194672000Y-118695586D02*
X195824000Y-118695586D01*
X195824000Y-119751586D02*
X195824000Y-117735586D01*
X196592000Y-117735586D02*
X197936000Y-117735586D01*
X197936000Y-117735586D02*
X197072000Y-119751586D01*
X199664000Y-117735586D02*
X198704000Y-117735586D01*
X198704000Y-117735586D02*
X198608000Y-118695586D01*
X198608000Y-118695586D02*
X198704000Y-118599586D01*
X198704000Y-118599586D02*
X198896000Y-118503586D01*
X198896000Y-118503586D02*
X199376000Y-118503586D01*
X199376000Y-118503586D02*
X199568000Y-118599586D01*
X199568000Y-118599586D02*
X199664000Y-118695586D01*
X199664000Y-118695586D02*
X199760000Y-118887586D01*
X199760000Y-118887586D02*
X199760000Y-119367586D01*
X199760000Y-119367586D02*
X199664000Y-119559586D01*
X199664000Y-119559586D02*
X199568000Y-119655586D01*
X199568000Y-119655586D02*
X199376000Y-119751586D01*
X199376000Y-119751586D02*
X198896000Y-119751586D01*
X198896000Y-119751586D02*
X198704000Y-119655586D01*
X198704000Y-119655586D02*
X198608000Y-119559586D01*
X201584000Y-117735586D02*
X200624000Y-117735586D01*
X200624000Y-117735586D02*
X200528000Y-118695586D01*
X200528000Y-118695586D02*
X200624000Y-118599586D01*
X200624000Y-118599586D02*
X200816000Y-118503586D01*
X200816000Y-118503586D02*
X201296000Y-118503586D01*
X201296000Y-118503586D02*
X201488000Y-118599586D01*
X201488000Y-118599586D02*
X201584000Y-118695586D01*
X201584000Y-118695586D02*
X201680000Y-118887586D01*
X201680000Y-118887586D02*
X201680000Y-119367586D01*
X201680000Y-119367586D02*
X201584000Y-119559586D01*
X201584000Y-119559586D02*
X201488000Y-119655586D01*
X201488000Y-119655586D02*
X201296000Y-119751586D01*
X201296000Y-119751586D02*
X200816000Y-119751586D01*
X200816000Y-119751586D02*
X200624000Y-119655586D01*
X200624000Y-119655586D02*
X200528000Y-119559586D01*
X204080000Y-119751586D02*
X204080000Y-117735586D01*
X204080000Y-117735586D02*
X205232000Y-119751586D01*
X205232000Y-119751586D02*
X205232000Y-117735586D01*
X206192000Y-117735586D02*
X206192000Y-119367586D01*
X206192000Y-119367586D02*
X206288000Y-119559586D01*
X206288000Y-119559586D02*
X206384000Y-119655586D01*
X206384000Y-119655586D02*
X206576000Y-119751586D01*
X206576000Y-119751586D02*
X206960000Y-119751586D01*
X206960000Y-119751586D02*
X207152000Y-119655586D01*
X207152000Y-119655586D02*
X207248000Y-119559586D01*
X207248000Y-119559586D02*
X207344000Y-119367586D01*
X207344000Y-119367586D02*
X207344000Y-117735586D01*
X209456000Y-119559586D02*
X209360000Y-119655586D01*
X209360000Y-119655586D02*
X209072000Y-119751586D01*
X209072000Y-119751586D02*
X208880000Y-119751586D01*
X208880000Y-119751586D02*
X208592000Y-119655586D01*
X208592000Y-119655586D02*
X208400000Y-119463586D01*
X208400000Y-119463586D02*
X208304000Y-119271586D01*
X208304000Y-119271586D02*
X208208000Y-118887586D01*
X208208000Y-118887586D02*
X208208000Y-118599586D01*
X208208000Y-118599586D02*
X208304000Y-118215586D01*
X208304000Y-118215586D02*
X208400000Y-118023586D01*
X208400000Y-118023586D02*
X208592000Y-117831586D01*
X208592000Y-117831586D02*
X208880000Y-117735586D01*
X208880000Y-117735586D02*
X209072000Y-117735586D01*
X209072000Y-117735586D02*
X209360000Y-117831586D01*
X209360000Y-117831586D02*
X209456000Y-117927586D01*
X211280000Y-119751586D02*
X210320000Y-119751586D01*
X210320000Y-119751586D02*
X210320000Y-117735586D01*
X211952000Y-118695586D02*
X212624000Y-118695586D01*
X212912000Y-119751586D02*
X211952000Y-119751586D01*
X211952000Y-119751586D02*
X211952000Y-117735586D01*
X211952000Y-117735586D02*
X212912000Y-117735586D01*
X214160000Y-117735586D02*
X214544000Y-117735586D01*
X214544000Y-117735586D02*
X214736000Y-117831586D01*
X214736000Y-117831586D02*
X214928000Y-118023586D01*
X214928000Y-118023586D02*
X215024000Y-118407586D01*
X215024000Y-118407586D02*
X215024000Y-119079586D01*
X215024000Y-119079586D02*
X214928000Y-119463586D01*
X214928000Y-119463586D02*
X214736000Y-119655586D01*
X214736000Y-119655586D02*
X214544000Y-119751586D01*
X214544000Y-119751586D02*
X214160000Y-119751586D01*
X214160000Y-119751586D02*
X213968000Y-119655586D01*
X213968000Y-119655586D02*
X213776000Y-119463586D01*
X213776000Y-119463586D02*
X213680000Y-119079586D01*
X213680000Y-119079586D02*
X213680000Y-118407586D01*
X213680000Y-118407586D02*
X213776000Y-118023586D01*
X213776000Y-118023586D02*
X213968000Y-117831586D01*
X213968000Y-117831586D02*
X214160000Y-117735586D01*
X181280000Y-122421233D02*
X182240000Y-122421233D01*
X181088000Y-122997233D02*
X181760000Y-120981233D01*
X181760000Y-120981233D02*
X182432000Y-122997233D01*
X183968000Y-121653233D02*
X183968000Y-122997233D01*
X183104000Y-121653233D02*
X183104000Y-122709233D01*
X183104000Y-122709233D02*
X183200000Y-122901233D01*
X183200000Y-122901233D02*
X183392000Y-122997233D01*
X183392000Y-122997233D02*
X183680000Y-122997233D01*
X183680000Y-122997233D02*
X183872000Y-122901233D01*
X183872000Y-122901233D02*
X183968000Y-122805233D01*
X185792000Y-122997233D02*
X185792000Y-120981233D01*
X185792000Y-122901233D02*
X185600000Y-122997233D01*
X185600000Y-122997233D02*
X185216000Y-122997233D01*
X185216000Y-122997233D02*
X185024000Y-122901233D01*
X185024000Y-122901233D02*
X184928000Y-122805233D01*
X184928000Y-122805233D02*
X184832000Y-122613233D01*
X184832000Y-122613233D02*
X184832000Y-122037233D01*
X184832000Y-122037233D02*
X184928000Y-121845233D01*
X184928000Y-121845233D02*
X185024000Y-121749233D01*
X185024000Y-121749233D02*
X185216000Y-121653233D01*
X185216000Y-121653233D02*
X185600000Y-121653233D01*
X185600000Y-121653233D02*
X185792000Y-121749233D01*
X186752000Y-122997233D02*
X186752000Y-121653233D01*
X186752000Y-120981233D02*
X186656000Y-121077233D01*
X186656000Y-121077233D02*
X186752000Y-121173233D01*
X186752000Y-121173233D02*
X186848000Y-121077233D01*
X186848000Y-121077233D02*
X186752000Y-120981233D01*
X186752000Y-120981233D02*
X186752000Y-121173233D01*
X188000000Y-122997233D02*
X187808000Y-122901233D01*
X187808000Y-122901233D02*
X187712000Y-122805233D01*
X187712000Y-122805233D02*
X187616000Y-122613233D01*
X187616000Y-122613233D02*
X187616000Y-122037233D01*
X187616000Y-122037233D02*
X187712000Y-121845233D01*
X187712000Y-121845233D02*
X187808000Y-121749233D01*
X187808000Y-121749233D02*
X188000000Y-121653233D01*
X188000000Y-121653233D02*
X188288000Y-121653233D01*
X188288000Y-121653233D02*
X188480000Y-121749233D01*
X188480000Y-121749233D02*
X188576000Y-121845233D01*
X188576000Y-121845233D02*
X188672000Y-122037233D01*
X188672000Y-122037233D02*
X188672000Y-122613233D01*
X188672000Y-122613233D02*
X188576000Y-122805233D01*
X188576000Y-122805233D02*
X188480000Y-122901233D01*
X188480000Y-122901233D02*
X188288000Y-122997233D01*
X188288000Y-122997233D02*
X188000000Y-122997233D01*
X190976000Y-122421233D02*
X191936000Y-122421233D01*
X190784000Y-122997233D02*
X191456000Y-120981233D01*
X191456000Y-120981233D02*
X192128000Y-122997233D01*
X193664000Y-122901233D02*
X193472000Y-122997233D01*
X193472000Y-122997233D02*
X193088000Y-122997233D01*
X193088000Y-122997233D02*
X192896000Y-122901233D01*
X192896000Y-122901233D02*
X192800000Y-122805233D01*
X192800000Y-122805233D02*
X192704000Y-122613233D01*
X192704000Y-122613233D02*
X192704000Y-122037233D01*
X192704000Y-122037233D02*
X192800000Y-121845233D01*
X192800000Y-121845233D02*
X192896000Y-121749233D01*
X192896000Y-121749233D02*
X193088000Y-121653233D01*
X193088000Y-121653233D02*
X193472000Y-121653233D01*
X193472000Y-121653233D02*
X193664000Y-121749233D01*
X195392000Y-121653233D02*
X195392000Y-123669233D01*
X195392000Y-122901233D02*
X195200000Y-122997233D01*
X195200000Y-122997233D02*
X194816000Y-122997233D01*
X194816000Y-122997233D02*
X194624000Y-122901233D01*
X194624000Y-122901233D02*
X194528000Y-122805233D01*
X194528000Y-122805233D02*
X194432000Y-122613233D01*
X194432000Y-122613233D02*
X194432000Y-122037233D01*
X194432000Y-122037233D02*
X194528000Y-121845233D01*
X194528000Y-121845233D02*
X194624000Y-121749233D01*
X194624000Y-121749233D02*
X194816000Y-121653233D01*
X194816000Y-121653233D02*
X195200000Y-121653233D01*
X195200000Y-121653233D02*
X195392000Y-121749233D01*
X197216000Y-121653233D02*
X197216000Y-122997233D01*
X196352000Y-121653233D02*
X196352000Y-122709233D01*
X196352000Y-122709233D02*
X196448000Y-122901233D01*
X196448000Y-122901233D02*
X196640000Y-122997233D01*
X196640000Y-122997233D02*
X196928000Y-122997233D01*
X196928000Y-122997233D02*
X197120000Y-122901233D01*
X197120000Y-122901233D02*
X197216000Y-122805233D01*
X198176000Y-122997233D02*
X198176000Y-121653233D01*
X198176000Y-120981233D02*
X198080000Y-121077233D01*
X198080000Y-121077233D02*
X198176000Y-121173233D01*
X198176000Y-121173233D02*
X198272000Y-121077233D01*
X198272000Y-121077233D02*
X198176000Y-120981233D01*
X198176000Y-120981233D02*
X198176000Y-121173233D01*
X199040000Y-122901233D02*
X199232000Y-122997233D01*
X199232000Y-122997233D02*
X199616000Y-122997233D01*
X199616000Y-122997233D02*
X199808000Y-122901233D01*
X199808000Y-122901233D02*
X199904000Y-122709233D01*
X199904000Y-122709233D02*
X199904000Y-122613233D01*
X199904000Y-122613233D02*
X199808000Y-122421233D01*
X199808000Y-122421233D02*
X199616000Y-122325233D01*
X199616000Y-122325233D02*
X199328000Y-122325233D01*
X199328000Y-122325233D02*
X199136000Y-122229233D01*
X199136000Y-122229233D02*
X199040000Y-122037233D01*
X199040000Y-122037233D02*
X199040000Y-121941233D01*
X199040000Y-121941233D02*
X199136000Y-121749233D01*
X199136000Y-121749233D02*
X199328000Y-121653233D01*
X199328000Y-121653233D02*
X199616000Y-121653233D01*
X199616000Y-121653233D02*
X199808000Y-121749233D01*
X200768000Y-122997233D02*
X200768000Y-121653233D01*
X200768000Y-120981233D02*
X200672000Y-121077233D01*
X200672000Y-121077233D02*
X200768000Y-121173233D01*
X200768000Y-121173233D02*
X200864000Y-121077233D01*
X200864000Y-121077233D02*
X200768000Y-120981233D01*
X200768000Y-120981233D02*
X200768000Y-121173233D01*
X201440000Y-121653233D02*
X202208000Y-121653233D01*
X201728000Y-120981233D02*
X201728000Y-122709233D01*
X201728000Y-122709233D02*
X201824000Y-122901233D01*
X201824000Y-122901233D02*
X202016000Y-122997233D01*
X202016000Y-122997233D02*
X202208000Y-122997233D01*
X202880000Y-122997233D02*
X202880000Y-121653233D01*
X202880000Y-120981233D02*
X202784000Y-121077233D01*
X202784000Y-121077233D02*
X202880000Y-121173233D01*
X202880000Y-121173233D02*
X202976000Y-121077233D01*
X202976000Y-121077233D02*
X202880000Y-120981233D01*
X202880000Y-120981233D02*
X202880000Y-121173233D01*
X204128000Y-122997233D02*
X203936000Y-122901233D01*
X203936000Y-122901233D02*
X203840000Y-122805233D01*
X203840000Y-122805233D02*
X203744000Y-122613233D01*
X203744000Y-122613233D02*
X203744000Y-122037233D01*
X203744000Y-122037233D02*
X203840000Y-121845233D01*
X203840000Y-121845233D02*
X203936000Y-121749233D01*
X203936000Y-121749233D02*
X204128000Y-121653233D01*
X204128000Y-121653233D02*
X204416000Y-121653233D01*
X204416000Y-121653233D02*
X204608000Y-121749233D01*
X204608000Y-121749233D02*
X204704000Y-121845233D01*
X204704000Y-121845233D02*
X204800000Y-122037233D01*
X204800000Y-122037233D02*
X204800000Y-122613233D01*
X204800000Y-122613233D02*
X204704000Y-122805233D01*
X204704000Y-122805233D02*
X204608000Y-122901233D01*
X204608000Y-122901233D02*
X204416000Y-122997233D01*
X204416000Y-122997233D02*
X204128000Y-122997233D01*
X205664000Y-121653233D02*
X205664000Y-122997233D01*
X205664000Y-121845233D02*
X205760000Y-121749233D01*
X205760000Y-121749233D02*
X205952000Y-121653233D01*
X205952000Y-121653233D02*
X206240000Y-121653233D01*
X206240000Y-121653233D02*
X206432000Y-121749233D01*
X206432000Y-121749233D02*
X206528000Y-121941233D01*
X206528000Y-121941233D02*
X206528000Y-122997233D01*
X209024000Y-122997233D02*
X209024000Y-120981233D01*
X209024000Y-120981233D02*
X209696000Y-122421233D01*
X209696000Y-122421233D02*
X210368000Y-120981233D01*
X210368000Y-120981233D02*
X210368000Y-122997233D01*
X211616000Y-122997233D02*
X211424000Y-122901233D01*
X211424000Y-122901233D02*
X211328000Y-122805233D01*
X211328000Y-122805233D02*
X211232000Y-122613233D01*
X211232000Y-122613233D02*
X211232000Y-122037233D01*
X211232000Y-122037233D02*
X211328000Y-121845233D01*
X211328000Y-121845233D02*
X211424000Y-121749233D01*
X211424000Y-121749233D02*
X211616000Y-121653233D01*
X211616000Y-121653233D02*
X211904000Y-121653233D01*
X211904000Y-121653233D02*
X212096000Y-121749233D01*
X212096000Y-121749233D02*
X212192000Y-121845233D01*
X212192000Y-121845233D02*
X212288000Y-122037233D01*
X212288000Y-122037233D02*
X212288000Y-122613233D01*
X212288000Y-122613233D02*
X212192000Y-122805233D01*
X212192000Y-122805233D02*
X212096000Y-122901233D01*
X212096000Y-122901233D02*
X211904000Y-122997233D01*
X211904000Y-122997233D02*
X211616000Y-122997233D01*
X214016000Y-122997233D02*
X214016000Y-120981233D01*
X214016000Y-122901233D02*
X213824000Y-122997233D01*
X213824000Y-122997233D02*
X213440000Y-122997233D01*
X213440000Y-122997233D02*
X213248000Y-122901233D01*
X213248000Y-122901233D02*
X213152000Y-122805233D01*
X213152000Y-122805233D02*
X213056000Y-122613233D01*
X213056000Y-122613233D02*
X213056000Y-122037233D01*
X213056000Y-122037233D02*
X213152000Y-121845233D01*
X213152000Y-121845233D02*
X213248000Y-121749233D01*
X213248000Y-121749233D02*
X213440000Y-121653233D01*
X213440000Y-121653233D02*
X213824000Y-121653233D01*
X213824000Y-121653233D02*
X214016000Y-121749233D01*
X215840000Y-121653233D02*
X215840000Y-122997233D01*
X214976000Y-121653233D02*
X214976000Y-122709233D01*
X214976000Y-122709233D02*
X215072000Y-122901233D01*
X215072000Y-122901233D02*
X215264000Y-122997233D01*
X215264000Y-122997233D02*
X215552000Y-122997233D01*
X215552000Y-122997233D02*
X215744000Y-122901233D01*
X215744000Y-122901233D02*
X215840000Y-122805233D01*
X217088000Y-122997233D02*
X216896000Y-122901233D01*
X216896000Y-122901233D02*
X216800000Y-122709233D01*
X216800000Y-122709233D02*
X216800000Y-120981233D01*
X218624000Y-122901233D02*
X218432000Y-122997233D01*
X218432000Y-122997233D02*
X218048000Y-122997233D01*
X218048000Y-122997233D02*
X217856000Y-122901233D01*
X217856000Y-122901233D02*
X217760000Y-122709233D01*
X217760000Y-122709233D02*
X217760000Y-121941233D01*
X217760000Y-121941233D02*
X217856000Y-121749233D01*
X217856000Y-121749233D02*
X218048000Y-121653233D01*
X218048000Y-121653233D02*
X218432000Y-121653233D01*
X218432000Y-121653233D02*
X218624000Y-121749233D01*
X218624000Y-121749233D02*
X218720000Y-121941233D01*
X218720000Y-121941233D02*
X218720000Y-122133233D01*
X218720000Y-122133233D02*
X217760000Y-122325233D01*
X197504000Y-125666880D02*
X198464000Y-125666880D01*
X197312000Y-126242880D02*
X197984000Y-124226880D01*
X197984000Y-124226880D02*
X198656000Y-126242880D01*
X199232000Y-125666880D02*
X200192000Y-125666880D01*
X199040000Y-126242880D02*
X199712000Y-124226880D01*
X199712000Y-124226880D02*
X200384000Y-126242880D01*
X201056000Y-126242880D02*
X201056000Y-124226880D01*
X201056000Y-124226880D02*
X201728000Y-125666880D01*
X201728000Y-125666880D02*
X202400000Y-124226880D01*
X202400000Y-124226880D02*
X202400000Y-126242880D01*
X282078000Y-160831586D02*
X281886000Y-160735586D01*
X281886000Y-160735586D02*
X281598000Y-160735586D01*
X281598000Y-160735586D02*
X281310000Y-160831586D01*
X281310000Y-160831586D02*
X281118000Y-161023586D01*
X281118000Y-161023586D02*
X281022000Y-161215586D01*
X281022000Y-161215586D02*
X280926000Y-161599586D01*
X280926000Y-161599586D02*
X280926000Y-161887586D01*
X280926000Y-161887586D02*
X281022000Y-162271586D01*
X281022000Y-162271586D02*
X281118000Y-162463586D01*
X281118000Y-162463586D02*
X281310000Y-162655586D01*
X281310000Y-162655586D02*
X281598000Y-162751586D01*
X281598000Y-162751586D02*
X281790000Y-162751586D01*
X281790000Y-162751586D02*
X282078000Y-162655586D01*
X282078000Y-162655586D02*
X282174000Y-162559586D01*
X282174000Y-162559586D02*
X282174000Y-161887586D01*
X282174000Y-161887586D02*
X281790000Y-161887586D01*
X282846000Y-160735586D02*
X283326000Y-162751586D01*
X283326000Y-162751586D02*
X283710000Y-161311586D01*
X283710000Y-161311586D02*
X284094000Y-162751586D01*
X284094000Y-162751586D02*
X284574000Y-160735586D01*
X286398000Y-162751586D02*
X285246000Y-162751586D01*
X285822000Y-162751586D02*
X285822000Y-160735586D01*
X285822000Y-160735586D02*
X285630000Y-161023586D01*
X285630000Y-161023586D02*
X285438000Y-161215586D01*
X285438000Y-161215586D02*
X285246000Y-161311586D01*
X287262000Y-162751586D02*
X287262000Y-160735586D01*
X287262000Y-160735586D02*
X288414000Y-162751586D01*
X288414000Y-162751586D02*
X288414000Y-160735586D01*
X289374000Y-161983586D02*
X290910000Y-161983586D01*
X291966000Y-162751586D02*
X292350000Y-162751586D01*
X292350000Y-162751586D02*
X292542000Y-162655586D01*
X292542000Y-162655586D02*
X292638000Y-162559586D01*
X292638000Y-162559586D02*
X292830000Y-162271586D01*
X292830000Y-162271586D02*
X292926000Y-161887586D01*
X292926000Y-161887586D02*
X292926000Y-161119586D01*
X292926000Y-161119586D02*
X292830000Y-160927586D01*
X292830000Y-160927586D02*
X292734000Y-160831586D01*
X292734000Y-160831586D02*
X292542000Y-160735586D01*
X292542000Y-160735586D02*
X292158000Y-160735586D01*
X292158000Y-160735586D02*
X291966000Y-160831586D01*
X291966000Y-160831586D02*
X291870000Y-160927586D01*
X291870000Y-160927586D02*
X291774000Y-161119586D01*
X291774000Y-161119586D02*
X291774000Y-161599586D01*
X291774000Y-161599586D02*
X291870000Y-161791586D01*
X291870000Y-161791586D02*
X291966000Y-161887586D01*
X291966000Y-161887586D02*
X292158000Y-161983586D01*
X292158000Y-161983586D02*
X292542000Y-161983586D01*
X292542000Y-161983586D02*
X292734000Y-161887586D01*
X292734000Y-161887586D02*
X292830000Y-161791586D01*
X292830000Y-161791586D02*
X292926000Y-161599586D01*
X294942000Y-162751586D02*
X294270000Y-161791586D01*
X293790000Y-162751586D02*
X293790000Y-160735586D01*
X293790000Y-160735586D02*
X294558000Y-160735586D01*
X294558000Y-160735586D02*
X294750000Y-160831586D01*
X294750000Y-160831586D02*
X294846000Y-160927586D01*
X294846000Y-160927586D02*
X294942000Y-161119586D01*
X294942000Y-161119586D02*
X294942000Y-161407586D01*
X294942000Y-161407586D02*
X294846000Y-161599586D01*
X294846000Y-161599586D02*
X294750000Y-161695586D01*
X294750000Y-161695586D02*
X294558000Y-161791586D01*
X294558000Y-161791586D02*
X293790000Y-161791586D01*
X297054000Y-160735586D02*
X298206000Y-160735586D01*
X297630000Y-162751586D02*
X297630000Y-160735586D01*
X299742000Y-162751586D02*
X299742000Y-161695586D01*
X299742000Y-161695586D02*
X299646000Y-161503586D01*
X299646000Y-161503586D02*
X299454000Y-161407586D01*
X299454000Y-161407586D02*
X299070000Y-161407586D01*
X299070000Y-161407586D02*
X298878000Y-161503586D01*
X299742000Y-162655586D02*
X299550000Y-162751586D01*
X299550000Y-162751586D02*
X299070000Y-162751586D01*
X299070000Y-162751586D02*
X298878000Y-162655586D01*
X298878000Y-162655586D02*
X298782000Y-162463586D01*
X298782000Y-162463586D02*
X298782000Y-162271586D01*
X298782000Y-162271586D02*
X298878000Y-162079586D01*
X298878000Y-162079586D02*
X299070000Y-161983586D01*
X299070000Y-161983586D02*
X299550000Y-161983586D01*
X299550000Y-161983586D02*
X299742000Y-161887586D01*
X300702000Y-161407586D02*
X300702000Y-162751586D01*
X300702000Y-161599586D02*
X300798000Y-161503586D01*
X300798000Y-161503586D02*
X300990000Y-161407586D01*
X300990000Y-161407586D02*
X301278000Y-161407586D01*
X301278000Y-161407586D02*
X301470000Y-161503586D01*
X301470000Y-161503586D02*
X301566000Y-161695586D01*
X301566000Y-161695586D02*
X301566000Y-162751586D01*
X303390000Y-161407586D02*
X303390000Y-163039586D01*
X303390000Y-163039586D02*
X303294000Y-163231586D01*
X303294000Y-163231586D02*
X303198000Y-163327586D01*
X303198000Y-163327586D02*
X303006000Y-163423586D01*
X303006000Y-163423586D02*
X302718000Y-163423586D01*
X302718000Y-163423586D02*
X302526000Y-163327586D01*
X303390000Y-162655586D02*
X303198000Y-162751586D01*
X303198000Y-162751586D02*
X302814000Y-162751586D01*
X302814000Y-162751586D02*
X302622000Y-162655586D01*
X302622000Y-162655586D02*
X302526000Y-162559586D01*
X302526000Y-162559586D02*
X302430000Y-162367586D01*
X302430000Y-162367586D02*
X302430000Y-161791586D01*
X302430000Y-161791586D02*
X302526000Y-161599586D01*
X302526000Y-161599586D02*
X302622000Y-161503586D01*
X302622000Y-161503586D02*
X302814000Y-161407586D01*
X302814000Y-161407586D02*
X303198000Y-161407586D01*
X303198000Y-161407586D02*
X303390000Y-161503586D01*
X305886000Y-162751586D02*
X305886000Y-160735586D01*
X305886000Y-160735586D02*
X307038000Y-162751586D01*
X307038000Y-162751586D02*
X307038000Y-160735586D01*
X308862000Y-162751586D02*
X308862000Y-161695586D01*
X308862000Y-161695586D02*
X308766000Y-161503586D01*
X308766000Y-161503586D02*
X308574000Y-161407586D01*
X308574000Y-161407586D02*
X308190000Y-161407586D01*
X308190000Y-161407586D02*
X307998000Y-161503586D01*
X308862000Y-162655586D02*
X308670000Y-162751586D01*
X308670000Y-162751586D02*
X308190000Y-162751586D01*
X308190000Y-162751586D02*
X307998000Y-162655586D01*
X307998000Y-162655586D02*
X307902000Y-162463586D01*
X307902000Y-162463586D02*
X307902000Y-162271586D01*
X307902000Y-162271586D02*
X307998000Y-162079586D01*
X307998000Y-162079586D02*
X308190000Y-161983586D01*
X308190000Y-161983586D02*
X308670000Y-161983586D01*
X308670000Y-161983586D02*
X308862000Y-161887586D01*
X309822000Y-161407586D02*
X309822000Y-162751586D01*
X309822000Y-161599586D02*
X309918000Y-161503586D01*
X309918000Y-161503586D02*
X310110000Y-161407586D01*
X310110000Y-161407586D02*
X310398000Y-161407586D01*
X310398000Y-161407586D02*
X310590000Y-161503586D01*
X310590000Y-161503586D02*
X310686000Y-161695586D01*
X310686000Y-161695586D02*
X310686000Y-162751586D01*
X311934000Y-162751586D02*
X311742000Y-162655586D01*
X311742000Y-162655586D02*
X311646000Y-162559586D01*
X311646000Y-162559586D02*
X311550000Y-162367586D01*
X311550000Y-162367586D02*
X311550000Y-161791586D01*
X311550000Y-161791586D02*
X311646000Y-161599586D01*
X311646000Y-161599586D02*
X311742000Y-161503586D01*
X311742000Y-161503586D02*
X311934000Y-161407586D01*
X311934000Y-161407586D02*
X312222000Y-161407586D01*
X312222000Y-161407586D02*
X312414000Y-161503586D01*
X312414000Y-161503586D02*
X312510000Y-161599586D01*
X312510000Y-161599586D02*
X312606000Y-161791586D01*
X312606000Y-161791586D02*
X312606000Y-162367586D01*
X312606000Y-162367586D02*
X312510000Y-162559586D01*
X312510000Y-162559586D02*
X312414000Y-162655586D01*
X312414000Y-162655586D02*
X312222000Y-162751586D01*
X312222000Y-162751586D02*
X311934000Y-162751586D01*
X315102000Y-162751586D02*
X315486000Y-162751586D01*
X315486000Y-162751586D02*
X315678000Y-162655586D01*
X315678000Y-162655586D02*
X315774000Y-162559586D01*
X315774000Y-162559586D02*
X315966000Y-162271586D01*
X315966000Y-162271586D02*
X316062000Y-161887586D01*
X316062000Y-161887586D02*
X316062000Y-161119586D01*
X316062000Y-161119586D02*
X315966000Y-160927586D01*
X315966000Y-160927586D02*
X315870000Y-160831586D01*
X315870000Y-160831586D02*
X315678000Y-160735586D01*
X315678000Y-160735586D02*
X315294000Y-160735586D01*
X315294000Y-160735586D02*
X315102000Y-160831586D01*
X315102000Y-160831586D02*
X315006000Y-160927586D01*
X315006000Y-160927586D02*
X314910000Y-161119586D01*
X314910000Y-161119586D02*
X314910000Y-161599586D01*
X314910000Y-161599586D02*
X315006000Y-161791586D01*
X315006000Y-161791586D02*
X315102000Y-161887586D01*
X315102000Y-161887586D02*
X315294000Y-161983586D01*
X315294000Y-161983586D02*
X315678000Y-161983586D01*
X315678000Y-161983586D02*
X315870000Y-161887586D01*
X315870000Y-161887586D02*
X315966000Y-161791586D01*
X315966000Y-161791586D02*
X316062000Y-161599586D01*
X316926000Y-162751586D02*
X316926000Y-160735586D01*
X317118000Y-161983586D02*
X317694000Y-162751586D01*
X317694000Y-161407586D02*
X316926000Y-162175586D01*
X282510000Y-165421233D02*
X283470000Y-165421233D01*
X282318000Y-165997233D02*
X282990000Y-163981233D01*
X282990000Y-163981233D02*
X283662000Y-165997233D01*
X285198000Y-164653233D02*
X285198000Y-165997233D01*
X284334000Y-164653233D02*
X284334000Y-165709233D01*
X284334000Y-165709233D02*
X284430000Y-165901233D01*
X284430000Y-165901233D02*
X284622000Y-165997233D01*
X284622000Y-165997233D02*
X284910000Y-165997233D01*
X284910000Y-165997233D02*
X285102000Y-165901233D01*
X285102000Y-165901233D02*
X285198000Y-165805233D01*
X287022000Y-165997233D02*
X287022000Y-163981233D01*
X287022000Y-165901233D02*
X286830000Y-165997233D01*
X286830000Y-165997233D02*
X286446000Y-165997233D01*
X286446000Y-165997233D02*
X286254000Y-165901233D01*
X286254000Y-165901233D02*
X286158000Y-165805233D01*
X286158000Y-165805233D02*
X286062000Y-165613233D01*
X286062000Y-165613233D02*
X286062000Y-165037233D01*
X286062000Y-165037233D02*
X286158000Y-164845233D01*
X286158000Y-164845233D02*
X286254000Y-164749233D01*
X286254000Y-164749233D02*
X286446000Y-164653233D01*
X286446000Y-164653233D02*
X286830000Y-164653233D01*
X286830000Y-164653233D02*
X287022000Y-164749233D01*
X287982000Y-165997233D02*
X287982000Y-164653233D01*
X287982000Y-163981233D02*
X287886000Y-164077233D01*
X287886000Y-164077233D02*
X287982000Y-164173233D01*
X287982000Y-164173233D02*
X288078000Y-164077233D01*
X288078000Y-164077233D02*
X287982000Y-163981233D01*
X287982000Y-163981233D02*
X287982000Y-164173233D01*
X289230000Y-165997233D02*
X289038000Y-165901233D01*
X289038000Y-165901233D02*
X288942000Y-165805233D01*
X288942000Y-165805233D02*
X288846000Y-165613233D01*
X288846000Y-165613233D02*
X288846000Y-165037233D01*
X288846000Y-165037233D02*
X288942000Y-164845233D01*
X288942000Y-164845233D02*
X289038000Y-164749233D01*
X289038000Y-164749233D02*
X289230000Y-164653233D01*
X289230000Y-164653233D02*
X289518000Y-164653233D01*
X289518000Y-164653233D02*
X289710000Y-164749233D01*
X289710000Y-164749233D02*
X289806000Y-164845233D01*
X289806000Y-164845233D02*
X289902000Y-165037233D01*
X289902000Y-165037233D02*
X289902000Y-165613233D01*
X289902000Y-165613233D02*
X289806000Y-165805233D01*
X289806000Y-165805233D02*
X289710000Y-165901233D01*
X289710000Y-165901233D02*
X289518000Y-165997233D01*
X289518000Y-165997233D02*
X289230000Y-165997233D01*
X293454000Y-165805233D02*
X293358000Y-165901233D01*
X293358000Y-165901233D02*
X293070000Y-165997233D01*
X293070000Y-165997233D02*
X292878000Y-165997233D01*
X292878000Y-165997233D02*
X292590000Y-165901233D01*
X292590000Y-165901233D02*
X292398000Y-165709233D01*
X292398000Y-165709233D02*
X292302000Y-165517233D01*
X292302000Y-165517233D02*
X292206000Y-165133233D01*
X292206000Y-165133233D02*
X292206000Y-164845233D01*
X292206000Y-164845233D02*
X292302000Y-164461233D01*
X292302000Y-164461233D02*
X292398000Y-164269233D01*
X292398000Y-164269233D02*
X292590000Y-164077233D01*
X292590000Y-164077233D02*
X292878000Y-163981233D01*
X292878000Y-163981233D02*
X293070000Y-163981233D01*
X293070000Y-163981233D02*
X293358000Y-164077233D01*
X293358000Y-164077233D02*
X293454000Y-164173233D01*
X294318000Y-165997233D02*
X294318000Y-164653233D01*
X294318000Y-165037233D02*
X294414000Y-164845233D01*
X294414000Y-164845233D02*
X294510000Y-164749233D01*
X294510000Y-164749233D02*
X294702000Y-164653233D01*
X294702000Y-164653233D02*
X294894000Y-164653233D01*
X296334000Y-165901233D02*
X296142000Y-165997233D01*
X296142000Y-165997233D02*
X295758000Y-165997233D01*
X295758000Y-165997233D02*
X295566000Y-165901233D01*
X295566000Y-165901233D02*
X295470000Y-165709233D01*
X295470000Y-165709233D02*
X295470000Y-164941233D01*
X295470000Y-164941233D02*
X295566000Y-164749233D01*
X295566000Y-164749233D02*
X295758000Y-164653233D01*
X295758000Y-164653233D02*
X296142000Y-164653233D01*
X296142000Y-164653233D02*
X296334000Y-164749233D01*
X296334000Y-164749233D02*
X296430000Y-164941233D01*
X296430000Y-164941233D02*
X296430000Y-165133233D01*
X296430000Y-165133233D02*
X295470000Y-165325233D01*
X298158000Y-165997233D02*
X298158000Y-164941233D01*
X298158000Y-164941233D02*
X298062000Y-164749233D01*
X298062000Y-164749233D02*
X297870000Y-164653233D01*
X297870000Y-164653233D02*
X297486000Y-164653233D01*
X297486000Y-164653233D02*
X297294000Y-164749233D01*
X298158000Y-165901233D02*
X297966000Y-165997233D01*
X297966000Y-165997233D02*
X297486000Y-165997233D01*
X297486000Y-165997233D02*
X297294000Y-165901233D01*
X297294000Y-165901233D02*
X297198000Y-165709233D01*
X297198000Y-165709233D02*
X297198000Y-165517233D01*
X297198000Y-165517233D02*
X297294000Y-165325233D01*
X297294000Y-165325233D02*
X297486000Y-165229233D01*
X297486000Y-165229233D02*
X297966000Y-165229233D01*
X297966000Y-165229233D02*
X298158000Y-165133233D01*
X298830000Y-164653233D02*
X299598000Y-164653233D01*
X299118000Y-163981233D02*
X299118000Y-165709233D01*
X299118000Y-165709233D02*
X299214000Y-165901233D01*
X299214000Y-165901233D02*
X299406000Y-165997233D01*
X299406000Y-165997233D02*
X299598000Y-165997233D01*
X300270000Y-165997233D02*
X300270000Y-164653233D01*
X300270000Y-163981233D02*
X300174000Y-164077233D01*
X300174000Y-164077233D02*
X300270000Y-164173233D01*
X300270000Y-164173233D02*
X300366000Y-164077233D01*
X300366000Y-164077233D02*
X300270000Y-163981233D01*
X300270000Y-163981233D02*
X300270000Y-164173233D01*
X301518000Y-165997233D02*
X301326000Y-165901233D01*
X301326000Y-165901233D02*
X301230000Y-165805233D01*
X301230000Y-165805233D02*
X301134000Y-165613233D01*
X301134000Y-165613233D02*
X301134000Y-165037233D01*
X301134000Y-165037233D02*
X301230000Y-164845233D01*
X301230000Y-164845233D02*
X301326000Y-164749233D01*
X301326000Y-164749233D02*
X301518000Y-164653233D01*
X301518000Y-164653233D02*
X301806000Y-164653233D01*
X301806000Y-164653233D02*
X301998000Y-164749233D01*
X301998000Y-164749233D02*
X302094000Y-164845233D01*
X302094000Y-164845233D02*
X302190000Y-165037233D01*
X302190000Y-165037233D02*
X302190000Y-165613233D01*
X302190000Y-165613233D02*
X302094000Y-165805233D01*
X302094000Y-165805233D02*
X301998000Y-165901233D01*
X301998000Y-165901233D02*
X301806000Y-165997233D01*
X301806000Y-165997233D02*
X301518000Y-165997233D01*
X303054000Y-164653233D02*
X303054000Y-165997233D01*
X303054000Y-164845233D02*
X303150000Y-164749233D01*
X303150000Y-164749233D02*
X303342000Y-164653233D01*
X303342000Y-164653233D02*
X303630000Y-164653233D01*
X303630000Y-164653233D02*
X303822000Y-164749233D01*
X303822000Y-164749233D02*
X303918000Y-164941233D01*
X303918000Y-164941233D02*
X303918000Y-165997233D01*
X306414000Y-165997233D02*
X306414000Y-163981233D01*
X306414000Y-163981233D02*
X307086000Y-165421233D01*
X307086000Y-165421233D02*
X307758000Y-163981233D01*
X307758000Y-163981233D02*
X307758000Y-165997233D01*
X309006000Y-165997233D02*
X308814000Y-165901233D01*
X308814000Y-165901233D02*
X308718000Y-165805233D01*
X308718000Y-165805233D02*
X308622000Y-165613233D01*
X308622000Y-165613233D02*
X308622000Y-165037233D01*
X308622000Y-165037233D02*
X308718000Y-164845233D01*
X308718000Y-164845233D02*
X308814000Y-164749233D01*
X308814000Y-164749233D02*
X309006000Y-164653233D01*
X309006000Y-164653233D02*
X309294000Y-164653233D01*
X309294000Y-164653233D02*
X309486000Y-164749233D01*
X309486000Y-164749233D02*
X309582000Y-164845233D01*
X309582000Y-164845233D02*
X309678000Y-165037233D01*
X309678000Y-165037233D02*
X309678000Y-165613233D01*
X309678000Y-165613233D02*
X309582000Y-165805233D01*
X309582000Y-165805233D02*
X309486000Y-165901233D01*
X309486000Y-165901233D02*
X309294000Y-165997233D01*
X309294000Y-165997233D02*
X309006000Y-165997233D01*
X311406000Y-165997233D02*
X311406000Y-163981233D01*
X311406000Y-165901233D02*
X311214000Y-165997233D01*
X311214000Y-165997233D02*
X310830000Y-165997233D01*
X310830000Y-165997233D02*
X310638000Y-165901233D01*
X310638000Y-165901233D02*
X310542000Y-165805233D01*
X310542000Y-165805233D02*
X310446000Y-165613233D01*
X310446000Y-165613233D02*
X310446000Y-165037233D01*
X310446000Y-165037233D02*
X310542000Y-164845233D01*
X310542000Y-164845233D02*
X310638000Y-164749233D01*
X310638000Y-164749233D02*
X310830000Y-164653233D01*
X310830000Y-164653233D02*
X311214000Y-164653233D01*
X311214000Y-164653233D02*
X311406000Y-164749233D01*
X313230000Y-164653233D02*
X313230000Y-165997233D01*
X312366000Y-164653233D02*
X312366000Y-165709233D01*
X312366000Y-165709233D02*
X312462000Y-165901233D01*
X312462000Y-165901233D02*
X312654000Y-165997233D01*
X312654000Y-165997233D02*
X312942000Y-165997233D01*
X312942000Y-165997233D02*
X313134000Y-165901233D01*
X313134000Y-165901233D02*
X313230000Y-165805233D01*
X314478000Y-165997233D02*
X314286000Y-165901233D01*
X314286000Y-165901233D02*
X314190000Y-165709233D01*
X314190000Y-165709233D02*
X314190000Y-163981233D01*
X316014000Y-165901233D02*
X315822000Y-165997233D01*
X315822000Y-165997233D02*
X315438000Y-165997233D01*
X315438000Y-165997233D02*
X315246000Y-165901233D01*
X315246000Y-165901233D02*
X315150000Y-165709233D01*
X315150000Y-165709233D02*
X315150000Y-164941233D01*
X315150000Y-164941233D02*
X315246000Y-164749233D01*
X315246000Y-164749233D02*
X315438000Y-164653233D01*
X315438000Y-164653233D02*
X315822000Y-164653233D01*
X315822000Y-164653233D02*
X316014000Y-164749233D01*
X316014000Y-164749233D02*
X316110000Y-164941233D01*
X316110000Y-164941233D02*
X316110000Y-165133233D01*
X316110000Y-165133233D02*
X315150000Y-165325233D01*
X296670000Y-168666880D02*
X297630000Y-168666880D01*
X296478000Y-169242880D02*
X297150000Y-167226880D01*
X297150000Y-167226880D02*
X297822000Y-169242880D01*
X299646000Y-169050880D02*
X299550000Y-169146880D01*
X299550000Y-169146880D02*
X299262000Y-169242880D01*
X299262000Y-169242880D02*
X299070000Y-169242880D01*
X299070000Y-169242880D02*
X298782000Y-169146880D01*
X298782000Y-169146880D02*
X298590000Y-168954880D01*
X298590000Y-168954880D02*
X298494000Y-168762880D01*
X298494000Y-168762880D02*
X298398000Y-168378880D01*
X298398000Y-168378880D02*
X298398000Y-168090880D01*
X298398000Y-168090880D02*
X298494000Y-167706880D01*
X298494000Y-167706880D02*
X298590000Y-167514880D01*
X298590000Y-167514880D02*
X298782000Y-167322880D01*
X298782000Y-167322880D02*
X299070000Y-167226880D01*
X299070000Y-167226880D02*
X299262000Y-167226880D01*
X299262000Y-167226880D02*
X299550000Y-167322880D01*
X299550000Y-167322880D02*
X299646000Y-167418880D01*
X300510000Y-169242880D02*
X300510000Y-167226880D01*
X300510000Y-167226880D02*
X301182000Y-168666880D01*
X301182000Y-168666880D02*
X301854000Y-167226880D01*
X301854000Y-167226880D02*
X301854000Y-169242880D01*
D12*
X540477271Y-161804819D02*
X540143938Y-161328628D01*
X539905843Y-161804819D02*
X539905843Y-160804819D01*
X539905843Y-160804819D02*
X540286795Y-160804819D01*
X540286795Y-160804819D02*
X540382033Y-160852438D01*
X540382033Y-160852438D02*
X540429652Y-160900057D01*
X540429652Y-160900057D02*
X540477271Y-160995295D01*
X540477271Y-160995295D02*
X540477271Y-161138152D01*
X540477271Y-161138152D02*
X540429652Y-161233390D01*
X540429652Y-161233390D02*
X540382033Y-161281009D01*
X540382033Y-161281009D02*
X540286795Y-161328628D01*
X540286795Y-161328628D02*
X539905843Y-161328628D01*
X541429652Y-161804819D02*
X540858224Y-161804819D01*
X541143938Y-161804819D02*
X541143938Y-160804819D01*
X541143938Y-160804819D02*
X541048700Y-160947676D01*
X541048700Y-160947676D02*
X540953462Y-161042914D01*
X540953462Y-161042914D02*
X540858224Y-161090533D01*
X541810605Y-160900057D02*
X541858224Y-160852438D01*
X541858224Y-160852438D02*
X541953462Y-160804819D01*
X541953462Y-160804819D02*
X542191557Y-160804819D01*
X542191557Y-160804819D02*
X542286795Y-160852438D01*
X542286795Y-160852438D02*
X542334414Y-160900057D01*
X542334414Y-160900057D02*
X542382033Y-160995295D01*
X542382033Y-160995295D02*
X542382033Y-161090533D01*
X542382033Y-161090533D02*
X542334414Y-161233390D01*
X542334414Y-161233390D02*
X541762986Y-161804819D01*
X541762986Y-161804819D02*
X542382033Y-161804819D01*
X495821905Y-142054819D02*
X495821905Y-141054819D01*
X495821905Y-141054819D02*
X496060000Y-141054819D01*
X496060000Y-141054819D02*
X496202857Y-141102438D01*
X496202857Y-141102438D02*
X496298095Y-141197676D01*
X496298095Y-141197676D02*
X496345714Y-141292914D01*
X496345714Y-141292914D02*
X496393333Y-141483390D01*
X496393333Y-141483390D02*
X496393333Y-141626247D01*
X496393333Y-141626247D02*
X496345714Y-141816723D01*
X496345714Y-141816723D02*
X496298095Y-141911961D01*
X496298095Y-141911961D02*
X496202857Y-142007200D01*
X496202857Y-142007200D02*
X496060000Y-142054819D01*
X496060000Y-142054819D02*
X495821905Y-142054819D01*
X496774286Y-141150057D02*
X496821905Y-141102438D01*
X496821905Y-141102438D02*
X496917143Y-141054819D01*
X496917143Y-141054819D02*
X497155238Y-141054819D01*
X497155238Y-141054819D02*
X497250476Y-141102438D01*
X497250476Y-141102438D02*
X497298095Y-141150057D01*
X497298095Y-141150057D02*
X497345714Y-141245295D01*
X497345714Y-141245295D02*
X497345714Y-141340533D01*
X497345714Y-141340533D02*
X497298095Y-141483390D01*
X497298095Y-141483390D02*
X496726667Y-142054819D01*
X496726667Y-142054819D02*
X497345714Y-142054819D01*
D10*
X495188571Y-143314895D02*
X494731428Y-143314895D01*
X494960000Y-143314895D02*
X494960000Y-142514895D01*
X494960000Y-142514895D02*
X494883809Y-142629180D01*
X494883809Y-142629180D02*
X494807619Y-142705371D01*
X494807619Y-142705371D02*
X494731428Y-142743466D01*
D12*
X495664819Y-153642857D02*
X495188628Y-153976190D01*
X495664819Y-154214285D02*
X494664819Y-154214285D01*
X494664819Y-154214285D02*
X494664819Y-153833333D01*
X494664819Y-153833333D02*
X494712438Y-153738095D01*
X494712438Y-153738095D02*
X494760057Y-153690476D01*
X494760057Y-153690476D02*
X494855295Y-153642857D01*
X494855295Y-153642857D02*
X494998152Y-153642857D01*
X494998152Y-153642857D02*
X495093390Y-153690476D01*
X495093390Y-153690476D02*
X495141009Y-153738095D01*
X495141009Y-153738095D02*
X495188628Y-153833333D01*
X495188628Y-153833333D02*
X495188628Y-154214285D01*
X495664819Y-152690476D02*
X495664819Y-153261904D01*
X495664819Y-152976190D02*
X494664819Y-152976190D01*
X494664819Y-152976190D02*
X494807676Y-153071428D01*
X494807676Y-153071428D02*
X494902914Y-153166666D01*
X494902914Y-153166666D02*
X494950533Y-153261904D01*
X494664819Y-152357142D02*
X494664819Y-151690476D01*
X494664819Y-151690476D02*
X495664819Y-152119047D01*
X494464819Y-152642857D02*
X493988628Y-152976190D01*
X494464819Y-153214285D02*
X493464819Y-153214285D01*
X493464819Y-153214285D02*
X493464819Y-152833333D01*
X493464819Y-152833333D02*
X493512438Y-152738095D01*
X493512438Y-152738095D02*
X493560057Y-152690476D01*
X493560057Y-152690476D02*
X493655295Y-152642857D01*
X493655295Y-152642857D02*
X493798152Y-152642857D01*
X493798152Y-152642857D02*
X493893390Y-152690476D01*
X493893390Y-152690476D02*
X493941009Y-152738095D01*
X493941009Y-152738095D02*
X493988628Y-152833333D01*
X493988628Y-152833333D02*
X493988628Y-153214285D01*
X494464819Y-151690476D02*
X494464819Y-152261904D01*
X494464819Y-151976190D02*
X493464819Y-151976190D01*
X493464819Y-151976190D02*
X493607676Y-152071428D01*
X493607676Y-152071428D02*
X493702914Y-152166666D01*
X493702914Y-152166666D02*
X493750533Y-152261904D01*
X493464819Y-150833333D02*
X493464819Y-151023809D01*
X493464819Y-151023809D02*
X493512438Y-151119047D01*
X493512438Y-151119047D02*
X493560057Y-151166666D01*
X493560057Y-151166666D02*
X493702914Y-151261904D01*
X493702914Y-151261904D02*
X493893390Y-151309523D01*
X493893390Y-151309523D02*
X494274342Y-151309523D01*
X494274342Y-151309523D02*
X494369580Y-151261904D01*
X494369580Y-151261904D02*
X494417200Y-151214285D01*
X494417200Y-151214285D02*
X494464819Y-151119047D01*
X494464819Y-151119047D02*
X494464819Y-150928571D01*
X494464819Y-150928571D02*
X494417200Y-150833333D01*
X494417200Y-150833333D02*
X494369580Y-150785714D01*
X494369580Y-150785714D02*
X494274342Y-150738095D01*
X494274342Y-150738095D02*
X494036247Y-150738095D01*
X494036247Y-150738095D02*
X493941009Y-150785714D01*
X493941009Y-150785714D02*
X493893390Y-150833333D01*
X493893390Y-150833333D02*
X493845771Y-150928571D01*
X493845771Y-150928571D02*
X493845771Y-151119047D01*
X493845771Y-151119047D02*
X493893390Y-151214285D01*
X493893390Y-151214285D02*
X493941009Y-151261904D01*
X493941009Y-151261904D02*
X494036247Y-151309523D01*
X167998333Y-57320866D02*
X167998333Y-58454200D01*
X167998333Y-58454200D02*
X168065000Y-58587533D01*
X168065000Y-58587533D02*
X168131666Y-58654200D01*
X168131666Y-58654200D02*
X168265000Y-58720866D01*
X168265000Y-58720866D02*
X168531666Y-58720866D01*
X168531666Y-58720866D02*
X168665000Y-58654200D01*
X168665000Y-58654200D02*
X168731666Y-58587533D01*
X168731666Y-58587533D02*
X168798333Y-58454200D01*
X168798333Y-58454200D02*
X168798333Y-57320866D01*
X170198333Y-58720866D02*
X169398333Y-58720866D01*
X169798333Y-58720866D02*
X169798333Y-57320866D01*
X169798333Y-57320866D02*
X169665000Y-57520866D01*
X169665000Y-57520866D02*
X169531667Y-57654200D01*
X169531667Y-57654200D02*
X169398333Y-57720866D01*
X527513395Y-178964819D02*
X527513395Y-179774342D01*
X527513395Y-179774342D02*
X527561014Y-179869580D01*
X527561014Y-179869580D02*
X527608633Y-179917200D01*
X527608633Y-179917200D02*
X527703871Y-179964819D01*
X527703871Y-179964819D02*
X527894347Y-179964819D01*
X527894347Y-179964819D02*
X527989585Y-179917200D01*
X527989585Y-179917200D02*
X528037204Y-179869580D01*
X528037204Y-179869580D02*
X528084823Y-179774342D01*
X528084823Y-179774342D02*
X528084823Y-178964819D01*
X528989585Y-178964819D02*
X528799109Y-178964819D01*
X528799109Y-178964819D02*
X528703871Y-179012438D01*
X528703871Y-179012438D02*
X528656252Y-179060057D01*
X528656252Y-179060057D02*
X528561014Y-179202914D01*
X528561014Y-179202914D02*
X528513395Y-179393390D01*
X528513395Y-179393390D02*
X528513395Y-179774342D01*
X528513395Y-179774342D02*
X528561014Y-179869580D01*
X528561014Y-179869580D02*
X528608633Y-179917200D01*
X528608633Y-179917200D02*
X528703871Y-179964819D01*
X528703871Y-179964819D02*
X528894347Y-179964819D01*
X528894347Y-179964819D02*
X528989585Y-179917200D01*
X528989585Y-179917200D02*
X529037204Y-179869580D01*
X529037204Y-179869580D02*
X529084823Y-179774342D01*
X529084823Y-179774342D02*
X529084823Y-179536247D01*
X529084823Y-179536247D02*
X529037204Y-179441009D01*
X529037204Y-179441009D02*
X528989585Y-179393390D01*
X528989585Y-179393390D02*
X528894347Y-179345771D01*
X528894347Y-179345771D02*
X528703871Y-179345771D01*
X528703871Y-179345771D02*
X528608633Y-179393390D01*
X528608633Y-179393390D02*
X528561014Y-179441009D01*
X528561014Y-179441009D02*
X528513395Y-179536247D01*
X320666666Y-88144819D02*
X320666666Y-88859104D01*
X320666666Y-88859104D02*
X320619047Y-89001961D01*
X320619047Y-89001961D02*
X320523809Y-89097200D01*
X320523809Y-89097200D02*
X320380952Y-89144819D01*
X320380952Y-89144819D02*
X320285714Y-89144819D01*
X321190476Y-89144819D02*
X321380952Y-89144819D01*
X321380952Y-89144819D02*
X321476190Y-89097200D01*
X321476190Y-89097200D02*
X321523809Y-89049580D01*
X321523809Y-89049580D02*
X321619047Y-88906723D01*
X321619047Y-88906723D02*
X321666666Y-88716247D01*
X321666666Y-88716247D02*
X321666666Y-88335295D01*
X321666666Y-88335295D02*
X321619047Y-88240057D01*
X321619047Y-88240057D02*
X321571428Y-88192438D01*
X321571428Y-88192438D02*
X321476190Y-88144819D01*
X321476190Y-88144819D02*
X321285714Y-88144819D01*
X321285714Y-88144819D02*
X321190476Y-88192438D01*
X321190476Y-88192438D02*
X321142857Y-88240057D01*
X321142857Y-88240057D02*
X321095238Y-88335295D01*
X321095238Y-88335295D02*
X321095238Y-88573390D01*
X321095238Y-88573390D02*
X321142857Y-88668628D01*
X321142857Y-88668628D02*
X321190476Y-88716247D01*
X321190476Y-88716247D02*
X321285714Y-88763866D01*
X321285714Y-88763866D02*
X321476190Y-88763866D01*
X321476190Y-88763866D02*
X321571428Y-88716247D01*
X321571428Y-88716247D02*
X321619047Y-88668628D01*
X321619047Y-88668628D02*
X321666666Y-88573390D01*
X546077185Y-158804819D02*
X545743852Y-158328628D01*
X545505757Y-158804819D02*
X545505757Y-157804819D01*
X545505757Y-157804819D02*
X545886709Y-157804819D01*
X545886709Y-157804819D02*
X545981947Y-157852438D01*
X545981947Y-157852438D02*
X546029566Y-157900057D01*
X546029566Y-157900057D02*
X546077185Y-157995295D01*
X546077185Y-157995295D02*
X546077185Y-158138152D01*
X546077185Y-158138152D02*
X546029566Y-158233390D01*
X546029566Y-158233390D02*
X545981947Y-158281009D01*
X545981947Y-158281009D02*
X545886709Y-158328628D01*
X545886709Y-158328628D02*
X545505757Y-158328628D01*
X547029566Y-158804819D02*
X546458138Y-158804819D01*
X546743852Y-158804819D02*
X546743852Y-157804819D01*
X546743852Y-157804819D02*
X546648614Y-157947676D01*
X546648614Y-157947676D02*
X546553376Y-158042914D01*
X546553376Y-158042914D02*
X546458138Y-158090533D01*
X547648614Y-157804819D02*
X547743852Y-157804819D01*
X547743852Y-157804819D02*
X547839090Y-157852438D01*
X547839090Y-157852438D02*
X547886709Y-157900057D01*
X547886709Y-157900057D02*
X547934328Y-157995295D01*
X547934328Y-157995295D02*
X547981947Y-158185771D01*
X547981947Y-158185771D02*
X547981947Y-158423866D01*
X547981947Y-158423866D02*
X547934328Y-158614342D01*
X547934328Y-158614342D02*
X547886709Y-158709580D01*
X547886709Y-158709580D02*
X547839090Y-158757200D01*
X547839090Y-158757200D02*
X547743852Y-158804819D01*
X547743852Y-158804819D02*
X547648614Y-158804819D01*
X547648614Y-158804819D02*
X547553376Y-158757200D01*
X547553376Y-158757200D02*
X547505757Y-158709580D01*
X547505757Y-158709580D02*
X547458138Y-158614342D01*
X547458138Y-158614342D02*
X547410519Y-158423866D01*
X547410519Y-158423866D02*
X547410519Y-158185771D01*
X547410519Y-158185771D02*
X547458138Y-157995295D01*
X547458138Y-157995295D02*
X547505757Y-157900057D01*
X547505757Y-157900057D02*
X547553376Y-157852438D01*
X547553376Y-157852438D02*
X547648614Y-157804819D01*
X504321905Y-142054819D02*
X504321905Y-141054819D01*
X504321905Y-141054819D02*
X504560000Y-141054819D01*
X504560000Y-141054819D02*
X504702857Y-141102438D01*
X504702857Y-141102438D02*
X504798095Y-141197676D01*
X504798095Y-141197676D02*
X504845714Y-141292914D01*
X504845714Y-141292914D02*
X504893333Y-141483390D01*
X504893333Y-141483390D02*
X504893333Y-141626247D01*
X504893333Y-141626247D02*
X504845714Y-141816723D01*
X504845714Y-141816723D02*
X504798095Y-141911961D01*
X504798095Y-141911961D02*
X504702857Y-142007200D01*
X504702857Y-142007200D02*
X504560000Y-142054819D01*
X504560000Y-142054819D02*
X504321905Y-142054819D01*
X505750476Y-141388152D02*
X505750476Y-142054819D01*
X505512381Y-141007200D02*
X505274286Y-141721485D01*
X505274286Y-141721485D02*
X505893333Y-141721485D01*
D10*
X503688571Y-143314895D02*
X503231428Y-143314895D01*
X503460000Y-143314895D02*
X503460000Y-142514895D01*
X503460000Y-142514895D02*
X503383809Y-142629180D01*
X503383809Y-142629180D02*
X503307619Y-142705371D01*
X503307619Y-142705371D02*
X503231428Y-142743466D01*
D12*
X288666666Y-88184819D02*
X288666666Y-88899104D01*
X288666666Y-88899104D02*
X288619047Y-89041961D01*
X288619047Y-89041961D02*
X288523809Y-89137200D01*
X288523809Y-89137200D02*
X288380952Y-89184819D01*
X288380952Y-89184819D02*
X288285714Y-89184819D01*
X289666666Y-89184819D02*
X289095238Y-89184819D01*
X289380952Y-89184819D02*
X289380952Y-88184819D01*
X289380952Y-88184819D02*
X289285714Y-88327676D01*
X289285714Y-88327676D02*
X289190476Y-88422914D01*
X289190476Y-88422914D02*
X289095238Y-88470533D01*
X512367056Y-160854819D02*
X512033723Y-160378628D01*
X511795628Y-160854819D02*
X511795628Y-159854819D01*
X511795628Y-159854819D02*
X512176580Y-159854819D01*
X512176580Y-159854819D02*
X512271818Y-159902438D01*
X512271818Y-159902438D02*
X512319437Y-159950057D01*
X512319437Y-159950057D02*
X512367056Y-160045295D01*
X512367056Y-160045295D02*
X512367056Y-160188152D01*
X512367056Y-160188152D02*
X512319437Y-160283390D01*
X512319437Y-160283390D02*
X512271818Y-160331009D01*
X512271818Y-160331009D02*
X512176580Y-160378628D01*
X512176580Y-160378628D02*
X511795628Y-160378628D01*
X513319437Y-160854819D02*
X512748009Y-160854819D01*
X513033723Y-160854819D02*
X513033723Y-159854819D01*
X513033723Y-159854819D02*
X512938485Y-159997676D01*
X512938485Y-159997676D02*
X512843247Y-160092914D01*
X512843247Y-160092914D02*
X512748009Y-160140533D01*
X513890866Y-160283390D02*
X513795628Y-160235771D01*
X513795628Y-160235771D02*
X513748009Y-160188152D01*
X513748009Y-160188152D02*
X513700390Y-160092914D01*
X513700390Y-160092914D02*
X513700390Y-160045295D01*
X513700390Y-160045295D02*
X513748009Y-159950057D01*
X513748009Y-159950057D02*
X513795628Y-159902438D01*
X513795628Y-159902438D02*
X513890866Y-159854819D01*
X513890866Y-159854819D02*
X514081342Y-159854819D01*
X514081342Y-159854819D02*
X514176580Y-159902438D01*
X514176580Y-159902438D02*
X514224199Y-159950057D01*
X514224199Y-159950057D02*
X514271818Y-160045295D01*
X514271818Y-160045295D02*
X514271818Y-160092914D01*
X514271818Y-160092914D02*
X514224199Y-160188152D01*
X514224199Y-160188152D02*
X514176580Y-160235771D01*
X514176580Y-160235771D02*
X514081342Y-160283390D01*
X514081342Y-160283390D02*
X513890866Y-160283390D01*
X513890866Y-160283390D02*
X513795628Y-160331009D01*
X513795628Y-160331009D02*
X513748009Y-160378628D01*
X513748009Y-160378628D02*
X513700390Y-160473866D01*
X513700390Y-160473866D02*
X513700390Y-160664342D01*
X513700390Y-160664342D02*
X513748009Y-160759580D01*
X513748009Y-160759580D02*
X513795628Y-160807200D01*
X513795628Y-160807200D02*
X513890866Y-160854819D01*
X513890866Y-160854819D02*
X514081342Y-160854819D01*
X514081342Y-160854819D02*
X514176580Y-160807200D01*
X514176580Y-160807200D02*
X514224199Y-160759580D01*
X514224199Y-160759580D02*
X514271818Y-160664342D01*
X514271818Y-160664342D02*
X514271818Y-160473866D01*
X514271818Y-160473866D02*
X514224199Y-160378628D01*
X514224199Y-160378628D02*
X514176580Y-160331009D01*
X514176580Y-160331009D02*
X514081342Y-160283390D01*
X279666666Y-88184819D02*
X279666666Y-88899104D01*
X279666666Y-88899104D02*
X279619047Y-89041961D01*
X279619047Y-89041961D02*
X279523809Y-89137200D01*
X279523809Y-89137200D02*
X279380952Y-89184819D01*
X279380952Y-89184819D02*
X279285714Y-89184819D01*
X280285714Y-88613390D02*
X280190476Y-88565771D01*
X280190476Y-88565771D02*
X280142857Y-88518152D01*
X280142857Y-88518152D02*
X280095238Y-88422914D01*
X280095238Y-88422914D02*
X280095238Y-88375295D01*
X280095238Y-88375295D02*
X280142857Y-88280057D01*
X280142857Y-88280057D02*
X280190476Y-88232438D01*
X280190476Y-88232438D02*
X280285714Y-88184819D01*
X280285714Y-88184819D02*
X280476190Y-88184819D01*
X280476190Y-88184819D02*
X280571428Y-88232438D01*
X280571428Y-88232438D02*
X280619047Y-88280057D01*
X280619047Y-88280057D02*
X280666666Y-88375295D01*
X280666666Y-88375295D02*
X280666666Y-88422914D01*
X280666666Y-88422914D02*
X280619047Y-88518152D01*
X280619047Y-88518152D02*
X280571428Y-88565771D01*
X280571428Y-88565771D02*
X280476190Y-88613390D01*
X280476190Y-88613390D02*
X280285714Y-88613390D01*
X280285714Y-88613390D02*
X280190476Y-88661009D01*
X280190476Y-88661009D02*
X280142857Y-88708628D01*
X280142857Y-88708628D02*
X280095238Y-88803866D01*
X280095238Y-88803866D02*
X280095238Y-88994342D01*
X280095238Y-88994342D02*
X280142857Y-89089580D01*
X280142857Y-89089580D02*
X280190476Y-89137200D01*
X280190476Y-89137200D02*
X280285714Y-89184819D01*
X280285714Y-89184819D02*
X280476190Y-89184819D01*
X280476190Y-89184819D02*
X280571428Y-89137200D01*
X280571428Y-89137200D02*
X280619047Y-89089580D01*
X280619047Y-89089580D02*
X280666666Y-88994342D01*
X280666666Y-88994342D02*
X280666666Y-88803866D01*
X280666666Y-88803866D02*
X280619047Y-88708628D01*
X280619047Y-88708628D02*
X280571428Y-88661009D01*
X280571428Y-88661009D02*
X280476190Y-88613390D01*
X515167013Y-152004819D02*
X514833680Y-151528628D01*
X514595585Y-152004819D02*
X514595585Y-151004819D01*
X514595585Y-151004819D02*
X514976537Y-151004819D01*
X514976537Y-151004819D02*
X515071775Y-151052438D01*
X515071775Y-151052438D02*
X515119394Y-151100057D01*
X515119394Y-151100057D02*
X515167013Y-151195295D01*
X515167013Y-151195295D02*
X515167013Y-151338152D01*
X515167013Y-151338152D02*
X515119394Y-151433390D01*
X515119394Y-151433390D02*
X515071775Y-151481009D01*
X515071775Y-151481009D02*
X514976537Y-151528628D01*
X514976537Y-151528628D02*
X514595585Y-151528628D01*
X516119394Y-152004819D02*
X515547966Y-152004819D01*
X515833680Y-152004819D02*
X515833680Y-151004819D01*
X515833680Y-151004819D02*
X515738442Y-151147676D01*
X515738442Y-151147676D02*
X515643204Y-151242914D01*
X515643204Y-151242914D02*
X515547966Y-151290533D01*
X517024156Y-151004819D02*
X516547966Y-151004819D01*
X516547966Y-151004819D02*
X516500347Y-151481009D01*
X516500347Y-151481009D02*
X516547966Y-151433390D01*
X516547966Y-151433390D02*
X516643204Y-151385771D01*
X516643204Y-151385771D02*
X516881299Y-151385771D01*
X516881299Y-151385771D02*
X516976537Y-151433390D01*
X516976537Y-151433390D02*
X517024156Y-151481009D01*
X517024156Y-151481009D02*
X517071775Y-151576247D01*
X517071775Y-151576247D02*
X517071775Y-151814342D01*
X517071775Y-151814342D02*
X517024156Y-151909580D01*
X517024156Y-151909580D02*
X516976537Y-151957200D01*
X516976537Y-151957200D02*
X516881299Y-152004819D01*
X516881299Y-152004819D02*
X516643204Y-152004819D01*
X516643204Y-152004819D02*
X516547966Y-151957200D01*
X516547966Y-151957200D02*
X516500347Y-151909580D01*
X500066991Y-142054819D02*
X500066991Y-141054819D01*
X500066991Y-141054819D02*
X500305086Y-141054819D01*
X500305086Y-141054819D02*
X500447943Y-141102438D01*
X500447943Y-141102438D02*
X500543181Y-141197676D01*
X500543181Y-141197676D02*
X500590800Y-141292914D01*
X500590800Y-141292914D02*
X500638419Y-141483390D01*
X500638419Y-141483390D02*
X500638419Y-141626247D01*
X500638419Y-141626247D02*
X500590800Y-141816723D01*
X500590800Y-141816723D02*
X500543181Y-141911961D01*
X500543181Y-141911961D02*
X500447943Y-142007200D01*
X500447943Y-142007200D02*
X500305086Y-142054819D01*
X500305086Y-142054819D02*
X500066991Y-142054819D01*
X500971753Y-141054819D02*
X501590800Y-141054819D01*
X501590800Y-141054819D02*
X501257467Y-141435771D01*
X501257467Y-141435771D02*
X501400324Y-141435771D01*
X501400324Y-141435771D02*
X501495562Y-141483390D01*
X501495562Y-141483390D02*
X501543181Y-141531009D01*
X501543181Y-141531009D02*
X501590800Y-141626247D01*
X501590800Y-141626247D02*
X501590800Y-141864342D01*
X501590800Y-141864342D02*
X501543181Y-141959580D01*
X501543181Y-141959580D02*
X501495562Y-142007200D01*
X501495562Y-142007200D02*
X501400324Y-142054819D01*
X501400324Y-142054819D02*
X501114610Y-142054819D01*
X501114610Y-142054819D02*
X501019372Y-142007200D01*
X501019372Y-142007200D02*
X500971753Y-141959580D01*
D10*
X499433657Y-143314895D02*
X498976514Y-143314895D01*
X499205086Y-143314895D02*
X499205086Y-142514895D01*
X499205086Y-142514895D02*
X499128895Y-142629180D01*
X499128895Y-142629180D02*
X499052705Y-142705371D01*
X499052705Y-142705371D02*
X498976514Y-142743466D01*
D12*
X311666666Y-88184819D02*
X311666666Y-88899104D01*
X311666666Y-88899104D02*
X311619047Y-89041961D01*
X311619047Y-89041961D02*
X311523809Y-89137200D01*
X311523809Y-89137200D02*
X311380952Y-89184819D01*
X311380952Y-89184819D02*
X311285714Y-89184819D01*
X312095238Y-88280057D02*
X312142857Y-88232438D01*
X312142857Y-88232438D02*
X312238095Y-88184819D01*
X312238095Y-88184819D02*
X312476190Y-88184819D01*
X312476190Y-88184819D02*
X312571428Y-88232438D01*
X312571428Y-88232438D02*
X312619047Y-88280057D01*
X312619047Y-88280057D02*
X312666666Y-88375295D01*
X312666666Y-88375295D02*
X312666666Y-88470533D01*
X312666666Y-88470533D02*
X312619047Y-88613390D01*
X312619047Y-88613390D02*
X312047619Y-89184819D01*
X312047619Y-89184819D02*
X312666666Y-89184819D01*
X490523095Y-53329819D02*
X490523095Y-54139342D01*
X490523095Y-54139342D02*
X490570714Y-54234580D01*
X490570714Y-54234580D02*
X490618333Y-54282200D01*
X490618333Y-54282200D02*
X490713571Y-54329819D01*
X490713571Y-54329819D02*
X490904047Y-54329819D01*
X490904047Y-54329819D02*
X490999285Y-54282200D01*
X490999285Y-54282200D02*
X491046904Y-54234580D01*
X491046904Y-54234580D02*
X491094523Y-54139342D01*
X491094523Y-54139342D02*
X491094523Y-53329819D01*
X491618333Y-54329819D02*
X491808809Y-54329819D01*
X491808809Y-54329819D02*
X491904047Y-54282200D01*
X491904047Y-54282200D02*
X491951666Y-54234580D01*
X491951666Y-54234580D02*
X492046904Y-54091723D01*
X492046904Y-54091723D02*
X492094523Y-53901247D01*
X492094523Y-53901247D02*
X492094523Y-53520295D01*
X492094523Y-53520295D02*
X492046904Y-53425057D01*
X492046904Y-53425057D02*
X491999285Y-53377438D01*
X491999285Y-53377438D02*
X491904047Y-53329819D01*
X491904047Y-53329819D02*
X491713571Y-53329819D01*
X491713571Y-53329819D02*
X491618333Y-53377438D01*
X491618333Y-53377438D02*
X491570714Y-53425057D01*
X491570714Y-53425057D02*
X491523095Y-53520295D01*
X491523095Y-53520295D02*
X491523095Y-53758390D01*
X491523095Y-53758390D02*
X491570714Y-53853628D01*
X491570714Y-53853628D02*
X491618333Y-53901247D01*
X491618333Y-53901247D02*
X491713571Y-53948866D01*
X491713571Y-53948866D02*
X491904047Y-53948866D01*
X491904047Y-53948866D02*
X491999285Y-53901247D01*
X491999285Y-53901247D02*
X492046904Y-53853628D01*
X492046904Y-53853628D02*
X492094523Y-53758390D01*
X37194819Y-67641904D02*
X38004342Y-67641904D01*
X38004342Y-67641904D02*
X38099580Y-67594285D01*
X38099580Y-67594285D02*
X38147200Y-67546666D01*
X38147200Y-67546666D02*
X38194819Y-67451428D01*
X38194819Y-67451428D02*
X38194819Y-67260952D01*
X38194819Y-67260952D02*
X38147200Y-67165714D01*
X38147200Y-67165714D02*
X38099580Y-67118095D01*
X38099580Y-67118095D02*
X38004342Y-67070476D01*
X38004342Y-67070476D02*
X37194819Y-67070476D01*
X37528152Y-66165714D02*
X38194819Y-66165714D01*
X37147200Y-66403809D02*
X37861485Y-66641904D01*
X37861485Y-66641904D02*
X37861485Y-66022857D01*
X42163095Y-97609819D02*
X42163095Y-98419342D01*
X42163095Y-98419342D02*
X42210714Y-98514580D01*
X42210714Y-98514580D02*
X42258333Y-98562200D01*
X42258333Y-98562200D02*
X42353571Y-98609819D01*
X42353571Y-98609819D02*
X42544047Y-98609819D01*
X42544047Y-98609819D02*
X42639285Y-98562200D01*
X42639285Y-98562200D02*
X42686904Y-98514580D01*
X42686904Y-98514580D02*
X42734523Y-98419342D01*
X42734523Y-98419342D02*
X42734523Y-97609819D01*
X43115476Y-97609819D02*
X43734523Y-97609819D01*
X43734523Y-97609819D02*
X43401190Y-97990771D01*
X43401190Y-97990771D02*
X43544047Y-97990771D01*
X43544047Y-97990771D02*
X43639285Y-98038390D01*
X43639285Y-98038390D02*
X43686904Y-98086009D01*
X43686904Y-98086009D02*
X43734523Y-98181247D01*
X43734523Y-98181247D02*
X43734523Y-98419342D01*
X43734523Y-98419342D02*
X43686904Y-98514580D01*
X43686904Y-98514580D02*
X43639285Y-98562200D01*
X43639285Y-98562200D02*
X43544047Y-98609819D01*
X43544047Y-98609819D02*
X43258333Y-98609819D01*
X43258333Y-98609819D02*
X43163095Y-98562200D01*
X43163095Y-98562200D02*
X43115476Y-98514580D01*
X491621905Y-141954819D02*
X491621905Y-140954819D01*
X491621905Y-140954819D02*
X491860000Y-140954819D01*
X491860000Y-140954819D02*
X492002857Y-141002438D01*
X492002857Y-141002438D02*
X492098095Y-141097676D01*
X492098095Y-141097676D02*
X492145714Y-141192914D01*
X492145714Y-141192914D02*
X492193333Y-141383390D01*
X492193333Y-141383390D02*
X492193333Y-141526247D01*
X492193333Y-141526247D02*
X492145714Y-141716723D01*
X492145714Y-141716723D02*
X492098095Y-141811961D01*
X492098095Y-141811961D02*
X492002857Y-141907200D01*
X492002857Y-141907200D02*
X491860000Y-141954819D01*
X491860000Y-141954819D02*
X491621905Y-141954819D01*
X493145714Y-141954819D02*
X492574286Y-141954819D01*
X492860000Y-141954819D02*
X492860000Y-140954819D01*
X492860000Y-140954819D02*
X492764762Y-141097676D01*
X492764762Y-141097676D02*
X492669524Y-141192914D01*
X492669524Y-141192914D02*
X492574286Y-141240533D01*
D10*
X490988571Y-143214895D02*
X490531428Y-143214895D01*
X490760000Y-143214895D02*
X490760000Y-142414895D01*
X490760000Y-142414895D02*
X490683809Y-142529180D01*
X490683809Y-142529180D02*
X490607619Y-142605371D01*
X490607619Y-142605371D02*
X490531428Y-142643466D01*
D12*
X553795388Y-171166307D02*
X553795388Y-172496017D01*
X553795388Y-172496017D02*
X553873606Y-172652453D01*
X553873606Y-172652453D02*
X553951824Y-172730672D01*
X553951824Y-172730672D02*
X554108261Y-172808890D01*
X554108261Y-172808890D02*
X554421134Y-172808890D01*
X554421134Y-172808890D02*
X554577570Y-172730672D01*
X554577570Y-172730672D02*
X554655788Y-172652453D01*
X554655788Y-172652453D02*
X554734007Y-172496017D01*
X554734007Y-172496017D02*
X554734007Y-171166307D01*
X556298371Y-171166307D02*
X555516189Y-171166307D01*
X555516189Y-171166307D02*
X555437970Y-171948489D01*
X555437970Y-171948489D02*
X555516189Y-171870271D01*
X555516189Y-171870271D02*
X555672625Y-171792053D01*
X555672625Y-171792053D02*
X556063716Y-171792053D01*
X556063716Y-171792053D02*
X556220153Y-171870271D01*
X556220153Y-171870271D02*
X556298371Y-171948489D01*
X556298371Y-171948489D02*
X556376589Y-172104926D01*
X556376589Y-172104926D02*
X556376589Y-172496017D01*
X556376589Y-172496017D02*
X556298371Y-172652453D01*
X556298371Y-172652453D02*
X556220153Y-172730672D01*
X556220153Y-172730672D02*
X556063716Y-172808890D01*
X556063716Y-172808890D02*
X555672625Y-172808890D01*
X555672625Y-172808890D02*
X555516189Y-172730672D01*
X555516189Y-172730672D02*
X555437970Y-172652453D01*
X519523017Y-156255907D02*
X519523017Y-157585617D01*
X519523017Y-157585617D02*
X519601235Y-157742053D01*
X519601235Y-157742053D02*
X519679453Y-157820272D01*
X519679453Y-157820272D02*
X519835890Y-157898490D01*
X519835890Y-157898490D02*
X520148763Y-157898490D01*
X520148763Y-157898490D02*
X520305199Y-157820272D01*
X520305199Y-157820272D02*
X520383417Y-157742053D01*
X520383417Y-157742053D02*
X520461636Y-157585617D01*
X520461636Y-157585617D02*
X520461636Y-156255907D01*
X521478472Y-156959871D02*
X521322036Y-156881653D01*
X521322036Y-156881653D02*
X521243818Y-156803434D01*
X521243818Y-156803434D02*
X521165599Y-156646998D01*
X521165599Y-156646998D02*
X521165599Y-156568780D01*
X521165599Y-156568780D02*
X521243818Y-156412343D01*
X521243818Y-156412343D02*
X521322036Y-156334125D01*
X521322036Y-156334125D02*
X521478472Y-156255907D01*
X521478472Y-156255907D02*
X521791345Y-156255907D01*
X521791345Y-156255907D02*
X521947782Y-156334125D01*
X521947782Y-156334125D02*
X522026000Y-156412343D01*
X522026000Y-156412343D02*
X522104218Y-156568780D01*
X522104218Y-156568780D02*
X522104218Y-156646998D01*
X522104218Y-156646998D02*
X522026000Y-156803434D01*
X522026000Y-156803434D02*
X521947782Y-156881653D01*
X521947782Y-156881653D02*
X521791345Y-156959871D01*
X521791345Y-156959871D02*
X521478472Y-156959871D01*
X521478472Y-156959871D02*
X521322036Y-157038089D01*
X521322036Y-157038089D02*
X521243818Y-157116307D01*
X521243818Y-157116307D02*
X521165599Y-157272744D01*
X521165599Y-157272744D02*
X521165599Y-157585617D01*
X521165599Y-157585617D02*
X521243818Y-157742053D01*
X521243818Y-157742053D02*
X521322036Y-157820272D01*
X521322036Y-157820272D02*
X521478472Y-157898490D01*
X521478472Y-157898490D02*
X521791345Y-157898490D01*
X521791345Y-157898490D02*
X521947782Y-157820272D01*
X521947782Y-157820272D02*
X522026000Y-157742053D01*
X522026000Y-157742053D02*
X522104218Y-157585617D01*
X522104218Y-157585617D02*
X522104218Y-157272744D01*
X522104218Y-157272744D02*
X522026000Y-157116307D01*
X522026000Y-157116307D02*
X521947782Y-157038089D01*
X521947782Y-157038089D02*
X521791345Y-156959871D01*
X368498333Y-57620866D02*
X368498333Y-58754200D01*
X368498333Y-58754200D02*
X368565000Y-58887533D01*
X368565000Y-58887533D02*
X368631666Y-58954200D01*
X368631666Y-58954200D02*
X368765000Y-59020866D01*
X368765000Y-59020866D02*
X369031666Y-59020866D01*
X369031666Y-59020866D02*
X369165000Y-58954200D01*
X369165000Y-58954200D02*
X369231666Y-58887533D01*
X369231666Y-58887533D02*
X369298333Y-58754200D01*
X369298333Y-58754200D02*
X369298333Y-57620866D01*
X369898333Y-57754200D02*
X369965000Y-57687533D01*
X369965000Y-57687533D02*
X370098333Y-57620866D01*
X370098333Y-57620866D02*
X370431667Y-57620866D01*
X370431667Y-57620866D02*
X370565000Y-57687533D01*
X370565000Y-57687533D02*
X370631667Y-57754200D01*
X370631667Y-57754200D02*
X370698333Y-57887533D01*
X370698333Y-57887533D02*
X370698333Y-58020866D01*
X370698333Y-58020866D02*
X370631667Y-58220866D01*
X370631667Y-58220866D02*
X369831667Y-59020866D01*
X369831667Y-59020866D02*
X370698333Y-59020866D01*
X543277228Y-169804819D02*
X542943895Y-169328628D01*
X542705800Y-169804819D02*
X542705800Y-168804819D01*
X542705800Y-168804819D02*
X543086752Y-168804819D01*
X543086752Y-168804819D02*
X543181990Y-168852438D01*
X543181990Y-168852438D02*
X543229609Y-168900057D01*
X543229609Y-168900057D02*
X543277228Y-168995295D01*
X543277228Y-168995295D02*
X543277228Y-169138152D01*
X543277228Y-169138152D02*
X543229609Y-169233390D01*
X543229609Y-169233390D02*
X543181990Y-169281009D01*
X543181990Y-169281009D02*
X543086752Y-169328628D01*
X543086752Y-169328628D02*
X542705800Y-169328628D01*
X544229609Y-169804819D02*
X543658181Y-169804819D01*
X543943895Y-169804819D02*
X543943895Y-168804819D01*
X543943895Y-168804819D02*
X543848657Y-168947676D01*
X543848657Y-168947676D02*
X543753419Y-169042914D01*
X543753419Y-169042914D02*
X543658181Y-169090533D01*
X545181990Y-169804819D02*
X544610562Y-169804819D01*
X544896276Y-169804819D02*
X544896276Y-168804819D01*
X544896276Y-168804819D02*
X544801038Y-168947676D01*
X544801038Y-168947676D02*
X544705800Y-169042914D01*
X544705800Y-169042914D02*
X544610562Y-169090533D01*
X543763095Y-187649819D02*
X543763095Y-188459342D01*
X543763095Y-188459342D02*
X543810714Y-188554580D01*
X543810714Y-188554580D02*
X543858333Y-188602200D01*
X543858333Y-188602200D02*
X543953571Y-188649819D01*
X543953571Y-188649819D02*
X544144047Y-188649819D01*
X544144047Y-188649819D02*
X544239285Y-188602200D01*
X544239285Y-188602200D02*
X544286904Y-188554580D01*
X544286904Y-188554580D02*
X544334523Y-188459342D01*
X544334523Y-188459342D02*
X544334523Y-187649819D01*
X544715476Y-187649819D02*
X545382142Y-187649819D01*
X545382142Y-187649819D02*
X544953571Y-188649819D01*
D13*
%TO.C,R12*%
X540893065Y-162265000D02*
X541347193Y-162265000D01*
X540893065Y-163735000D02*
X541347193Y-163735000D01*
D10*
%TO.C,D2*%
X495240000Y-146700000D02*
X495240000Y-143500000D01*
X497880000Y-143500000D02*
X497880000Y-146700000D01*
D13*
X496800000Y-147530000D02*
X496320000Y-147530000D01*
X496560000Y-147200000D01*
X496800000Y-147530000D01*
G36*
X496800000Y-147530000D02*
G01*
X496320000Y-147530000D01*
X496560000Y-147200000D01*
X496800000Y-147530000D01*
G37*
%TO.C,R17*%
X496125000Y-153227064D02*
X496125000Y-152772936D01*
X497595000Y-153227064D02*
X497595000Y-152772936D01*
%TO.C,R16*%
X491625000Y-151772936D02*
X491625000Y-152227064D01*
X493095000Y-151772936D02*
X493095000Y-152227064D01*
D14*
%TO.C,U1*%
X164870000Y-61800000D02*
X164870000Y-191140000D01*
X166870000Y-193140000D02*
X232870000Y-193140000D01*
X232870000Y-59800000D02*
X166870000Y-59800000D01*
X234870000Y-191140000D02*
X234870000Y-61800000D01*
X164870000Y-61800000D02*
G75*
G02*
X166870000Y-59800000I1999999J1D01*
G01*
X166870000Y-193140000D02*
G75*
G02*
X164870000Y-191140000I-1J1999999D01*
G01*
X232870000Y-59800000D02*
G75*
G02*
X234870000Y-61800000I0J-2000000D01*
G01*
X234870000Y-191140000D02*
G75*
G02*
X232870000Y-193140000I-2000000J0D01*
G01*
D11*
X163930000Y-91540000D02*
G75*
G02*
X163730000Y-91540000I-100000J0D01*
G01*
X163730000Y-91540000D02*
G75*
G02*
X163930000Y-91540000I100000J0D01*
G01*
D10*
%TO.C,U6*%
X526910300Y-183325000D02*
X526910300Y-183175000D01*
X526910300Y-183335000D02*
X527060300Y-183335000D01*
X529460300Y-180625000D02*
X529610300Y-180625000D01*
X529610300Y-180625000D02*
X529610300Y-180775000D01*
X529610300Y-183325000D02*
X529460300Y-183325000D01*
X529610300Y-183325000D02*
X529610300Y-183175000D01*
D13*
X526910300Y-180625000D02*
X526550300Y-180625000D01*
X526910300Y-180265000D01*
X526910300Y-180625000D01*
G36*
X526910300Y-180625000D02*
G01*
X526550300Y-180625000D01*
X526910300Y-180265000D01*
X526910300Y-180625000D01*
G37*
%TO.C,J9*%
X319670000Y-92730000D02*
X319670000Y-151210000D01*
X319670000Y-92730000D02*
X322330000Y-92730000D01*
X319670000Y-151210000D02*
X322330000Y-151210000D01*
X321000000Y-90130000D02*
X322330000Y-90130000D01*
X322330000Y-90130000D02*
X322330000Y-91460000D01*
X322330000Y-92730000D02*
X322330000Y-151210000D01*
%TO.C,R10*%
X546492979Y-159265000D02*
X546947107Y-159265000D01*
X546492979Y-160735000D02*
X546947107Y-160735000D01*
D10*
%TO.C,D4*%
X503740000Y-146700000D02*
X503740000Y-143500000D01*
X506380000Y-143500000D02*
X506380000Y-146700000D01*
D13*
X505300000Y-147530000D02*
X504820000Y-147530000D01*
X505060000Y-147200000D01*
X505300000Y-147530000D01*
G36*
X505300000Y-147530000D02*
G01*
X504820000Y-147530000D01*
X505060000Y-147200000D01*
X505300000Y-147530000D01*
G37*
%TO.C,J1*%
X287670000Y-92770000D02*
X287670000Y-151250000D01*
X287670000Y-92770000D02*
X290330000Y-92770000D01*
X287670000Y-151250000D02*
X290330000Y-151250000D01*
X289000000Y-90170000D02*
X290330000Y-90170000D01*
X290330000Y-90170000D02*
X290330000Y-91500000D01*
X290330000Y-92770000D02*
X290330000Y-151250000D01*
%TO.C,R18*%
X512782850Y-161315000D02*
X513236978Y-161315000D01*
X512782850Y-162785000D02*
X513236978Y-162785000D01*
%TO.C,J8*%
X278670000Y-92770000D02*
X278670000Y-151250000D01*
X278670000Y-92770000D02*
X281330000Y-92770000D01*
X278670000Y-151250000D02*
X281330000Y-151250000D01*
X280000000Y-90170000D02*
X281330000Y-90170000D01*
X281330000Y-90170000D02*
X281330000Y-91500000D01*
X281330000Y-92770000D02*
X281330000Y-151250000D01*
%TO.C,R15*%
X515582807Y-152465000D02*
X516036935Y-152465000D01*
X515582807Y-153935000D02*
X516036935Y-153935000D01*
D10*
%TO.C,D3*%
X499485086Y-146700000D02*
X499485086Y-143500000D01*
X502125086Y-143500000D02*
X502125086Y-146700000D01*
D13*
X501045086Y-147530000D02*
X500565086Y-147530000D01*
X500805086Y-147200000D01*
X501045086Y-147530000D01*
G36*
X501045086Y-147530000D02*
G01*
X500565086Y-147530000D01*
X500805086Y-147200000D01*
X501045086Y-147530000D01*
G37*
%TO.C,J2*%
X310670000Y-92770000D02*
X310670000Y-151250000D01*
X310670000Y-92770000D02*
X313330000Y-92770000D01*
X310670000Y-151250000D02*
X313330000Y-151250000D01*
X312000000Y-90170000D02*
X313330000Y-90170000D01*
X313330000Y-90170000D02*
X313330000Y-91500000D01*
X313330000Y-92770000D02*
X313330000Y-151250000D01*
D14*
%TO.C,U9*%
X488110000Y-134260000D02*
X488110000Y-56760000D01*
X489610000Y-55260000D02*
X556610000Y-55260000D01*
X490130000Y-85730000D02*
X490130000Y-133990000D01*
X490130000Y-133990000D02*
X495130000Y-133990000D01*
X495130000Y-85730000D02*
X490130000Y-85730000D01*
X495130000Y-133990000D02*
X495130000Y-85730000D01*
X497730000Y-95640000D02*
X497730000Y-116460000D01*
X497730000Y-116460000D02*
X500230000Y-116460000D01*
X497730000Y-118500000D02*
X497730000Y-134240000D01*
X497730000Y-134240000D02*
X500230000Y-134240000D01*
X499110000Y-135760000D02*
X489610000Y-135760000D01*
X500230000Y-95640000D02*
X497730000Y-95640000D01*
X500230000Y-116460000D02*
X500230000Y-95640000D01*
X500230000Y-118500000D02*
X497730000Y-118500000D01*
X500230000Y-134240000D02*
X500230000Y-118500000D01*
X501110000Y-137760000D02*
X499110000Y-135760000D01*
X534110000Y-137760000D02*
X501110000Y-137760000D01*
X536110000Y-135760000D02*
X534110000Y-137760000D01*
X545990000Y-86500000D02*
X545990000Y-112400000D01*
X545990000Y-112400000D02*
X548490000Y-112400000D01*
X545990000Y-113420000D02*
X545990000Y-134240000D01*
X545990000Y-134240000D02*
X548490000Y-134240000D01*
X548490000Y-86500000D02*
X545990000Y-86500000D01*
X548490000Y-112400000D02*
X548490000Y-86500000D01*
X548490000Y-113420000D02*
X545990000Y-113420000D01*
X548490000Y-134240000D02*
X548490000Y-113420000D01*
X551090000Y-85730000D02*
X551090000Y-133990000D01*
X551090000Y-133990000D02*
X556090000Y-133990000D01*
X556090000Y-85730000D02*
X551090000Y-85730000D01*
X556090000Y-133990000D02*
X556090000Y-85730000D01*
X556610000Y-135760000D02*
X536110000Y-135760000D01*
X558110000Y-56760000D02*
X558110000Y-134260000D01*
X488110000Y-56760000D02*
G75*
G02*
X489610000Y-55260000I1500001J-1D01*
G01*
X489610000Y-135760000D02*
G75*
G02*
X488110000Y-134260000I1J1500001D01*
G01*
X556610000Y-55260000D02*
G75*
G02*
X558110000Y-56760000I0J-1500000D01*
G01*
X558110000Y-134260000D02*
G75*
G02*
X556610000Y-135760000I-1500000J0D01*
G01*
D11*
X489710000Y-87000000D02*
G75*
G02*
X489510000Y-87000000I-100000J0D01*
G01*
X489510000Y-87000000D02*
G75*
G02*
X489710000Y-87000000I100000J0D01*
G01*
X497330000Y-97160000D02*
G75*
G02*
X497130000Y-97160000I-100000J0D01*
G01*
X497130000Y-97160000D02*
G75*
G02*
X497330000Y-97160000I100000J0D01*
G01*
X497330000Y-120020000D02*
G75*
G02*
X497130000Y-120020000I-100000J0D01*
G01*
X497130000Y-120020000D02*
G75*
G02*
X497330000Y-120020000I100000J0D01*
G01*
X549090000Y-110880000D02*
G75*
G02*
X548890000Y-110880000I-100000J0D01*
G01*
X548890000Y-110880000D02*
G75*
G02*
X549090000Y-110880000I100000J0D01*
G01*
X549090000Y-132720000D02*
G75*
G02*
X548890000Y-132720000I-100000J0D01*
G01*
X548890000Y-132720000D02*
G75*
G02*
X549090000Y-132720000I100000J0D01*
G01*
X550670000Y-87000000D02*
G75*
G02*
X550470000Y-87000000I-100000J0D01*
G01*
X550470000Y-87000000D02*
G75*
G02*
X550670000Y-87000000I100000J0D01*
G01*
D13*
%TO.C,U4*%
X39105000Y-55505000D02*
X92255000Y-55505000D01*
X39105000Y-78255000D02*
X39105000Y-55505000D01*
X40220000Y-75830000D02*
X40220000Y-74500000D01*
X40280000Y-57990000D02*
X91080000Y-57990000D01*
X40280000Y-60530000D02*
X40280000Y-57990000D01*
X41550000Y-75830000D02*
X40220000Y-75830000D01*
X42820000Y-73170000D02*
X91140000Y-73170000D01*
X42820000Y-75830000D02*
X42820000Y-73170000D01*
X84669000Y-61738000D02*
X84669000Y-72018000D01*
X84669000Y-72018000D02*
X87329000Y-72018000D01*
X87329000Y-61738000D02*
X84669000Y-61738000D01*
X87329000Y-72018000D02*
X87329000Y-61738000D01*
X91080000Y-57990000D02*
X91080000Y-60530000D01*
X91080000Y-60530000D02*
X40280000Y-60530000D01*
X91140000Y-73170000D02*
X91140000Y-75830000D01*
X91140000Y-75830000D02*
X42820000Y-75830000D01*
X92255000Y-55505000D02*
X92255000Y-78255000D01*
X92255000Y-78255000D02*
X39105000Y-78255000D01*
D14*
%TO.C,U3*%
X39750000Y-178540000D02*
X39750000Y-101040000D01*
X41250000Y-99540000D02*
X108250000Y-99540000D01*
X41770000Y-130010000D02*
X41770000Y-178270000D01*
X41770000Y-178270000D02*
X46770000Y-178270000D01*
X46770000Y-130010000D02*
X41770000Y-130010000D01*
X46770000Y-178270000D02*
X46770000Y-130010000D01*
X49370000Y-139920000D02*
X49370000Y-160740000D01*
X49370000Y-160740000D02*
X51870000Y-160740000D01*
X49370000Y-162780000D02*
X49370000Y-178520000D01*
X49370000Y-178520000D02*
X51870000Y-178520000D01*
X50750000Y-180040000D02*
X41250000Y-180040000D01*
X51870000Y-139920000D02*
X49370000Y-139920000D01*
X51870000Y-160740000D02*
X51870000Y-139920000D01*
X51870000Y-162780000D02*
X49370000Y-162780000D01*
X51870000Y-178520000D02*
X51870000Y-162780000D01*
X52750000Y-182040000D02*
X50750000Y-180040000D01*
X85750000Y-182040000D02*
X52750000Y-182040000D01*
X87750000Y-180040000D02*
X85750000Y-182040000D01*
X97630000Y-130780000D02*
X97630000Y-156680000D01*
X97630000Y-156680000D02*
X100130000Y-156680000D01*
X97630000Y-157700000D02*
X97630000Y-178520000D01*
X97630000Y-178520000D02*
X100130000Y-178520000D01*
X100130000Y-130780000D02*
X97630000Y-130780000D01*
X100130000Y-156680000D02*
X100130000Y-130780000D01*
X100130000Y-157700000D02*
X97630000Y-157700000D01*
X100130000Y-178520000D02*
X100130000Y-157700000D01*
X102730000Y-130010000D02*
X102730000Y-178270000D01*
X102730000Y-178270000D02*
X107730000Y-178270000D01*
X107730000Y-130010000D02*
X102730000Y-130010000D01*
X107730000Y-178270000D02*
X107730000Y-130010000D01*
X108250000Y-180040000D02*
X87750000Y-180040000D01*
X109750000Y-101040000D02*
X109750000Y-178540000D01*
X39750000Y-101040000D02*
G75*
G02*
X41250000Y-99540000I1500001J-1D01*
G01*
X41250000Y-180040000D02*
G75*
G02*
X39750000Y-178540000I1J1500001D01*
G01*
X108250000Y-99540000D02*
G75*
G02*
X109750000Y-101040000I0J-1500000D01*
G01*
X109750000Y-178540000D02*
G75*
G02*
X108250000Y-180040000I-1500000J0D01*
G01*
D11*
X41350000Y-131280000D02*
G75*
G02*
X41150000Y-131280000I-100000J0D01*
G01*
X41150000Y-131280000D02*
G75*
G02*
X41350000Y-131280000I100000J0D01*
G01*
X48970000Y-141440000D02*
G75*
G02*
X48770000Y-141440000I-100000J0D01*
G01*
X48770000Y-141440000D02*
G75*
G02*
X48970000Y-141440000I100000J0D01*
G01*
X48970000Y-164300000D02*
G75*
G02*
X48770000Y-164300000I-100000J0D01*
G01*
X48770000Y-164300000D02*
G75*
G02*
X48970000Y-164300000I100000J0D01*
G01*
X100730000Y-155160000D02*
G75*
G02*
X100530000Y-155160000I-100000J0D01*
G01*
X100530000Y-155160000D02*
G75*
G02*
X100730000Y-155160000I100000J0D01*
G01*
X100730000Y-177000000D02*
G75*
G02*
X100530000Y-177000000I-100000J0D01*
G01*
X100530000Y-177000000D02*
G75*
G02*
X100730000Y-177000000I100000J0D01*
G01*
X102310000Y-131280000D02*
G75*
G02*
X102110000Y-131280000I-100000J0D01*
G01*
X102110000Y-131280000D02*
G75*
G02*
X102310000Y-131280000I100000J0D01*
G01*
D10*
%TO.C,D1*%
X491040000Y-146600000D02*
X491040000Y-143400000D01*
X493680000Y-143400000D02*
X493680000Y-146600000D01*
D13*
X492600000Y-147430000D02*
X492120000Y-147430000D01*
X492360000Y-147100000D01*
X492600000Y-147430000D01*
G36*
X492600000Y-147430000D02*
G01*
X492120000Y-147430000D01*
X492360000Y-147100000D01*
X492600000Y-147430000D01*
G37*
D15*
%TO.C,U5*%
X553191600Y-178438400D02*
X555528400Y-178438400D01*
X554055200Y-173561600D02*
X553191600Y-173561600D01*
X554664800Y-173561600D02*
X554055200Y-173561600D01*
X555528400Y-173561600D02*
X554664800Y-173561600D01*
D10*
X554664800Y-173561600D02*
G75*
G02*
X554055200Y-173561600I-304800J0D01*
G01*
D15*
%TO.C,U8*%
X518919229Y-163528000D02*
X521256029Y-163528000D01*
X519782829Y-158651200D02*
X518919229Y-158651200D01*
X520392429Y-158651200D02*
X519782829Y-158651200D01*
X521256029Y-158651200D02*
X520392429Y-158651200D01*
D10*
X520392429Y-158651200D02*
G75*
G02*
X519782829Y-158651200I-304800J0D01*
G01*
D14*
%TO.C,U2*%
X365370000Y-62100000D02*
X365370000Y-191440000D01*
X367370000Y-193440000D02*
X433370000Y-193440000D01*
X433370000Y-60100000D02*
X367370000Y-60100000D01*
X435370000Y-191440000D02*
X435370000Y-62100000D01*
X365370000Y-62100000D02*
G75*
G02*
X367370000Y-60100000I1999999J1D01*
G01*
X367370000Y-193440000D02*
G75*
G02*
X365370000Y-191440000I-1J1999999D01*
G01*
X433370000Y-60100000D02*
G75*
G02*
X435370000Y-62100000I0J-2000000D01*
G01*
X435370000Y-191440000D02*
G75*
G02*
X433370000Y-193440000I-2000000J0D01*
G01*
D11*
X364430000Y-91840000D02*
G75*
G02*
X364230000Y-91840000I-100000J0D01*
G01*
X364230000Y-91840000D02*
G75*
G02*
X364430000Y-91840000I100000J0D01*
G01*
D13*
%TO.C,R11*%
X543693022Y-170265000D02*
X544147150Y-170265000D01*
X543693022Y-171735000D02*
X544147150Y-171735000D01*
%TO.C,U7*%
X544525000Y-189035000D02*
X542575000Y-189035000D01*
X544525000Y-189035000D02*
X546475000Y-189035000D01*
X544525000Y-194155000D02*
X542575000Y-194155000D01*
X544525000Y-194155000D02*
X546475000Y-194155000D01*
X541825000Y-189130000D02*
X541585000Y-188800000D01*
X542065000Y-188800000D01*
X541825000Y-189130000D01*
G36*
X541825000Y-189130000D02*
G01*
X541585000Y-188800000D01*
X542065000Y-188800000D01*
X541825000Y-189130000D01*
G37*
%TD*%
%LPC*%
D16*
%TO.C,R12*%
X540120129Y-163000000D03*
X542120129Y-163000000D03*
%TD*%
D17*
%TO.C,D2*%
X495860000Y-143500000D03*
D18*
X495860000Y-146700000D03*
X497260000Y-143500000D03*
X497260000Y-146700000D03*
%TD*%
D19*
%TO.C,R17*%
X496860000Y-154000000D03*
X496860000Y-152000000D03*
%TD*%
D20*
%TO.C,R16*%
X492360000Y-151000000D03*
X492360000Y-153000000D03*
%TD*%
D21*
%TO.C,U1*%
X175740000Y-87730000D03*
X177010000Y-163930000D03*
X208760000Y-139800000D03*
X222730000Y-163930000D03*
X224000000Y-89000000D03*
D22*
X221460000Y-92556000D03*
D23*
X224000000Y-92556000D03*
X221460000Y-95096000D03*
X224000000Y-95096000D03*
X221460000Y-97636000D03*
X224000000Y-97636000D03*
X221460000Y-100176000D03*
X224000000Y-100176000D03*
X221460000Y-102716000D03*
X224000000Y-102716000D03*
X221460000Y-105256000D03*
X224000000Y-105256000D03*
X221460000Y-107796000D03*
X224000000Y-107796000D03*
X221460000Y-110336000D03*
X224000000Y-110336000D03*
X221460000Y-112876000D03*
X224000000Y-112876000D03*
X221460000Y-115416000D03*
X224000000Y-115416000D03*
D22*
X175740000Y-101700000D03*
D23*
X178280000Y-101700000D03*
X175740000Y-104240000D03*
X178280000Y-104240000D03*
X175740000Y-106780000D03*
X178280000Y-106780000D03*
X175740000Y-109320000D03*
X178280000Y-109320000D03*
X175740000Y-111860000D03*
X178280000Y-111860000D03*
X175740000Y-114400000D03*
X178280000Y-114400000D03*
X175740000Y-116940000D03*
X178280000Y-116940000D03*
X175740000Y-119480000D03*
X178280000Y-119480000D03*
D22*
X175740000Y-124560000D03*
D23*
X178280000Y-124560000D03*
X175740000Y-127100000D03*
X178280000Y-127100000D03*
X175740000Y-129640000D03*
X178280000Y-129640000D03*
X175740000Y-132180000D03*
X178280000Y-132180000D03*
X175740000Y-134720000D03*
X178280000Y-134720000D03*
X175740000Y-137260000D03*
X178280000Y-137260000D03*
X175740000Y-139800000D03*
X178280000Y-139800000D03*
X175740000Y-142340000D03*
X178280000Y-142340000D03*
X175740000Y-144880000D03*
X178280000Y-144880000D03*
X175740000Y-147420000D03*
X178280000Y-147420000D03*
X175740000Y-149960000D03*
X178280000Y-149960000D03*
X175740000Y-152500000D03*
X178280000Y-152500000D03*
X175740000Y-155040000D03*
X178280000Y-155040000D03*
X175740000Y-157580000D03*
X178280000Y-157580000D03*
X175740000Y-160120000D03*
X178280000Y-160120000D03*
D22*
X221460000Y-119480000D03*
D23*
X224000000Y-119480000D03*
X221460000Y-122020000D03*
X224000000Y-122020000D03*
X221460000Y-124560000D03*
X224000000Y-124560000D03*
X221460000Y-127100000D03*
X224000000Y-127100000D03*
X221460000Y-129640000D03*
X224000000Y-129640000D03*
X221460000Y-132180000D03*
X224000000Y-132180000D03*
X221460000Y-134720000D03*
X224000000Y-134720000D03*
X221460000Y-137260000D03*
X224000000Y-137260000D03*
X221460000Y-139800000D03*
X224000000Y-139800000D03*
X221460000Y-142340000D03*
X224000000Y-142340000D03*
X221460000Y-144880000D03*
X224000000Y-144880000D03*
X221460000Y-147420000D03*
X224000000Y-147420000D03*
X221460000Y-149960000D03*
X224000000Y-149960000D03*
X221460000Y-152500000D03*
X224000000Y-152500000D03*
X221460000Y-155040000D03*
X224000000Y-155040000D03*
X221460000Y-157580000D03*
X224000000Y-157580000D03*
X221460000Y-160120000D03*
X224000000Y-160120000D03*
D22*
X168120000Y-91540000D03*
D23*
X170660000Y-91540000D03*
X168120000Y-94080000D03*
X170660000Y-94080000D03*
X168120000Y-96620000D03*
X170660000Y-96620000D03*
X168120000Y-99160000D03*
X170660000Y-99160000D03*
X168120000Y-101700000D03*
X170660000Y-101700000D03*
X168120000Y-104240000D03*
X170660000Y-104240000D03*
X168120000Y-106780000D03*
X170660000Y-106780000D03*
X168120000Y-109320000D03*
X170660000Y-109320000D03*
X168120000Y-111860000D03*
X170660000Y-111860000D03*
X168120000Y-114400000D03*
X170660000Y-114400000D03*
X168120000Y-116940000D03*
X170660000Y-116940000D03*
X168120000Y-119480000D03*
X170660000Y-119480000D03*
X168120000Y-122020000D03*
X170660000Y-122020000D03*
X168120000Y-124560000D03*
X170660000Y-124560000D03*
X168120000Y-127100000D03*
X170660000Y-127100000D03*
X168120000Y-129640000D03*
X170660000Y-129640000D03*
X168120000Y-132180000D03*
X170660000Y-132180000D03*
X168120000Y-134720000D03*
X170660000Y-134720000D03*
X168120000Y-137260000D03*
X170660000Y-137260000D03*
X168120000Y-139800000D03*
X170660000Y-139800000D03*
X168120000Y-142340000D03*
X170660000Y-142340000D03*
X168120000Y-144880000D03*
X170660000Y-144880000D03*
X168120000Y-147420000D03*
X170660000Y-147420000D03*
X168120000Y-149960000D03*
X170660000Y-149960000D03*
X168120000Y-152500000D03*
X170660000Y-152500000D03*
X168120000Y-155040000D03*
X170660000Y-155040000D03*
X168120000Y-157580000D03*
X170660000Y-157580000D03*
X168120000Y-160120000D03*
X170660000Y-160120000D03*
X168120000Y-162660000D03*
X170660000Y-162660000D03*
X168120000Y-165200000D03*
X170660000Y-165200000D03*
X168120000Y-167740000D03*
X170660000Y-167740000D03*
X168120000Y-170280000D03*
X170660000Y-170280000D03*
X168120000Y-172820000D03*
X170660000Y-172820000D03*
X168120000Y-175360000D03*
X170660000Y-175360000D03*
X168120000Y-177900000D03*
X170660000Y-177900000D03*
X168120000Y-180440000D03*
X170660000Y-180440000D03*
D22*
X229080000Y-91560000D03*
D23*
X231620000Y-91560000D03*
X229080000Y-94100000D03*
X231620000Y-94100000D03*
X229080000Y-96640000D03*
X231620000Y-96640000D03*
X229080000Y-99180000D03*
X231620000Y-99180000D03*
X229080000Y-101720000D03*
X231620000Y-101720000D03*
X229080000Y-104260000D03*
X231620000Y-104260000D03*
X229080000Y-106800000D03*
X231620000Y-106800000D03*
X229080000Y-109340000D03*
X231620000Y-109340000D03*
X229080000Y-111880000D03*
X231620000Y-111880000D03*
X229080000Y-114420000D03*
X231620000Y-114420000D03*
X229080000Y-116960000D03*
X231620000Y-116960000D03*
X229080000Y-119500000D03*
X231620000Y-119500000D03*
X229080000Y-122040000D03*
X231620000Y-122040000D03*
X229080000Y-124580000D03*
X231620000Y-124580000D03*
X229080000Y-127120000D03*
X231620000Y-127120000D03*
X229080000Y-129660000D03*
X231620000Y-129660000D03*
X229080000Y-132200000D03*
X231620000Y-132200000D03*
X229080000Y-134740000D03*
X231620000Y-134740000D03*
X229080000Y-137280000D03*
X231620000Y-137280000D03*
X229080000Y-139820000D03*
X231620000Y-139820000D03*
X229080000Y-142360000D03*
X231620000Y-142360000D03*
X229080000Y-144900000D03*
X231620000Y-144900000D03*
X229080000Y-147440000D03*
X231620000Y-147440000D03*
X229080000Y-149980000D03*
X231620000Y-149980000D03*
X229080000Y-152520000D03*
X231620000Y-152520000D03*
X229080000Y-155060000D03*
X231620000Y-155060000D03*
X229080000Y-157600000D03*
X231620000Y-157600000D03*
X229080000Y-160140000D03*
X231620000Y-160140000D03*
X229080000Y-162680000D03*
X231620000Y-162680000D03*
X229080000Y-165220000D03*
X231620000Y-165220000D03*
X229080000Y-167760000D03*
X231620000Y-167760000D03*
X229080000Y-170300000D03*
X231620000Y-170300000D03*
X229080000Y-172840000D03*
X231620000Y-172840000D03*
X229080000Y-175380000D03*
X231620000Y-175380000D03*
X229080000Y-177920000D03*
X231620000Y-177920000D03*
X229080000Y-180460000D03*
X231620000Y-180460000D03*
%TD*%
D24*
%TO.C,U6*%
X527285300Y-180950000D03*
X527935300Y-180950000D03*
X528585300Y-180950000D03*
X529235300Y-180950000D03*
X529235300Y-183000000D03*
X528585300Y-183000000D03*
X527935300Y-183000000D03*
X527285300Y-183000000D03*
%TD*%
D25*
%TO.C,J9*%
X321000000Y-91460000D03*
D26*
X321000000Y-94000000D03*
X321000000Y-96540000D03*
X321000000Y-99080000D03*
X321000000Y-101620000D03*
X321000000Y-104160000D03*
X321000000Y-106700000D03*
X321000000Y-109240000D03*
X321000000Y-111780000D03*
X321000000Y-114320000D03*
X321000000Y-116860000D03*
X321000000Y-119400000D03*
X321000000Y-121940000D03*
X321000000Y-124480000D03*
X321000000Y-127020000D03*
X321000000Y-129560000D03*
X321000000Y-132100000D03*
X321000000Y-134640000D03*
X321000000Y-137180000D03*
X321000000Y-139720000D03*
X321000000Y-142260000D03*
X321000000Y-144800000D03*
X321000000Y-147340000D03*
X321000000Y-149880000D03*
%TD*%
D16*
%TO.C,R10*%
X545720043Y-160000000D03*
X547720043Y-160000000D03*
%TD*%
D17*
%TO.C,D4*%
X504360000Y-143500000D03*
D18*
X504360000Y-146700000D03*
X505760000Y-143500000D03*
X505760000Y-146700000D03*
%TD*%
D25*
%TO.C,J1*%
X289000000Y-91500000D03*
D26*
X289000000Y-94040000D03*
X289000000Y-96580000D03*
X289000000Y-99120000D03*
X289000000Y-101660000D03*
X289000000Y-104200000D03*
X289000000Y-106740000D03*
X289000000Y-109280000D03*
X289000000Y-111820000D03*
X289000000Y-114360000D03*
X289000000Y-116900000D03*
X289000000Y-119440000D03*
X289000000Y-121980000D03*
X289000000Y-124520000D03*
X289000000Y-127060000D03*
X289000000Y-129600000D03*
X289000000Y-132140000D03*
X289000000Y-134680000D03*
X289000000Y-137220000D03*
X289000000Y-139760000D03*
X289000000Y-142300000D03*
X289000000Y-144840000D03*
X289000000Y-147380000D03*
X289000000Y-149920000D03*
%TD*%
D16*
%TO.C,R18*%
X512009914Y-162050000D03*
X514009914Y-162050000D03*
%TD*%
D25*
%TO.C,J8*%
X280000000Y-91500000D03*
D26*
X280000000Y-94040000D03*
X280000000Y-96580000D03*
X280000000Y-99120000D03*
X280000000Y-101660000D03*
X280000000Y-104200000D03*
X280000000Y-106740000D03*
X280000000Y-109280000D03*
X280000000Y-111820000D03*
X280000000Y-114360000D03*
X280000000Y-116900000D03*
X280000000Y-119440000D03*
X280000000Y-121980000D03*
X280000000Y-124520000D03*
X280000000Y-127060000D03*
X280000000Y-129600000D03*
X280000000Y-132140000D03*
X280000000Y-134680000D03*
X280000000Y-137220000D03*
X280000000Y-139760000D03*
X280000000Y-142300000D03*
X280000000Y-144840000D03*
X280000000Y-147380000D03*
X280000000Y-149920000D03*
%TD*%
D16*
%TO.C,R15*%
X514809871Y-153200000D03*
X516809871Y-153200000D03*
%TD*%
D17*
%TO.C,D3*%
X500105086Y-143500000D03*
D18*
X500105086Y-146700000D03*
X501505086Y-143500000D03*
X501505086Y-146700000D03*
%TD*%
D25*
%TO.C,J2*%
X312000000Y-91500000D03*
D26*
X312000000Y-94040000D03*
X312000000Y-96580000D03*
X312000000Y-99120000D03*
X312000000Y-101660000D03*
X312000000Y-104200000D03*
X312000000Y-106740000D03*
X312000000Y-109280000D03*
X312000000Y-111820000D03*
X312000000Y-114360000D03*
X312000000Y-116900000D03*
X312000000Y-119440000D03*
X312000000Y-121980000D03*
X312000000Y-124520000D03*
X312000000Y-127060000D03*
X312000000Y-129600000D03*
X312000000Y-132140000D03*
X312000000Y-134680000D03*
X312000000Y-137220000D03*
X312000000Y-139760000D03*
X312000000Y-142300000D03*
X312000000Y-144840000D03*
X312000000Y-147380000D03*
X312000000Y-149920000D03*
%TD*%
D27*
%TO.C,U9*%
X498980000Y-83190000D03*
X532000000Y-135260000D03*
X547240000Y-84460000D03*
D28*
X547240000Y-110880000D03*
D29*
X547240000Y-108340000D03*
X547240000Y-105800000D03*
X547240000Y-103260000D03*
X547240000Y-100720000D03*
X547240000Y-98180000D03*
X547240000Y-95640000D03*
X547240000Y-93100000D03*
X547240000Y-90560000D03*
X547240000Y-88020000D03*
D28*
X498980000Y-97160000D03*
D29*
X498980000Y-99700000D03*
X498980000Y-102240000D03*
X498980000Y-104780000D03*
X498980000Y-107320000D03*
X498980000Y-109860000D03*
X498980000Y-112400000D03*
X498980000Y-114940000D03*
D30*
X491360000Y-87000000D03*
D31*
X493900000Y-87000000D03*
X491360000Y-89540000D03*
X493900000Y-89540000D03*
X491360000Y-92080000D03*
X493900000Y-92080000D03*
X491360000Y-94620000D03*
X493900000Y-94620000D03*
X491360000Y-97160000D03*
X493900000Y-97160000D03*
X491360000Y-99700000D03*
X493900000Y-99700000D03*
X491360000Y-102240000D03*
X493900000Y-102240000D03*
X491360000Y-104780000D03*
X493900000Y-104780000D03*
X491360000Y-107320000D03*
X493900000Y-107320000D03*
X491360000Y-109860000D03*
X493900000Y-109860000D03*
X491360000Y-112400000D03*
X493900000Y-112400000D03*
X491360000Y-114940000D03*
X493900000Y-114940000D03*
X491360000Y-117480000D03*
X493900000Y-117480000D03*
X491360000Y-120020000D03*
X493900000Y-120020000D03*
X491360000Y-122560000D03*
X493900000Y-122560000D03*
X491360000Y-125100000D03*
X493900000Y-125100000D03*
X491360000Y-127640000D03*
X493900000Y-127640000D03*
X491360000Y-130180000D03*
X493900000Y-130180000D03*
X491360000Y-132720000D03*
X493900000Y-132720000D03*
D28*
X498980000Y-120020000D03*
D29*
X498980000Y-122560000D03*
X498980000Y-125100000D03*
X498980000Y-127640000D03*
X498980000Y-130180000D03*
X498980000Y-132720000D03*
D28*
X547240000Y-132720000D03*
D29*
X547240000Y-130180000D03*
X547240000Y-127640000D03*
X547240000Y-125100000D03*
X547240000Y-122560000D03*
X547240000Y-120020000D03*
X547240000Y-117480000D03*
X547240000Y-114940000D03*
D30*
X552320000Y-87000000D03*
D31*
X554860000Y-87000000D03*
X552320000Y-89540000D03*
X554860000Y-89540000D03*
X552320000Y-92080000D03*
X554860000Y-92080000D03*
X552320000Y-94620000D03*
X554860000Y-94620000D03*
X552320000Y-97160000D03*
X554860000Y-97160000D03*
X552320000Y-99700000D03*
X554860000Y-99700000D03*
X552320000Y-102240000D03*
X554860000Y-102240000D03*
X552320000Y-104780000D03*
X554860000Y-104780000D03*
X552320000Y-107320000D03*
X554860000Y-107320000D03*
X552320000Y-109860000D03*
X554860000Y-109860000D03*
X552320000Y-112400000D03*
X554860000Y-112400000D03*
X552320000Y-114940000D03*
X554860000Y-114940000D03*
X552320000Y-117480000D03*
X554860000Y-117480000D03*
X552320000Y-120020000D03*
X554860000Y-120020000D03*
X552320000Y-122560000D03*
X554860000Y-122560000D03*
X552320000Y-125100000D03*
X554860000Y-125100000D03*
X552320000Y-127640000D03*
X554860000Y-127640000D03*
X552320000Y-130180000D03*
X554860000Y-130180000D03*
X552320000Y-132720000D03*
X554860000Y-132720000D03*
%TD*%
D25*
%TO.C,U4*%
X41550000Y-74500000D03*
D26*
X44090000Y-74500000D03*
X46630000Y-74500000D03*
X49170000Y-74500000D03*
X51710000Y-74500000D03*
X54250000Y-74500000D03*
X56790000Y-74500000D03*
X59330000Y-74500000D03*
X61870000Y-74500000D03*
X64410000Y-74500000D03*
X66950000Y-74500000D03*
X69490000Y-74500000D03*
X72030000Y-74500000D03*
X74570000Y-74500000D03*
X77110000Y-74500000D03*
X79650000Y-74500000D03*
X82190000Y-74500000D03*
X84730000Y-74500000D03*
X87270000Y-74500000D03*
X89810000Y-74500000D03*
X89810000Y-59260000D03*
X87270000Y-59260000D03*
X84730000Y-59260000D03*
X82190000Y-59260000D03*
X79650000Y-59260000D03*
X77110000Y-59260000D03*
X74570000Y-59260000D03*
X72030000Y-59260000D03*
X69490000Y-59260000D03*
X66950000Y-59260000D03*
X64410000Y-59260000D03*
X61870000Y-59260000D03*
X59330000Y-59260000D03*
X56790000Y-59260000D03*
X54250000Y-59260000D03*
X51710000Y-59260000D03*
X49170000Y-59260000D03*
X46630000Y-59260000D03*
X44090000Y-59260000D03*
X41550000Y-59260000D03*
X85999000Y-63068000D03*
X85999000Y-65608000D03*
X85999000Y-68148000D03*
X85999000Y-70688000D03*
%TD*%
D27*
%TO.C,U3*%
X50620000Y-127470000D03*
X83640000Y-179540000D03*
X98880000Y-128740000D03*
D28*
X98880000Y-155160000D03*
D29*
X98880000Y-152620000D03*
X98880000Y-150080000D03*
X98880000Y-147540000D03*
X98880000Y-145000000D03*
X98880000Y-142460000D03*
X98880000Y-139920000D03*
X98880000Y-137380000D03*
X98880000Y-134840000D03*
X98880000Y-132300000D03*
D28*
X50620000Y-141440000D03*
D29*
X50620000Y-143980000D03*
X50620000Y-146520000D03*
X50620000Y-149060000D03*
X50620000Y-151600000D03*
X50620000Y-154140000D03*
X50620000Y-156680000D03*
X50620000Y-159220000D03*
D30*
X43000000Y-131280000D03*
D31*
X45540000Y-131280000D03*
X43000000Y-133820000D03*
X45540000Y-133820000D03*
X43000000Y-136360000D03*
X45540000Y-136360000D03*
X43000000Y-138900000D03*
X45540000Y-138900000D03*
X43000000Y-141440000D03*
X45540000Y-141440000D03*
X43000000Y-143980000D03*
X45540000Y-143980000D03*
X43000000Y-146520000D03*
X45540000Y-146520000D03*
X43000000Y-149060000D03*
X45540000Y-149060000D03*
X43000000Y-151600000D03*
X45540000Y-151600000D03*
X43000000Y-154140000D03*
X45540000Y-154140000D03*
X43000000Y-156680000D03*
X45540000Y-156680000D03*
X43000000Y-159220000D03*
X45540000Y-159220000D03*
X43000000Y-161760000D03*
X45540000Y-161760000D03*
X43000000Y-164300000D03*
X45540000Y-164300000D03*
X43000000Y-166840000D03*
X45540000Y-166840000D03*
X43000000Y-169380000D03*
X45540000Y-169380000D03*
X43000000Y-171920000D03*
X45540000Y-171920000D03*
X43000000Y-174460000D03*
X45540000Y-174460000D03*
X43000000Y-177000000D03*
X45540000Y-177000000D03*
D28*
X50620000Y-164300000D03*
D29*
X50620000Y-166840000D03*
X50620000Y-169380000D03*
X50620000Y-171920000D03*
X50620000Y-174460000D03*
X50620000Y-177000000D03*
D28*
X98880000Y-177000000D03*
D29*
X98880000Y-174460000D03*
X98880000Y-171920000D03*
X98880000Y-169380000D03*
X98880000Y-166840000D03*
X98880000Y-164300000D03*
X98880000Y-161760000D03*
X98880000Y-159220000D03*
D30*
X103960000Y-131280000D03*
D31*
X106500000Y-131280000D03*
X103960000Y-133820000D03*
X106500000Y-133820000D03*
X103960000Y-136360000D03*
X106500000Y-136360000D03*
X103960000Y-138900000D03*
X106500000Y-138900000D03*
X103960000Y-141440000D03*
X106500000Y-141440000D03*
X103960000Y-143980000D03*
X106500000Y-143980000D03*
X103960000Y-146520000D03*
X106500000Y-146520000D03*
X103960000Y-149060000D03*
X106500000Y-149060000D03*
X103960000Y-151600000D03*
X106500000Y-151600000D03*
X103960000Y-154140000D03*
X106500000Y-154140000D03*
X103960000Y-156680000D03*
X106500000Y-156680000D03*
X103960000Y-159220000D03*
X106500000Y-159220000D03*
X103960000Y-161760000D03*
X106500000Y-161760000D03*
X103960000Y-164300000D03*
X106500000Y-164300000D03*
X103960000Y-166840000D03*
X106500000Y-166840000D03*
X103960000Y-169380000D03*
X106500000Y-169380000D03*
X103960000Y-171920000D03*
X106500000Y-171920000D03*
X103960000Y-174460000D03*
X106500000Y-174460000D03*
X103960000Y-177000000D03*
X106500000Y-177000000D03*
%TD*%
D17*
%TO.C,D1*%
X491660000Y-143400000D03*
D18*
X491660000Y-146600000D03*
X493060000Y-143400000D03*
X493060000Y-146600000D03*
%TD*%
D32*
%TO.C,U5*%
X551997800Y-174095000D03*
X551997800Y-175365000D03*
X551997800Y-176635000D03*
X551997800Y-177905000D03*
X556722200Y-177905000D03*
X556722200Y-176635000D03*
X556722200Y-175365000D03*
X556722200Y-174095000D03*
%TD*%
%TO.C,U8*%
X517725429Y-159184600D03*
X517725429Y-160454600D03*
X517725429Y-161724600D03*
X517725429Y-162994600D03*
X522449829Y-162994600D03*
X522449829Y-161724600D03*
X522449829Y-160454600D03*
X522449829Y-159184600D03*
%TD*%
D21*
%TO.C,U2*%
X376240000Y-88030000D03*
X377510000Y-164230000D03*
X409260000Y-140100000D03*
X423230000Y-164230000D03*
X424500000Y-89300000D03*
D22*
X421960000Y-92856000D03*
D23*
X424500000Y-92856000D03*
X421960000Y-95396000D03*
X424500000Y-95396000D03*
X421960000Y-97936000D03*
X424500000Y-97936000D03*
X421960000Y-100476000D03*
X424500000Y-100476000D03*
X421960000Y-103016000D03*
X424500000Y-103016000D03*
X421960000Y-105556000D03*
X424500000Y-105556000D03*
X421960000Y-108096000D03*
X424500000Y-108096000D03*
X421960000Y-110636000D03*
X424500000Y-110636000D03*
X421960000Y-113176000D03*
X424500000Y-113176000D03*
X421960000Y-115716000D03*
X424500000Y-115716000D03*
D22*
X376240000Y-102000000D03*
D23*
X378780000Y-102000000D03*
X376240000Y-104540000D03*
X378780000Y-104540000D03*
X376240000Y-107080000D03*
X378780000Y-107080000D03*
X376240000Y-109620000D03*
X378780000Y-109620000D03*
X376240000Y-112160000D03*
X378780000Y-112160000D03*
X376240000Y-114700000D03*
X378780000Y-114700000D03*
X376240000Y-117240000D03*
X378780000Y-117240000D03*
X376240000Y-119780000D03*
X378780000Y-119780000D03*
D22*
X376240000Y-124860000D03*
D23*
X378780000Y-124860000D03*
X376240000Y-127400000D03*
X378780000Y-127400000D03*
X376240000Y-129940000D03*
X378780000Y-129940000D03*
X376240000Y-132480000D03*
X378780000Y-132480000D03*
X376240000Y-135020000D03*
X378780000Y-135020000D03*
X376240000Y-137560000D03*
X378780000Y-137560000D03*
X376240000Y-140100000D03*
X378780000Y-140100000D03*
X376240000Y-142640000D03*
X378780000Y-142640000D03*
X376240000Y-145180000D03*
X378780000Y-145180000D03*
X376240000Y-147720000D03*
X378780000Y-147720000D03*
X376240000Y-150260000D03*
X378780000Y-150260000D03*
X376240000Y-152800000D03*
X378780000Y-152800000D03*
X376240000Y-155340000D03*
X378780000Y-155340000D03*
X376240000Y-157880000D03*
X378780000Y-157880000D03*
X376240000Y-160420000D03*
X378780000Y-160420000D03*
D22*
X421960000Y-119780000D03*
D23*
X424500000Y-119780000D03*
X421960000Y-122320000D03*
X424500000Y-122320000D03*
X421960000Y-124860000D03*
X424500000Y-124860000D03*
X421960000Y-127400000D03*
X424500000Y-127400000D03*
X421960000Y-129940000D03*
X424500000Y-129940000D03*
X421960000Y-132480000D03*
X424500000Y-132480000D03*
X421960000Y-135020000D03*
X424500000Y-135020000D03*
X421960000Y-137560000D03*
X424500000Y-137560000D03*
X421960000Y-140100000D03*
X424500000Y-140100000D03*
X421960000Y-142640000D03*
X424500000Y-142640000D03*
X421960000Y-145180000D03*
X424500000Y-145180000D03*
X421960000Y-147720000D03*
X424500000Y-147720000D03*
X421960000Y-150260000D03*
X424500000Y-150260000D03*
X421960000Y-152800000D03*
X424500000Y-152800000D03*
X421960000Y-155340000D03*
X424500000Y-155340000D03*
X421960000Y-157880000D03*
X424500000Y-157880000D03*
X421960000Y-160420000D03*
X424500000Y-160420000D03*
D22*
X368620000Y-91840000D03*
D23*
X371160000Y-91840000D03*
X368620000Y-94380000D03*
X371160000Y-94380000D03*
X368620000Y-96920000D03*
X371160000Y-96920000D03*
X368620000Y-99460000D03*
X371160000Y-99460000D03*
X368620000Y-102000000D03*
X371160000Y-102000000D03*
X368620000Y-104540000D03*
X371160000Y-104540000D03*
X368620000Y-107080000D03*
X371160000Y-107080000D03*
X368620000Y-109620000D03*
X371160000Y-109620000D03*
X368620000Y-112160000D03*
X371160000Y-112160000D03*
X368620000Y-114700000D03*
X371160000Y-114700000D03*
X368620000Y-117240000D03*
X371160000Y-117240000D03*
X368620000Y-119780000D03*
X371160000Y-119780000D03*
X368620000Y-122320000D03*
X371160000Y-122320000D03*
X368620000Y-124860000D03*
X371160000Y-124860000D03*
X368620000Y-127400000D03*
X371160000Y-127400000D03*
X368620000Y-129940000D03*
X371160000Y-129940000D03*
X368620000Y-132480000D03*
X371160000Y-132480000D03*
X368620000Y-135020000D03*
X371160000Y-135020000D03*
X368620000Y-137560000D03*
X371160000Y-137560000D03*
X368620000Y-140100000D03*
X371160000Y-140100000D03*
X368620000Y-142640000D03*
X371160000Y-142640000D03*
X368620000Y-145180000D03*
X371160000Y-145180000D03*
X368620000Y-147720000D03*
X371160000Y-147720000D03*
X368620000Y-150260000D03*
X371160000Y-150260000D03*
X368620000Y-152800000D03*
X371160000Y-152800000D03*
X368620000Y-155340000D03*
X371160000Y-155340000D03*
X368620000Y-157880000D03*
X371160000Y-157880000D03*
X368620000Y-160420000D03*
X371160000Y-160420000D03*
X368620000Y-162960000D03*
X371160000Y-162960000D03*
X368620000Y-165500000D03*
X371160000Y-165500000D03*
X368620000Y-168040000D03*
X371160000Y-168040000D03*
X368620000Y-170580000D03*
X371160000Y-170580000D03*
X368620000Y-173120000D03*
X371160000Y-173120000D03*
X368620000Y-175660000D03*
X371160000Y-175660000D03*
X368620000Y-178200000D03*
X371160000Y-178200000D03*
X368620000Y-180740000D03*
X371160000Y-180740000D03*
D22*
X429580000Y-91860000D03*
D23*
X432120000Y-91860000D03*
X429580000Y-94400000D03*
X432120000Y-94400000D03*
X429580000Y-96940000D03*
X432120000Y-96940000D03*
X429580000Y-99480000D03*
X432120000Y-99480000D03*
X429580000Y-102020000D03*
X432120000Y-102020000D03*
X429580000Y-104560000D03*
X432120000Y-104560000D03*
X429580000Y-107100000D03*
X432120000Y-107100000D03*
X429580000Y-109640000D03*
X432120000Y-109640000D03*
X429580000Y-112180000D03*
X432120000Y-112180000D03*
X429580000Y-114720000D03*
X432120000Y-114720000D03*
X429580000Y-117260000D03*
X432120000Y-117260000D03*
X429580000Y-119800000D03*
X432120000Y-119800000D03*
X429580000Y-122340000D03*
X432120000Y-122340000D03*
X429580000Y-124880000D03*
X432120000Y-124880000D03*
X429580000Y-127420000D03*
X432120000Y-127420000D03*
X429580000Y-129960000D03*
X432120000Y-129960000D03*
X429580000Y-132500000D03*
X432120000Y-132500000D03*
X429580000Y-135040000D03*
X432120000Y-135040000D03*
X429580000Y-137580000D03*
X432120000Y-137580000D03*
X429580000Y-140120000D03*
X432120000Y-140120000D03*
X429580000Y-142660000D03*
X432120000Y-142660000D03*
X429580000Y-145200000D03*
X432120000Y-145200000D03*
X429580000Y-147740000D03*
X432120000Y-147740000D03*
X429580000Y-150280000D03*
X432120000Y-150280000D03*
X429580000Y-152820000D03*
X432120000Y-152820000D03*
X429580000Y-155360000D03*
X432120000Y-155360000D03*
X429580000Y-157900000D03*
X432120000Y-157900000D03*
X429580000Y-160440000D03*
X432120000Y-160440000D03*
X429580000Y-162980000D03*
X432120000Y-162980000D03*
X429580000Y-165520000D03*
X432120000Y-165520000D03*
X429580000Y-168060000D03*
X432120000Y-168060000D03*
X429580000Y-170600000D03*
X432120000Y-170600000D03*
X429580000Y-173140000D03*
X432120000Y-173140000D03*
X429580000Y-175680000D03*
X432120000Y-175680000D03*
X429580000Y-178220000D03*
X432120000Y-178220000D03*
X429580000Y-180760000D03*
X432120000Y-180760000D03*
%TD*%
D16*
%TO.C,R11*%
X542920086Y-171000000D03*
X544920086Y-171000000D03*
%TD*%
D33*
%TO.C,U7*%
X542050000Y-189690000D03*
X542050000Y-190960000D03*
X542050000Y-192230000D03*
X542050000Y-193500000D03*
X547000000Y-193500000D03*
X547000000Y-192230000D03*
X547000000Y-190960000D03*
X547000000Y-189690000D03*
%TD*%
%LPD*%
D34*
X337410000Y-174450000D02*
X261210000Y-174450000D01*
X34180000Y-200880000D02*
G75*
G02*
X29180000Y-195880000I0J5000000D01*
G01*
X313280000Y-75390000D02*
X337410000Y-75390000D01*
X261210000Y-174450000D02*
G75*
G02*
X258670000Y-171910000I0J2540000D01*
G01*
X29180000Y-195880000D02*
X29180000Y-54880000D01*
X258670000Y-171910000D02*
X258670000Y-77930000D01*
X258670000Y-77930000D02*
G75*
G02*
X261210000Y-75390000I2540000J0D01*
G01*
X337410000Y-75390000D02*
G75*
G02*
X339950000Y-77930000I0J-2540000D01*
G01*
X339950000Y-77930000D02*
X339950000Y-171910000D01*
X261210000Y-75390000D02*
X313280000Y-75390000D01*
X34180000Y-49880000D02*
X560180000Y-49951068D01*
X560180000Y-200880000D02*
X34180000Y-200880000D01*
X565180000Y-195880000D02*
G75*
G02*
X560180000Y-200880000I-5000000J0D01*
G01*
X339950000Y-171910000D02*
G75*
G02*
X337410000Y-174450000I-2540000J0D01*
G01*
X565180000Y-54951068D02*
X565180000Y-195880000D01*
X29180000Y-54880000D02*
G75*
G02*
X34180000Y-49880000I5000000J0D01*
G01*
X560180000Y-49951068D02*
G75*
G02*
X565180032Y-54951068I0J-5000032D01*
G01*
M02*
