%TF.GenerationSoftware,KiCad,Pcbnew,9.0.0+dfsg-1*%
%TF.CreationDate,2025-06-19T19:52:37-07:00*%
%TF.ProjectId,signalmesh,7369676e-616c-46d6-9573-682e6b696361,rev?*%
%TF.SameCoordinates,Original*%
%TF.FileFunction,Soldermask,Bot*%
%TF.FilePolarity,Negative*%
%FSLAX46Y46*%
G04 Gerber Fmt 4.6, Leading zero omitted, Abs format (unit mm)*
G04 Created by KiCad (PCBNEW 9.0.0+dfsg-1) date 2025-06-19 19:52:37*
%MOMM*%
%LPD*%
G01*
G04 APERTURE LIST*
%ADD10C,1.600000*%
%ADD11C,0.850000*%
%ADD12R,0.850000X0.850000*%
%ADD13C,1.700000*%
%ADD14R,1.700000X1.700000*%
%ADD15C,3.200000*%
%ADD16R,1.508000X1.508000*%
%ADD17C,1.508000*%
%ADD18C,3.000000*%
%ADD19R,1.605000X1.605000*%
%ADD20C,1.605000*%
%ADD21R,1.530000X1.530000*%
%ADD22C,1.530000*%
%TA.AperFunction,Profile*%
%ADD23C,0.050000*%
%TD*%
G04 APERTURE END LIST*
D10*
%TO.C,TH1*%
X540500000Y-143500000D03*
X543040000Y-143500000D03*
%TD*%
D11*
%TO.C,J5*%
X557125000Y-168500000D03*
D12*
X557125000Y-167500000D03*
%TD*%
D11*
%TO.C,J11*%
X557125000Y-194000000D03*
D12*
X557125000Y-193000000D03*
%TD*%
D11*
%TO.C,J6*%
X557125000Y-175000000D03*
D12*
X557125000Y-174000000D03*
%TD*%
D11*
%TO.C,J10*%
X557125000Y-188000000D03*
D12*
X557125000Y-187000000D03*
%TD*%
D11*
%TO.C,J7*%
X557125000Y-181845000D03*
D12*
X557125000Y-180845000D03*
%TD*%
D11*
%TO.C,J4*%
X345000000Y-53875000D03*
X344000000Y-53875000D03*
D12*
X343000000Y-53875000D03*
%TD*%
D13*
%TO.C,U4*%
X453000000Y-187500000D03*
X455540000Y-187500000D03*
X458080000Y-187500000D03*
X460620000Y-187500000D03*
X464428000Y-143051000D03*
X464428000Y-145591000D03*
X464428000Y-148131000D03*
X464428000Y-150671000D03*
X464428000Y-153211000D03*
X464428000Y-155751000D03*
X464428000Y-158291000D03*
X464428000Y-160831000D03*
X464428000Y-163371000D03*
X464428000Y-165911000D03*
X464428000Y-168451000D03*
X464428000Y-170991000D03*
X464428000Y-173531000D03*
X464428000Y-176071000D03*
X464428000Y-178611000D03*
X464428000Y-181151000D03*
X464428000Y-183691000D03*
X464428000Y-186231000D03*
X464428000Y-188771000D03*
X464428000Y-191311000D03*
X449188000Y-191311000D03*
X449188000Y-188771000D03*
X449188000Y-186231000D03*
X449188000Y-183691000D03*
X449188000Y-181151000D03*
X449188000Y-178611000D03*
X449188000Y-176071000D03*
X449188000Y-173531000D03*
X449188000Y-170991000D03*
X449188000Y-168451000D03*
X449188000Y-165911000D03*
X449188000Y-163371000D03*
X449188000Y-160831000D03*
X449188000Y-158291000D03*
X449188000Y-155751000D03*
X449188000Y-153211000D03*
X449188000Y-150671000D03*
X449188000Y-148131000D03*
X449188000Y-145591000D03*
D14*
X449188000Y-143051000D03*
%TD*%
D15*
%TO.C,U1*%
X175740000Y-87730000D03*
X177010000Y-163930000D03*
X208760000Y-139800000D03*
X222730000Y-163930000D03*
X224000000Y-89000000D03*
D16*
X221460000Y-92556000D03*
D17*
X224000000Y-92556000D03*
X221460000Y-95096000D03*
X224000000Y-95096000D03*
X221460000Y-97636000D03*
X224000000Y-97636000D03*
X221460000Y-100176000D03*
X224000000Y-100176000D03*
X221460000Y-102716000D03*
X224000000Y-102716000D03*
X221460000Y-105256000D03*
X224000000Y-105256000D03*
X221460000Y-107796000D03*
X224000000Y-107796000D03*
X221460000Y-110336000D03*
X224000000Y-110336000D03*
X221460000Y-112876000D03*
X224000000Y-112876000D03*
X221460000Y-115416000D03*
X224000000Y-115416000D03*
D16*
X175740000Y-101700000D03*
D17*
X178280000Y-101700000D03*
X175740000Y-104240000D03*
X178280000Y-104240000D03*
X175740000Y-106780000D03*
X178280000Y-106780000D03*
X175740000Y-109320000D03*
X178280000Y-109320000D03*
X175740000Y-111860000D03*
X178280000Y-111860000D03*
X175740000Y-114400000D03*
X178280000Y-114400000D03*
X175740000Y-116940000D03*
X178280000Y-116940000D03*
X175740000Y-119480000D03*
X178280000Y-119480000D03*
D16*
X175740000Y-124560000D03*
D17*
X178280000Y-124560000D03*
X175740000Y-127100000D03*
X178280000Y-127100000D03*
X175740000Y-129640000D03*
X178280000Y-129640000D03*
X175740000Y-132180000D03*
X178280000Y-132180000D03*
X175740000Y-134720000D03*
X178280000Y-134720000D03*
X175740000Y-137260000D03*
X178280000Y-137260000D03*
X175740000Y-139800000D03*
X178280000Y-139800000D03*
X175740000Y-142340000D03*
X178280000Y-142340000D03*
X175740000Y-144880000D03*
X178280000Y-144880000D03*
X175740000Y-147420000D03*
X178280000Y-147420000D03*
X175740000Y-149960000D03*
X178280000Y-149960000D03*
X175740000Y-152500000D03*
X178280000Y-152500000D03*
X175740000Y-155040000D03*
X178280000Y-155040000D03*
X175740000Y-157580000D03*
X178280000Y-157580000D03*
X175740000Y-160120000D03*
X178280000Y-160120000D03*
D16*
X221460000Y-119480000D03*
D17*
X224000000Y-119480000D03*
X221460000Y-122020000D03*
X224000000Y-122020000D03*
X221460000Y-124560000D03*
X224000000Y-124560000D03*
X221460000Y-127100000D03*
X224000000Y-127100000D03*
X221460000Y-129640000D03*
X224000000Y-129640000D03*
X221460000Y-132180000D03*
X224000000Y-132180000D03*
X221460000Y-134720000D03*
X224000000Y-134720000D03*
X221460000Y-137260000D03*
X224000000Y-137260000D03*
X221460000Y-139800000D03*
X224000000Y-139800000D03*
X221460000Y-142340000D03*
X224000000Y-142340000D03*
X221460000Y-144880000D03*
X224000000Y-144880000D03*
X221460000Y-147420000D03*
X224000000Y-147420000D03*
X221460000Y-149960000D03*
X224000000Y-149960000D03*
X221460000Y-152500000D03*
X224000000Y-152500000D03*
X221460000Y-155040000D03*
X224000000Y-155040000D03*
X221460000Y-157580000D03*
X224000000Y-157580000D03*
X221460000Y-160120000D03*
X224000000Y-160120000D03*
D16*
X168120000Y-91540000D03*
D17*
X170660000Y-91540000D03*
X168120000Y-94080000D03*
X170660000Y-94080000D03*
X168120000Y-96620000D03*
X170660000Y-96620000D03*
X168120000Y-99160000D03*
X170660000Y-99160000D03*
X168120000Y-101700000D03*
X170660000Y-101700000D03*
X168120000Y-104240000D03*
X170660000Y-104240000D03*
X168120000Y-106780000D03*
X170660000Y-106780000D03*
X168120000Y-109320000D03*
X170660000Y-109320000D03*
X168120000Y-111860000D03*
X170660000Y-111860000D03*
X168120000Y-114400000D03*
X170660000Y-114400000D03*
X168120000Y-116940000D03*
X170660000Y-116940000D03*
X168120000Y-119480000D03*
X170660000Y-119480000D03*
X168120000Y-122020000D03*
X170660000Y-122020000D03*
X168120000Y-124560000D03*
X170660000Y-124560000D03*
X168120000Y-127100000D03*
X170660000Y-127100000D03*
X168120000Y-129640000D03*
X170660000Y-129640000D03*
X168120000Y-132180000D03*
X170660000Y-132180000D03*
X168120000Y-134720000D03*
X170660000Y-134720000D03*
X168120000Y-137260000D03*
X170660000Y-137260000D03*
X168120000Y-139800000D03*
X170660000Y-139800000D03*
X168120000Y-142340000D03*
X170660000Y-142340000D03*
X168120000Y-144880000D03*
X170660000Y-144880000D03*
X168120000Y-147420000D03*
X170660000Y-147420000D03*
X168120000Y-149960000D03*
X170660000Y-149960000D03*
X168120000Y-152500000D03*
X170660000Y-152500000D03*
X168120000Y-155040000D03*
X170660000Y-155040000D03*
X168120000Y-157580000D03*
X170660000Y-157580000D03*
X168120000Y-160120000D03*
X170660000Y-160120000D03*
X168120000Y-162660000D03*
X170660000Y-162660000D03*
X168120000Y-165200000D03*
X170660000Y-165200000D03*
X168120000Y-167740000D03*
X170660000Y-167740000D03*
X168120000Y-170280000D03*
X170660000Y-170280000D03*
X168120000Y-172820000D03*
X170660000Y-172820000D03*
X168120000Y-175360000D03*
X170660000Y-175360000D03*
X168120000Y-177900000D03*
X170660000Y-177900000D03*
X168120000Y-180440000D03*
X170660000Y-180440000D03*
D16*
X229080000Y-91560000D03*
D17*
X231620000Y-91560000D03*
X229080000Y-94100000D03*
X231620000Y-94100000D03*
X229080000Y-96640000D03*
X231620000Y-96640000D03*
X229080000Y-99180000D03*
X231620000Y-99180000D03*
X229080000Y-101720000D03*
X231620000Y-101720000D03*
X229080000Y-104260000D03*
X231620000Y-104260000D03*
X229080000Y-106800000D03*
X231620000Y-106800000D03*
X229080000Y-109340000D03*
X231620000Y-109340000D03*
X229080000Y-111880000D03*
X231620000Y-111880000D03*
X229080000Y-114420000D03*
X231620000Y-114420000D03*
X229080000Y-116960000D03*
X231620000Y-116960000D03*
X229080000Y-119500000D03*
X231620000Y-119500000D03*
X229080000Y-122040000D03*
X231620000Y-122040000D03*
X229080000Y-124580000D03*
X231620000Y-124580000D03*
X229080000Y-127120000D03*
X231620000Y-127120000D03*
X229080000Y-129660000D03*
X231620000Y-129660000D03*
X229080000Y-132200000D03*
X231620000Y-132200000D03*
X229080000Y-134740000D03*
X231620000Y-134740000D03*
X229080000Y-137280000D03*
X231620000Y-137280000D03*
X229080000Y-139820000D03*
X231620000Y-139820000D03*
X229080000Y-142360000D03*
X231620000Y-142360000D03*
X229080000Y-144900000D03*
X231620000Y-144900000D03*
X229080000Y-147440000D03*
X231620000Y-147440000D03*
X229080000Y-149980000D03*
X231620000Y-149980000D03*
X229080000Y-152520000D03*
X231620000Y-152520000D03*
X229080000Y-155060000D03*
X231620000Y-155060000D03*
X229080000Y-157600000D03*
X231620000Y-157600000D03*
X229080000Y-160140000D03*
X231620000Y-160140000D03*
X229080000Y-162680000D03*
X231620000Y-162680000D03*
X229080000Y-165220000D03*
X231620000Y-165220000D03*
X229080000Y-167760000D03*
X231620000Y-167760000D03*
X229080000Y-170300000D03*
X231620000Y-170300000D03*
X229080000Y-172840000D03*
X231620000Y-172840000D03*
X229080000Y-175380000D03*
X231620000Y-175380000D03*
X229080000Y-177920000D03*
X231620000Y-177920000D03*
X229080000Y-180460000D03*
X231620000Y-180460000D03*
%TD*%
D14*
%TO.C,J9*%
X321000000Y-91460000D03*
D13*
X321000000Y-94000000D03*
X321000000Y-96540000D03*
X321000000Y-99080000D03*
X321000000Y-101620000D03*
X321000000Y-104160000D03*
X321000000Y-106700000D03*
X321000000Y-109240000D03*
X321000000Y-111780000D03*
X321000000Y-114320000D03*
X321000000Y-116860000D03*
X321000000Y-119400000D03*
X321000000Y-121940000D03*
X321000000Y-124480000D03*
X321000000Y-127020000D03*
X321000000Y-129560000D03*
X321000000Y-132100000D03*
X321000000Y-134640000D03*
X321000000Y-137180000D03*
X321000000Y-139720000D03*
X321000000Y-142260000D03*
X321000000Y-144800000D03*
X321000000Y-147340000D03*
X321000000Y-149880000D03*
%TD*%
D14*
%TO.C,J1*%
X289000000Y-91500000D03*
D13*
X289000000Y-94040000D03*
X289000000Y-96580000D03*
X289000000Y-99120000D03*
X289000000Y-101660000D03*
X289000000Y-104200000D03*
X289000000Y-106740000D03*
X289000000Y-109280000D03*
X289000000Y-111820000D03*
X289000000Y-114360000D03*
X289000000Y-116900000D03*
X289000000Y-119440000D03*
X289000000Y-121980000D03*
X289000000Y-124520000D03*
X289000000Y-127060000D03*
X289000000Y-129600000D03*
X289000000Y-132140000D03*
X289000000Y-134680000D03*
X289000000Y-137220000D03*
X289000000Y-139760000D03*
X289000000Y-142300000D03*
X289000000Y-144840000D03*
X289000000Y-147380000D03*
X289000000Y-149920000D03*
%TD*%
D14*
%TO.C,J8*%
X280000000Y-91500000D03*
D13*
X280000000Y-94040000D03*
X280000000Y-96580000D03*
X280000000Y-99120000D03*
X280000000Y-101660000D03*
X280000000Y-104200000D03*
X280000000Y-106740000D03*
X280000000Y-109280000D03*
X280000000Y-111820000D03*
X280000000Y-114360000D03*
X280000000Y-116900000D03*
X280000000Y-119440000D03*
X280000000Y-121980000D03*
X280000000Y-124520000D03*
X280000000Y-127060000D03*
X280000000Y-129600000D03*
X280000000Y-132140000D03*
X280000000Y-134680000D03*
X280000000Y-137220000D03*
X280000000Y-139760000D03*
X280000000Y-142300000D03*
X280000000Y-144840000D03*
X280000000Y-147380000D03*
X280000000Y-149920000D03*
%TD*%
D14*
%TO.C,J2*%
X312000000Y-91500000D03*
D13*
X312000000Y-94040000D03*
X312000000Y-96580000D03*
X312000000Y-99120000D03*
X312000000Y-101660000D03*
X312000000Y-104200000D03*
X312000000Y-106740000D03*
X312000000Y-109280000D03*
X312000000Y-111820000D03*
X312000000Y-114360000D03*
X312000000Y-116900000D03*
X312000000Y-119440000D03*
X312000000Y-121980000D03*
X312000000Y-124520000D03*
X312000000Y-127060000D03*
X312000000Y-129600000D03*
X312000000Y-132140000D03*
X312000000Y-134680000D03*
X312000000Y-137220000D03*
X312000000Y-139760000D03*
X312000000Y-142300000D03*
X312000000Y-144840000D03*
X312000000Y-147380000D03*
X312000000Y-149920000D03*
%TD*%
D18*
%TO.C,U9*%
X498980000Y-83190000D03*
X532000000Y-135260000D03*
X547240000Y-84460000D03*
D19*
X547240000Y-110880000D03*
D20*
X547240000Y-108340000D03*
X547240000Y-105800000D03*
X547240000Y-103260000D03*
X547240000Y-100720000D03*
X547240000Y-98180000D03*
X547240000Y-95640000D03*
X547240000Y-93100000D03*
X547240000Y-90560000D03*
X547240000Y-88020000D03*
D19*
X498980000Y-97160000D03*
D20*
X498980000Y-99700000D03*
X498980000Y-102240000D03*
X498980000Y-104780000D03*
X498980000Y-107320000D03*
X498980000Y-109860000D03*
X498980000Y-112400000D03*
X498980000Y-114940000D03*
D21*
X491360000Y-87000000D03*
D22*
X493900000Y-87000000D03*
X491360000Y-89540000D03*
X493900000Y-89540000D03*
X491360000Y-92080000D03*
X493900000Y-92080000D03*
X491360000Y-94620000D03*
X493900000Y-94620000D03*
X491360000Y-97160000D03*
X493900000Y-97160000D03*
X491360000Y-99700000D03*
X493900000Y-99700000D03*
X491360000Y-102240000D03*
X493900000Y-102240000D03*
X491360000Y-104780000D03*
X493900000Y-104780000D03*
X491360000Y-107320000D03*
X493900000Y-107320000D03*
X491360000Y-109860000D03*
X493900000Y-109860000D03*
X491360000Y-112400000D03*
X493900000Y-112400000D03*
X491360000Y-114940000D03*
X493900000Y-114940000D03*
X491360000Y-117480000D03*
X493900000Y-117480000D03*
X491360000Y-120020000D03*
X493900000Y-120020000D03*
X491360000Y-122560000D03*
X493900000Y-122560000D03*
X491360000Y-125100000D03*
X493900000Y-125100000D03*
X491360000Y-127640000D03*
X493900000Y-127640000D03*
X491360000Y-130180000D03*
X493900000Y-130180000D03*
X491360000Y-132720000D03*
X493900000Y-132720000D03*
D19*
X498980000Y-120020000D03*
D20*
X498980000Y-122560000D03*
X498980000Y-125100000D03*
X498980000Y-127640000D03*
X498980000Y-130180000D03*
X498980000Y-132720000D03*
D19*
X547240000Y-132720000D03*
D20*
X547240000Y-130180000D03*
X547240000Y-127640000D03*
X547240000Y-125100000D03*
X547240000Y-122560000D03*
X547240000Y-120020000D03*
X547240000Y-117480000D03*
X547240000Y-114940000D03*
D21*
X552320000Y-87000000D03*
D22*
X554860000Y-87000000D03*
X552320000Y-89540000D03*
X554860000Y-89540000D03*
X552320000Y-92080000D03*
X554860000Y-92080000D03*
X552320000Y-94620000D03*
X554860000Y-94620000D03*
X552320000Y-97160000D03*
X554860000Y-97160000D03*
X552320000Y-99700000D03*
X554860000Y-99700000D03*
X552320000Y-102240000D03*
X554860000Y-102240000D03*
X552320000Y-104780000D03*
X554860000Y-104780000D03*
X552320000Y-107320000D03*
X554860000Y-107320000D03*
X552320000Y-109860000D03*
X554860000Y-109860000D03*
X552320000Y-112400000D03*
X554860000Y-112400000D03*
X552320000Y-114940000D03*
X554860000Y-114940000D03*
X552320000Y-117480000D03*
X554860000Y-117480000D03*
X552320000Y-120020000D03*
X554860000Y-120020000D03*
X552320000Y-122560000D03*
X554860000Y-122560000D03*
X552320000Y-125100000D03*
X554860000Y-125100000D03*
X552320000Y-127640000D03*
X554860000Y-127640000D03*
X552320000Y-130180000D03*
X554860000Y-130180000D03*
X552320000Y-132720000D03*
X554860000Y-132720000D03*
%TD*%
D18*
%TO.C,U3*%
X50620000Y-127470000D03*
X83640000Y-179540000D03*
X98880000Y-128740000D03*
D19*
X98880000Y-155160000D03*
D20*
X98880000Y-152620000D03*
X98880000Y-150080000D03*
X98880000Y-147540000D03*
X98880000Y-145000000D03*
X98880000Y-142460000D03*
X98880000Y-139920000D03*
X98880000Y-137380000D03*
X98880000Y-134840000D03*
X98880000Y-132300000D03*
D19*
X50620000Y-141440000D03*
D20*
X50620000Y-143980000D03*
X50620000Y-146520000D03*
X50620000Y-149060000D03*
X50620000Y-151600000D03*
X50620000Y-154140000D03*
X50620000Y-156680000D03*
X50620000Y-159220000D03*
D21*
X43000000Y-131280000D03*
D22*
X45540000Y-131280000D03*
X43000000Y-133820000D03*
X45540000Y-133820000D03*
X43000000Y-136360000D03*
X45540000Y-136360000D03*
X43000000Y-138900000D03*
X45540000Y-138900000D03*
X43000000Y-141440000D03*
X45540000Y-141440000D03*
X43000000Y-143980000D03*
X45540000Y-143980000D03*
X43000000Y-146520000D03*
X45540000Y-146520000D03*
X43000000Y-149060000D03*
X45540000Y-149060000D03*
X43000000Y-151600000D03*
X45540000Y-151600000D03*
X43000000Y-154140000D03*
X45540000Y-154140000D03*
X43000000Y-156680000D03*
X45540000Y-156680000D03*
X43000000Y-159220000D03*
X45540000Y-159220000D03*
X43000000Y-161760000D03*
X45540000Y-161760000D03*
X43000000Y-164300000D03*
X45540000Y-164300000D03*
X43000000Y-166840000D03*
X45540000Y-166840000D03*
X43000000Y-169380000D03*
X45540000Y-169380000D03*
X43000000Y-171920000D03*
X45540000Y-171920000D03*
X43000000Y-174460000D03*
X45540000Y-174460000D03*
X43000000Y-177000000D03*
X45540000Y-177000000D03*
D19*
X50620000Y-164300000D03*
D20*
X50620000Y-166840000D03*
X50620000Y-169380000D03*
X50620000Y-171920000D03*
X50620000Y-174460000D03*
X50620000Y-177000000D03*
D19*
X98880000Y-177000000D03*
D20*
X98880000Y-174460000D03*
X98880000Y-171920000D03*
X98880000Y-169380000D03*
X98880000Y-166840000D03*
X98880000Y-164300000D03*
X98880000Y-161760000D03*
X98880000Y-159220000D03*
D21*
X103960000Y-131280000D03*
D22*
X106500000Y-131280000D03*
X103960000Y-133820000D03*
X106500000Y-133820000D03*
X103960000Y-136360000D03*
X106500000Y-136360000D03*
X103960000Y-138900000D03*
X106500000Y-138900000D03*
X103960000Y-141440000D03*
X106500000Y-141440000D03*
X103960000Y-143980000D03*
X106500000Y-143980000D03*
X103960000Y-146520000D03*
X106500000Y-146520000D03*
X103960000Y-149060000D03*
X106500000Y-149060000D03*
X103960000Y-151600000D03*
X106500000Y-151600000D03*
X103960000Y-154140000D03*
X106500000Y-154140000D03*
X103960000Y-156680000D03*
X106500000Y-156680000D03*
X103960000Y-159220000D03*
X106500000Y-159220000D03*
X103960000Y-161760000D03*
X106500000Y-161760000D03*
X103960000Y-164300000D03*
X106500000Y-164300000D03*
X103960000Y-166840000D03*
X106500000Y-166840000D03*
X103960000Y-169380000D03*
X106500000Y-169380000D03*
X103960000Y-171920000D03*
X106500000Y-171920000D03*
X103960000Y-174460000D03*
X106500000Y-174460000D03*
X103960000Y-177000000D03*
X106500000Y-177000000D03*
%TD*%
D15*
%TO.C,U2*%
X376240000Y-88030000D03*
X377510000Y-164230000D03*
X409260000Y-140100000D03*
X423230000Y-164230000D03*
X424500000Y-89300000D03*
D16*
X421960000Y-92856000D03*
D17*
X424500000Y-92856000D03*
X421960000Y-95396000D03*
X424500000Y-95396000D03*
X421960000Y-97936000D03*
X424500000Y-97936000D03*
X421960000Y-100476000D03*
X424500000Y-100476000D03*
X421960000Y-103016000D03*
X424500000Y-103016000D03*
X421960000Y-105556000D03*
X424500000Y-105556000D03*
X421960000Y-108096000D03*
X424500000Y-108096000D03*
X421960000Y-110636000D03*
X424500000Y-110636000D03*
X421960000Y-113176000D03*
X424500000Y-113176000D03*
X421960000Y-115716000D03*
X424500000Y-115716000D03*
D16*
X376240000Y-102000000D03*
D17*
X378780000Y-102000000D03*
X376240000Y-104540000D03*
X378780000Y-104540000D03*
X376240000Y-107080000D03*
X378780000Y-107080000D03*
X376240000Y-109620000D03*
X378780000Y-109620000D03*
X376240000Y-112160000D03*
X378780000Y-112160000D03*
X376240000Y-114700000D03*
X378780000Y-114700000D03*
X376240000Y-117240000D03*
X378780000Y-117240000D03*
X376240000Y-119780000D03*
X378780000Y-119780000D03*
D16*
X376240000Y-124860000D03*
D17*
X378780000Y-124860000D03*
X376240000Y-127400000D03*
X378780000Y-127400000D03*
X376240000Y-129940000D03*
X378780000Y-129940000D03*
X376240000Y-132480000D03*
X378780000Y-132480000D03*
X376240000Y-135020000D03*
X378780000Y-135020000D03*
X376240000Y-137560000D03*
X378780000Y-137560000D03*
X376240000Y-140100000D03*
X378780000Y-140100000D03*
X376240000Y-142640000D03*
X378780000Y-142640000D03*
X376240000Y-145180000D03*
X378780000Y-145180000D03*
X376240000Y-147720000D03*
X378780000Y-147720000D03*
X376240000Y-150260000D03*
X378780000Y-150260000D03*
X376240000Y-152800000D03*
X378780000Y-152800000D03*
X376240000Y-155340000D03*
X378780000Y-155340000D03*
X376240000Y-157880000D03*
X378780000Y-157880000D03*
X376240000Y-160420000D03*
X378780000Y-160420000D03*
D16*
X421960000Y-119780000D03*
D17*
X424500000Y-119780000D03*
X421960000Y-122320000D03*
X424500000Y-122320000D03*
X421960000Y-124860000D03*
X424500000Y-124860000D03*
X421960000Y-127400000D03*
X424500000Y-127400000D03*
X421960000Y-129940000D03*
X424500000Y-129940000D03*
X421960000Y-132480000D03*
X424500000Y-132480000D03*
X421960000Y-135020000D03*
X424500000Y-135020000D03*
X421960000Y-137560000D03*
X424500000Y-137560000D03*
X421960000Y-140100000D03*
X424500000Y-140100000D03*
X421960000Y-142640000D03*
X424500000Y-142640000D03*
X421960000Y-145180000D03*
X424500000Y-145180000D03*
X421960000Y-147720000D03*
X424500000Y-147720000D03*
X421960000Y-150260000D03*
X424500000Y-150260000D03*
X421960000Y-152800000D03*
X424500000Y-152800000D03*
X421960000Y-155340000D03*
X424500000Y-155340000D03*
X421960000Y-157880000D03*
X424500000Y-157880000D03*
X421960000Y-160420000D03*
X424500000Y-160420000D03*
D16*
X368620000Y-91840000D03*
D17*
X371160000Y-91840000D03*
X368620000Y-94380000D03*
X371160000Y-94380000D03*
X368620000Y-96920000D03*
X371160000Y-96920000D03*
X368620000Y-99460000D03*
X371160000Y-99460000D03*
X368620000Y-102000000D03*
X371160000Y-102000000D03*
X368620000Y-104540000D03*
X371160000Y-104540000D03*
X368620000Y-107080000D03*
X371160000Y-107080000D03*
X368620000Y-109620000D03*
X371160000Y-109620000D03*
X368620000Y-112160000D03*
X371160000Y-112160000D03*
X368620000Y-114700000D03*
X371160000Y-114700000D03*
X368620000Y-117240000D03*
X371160000Y-117240000D03*
X368620000Y-119780000D03*
X371160000Y-119780000D03*
X368620000Y-122320000D03*
X371160000Y-122320000D03*
X368620000Y-124860000D03*
X371160000Y-124860000D03*
X368620000Y-127400000D03*
X371160000Y-127400000D03*
X368620000Y-129940000D03*
X371160000Y-129940000D03*
X368620000Y-132480000D03*
X371160000Y-132480000D03*
X368620000Y-135020000D03*
X371160000Y-135020000D03*
X368620000Y-137560000D03*
X371160000Y-137560000D03*
X368620000Y-140100000D03*
X371160000Y-140100000D03*
X368620000Y-142640000D03*
X371160000Y-142640000D03*
X368620000Y-145180000D03*
X371160000Y-145180000D03*
X368620000Y-147720000D03*
X371160000Y-147720000D03*
X368620000Y-150260000D03*
X371160000Y-150260000D03*
X368620000Y-152800000D03*
X371160000Y-152800000D03*
X368620000Y-155340000D03*
X371160000Y-155340000D03*
X368620000Y-157880000D03*
X371160000Y-157880000D03*
X368620000Y-160420000D03*
X371160000Y-160420000D03*
X368620000Y-162960000D03*
X371160000Y-162960000D03*
X368620000Y-165500000D03*
X371160000Y-165500000D03*
X368620000Y-168040000D03*
X371160000Y-168040000D03*
X368620000Y-170580000D03*
X371160000Y-170580000D03*
X368620000Y-173120000D03*
X371160000Y-173120000D03*
X368620000Y-175660000D03*
X371160000Y-175660000D03*
X368620000Y-178200000D03*
X371160000Y-178200000D03*
X368620000Y-180740000D03*
X371160000Y-180740000D03*
D16*
X429580000Y-91860000D03*
D17*
X432120000Y-91860000D03*
X429580000Y-94400000D03*
X432120000Y-94400000D03*
X429580000Y-96940000D03*
X432120000Y-96940000D03*
X429580000Y-99480000D03*
X432120000Y-99480000D03*
X429580000Y-102020000D03*
X432120000Y-102020000D03*
X429580000Y-104560000D03*
X432120000Y-104560000D03*
X429580000Y-107100000D03*
X432120000Y-107100000D03*
X429580000Y-109640000D03*
X432120000Y-109640000D03*
X429580000Y-112180000D03*
X432120000Y-112180000D03*
X429580000Y-114720000D03*
X432120000Y-114720000D03*
X429580000Y-117260000D03*
X432120000Y-117260000D03*
X429580000Y-119800000D03*
X432120000Y-119800000D03*
X429580000Y-122340000D03*
X432120000Y-122340000D03*
X429580000Y-124880000D03*
X432120000Y-124880000D03*
X429580000Y-127420000D03*
X432120000Y-127420000D03*
X429580000Y-129960000D03*
X432120000Y-129960000D03*
X429580000Y-132500000D03*
X432120000Y-132500000D03*
X429580000Y-135040000D03*
X432120000Y-135040000D03*
X429580000Y-137580000D03*
X432120000Y-137580000D03*
X429580000Y-140120000D03*
X432120000Y-140120000D03*
X429580000Y-142660000D03*
X432120000Y-142660000D03*
X429580000Y-145200000D03*
X432120000Y-145200000D03*
X429580000Y-147740000D03*
X432120000Y-147740000D03*
X429580000Y-150280000D03*
X432120000Y-150280000D03*
X429580000Y-152820000D03*
X432120000Y-152820000D03*
X429580000Y-155360000D03*
X432120000Y-155360000D03*
X429580000Y-157900000D03*
X432120000Y-157900000D03*
X429580000Y-160440000D03*
X432120000Y-160440000D03*
X429580000Y-162980000D03*
X432120000Y-162980000D03*
X429580000Y-165520000D03*
X432120000Y-165520000D03*
X429580000Y-168060000D03*
X432120000Y-168060000D03*
X429580000Y-170600000D03*
X432120000Y-170600000D03*
X429580000Y-173140000D03*
X432120000Y-173140000D03*
X429580000Y-175680000D03*
X432120000Y-175680000D03*
X429580000Y-178220000D03*
X432120000Y-178220000D03*
X429580000Y-180760000D03*
X432120000Y-180760000D03*
%TD*%
D23*
X34180000Y-200880000D02*
G75*
G02*
X29180000Y-195880000I0J5000000D01*
G01*
X29180000Y-195880000D02*
X29180000Y-54880000D01*
X34180000Y-49880000D02*
X560180000Y-49951068D01*
X560180000Y-200880000D02*
X34180000Y-200880000D01*
X565180000Y-195880000D02*
G75*
G02*
X560180000Y-200880000I-5000000J0D01*
G01*
X565180000Y-54951068D02*
X565180000Y-195880000D01*
X29180000Y-54880000D02*
G75*
G02*
X34180000Y-49880000I5000000J0D01*
G01*
X560180000Y-49951068D02*
G75*
G02*
X565180032Y-54951068I0J-5000032D01*
G01*
M02*
