M48
; DRILL file {KiCad 9.0.2+dfsg-1} date 2025-07-09T20:59:58-0700
; FORMAT={-:-/ absolute / inch / decimal}
; #@! TF.CreationDate,2025-07-09T20:59:58-07:00
; #@! TF.GenerationSoftware,Kicad,Pcbnew,9.0.2+dfsg-1
; #@! TF.FileFunction,Plated,1,4,PTH
FMAT,2
INCH
; #@! TA.AperFunction,Plated,PTH,ViaDrill
T1C0.0118
; #@! TA.AperFunction,Plated,PTH,ViaDrill
T2C0.0157
; #@! TA.AperFunction,Plated,PTH,ComponentDrill
T3C0.0197
; #@! TA.AperFunction,Plated,PTH,ComponentDrill
T4C0.0295
; #@! TA.AperFunction,Plated,PTH,ComponentDrill
T5C0.0300
; #@! TA.AperFunction,Plated,PTH,ComponentDrill
T6C0.0315
; #@! TA.AperFunction,Plated,PTH,ComponentDrill
T7C0.0354
; #@! TA.AperFunction,Plated,PTH,ComponentDrill
T8C0.0394
; #@! TA.AperFunction,Plated,PTH,ComponentDrill
T9C0.0402
; #@! TA.AperFunction,Plated,PTH,ComponentDrill
T10C0.0421
; #@! TA.AperFunction,Plated,PTH,ComponentDrill
T11C0.0472
%
G90
G05
T1
X7.4799Y-5.5764
X7.486Y-4.091
X7.5633Y-5.9181
X7.5844Y-4.1744
X7.6186Y-3.8629
X7.6475Y-5.9449
X7.7087Y-5.7008
X7.7509Y-5.9315
X7.8653Y-3.7918
X7.8653Y-4.0928
X7.8653Y-4.2861
X7.9361Y-5.9433
X7.9824Y-3.9178
X8.0761Y-1.3589
X8.1031Y-7.0165
X8.1458Y-1.5116
X8.1535Y-5.6181
X8.1772Y-5.7165
X8.2184Y-5.8688
X8.4503Y-5.622
X8.4503Y-5.7072
X8.4983Y-3.6314
X8.5057Y-4.049
X8.5118Y-4.1024
X8.5199Y-4.1811
X8.5238Y-3.748
X8.5906Y-3.748
X8.5906Y-4.0866
X8.6069Y-3.479
X8.7264Y-1.797
X8.7271Y-1.6691
X8.7279Y-1.9348
X8.7605Y-6.5303
X8.7717Y-3.9291
X8.7717Y-4.3581
X8.7953Y-4.0315
X8.8004Y-3.659
X8.8445Y-1.4821
X8.8629Y-4.5788
X8.8896Y-4.0947
X8.8937Y-2.3325
X8.9055Y-3.6299
X8.9431Y-2.237
X8.9528Y-4.1732
X8.9528Y-4.2764
X8.9593Y-3.7467
X8.9878Y-4.091
X8.9884Y-3.8305
X8.9884Y-4.2598
X9.0596Y-2.5298
X9.061Y-1.8266
X9.0827Y-2.3325
X9.1102Y-1.7085
X9.1371Y-3.6626
X9.158Y-2.6273
X9.2325Y-3.8819
X9.2325Y-4.315
X9.3112Y-3.685
X9.3112Y-4.1102
X9.3348Y-3.6457
X9.3348Y-4.0709
X9.3898Y-1.3878
X9.5079Y-1.9882
X9.5253Y-3.8973
X9.5789Y-4.0394
X9.6405Y-3.9921
X9.6813Y-3.7953
X9.7795Y-4.2244
X9.7944Y-2.0954
X9.8228Y-2.7362
X9.8819Y-1.6634
X10.4365Y-5.5546
X10.551Y-4.9534
X10.813Y-5.9705
X11.1402Y-3.6642
X11.2417Y-3.9332
X11.2947Y-2.0834
X11.2992Y-6.9528
X11.3056Y-5.9449
X11.3056Y-6.1452
X11.3433Y-1.4996
X11.3472Y-1.3854
X11.3896Y-5.7248
X11.3995Y-5.9506
X11.3995Y-6.17
X11.4034Y-5.5839
X11.4034Y-5.7606
X11.9508Y-1.8071
X11.9515Y-1.6791
X11.9523Y-1.9449
X11.9836Y-2.237
X12.0689Y-1.4921
X12.1181Y-2.3425
X12.2933Y-6.9206
X12.3051Y-1.7421
X12.3071Y-2.3425
X12.3071Y-1.6262
X12.3346Y-1.7185
X12.4754Y-6.9206
X12.5059Y-1.4272
X12.5118Y-1.811
X12.6102Y-1.3937
X12.6874Y-3.907
X12.797Y-3.6031
X12.802Y-7.1123
X12.815Y-6.7913
X13.4844Y-5.9439
X13.4978Y-5.7086
X13.5838Y-5.9449
X13.6297Y-4.5903
X13.6951Y-4.4813
X13.9772Y-1.3589
X14.0755Y-5.2711
X14.1739Y-5.0591
X14.1745Y-4.8788
X14.3423Y-5.0632
X14.3423Y-5.2366
X14.3442Y-4.7348
X14.3442Y-4.8873
X14.4331Y-6.9843
X14.5315Y-6.5669
X14.5374Y-6.9508
X14.655Y-3.404
X14.6656Y-2.2615
X14.6656Y-4.8716
X14.7087Y-6.6594
X14.7349Y-2.4322
X14.7362Y-6.0354
X14.7382Y-6.6358
X14.7491Y-6.7513
X14.764Y-1.264
X14.9252Y-6.0354
X14.9607Y-5.1369
X14.9744Y-6.8858
X14.9827Y-5.2252
X15.0Y-5.0394
X15.0345Y-1.5159
X15.059Y-5.3936
X15.0821Y-5.1643
X15.091Y-6.4331
X15.0918Y-6.6988
X15.0925Y-6.5709
X15.1212Y-4.995
X15.1657Y-4.9902
X15.2398Y-4.8339
X15.5529Y-1.935
X15.5529Y-2.2313
X15.6186Y-4.9276
X15.638Y-4.8804
X15.6604Y-4.8163
X15.6828Y-4.8384
X15.7087Y-7.0039
X15.7126Y-6.8858
X15.7516Y-4.4929
X15.7529Y-4.4556
X15.7692Y-4.9436
X15.8458Y-4.8716
X15.876Y-3.2469
X15.9443Y-4.9436
X15.9491Y-4.6764
X15.9723Y-4.7461
X16.0422Y-4.5788
X16.0531Y-3.9934
X16.1447Y-3.892
X16.1703Y-3.8141
X16.1999Y-3.9721
X16.2392Y-4.5068
X16.3049Y-3.6704
X16.3274Y-4.1081
X16.3332Y-2.9578
X16.3784Y-1.4755
X16.4237Y-6.14
X16.4354Y-6.0337
X16.6448Y-5.7139
X16.6476Y-1.502
X16.6516Y-1.3878
X16.6564Y-3.0885
X16.8561Y-5.7717
X16.8561Y-6.14
X16.8581Y-5.624
X16.8581Y-5.9722
X16.9764Y-2.0866
X17.2539Y-1.8071
X17.2547Y-1.6791
X17.2554Y-1.9449
X17.372Y-1.4921
X17.4194Y-6.9172
X17.4213Y-2.3425
X17.5178Y-3.9498
X17.5443Y-6.9206
X17.6083Y-1.7421
X17.6102Y-2.3425
X17.6161Y-1.6262
X17.6378Y-1.7185
X17.7264Y-6.9206
X17.8091Y-1.4272
X17.815Y-1.811
X17.9134Y-1.3937
X18.0787Y-6.7953
X18.4029Y-3.9609
X18.5103Y-2.0168
X18.6894Y-2.5259
X18.6936Y-3.9359
X18.6981Y-2.974
X18.7256Y-3.8627
X18.7329Y-2.974
X18.7963Y-5.9449
X18.8398Y-3.7018
X18.8625Y-2.4626
X18.8947Y-6.0425
X18.8965Y-4.9775
X18.9559Y-2.4322
X18.9681Y-3.3104
X19.1897Y-3.9934
X19.1969Y-5.362
X19.2768Y-3.1602
X19.3176Y-4.2288
X19.3194Y-3.771
X19.3898Y-4.5079
X19.406Y-5.7497
X19.5508Y-2.4322
X19.5736Y-2.1395
X19.6516Y-1.5079
X19.6555Y-1.3937
X19.6806Y-4.1224
X19.6806Y-4.2859
X19.6826Y-3.7895
X19.691Y-3.9043
X19.7158Y-1.5736
X19.8031Y-4.4488
X20.1732Y-3.9934
X20.1732Y-4.1702
X20.1748Y-4.2913
X20.1772Y-4.252
X20.1969Y-4.1339
X20.2551Y-2.1533
X20.2559Y-1.811
X20.2567Y-1.6831
X20.2574Y-1.9488
X20.3568Y-3.9387
X20.3677Y-3.7982
X20.374Y-1.4961
X20.4232Y-2.3465
X20.5666Y-4.2789
X20.6122Y-2.3465
X20.6398Y-1.7224
X20.7056Y-5.7497
X20.7225Y-4.0276
X20.7228Y-3.7134
X20.7953Y-1.7795
X20.8031Y-1.8268
X20.811Y-1.622
X20.8617Y-4.5788
X20.9154Y-1.3976
X20.9281Y-5.6228
X20.9345Y-4.2748
X21.0016Y-5.3275
X21.0308Y-4.8031
X21.0584Y-5.087
X21.1782Y-3.8958
X21.1993Y-5.096
X21.2408Y-4.5681
X21.2411Y-5.3469
X21.2415Y-5.1282
X21.2418Y-4.2861
X21.2448Y-4.8396
X21.2522Y-5.2141
X21.287Y-5.4785
X21.3653Y-4.85
X21.3786Y-4.3494
X21.3869Y-4.4885
X21.4075Y-1.6732
X21.4275Y-4.2674
X21.4373Y-5.0782
X21.4376Y-4.2994
X21.5724Y-5.3521
X21.573Y-4.7791
X21.5733Y-4.5622
X21.5744Y-5.6102
X21.618Y-5.2448
X21.6485Y-4.2061
X21.6485Y-4.4813
X21.6485Y-4.774
X21.6485Y-4.9868
X21.6485Y-5.0667
X21.6485Y-5.2619
X21.6485Y-5.5546
X21.6562Y-4.5622
X21.6562Y-5.3463
X21.6768Y-4.8415
X21.7114Y-5.6192
X21.7468Y-4.403
X21.7468Y-4.6676
X21.7468Y-5.1769
X21.7468Y-5.4546
X21.7799Y-4.169
T2
X7.5792Y-3.6847
X7.628Y-6.9528
X8.5492Y-1.5411
X8.9921Y-1.6002
X9.1168Y-3.8812
X9.154Y-4.1955
X9.2623Y-3.9772
X9.5514Y-2.3346
X10.0431Y-2.4565
X10.1402Y-3.0176
X11.3056Y-5.5546
X11.7736Y-1.5512
X12.2165Y-1.6102
X12.2963Y-6.7255
X12.3331Y-5.5523
X12.6003Y-3.1152
X12.8807Y-5.1643
X14.8268Y-6.7677
X14.9385Y-5.2619
X15.2697Y-6.8268
X15.4754Y-4.8442
X15.5508Y-4.4062
X16.3274Y-4.4736
X16.4477Y-5.5663
X16.5748Y-6.7717
X16.6249Y-2.1768
X16.6326Y-5.0024
X16.6453Y-4.4521
X17.0768Y-1.5512
X17.4194Y-6.8231
X17.5197Y-1.6102
X17.7145Y-5.2619
X17.9528Y-4.1776
X18.1079Y-1.6516
X19.288Y-4.2104
X19.3962Y-5.1643
X19.5831Y-4.5788
X20.0787Y-1.5551
X20.3695Y-3.887
X20.441Y-4.0888
X20.5217Y-1.6142
X21.1399Y-4.2183
X21.1592Y-3.771
X21.2317Y-5.5546
X21.2415Y-5.0667
X21.2462Y-5.2807
X21.4373Y-4.9868
X21.4376Y-5.6119
X21.441Y-4.8826
X21.5375Y-4.3999
X21.5381Y-4.6576
X21.5381Y-5.1787
X21.5731Y-5.5594
X21.5841Y-5.277
T3
X9.2421Y-1.3632
X9.2815Y-1.3632
X9.3209Y-1.3632
X9.6476Y-1.3685
X9.687Y-1.3685
X9.7264Y-1.3685
X9.7657Y-1.3685
X12.4665Y-1.3732
X12.5059Y-1.3732
X12.5453Y-1.3732
X12.8701Y-1.377
X12.9094Y-1.377
X12.9488Y-1.377
X12.9882Y-1.377
X14.498Y-7.0047
X14.5374Y-7.0047
X14.5768Y-7.0047
X17.7697Y-1.3732
X17.8091Y-1.3732
X17.8484Y-1.3732
X18.1713Y-1.377
X18.2106Y-1.377
X18.25Y-1.377
X18.2894Y-1.377
X20.7717Y-1.3772
X20.811Y-1.3772
X20.8504Y-1.3772
X21.951Y-4.2805
X21.951Y-4.3199
X21.951Y-4.5315
X21.951Y-4.5709
X21.951Y-4.7825
X21.951Y-4.8219
X21.951Y-5.0335
X21.951Y-5.0728
X21.951Y-5.2844
X21.951Y-5.3238
X21.951Y-5.548
X21.951Y-5.5874
T4
X9.252Y-2.4646
X9.352Y-2.4646
X12.2949Y-3.1776
X12.3949Y-3.1776
X17.5253Y-3.1804
X17.6253Y-3.1804
X20.8031Y-2.4252
X20.9031Y-2.4252
T5
X11.3287Y-7.0354
X11.4075Y-7.0354
X11.4862Y-7.0354
X11.565Y-7.0354
T6
X7.4213Y-4.9104
X7.4213Y-5.5104
X7.5213Y-4.9104
X7.5213Y-5.5104
X7.6213Y-4.9104
X7.6213Y-5.5104
X7.7213Y-4.9104
X7.7213Y-5.5104
X7.8213Y-4.9104
X7.8213Y-5.5104
X7.9724Y-4.9104
X7.9724Y-5.5104
X8.0724Y-4.9104
X8.0724Y-5.5104
X8.1724Y-4.9104
X8.1724Y-5.5104
X8.2724Y-4.9104
X8.2724Y-5.5104
X8.3724Y-4.9104
X8.3724Y-5.5104
X8.5205Y-4.9104
X8.5205Y-5.5104
X8.6205Y-4.9104
X8.6205Y-5.5104
X8.7205Y-4.9104
X8.7205Y-5.5104
X8.7878Y-2.1317
X8.8205Y-4.9104
X8.8205Y-5.5104
X8.9205Y-4.9104
X8.9205Y-5.5104
X8.9799Y-2.1317
X12.0122Y-2.1417
X12.2043Y-2.1417
X14.839Y-6.2362
X15.0311Y-6.2362
X17.3154Y-2.1417
X17.5075Y-2.1417
X19.4583Y-5.2921
X19.4583Y-5.3921
X19.4583Y-5.4921
X19.4583Y-5.5921
X19.4587Y-4.6197
X19.4587Y-4.7197
X19.4587Y-4.8197
X19.4587Y-4.9197
X19.7583Y-5.2921
X19.7583Y-5.3921
X19.7583Y-5.4921
X19.7583Y-5.5921
X19.7587Y-4.6197
X19.7587Y-4.7197
X19.7587Y-4.8197
X19.7587Y-4.9197
X20.0685Y-4.6031
X20.0685Y-4.9031
X20.0685Y-5.3
X20.0685Y-5.6
X20.1685Y-4.6031
X20.1685Y-4.9031
X20.1685Y-5.3
X20.1685Y-5.6
X20.2685Y-4.6031
X20.2685Y-4.9031
X20.2685Y-5.3
X20.2685Y-5.6
X20.3173Y-2.1457
X20.3685Y-4.6031
X20.3685Y-4.9031
X20.3685Y-5.3
X20.3685Y-5.6
X20.5094Y-2.1457
T8
X7.4614Y-6.0433
X7.4614Y-6.6433
X7.5614Y-6.0433
X7.5614Y-6.6433
X7.6115Y-6.1934
X7.6115Y-6.2934
X7.6115Y-6.3934
X7.6115Y-6.4934
X7.6614Y-6.0433
X7.6614Y-6.6433
X7.7614Y-6.0433
X7.7614Y-6.6433
X7.8614Y-6.0433
X7.8614Y-6.6433
X7.9614Y-6.0433
X7.9614Y-6.6433
X8.0614Y-6.0433
X8.0614Y-6.6433
X8.1614Y-6.0433
X8.1614Y-6.6433
X8.2614Y-6.0433
X8.2614Y-6.6433
X8.3614Y-6.0433
X8.3614Y-6.6433
X8.4614Y-6.0433
X8.4614Y-6.6433
X8.5614Y-6.0433
X8.5614Y-6.6433
X8.6614Y-6.0433
X8.6614Y-6.6433
X8.7614Y-6.0433
X8.7614Y-6.6433
X8.8614Y-6.0433
X8.8614Y-6.6433
X8.9614Y-6.0433
X8.9614Y-6.6433
X9.0614Y-6.0433
X9.0614Y-6.6433
X9.1614Y-6.0433
X9.1614Y-6.6433
X9.2614Y-6.0433
X9.2614Y-6.6433
X9.3614Y-6.0433
X9.3614Y-6.6433
X11.0921Y-1.424
X11.0921Y-1.524
X11.0921Y-1.624
X11.0921Y-1.724
X11.0921Y-1.824
X11.0921Y-1.924
X11.0921Y-2.024
X11.0921Y-2.124
X11.0921Y-2.224
X11.0921Y-2.324
X11.0921Y-2.424
X11.0921Y-2.524
X11.0921Y-2.624
X11.0921Y-2.724
X11.0921Y-2.824
X11.0921Y-2.924
X11.0921Y-3.024
X11.0921Y-3.124
X11.0921Y-3.224
X11.0921Y-3.324
X11.0921Y-3.424
X11.0921Y-3.524
X11.0921Y-3.624
X11.0921Y-3.724
X11.0921Y-3.824
X11.0921Y-3.924
X11.0921Y-4.024
X11.0921Y-4.124
X11.0921Y-4.224
X11.0921Y-4.324
X11.0921Y-4.424
X11.0921Y-4.524
X11.0921Y-4.624
X11.0921Y-4.724
X11.0921Y-4.824
X11.0921Y-4.924
X11.1921Y-1.424
X11.1921Y-1.524
X11.1921Y-1.624
X11.1921Y-1.724
X11.1921Y-1.824
X11.1921Y-1.924
X11.1921Y-2.024
X11.1921Y-2.124
X11.1921Y-2.224
X11.1921Y-2.324
X11.1921Y-2.424
X11.1921Y-2.524
X11.1921Y-2.624
X11.1921Y-2.724
X11.1921Y-2.824
X11.1921Y-2.924
X11.1921Y-3.024
X11.1921Y-3.124
X11.1921Y-3.224
X11.1921Y-3.324
X11.1921Y-3.424
X11.1921Y-3.524
X11.1921Y-3.624
X11.1921Y-3.724
X11.1921Y-3.824
X11.1921Y-3.924
X11.1921Y-4.024
X11.1921Y-4.124
X11.1921Y-4.224
X11.1921Y-4.324
X11.1921Y-4.424
X11.1921Y-4.524
X11.1921Y-4.624
X11.1921Y-4.724
X11.1921Y-4.824
X11.1921Y-4.924
X11.3921Y-1.824
X11.3921Y-1.924
X11.3921Y-2.024
X11.3921Y-2.124
X11.3921Y-2.224
X11.3921Y-2.324
X11.3921Y-2.424
X11.3921Y-2.524
X11.3921Y-2.724
X11.3921Y-2.824
X11.3921Y-2.924
X11.3921Y-3.024
X11.3921Y-3.124
X11.3921Y-3.224
X11.3921Y-3.324
X11.3921Y-3.424
X11.3921Y-3.524
X11.3921Y-3.624
X11.3921Y-3.724
X11.3921Y-3.824
X11.3921Y-3.924
X11.3921Y-4.024
X11.3921Y-4.124
X11.4921Y-1.824
X11.4921Y-1.924
X11.4921Y-2.024
X11.4921Y-2.124
X11.4921Y-2.224
X11.4921Y-2.324
X11.4921Y-2.424
X11.4921Y-2.524
X11.4921Y-2.724
X11.4921Y-2.824
X11.4921Y-2.924
X11.4921Y-3.024
X11.4921Y-3.124
X11.4921Y-3.224
X11.4921Y-3.324
X11.4921Y-3.424
X11.4921Y-3.524
X11.4921Y-3.624
X11.4921Y-3.724
X11.4921Y-3.824
X11.4921Y-3.924
X11.4921Y-4.024
X11.4921Y-4.124
X13.1921Y-1.464
X13.1921Y-1.564
X13.1921Y-1.664
X13.1921Y-1.764
X13.1921Y-1.864
X13.1921Y-1.964
X13.1921Y-2.064
X13.1921Y-2.164
X13.1921Y-2.264
X13.1921Y-2.364
X13.1921Y-2.524
X13.1921Y-2.624
X13.1921Y-2.724
X13.1921Y-2.824
X13.1921Y-2.924
X13.1921Y-3.024
X13.1921Y-3.124
X13.1921Y-3.224
X13.1921Y-3.324
X13.1921Y-3.424
X13.1921Y-3.524
X13.1921Y-3.624
X13.1921Y-3.724
X13.1921Y-3.824
X13.1921Y-3.924
X13.1921Y-4.024
X13.1921Y-4.124
X13.2921Y-1.464
X13.2921Y-1.564
X13.2921Y-1.664
X13.2921Y-1.764
X13.2921Y-1.864
X13.2921Y-1.964
X13.2921Y-2.064
X13.2921Y-2.164
X13.2921Y-2.264
X13.2921Y-2.364
X13.2921Y-2.524
X13.2921Y-2.624
X13.2921Y-2.724
X13.2921Y-2.824
X13.2921Y-2.924
X13.2921Y-3.024
X13.2921Y-3.124
X13.2921Y-3.224
X13.2921Y-3.324
X13.2921Y-3.424
X13.2921Y-3.524
X13.2921Y-3.624
X13.2921Y-3.724
X13.2921Y-3.824
X13.2921Y-3.924
X13.2921Y-4.024
X13.2921Y-4.124
X13.4921Y-1.4248
X13.4921Y-1.5248
X13.4921Y-1.6248
X13.4921Y-1.7248
X13.4921Y-1.8248
X13.4921Y-1.9248
X13.4921Y-2.0248
X13.4921Y-2.1248
X13.4921Y-2.2248
X13.4921Y-2.3248
X13.4921Y-2.4248
X13.4921Y-2.5248
X13.4921Y-2.6248
X13.4921Y-2.7248
X13.4921Y-2.8248
X13.4921Y-2.9248
X13.4921Y-3.0248
X13.4921Y-3.1248
X13.4921Y-3.2248
X13.4921Y-3.3248
X13.4921Y-3.4248
X13.4921Y-3.5248
X13.4921Y-3.6248
X13.4921Y-3.7248
X13.4921Y-3.8248
X13.4921Y-3.9248
X13.4921Y-4.0248
X13.4921Y-4.1248
X13.4921Y-4.2248
X13.4921Y-4.3248
X13.4921Y-4.4248
X13.4921Y-4.5248
X13.4921Y-4.6248
X13.4921Y-4.7248
X13.4921Y-4.8248
X13.4921Y-4.9248
X13.5921Y-1.4248
X13.5921Y-1.5248
X13.5921Y-1.6248
X13.5921Y-1.7248
X13.5921Y-1.8248
X13.5921Y-1.9248
X13.5921Y-2.0248
X13.5921Y-2.1248
X13.5921Y-2.2248
X13.5921Y-2.3248
X13.5921Y-2.4248
X13.5921Y-2.5248
X13.5921Y-2.6248
X13.5921Y-2.7248
X13.5921Y-2.8248
X13.5921Y-2.9248
X13.5921Y-3.0248
X13.5921Y-3.1248
X13.5921Y-3.2248
X13.5921Y-3.3248
X13.5921Y-3.4248
X13.5921Y-3.5248
X13.5921Y-3.6248
X13.5921Y-3.7248
X13.5921Y-3.8248
X13.5921Y-3.9248
X13.5921Y-4.0248
X13.5921Y-4.1248
X13.5921Y-4.2248
X13.5921Y-4.3248
X13.5921Y-4.4248
X13.5921Y-4.5248
X13.5921Y-4.6248
X13.5921Y-4.7248
X13.5921Y-4.8248
X13.5921Y-4.9248
X14.2004Y-1.8803
X14.2004Y-1.9803
X14.2004Y-2.0803
X14.2004Y-2.1803
X14.2004Y-2.2803
X14.2004Y-2.3803
X14.2004Y-2.4803
X14.2004Y-2.5803
X14.2004Y-2.6803
X14.2004Y-2.7803
X14.2004Y-2.8803
X14.2004Y-2.9803
X14.2004Y-3.0803
X14.2004Y-3.1803
X14.2004Y-3.2803
X14.2004Y-3.3803
X14.2004Y-3.4803
X14.2004Y-3.5803
X14.2004Y-3.6803
X14.2004Y-3.7803
X14.2004Y-3.8803
X14.2004Y-3.9803
X14.2004Y-4.0803
X14.2004Y-4.1803
X14.5547Y-1.8803
X14.5547Y-1.9803
X14.5547Y-2.0803
X14.5547Y-2.1803
X14.5547Y-2.2803
X14.5547Y-2.3803
X14.5547Y-2.4803
X14.5547Y-2.5803
X14.5547Y-2.6803
X14.5547Y-2.7803
X14.5547Y-2.8803
X14.5547Y-2.9803
X14.5547Y-3.0803
X14.5547Y-3.1803
X14.5547Y-3.2803
X14.5547Y-3.3803
X14.5547Y-3.4803
X14.5547Y-3.5803
X14.5547Y-3.6803
X14.5547Y-3.7803
X14.5547Y-3.8803
X14.5547Y-3.9803
X14.5547Y-4.0803
X14.5547Y-4.1803
X15.4724Y-1.8803
X15.4724Y-1.9803
X15.4724Y-2.0803
X15.4724Y-2.1803
X15.4724Y-2.2803
X15.4724Y-2.3803
X15.4724Y-2.4803
X15.4724Y-2.5803
X15.4724Y-2.6803
X15.4724Y-2.7803
X15.4724Y-2.8803
X15.4724Y-2.9803
X15.4724Y-3.0803
X15.4724Y-3.1803
X15.4724Y-3.2803
X15.4724Y-3.3803
X15.4724Y-3.4803
X15.4724Y-3.5803
X15.4724Y-3.6803
X15.4724Y-3.7803
X15.4724Y-3.8803
X15.4724Y-3.9803
X15.4724Y-4.0803
X15.4724Y-4.1803
X15.8268Y-1.8787
X15.8268Y-1.9787
X15.8268Y-2.0787
X15.8268Y-2.1787
X15.8268Y-2.2787
X15.8268Y-2.3787
X15.8268Y-2.4787
X15.8268Y-2.5787
X15.8268Y-2.6787
X15.8268Y-2.7787
X15.8268Y-2.8787
X15.8268Y-2.9787
X15.8268Y-3.0787
X15.8268Y-3.1787
X15.8268Y-3.2787
X15.8268Y-3.3787
X15.8268Y-3.4787
X15.8268Y-3.5787
X15.8268Y-3.6787
X15.8268Y-3.7787
X15.8268Y-3.8787
X15.8268Y-3.9787
X15.8268Y-4.0787
X15.8268Y-4.1787
X16.3961Y-1.4268
X16.3961Y-1.5268
X16.3961Y-1.6268
X16.3961Y-1.7268
X16.3961Y-1.8268
X16.3961Y-1.9268
X16.3961Y-2.0268
X16.3961Y-2.1268
X16.3961Y-2.2268
X16.3961Y-2.3268
X16.3961Y-2.4268
X16.3961Y-2.5268
X16.3961Y-2.6268
X16.3961Y-2.7268
X16.3961Y-2.8268
X16.3961Y-2.9268
X16.3961Y-3.0268
X16.3961Y-3.1268
X16.3961Y-3.2268
X16.3961Y-3.3268
X16.3961Y-3.4268
X16.3961Y-3.5268
X16.3961Y-3.6268
X16.3961Y-3.7268
X16.3961Y-3.8268
X16.3961Y-3.9268
X16.3961Y-4.0268
X16.3961Y-4.1268
X16.3961Y-4.2268
X16.3961Y-4.3268
X16.3961Y-4.4268
X16.3961Y-4.5268
X16.3961Y-4.6268
X16.3961Y-4.7268
X16.3961Y-4.8268
X16.3961Y-4.9268
X16.4961Y-1.4268
X16.4961Y-1.5268
X16.4961Y-1.6268
X16.4961Y-1.7268
X16.4961Y-1.8268
X16.4961Y-1.9268
X16.4961Y-2.0268
X16.4961Y-2.1268
X16.4961Y-2.2268
X16.4961Y-2.3268
X16.4961Y-2.4268
X16.4961Y-2.5268
X16.4961Y-2.6268
X16.4961Y-2.7268
X16.4961Y-2.8268
X16.4961Y-2.9268
X16.4961Y-3.0268
X16.4961Y-3.1268
X16.4961Y-3.2268
X16.4961Y-3.3268
X16.4961Y-3.4268
X16.4961Y-3.5268
X16.4961Y-3.6268
X16.4961Y-3.7268
X16.4961Y-3.8268
X16.4961Y-3.9268
X16.4961Y-4.0268
X16.4961Y-4.1268
X16.4961Y-4.2268
X16.4961Y-4.3268
X16.4961Y-4.4268
X16.4961Y-4.5268
X16.4961Y-4.6268
X16.4961Y-4.7268
X16.4961Y-4.8268
X16.4961Y-4.9268
X16.6961Y-1.8268
X16.6961Y-1.9268
X16.6961Y-2.0268
X16.6961Y-2.1268
X16.6961Y-2.2268
X16.6961Y-2.3268
X16.6961Y-2.4268
X16.6961Y-2.5268
X16.6961Y-2.7268
X16.6961Y-2.8268
X16.6961Y-2.9268
X16.6961Y-3.0268
X16.6961Y-3.1268
X16.6961Y-3.2268
X16.6961Y-3.3268
X16.6961Y-3.4268
X16.6961Y-3.5268
X16.6961Y-3.6268
X16.6961Y-3.7268
X16.6961Y-3.8268
X16.6961Y-3.9268
X16.6961Y-4.0268
X16.6961Y-4.1268
X16.7961Y-1.8268
X16.7961Y-1.9268
X16.7961Y-2.0268
X16.7961Y-2.1268
X16.7961Y-2.2268
X16.7961Y-2.3268
X16.7961Y-2.4268
X16.7961Y-2.5268
X16.7961Y-2.7268
X16.7961Y-2.8268
X16.7961Y-2.9268
X16.7961Y-3.0268
X16.7961Y-3.1268
X16.7961Y-3.2268
X16.7961Y-3.3268
X16.7961Y-3.4268
X16.7961Y-3.5268
X16.7961Y-3.6268
X16.7961Y-3.7268
X16.7961Y-3.8268
X16.7961Y-3.9268
X16.7961Y-4.0268
X16.7961Y-4.1268
X18.4961Y-1.4668
X18.4961Y-1.5668
X18.4961Y-1.6668
X18.4961Y-1.7668
X18.4961Y-1.8668
X18.4961Y-1.9668
X18.4961Y-2.0668
X18.4961Y-2.1668
X18.4961Y-2.2668
X18.4961Y-2.3668
X18.4961Y-2.5268
X18.4961Y-2.6268
X18.4961Y-2.7268
X18.4961Y-2.8268
X18.4961Y-2.9268
X18.4961Y-3.0268
X18.4961Y-3.1268
X18.4961Y-3.2268
X18.4961Y-3.3268
X18.4961Y-3.4268
X18.4961Y-3.5268
X18.4961Y-3.6268
X18.4961Y-3.7268
X18.4961Y-3.8268
X18.4961Y-3.9268
X18.4961Y-4.0268
X18.4961Y-4.1268
X18.5961Y-1.4668
X18.5961Y-1.5668
X18.5961Y-1.6668
X18.5961Y-1.7668
X18.5961Y-1.8668
X18.5961Y-1.9668
X18.5961Y-2.0668
X18.5961Y-2.1668
X18.5961Y-2.2668
X18.5961Y-2.3668
X18.5961Y-2.5268
X18.5961Y-2.6268
X18.5961Y-2.7268
X18.5961Y-2.8268
X18.5961Y-2.9268
X18.5961Y-3.0268
X18.5961Y-3.1268
X18.5961Y-3.2268
X18.5961Y-3.3268
X18.5961Y-3.4268
X18.5961Y-3.5268
X18.5961Y-3.6268
X18.5961Y-3.7268
X18.5961Y-3.8268
X18.5961Y-3.9268
X18.5961Y-4.0268
X18.5961Y-4.1268
X18.7961Y-1.4276
X18.7961Y-1.5276
X18.7961Y-1.6276
X18.7961Y-1.7276
X18.7961Y-1.8276
X18.7961Y-1.9276
X18.7961Y-2.0276
X18.7961Y-2.1276
X18.7961Y-2.2276
X18.7961Y-2.3276
X18.7961Y-2.4276
X18.7961Y-2.5276
X18.7961Y-2.6276
X18.7961Y-2.7276
X18.7961Y-2.8276
X18.7961Y-2.9276
X18.7961Y-3.0276
X18.7961Y-3.1276
X18.7961Y-3.2276
X18.7961Y-3.3276
X18.7961Y-3.4276
X18.7961Y-3.5276
X18.7961Y-3.6276
X18.7961Y-3.7276
X18.7961Y-3.8276
X18.7961Y-3.9276
X18.7961Y-4.0276
X18.7961Y-4.1276
X18.7961Y-4.2276
X18.7961Y-4.3276
X18.7961Y-4.4276
X18.7961Y-4.5276
X18.7961Y-4.6276
X18.7961Y-4.7276
X18.7961Y-4.8276
X18.7961Y-4.9276
X18.8961Y-1.4276
X18.8961Y-1.5276
X18.8961Y-1.6276
X18.8961Y-1.7276
X18.8961Y-1.8276
X18.8961Y-1.9276
X18.8961Y-2.0276
X18.8961Y-2.1276
X18.8961Y-2.2276
X18.8961Y-2.3276
X18.8961Y-2.4276
X18.8961Y-2.5276
X18.8961Y-2.6276
X18.8961Y-2.7276
X18.8961Y-2.8276
X18.8961Y-2.9276
X18.8961Y-3.0276
X18.8961Y-3.1276
X18.8961Y-3.2276
X18.8961Y-3.3276
X18.8961Y-3.4276
X18.8961Y-3.5276
X18.8961Y-3.6276
X18.8961Y-3.7276
X18.8961Y-3.8276
X18.8961Y-3.9276
X18.8961Y-4.0276
X18.8961Y-4.1276
X18.8961Y-4.2276
X18.8961Y-4.3276
X18.8961Y-4.4276
X18.8961Y-4.5276
X18.8961Y-4.6276
X18.8961Y-4.7276
X18.8961Y-4.8276
X18.8961Y-4.9276
T9
X7.8181Y-1.4602
X7.8181Y-1.5602
X7.8181Y-1.6602
X7.8181Y-1.7602
X7.8181Y-1.8602
X7.8181Y-1.9602
X7.8181Y-2.0602
X7.8181Y-2.1602
X7.8181Y-2.2602
X7.8181Y-2.3602
X7.8181Y-2.4602
X7.8181Y-2.5602
X7.8181Y-2.6602
X7.8181Y-2.7602
X7.8181Y-2.8602
X7.8181Y-2.9602
X7.8181Y-3.0602
X7.8181Y-3.1602
X7.8181Y-3.2602
X7.9181Y-1.4602
X7.9181Y-1.5602
X7.9181Y-1.6602
X7.9181Y-1.7602
X7.9181Y-1.8602
X7.9181Y-1.9602
X7.9181Y-2.0602
X7.9181Y-2.1602
X7.9181Y-2.2602
X7.9181Y-2.3602
X7.9181Y-2.4602
X7.9181Y-2.5602
X7.9181Y-2.6602
X7.9181Y-2.7602
X7.9181Y-2.8602
X7.9181Y-2.9602
X7.9181Y-3.0602
X7.9181Y-3.1602
X7.9181Y-3.2602
X10.2181Y-1.4602
X10.2181Y-1.5602
X10.2181Y-1.6602
X10.2181Y-1.7602
X10.2181Y-1.8602
X10.2181Y-1.9602
X10.2181Y-2.0602
X10.2181Y-2.1602
X10.2181Y-2.2602
X10.2181Y-2.3602
X10.2181Y-2.4602
X10.2181Y-2.5602
X10.2181Y-2.6602
X10.2181Y-2.7602
X10.2181Y-2.8602
X10.2181Y-2.9602
X10.2181Y-3.0602
X10.2181Y-3.1602
X10.2181Y-3.2602
X10.3181Y-1.4602
X10.3181Y-1.5602
X10.3181Y-1.6602
X10.3181Y-1.7602
X10.3181Y-1.8602
X10.3181Y-1.9602
X10.3181Y-2.0602
X10.3181Y-2.1602
X10.3181Y-2.2602
X10.3181Y-2.3602
X10.3181Y-2.4602
X10.3181Y-2.5602
X10.3181Y-2.6602
X10.3181Y-2.7602
X10.3181Y-2.8602
X10.3181Y-2.9602
X10.3181Y-3.0602
X10.3181Y-3.1602
X10.3181Y-3.2602
X19.3449Y-1.4689
X19.3449Y-1.5689
X19.3449Y-1.6689
X19.3449Y-1.7689
X19.3449Y-1.8689
X19.3449Y-1.9689
X19.3449Y-2.0689
X19.3449Y-2.1689
X19.3449Y-2.2689
X19.3449Y-2.3689
X19.3449Y-2.4689
X19.3449Y-2.5689
X19.3449Y-2.6689
X19.3449Y-2.7689
X19.3449Y-2.8689
X19.3449Y-2.9689
X19.3449Y-3.0689
X19.3449Y-3.1689
X19.3449Y-3.2689
X19.4449Y-1.4689
X19.4449Y-1.5689
X19.4449Y-1.6689
X19.4449Y-1.7689
X19.4449Y-1.8689
X19.4449Y-1.9689
X19.4449Y-2.0689
X19.4449Y-2.1689
X19.4449Y-2.2689
X19.4449Y-2.3689
X19.4449Y-2.4689
X19.4449Y-2.5689
X19.4449Y-2.6689
X19.4449Y-2.7689
X19.4449Y-2.8689
X19.4449Y-2.9689
X19.4449Y-3.0689
X19.4449Y-3.1689
X19.4449Y-3.2689
X21.7449Y-1.4689
X21.7449Y-1.5689
X21.7449Y-1.6689
X21.7449Y-1.7689
X21.7449Y-1.8689
X21.7449Y-1.9689
X21.7449Y-2.0689
X21.7449Y-2.1689
X21.7449Y-2.2689
X21.7449Y-2.3689
X21.7449Y-2.4689
X21.7449Y-2.5689
X21.7449Y-2.6689
X21.7449Y-2.7689
X21.7449Y-2.8689
X21.7449Y-2.9689
X21.7449Y-3.0689
X21.7449Y-3.1689
X21.7449Y-3.2689
X21.8449Y-1.4689
X21.8449Y-1.5689
X21.8449Y-1.6689
X21.8449Y-1.7689
X21.8449Y-1.8689
X21.8449Y-1.9689
X21.8449Y-2.0689
X21.8449Y-2.1689
X21.8449Y-2.2689
X21.8449Y-2.3689
X21.8449Y-2.4689
X21.8449Y-2.5689
X21.8449Y-2.6689
X21.8449Y-2.7689
X21.8449Y-2.8689
X21.8449Y-2.9689
X21.8449Y-3.0689
X21.8449Y-3.1689
X21.8449Y-3.2689
T10
X8.1181Y-1.8602
X8.1181Y-1.9602
X8.1181Y-2.0602
X8.1181Y-2.1602
X8.1181Y-2.2602
X8.1181Y-2.3602
X8.1181Y-2.4602
X8.1181Y-2.5602
X8.1181Y-2.7602
X8.1181Y-2.8602
X8.1181Y-2.9602
X8.1181Y-3.0602
X8.1181Y-3.1602
X8.1181Y-3.2602
X10.0181Y-1.5004
X10.0181Y-1.6004
X10.0181Y-1.7004
X10.0181Y-1.8004
X10.0181Y-1.9004
X10.0181Y-2.0004
X10.0181Y-2.1004
X10.0181Y-2.2004
X10.0181Y-2.3004
X10.0181Y-2.4004
X10.0181Y-2.5602
X10.0181Y-2.6602
X10.0181Y-2.7602
X10.0181Y-2.8602
X10.0181Y-2.9602
X10.0181Y-3.0602
X10.0181Y-3.1602
X10.0181Y-3.2602
X19.6449Y-1.8689
X19.6449Y-1.9689
X19.6449Y-2.0689
X19.6449Y-2.1689
X19.6449Y-2.2689
X19.6449Y-2.3689
X19.6449Y-2.4689
X19.6449Y-2.5689
X19.6449Y-2.7689
X19.6449Y-2.8689
X19.6449Y-2.9689
X19.6449Y-3.0689
X19.6449Y-3.1689
X19.6449Y-3.2689
X21.5449Y-1.5091
X21.5449Y-1.6091
X21.5449Y-1.7091
X21.5449Y-1.8091
X21.5449Y-1.9091
X21.5449Y-2.0091
X21.5449Y-2.1091
X21.5449Y-2.2091
X21.5449Y-2.3091
X21.5449Y-2.4091
X21.5449Y-2.5689
X21.5449Y-2.6689
X21.5449Y-2.7689
X21.5449Y-2.8689
X21.5449Y-2.9689
X21.5449Y-3.0689
X21.5449Y-3.1689
X21.5449Y-3.2689
T11
X11.3465Y-6.7165
X11.5433Y-6.7165
T7
G00X8.4134Y-1.3718
M15
G01X8.4134Y-1.3089
M16
G05
G00X8.8622Y-1.3718
M15
G01X8.8622Y-1.3089
M16
G05
G00X11.6378Y-1.3819
M15
G01X11.6378Y-1.3189
M16
G05
G00X12.0866Y-1.3819
M15
G01X12.0866Y-1.3189
M16
G05
G00X12.1575Y-7.0
M15
G01X12.1575Y-7.063
M16
G05
G00X12.6063Y-7.0
M15
G01X12.6063Y-7.063
M16
G05
G00X14.9567Y-6.9961
M15
G01X14.9567Y-7.0591
M16
G05
G00X15.4055Y-6.9961
M15
G01X15.4055Y-7.0591
M16
G05
G00X16.9409Y-1.3819
M15
G01X16.9409Y-1.3189
M16
G05
G00X17.3898Y-1.3819
M15
G01X17.3898Y-1.3189
M16
G05
G00X17.4134Y-7.0
M15
G01X17.4134Y-7.063
M16
G05
G00X17.8622Y-7.0
M15
G01X17.8622Y-7.063
M16
G05
G00X19.9429Y-1.3858
M15
G01X19.9429Y-1.3228
M16
G05
G00X20.3917Y-1.3858
M15
G01X20.3917Y-1.3228
M16
G05
M30
