%TF.GenerationSoftware,KiCad,Pcbnew,9.0.2+dfsg-1*%
%TF.CreationDate,2025-07-09T20:59:58-07:00*%
%TF.ProjectId,signalmesh,7369676e-616c-46d6-9573-682e6b696361,rev?*%
%TF.SameCoordinates,Original*%
%TF.FileFunction,Copper,L2,Inr*%
%TF.FilePolarity,Positive*%
%FSLAX46Y46*%
G04 Gerber Fmt 4.6, Leading zero omitted, Abs format (unit mm)*
G04 Created by KiCad (PCBNEW 9.0.2+dfsg-1) date 2025-07-09 20:59:58*
%MOMM*%
%LPD*%
G01*
G04 APERTURE LIST*
G04 Aperture macros list*
%AMRoundRect*
0 Rectangle with rounded corners*
0 $1 Rounding radius*
0 $2 $3 $4 $5 $6 $7 $8 $9 X,Y pos of 4 corners*
0 Add a 4 corners polygon primitive as box body*
4,1,4,$2,$3,$4,$5,$6,$7,$8,$9,$2,$3,0*
0 Add four circle primitives for the rounded corners*
1,1,$1+$1,$2,$3*
1,1,$1+$1,$4,$5*
1,1,$1+$1,$6,$7*
1,1,$1+$1,$8,$9*
0 Add four rect primitives between the rounded corners*
20,1,$1+$1,$2,$3,$4,$5,0*
20,1,$1+$1,$4,$5,$6,$7,0*
20,1,$1+$1,$6,$7,$8,$9,0*
20,1,$1+$1,$8,$9,$2,$3,0*%
G04 Aperture macros list end*
%TA.AperFunction,ComponentPad*%
%ADD10R,0.850000X0.850000*%
%TD*%
%TA.AperFunction,ComponentPad*%
%ADD11C,0.850000*%
%TD*%
%TA.AperFunction,ComponentPad*%
%ADD12R,1.524000X2.524000*%
%TD*%
%TA.AperFunction,ComponentPad*%
%ADD13O,1.524000X2.524000*%
%TD*%
%TA.AperFunction,ComponentPad*%
%ADD14C,1.500000*%
%TD*%
%TA.AperFunction,HeatsinkPad*%
%ADD15O,1.900000X3.500000*%
%TD*%
%TA.AperFunction,ComponentPad*%
%ADD16RoundRect,0.250000X0.550000X0.550000X-0.550000X0.550000X-0.550000X-0.550000X0.550000X-0.550000X0*%
%TD*%
%TA.AperFunction,ComponentPad*%
%ADD17C,1.600000*%
%TD*%
%TA.AperFunction,ComponentPad*%
%ADD18R,1.508000X1.508000*%
%TD*%
%TA.AperFunction,ComponentPad*%
%ADD19C,1.508000*%
%TD*%
%TA.AperFunction,ComponentPad*%
%ADD20C,2.500000*%
%TD*%
%TA.AperFunction,ComponentPad*%
%ADD21R,1.524000X1.524000*%
%TD*%
%TA.AperFunction,ComponentPad*%
%ADD22C,1.524000*%
%TD*%
%TA.AperFunction,ComponentPad*%
%ADD23R,1.700000X1.700000*%
%TD*%
%TA.AperFunction,ComponentPad*%
%ADD24C,1.700000*%
%TD*%
%TA.AperFunction,ComponentPad*%
%ADD25R,1.050000X1.500000*%
%TD*%
%TA.AperFunction,ComponentPad*%
%ADD26O,1.050000X1.500000*%
%TD*%
%TA.AperFunction,ComponentPad*%
%ADD27RoundRect,0.250000X-0.550000X-0.550000X0.550000X-0.550000X0.550000X0.550000X-0.550000X0.550000X0*%
%TD*%
%TA.AperFunction,ComponentPad*%
%ADD28R,1.605000X1.605000*%
%TD*%
%TA.AperFunction,ComponentPad*%
%ADD29C,1.605000*%
%TD*%
%TA.AperFunction,ComponentPad*%
%ADD30R,1.530000X1.530000*%
%TD*%
%TA.AperFunction,ComponentPad*%
%ADD31C,1.530000*%
%TD*%
%TA.AperFunction,ComponentPad*%
%ADD32RoundRect,0.250000X-0.550000X0.550000X-0.550000X-0.550000X0.550000X-0.550000X0.550000X0.550000X0*%
%TD*%
%TA.AperFunction,ComponentPad*%
%ADD33RoundRect,0.250000X0.550000X-0.550000X0.550000X0.550000X-0.550000X0.550000X-0.550000X-0.550000X0*%
%TD*%
%TA.AperFunction,ViaPad*%
%ADD34C,0.600000*%
%TD*%
%TA.AperFunction,ViaPad*%
%ADD35C,0.500000*%
%TD*%
%TA.AperFunction,Conductor*%
%ADD36C,0.500000*%
%TD*%
%TA.AperFunction,Conductor*%
%ADD37C,0.300000*%
%TD*%
%TA.AperFunction,Conductor*%
%ADD38C,0.400000*%
%TD*%
G04 APERTURE END LIST*
D10*
%TO.N,Net-(J15-Pin_1)*%
%TO.C,J15*%
X557555000Y-140920000D03*
D11*
X557555000Y-141920000D03*
%TD*%
D12*
%TO.N,Net-(U18-E)*%
%TO.C,U18*%
X216420000Y-139963000D03*
D13*
%TO.N,Net-(U18-D)*%
X218960000Y-139963000D03*
%TO.N,GND*%
X221500000Y-139963000D03*
%TO.N,Net-(U18-C)*%
X224040000Y-139963000D03*
%TO.N,Net-(U18-DP)*%
X226580000Y-139963000D03*
%TO.N,Net-(U18-B)*%
X226580000Y-124723000D03*
%TO.N,Net-(U18-A)*%
X224040000Y-124723000D03*
%TO.N,GND*%
X221500000Y-124723000D03*
%TO.N,Net-(U18-F)*%
X218960000Y-124723000D03*
%TO.N,Net-(U18-G)*%
X216420000Y-124723000D03*
%TD*%
D14*
%TO.N,Net-(U40-XI)*%
%TO.C,Y9*%
X223210000Y-54144900D03*
%TO.N,Net-(U40-XO)*%
X228090000Y-54144900D03*
%TD*%
D15*
%TO.N,unconnected-(J25-Shield-Pad5)_1*%
%TO.C,J25*%
X391300000Y-178500000D03*
%TO.N,unconnected-(J25-Shield-Pad5)*%
X379900000Y-178500000D03*
%TD*%
D16*
%TO.N,/UUM_CAN_RD*%
%TO.C,U27*%
X501860000Y-142040000D03*
D17*
%TO.N,GND*%
X501860000Y-139500000D03*
%TO.N,UUM_VDD*%
X501860000Y-136960000D03*
%TO.N,/UUM_CAN_TD*%
X501860000Y-134420000D03*
%TO.N,unconnected-(U27-Vref-Pad5)*%
X494240000Y-134420000D03*
%TO.N,/CAN-*%
X494240000Y-136960000D03*
%TO.N,/CAN+*%
X494240000Y-139500000D03*
%TO.N,Net-(U27-Rs)*%
X494240000Y-142040000D03*
%TD*%
D15*
%TO.N,unconnected-(J33-Shield-Pad5)_1*%
%TO.C,J33*%
X213700000Y-34044900D03*
%TO.N,unconnected-(J33-Shield-Pad5)*%
X225100000Y-34044900D03*
%TD*%
D18*
%TO.N,N/C*%
%TO.C,U1*%
X335080000Y-37186000D03*
D19*
X337620000Y-37186000D03*
X335080000Y-39726000D03*
X337620000Y-39726000D03*
X335080000Y-42266000D03*
X337620000Y-42266000D03*
X335080000Y-44806000D03*
X337620000Y-44806000D03*
X335080000Y-47346000D03*
X337620000Y-47346000D03*
X335080000Y-49886000D03*
X337620000Y-49886000D03*
X335080000Y-52426000D03*
X337620000Y-52426000D03*
X335080000Y-54966000D03*
X337620000Y-54966000D03*
X335080000Y-57506000D03*
X337620000Y-57506000D03*
X335080000Y-60046000D03*
X337620000Y-60046000D03*
D18*
X289360000Y-46330000D03*
D19*
X291900000Y-46330000D03*
X289360000Y-48870000D03*
X291900000Y-48870000D03*
X289360000Y-51410000D03*
X291900000Y-51410000D03*
X289360000Y-53950000D03*
X291900000Y-53950000D03*
X289360000Y-56490000D03*
X291900000Y-56490000D03*
X289360000Y-59030000D03*
X291900000Y-59030000D03*
X289360000Y-61570000D03*
X291900000Y-61570000D03*
X289360000Y-64110000D03*
X291900000Y-64110000D03*
D18*
X289360000Y-69190000D03*
D19*
X291900000Y-69190000D03*
X289360000Y-71730000D03*
X291900000Y-71730000D03*
X289360000Y-74270000D03*
X291900000Y-74270000D03*
X289360000Y-76810000D03*
X291900000Y-76810000D03*
X289360000Y-79350000D03*
X291900000Y-79350000D03*
X289360000Y-81890000D03*
X291900000Y-81890000D03*
X289360000Y-84430000D03*
X291900000Y-84430000D03*
X289360000Y-86970000D03*
X291900000Y-86970000D03*
X289360000Y-89510000D03*
X291900000Y-89510000D03*
X289360000Y-92050000D03*
X291900000Y-92050000D03*
X289360000Y-94590000D03*
X291900000Y-94590000D03*
X289360000Y-97130000D03*
X291900000Y-97130000D03*
X289360000Y-99670000D03*
X291900000Y-99670000D03*
X289360000Y-102210000D03*
X291900000Y-102210000D03*
X289360000Y-104750000D03*
X291900000Y-104750000D03*
D18*
X335080000Y-64110000D03*
D19*
X337620000Y-64110000D03*
X335080000Y-66650000D03*
X337620000Y-66650000D03*
X335080000Y-69190000D03*
X337620000Y-69190000D03*
X335080000Y-71730000D03*
X337620000Y-71730000D03*
X335080000Y-74270000D03*
X337620000Y-74270000D03*
X335080000Y-76810000D03*
X337620000Y-76810000D03*
X335080000Y-79350000D03*
X337620000Y-79350000D03*
X335080000Y-81890000D03*
X337620000Y-81890000D03*
X335080000Y-84430000D03*
X337620000Y-84430000D03*
X335080000Y-86970000D03*
X337620000Y-86970000D03*
X335080000Y-89510000D03*
X337620000Y-89510000D03*
X335080000Y-92050000D03*
X337620000Y-92050000D03*
X335080000Y-94590000D03*
X337620000Y-94590000D03*
X335080000Y-97130000D03*
X337620000Y-97130000D03*
X335080000Y-99670000D03*
X337620000Y-99670000D03*
X335080000Y-102210000D03*
X337620000Y-102210000D03*
X335080000Y-104750000D03*
X337620000Y-104750000D03*
D18*
%TO.N,/ACM_CMD_TX*%
X281740000Y-36170000D03*
D19*
%TO.N,/ACM_CMD_RX*%
X284280000Y-36170000D03*
%TO.N,/APM_DBG_TX*%
X281740000Y-38710000D03*
%TO.N,/APM_DBG_RX*%
X284280000Y-38710000D03*
%TO.N,unconnected-(U1A-3V3_VDD-PadCN11_5)*%
X281740000Y-41250000D03*
%TO.N,unconnected-(U1A-5V_EXT-PadCN11_6)*%
X284280000Y-41250000D03*
%TO.N,unconnected-(U1A-BOOT0-PadCN11_7)*%
X281740000Y-43790000D03*
%TO.N,GND*%
X284280000Y-43790000D03*
%TO.N,unconnected-(U1A-PF6-PadCN11_9)*%
X281740000Y-46330000D03*
%TO.N,unconnected-(U1A-NC-PadCN11_10)*%
X284280000Y-46330000D03*
%TO.N,unconnected-(U1A-PF7-PadCN11_11)*%
X281740000Y-48870000D03*
%TO.N,unconnected-(U1A-IOREF-PadCN11_12)*%
X284280000Y-48870000D03*
%TO.N,unconnected-(U1A-PA13-PadCN11_13)*%
X281740000Y-51410000D03*
%TO.N,unconnected-(U1A-NRST-PadCN11_14)*%
X284280000Y-51410000D03*
%TO.N,unconnected-(U1A-PA14-PadCN11_15)*%
X281740000Y-53950000D03*
%TO.N,unconnected-(U1A-3V3-PadCN11_16)*%
X284280000Y-53950000D03*
%TO.N,unconnected-(U1A-PA15-PadCN11_17)*%
X281740000Y-56490000D03*
%TO.N,APM_VDD*%
X284280000Y-56490000D03*
%TO.N,GND*%
X281740000Y-59030000D03*
X284280000Y-59030000D03*
%TO.N,unconnected-(U1A-PB7-PadCN11_21)*%
X281740000Y-61570000D03*
%TO.N,GND*%
X284280000Y-61570000D03*
%TO.N,unconnected-(U1A-PC13-PadCN11_23)*%
X281740000Y-64110000D03*
%TO.N,unconnected-(U1A-VIN-PadCN11_24)*%
X284280000Y-64110000D03*
%TO.N,unconnected-(U1A-PC14-PadCN11_25)*%
X281740000Y-66650000D03*
%TO.N,unconnected-(U1A-NC-PadCN11_26)*%
X284280000Y-66650000D03*
%TO.N,unconnected-(U1A-PC15-PadCN11_27)*%
X281740000Y-69190000D03*
%TO.N,unconnected-(U1A-PA0-PadCN11_28)*%
X284280000Y-69190000D03*
%TO.N,unconnected-(U1A-PH0-PadCN11_29)*%
X281740000Y-71730000D03*
%TO.N,unconnected-(U1A-PA1-PadCN11_30)*%
X284280000Y-71730000D03*
%TO.N,unconnected-(U1A-PH1-PadCN11_31)*%
X281740000Y-74270000D03*
%TO.N,/DAC_R*%
X284280000Y-74270000D03*
%TO.N,unconnected-(U1A-VBAT-PadCN11_33)*%
X281740000Y-76810000D03*
%TO.N,unconnected-(U1A-PB0-PadCN11_34)*%
X284280000Y-76810000D03*
%TO.N,unconnected-(U1A-PC2-PadCN11_35)*%
X281740000Y-79350000D03*
%TO.N,unconnected-(U1A-PC1-PadCN11_36)*%
X284280000Y-79350000D03*
%TO.N,unconnected-(U1A-PC3-PadCN11_37)*%
X281740000Y-81890000D03*
%TO.N,unconnected-(U1A-PC0-PadCN11_38)*%
X284280000Y-81890000D03*
%TO.N,unconnected-(U1A-PD4-PadCN11_39)*%
X281740000Y-84430000D03*
%TO.N,unconnected-(U1A-PD3-PadCN11_40)*%
X284280000Y-84430000D03*
%TO.N,unconnected-(U1A-PD5-PadCN11_41)*%
X281740000Y-86970000D03*
%TO.N,unconnected-(U1A-PG2-PadCN11_42)*%
X284280000Y-86970000D03*
%TO.N,unconnected-(U1A-PD6-PadCN11_43)*%
X281740000Y-89510000D03*
%TO.N,unconnected-(U1A-PG3-PadCN11_44)*%
X284280000Y-89510000D03*
%TO.N,unconnected-(U1A-PD7-PadCN11_45)*%
X281740000Y-92050000D03*
%TO.N,unconnected-(U1A-PE2-PadCN11_46)*%
X284280000Y-92050000D03*
%TO.N,/ISR0*%
X281740000Y-94590000D03*
%TO.N,unconnected-(U1A-PE4-PadCN11_48)*%
X284280000Y-94590000D03*
%TO.N,GND*%
X281740000Y-97130000D03*
%TO.N,unconnected-(U1A-PE5-PadCN11_50)*%
X284280000Y-97130000D03*
%TO.N,/APM/APM_I2C1_SCL*%
X281740000Y-99670000D03*
%TO.N,unconnected-(U1A-PF2-PadCN11_52)*%
X284280000Y-99670000D03*
%TO.N,/APM/APM_I2C1_SDA*%
X281740000Y-102210000D03*
%TO.N,unconnected-(U1A-PF8-PadCN11_54)*%
X284280000Y-102210000D03*
%TO.N,unconnected-(U1A-PD1-PadCN11_55)*%
X281740000Y-104750000D03*
%TO.N,unconnected-(U1A-PF9-PadCN11_56)*%
X284280000Y-104750000D03*
%TO.N,unconnected-(U1A-PD0-PadCN11_57)*%
X281740000Y-107290000D03*
%TO.N,unconnected-(U1A-PG1-PadCN11_58)*%
X284280000Y-107290000D03*
%TO.N,unconnected-(U1A-PG0-PadCN11_59)*%
X281740000Y-109830000D03*
%TO.N,GND*%
X284280000Y-109830000D03*
%TO.N,unconnected-(U1A-PE1-PadCN11_61)*%
X281740000Y-112370000D03*
%TO.N,/IRQ0*%
X284280000Y-112370000D03*
%TO.N,/APM/7SDD_CMD_RX*%
X281740000Y-114910000D03*
%TO.N,unconnected-(U1A-PG15-PadCN11_64)*%
X284280000Y-114910000D03*
%TO.N,unconnected-(U1A-PG12-PadCN11_65)*%
X281740000Y-117450000D03*
%TO.N,unconnected-(U1A-PG10-PadCN11_66)*%
X284280000Y-117450000D03*
%TO.N,unconnected-(U1A-NC-PadCN11_67)*%
X281740000Y-119990000D03*
%TO.N,unconnected-(U1A-PG13-PadCN11_68)*%
X284280000Y-119990000D03*
%TO.N,unconnected-(U1A-PD9-PadCN11_69)*%
X281740000Y-122530000D03*
%TO.N,unconnected-(U1A-PG11-PadCN11_70)*%
X284280000Y-122530000D03*
%TO.N,GND*%
X281740000Y-125070000D03*
X284280000Y-125070000D03*
D18*
%TO.N,unconnected-(U1B-PC9-PadCN12_1)*%
X342700000Y-36190000D03*
D19*
%TO.N,unconnected-(U1B-PC8-PadCN12_2)*%
X345240000Y-36190000D03*
%TO.N,/APM_CAN_RD*%
X342700000Y-38730000D03*
%TO.N,/APM/APM_LED_OK*%
X345240000Y-38730000D03*
%TO.N,/APM_CAN_TD*%
X342700000Y-41270000D03*
%TO.N,/APM/APM_LED_WARN*%
X345240000Y-41270000D03*
%TO.N,unconnected-(U1B-VREFP-PadCN12_7)*%
X342700000Y-43810000D03*
%TO.N,unconnected-(U1B-5V_USB_STLK-PadCN12_8)*%
X345240000Y-43810000D03*
%TO.N,unconnected-(U1B-GND_CN12-PadCN12_20)_2*%
X342700000Y-46350000D03*
%TO.N,unconnected-(U1B-PD8-PadCN12_10)*%
X345240000Y-46350000D03*
%TO.N,/DAC_L*%
X342700000Y-48890000D03*
%TO.N,/APM/APM_USB_D-*%
X345240000Y-48890000D03*
%TO.N,unconnected-(U1B-PA6-PadCN12_13)*%
X342700000Y-51430000D03*
%TO.N,/APM/APM_USB_D+*%
X345240000Y-51430000D03*
%TO.N,unconnected-(U1B-PA7-PadCN12_15)*%
X342700000Y-53970000D03*
%TO.N,unconnected-(U1B-PB12-PadCN12_16)*%
X345240000Y-53970000D03*
%TO.N,unconnected-(U1B-PB6-PadCN12_17)*%
X342700000Y-56510000D03*
%TO.N,unconnected-(U1B-PB11-PadCN12_18)*%
X345240000Y-56510000D03*
%TO.N,unconnected-(U1B-PC7-PadCN12_19)*%
X342700000Y-59050000D03*
%TO.N,unconnected-(U1B-GND_CN12-PadCN12_20)_4*%
X345240000Y-59050000D03*
%TO.N,unconnected-(U1B-PA9-PadCN12_21)*%
X342700000Y-61590000D03*
%TO.N,unconnected-(U1B-PB2-PadCN12_22)*%
X345240000Y-61590000D03*
%TO.N,unconnected-(U1B-PA8-PadCN12_23)*%
X342700000Y-64130000D03*
%TO.N,unconnected-(U1B-PB1-PadCN12_24)*%
X345240000Y-64130000D03*
%TO.N,unconnected-(U1B-PB10-PadCN12_25)*%
X342700000Y-66670000D03*
%TO.N,unconnected-(U1B-PB15-PadCN12_26)*%
X345240000Y-66670000D03*
%TO.N,unconnected-(U1B-PB4-PadCN12_27)*%
X342700000Y-69210000D03*
%TO.N,unconnected-(U1B-PB14-PadCN12_28)*%
X345240000Y-69210000D03*
%TO.N,unconnected-(U1B-PB5-PadCN12_29)*%
X342700000Y-71750000D03*
%TO.N,unconnected-(U1B-PB13-PadCN12_30)*%
X345240000Y-71750000D03*
%TO.N,unconnected-(U1B-PB3-PadCN12_31)*%
X342700000Y-74290000D03*
%TO.N,unconnected-(U1B-AGND_CN12-PadCN12_32)*%
X345240000Y-74290000D03*
%TO.N,unconnected-(U1B-PA10-PadCN12_33)*%
X342700000Y-76830000D03*
%TO.N,/APM/APM_LED_FAIL*%
X345240000Y-76830000D03*
%TO.N,unconnected-(U1B-PA2-PadCN12_35)*%
X342700000Y-79370000D03*
%TO.N,unconnected-(U1B-PF5-PadCN12_36)*%
X345240000Y-79370000D03*
%TO.N,unconnected-(U1B-PA3-PadCN12_37)*%
X342700000Y-81910000D03*
%TO.N,unconnected-(U1B-PF4-PadCN12_38)*%
X345240000Y-81910000D03*
%TO.N,unconnected-(U1B-GND_CN12-PadCN12_20)_1*%
X342700000Y-84450000D03*
%TO.N,unconnected-(U1B-PE8-PadCN12_40)*%
X345240000Y-84450000D03*
%TO.N,unconnected-(U1B-PD13-PadCN12_41)*%
X342700000Y-86990000D03*
%TO.N,unconnected-(U1B-PF10-PadCN12_42)*%
X345240000Y-86990000D03*
%TO.N,unconnected-(U1B-PD12-PadCN12_43)*%
X342700000Y-89530000D03*
%TO.N,unconnected-(U1B-PE7-PadCN12_44)*%
X345240000Y-89530000D03*
%TO.N,unconnected-(U1B-PD11-PadCN12_45)*%
X342700000Y-92070000D03*
%TO.N,unconnected-(U1B-PD14-PadCN12_46)*%
X345240000Y-92070000D03*
%TO.N,unconnected-(U1B-PE10-PadCN12_47)*%
X342700000Y-94610000D03*
%TO.N,unconnected-(U1B-PD15-PadCN12_48)*%
X345240000Y-94610000D03*
%TO.N,unconnected-(U1B-PE12-PadCN12_49)*%
X342700000Y-97150000D03*
%TO.N,unconnected-(U1B-PF14-PadCN12_50)*%
X345240000Y-97150000D03*
%TO.N,unconnected-(U1B-PE14-PadCN12_51)*%
X342700000Y-99690000D03*
%TO.N,unconnected-(U1B-PE9-PadCN12_52)*%
X345240000Y-99690000D03*
%TO.N,unconnected-(U1B-PE15-PadCN12_53)*%
X342700000Y-102230000D03*
%TO.N,unconnected-(U1B-GND_CN12-PadCN12_20)*%
X345240000Y-102230000D03*
%TO.N,unconnected-(U1B-PE13-PadCN12_55)*%
X342700000Y-104770000D03*
%TO.N,unconnected-(U1B-PE11-PadCN12_56)*%
X345240000Y-104770000D03*
%TO.N,unconnected-(U1B-PF13-PadCN12_57)*%
X342700000Y-107310000D03*
%TO.N,unconnected-(U1B-PF3-PadCN12_58)*%
X345240000Y-107310000D03*
%TO.N,unconnected-(U1B-PF12-PadCN12_59)*%
X342700000Y-109850000D03*
%TO.N,unconnected-(U1B-PF15-PadCN12_60)*%
X345240000Y-109850000D03*
%TO.N,/APM/7SDD_CMD_TX*%
X342700000Y-112390000D03*
%TO.N,unconnected-(U1B-PF11-PadCN12_62)*%
X345240000Y-112390000D03*
%TO.N,unconnected-(U1B-GND_CN12-PadCN12_20)_3*%
X342700000Y-114930000D03*
%TO.N,unconnected-(U1B-PE0-PadCN12_64)*%
X345240000Y-114930000D03*
%TO.N,unconnected-(U1B-PD10-PadCN12_65)*%
X342700000Y-117470000D03*
%TO.N,unconnected-(U1B-PG8-PadCN12_66)*%
X345240000Y-117470000D03*
%TO.N,unconnected-(U1B-PG7-PadCN12_67)*%
X342700000Y-120010000D03*
%TO.N,unconnected-(U1B-PG5-PadCN12_68)*%
X345240000Y-120010000D03*
%TO.N,unconnected-(U1B-PG4-PadCN12_69)*%
X342700000Y-122550000D03*
%TO.N,unconnected-(U1B-PG6-PadCN12_70)*%
X345240000Y-122550000D03*
%TO.N,unconnected-(U1B-GND_CN12-PadCN12_20)_6*%
X342700000Y-125090000D03*
%TO.N,unconnected-(U1B-GND_CN12-PadCN12_20)_5*%
X345240000Y-125090000D03*
%TD*%
D20*
%TO.N,/DAC_L*%
%TO.C,TP1*%
X293200000Y-170600000D03*
%TD*%
D21*
%TO.N,unconnected-(J12-Pin_1-Pad1)*%
%TO.C,J12*%
X293750000Y-178700000D03*
D22*
%TO.N,/DAC_L*%
X291750000Y-178700000D03*
%TO.N,/DAC_R*%
X289750000Y-178700000D03*
%TO.N,GND*%
X287750000Y-178700000D03*
%TD*%
D23*
%TO.N,/FMC_D0*%
%TO.C,J9*%
X402000000Y-47720000D03*
D24*
%TO.N,/FMC_D1*%
X402000000Y-50260000D03*
%TO.N,/FMC_D2*%
X402000000Y-52800000D03*
%TO.N,/FMC_D3*%
X402000000Y-55340000D03*
%TO.N,/FMC_D4*%
X402000000Y-57880000D03*
%TO.N,/FMC_D5*%
X402000000Y-60420000D03*
%TO.N,/FMC_D6*%
X402000000Y-62960000D03*
%TO.N,/FMC_D7*%
X402000000Y-65500000D03*
%TO.N,/FMC_D8*%
X402000000Y-68040000D03*
%TO.N,/FMC_D9*%
X402000000Y-70580000D03*
%TO.N,/FMC_D10*%
X402000000Y-73120000D03*
%TO.N,/FMC_D11*%
X402000000Y-75660000D03*
%TO.N,/FMC_D12*%
X402000000Y-78200000D03*
%TO.N,/FMC_D13*%
X402000000Y-80740000D03*
%TO.N,/FMC_D14*%
X402000000Y-83280000D03*
%TO.N,/FMC_D15*%
X402000000Y-85820000D03*
%TO.N,unconnected-(J2-Pin_17-Pad17)*%
X402000000Y-88360000D03*
%TO.N,ACM_VDD*%
X402000000Y-90900000D03*
%TO.N,unconnected-(J2-Pin_19-Pad19)*%
X402000000Y-93440000D03*
%TO.N,unconnected-(J2-Pin_20-Pad20)*%
X402000000Y-95980000D03*
%TO.N,unconnected-(J2-Pin_21-Pad21)*%
X402000000Y-98520000D03*
%TO.N,unconnected-(J2-Pin_22-Pad22)*%
X402000000Y-101060000D03*
%TO.N,GND*%
X402000000Y-103600000D03*
%TO.N,3V3_ACM*%
X402000000Y-106140000D03*
%TD*%
D20*
%TO.N,/DAC_R*%
%TO.C,TP2*%
X288200000Y-170600000D03*
%TD*%
D15*
%TO.N,unconnected-(J31-Shield-Pad5)_1*%
%TO.C,J31*%
X430300000Y-34300000D03*
%TO.N,unconnected-(J31-Shield-Pad5)*%
X441700000Y-34300000D03*
%TD*%
D12*
%TO.N,Net-(U2-E)*%
%TO.C,U2*%
X202500000Y-139963000D03*
D13*
%TO.N,Net-(U2-D)*%
X205040000Y-139963000D03*
%TO.N,GND*%
X207580000Y-139963000D03*
%TO.N,Net-(U2-C)*%
X210120000Y-139963000D03*
%TO.N,Net-(U2-DP)*%
X212660000Y-139963000D03*
%TO.N,Net-(U2-B)*%
X212660000Y-124723000D03*
%TO.N,Net-(U2-A)*%
X210120000Y-124723000D03*
%TO.N,GND*%
X207580000Y-124723000D03*
%TO.N,Net-(U2-F)*%
X205040000Y-124723000D03*
%TO.N,Net-(U2-G)*%
X202500000Y-124723000D03*
%TD*%
D10*
%TO.N,/USB_debug_APM/DBG_TX*%
%TO.C,J30*%
X316650000Y-34880100D03*
D11*
%TO.N,/APM_DBG_RX*%
X317650000Y-34880100D03*
%TO.N,GND*%
X318650000Y-34880100D03*
%TD*%
D23*
%TO.N,/ACM/ACM_SPI_CS*%
%TO.C,J1*%
X369690000Y-47760000D03*
D24*
%TO.N,/ACM/ACM_SPI_MOSI*%
X369690000Y-50300000D03*
%TO.N,/ACM/ACM_SPI_SCLK*%
X369690000Y-52840000D03*
%TO.N,/ACM/ACM_SPI_MISO*%
X369690000Y-55380000D03*
%TO.N,/ACM_DBG_TX*%
X369690000Y-57920000D03*
%TO.N,/ACM_DBG_RX*%
X369690000Y-60460000D03*
%TO.N,/ACM_CMD_RX*%
X369690000Y-63000000D03*
%TO.N,/ACM_CMD_TX*%
X369690000Y-65540000D03*
%TO.N,/ACM/ACM_LED_FAIL*%
X369690000Y-68080000D03*
%TO.N,/ACM/ACM_LED_OK*%
X369690000Y-70620000D03*
%TO.N,/ACM/ACM_LED_WARN*%
X369690000Y-73160000D03*
%TO.N,unconnected-(J1-Pin_12-Pad12)*%
X369690000Y-75700000D03*
%TO.N,unconnected-(J1-Pin_13-Pad13)*%
X369690000Y-78240000D03*
%TO.N,unconnected-(J1-Pin_14-Pad14)*%
X369690000Y-80780000D03*
%TO.N,unconnected-(J1-Pin_15-Pad15)*%
X369690000Y-83320000D03*
%TO.N,unconnected-(J1-Pin_16-Pad16)*%
X369690000Y-85860000D03*
%TO.N,unconnected-(J1-Pin_17-Pad17)*%
X369690000Y-88400000D03*
%TO.N,/FMC_CLK*%
X369690000Y-90940000D03*
%TO.N,/FMC_NWE*%
X369690000Y-93480000D03*
%TO.N,/FMC_NOE*%
X369690000Y-96020000D03*
%TO.N,/FMC_NE*%
X369690000Y-98560000D03*
%TO.N,/FMC_NL*%
X369690000Y-101100000D03*
%TO.N,/FMC_NBL0*%
X369690000Y-103640000D03*
%TO.N,/FMC_NBL1*%
X369690000Y-106180000D03*
%TD*%
D14*
%TO.N,Net-(U19-XI)*%
%TO.C,Y2*%
X381790000Y-158400000D03*
%TO.N,Net-(U19-XO)*%
X376910000Y-158400000D03*
%TD*%
D15*
%TO.N,unconnected-(J21-Shield-Pad5)*%
%TO.C,J21*%
X320200000Y-178600000D03*
%TO.N,unconnected-(J21-Shield-Pad5)_1*%
X308800000Y-178600000D03*
%TD*%
D25*
%TO.N,GND*%
%TO.C,TH1*%
X445142000Y-80782000D03*
D26*
%TO.N,Net-(U9A-PC0{slash}PB8)*%
X447682000Y-80782000D03*
%TD*%
D23*
%TO.N,/ACM/ACM_SPI_CS*%
%TO.C,J8*%
X360690000Y-47760000D03*
D24*
%TO.N,/ACM/ACM_SPI_MOSI*%
X360690000Y-50300000D03*
%TO.N,/ACM/ACM_SPI_SCLK*%
X360690000Y-52840000D03*
%TO.N,/ACM/ACM_SPI_MISO*%
X360690000Y-55380000D03*
%TO.N,/ACM_DBG_TX*%
X360690000Y-57920000D03*
%TO.N,/ACM_DBG_RX*%
X360690000Y-60460000D03*
%TO.N,/ACM_CMD_RX*%
X360690000Y-63000000D03*
%TO.N,/ACM_CMD_TX*%
X360690000Y-65540000D03*
%TO.N,/ACM/ACM_LED_FAIL*%
X360690000Y-68080000D03*
%TO.N,/ACM/ACM_LED_OK*%
X360690000Y-70620000D03*
%TO.N,/ACM/ACM_LED_WARN*%
X360690000Y-73160000D03*
%TO.N,unconnected-(J1-Pin_12-Pad12)*%
X360690000Y-75700000D03*
%TO.N,unconnected-(J1-Pin_13-Pad13)*%
X360690000Y-78240000D03*
%TO.N,unconnected-(J1-Pin_14-Pad14)*%
X360690000Y-80780000D03*
%TO.N,unconnected-(J1-Pin_15-Pad15)*%
X360690000Y-83320000D03*
%TO.N,unconnected-(J1-Pin_16-Pad16)*%
X360690000Y-85860000D03*
%TO.N,unconnected-(J1-Pin_17-Pad17)*%
X360690000Y-88400000D03*
%TO.N,/FMC_CLK*%
X360690000Y-90940000D03*
%TO.N,/FMC_NWE*%
X360690000Y-93480000D03*
%TO.N,/FMC_NOE*%
X360690000Y-96020000D03*
%TO.N,/FMC_NE*%
X360690000Y-98560000D03*
%TO.N,/FMC_NL*%
X360690000Y-101100000D03*
%TO.N,/FMC_NBL0*%
X360690000Y-103640000D03*
%TO.N,/FMC_NBL1*%
X360690000Y-106180000D03*
%TD*%
D10*
%TO.N,TDM_VDD*%
%TO.C,J18*%
X245050000Y-34759900D03*
D11*
%TO.N,/TDM/TDM_I2C1_SDA*%
X246050000Y-34759900D03*
%TO.N,/TDM/TDM_I2C1_SCL*%
X247050000Y-34759900D03*
%TO.N,GND*%
X248050000Y-34759900D03*
%TD*%
D25*
%TO.N,GND*%
%TO.C,TH2*%
X312290000Y-80712000D03*
D26*
%TO.N,Net-(U9A-PB0)*%
X314830000Y-80712000D03*
%TD*%
D10*
%TO.N,/USB_debug_TDM/DBG_TX*%
%TO.C,J28*%
X527600000Y-34980100D03*
D11*
%TO.N,/TDM_DBG_RX*%
X528600000Y-34980100D03*
%TO.N,GND*%
X529600000Y-34980100D03*
%TD*%
D27*
%TO.N,/APM_CAN_RD*%
%TO.C,U29*%
X494250000Y-117340000D03*
D17*
%TO.N,GND*%
X494250000Y-119880000D03*
%TO.N,APM_VDD*%
X494250000Y-122420000D03*
%TO.N,/APM_CAN_TD*%
X494250000Y-124960000D03*
%TO.N,unconnected-(U29-Vref-Pad5)*%
X501870000Y-124960000D03*
%TO.N,/CAN-*%
X501870000Y-122420000D03*
%TO.N,/CAN+*%
X501870000Y-119880000D03*
%TO.N,Net-(U29-Rs)*%
X501870000Y-117340000D03*
%TD*%
D10*
%TO.N,APM_VDD*%
%TO.C,J4*%
X326900000Y-34975000D03*
D11*
%TO.N,/APM/APM_I2C1_SDA*%
X327900000Y-34975000D03*
%TO.N,/APM/APM_I2C1_SCL*%
X328900000Y-34975000D03*
%TO.N,GND*%
X329900000Y-34975000D03*
%TD*%
D23*
%TO.N,/FMC_D0*%
%TO.C,J2*%
X393000000Y-47760000D03*
D24*
%TO.N,/FMC_D1*%
X393000000Y-50300000D03*
%TO.N,/FMC_D2*%
X393000000Y-52840000D03*
%TO.N,/FMC_D3*%
X393000000Y-55380000D03*
%TO.N,/FMC_D4*%
X393000000Y-57920000D03*
%TO.N,/FMC_D5*%
X393000000Y-60460000D03*
%TO.N,/FMC_D6*%
X393000000Y-63000000D03*
%TO.N,/FMC_D7*%
X393000000Y-65540000D03*
%TO.N,/FMC_D8*%
X393000000Y-68080000D03*
%TO.N,/FMC_D9*%
X393000000Y-70620000D03*
%TO.N,/FMC_D10*%
X393000000Y-73160000D03*
%TO.N,/FMC_D11*%
X393000000Y-75700000D03*
%TO.N,/FMC_D12*%
X393000000Y-78240000D03*
%TO.N,/FMC_D13*%
X393000000Y-80780000D03*
%TO.N,/FMC_D14*%
X393000000Y-83320000D03*
%TO.N,/FMC_D15*%
X393000000Y-85860000D03*
%TO.N,unconnected-(J2-Pin_17-Pad17)*%
X393000000Y-88400000D03*
%TO.N,ACM_VDD*%
X393000000Y-90940000D03*
%TO.N,unconnected-(J2-Pin_19-Pad19)*%
X393000000Y-93480000D03*
%TO.N,unconnected-(J2-Pin_20-Pad20)*%
X393000000Y-96020000D03*
%TO.N,unconnected-(J2-Pin_21-Pad21)*%
X393000000Y-98560000D03*
%TO.N,unconnected-(J2-Pin_22-Pad22)*%
X393000000Y-101100000D03*
%TO.N,GND*%
X393000000Y-103640000D03*
%TO.N,3V3_ACM*%
X393000000Y-106180000D03*
%TD*%
D10*
%TO.N,/USB_debug_DSM/DBG_TX*%
%TO.C,J32*%
X451350000Y-34880100D03*
D11*
%TO.N,/DSM_DBG_RX*%
X452350000Y-34880100D03*
%TO.N,GND*%
X453350000Y-34880100D03*
%TD*%
D10*
%TO.N,DSM_VDD*%
%TO.C,J3*%
X461550000Y-34975000D03*
D11*
%TO.N,/DSM/DSM_I2C1_SDA*%
X462550000Y-34975000D03*
%TO.N,/DSM/DSM_I2C1_SCL*%
X463550000Y-34975000D03*
%TO.N,GND*%
X464550000Y-34975000D03*
%TD*%
D28*
%TO.N,N/C*%
%TO.C,U9*%
X547240000Y-61190000D03*
D29*
X547240000Y-58650000D03*
X547240000Y-56110000D03*
X547240000Y-53570000D03*
X547240000Y-51030000D03*
X547240000Y-48490000D03*
X547240000Y-45950000D03*
X547240000Y-43410000D03*
X547240000Y-40870000D03*
X547240000Y-38330000D03*
D28*
X498980000Y-47470000D03*
D29*
X498980000Y-50010000D03*
X498980000Y-52550000D03*
X498980000Y-55090000D03*
X498980000Y-57630000D03*
X498980000Y-60170000D03*
X498980000Y-62710000D03*
X498980000Y-65250000D03*
D30*
%TO.N,unconnected-(U9A-PC10-PadCN7_1)*%
X491360000Y-37310000D03*
D31*
%TO.N,unconnected-(U9A-PC11-PadCN7_2)*%
X493900000Y-37310000D03*
%TO.N,unconnected-(U9A-PC12-PadCN7_3)*%
X491360000Y-39850000D03*
%TO.N,unconnected-(U9A-PD2-PadCN7_4)*%
X493900000Y-39850000D03*
%TO.N,unconnected-(U9A-VDD-PadCN7_5)*%
X491360000Y-42390000D03*
%TO.N,unconnected-(U9A-E5V-PadCN7_6)*%
X493900000Y-42390000D03*
%TO.N,unconnected-(U9A-BOOT0-PadCN7_7)*%
X491360000Y-44930000D03*
%TO.N,unconnected-(U9A-CN7_GND-PadCN7_19)_2*%
X493900000Y-44930000D03*
%TO.N,N/C*%
X491360000Y-47470000D03*
X493900000Y-47470000D03*
X491360000Y-50010000D03*
%TO.N,unconnected-(U9A-CN7_IOREF-PadCN7_12)*%
X493900000Y-50010000D03*
%TO.N,unconnected-(U9A-PA13-PadCN7_13)*%
X491360000Y-52550000D03*
%TO.N,unconnected-(U9A-CN7_RESET-PadCN7_14)*%
X493900000Y-52550000D03*
%TO.N,unconnected-(U9A-PA14-PadCN7_15)*%
X491360000Y-55090000D03*
%TO.N,unconnected-(U9A-CN7_+3V3-PadCN7_16)*%
X493900000Y-55090000D03*
%TO.N,unconnected-(U9A-PA15-PadCN7_17)*%
X491360000Y-57630000D03*
%TO.N,unconnected-(U9A-CN7_+5V-PadCN7_18)*%
X493900000Y-57630000D03*
%TO.N,unconnected-(U9A-CN7_GND-PadCN7_19)_1*%
X491360000Y-60170000D03*
%TO.N,unconnected-(U9A-CN7_GND-PadCN7_19)*%
X493900000Y-60170000D03*
%TO.N,unconnected-(U9A-PB7-PadCN7_21)*%
X491360000Y-62710000D03*
%TO.N,unconnected-(U9A-CN7_GND-PadCN7_19)_3*%
X493900000Y-62710000D03*
%TO.N,unconnected-(U9A-PC13-PadCN7_23)*%
X491360000Y-65250000D03*
%TO.N,unconnected-(U9A-CN7_VIN-PadCN7_24)*%
X493900000Y-65250000D03*
%TO.N,unconnected-(U9A-PC14-PadCN7_25)*%
X491360000Y-67790000D03*
%TO.N,N/C*%
X493900000Y-67790000D03*
%TO.N,unconnected-(U9A-PC15-PadCN7_27)*%
X491360000Y-70330000D03*
%TO.N,unconnected-(U9A-PA0-PadCN7_28)*%
X493900000Y-70330000D03*
%TO.N,unconnected-(U9A-PH0-PadCN7_29)*%
X491360000Y-72870000D03*
%TO.N,unconnected-(U9A-PA1-PadCN7_30)*%
X493900000Y-72870000D03*
%TO.N,unconnected-(U9A-PH1-PadCN7_31)*%
X491360000Y-75410000D03*
%TO.N,Net-(U9A-PA4)*%
X493900000Y-75410000D03*
%TO.N,unconnected-(U9A-VBAT-PadCN7_33)*%
X491360000Y-77950000D03*
%TO.N,Net-(U9A-PB0)*%
X493900000Y-77950000D03*
%TO.N,unconnected-(U9A-PC2-PadCN7_35)*%
X491360000Y-80490000D03*
%TO.N,Net-(U9A-PC1{slash}PB9)*%
X493900000Y-80490000D03*
%TO.N,unconnected-(U9A-PC3-PadCN7_37)*%
X491360000Y-83030000D03*
%TO.N,Net-(U9A-PC0{slash}PB8)*%
X493900000Y-83030000D03*
D28*
%TO.N,N/C*%
X498980000Y-70330000D03*
D29*
X498980000Y-72870000D03*
X498980000Y-75410000D03*
X498980000Y-77950000D03*
X498980000Y-80490000D03*
X498980000Y-83030000D03*
D28*
X547240000Y-83030000D03*
D29*
X547240000Y-80490000D03*
X547240000Y-77950000D03*
X547240000Y-75410000D03*
X547240000Y-72870000D03*
X547240000Y-70330000D03*
X547240000Y-67790000D03*
X547240000Y-65250000D03*
D30*
%TO.N,unconnected-(U9B-PC9-PadCN10_1)*%
X552320000Y-37310000D03*
D31*
%TO.N,unconnected-(U9B-PC8-PadCN10_2)*%
X554860000Y-37310000D03*
%TO.N,/TDM/TDM_I2C1_SCL*%
X552320000Y-39850000D03*
%TO.N,unconnected-(U9B-PC6-PadCN10_4)*%
X554860000Y-39850000D03*
%TO.N,/TDM/TDM_I2C1_SDA*%
X552320000Y-42390000D03*
%TO.N,/TDM/TDM_LED_FAIL*%
X554860000Y-42390000D03*
%TO.N,unconnected-(U9B-AVDD-PadCN10_7)*%
X552320000Y-44930000D03*
%TO.N,TDM_VDD*%
X554860000Y-44930000D03*
%TO.N,GND*%
X552320000Y-47470000D03*
%TO.N,N/C*%
X554860000Y-47470000D03*
%TO.N,/TDM/TDM_LED_OK*%
X552320000Y-50010000D03*
%TO.N,/TDM_CAN_TD*%
X554860000Y-50010000D03*
%TO.N,unconnected-(U9B-PA6-PadCN10_13)*%
X552320000Y-52550000D03*
%TO.N,/TDM_CAN_RD*%
X554860000Y-52550000D03*
%TO.N,unconnected-(U9B-PA7-PadCN10_15)*%
X552320000Y-55090000D03*
%TO.N,unconnected-(U9B-PB12-PadCN10_16)*%
X554860000Y-55090000D03*
%TO.N,unconnected-(U9B-PB6-PadCN10_17)*%
X552320000Y-57630000D03*
%TO.N,N/C*%
X554860000Y-57630000D03*
%TO.N,unconnected-(U9B-PC7-PadCN10_19)*%
X552320000Y-60170000D03*
%TO.N,GND*%
X554860000Y-60170000D03*
%TO.N,unconnected-(U9B-PA9-PadCN10_21)*%
X552320000Y-62710000D03*
%TO.N,unconnected-(U9B-PB2-PadCN10_22)*%
X554860000Y-62710000D03*
%TO.N,unconnected-(U9B-PA8-PadCN10_23)*%
X552320000Y-65250000D03*
%TO.N,unconnected-(U9B-PB1-PadCN10_24)*%
X554860000Y-65250000D03*
%TO.N,unconnected-(U9B-PB10-PadCN10_25)*%
X552320000Y-67790000D03*
%TO.N,unconnected-(U9B-PB15-PadCN10_26)*%
X554860000Y-67790000D03*
%TO.N,unconnected-(U9B-PB4-PadCN10_27)*%
X552320000Y-70330000D03*
%TO.N,unconnected-(U9B-PB14-PadCN10_28)*%
X554860000Y-70330000D03*
%TO.N,unconnected-(U9B-PB5-PadCN10_29)*%
X552320000Y-72870000D03*
%TO.N,unconnected-(U9B-PB13-PadCN10_30)*%
X554860000Y-72870000D03*
%TO.N,unconnected-(U9B-PB3-PadCN10_31)*%
X552320000Y-75410000D03*
%TO.N,unconnected-(U9B-AGND-PadCN10_32)*%
X554860000Y-75410000D03*
%TO.N,unconnected-(U9B-PA10-PadCN10_33)*%
X552320000Y-77950000D03*
%TO.N,/TDM/TDM_LED_WARN*%
X554860000Y-77950000D03*
%TO.N,/TDM_DBG_TX*%
X552320000Y-80490000D03*
%TO.N,N/C*%
X554860000Y-80490000D03*
%TO.N,/TDM_DBG_RX*%
X552320000Y-83030000D03*
%TO.N,N/C*%
X554860000Y-83030000D03*
%TD*%
D14*
%TO.N,Net-(U38-XI)*%
%TO.C,Y7*%
X305110000Y-54400000D03*
%TO.N,Net-(U38-XO)*%
X309990000Y-54400000D03*
%TD*%
D10*
%TO.N,Net-(J11-Pin_1)*%
%TO.C,J11*%
X557555000Y-134225000D03*
D11*
X557555000Y-135225000D03*
%TD*%
D10*
%TO.N,Net-(J6-Pin_1)*%
%TO.C,J6*%
X557555000Y-115100000D03*
D11*
X557555000Y-116100000D03*
%TD*%
D14*
%TO.N,Net-(U39-XI)*%
%TO.C,Y8*%
X439810000Y-54400000D03*
%TO.N,Net-(U39-XO)*%
X444690000Y-54400000D03*
%TD*%
D25*
%TO.N,GND*%
%TO.C,TH4*%
X528400000Y-61600000D03*
D26*
%TO.N,Net-(U9A-PC1{slash}PB9)*%
X530940000Y-61600000D03*
%TD*%
D10*
%TO.N,Net-(J10-Pin_1)*%
%TO.C,J10*%
X557555000Y-127850000D03*
D11*
X557555000Y-128850000D03*
%TD*%
D15*
%TO.N,unconnected-(J22-Shield-Pad5)_1*%
%TO.C,J22*%
X453700000Y-178600000D03*
%TO.N,unconnected-(J22-Shield-Pad5)*%
X442300000Y-178600000D03*
%TD*%
D10*
%TO.N,/USB_debug_UUM/DBG_TX*%
%TO.C,J34*%
X234750000Y-34625000D03*
D11*
%TO.N,/UUM_DBG_RX*%
X235750000Y-34625000D03*
%TO.N,GND*%
X236750000Y-34625000D03*
%TD*%
D23*
%TO.N,unconnected-(U4-PB12-Pad1)*%
%TO.C,U4*%
X237780000Y-153500000D03*
D24*
%TO.N,unconnected-(U4-PB13-Pad2)*%
X235240000Y-153500000D03*
%TO.N,unconnected-(U4-PB14-Pad3)*%
X232700000Y-153500000D03*
%TO.N,unconnected-(U4-PB15-Pad4)*%
X230160000Y-153500000D03*
%TO.N,unconnected-(U4-PA8-Pad5)*%
X227620000Y-153500000D03*
%TO.N,/APM/7SDD_CMD_RX*%
X225080000Y-153500000D03*
%TO.N,/APM/7SDD_CMD_TX*%
X222540000Y-153500000D03*
%TO.N,Net-(U36-DP)*%
X220000000Y-153500000D03*
%TO.N,Net-(U36-G)*%
X217460000Y-153500000D03*
%TO.N,Net-(U36-F)*%
X214920000Y-153500000D03*
%TO.N,Net-(U36-E)*%
X212380000Y-153500000D03*
%TO.N,Net-(U36-D)*%
X209840000Y-153500000D03*
%TO.N,Net-(U36-C)*%
X207300000Y-153500000D03*
%TO.N,Net-(U36-B)*%
X204760000Y-153500000D03*
%TO.N,Net-(U36-A)*%
X202220000Y-153500000D03*
%TO.N,Net-(U2-DP)*%
X199680000Y-153500000D03*
%TO.N,Net-(U2-G)*%
X197140000Y-153500000D03*
%TO.N,5V_7SDD*%
X194600000Y-153500000D03*
%TO.N,unconnected-(U4-GND-Pad19)*%
X192060000Y-153500000D03*
%TO.N,unconnected-(U4-3V3-Pad20)*%
X189520000Y-153500000D03*
%TO.N,unconnected-(U4-VBat-Pad21)*%
X189520000Y-168740000D03*
%TO.N,unconnected-(U4-PC13-Pad22)*%
X192060000Y-168740000D03*
%TO.N,Net-(U2-F)*%
X194600000Y-168740000D03*
%TO.N,Net-(U2-E)*%
X197140000Y-168740000D03*
%TO.N,Net-(U2-D)*%
X199680000Y-168740000D03*
%TO.N,Net-(U2-C)*%
X202220000Y-168740000D03*
%TO.N,Net-(U2-B)*%
X204760000Y-168740000D03*
%TO.N,Net-(U2-A)*%
X207300000Y-168740000D03*
%TO.N,Net-(U18-DP)*%
X209840000Y-168740000D03*
%TO.N,Net-(U18-G)*%
X212380000Y-168740000D03*
%TO.N,Net-(U18-F)*%
X214920000Y-168740000D03*
%TO.N,Net-(U18-E)*%
X217460000Y-168740000D03*
%TO.N,Net-(U18-D)*%
X220000000Y-168740000D03*
%TO.N,Net-(U18-C)*%
X222540000Y-168740000D03*
%TO.N,Net-(U18-B)*%
X225080000Y-168740000D03*
%TO.N,Net-(U18-A)*%
X227620000Y-168740000D03*
%TO.N,unconnected-(U4-RST-Pad37)*%
X230160000Y-168740000D03*
%TO.N,unconnected-(U4-3V3-Pad38)*%
X232700000Y-168740000D03*
%TO.N,GND*%
X235240000Y-168740000D03*
%TO.N,unconnected-(U4-GND-Pad40)*%
X237780000Y-168740000D03*
%TO.N,N/C*%
X193331000Y-164932000D03*
X193331000Y-162392000D03*
X193331000Y-159852000D03*
X193331000Y-157312000D03*
%TD*%
D15*
%TO.N,unconnected-(J29-Shield-Pad5)_1*%
%TO.C,J29*%
X295600000Y-34300000D03*
%TO.N,unconnected-(J29-Shield-Pad5)*%
X307000000Y-34300000D03*
%TD*%
D25*
%TO.N,GND*%
%TO.C,TH3*%
X235000000Y-62600000D03*
D26*
%TO.N,Net-(U9A-PA4)*%
X237540000Y-62600000D03*
%TD*%
D28*
%TO.N,unconnected-(U3F-D8-PadCN5_1)*%
%TO.C,U3*%
X254460000Y-60970000D03*
D29*
%TO.N,unconnected-(U3F-D9-PadCN5_2)*%
X254460000Y-58430000D03*
%TO.N,unconnected-(U3F-D10-PadCN5_3)*%
X254460000Y-55890000D03*
%TO.N,unconnected-(U3F-D11-PadCN5_4)*%
X254460000Y-53350000D03*
%TO.N,unconnected-(U3F-D12-PadCN5_5)*%
X254460000Y-50810000D03*
%TO.N,unconnected-(U3F-D13-PadCN5_6)*%
X254460000Y-48270000D03*
%TO.N,unconnected-(U3F-GND_S6-PadCN5_7)*%
X254460000Y-45730000D03*
%TO.N,unconnected-(U3F-AVDD_S6-PadCN5_8)*%
X254460000Y-43190000D03*
%TO.N,unconnected-(U3F-D14-PadCN5_9)*%
X254460000Y-40650000D03*
%TO.N,unconnected-(U3F-D15-PadCN5_10)*%
X254460000Y-38110000D03*
D28*
%TO.N,N/C*%
X206200000Y-47250000D03*
D29*
%TO.N,unconnected-(U3C-IOREF-PadCN6_2)*%
X206200000Y-49790000D03*
%TO.N,unconnected-(U3C-RESET-PadCN6_3)*%
X206200000Y-52330000D03*
%TO.N,unconnected-(U3C-+3V3-PadCN6_4)*%
X206200000Y-54870000D03*
%TO.N,unconnected-(U3C-+5V-PadCN6_5)*%
X206200000Y-57410000D03*
%TO.N,unconnected-(U3C-GND-PadCN6_6)_1*%
X206200000Y-59950000D03*
%TO.N,unconnected-(U3C-GND-PadCN6_6)*%
X206200000Y-62490000D03*
%TO.N,unconnected-(U3C-VIN-PadCN6_8)*%
X206200000Y-65030000D03*
D30*
%TO.N,unconnected-(U3A-PC10-PadCN7_1)*%
X198580000Y-37090000D03*
D31*
%TO.N,unconnected-(U3A-PC11-PadCN7_2)*%
X201120000Y-37090000D03*
%TO.N,unconnected-(U3A-PC12-PadCN7_3)*%
X198580000Y-39630000D03*
%TO.N,unconnected-(U3A-PD2-PadCN7_4)*%
X201120000Y-39630000D03*
%TO.N,unconnected-(U3A-VDD-PadCN7_5)*%
X198580000Y-42170000D03*
%TO.N,unconnected-(U3A-E5V-PadCN7_6)*%
X201120000Y-42170000D03*
%TO.N,unconnected-(U3A-BOOT0-PadCN7_7)*%
X198580000Y-44710000D03*
%TO.N,unconnected-(U3A-GND_S1-PadCN7_19)_3*%
X201120000Y-44710000D03*
%TO.N,N/C*%
X198580000Y-47250000D03*
X201120000Y-47250000D03*
X198580000Y-49790000D03*
%TO.N,unconnected-(U3A-IOREF_S1-PadCN7_12)*%
X201120000Y-49790000D03*
%TO.N,unconnected-(U3A-PA13-PadCN7_13)*%
X198580000Y-52330000D03*
%TO.N,unconnected-(U3A-RESET_S1-PadCN7_14)*%
X201120000Y-52330000D03*
%TO.N,unconnected-(U3A-PA14-PadCN7_15)*%
X198580000Y-54870000D03*
%TO.N,UUM_3v3*%
X201120000Y-54870000D03*
%TO.N,unconnected-(U3A-PA15-PadCN7_17)*%
X198580000Y-57410000D03*
%TO.N,UUM_VDD*%
X201120000Y-57410000D03*
%TO.N,unconnected-(U3A-GND_S1-PadCN7_19)_1*%
X198580000Y-59950000D03*
%TO.N,unconnected-(U3A-GND_S1-PadCN7_19)_2*%
X201120000Y-59950000D03*
%TO.N,unconnected-(U3A-PB7-PadCN7_21)*%
X198580000Y-62490000D03*
%TO.N,unconnected-(U3A-GND_S1-PadCN7_19)*%
X201120000Y-62490000D03*
%TO.N,unconnected-(U3A-PC13-PadCN7_23)*%
X198580000Y-65030000D03*
%TO.N,unconnected-(U3A-VIN_S1-PadCN7_24)*%
X201120000Y-65030000D03*
%TO.N,/UUM/UUM_SPI_SEL*%
X198580000Y-67570000D03*
%TO.N,N/C*%
X201120000Y-67570000D03*
%TO.N,unconnected-(U3A-PC15-PadCN7_27)*%
X198580000Y-70110000D03*
%TO.N,unconnected-(U3A-PA0-PadCN7_28)*%
X201120000Y-70110000D03*
%TO.N,unconnected-(U3A-PF0-PadCN7_29)*%
X198580000Y-72650000D03*
%TO.N,unconnected-(U3A-PA1-PadCN7_30)*%
X201120000Y-72650000D03*
%TO.N,unconnected-(U3A-PF1-PadCN7_31)*%
X198580000Y-75190000D03*
%TO.N,unconnected-(U3A-PA4-PadCN7_32)*%
X201120000Y-75190000D03*
%TO.N,unconnected-(U3A-VBAT-PadCN7_33)*%
X198580000Y-77730000D03*
%TO.N,unconnected-(U3A-PB0-PadCN7_34)*%
X201120000Y-77730000D03*
%TO.N,/UUM/UUM_LED_OK*%
X198580000Y-80270000D03*
%TO.N,/UUM/UUM_LED_WARN*%
X201120000Y-80270000D03*
%TO.N,unconnected-(U3A-PC3-PadCN7_37)*%
X198580000Y-82810000D03*
%TO.N,/UUM/UUM_LED_FAIL*%
X201120000Y-82810000D03*
D28*
%TO.N,unconnected-(U3E-A0-PadCN8_1)*%
X206200000Y-70110000D03*
D29*
%TO.N,unconnected-(U3E-A1-PadCN8_2)*%
X206200000Y-72650000D03*
%TO.N,unconnected-(U3E-A2-PadCN8_3)*%
X206200000Y-75190000D03*
%TO.N,unconnected-(U3E-A3-PadCN8_4)*%
X206200000Y-77730000D03*
%TO.N,unconnected-(U3E-A4-PadCN8_5)*%
X206200000Y-80270000D03*
%TO.N,unconnected-(U3E-A5-PadCN8_6)*%
X206200000Y-82810000D03*
D28*
%TO.N,unconnected-(U3D-D0-PadCN9_1)*%
X254460000Y-82810000D03*
D29*
%TO.N,unconnected-(U3D-D1-PadCN9_2)*%
X254460000Y-80270000D03*
%TO.N,unconnected-(U3D-D2-PadCN9_3)*%
X254460000Y-77730000D03*
%TO.N,unconnected-(U3D-D3-PadCN9_4)*%
X254460000Y-75190000D03*
%TO.N,unconnected-(U3D-D4-PadCN9_5)*%
X254460000Y-72650000D03*
%TO.N,unconnected-(U3D-D5-PadCN9_6)*%
X254460000Y-70110000D03*
%TO.N,unconnected-(U3D-D6-PadCN9_7)*%
X254460000Y-67570000D03*
%TO.N,unconnected-(U3D-D7-PadCN9_8)*%
X254460000Y-65030000D03*
D30*
%TO.N,unconnected-(U3B-PC9-PadCN10_1)*%
X259540000Y-37090000D03*
D31*
%TO.N,unconnected-(U3B-PC8-PadCN10_2)*%
X262080000Y-37090000D03*
%TO.N,/UUM_CAN_RD*%
X259540000Y-39630000D03*
%TO.N,unconnected-(U3B-PC6-PadCN10_4)*%
X262080000Y-39630000D03*
%TO.N,/UUM_CAN_TD*%
X259540000Y-42170000D03*
%TO.N,unconnected-(U3B-PC5-PadCN10_6)*%
X262080000Y-42170000D03*
%TO.N,unconnected-(U3B-AVDD-PadCN10_7)*%
X259540000Y-44710000D03*
%TO.N,unconnected-(U3B-U5V-PadCN10_8)*%
X262080000Y-44710000D03*
%TO.N,GND*%
X259540000Y-47250000D03*
%TO.N,N/C*%
X262080000Y-47250000D03*
%TO.N,/UUM/UUM_SPI1_SCLK*%
X259540000Y-49790000D03*
%TO.N,unconnected-(U3B-PA12-PadCN10_12)*%
X262080000Y-49790000D03*
%TO.N,/UUM/UUM_SPI1_MISO*%
X259540000Y-52330000D03*
%TO.N,unconnected-(U3B-PA11-PadCN10_14)*%
X262080000Y-52330000D03*
%TO.N,/UUM/UUM_SPI1_MOSI*%
X259540000Y-54870000D03*
%TO.N,unconnected-(U3B-PB12-PadCN10_16)*%
X262080000Y-54870000D03*
%TO.N,unconnected-(U3B-PB6-PadCN10_17)*%
X259540000Y-57410000D03*
%TO.N,unconnected-(U3B-PB11-PadCN10_18)*%
X262080000Y-57410000D03*
%TO.N,unconnected-(U3B-PC7-PadCN10_19)*%
X259540000Y-59950000D03*
%TO.N,GND*%
X262080000Y-59950000D03*
%TO.N,/UUM/UUM_SPI2_CS*%
X259540000Y-62490000D03*
%TO.N,unconnected-(U3B-PB2-PadCN10_22)*%
X262080000Y-62490000D03*
%TO.N,/UUM/UUM_SPI1_CS*%
X259540000Y-65030000D03*
%TO.N,unconnected-(U3B-PB1-PadCN10_24)*%
X262080000Y-65030000D03*
%TO.N,unconnected-(U3B-PB10-PadCN10_25)*%
X259540000Y-67570000D03*
%TO.N,unconnected-(U3B-PB15-PadCN10_26)*%
X262080000Y-67570000D03*
%TO.N,unconnected-(U3B-PB4-PadCN10_27)*%
X259540000Y-70110000D03*
%TO.N,unconnected-(U3B-PB14-PadCN10_28)*%
X262080000Y-70110000D03*
%TO.N,unconnected-(U3B-PB5-PadCN10_29)*%
X259540000Y-72650000D03*
%TO.N,unconnected-(U3B-PB13-PadCN10_30)*%
X262080000Y-72650000D03*
%TO.N,unconnected-(U3B-PB3-PadCN10_31)*%
X259540000Y-75190000D03*
%TO.N,unconnected-(U3B-AGND-PadCN10_32)*%
X262080000Y-75190000D03*
%TO.N,unconnected-(U3B-PA10-PadCN10_33)*%
X259540000Y-77730000D03*
%TO.N,unconnected-(U3B-PC4-PadCN10_34)*%
X262080000Y-77730000D03*
%TO.N,/UUM_DBG_TX*%
X259540000Y-80270000D03*
%TO.N,N/C*%
X262080000Y-80270000D03*
%TO.N,/UUM_DBG_RX*%
X259540000Y-82810000D03*
%TO.N,N/C*%
X262080000Y-82810000D03*
%TD*%
D32*
%TO.N,/TDM_CAN_RD*%
%TO.C,U31*%
X517360000Y-134620000D03*
D17*
%TO.N,GND*%
X514820000Y-134620000D03*
%TO.N,TDM_VDD*%
X512280000Y-134620000D03*
%TO.N,/TDM_CAN_TD*%
X509740000Y-134620000D03*
%TO.N,unconnected-(U31-Vref-Pad5)*%
X509740000Y-142240000D03*
%TO.N,/CAN-*%
X512280000Y-142240000D03*
%TO.N,/CAN+*%
X514820000Y-142240000D03*
%TO.N,Net-(U31-Rs)*%
X517360000Y-142240000D03*
%TD*%
D18*
%TO.N,N/C*%
%TO.C,U17*%
X469800000Y-37256000D03*
D19*
X472340000Y-37256000D03*
X469800000Y-39796000D03*
X472340000Y-39796000D03*
X469800000Y-42336000D03*
X472340000Y-42336000D03*
X469800000Y-44876000D03*
X472340000Y-44876000D03*
X469800000Y-47416000D03*
X472340000Y-47416000D03*
X469800000Y-49956000D03*
X472340000Y-49956000D03*
X469800000Y-52496000D03*
X472340000Y-52496000D03*
X469800000Y-55036000D03*
X472340000Y-55036000D03*
X469800000Y-57576000D03*
X472340000Y-57576000D03*
X469800000Y-60116000D03*
X472340000Y-60116000D03*
D18*
X424080000Y-46400000D03*
D19*
X426620000Y-46400000D03*
X424080000Y-48940000D03*
X426620000Y-48940000D03*
X424080000Y-51480000D03*
X426620000Y-51480000D03*
X424080000Y-54020000D03*
X426620000Y-54020000D03*
X424080000Y-56560000D03*
X426620000Y-56560000D03*
X424080000Y-59100000D03*
X426620000Y-59100000D03*
X424080000Y-61640000D03*
X426620000Y-61640000D03*
X424080000Y-64180000D03*
X426620000Y-64180000D03*
D18*
X424080000Y-69260000D03*
D19*
X426620000Y-69260000D03*
X424080000Y-71800000D03*
X426620000Y-71800000D03*
X424080000Y-74340000D03*
X426620000Y-74340000D03*
X424080000Y-76880000D03*
X426620000Y-76880000D03*
X424080000Y-79420000D03*
X426620000Y-79420000D03*
X424080000Y-81960000D03*
X426620000Y-81960000D03*
X424080000Y-84500000D03*
X426620000Y-84500000D03*
X424080000Y-87040000D03*
X426620000Y-87040000D03*
X424080000Y-89580000D03*
X426620000Y-89580000D03*
X424080000Y-92120000D03*
X426620000Y-92120000D03*
X424080000Y-94660000D03*
X426620000Y-94660000D03*
X424080000Y-97200000D03*
X426620000Y-97200000D03*
X424080000Y-99740000D03*
X426620000Y-99740000D03*
X424080000Y-102280000D03*
X426620000Y-102280000D03*
X424080000Y-104820000D03*
X426620000Y-104820000D03*
D18*
X469800000Y-64180000D03*
D19*
X472340000Y-64180000D03*
X469800000Y-66720000D03*
X472340000Y-66720000D03*
X469800000Y-69260000D03*
X472340000Y-69260000D03*
X469800000Y-71800000D03*
X472340000Y-71800000D03*
X469800000Y-74340000D03*
X472340000Y-74340000D03*
X469800000Y-76880000D03*
X472340000Y-76880000D03*
X469800000Y-79420000D03*
X472340000Y-79420000D03*
X469800000Y-81960000D03*
X472340000Y-81960000D03*
X469800000Y-84500000D03*
X472340000Y-84500000D03*
X469800000Y-87040000D03*
X472340000Y-87040000D03*
X469800000Y-89580000D03*
X472340000Y-89580000D03*
X469800000Y-92120000D03*
X472340000Y-92120000D03*
X469800000Y-94660000D03*
X472340000Y-94660000D03*
X469800000Y-97200000D03*
X472340000Y-97200000D03*
X469800000Y-99740000D03*
X472340000Y-99740000D03*
X469800000Y-102280000D03*
X472340000Y-102280000D03*
X469800000Y-104820000D03*
X472340000Y-104820000D03*
D18*
%TO.N,unconnected-(U17A-PC10-PadCN11_1)*%
X416460000Y-36240000D03*
D19*
%TO.N,unconnected-(U17A-PC11-PadCN11_2)*%
X419000000Y-36240000D03*
%TO.N,/DSM_DBG_TX*%
X416460000Y-38780000D03*
%TO.N,/DSM_DBG_RX*%
X419000000Y-38780000D03*
%TO.N,unconnected-(U17A-3V3_VDD-PadCN11_5)*%
X416460000Y-41320000D03*
%TO.N,unconnected-(U17A-5V_EXT-PadCN11_6)*%
X419000000Y-41320000D03*
%TO.N,unconnected-(U17A-BOOT0-PadCN11_7)*%
X416460000Y-43860000D03*
%TO.N,GND*%
X419000000Y-43860000D03*
%TO.N,unconnected-(U17A-PF6-PadCN11_9)*%
X416460000Y-46400000D03*
%TO.N,unconnected-(U17A-NC-PadCN11_10)*%
X419000000Y-46400000D03*
%TO.N,unconnected-(U17A-PF7-PadCN11_11)*%
X416460000Y-48940000D03*
%TO.N,unconnected-(U17A-IOREF-PadCN11_12)*%
X419000000Y-48940000D03*
%TO.N,unconnected-(U17A-PA13-PadCN11_13)*%
X416460000Y-51480000D03*
%TO.N,unconnected-(U17A-NRST-PadCN11_14)*%
X419000000Y-51480000D03*
%TO.N,unconnected-(U17A-PA14-PadCN11_15)*%
X416460000Y-54020000D03*
%TO.N,unconnected-(U17A-3V3-PadCN11_16)*%
X419000000Y-54020000D03*
%TO.N,unconnected-(U17A-PA15-PadCN11_17)*%
X416460000Y-56560000D03*
%TO.N,DSM_VDD*%
X419000000Y-56560000D03*
%TO.N,GND*%
X416460000Y-59100000D03*
X419000000Y-59100000D03*
%TO.N,/FMC_NL*%
X416460000Y-61640000D03*
%TO.N,GND*%
X419000000Y-61640000D03*
%TO.N,unconnected-(U17A-PC13-PadCN11_23)*%
X416460000Y-64180000D03*
%TO.N,unconnected-(U17A-VIN-PadCN11_24)*%
X419000000Y-64180000D03*
%TO.N,unconnected-(U17A-PC14-PadCN11_25)*%
X416460000Y-66720000D03*
%TO.N,unconnected-(U17A-NC-PadCN11_26)*%
X419000000Y-66720000D03*
%TO.N,unconnected-(U17A-PC15-PadCN11_27)*%
X416460000Y-69260000D03*
%TO.N,unconnected-(U17A-PA0-PadCN11_28)*%
X419000000Y-69260000D03*
%TO.N,unconnected-(U17A-PH0-PadCN11_29)*%
X416460000Y-71800000D03*
%TO.N,unconnected-(U17A-PA1-PadCN11_30)*%
X419000000Y-71800000D03*
%TO.N,unconnected-(U17A-PH1-PadCN11_31)*%
X416460000Y-74340000D03*
%TO.N,/DAC_R*%
X419000000Y-74340000D03*
%TO.N,unconnected-(U17A-VBAT-PadCN11_33)*%
X416460000Y-76880000D03*
%TO.N,unconnected-(U17A-PB0-PadCN11_34)*%
X419000000Y-76880000D03*
%TO.N,unconnected-(U17A-PC2-PadCN11_35)*%
X416460000Y-79420000D03*
%TO.N,unconnected-(U17A-PC1-PadCN11_36)*%
X419000000Y-79420000D03*
%TO.N,unconnected-(U17A-PC3-PadCN11_37)*%
X416460000Y-81960000D03*
%TO.N,unconnected-(U17A-PC0-PadCN11_38)*%
X419000000Y-81960000D03*
%TO.N,/FMC_NOE*%
X416460000Y-84500000D03*
%TO.N,/FMC_CLK*%
X419000000Y-84500000D03*
%TO.N,/FMC_NWE*%
X416460000Y-87040000D03*
%TO.N,unconnected-(U17A-PG2-PadCN11_42)*%
X419000000Y-87040000D03*
%TO.N,unconnected-(U17A-PD6-PadCN11_43)*%
X416460000Y-89580000D03*
%TO.N,unconnected-(U17A-PG3-PadCN11_44)*%
X419000000Y-89580000D03*
%TO.N,unconnected-(U17A-PD7-PadCN11_45)*%
X416460000Y-92120000D03*
%TO.N,unconnected-(U17A-PE2-PadCN11_46)*%
X419000000Y-92120000D03*
%TO.N,/IRQ0*%
X416460000Y-94660000D03*
%TO.N,unconnected-(U17A-PE4-PadCN11_48)*%
X419000000Y-94660000D03*
%TO.N,GND*%
X416460000Y-97200000D03*
%TO.N,unconnected-(U17A-PE5-PadCN11_50)*%
X419000000Y-97200000D03*
%TO.N,/DSM/DSM_I2C1_SCL*%
X416460000Y-99740000D03*
%TO.N,unconnected-(U17A-PF2-PadCN11_52)*%
X419000000Y-99740000D03*
%TO.N,/DSM/DSM_I2C1_SDA*%
X416460000Y-102280000D03*
%TO.N,unconnected-(U17A-PF8-PadCN11_54)*%
X419000000Y-102280000D03*
%TO.N,/FMC_D3*%
X416460000Y-104820000D03*
%TO.N,unconnected-(U17A-PF9-PadCN11_56)*%
X419000000Y-104820000D03*
%TO.N,/FMC_D2*%
X416460000Y-107360000D03*
%TO.N,unconnected-(U17A-PG1-PadCN11_58)*%
X419000000Y-107360000D03*
%TO.N,unconnected-(U17A-PG0-PadCN11_59)*%
X416460000Y-109900000D03*
%TO.N,GND*%
X419000000Y-109900000D03*
%TO.N,/FMC_NBL1*%
X416460000Y-112440000D03*
%TO.N,/ISR0*%
X419000000Y-112440000D03*
%TO.N,unconnected-(U17A-PG9-PadCN11_63)*%
X416460000Y-114980000D03*
%TO.N,unconnected-(U17A-PG15-PadCN11_64)*%
X419000000Y-114980000D03*
%TO.N,unconnected-(U17A-PG12-PadCN11_65)*%
X416460000Y-117520000D03*
%TO.N,unconnected-(U17A-PG10-PadCN11_66)*%
X419000000Y-117520000D03*
%TO.N,unconnected-(U17A-NC-PadCN11_67)*%
X416460000Y-120060000D03*
%TO.N,unconnected-(U17A-PG13-PadCN11_68)*%
X419000000Y-120060000D03*
%TO.N,/FMC_D14*%
X416460000Y-122600000D03*
%TO.N,unconnected-(U17A-PG11-PadCN11_70)*%
X419000000Y-122600000D03*
%TO.N,GND*%
X416460000Y-125140000D03*
X419000000Y-125140000D03*
D18*
%TO.N,unconnected-(U17B-PC9-PadCN12_1)*%
X477420000Y-36260000D03*
D19*
%TO.N,unconnected-(U17B-PC8-PadCN12_2)*%
X479960000Y-36260000D03*
%TO.N,/DSM_CAN_RD*%
X477420000Y-38800000D03*
%TO.N,/DSM/DSM_LED_OK*%
X479960000Y-38800000D03*
%TO.N,/DSM_CAN_TD*%
X477420000Y-41340000D03*
%TO.N,/DSM/DSM_LED_WARN*%
X479960000Y-41340000D03*
%TO.N,unconnected-(U17B-VREFP-PadCN12_7)*%
X477420000Y-43880000D03*
%TO.N,unconnected-(U17B-5V_USB_STLK-PadCN12_8)*%
X479960000Y-43880000D03*
%TO.N,unconnected-(U17B-GND_CN12-PadCN12_20)_5*%
X477420000Y-46420000D03*
%TO.N,/FMC_D13*%
X479960000Y-46420000D03*
%TO.N,/DAC_L*%
X477420000Y-48960000D03*
%TO.N,/DSM/DSM_USB_D-*%
X479960000Y-48960000D03*
%TO.N,unconnected-(U17B-PA6-PadCN12_13)*%
X477420000Y-51500000D03*
%TO.N,/DSM/DSM_USB_D+*%
X479960000Y-51500000D03*
%TO.N,unconnected-(U17B-PA7-PadCN12_15)*%
X477420000Y-54040000D03*
%TO.N,unconnected-(U17B-PB12-PadCN12_16)*%
X479960000Y-54040000D03*
%TO.N,unconnected-(U17B-PB6-PadCN12_17)*%
X477420000Y-56580000D03*
%TO.N,unconnected-(U17B-PB11-PadCN12_18)*%
X479960000Y-56580000D03*
%TO.N,/FMC_NE*%
X477420000Y-59120000D03*
%TO.N,unconnected-(U17B-GND_CN12-PadCN12_20)_4*%
X479960000Y-59120000D03*
%TO.N,unconnected-(U17B-PA9-PadCN12_21)*%
X477420000Y-61660000D03*
%TO.N,unconnected-(U17B-PB2-PadCN12_22)*%
X479960000Y-61660000D03*
%TO.N,unconnected-(U17B-PA8-PadCN12_23)*%
X477420000Y-64200000D03*
%TO.N,unconnected-(U17B-PB1-PadCN12_24)*%
X479960000Y-64200000D03*
%TO.N,unconnected-(U17B-PB10-PadCN12_25)*%
X477420000Y-66740000D03*
%TO.N,unconnected-(U17B-PB15-PadCN12_26)*%
X479960000Y-66740000D03*
%TO.N,unconnected-(U17B-PB4-PadCN12_27)*%
X477420000Y-69280000D03*
%TO.N,unconnected-(U17B-PB14-PadCN12_28)*%
X479960000Y-69280000D03*
%TO.N,unconnected-(U17B-PB5-PadCN12_29)*%
X477420000Y-71820000D03*
%TO.N,unconnected-(U17B-PB13-PadCN12_30)*%
X479960000Y-71820000D03*
%TO.N,unconnected-(U17B-PB3-PadCN12_31)*%
X477420000Y-74360000D03*
%TO.N,unconnected-(U17B-AGND_CN12-PadCN12_32)*%
X479960000Y-74360000D03*
%TO.N,unconnected-(U17B-PA10-PadCN12_33)*%
X477420000Y-76900000D03*
%TO.N,/DSM/DSM_LED_FAIL*%
X479960000Y-76900000D03*
%TO.N,unconnected-(U17B-PA2-PadCN12_35)*%
X477420000Y-79440000D03*
%TO.N,unconnected-(U17B-PF5-PadCN12_36)*%
X479960000Y-79440000D03*
%TO.N,unconnected-(U17B-PA3-PadCN12_37)*%
X477420000Y-81980000D03*
%TO.N,unconnected-(U17B-PF4-PadCN12_38)*%
X479960000Y-81980000D03*
%TO.N,unconnected-(U17B-GND_CN12-PadCN12_20)*%
X477420000Y-84520000D03*
%TO.N,/FMC_D5*%
X479960000Y-84520000D03*
%TO.N,unconnected-(U17B-PD13-PadCN12_41)*%
X477420000Y-87060000D03*
%TO.N,unconnected-(U17B-PF10-PadCN12_42)*%
X479960000Y-87060000D03*
%TO.N,unconnected-(U17B-PD12-PadCN12_43)*%
X477420000Y-89600000D03*
%TO.N,/FMC_D4*%
X479960000Y-89600000D03*
%TO.N,unconnected-(U17B-PD11-PadCN12_45)*%
X477420000Y-92140000D03*
%TO.N,/FMC_D0*%
X479960000Y-92140000D03*
%TO.N,/FMC_D7*%
X477420000Y-94680000D03*
%TO.N,/FMC_D1*%
X479960000Y-94680000D03*
%TO.N,/FMC_D9*%
X477420000Y-97220000D03*
%TO.N,unconnected-(U17B-PF14-PadCN12_50)*%
X479960000Y-97220000D03*
%TO.N,/FMC_D11*%
X477420000Y-99760000D03*
%TO.N,/FMC_D6*%
X479960000Y-99760000D03*
%TO.N,/FMC_D12*%
X477420000Y-102300000D03*
%TO.N,unconnected-(U17B-GND_CN12-PadCN12_20)_6*%
X479960000Y-102300000D03*
%TO.N,/FMC_D10*%
X477420000Y-104840000D03*
%TO.N,/FMC_D8*%
X479960000Y-104840000D03*
%TO.N,unconnected-(U17B-PF13-PadCN12_57)*%
X477420000Y-107380000D03*
%TO.N,unconnected-(U17B-PF3-PadCN12_58)*%
X479960000Y-107380000D03*
%TO.N,unconnected-(U17B-PF12-PadCN12_59)*%
X477420000Y-109920000D03*
%TO.N,unconnected-(U17B-PF15-PadCN12_60)*%
X479960000Y-109920000D03*
%TO.N,unconnected-(U17B-PG14-PadCN12_61)*%
X477420000Y-112460000D03*
%TO.N,unconnected-(U17B-PF11-PadCN12_62)*%
X479960000Y-112460000D03*
%TO.N,unconnected-(U17B-GND_CN12-PadCN12_20)_2*%
X477420000Y-115000000D03*
%TO.N,/FMC_NBL0*%
X479960000Y-115000000D03*
%TO.N,/FMC_D15*%
X477420000Y-117540000D03*
%TO.N,unconnected-(U17B-PG8-PadCN12_66)*%
X479960000Y-117540000D03*
%TO.N,unconnected-(U17B-PG7-PadCN12_67)*%
X477420000Y-120080000D03*
%TO.N,unconnected-(U17B-PG5-PadCN12_68)*%
X479960000Y-120080000D03*
%TO.N,unconnected-(U17B-PG4-PadCN12_69)*%
X477420000Y-122620000D03*
%TO.N,unconnected-(U17B-PG6-PadCN12_70)*%
X479960000Y-122620000D03*
%TO.N,unconnected-(U17B-GND_CN12-PadCN12_20)_1*%
X477420000Y-125160000D03*
%TO.N,unconnected-(U17B-GND_CN12-PadCN12_20)_3*%
X479960000Y-125160000D03*
%TD*%
D14*
%TO.N,Net-(U37-XI)*%
%TO.C,Y5*%
X516060000Y-54500000D03*
%TO.N,Net-(U37-XO)*%
X520940000Y-54500000D03*
%TD*%
D12*
%TO.N,Net-(U36-E)*%
%TO.C,U36*%
X188500000Y-139963000D03*
D13*
%TO.N,Net-(U36-D)*%
X191040000Y-139963000D03*
%TO.N,GND*%
X193580000Y-139963000D03*
%TO.N,Net-(U36-C)*%
X196120000Y-139963000D03*
%TO.N,Net-(U36-DP)*%
X198660000Y-139963000D03*
%TO.N,Net-(U36-B)*%
X198660000Y-124723000D03*
%TO.N,Net-(U36-A)*%
X196120000Y-124723000D03*
%TO.N,GND*%
X193580000Y-124723000D03*
%TO.N,Net-(U36-F)*%
X191040000Y-124723000D03*
%TO.N,Net-(U36-G)*%
X188500000Y-124723000D03*
%TD*%
D15*
%TO.N,unconnected-(J27-Shield-Pad5)_1*%
%TO.C,J27*%
X506550000Y-34400000D03*
%TO.N,unconnected-(J27-Shield-Pad5)*%
X517950000Y-34400000D03*
%TD*%
D10*
%TO.N,/USB_debug_ACM/DBG_TX*%
%TO.C,J26*%
X370250000Y-177919900D03*
D11*
%TO.N,/ACM_DBG_RX*%
X369250000Y-177919900D03*
%TO.N,GND*%
X368250000Y-177919900D03*
%TD*%
D10*
%TO.N,Net-(J5-Pin_1)*%
%TO.C,J5*%
X557555000Y-108725000D03*
D11*
X557555000Y-109725000D03*
%TD*%
D33*
%TO.N,/DSM_CAN_RD*%
%TO.C,U30*%
X509740000Y-124540000D03*
D17*
%TO.N,GND*%
X512280000Y-124540000D03*
%TO.N,DSM_VDD*%
X514820000Y-124540000D03*
%TO.N,/DSM_CAN_TD*%
X517360000Y-124540000D03*
%TO.N,unconnected-(U30-Vref-Pad5)*%
X517360000Y-116920000D03*
%TO.N,/CAN-*%
X514820000Y-116920000D03*
%TO.N,/CAN+*%
X512280000Y-116920000D03*
%TO.N,Net-(U30-Rs)*%
X509740000Y-116920000D03*
%TD*%
D10*
%TO.N,Net-(J7-Pin_1)*%
%TO.C,J7*%
X557555000Y-121475000D03*
D11*
X557555000Y-122475000D03*
%TD*%
D34*
%TO.N,GND*%
X238500000Y-35250000D03*
X364293700Y-133008900D03*
X399000000Y-177900000D03*
X399100000Y-174900000D03*
X526360000Y-94320000D03*
X222800000Y-110695000D03*
X517339500Y-96473600D03*
X547938500Y-135942500D03*
X547962900Y-115881000D03*
X428144800Y-146602300D03*
X221688000Y-49144900D03*
X499888300Y-104708700D03*
X366600000Y-177400000D03*
X234505000Y-98600000D03*
X531736100Y-108580000D03*
X398341900Y-122894400D03*
X512400200Y-105922000D03*
X400090400Y-114120600D03*
X405108400Y-118780800D03*
X550067200Y-135796100D03*
X248400000Y-107300000D03*
X303588000Y-49400000D03*
X442453400Y-175697400D03*
X428144800Y-155956800D03*
X199778300Y-103956400D03*
X534181500Y-121999200D03*
X289547200Y-151145000D03*
X500152300Y-99169300D03*
X287000000Y-176600000D03*
X514500000Y-46000000D03*
X380560700Y-132718900D03*
X402483800Y-123737600D03*
X206903600Y-38394900D03*
X364343700Y-120262900D03*
X312250000Y-175784000D03*
X303569000Y-42650000D03*
X289647200Y-141831000D03*
X236505000Y-93600000D03*
X526352000Y-102300000D03*
X225900000Y-59244900D03*
X552369800Y-118557800D03*
X492912700Y-146043200D03*
X422950000Y-35250000D03*
X237105000Y-92600000D03*
X216405000Y-106200000D03*
X512500000Y-108000000D03*
X549871700Y-128694400D03*
X404985500Y-125568400D03*
X549871700Y-141086400D03*
X428194800Y-151694600D03*
X379100000Y-153300000D03*
X364343700Y-124137100D03*
X205133900Y-34515200D03*
X374300000Y-153300000D03*
X547989100Y-142499000D03*
X549871700Y-133651200D03*
X385208600Y-126751100D03*
X243305000Y-102600000D03*
X523550000Y-59600000D03*
X455000000Y-35400000D03*
X245905000Y-96400000D03*
X525922100Y-146043200D03*
X303550000Y-45900000D03*
X503000000Y-113000000D03*
X202752200Y-99512500D03*
X230700000Y-59244900D03*
X306550000Y-37900000D03*
X221650000Y-45644900D03*
X514538000Y-49500000D03*
X364293700Y-128604500D03*
X380350000Y-174900000D03*
X551470100Y-142727500D03*
X412476200Y-114471600D03*
X533441400Y-135318800D03*
X438250000Y-45900000D03*
X517500000Y-38000000D03*
X428194800Y-142848700D03*
X512400200Y-101432000D03*
X534883100Y-129211000D03*
X550067200Y-115881000D03*
X383331000Y-170150000D03*
X288220000Y-35190000D03*
X221669000Y-42394900D03*
X236505000Y-104400000D03*
X549871700Y-113824000D03*
X549871700Y-121259200D03*
X383350000Y-166900000D03*
X442500000Y-59500000D03*
X441250000Y-37900000D03*
X228305000Y-97295000D03*
X531573100Y-142820200D03*
X289647200Y-146318200D03*
X549871700Y-106835000D03*
X380000900Y-130478200D03*
X552369800Y-111837400D03*
X422850000Y-38150000D03*
X224650000Y-37644900D03*
X531250000Y-35500000D03*
X447300000Y-59500000D03*
X288120000Y-38090000D03*
X222800000Y-99800000D03*
X492500000Y-114500000D03*
X529886900Y-116302400D03*
X514519000Y-42750000D03*
X234505000Y-109600000D03*
X499938300Y-96252600D03*
X216505000Y-95200000D03*
X524250000Y-43750000D03*
X438288000Y-49400000D03*
X448000000Y-43650000D03*
X307800000Y-59500000D03*
X512439500Y-109000000D03*
X312600000Y-59500000D03*
X552369800Y-131494000D03*
X232081500Y-93030600D03*
X547954100Y-121388200D03*
X499250000Y-35400000D03*
X517061500Y-100042800D03*
X544515400Y-109206000D03*
X228290400Y-103910400D03*
X199778300Y-108867200D03*
X499888300Y-108862900D03*
X438269000Y-42650000D03*
X237105000Y-103400000D03*
X205820000Y-178220000D03*
X231400000Y-43394900D03*
X228305000Y-108200000D03*
X544506700Y-128986100D03*
X552369800Y-138547500D03*
X383312000Y-163400000D03*
X513000000Y-105000000D03*
X518750000Y-59600000D03*
X289547200Y-156717200D03*
X549871700Y-126663700D03*
X550589800Y-122973600D03*
X499150000Y-38300000D03*
X459200000Y-172600000D03*
X320300000Y-35400000D03*
X199778300Y-96311300D03*
X373600000Y-169150000D03*
X313300000Y-43650000D03*
X325500000Y-172500000D03*
%TO.N,APM_VDD*%
X299050000Y-39400000D03*
X487600000Y-136194900D03*
X492662700Y-131172800D03*
X313259500Y-141029300D03*
X310300000Y-40900000D03*
X287161100Y-141086400D03*
X312325500Y-170827200D03*
%TO.N,Net-(U14-VCC)*%
X397774000Y-122333000D03*
X400123200Y-113172400D03*
%TO.N,/ACM/ACM_LED_OK*%
X360033100Y-123920600D03*
%TO.N,/ACM_CMD_TX*%
X355019900Y-34515200D03*
%TO.N,/ACM/ACM_LED_FAIL*%
X357518000Y-133885700D03*
%TO.N,5V_TDM*%
X547068100Y-118303800D03*
X547051800Y-111757700D03*
X544600200Y-124017200D03*
X547068100Y-131539400D03*
%TO.N,/ACM/ACM_SPI_SCLK*%
X400538400Y-125568400D03*
X372506600Y-123737600D03*
%TO.N,/ACM/ACM_SPI_CS*%
X395044300Y-49148200D03*
X397206100Y-123962400D03*
%TO.N,/ACM/ACM_LED_WARN*%
X360016100Y-128500100D03*
%TO.N,/FMC_NOE*%
X372237600Y-86461500D03*
%TO.N,/ACM/ACM_SPI_MISO*%
X395044300Y-56675800D03*
X405695500Y-120550000D03*
%TO.N,3V3_ACM*%
X393075500Y-123043000D03*
%TO.N,/FMC_NE*%
X478531600Y-94026400D03*
%TO.N,/ACM_CMD_RX*%
X286884600Y-52918400D03*
%TO.N,/ACM/ACM_SPI_MOSI*%
X381000000Y-128000000D03*
%TO.N,/FMC_NL*%
X374265300Y-61777600D03*
%TO.N,/FMC_D1*%
X414145400Y-93227200D03*
%TO.N,/FMC_D11*%
X410075000Y-98856600D03*
X467434400Y-100607100D03*
%TO.N,Net-(J15-Pin_1)*%
X540690100Y-139154600D03*
%TO.N,DSM_VDD*%
X459940100Y-41950400D03*
X422272800Y-55290000D03*
X433750000Y-39400000D03*
X417772800Y-141384600D03*
X431200000Y-53000000D03*
X421000000Y-172000000D03*
X422468600Y-127060400D03*
X445000000Y-40900000D03*
X442453400Y-173305600D03*
%TO.N,/FMC_D15*%
X407471000Y-116302400D03*
%TO.N,/FMC_D0*%
X470161100Y-51226000D03*
%TO.N,TDM_VDD*%
X327169700Y-131172800D03*
X379438400Y-133651200D03*
X456000000Y-106110000D03*
X242605400Y-59299200D03*
X449947700Y-133651200D03*
X257560000Y-76648000D03*
X320046500Y-79126400D03*
X510000000Y-39500000D03*
X537443100Y-95782700D03*
X255095900Y-62394600D03*
X536953900Y-107144400D03*
X517385900Y-98728600D03*
X521250000Y-41000000D03*
X489915700Y-106944500D03*
X519202200Y-103855900D03*
%TO.N,/FMC_D10*%
X474818100Y-99970800D03*
X474932000Y-75539100D03*
%TO.N,/FMC_D6*%
X474710700Y-64158400D03*
X475629900Y-98113800D03*
%TO.N,Net-(J5-Pin_1)*%
X544259000Y-108392100D03*
%TO.N,Net-(J6-Pin_1)*%
X543227700Y-114007900D03*
%TO.N,Net-(J11-Pin_1)*%
X539806900Y-132438000D03*
%TO.N,/FMC_D7*%
X475815300Y-75539100D03*
%TO.N,/FMC_D9*%
X410726100Y-96878500D03*
%TO.N,/FMC_D4*%
X481479000Y-61777600D03*
%TO.N,/FMC_D5*%
X479106500Y-62549800D03*
%TO.N,/FMC_D13*%
X403249500Y-82470400D03*
X481789000Y-84083200D03*
%TO.N,/FMC_D8*%
X411478400Y-100892500D03*
%TO.N,/FMC_D12*%
X407748200Y-101432000D03*
%TO.N,/APM/APM_I2C1_SCL*%
X282961400Y-93070900D03*
X325042700Y-91518400D03*
%TO.N,ACM_VDD*%
X387850000Y-173400000D03*
X394989500Y-111917400D03*
X376600000Y-171900000D03*
%TO.N,/APM/APM_I2C1_SDA*%
X322260100Y-99238000D03*
%TO.N,Net-(U14-~{CS})*%
X387091500Y-122780600D03*
X396713100Y-125162200D03*
%TO.N,/DSM/DSM_I2C1_SDA*%
X444951500Y-100324900D03*
%TO.N,/DSM/DSM_I2C1_SCL*%
X416010400Y-37478100D03*
%TO.N,/TDM/TDM_I2C1_SCL*%
X383086500Y-131172800D03*
X543016000Y-110474400D03*
X384079300Y-126872900D03*
X539533600Y-130256100D03*
X381876100Y-38504400D03*
X542678900Y-123190300D03*
%TO.N,/TDM/TDM_I2C1_SDA*%
X539542300Y-108867200D03*
X382497400Y-136996600D03*
X539617700Y-122926300D03*
X537925600Y-98953600D03*
X539524800Y-135811500D03*
X375004700Y-32105800D03*
X538462800Y-129439000D03*
X539516100Y-116029700D03*
X522392600Y-108685100D03*
D35*
%TO.N,/DAC_R*%
X414863400Y-75129200D03*
%TO.N,/DAC_L*%
X304384400Y-56820800D03*
D34*
%TO.N,/APM/APM_USB_D+*%
X325171200Y-180651700D03*
%TO.N,/APM/APM_USB_D-*%
X316874700Y-175784000D03*
%TO.N,/DSM/DSM_USB_D-*%
X450250000Y-175784000D03*
%TO.N,/DSM/DSM_USB_D+*%
X445625300Y-175784000D03*
%TO.N,/TDM/7SDD_VDD*%
X547955800Y-141209800D03*
X539284300Y-141086400D03*
%TO.N,/DSM/DSM_LED_OK*%
X479924900Y-153478400D03*
X417161200Y-155956800D03*
%TO.N,/DSM/DSM_LED_WARN*%
X477426800Y-151000000D03*
X417458000Y-153254800D03*
%TO.N,/DSM/DSM_LED_FAIL*%
X422777600Y-145133200D03*
X423071300Y-78448500D03*
%TO.N,/TDM/TDM_LED_OK*%
X497170000Y-54342400D03*
X490713500Y-95782700D03*
%TO.N,/TDM/TDM_LED_WARN*%
X487419200Y-101432000D03*
X489631600Y-80269400D03*
%TO.N,/TDM/TDM_LED_FAIL*%
X553209700Y-105892000D03*
X490666800Y-107411200D03*
%TO.N,/TDM/APM_VDD*%
X539654500Y-134128700D03*
X548235000Y-134035000D03*
%TO.N,/APM/APM_LED_OK*%
X345027500Y-151000000D03*
X287161100Y-156088500D03*
%TO.N,/APM/APM_LED_WARN*%
X342504100Y-150974700D03*
X287161100Y-151000000D03*
%TO.N,/APM/APM_LED_FAIL*%
X289295900Y-145410300D03*
X342844900Y-144998600D03*
%TO.N,UUM_3v3*%
X241943100Y-98990700D03*
X218200000Y-95200000D03*
X218200000Y-103800000D03*
%TO.N,/UUM/UUM_SPI_SEL*%
X249500000Y-69500000D03*
%TO.N,/UUM/UUM_LED_OK*%
X192643400Y-106030500D03*
%TO.N,/UUM/UUM_LED_WARN*%
X190145300Y-103910400D03*
%TO.N,/UUM/UUM_LED_FAIL*%
X193513400Y-98118100D03*
%TO.N,/APM_CAN_RD*%
X347855900Y-113824000D03*
%TO.N,/APM_CAN_TD*%
X346193200Y-116593900D03*
%TO.N,/IRQ0*%
X285539600Y-99903500D03*
%TO.N,/APM/7SDD_CMD_RX*%
X274649450Y-151649450D03*
%TO.N,/ISR0*%
X414715900Y-104346400D03*
%TO.N,/APM/7SDD_CMD_TX*%
X225118700Y-116302400D03*
%TO.N,/UUM/UUM_SPI1_SCLK*%
X227400000Y-106000000D03*
X241500000Y-50500000D03*
X227565000Y-95165000D03*
%TO.N,/UUM/UUM_SPI1_MISO*%
X248776991Y-53223008D03*
X244868103Y-101400000D03*
%TO.N,/UUM/UUM_SPI1_MOSI*%
X227153900Y-56820800D03*
X218614200Y-88366800D03*
%TO.N,/UUM/UUM_SPI2_CS*%
X226200000Y-92200000D03*
X230114900Y-64256000D03*
%TO.N,/UUM_CAN_RD*%
X265088300Y-141086400D03*
%TO.N,/UUM_CAN_TD*%
X267996600Y-125815600D03*
%TO.N,/UUM/UUM_SPI1_CS*%
X232613000Y-66734400D03*
X225795000Y-104005000D03*
%TO.N,Net-(U36-B)*%
X201575800Y-150960100D03*
%TO.N,Net-(U36-C)*%
X196872700Y-150659300D03*
%TO.N,Net-(U36-G)*%
X207700000Y-145200000D03*
X189990200Y-141641800D03*
X207100000Y-142700000D03*
%TO.N,Net-(U36-DP)*%
X214637199Y-144962801D03*
X214637199Y-142800000D03*
%TO.N,Net-(U36-D)*%
X192108000Y-150318700D03*
%TO.N,Net-(U36-F)*%
X194246200Y-151000000D03*
%TO.N,/TDM_CAN_RD*%
X549097200Y-133217000D03*
%TO.N,/TDM_CAN_TD*%
X514479600Y-54692900D03*
%TO.N,/DSM_CAN_RD*%
X500780800Y-39968500D03*
%TO.N,/DSM_CAN_TD*%
X479971600Y-126428600D03*
%TO.N,Net-(U2-A)*%
X208747000Y-149068500D03*
%TO.N,5V_7SDD*%
X544515400Y-142543100D03*
X193750000Y-176600000D03*
X195800000Y-144800000D03*
%TO.N,Net-(U18-DP)*%
X222515800Y-165870400D03*
%TO.N,Net-(U21-1Y)*%
X223400000Y-102400000D03*
X216045000Y-102845000D03*
%TO.N,Net-(U21-4Y)*%
X227400000Y-108621000D03*
X216200000Y-104200000D03*
%TO.N,Net-(U24-1Y)*%
X215856700Y-92236300D03*
X223529400Y-92938900D03*
%TO.N,UUM_VDD*%
X228400000Y-40644900D03*
X217150000Y-39144900D03*
X497411700Y-116302400D03*
X232511500Y-106564800D03*
X231565500Y-98582200D03*
X422790500Y-113082400D03*
X235263600Y-101021400D03*
X414715600Y-113628800D03*
X192511400Y-93591900D03*
%TO.N,/ACM_DBG_RX*%
X369100000Y-166800000D03*
X369250000Y-176550000D03*
%TO.N,/TDM_DBG_RX*%
X543750000Y-42500000D03*
X528400000Y-46400000D03*
%TO.N,/APM_DBG_RX*%
X317650000Y-36250000D03*
X317800000Y-46000000D03*
%TO.N,/DSM_DBG_RX*%
X452500000Y-46000000D03*
X452350000Y-36250000D03*
%TO.N,/UUM_DBG_RX*%
X251000000Y-42250000D03*
X230150000Y-46394900D03*
%TO.N,/ACM_DBG_TX*%
X374627300Y-171483200D03*
X374350000Y-168550000D03*
X372506600Y-57442900D03*
%TO.N,/APM_DBG_TX*%
X312601100Y-41305600D03*
X312550000Y-44250000D03*
%TO.N,/DSM_DBG_TX*%
X447250000Y-44250000D03*
X447449600Y-41305600D03*
%TO.N,/TDM/UUM_VDD*%
X539533600Y-128694400D03*
X544506700Y-126663700D03*
%TO.N,/TDM_DBG_TX*%
X528600000Y-41200000D03*
X528200000Y-45200000D03*
%TO.N,Net-(U9A-PC1{slash}PB9)*%
X496591300Y-61777600D03*
%TD*%
D36*
%TO.N,APM_VDD*%
X492662700Y-124007300D02*
X494250000Y-122420000D01*
X284280000Y-56490000D02*
X284446900Y-56490000D01*
X492662700Y-131172800D02*
X492662700Y-124007300D01*
X312325500Y-170827200D02*
X312325500Y-141963300D01*
X310300000Y-40900000D02*
X300550000Y-40900000D01*
X283010000Y-77326900D02*
X283763100Y-78080000D01*
X292474100Y-50140000D02*
X299050000Y-43564100D01*
X288801800Y-50140000D02*
X292474100Y-50140000D01*
X492662700Y-131172800D02*
X487640600Y-136194900D01*
X300550000Y-40900000D02*
X299050000Y-39400000D01*
X283763100Y-78080000D02*
X284843000Y-78080000D01*
X284280000Y-56490000D02*
X283010000Y-57760000D01*
X299050000Y-43564100D02*
X299050000Y-39400000D01*
X287161100Y-80398100D02*
X287161100Y-141086400D01*
X287741700Y-51200100D02*
X288801800Y-50140000D01*
X287741700Y-53195200D02*
X287741700Y-51200100D01*
X284843000Y-78080000D02*
X287161100Y-80398100D01*
X284446900Y-56490000D02*
X287741700Y-53195200D01*
X283010000Y-57760000D02*
X283010000Y-77326900D01*
X312325500Y-141963300D02*
X313259500Y-141029300D01*
D37*
%TO.N,Net-(U14-VCC)*%
X397774000Y-122333000D02*
X397774000Y-122207100D01*
X397774000Y-122207100D02*
X397774000Y-122333000D01*
X397774000Y-122333000D02*
X397774000Y-115521600D01*
X397774000Y-115521600D02*
X400123200Y-113172400D01*
%TO.N,/ACM/ACM_LED_OK*%
X360033100Y-123920600D02*
X359028600Y-122916100D01*
X359028600Y-122916100D02*
X359028600Y-72281400D01*
X359028600Y-72281400D02*
X360690000Y-70620000D01*
%TO.N,/ACM_CMD_TX*%
X355019900Y-59869900D02*
X360690000Y-65540000D01*
X355019900Y-34515200D02*
X355019900Y-59869900D01*
%TO.N,/ACM/ACM_LED_FAIL*%
X357518000Y-133885700D02*
X357518000Y-71252000D01*
X357518000Y-71252000D02*
X360690000Y-68080000D01*
D36*
%TO.N,5V_TDM*%
X547051800Y-118287500D02*
X547068100Y-118303800D01*
X544600200Y-120771700D02*
X547068100Y-118303800D01*
X544600200Y-124017200D02*
X544600200Y-120771700D01*
X547051800Y-111757700D02*
X547051800Y-118287500D01*
X547068100Y-126485100D02*
X547068100Y-131539400D01*
X544600200Y-124017200D02*
X547068100Y-126485100D01*
D37*
%TO.N,/ACM/ACM_SPI_SCLK*%
X369982800Y-61848300D02*
X369190000Y-61848300D01*
X370897300Y-60933800D02*
X369982800Y-61848300D01*
X370897300Y-54047300D02*
X370897300Y-60933800D01*
X368492800Y-119723800D02*
X372506600Y-123737600D01*
X369190000Y-61848300D02*
X368492800Y-62545500D01*
X368492800Y-62545500D02*
X368492800Y-119723800D01*
X369690000Y-52840000D02*
X370897300Y-54047300D01*
%TO.N,/ACM/ACM_SPI_CS*%
X395044300Y-49148200D02*
X394437200Y-49755300D01*
X394437200Y-78050400D02*
X397172300Y-80785500D01*
X397172300Y-123928600D02*
X397206100Y-123962400D01*
X394437200Y-49755300D02*
X394437200Y-78050400D01*
X397172300Y-80785500D02*
X397172300Y-123928600D01*
%TO.N,/ACM/ACM_LED_WARN*%
X359536500Y-74313500D02*
X359536500Y-106936200D01*
X359536500Y-106936200D02*
X360687800Y-108087500D01*
X360687800Y-127828400D02*
X360016100Y-128500100D01*
X360690000Y-73160000D02*
X359536500Y-74313500D01*
X360687800Y-108087500D02*
X360687800Y-127828400D01*
%TO.N,/FMC_NOE*%
X372237600Y-93472400D02*
X372237600Y-86461500D01*
X369690000Y-96020000D02*
X372237600Y-93472400D01*
%TO.N,/ACM/ACM_SPI_MISO*%
X400748300Y-76675700D02*
X395044300Y-70971700D01*
X405695500Y-120550000D02*
X400748300Y-115602800D01*
X395044300Y-70971700D02*
X395044300Y-56675800D01*
X400748300Y-115602800D02*
X400748300Y-76675700D01*
D36*
%TO.N,3V3_ACM*%
X393000000Y-106180000D02*
X393000000Y-122967500D01*
X393000000Y-122967500D02*
X393075500Y-123043000D01*
D37*
%TO.N,/FMC_NE*%
X478074500Y-93569300D02*
X477255300Y-93569300D01*
X476417000Y-75788300D02*
X476417000Y-75289900D01*
X478531600Y-94026400D02*
X478074500Y-93569300D01*
X476417000Y-75289900D02*
X476317800Y-75190700D01*
X476317800Y-92631800D02*
X476317800Y-75887500D01*
X476317800Y-60222200D02*
X477420000Y-59120000D01*
X476317800Y-75887500D02*
X476417000Y-75788300D01*
X476317800Y-75190700D02*
X476317800Y-60222200D01*
X477255300Y-93569300D02*
X476317800Y-92631800D01*
%TO.N,/ACM_CMD_RX*%
X286884600Y-52918400D02*
X286884600Y-38774600D01*
X286884600Y-38774600D02*
X284280000Y-36170000D01*
%TO.N,/ACM/ACM_SPI_MOSI*%
X369690000Y-50300000D02*
X381000000Y-61610000D01*
X381000000Y-61610000D02*
X381000000Y-128000000D01*
%TO.N,/FMC_NL*%
X374265300Y-61777600D02*
X374265300Y-96524700D01*
X374265300Y-96524700D02*
X369690000Y-101100000D01*
%TO.N,/FMC_D1*%
X402000000Y-50260000D02*
X413693700Y-61953700D01*
X413693700Y-61953700D02*
X413693700Y-92775500D01*
X413693700Y-92775500D02*
X414145400Y-93227200D01*
%TO.N,/FMC_D11*%
X410075000Y-83735000D02*
X410075000Y-98856600D01*
X402000000Y-75660000D02*
X410075000Y-83735000D01*
%TO.N,Net-(J15-Pin_1)*%
X557555000Y-141920000D02*
X557555000Y-140920000D01*
D36*
%TO.N,DSM_VDD*%
X422468600Y-136688800D02*
X417772800Y-141384600D01*
X419970500Y-143582300D02*
X417772800Y-141384600D01*
X419970500Y-170970500D02*
X419970500Y-143582300D01*
X459940100Y-41950400D02*
X461550000Y-40340500D01*
X445000000Y-40900000D02*
X435250000Y-40900000D01*
X433750000Y-50150000D02*
X433750000Y-50450000D01*
X421988800Y-126580600D02*
X422468600Y-127060400D01*
X435250000Y-40900000D02*
X433750000Y-39400000D01*
X422468600Y-127060400D02*
X422468600Y-136688800D01*
X421000000Y-172000000D02*
X419970500Y-170970500D01*
X461550000Y-40340500D02*
X461550000Y-34975000D01*
X422272800Y-55290000D02*
X421988800Y-55574000D01*
X433750000Y-50450000D02*
X431200000Y-53000000D01*
X433750000Y-50150000D02*
X433750000Y-39400000D01*
X421988800Y-55574000D02*
X421988800Y-126580600D01*
D37*
%TO.N,/FMC_D3*%
X416460000Y-104820000D02*
X412783000Y-101143000D01*
X412783000Y-101143000D02*
X412783000Y-66123000D01*
X412783000Y-66123000D02*
X402000000Y-55340000D01*
%TO.N,/FMC_D15*%
X403501700Y-112333100D02*
X403501700Y-87321700D01*
X403501700Y-87321700D02*
X402000000Y-85820000D01*
X407471000Y-116302400D02*
X403501700Y-112333100D01*
%TO.N,/FMC_D0*%
X477652700Y-57850000D02*
X476812000Y-57850000D01*
X472728000Y-53766000D02*
X472097000Y-53766000D01*
X478487400Y-90667400D02*
X478487400Y-58684700D01*
X476812000Y-57850000D02*
X472728000Y-53766000D01*
X478487400Y-58684700D02*
X477652700Y-57850000D01*
X471284300Y-52953300D02*
X471284300Y-52349200D01*
X471284300Y-52349200D02*
X470161100Y-51226000D01*
X472097000Y-53766000D02*
X471284300Y-52953300D01*
X479960000Y-92140000D02*
X478487400Y-90667400D01*
D36*
%TO.N,TDM_VDD*%
X511500000Y-41000000D02*
X510000000Y-39500000D01*
X519202100Y-100544800D02*
X519202100Y-103855900D01*
X320046500Y-124049600D02*
X320046500Y-79126400D01*
X456000000Y-106110000D02*
X454943900Y-107166100D01*
X327169700Y-131172800D02*
X320046500Y-124049600D01*
X519202100Y-103855900D02*
X519202200Y-103855900D01*
X454943900Y-128655000D02*
X449947700Y-133651200D01*
X537443100Y-95782700D02*
X536953900Y-96271900D01*
X512280000Y-134620000D02*
X519202200Y-127697800D01*
X536953900Y-96271900D02*
X536953900Y-107144400D01*
X257560000Y-64858700D02*
X257560000Y-76648000D01*
X517385900Y-98728600D02*
X519202100Y-100544800D01*
X255095900Y-62394600D02*
X257560000Y-64858700D01*
X521250000Y-41000000D02*
X511500000Y-41000000D01*
X519202200Y-127697800D02*
X519202200Y-103855900D01*
X454943900Y-107166100D02*
X454943900Y-128655000D01*
D37*
%TO.N,/FMC_D10*%
X474932000Y-99275400D02*
X474816500Y-99390900D01*
X474932000Y-75539100D02*
X474932000Y-75422700D01*
X474932000Y-75422700D02*
X474932000Y-75539100D01*
X474932000Y-75539100D02*
X474932000Y-99275400D01*
X474816500Y-99970800D02*
X474818100Y-99970800D01*
X474816500Y-99390900D02*
X474816500Y-99970800D01*
%TO.N,/FMC_D6*%
X475060100Y-100625400D02*
X475629900Y-100055600D01*
X474710700Y-64158400D02*
X474216400Y-64652700D01*
X474216400Y-64652700D02*
X474216400Y-100273800D01*
X475629900Y-98113800D02*
X475791800Y-98275700D01*
X474568000Y-100625400D02*
X475060100Y-100625400D01*
X475629900Y-100055600D02*
X475629900Y-98113800D01*
X475791800Y-98275700D02*
X475629900Y-98113800D01*
X474216400Y-100273800D02*
X474568000Y-100625400D01*
%TO.N,Net-(J5-Pin_1)*%
X557555000Y-109725000D02*
X557555000Y-108725000D01*
%TO.N,Net-(J6-Pin_1)*%
X557555000Y-116100000D02*
X557555000Y-115100000D01*
%TO.N,Net-(J7-Pin_1)*%
X557555000Y-121475000D02*
X557555000Y-122475000D01*
%TO.N,Net-(J10-Pin_1)*%
X557555000Y-128850000D02*
X557555000Y-127850000D01*
%TO.N,Net-(J11-Pin_1)*%
X557555000Y-135225000D02*
X557555000Y-134225000D01*
%TO.N,/FMC_D14*%
X406506400Y-112646400D02*
X416460000Y-122600000D01*
X406506400Y-87786400D02*
X406506400Y-112646400D01*
X402000000Y-83280000D02*
X406506400Y-87786400D01*
%TO.N,/FMC_D7*%
X475815300Y-93075300D02*
X477420000Y-94680000D01*
X475815300Y-75539100D02*
X475815300Y-93075300D01*
%TO.N,/FMC_D9*%
X410726100Y-96878500D02*
X410857900Y-97010300D01*
X410726100Y-96878500D02*
X410726100Y-79306100D01*
X410726100Y-79306100D02*
X402000000Y-70580000D01*
X410857900Y-97010300D02*
X410726100Y-96878500D01*
%TO.N,/FMC_D2*%
X400804500Y-53995500D02*
X400804500Y-76093200D01*
X407522300Y-82093000D02*
X407522300Y-98422300D01*
X402241000Y-76811700D02*
X407522300Y-82093000D01*
X400804500Y-76093200D02*
X401523000Y-76811700D01*
X407522300Y-98422300D02*
X416460000Y-107360000D01*
X401523000Y-76811700D02*
X402241000Y-76811700D01*
X402000000Y-52800000D02*
X400804500Y-53995500D01*
%TO.N,/FMC_D4*%
X481479000Y-83542400D02*
X481187300Y-83834100D01*
X481479000Y-61777600D02*
X481479000Y-83542400D01*
X481187300Y-88372700D02*
X479960000Y-89600000D01*
X481187300Y-83834100D02*
X481187300Y-88372700D01*
%TO.N,/FMC_D5*%
X479355400Y-62798700D02*
X480086900Y-62798700D01*
X479106500Y-62549800D02*
X479355400Y-62798700D01*
X481027300Y-63739100D02*
X481027300Y-83355400D01*
X480086900Y-62798700D02*
X481027300Y-63739100D01*
X479960000Y-84422700D02*
X479960000Y-84520000D01*
X481027300Y-83355400D02*
X479960000Y-84422700D01*
%TO.N,/FMC_D13*%
X403249500Y-81989500D02*
X403249500Y-82470400D01*
X402000000Y-80740000D02*
X403249500Y-81989500D01*
%TO.N,/FMC_D8*%
X411478400Y-100892500D02*
X411478400Y-100894100D01*
X411478400Y-100894100D02*
X411478400Y-100892500D01*
X402000000Y-68040000D02*
X411478400Y-77518400D01*
X411478400Y-77518400D02*
X411478400Y-100892500D01*
%TO.N,/FMC_D12*%
X407070600Y-83270600D02*
X407070600Y-100754400D01*
X402000000Y-78200000D02*
X407070600Y-83270600D01*
X407070600Y-100754400D02*
X407748200Y-101432000D01*
%TO.N,/APM/APM_I2C1_SCL*%
X282961400Y-98448600D02*
X282961400Y-93070900D01*
X328900000Y-73056800D02*
X328900000Y-34975000D01*
X281740000Y-99670000D02*
X282961400Y-98448600D01*
X325042700Y-76914100D02*
X328900000Y-73056800D01*
X325042700Y-91518400D02*
X325042700Y-76914100D01*
D36*
%TO.N,ACM_VDD*%
X376600000Y-171900000D02*
X386350000Y-171900000D01*
X386350000Y-171900000D02*
X387850000Y-173400000D01*
X394989500Y-92929500D02*
X394989500Y-111917400D01*
X394989500Y-166260500D02*
X394989500Y-111917400D01*
X393000000Y-90940000D02*
X394989500Y-92929500D01*
X387850000Y-173400000D02*
X394989500Y-166260500D01*
D37*
%TO.N,/APM/APM_I2C1_SDA*%
X327900000Y-34975000D02*
X327900000Y-72263200D01*
X327900000Y-72263200D02*
X322260100Y-77903100D01*
X322260100Y-77903100D02*
X322260100Y-99238000D01*
%TO.N,/DSM/DSM_I2C1_SDA*%
X448515500Y-96760900D02*
X448515500Y-55672200D01*
X462550000Y-41637700D02*
X462550000Y-34975000D01*
X448515500Y-55672200D02*
X462550000Y-41637700D01*
X444951500Y-100324900D02*
X448515500Y-96760900D01*
%TO.N,/DSM/DSM_I2C1_SCL*%
X414974200Y-76454000D02*
X414974200Y-98254200D01*
X414257900Y-75737700D02*
X414974200Y-76454000D01*
X416010400Y-37478100D02*
X414257900Y-39230600D01*
X414257900Y-39230600D02*
X414257900Y-75737700D01*
X414974200Y-98254200D02*
X416460000Y-99740000D01*
%TO.N,/TDM/TDM_I2C1_SCL*%
X384079300Y-126872900D02*
X384079300Y-130180000D01*
X384079300Y-130180000D02*
X383086500Y-131172800D01*
X542626000Y-123137400D02*
X542678900Y-123190300D01*
X542678900Y-127110800D02*
X539533600Y-130256100D01*
X553403900Y-40933900D02*
X553403900Y-42894300D01*
X553403900Y-42894300D02*
X552708900Y-43589300D01*
X542626000Y-110864400D02*
X542626000Y-123137400D01*
X542678900Y-123190300D02*
X542678900Y-127110800D01*
X552708900Y-43589300D02*
X551988100Y-43589300D01*
X543016000Y-106892600D02*
X543016000Y-110474400D01*
X550253400Y-45324000D02*
X550253400Y-99655200D01*
X384079300Y-40707600D02*
X384079300Y-126872900D01*
X543016000Y-110474400D02*
X542626000Y-110864400D01*
X550253400Y-99655200D02*
X543016000Y-106892600D01*
X551988100Y-43589300D02*
X550253400Y-45324000D01*
X552320000Y-39850000D02*
X553403900Y-40933900D01*
X381876100Y-38504400D02*
X384079300Y-40707600D01*
%TO.N,/TDM/TDM_I2C1_SDA*%
X538144800Y-98734400D02*
X538144800Y-61080100D01*
X539516100Y-122926300D02*
X539516100Y-116029700D01*
X546924900Y-52300000D02*
X547537400Y-52300000D01*
X538739500Y-135026200D02*
X538739500Y-129439000D01*
X538739500Y-129439000D02*
X538462800Y-129439000D01*
X548563400Y-46146600D02*
X552320000Y-42390000D01*
X537925600Y-107250500D02*
X537925600Y-98953600D01*
X539516100Y-108893400D02*
X539542300Y-108867200D01*
X538739500Y-129439000D02*
X538739500Y-123702900D01*
X538144800Y-61080100D02*
X546924900Y-52300000D01*
X539524800Y-135811500D02*
X538739500Y-135026200D01*
X539516100Y-116029700D02*
X539516100Y-108893400D01*
X548563400Y-51274000D02*
X548563400Y-46146600D01*
X375004700Y-32105800D02*
X375004700Y-32744400D01*
X537925600Y-98953600D02*
X538144800Y-98734400D01*
X539617700Y-122926300D02*
X539516100Y-122926300D01*
X381757500Y-39497200D02*
X381757500Y-136256700D01*
X547537400Y-52300000D02*
X548563400Y-51274000D01*
X538739500Y-123702900D02*
X539516100Y-122926300D01*
X539542300Y-108867200D02*
X537925600Y-107250500D01*
X375004700Y-32744400D02*
X381757500Y-39497200D01*
X381757500Y-136256700D02*
X382497400Y-136996600D01*
D38*
%TO.N,/DAC_R*%
X417814800Y-75525200D02*
X415259400Y-75525200D01*
X419000000Y-74340000D02*
X417814800Y-75525200D01*
X288200000Y-78190000D02*
X288200000Y-170600000D01*
X284280000Y-74270000D02*
X288200000Y-78190000D01*
X415259400Y-75525200D02*
X414863400Y-75129200D01*
%TO.N,/DAC_L*%
X293200000Y-68005200D02*
X293200000Y-170600000D01*
X304384400Y-56820800D02*
X293200000Y-68005200D01*
D37*
%TO.N,/APM/APM_USB_D+*%
X342942500Y-75560000D02*
X342455500Y-75560000D01*
X343810800Y-52859200D02*
X343810800Y-74691700D01*
X340385900Y-77629600D02*
X340385900Y-165437000D01*
X343810800Y-74691700D02*
X342942500Y-75560000D01*
X342455500Y-75560000D02*
X340385900Y-77629600D01*
X340385900Y-165437000D02*
X325171200Y-180651700D01*
X345240000Y-51430000D02*
X343810800Y-52859200D01*
%TO.N,/APM/APM_USB_D-*%
X335312700Y-67920000D02*
X334830100Y-67920000D01*
X336509300Y-63562700D02*
X336509300Y-66723400D01*
X342996200Y-52700000D02*
X342471000Y-52700000D01*
X338696600Y-56474400D02*
X338696600Y-61375400D01*
X342471000Y-52700000D02*
X338696600Y-56474400D01*
X328197700Y-74552400D02*
X328197700Y-164461000D01*
X334830100Y-67920000D02*
X328197700Y-74552400D01*
X328197700Y-164461000D02*
X316874700Y-175784000D01*
X344129300Y-51566900D02*
X342996200Y-52700000D01*
X344129300Y-50000700D02*
X344129300Y-51566900D01*
X336509300Y-66723400D02*
X335312700Y-67920000D01*
X345240000Y-48890000D02*
X344129300Y-50000700D01*
X338696600Y-61375400D02*
X336509300Y-63562700D01*
%TO.N,/DSM/DSM_USB_D-*%
X477310500Y-100815700D02*
X477857400Y-100815700D01*
X450250000Y-175784000D02*
X476200600Y-149833400D01*
X478690000Y-99983100D02*
X478690000Y-96970400D01*
X476200600Y-149833400D02*
X476200600Y-101925600D01*
X477857400Y-100815700D02*
X478690000Y-99983100D01*
X478690000Y-96970400D02*
X479551200Y-96109200D01*
X479551200Y-96109200D02*
X480093600Y-96109200D01*
X482390700Y-93812100D02*
X482390700Y-51390700D01*
X482390700Y-51390700D02*
X479960000Y-48960000D01*
X480093600Y-96109200D02*
X482390700Y-93812100D01*
X476200600Y-101925600D02*
X477310500Y-100815700D01*
%TO.N,/DSM/DSM_USB_D+*%
X478805200Y-50345200D02*
X475074800Y-50345200D01*
X459074800Y-162334500D02*
X445625300Y-175784000D01*
X473601400Y-48871800D02*
X469380000Y-48871800D01*
X469380000Y-48871800D02*
X459074800Y-59177000D01*
X475074800Y-50345200D02*
X473601400Y-48871800D01*
X479960000Y-51500000D02*
X478805200Y-50345200D01*
X459074800Y-59177000D02*
X459074800Y-162334500D01*
%TO.N,/DSM/DSM_LED_OK*%
X479924900Y-153478400D02*
X483745800Y-149657500D01*
X483745800Y-149657500D02*
X483745800Y-42585800D01*
X483745800Y-42585800D02*
X479960000Y-38800000D01*
%TO.N,/DSM/DSM_LED_WARN*%
X483294100Y-145132700D02*
X483294100Y-44674100D01*
X477426800Y-151000000D02*
X483294100Y-145132700D01*
X483294100Y-44674100D02*
X479960000Y-41340000D01*
%TO.N,/DSM/DSM_LED_FAIL*%
X423024300Y-105257300D02*
X423024300Y-78495500D01*
X422777600Y-145133200D02*
X423492200Y-144418600D01*
X423492200Y-144418600D02*
X423492200Y-105725200D01*
X423024300Y-78495500D02*
X423071300Y-78448500D01*
X423492200Y-105725200D02*
X423024300Y-105257300D01*
%TO.N,/TDM/TDM_LED_OK*%
X490713500Y-95782700D02*
X497193000Y-89303200D01*
X497193000Y-54365400D02*
X497170000Y-54342400D01*
X497193000Y-89303200D02*
X497193000Y-54365400D01*
%TO.N,/TDM/TDM_LED_WARN*%
X489631600Y-99219600D02*
X487419200Y-101432000D01*
X489631600Y-80269400D02*
X489631600Y-99219600D01*
%TO.N,/TDM/TDM_LED_FAIL*%
X553209700Y-105892000D02*
X553590000Y-105511700D01*
X553590000Y-105511700D02*
X553590000Y-43660000D01*
X553590000Y-43660000D02*
X554860000Y-42390000D01*
%TO.N,/APM/APM_LED_OK*%
X345027500Y-151000000D02*
X347254100Y-148773400D01*
X347254100Y-148773400D02*
X347254100Y-40744100D01*
X347254100Y-40744100D02*
X345240000Y-38730000D01*
%TO.N,/APM/APM_LED_WARN*%
X346802400Y-146676400D02*
X346802400Y-42832400D01*
X342504100Y-150974700D02*
X346802400Y-146676400D01*
X346802400Y-42832400D02*
X345240000Y-41270000D01*
%TO.N,/APM/APM_LED_FAIL*%
X343968500Y-78101500D02*
X343968500Y-144998600D01*
X342844900Y-144998600D02*
X343968500Y-144998600D01*
X345240000Y-76830000D02*
X343968500Y-78101500D01*
X343968500Y-144998600D02*
X342844900Y-144998600D01*
%TO.N,UUM_3v3*%
X206491500Y-58672300D02*
X218012500Y-70193300D01*
X201120000Y-54870000D02*
X204922300Y-58672300D01*
X218012500Y-70193300D02*
X218012500Y-95012500D01*
X218200000Y-95200000D02*
X218200000Y-103800000D01*
X218012500Y-95012500D02*
X218200000Y-95200000D01*
X204922300Y-58672300D02*
X206491500Y-58672300D01*
%TO.N,/UUM/UUM_LED_OK*%
X198580000Y-80270000D02*
X193288400Y-85561600D01*
X193288400Y-85561600D02*
X193288400Y-94066900D01*
X192643400Y-94711900D02*
X192643400Y-106030500D01*
X193288400Y-94066900D02*
X192643400Y-94711900D01*
%TO.N,/UUM/UUM_LED_WARN*%
X201120000Y-80270000D02*
X202194700Y-81344700D01*
X192908900Y-106647500D02*
X192371600Y-106647500D01*
X192371600Y-106647500D02*
X190145300Y-104421200D01*
X202194700Y-81344700D02*
X202194700Y-97361700D01*
X190145300Y-104421200D02*
X190145300Y-103910400D01*
X202194700Y-97361700D02*
X192908900Y-106647500D01*
%TO.N,/UUM/UUM_LED_FAIL*%
X201120000Y-90511500D02*
X193513400Y-98118100D01*
X201120000Y-82810000D02*
X201120000Y-90511500D01*
%TO.N,/APM_CAN_RD*%
X345663400Y-37620200D02*
X343809800Y-37620200D01*
X347855900Y-113824000D02*
X347855900Y-39812700D01*
X347855900Y-39812700D02*
X345663400Y-37620200D01*
X343809800Y-37620200D02*
X342700000Y-38730000D01*
%TO.N,/APM_CAN_TD*%
X346193200Y-116593900D02*
X346304400Y-116482700D01*
X346304400Y-48452500D02*
X345306100Y-47454200D01*
X345306100Y-47454200D02*
X344786200Y-47454200D01*
X343899400Y-46567400D02*
X343899400Y-42469400D01*
X344786200Y-47454200D02*
X343899400Y-46567400D01*
X346304400Y-116482700D02*
X346304400Y-48452500D01*
X343899400Y-42469400D02*
X342700000Y-41270000D01*
%TO.N,/IRQ0*%
X284280000Y-112370000D02*
X285539600Y-111110400D01*
X285539600Y-111110400D02*
X285539600Y-99903500D01*
%TO.N,/APM/7SDD_CMD_RX*%
X275080700Y-121569300D02*
X281740000Y-114910000D01*
X274649450Y-151649450D02*
X275080700Y-151218200D01*
X275080700Y-151218200D02*
X275080700Y-121569300D01*
%TO.N,/APM/7SDD_CMD_TX*%
X222761300Y-153278700D02*
X222540000Y-153500000D01*
X222761300Y-118659800D02*
X222761300Y-153278700D01*
X225118700Y-116302400D02*
X222761300Y-118659800D01*
%TO.N,/UUM/UUM_SPI1_SCLK*%
X228200000Y-91565000D02*
X228200000Y-94530000D01*
X240466000Y-51534000D02*
X240466000Y-79299000D01*
X227565000Y-95165000D02*
X227565000Y-105835000D01*
X240466000Y-79299000D02*
X228200000Y-91565000D01*
X228200000Y-94530000D02*
X227565000Y-95165000D01*
X227565000Y-105835000D02*
X227400000Y-106000000D01*
X241500000Y-50500000D02*
X240466000Y-51534000D01*
%TO.N,/UUM/UUM_SPI1_MISO*%
X244868103Y-101400000D02*
X246200000Y-101400000D01*
X248200000Y-99400000D02*
X248200000Y-53799999D01*
X246200000Y-101400000D02*
X248200000Y-99400000D01*
X248200000Y-53799999D02*
X248776991Y-53223008D01*
%TO.N,/UUM/UUM_SPI1_MOSI*%
X227153900Y-79827100D02*
X218614200Y-88366800D01*
X227153900Y-56820800D02*
X227153900Y-79827100D01*
%TO.N,/UUM/UUM_SPI2_CS*%
X230114900Y-64256000D02*
X230114900Y-84685100D01*
X230114900Y-84685100D02*
X226200000Y-88600000D01*
X226200000Y-92200000D02*
X226200000Y-88600000D01*
%TO.N,/UUM_CAN_RD*%
X265088300Y-141086400D02*
X258332100Y-134330200D01*
X258332100Y-134330200D02*
X258332100Y-40837900D01*
X258332100Y-40837900D02*
X259540000Y-39630000D01*
%TO.N,/UUM_CAN_TD*%
X259540000Y-42170000D02*
X260810000Y-43440000D01*
X260810000Y-118629000D02*
X267996600Y-125815600D01*
X260810000Y-43440000D02*
X260810000Y-118629000D01*
%TO.N,/UUM/UUM_SPI1_CS*%
X227200000Y-93400000D02*
X227200000Y-88600000D01*
X225795000Y-104005000D02*
X226000000Y-103800000D01*
X226000000Y-94600000D02*
X227200000Y-93400000D01*
X226000000Y-103800000D02*
X226000000Y-94600000D01*
X232613000Y-66734400D02*
X232613000Y-83187000D01*
X232613000Y-83187000D02*
X227200000Y-88600000D01*
%TO.N,Net-(U36-C)*%
X196120000Y-141526700D02*
X196872700Y-142279400D01*
X196872700Y-142279400D02*
X196872700Y-150659300D01*
X196120000Y-139963000D02*
X196120000Y-141526700D01*
%TO.N,Net-(U36-G)*%
X188500000Y-124723000D02*
X188500000Y-126286700D01*
X189969300Y-141620900D02*
X189969300Y-127756000D01*
X189969300Y-127756000D02*
X188500000Y-126286700D01*
X189990200Y-141641800D02*
X189969300Y-141620900D01*
X207700000Y-145200000D02*
X207100000Y-144600000D01*
X207100000Y-144600000D02*
X207100000Y-142800000D01*
%TO.N,Net-(U36-DP)*%
X214637199Y-142800000D02*
X214637199Y-144962801D01*
%TO.N,Net-(U36-D)*%
X191040000Y-149250700D02*
X191040000Y-139963000D01*
X192108000Y-150318700D02*
X191040000Y-149250700D01*
%TO.N,Net-(U36-A)*%
X205536800Y-123159300D02*
X206130400Y-123752900D01*
X206130400Y-123752900D02*
X206130400Y-135881200D01*
X206130400Y-135881200D02*
X203610800Y-138400800D01*
X203610800Y-152109200D02*
X202220000Y-153500000D01*
X196120000Y-124723000D02*
X196120000Y-123159300D01*
X203610800Y-138400800D02*
X203610800Y-152109200D01*
X196120000Y-123159300D02*
X205536800Y-123159300D01*
%TO.N,Net-(U36-F)*%
X192310000Y-127556700D02*
X191040000Y-126286700D01*
X194246200Y-151000000D02*
X192310000Y-149063800D01*
X191040000Y-126286700D02*
X191040000Y-124723000D01*
X192310000Y-149063800D02*
X192310000Y-127556700D01*
%TO.N,/TDM_CAN_RD*%
X555961800Y-126352400D02*
X549097200Y-133217000D01*
X554860000Y-52550000D02*
X555961800Y-53651800D01*
X555961800Y-53651800D02*
X555961800Y-126352400D01*
%TO.N,/TDM_CAN_TD*%
X514479600Y-54692900D02*
X511079800Y-58092700D01*
X511079800Y-133280200D02*
X509740000Y-134620000D01*
X511079800Y-58092700D02*
X511079800Y-133280200D01*
%TO.N,/DSM_CAN_RD*%
X509740000Y-121745200D02*
X509740000Y-124540000D01*
X500780800Y-112786000D02*
X509740000Y-121745200D01*
X500780800Y-39968500D02*
X500780800Y-112786000D01*
%TO.N,/DSM_CAN_TD*%
X482842400Y-123823400D02*
X482842400Y-47751800D01*
X480237200Y-126428600D02*
X482842400Y-123823400D01*
X479645100Y-45220700D02*
X478772400Y-44348000D01*
X479971600Y-126428600D02*
X480237200Y-126428600D01*
X478772400Y-42692400D02*
X477420000Y-41340000D01*
X482842400Y-47751800D02*
X480311300Y-45220700D01*
X478772400Y-44348000D02*
X478772400Y-42692400D01*
X480311300Y-45220700D02*
X479645100Y-45220700D01*
%TO.N,Net-(U2-B)*%
X212660000Y-126286700D02*
X212660000Y-124723000D01*
X211182300Y-153069000D02*
X211459100Y-152792200D01*
X204760000Y-168740000D02*
X211182300Y-162317700D01*
X211459100Y-127487600D02*
X212660000Y-126286700D01*
X211459100Y-152792200D02*
X211459100Y-127487600D01*
X211182300Y-162317700D02*
X211182300Y-153069000D01*
%TO.N,Net-(U2-D)*%
X199680000Y-168740000D02*
X205968100Y-162451900D01*
X205968100Y-142454800D02*
X205040000Y-141526700D01*
X205968100Y-162451900D02*
X205968100Y-142454800D01*
X205040000Y-141526700D02*
X205040000Y-139963000D01*
%TO.N,Net-(U2-E)*%
X202500000Y-148063700D02*
X202500000Y-139963000D01*
X197140000Y-168740000D02*
X200950000Y-164930000D01*
X200950000Y-149613700D02*
X202500000Y-148063700D01*
X200950000Y-164930000D02*
X200950000Y-149613700D01*
%TO.N,Net-(U2-G)*%
X202500000Y-124723000D02*
X202500000Y-126286700D01*
X197504800Y-131281900D02*
X197504800Y-153135200D01*
X202500000Y-126286700D02*
X197504800Y-131281900D01*
X197504800Y-153135200D02*
X197140000Y-153500000D01*
%TO.N,Net-(U2-C)*%
X208642200Y-162317800D02*
X202220000Y-168740000D01*
X210120000Y-139963000D02*
X210120000Y-148546400D01*
X210120000Y-148546400D02*
X208642200Y-150024200D01*
X208642200Y-150024200D02*
X208642200Y-162317800D01*
%TO.N,Net-(U2-F)*%
X200739300Y-130587400D02*
X205040000Y-126286700D01*
X198410000Y-142369300D02*
X200739300Y-140040000D01*
X200739300Y-140040000D02*
X200739300Y-130587400D01*
X194600000Y-168740000D02*
X198410000Y-164930000D01*
X198410000Y-164930000D02*
X198410000Y-142369300D01*
X205040000Y-126286700D02*
X205040000Y-124723000D01*
%TO.N,Net-(U2-A)*%
X208747000Y-127659700D02*
X208747000Y-149068500D01*
X210120000Y-124723000D02*
X210120000Y-126286700D01*
X210120000Y-126286700D02*
X208747000Y-127659700D01*
%TO.N,Net-(U18-F)*%
X217665000Y-151307000D02*
X216077500Y-152894500D01*
X218960000Y-126286700D02*
X217665000Y-127581700D01*
X216077500Y-152894500D02*
X216077500Y-167582500D01*
X217665000Y-127581700D02*
X217665000Y-151307000D01*
X218960000Y-124723000D02*
X218960000Y-126286700D01*
X216077500Y-167582500D02*
X214920000Y-168740000D01*
%TO.N,Net-(U18-D)*%
X220000000Y-168740000D02*
X218845000Y-167585000D01*
X218845000Y-141641700D02*
X218960000Y-141526700D01*
X218845000Y-167585000D02*
X218845000Y-141641700D01*
X218960000Y-141526700D02*
X218960000Y-139963000D01*
%TO.N,Net-(U18-B)*%
X226580000Y-126286700D02*
X225512600Y-127354100D01*
X225512600Y-127354100D02*
X225512600Y-141699900D01*
X226580000Y-124723000D02*
X226580000Y-126286700D01*
X225512600Y-141699900D02*
X226248600Y-142435900D01*
X226248600Y-142435900D02*
X226248600Y-167571400D01*
X226248600Y-167571400D02*
X225080000Y-168740000D01*
%TO.N,Net-(U18-G)*%
X216420000Y-126286700D02*
X214699300Y-128007400D01*
X216420000Y-124723000D02*
X216420000Y-126286700D01*
X214699300Y-128007400D02*
X214699300Y-140000000D01*
X214699300Y-140000000D02*
X213722200Y-140977100D01*
X213722200Y-167397800D02*
X212380000Y-168740000D01*
X213722200Y-140977100D02*
X213722200Y-167397800D01*
%TO.N,Net-(U18-C)*%
X224040000Y-141526700D02*
X224040000Y-139963000D01*
X223810000Y-141756700D02*
X224040000Y-141526700D01*
X222540000Y-168740000D02*
X223810000Y-167470000D01*
X223810000Y-167470000D02*
X223810000Y-141756700D01*
D36*
%TO.N,5V_7SDD*%
X195047900Y-153052100D02*
X195047900Y-150667800D01*
X188166400Y-159933600D02*
X194600000Y-153500000D01*
X193750000Y-176600000D02*
X192643400Y-175493400D01*
X194850000Y-145750000D02*
X195800000Y-144800000D01*
X194600000Y-153500000D02*
X195047900Y-153052100D01*
X194850000Y-145800000D02*
X194850000Y-145750000D01*
X192643400Y-175493400D02*
X192643400Y-173782800D01*
X188166400Y-169305800D02*
X188166400Y-159933600D01*
X192643400Y-173782800D02*
X188166400Y-169305800D01*
X194850000Y-150469900D02*
X194850000Y-145800000D01*
X195047900Y-150667800D02*
X194850000Y-150469900D01*
D37*
%TO.N,Net-(U18-A)*%
X227620000Y-166695400D02*
X227620000Y-168740000D01*
X224040000Y-124723000D02*
X224040000Y-123159300D01*
X227065500Y-123159300D02*
X228771700Y-124865500D01*
X228771700Y-165543700D02*
X227620000Y-166695400D01*
X228771700Y-124865500D02*
X228771700Y-165543700D01*
X224040000Y-123159300D02*
X227065500Y-123159300D01*
D36*
%TO.N,UUM_VDD*%
X234004700Y-101021400D02*
X235263600Y-101021400D01*
X210506500Y-40582500D02*
X202569000Y-48520000D01*
X200533400Y-48520000D02*
X199846700Y-49206700D01*
X234004700Y-101021400D02*
X232511500Y-102514600D01*
X218650000Y-40644900D02*
X218587600Y-40582500D01*
X192511400Y-84479300D02*
X192511400Y-93591900D01*
X199846700Y-49206700D02*
X199846700Y-56136700D01*
X199846700Y-56136700D02*
X201120000Y-57410000D01*
X218587600Y-40582500D02*
X210506500Y-40582500D01*
X199849900Y-58680100D02*
X199849900Y-78299900D01*
X199849900Y-78299900D02*
X199149800Y-79000000D01*
X232511500Y-102514600D02*
X232511500Y-106564800D01*
X218587600Y-40582500D02*
X217150000Y-39144900D01*
X197990700Y-79000000D02*
X192511400Y-84479300D01*
X201120000Y-57410000D02*
X199849900Y-58680100D01*
X202569000Y-48520000D02*
X200533400Y-48520000D01*
X228400000Y-40644900D02*
X218650000Y-40644900D01*
X199149800Y-79000000D02*
X197990700Y-79000000D01*
X231565500Y-98582200D02*
X234004700Y-101021400D01*
D37*
%TO.N,/ACM_DBG_RX*%
X369100000Y-166800000D02*
X369100000Y-176400000D01*
X369100000Y-176400000D02*
X369250000Y-176550000D01*
X369690000Y-60460000D02*
X368014800Y-62135200D01*
X368014800Y-165714800D02*
X369100000Y-166800000D01*
X368014800Y-62135200D02*
X368014800Y-165714800D01*
%TO.N,/TDM_DBG_RX*%
X529400000Y-40800000D02*
X529400000Y-45400000D01*
X528750000Y-35130100D02*
X528600000Y-34980100D01*
X543750000Y-41000000D02*
X543000000Y-40250000D01*
X529250000Y-40250000D02*
X528750000Y-39750000D01*
X529950000Y-40250000D02*
X529250000Y-40250000D01*
X530000000Y-40250000D02*
X529950000Y-40250000D01*
X543000000Y-40250000D02*
X530000000Y-40250000D01*
X543750000Y-42500000D02*
X543750000Y-41000000D01*
X529400000Y-45400000D02*
X528400000Y-46400000D01*
X529950000Y-40250000D02*
X529400000Y-40800000D01*
X530000000Y-40250000D02*
X529950000Y-40250000D01*
X528750000Y-39750000D02*
X528750000Y-35130100D01*
%TO.N,/APM_DBG_RX*%
X317800000Y-46000000D02*
X317800000Y-36400000D01*
X317800000Y-36400000D02*
X317650000Y-36250000D01*
%TO.N,/DSM_DBG_RX*%
X452500000Y-46000000D02*
X452500000Y-36400000D01*
X452500000Y-36400000D02*
X452350000Y-36250000D01*
%TO.N,/UUM_DBG_RX*%
X236500000Y-39994900D02*
X236328100Y-39823000D01*
X236328100Y-39823000D02*
X235900000Y-39394900D01*
X251000000Y-40750000D02*
X250250000Y-40000000D01*
X251000000Y-42250000D02*
X251000000Y-40750000D01*
X235900000Y-39394900D02*
X235900000Y-34775000D01*
X236500000Y-40000000D02*
X236500000Y-39994900D01*
X236328100Y-39823000D02*
X236328100Y-40216800D01*
X235900000Y-34775000D02*
X235750000Y-34625000D01*
X250250000Y-40000000D02*
X236500000Y-40000000D01*
X236328100Y-40216800D02*
X230150000Y-46394900D01*
%TO.N,/ACM_DBG_TX*%
X374924900Y-167975100D02*
X374350000Y-168550000D01*
X374924900Y-59861200D02*
X374924900Y-167975100D01*
X374627300Y-171483200D02*
X374627300Y-168827300D01*
X374627300Y-168827300D02*
X374350000Y-168550000D01*
X372506600Y-57442900D02*
X374924900Y-59861200D01*
%TO.N,/APM_DBG_TX*%
X312601100Y-41305600D02*
X312601100Y-44198900D01*
X312601100Y-44198900D02*
X312550000Y-44250000D01*
%TO.N,/DSM_DBG_TX*%
X447449600Y-41305600D02*
X447250000Y-41505200D01*
X447250000Y-41505200D02*
X447250000Y-44250000D01*
%TO.N,/TDM_DBG_TX*%
X528200000Y-45200000D02*
X528600000Y-44800000D01*
X528600000Y-44800000D02*
X528600000Y-41200000D01*
%TO.N,Net-(U9A-PC1{slash}PB9)*%
X496591300Y-77798700D02*
X493900000Y-80490000D01*
X496591300Y-61777600D02*
X496591300Y-77798700D01*
%TD*%
M02*
