%TF.GenerationSoftware,KiCad,Pcbnew,9.0.2+dfsg-1*%
%TF.CreationDate,2025-07-09T20:59:58-07:00*%
%TF.ProjectId,signalmesh,7369676e-616c-46d6-9573-682e6b696361,rev?*%
%TF.SameCoordinates,Original*%
%TF.FileFunction,Copper,L3,Inr*%
%TF.FilePolarity,Positive*%
%FSLAX46Y46*%
G04 Gerber Fmt 4.6, Leading zero omitted, Abs format (unit mm)*
G04 Created by KiCad (PCBNEW 9.0.2+dfsg-1) date 2025-07-09 20:59:58*
%MOMM*%
%LPD*%
G01*
G04 APERTURE LIST*
G04 Aperture macros list*
%AMRoundRect*
0 Rectangle with rounded corners*
0 $1 Rounding radius*
0 $2 $3 $4 $5 $6 $7 $8 $9 X,Y pos of 4 corners*
0 Add a 4 corners polygon primitive as box body*
4,1,4,$2,$3,$4,$5,$6,$7,$8,$9,$2,$3,0*
0 Add four circle primitives for the rounded corners*
1,1,$1+$1,$2,$3*
1,1,$1+$1,$4,$5*
1,1,$1+$1,$6,$7*
1,1,$1+$1,$8,$9*
0 Add four rect primitives between the rounded corners*
20,1,$1+$1,$2,$3,$4,$5,0*
20,1,$1+$1,$4,$5,$6,$7,0*
20,1,$1+$1,$6,$7,$8,$9,0*
20,1,$1+$1,$8,$9,$2,$3,0*%
G04 Aperture macros list end*
%TA.AperFunction,ComponentPad*%
%ADD10R,0.850000X0.850000*%
%TD*%
%TA.AperFunction,ComponentPad*%
%ADD11C,0.850000*%
%TD*%
%TA.AperFunction,ComponentPad*%
%ADD12R,1.524000X2.524000*%
%TD*%
%TA.AperFunction,ComponentPad*%
%ADD13O,1.524000X2.524000*%
%TD*%
%TA.AperFunction,ComponentPad*%
%ADD14C,1.500000*%
%TD*%
%TA.AperFunction,HeatsinkPad*%
%ADD15O,1.900000X3.500000*%
%TD*%
%TA.AperFunction,ComponentPad*%
%ADD16RoundRect,0.250000X0.550000X0.550000X-0.550000X0.550000X-0.550000X-0.550000X0.550000X-0.550000X0*%
%TD*%
%TA.AperFunction,ComponentPad*%
%ADD17C,1.600000*%
%TD*%
%TA.AperFunction,ComponentPad*%
%ADD18R,1.508000X1.508000*%
%TD*%
%TA.AperFunction,ComponentPad*%
%ADD19C,1.508000*%
%TD*%
%TA.AperFunction,ComponentPad*%
%ADD20C,2.500000*%
%TD*%
%TA.AperFunction,ComponentPad*%
%ADD21R,1.524000X1.524000*%
%TD*%
%TA.AperFunction,ComponentPad*%
%ADD22C,1.524000*%
%TD*%
%TA.AperFunction,ComponentPad*%
%ADD23R,1.700000X1.700000*%
%TD*%
%TA.AperFunction,ComponentPad*%
%ADD24C,1.700000*%
%TD*%
%TA.AperFunction,ComponentPad*%
%ADD25R,1.050000X1.500000*%
%TD*%
%TA.AperFunction,ComponentPad*%
%ADD26O,1.050000X1.500000*%
%TD*%
%TA.AperFunction,ComponentPad*%
%ADD27RoundRect,0.250000X-0.550000X-0.550000X0.550000X-0.550000X0.550000X0.550000X-0.550000X0.550000X0*%
%TD*%
%TA.AperFunction,ComponentPad*%
%ADD28R,1.605000X1.605000*%
%TD*%
%TA.AperFunction,ComponentPad*%
%ADD29C,1.605000*%
%TD*%
%TA.AperFunction,ComponentPad*%
%ADD30R,1.530000X1.530000*%
%TD*%
%TA.AperFunction,ComponentPad*%
%ADD31C,1.530000*%
%TD*%
%TA.AperFunction,ComponentPad*%
%ADD32RoundRect,0.250000X-0.550000X0.550000X-0.550000X-0.550000X0.550000X-0.550000X0.550000X0.550000X0*%
%TD*%
%TA.AperFunction,ComponentPad*%
%ADD33RoundRect,0.250000X0.550000X-0.550000X0.550000X0.550000X-0.550000X0.550000X-0.550000X-0.550000X0*%
%TD*%
%TA.AperFunction,ViaPad*%
%ADD34C,0.600000*%
%TD*%
%TA.AperFunction,ViaPad*%
%ADD35C,0.500000*%
%TD*%
%TA.AperFunction,Conductor*%
%ADD36C,0.500000*%
%TD*%
%TA.AperFunction,Conductor*%
%ADD37C,0.300000*%
%TD*%
%TA.AperFunction,Conductor*%
%ADD38C,0.400000*%
%TD*%
G04 APERTURE END LIST*
D10*
%TO.N,Net-(J15-Pin_1)*%
%TO.C,J15*%
X557555000Y-140920000D03*
D11*
X557555000Y-141920000D03*
%TD*%
D12*
%TO.N,Net-(U18-E)*%
%TO.C,U18*%
X216420000Y-139963000D03*
D13*
%TO.N,Net-(U18-D)*%
X218960000Y-139963000D03*
%TO.N,GND*%
X221500000Y-139963000D03*
%TO.N,Net-(U18-C)*%
X224040000Y-139963000D03*
%TO.N,Net-(U18-DP)*%
X226580000Y-139963000D03*
%TO.N,Net-(U18-B)*%
X226580000Y-124723000D03*
%TO.N,Net-(U18-A)*%
X224040000Y-124723000D03*
%TO.N,GND*%
X221500000Y-124723000D03*
%TO.N,Net-(U18-F)*%
X218960000Y-124723000D03*
%TO.N,Net-(U18-G)*%
X216420000Y-124723000D03*
%TD*%
D14*
%TO.N,Net-(U40-XI)*%
%TO.C,Y9*%
X223210000Y-54144900D03*
%TO.N,Net-(U40-XO)*%
X228090000Y-54144900D03*
%TD*%
D15*
%TO.N,unconnected-(J25-Shield-Pad5)_1*%
%TO.C,J25*%
X391300000Y-178500000D03*
%TO.N,unconnected-(J25-Shield-Pad5)*%
X379900000Y-178500000D03*
%TD*%
D16*
%TO.N,/UUM_CAN_RD*%
%TO.C,U27*%
X501860000Y-142040000D03*
D17*
%TO.N,GND*%
X501860000Y-139500000D03*
%TO.N,UUM_VDD*%
X501860000Y-136960000D03*
%TO.N,/UUM_CAN_TD*%
X501860000Y-134420000D03*
%TO.N,unconnected-(U27-Vref-Pad5)*%
X494240000Y-134420000D03*
%TO.N,/CAN-*%
X494240000Y-136960000D03*
%TO.N,/CAN+*%
X494240000Y-139500000D03*
%TO.N,Net-(U27-Rs)*%
X494240000Y-142040000D03*
%TD*%
D15*
%TO.N,unconnected-(J33-Shield-Pad5)_1*%
%TO.C,J33*%
X213700000Y-34044900D03*
%TO.N,unconnected-(J33-Shield-Pad5)*%
X225100000Y-34044900D03*
%TD*%
D18*
%TO.N,N/C*%
%TO.C,U1*%
X335080000Y-37186000D03*
D19*
X337620000Y-37186000D03*
X335080000Y-39726000D03*
X337620000Y-39726000D03*
X335080000Y-42266000D03*
X337620000Y-42266000D03*
X335080000Y-44806000D03*
X337620000Y-44806000D03*
X335080000Y-47346000D03*
X337620000Y-47346000D03*
X335080000Y-49886000D03*
X337620000Y-49886000D03*
X335080000Y-52426000D03*
X337620000Y-52426000D03*
X335080000Y-54966000D03*
X337620000Y-54966000D03*
X335080000Y-57506000D03*
X337620000Y-57506000D03*
X335080000Y-60046000D03*
X337620000Y-60046000D03*
D18*
X289360000Y-46330000D03*
D19*
X291900000Y-46330000D03*
X289360000Y-48870000D03*
X291900000Y-48870000D03*
X289360000Y-51410000D03*
X291900000Y-51410000D03*
X289360000Y-53950000D03*
X291900000Y-53950000D03*
X289360000Y-56490000D03*
X291900000Y-56490000D03*
X289360000Y-59030000D03*
X291900000Y-59030000D03*
X289360000Y-61570000D03*
X291900000Y-61570000D03*
X289360000Y-64110000D03*
X291900000Y-64110000D03*
D18*
X289360000Y-69190000D03*
D19*
X291900000Y-69190000D03*
X289360000Y-71730000D03*
X291900000Y-71730000D03*
X289360000Y-74270000D03*
X291900000Y-74270000D03*
X289360000Y-76810000D03*
X291900000Y-76810000D03*
X289360000Y-79350000D03*
X291900000Y-79350000D03*
X289360000Y-81890000D03*
X291900000Y-81890000D03*
X289360000Y-84430000D03*
X291900000Y-84430000D03*
X289360000Y-86970000D03*
X291900000Y-86970000D03*
X289360000Y-89510000D03*
X291900000Y-89510000D03*
X289360000Y-92050000D03*
X291900000Y-92050000D03*
X289360000Y-94590000D03*
X291900000Y-94590000D03*
X289360000Y-97130000D03*
X291900000Y-97130000D03*
X289360000Y-99670000D03*
X291900000Y-99670000D03*
X289360000Y-102210000D03*
X291900000Y-102210000D03*
X289360000Y-104750000D03*
X291900000Y-104750000D03*
D18*
X335080000Y-64110000D03*
D19*
X337620000Y-64110000D03*
X335080000Y-66650000D03*
X337620000Y-66650000D03*
X335080000Y-69190000D03*
X337620000Y-69190000D03*
X335080000Y-71730000D03*
X337620000Y-71730000D03*
X335080000Y-74270000D03*
X337620000Y-74270000D03*
X335080000Y-76810000D03*
X337620000Y-76810000D03*
X335080000Y-79350000D03*
X337620000Y-79350000D03*
X335080000Y-81890000D03*
X337620000Y-81890000D03*
X335080000Y-84430000D03*
X337620000Y-84430000D03*
X335080000Y-86970000D03*
X337620000Y-86970000D03*
X335080000Y-89510000D03*
X337620000Y-89510000D03*
X335080000Y-92050000D03*
X337620000Y-92050000D03*
X335080000Y-94590000D03*
X337620000Y-94590000D03*
X335080000Y-97130000D03*
X337620000Y-97130000D03*
X335080000Y-99670000D03*
X337620000Y-99670000D03*
X335080000Y-102210000D03*
X337620000Y-102210000D03*
X335080000Y-104750000D03*
X337620000Y-104750000D03*
D18*
%TO.N,/ACM_CMD_TX*%
X281740000Y-36170000D03*
D19*
%TO.N,/ACM_CMD_RX*%
X284280000Y-36170000D03*
%TO.N,/APM_DBG_TX*%
X281740000Y-38710000D03*
%TO.N,/APM_DBG_RX*%
X284280000Y-38710000D03*
%TO.N,unconnected-(U1A-3V3_VDD-PadCN11_5)*%
X281740000Y-41250000D03*
%TO.N,unconnected-(U1A-5V_EXT-PadCN11_6)*%
X284280000Y-41250000D03*
%TO.N,unconnected-(U1A-BOOT0-PadCN11_7)*%
X281740000Y-43790000D03*
%TO.N,GND*%
X284280000Y-43790000D03*
%TO.N,unconnected-(U1A-PF6-PadCN11_9)*%
X281740000Y-46330000D03*
%TO.N,unconnected-(U1A-NC-PadCN11_10)*%
X284280000Y-46330000D03*
%TO.N,unconnected-(U1A-PF7-PadCN11_11)*%
X281740000Y-48870000D03*
%TO.N,unconnected-(U1A-IOREF-PadCN11_12)*%
X284280000Y-48870000D03*
%TO.N,unconnected-(U1A-PA13-PadCN11_13)*%
X281740000Y-51410000D03*
%TO.N,unconnected-(U1A-NRST-PadCN11_14)*%
X284280000Y-51410000D03*
%TO.N,unconnected-(U1A-PA14-PadCN11_15)*%
X281740000Y-53950000D03*
%TO.N,unconnected-(U1A-3V3-PadCN11_16)*%
X284280000Y-53950000D03*
%TO.N,unconnected-(U1A-PA15-PadCN11_17)*%
X281740000Y-56490000D03*
%TO.N,APM_VDD*%
X284280000Y-56490000D03*
%TO.N,GND*%
X281740000Y-59030000D03*
X284280000Y-59030000D03*
%TO.N,unconnected-(U1A-PB7-PadCN11_21)*%
X281740000Y-61570000D03*
%TO.N,GND*%
X284280000Y-61570000D03*
%TO.N,unconnected-(U1A-PC13-PadCN11_23)*%
X281740000Y-64110000D03*
%TO.N,unconnected-(U1A-VIN-PadCN11_24)*%
X284280000Y-64110000D03*
%TO.N,unconnected-(U1A-PC14-PadCN11_25)*%
X281740000Y-66650000D03*
%TO.N,unconnected-(U1A-NC-PadCN11_26)*%
X284280000Y-66650000D03*
%TO.N,unconnected-(U1A-PC15-PadCN11_27)*%
X281740000Y-69190000D03*
%TO.N,unconnected-(U1A-PA0-PadCN11_28)*%
X284280000Y-69190000D03*
%TO.N,unconnected-(U1A-PH0-PadCN11_29)*%
X281740000Y-71730000D03*
%TO.N,unconnected-(U1A-PA1-PadCN11_30)*%
X284280000Y-71730000D03*
%TO.N,unconnected-(U1A-PH1-PadCN11_31)*%
X281740000Y-74270000D03*
%TO.N,/DAC_R*%
X284280000Y-74270000D03*
%TO.N,unconnected-(U1A-VBAT-PadCN11_33)*%
X281740000Y-76810000D03*
%TO.N,unconnected-(U1A-PB0-PadCN11_34)*%
X284280000Y-76810000D03*
%TO.N,unconnected-(U1A-PC2-PadCN11_35)*%
X281740000Y-79350000D03*
%TO.N,unconnected-(U1A-PC1-PadCN11_36)*%
X284280000Y-79350000D03*
%TO.N,unconnected-(U1A-PC3-PadCN11_37)*%
X281740000Y-81890000D03*
%TO.N,unconnected-(U1A-PC0-PadCN11_38)*%
X284280000Y-81890000D03*
%TO.N,unconnected-(U1A-PD4-PadCN11_39)*%
X281740000Y-84430000D03*
%TO.N,unconnected-(U1A-PD3-PadCN11_40)*%
X284280000Y-84430000D03*
%TO.N,unconnected-(U1A-PD5-PadCN11_41)*%
X281740000Y-86970000D03*
%TO.N,unconnected-(U1A-PG2-PadCN11_42)*%
X284280000Y-86970000D03*
%TO.N,unconnected-(U1A-PD6-PadCN11_43)*%
X281740000Y-89510000D03*
%TO.N,unconnected-(U1A-PG3-PadCN11_44)*%
X284280000Y-89510000D03*
%TO.N,unconnected-(U1A-PD7-PadCN11_45)*%
X281740000Y-92050000D03*
%TO.N,unconnected-(U1A-PE2-PadCN11_46)*%
X284280000Y-92050000D03*
%TO.N,/ISR0*%
X281740000Y-94590000D03*
%TO.N,unconnected-(U1A-PE4-PadCN11_48)*%
X284280000Y-94590000D03*
%TO.N,GND*%
X281740000Y-97130000D03*
%TO.N,unconnected-(U1A-PE5-PadCN11_50)*%
X284280000Y-97130000D03*
%TO.N,/APM/APM_I2C1_SCL*%
X281740000Y-99670000D03*
%TO.N,unconnected-(U1A-PF2-PadCN11_52)*%
X284280000Y-99670000D03*
%TO.N,/APM/APM_I2C1_SDA*%
X281740000Y-102210000D03*
%TO.N,unconnected-(U1A-PF8-PadCN11_54)*%
X284280000Y-102210000D03*
%TO.N,unconnected-(U1A-PD1-PadCN11_55)*%
X281740000Y-104750000D03*
%TO.N,unconnected-(U1A-PF9-PadCN11_56)*%
X284280000Y-104750000D03*
%TO.N,unconnected-(U1A-PD0-PadCN11_57)*%
X281740000Y-107290000D03*
%TO.N,unconnected-(U1A-PG1-PadCN11_58)*%
X284280000Y-107290000D03*
%TO.N,unconnected-(U1A-PG0-PadCN11_59)*%
X281740000Y-109830000D03*
%TO.N,GND*%
X284280000Y-109830000D03*
%TO.N,unconnected-(U1A-PE1-PadCN11_61)*%
X281740000Y-112370000D03*
%TO.N,/IRQ0*%
X284280000Y-112370000D03*
%TO.N,/APM/7SDD_CMD_RX*%
X281740000Y-114910000D03*
%TO.N,unconnected-(U1A-PG15-PadCN11_64)*%
X284280000Y-114910000D03*
%TO.N,unconnected-(U1A-PG12-PadCN11_65)*%
X281740000Y-117450000D03*
%TO.N,unconnected-(U1A-PG10-PadCN11_66)*%
X284280000Y-117450000D03*
%TO.N,unconnected-(U1A-NC-PadCN11_67)*%
X281740000Y-119990000D03*
%TO.N,unconnected-(U1A-PG13-PadCN11_68)*%
X284280000Y-119990000D03*
%TO.N,unconnected-(U1A-PD9-PadCN11_69)*%
X281740000Y-122530000D03*
%TO.N,unconnected-(U1A-PG11-PadCN11_70)*%
X284280000Y-122530000D03*
%TO.N,GND*%
X281740000Y-125070000D03*
X284280000Y-125070000D03*
D18*
%TO.N,unconnected-(U1B-PC9-PadCN12_1)*%
X342700000Y-36190000D03*
D19*
%TO.N,unconnected-(U1B-PC8-PadCN12_2)*%
X345240000Y-36190000D03*
%TO.N,/APM_CAN_RD*%
X342700000Y-38730000D03*
%TO.N,/APM/APM_LED_OK*%
X345240000Y-38730000D03*
%TO.N,/APM_CAN_TD*%
X342700000Y-41270000D03*
%TO.N,/APM/APM_LED_WARN*%
X345240000Y-41270000D03*
%TO.N,unconnected-(U1B-VREFP-PadCN12_7)*%
X342700000Y-43810000D03*
%TO.N,unconnected-(U1B-5V_USB_STLK-PadCN12_8)*%
X345240000Y-43810000D03*
%TO.N,unconnected-(U1B-GND_CN12-PadCN12_20)_2*%
X342700000Y-46350000D03*
%TO.N,unconnected-(U1B-PD8-PadCN12_10)*%
X345240000Y-46350000D03*
%TO.N,/DAC_L*%
X342700000Y-48890000D03*
%TO.N,/APM/APM_USB_D-*%
X345240000Y-48890000D03*
%TO.N,unconnected-(U1B-PA6-PadCN12_13)*%
X342700000Y-51430000D03*
%TO.N,/APM/APM_USB_D+*%
X345240000Y-51430000D03*
%TO.N,unconnected-(U1B-PA7-PadCN12_15)*%
X342700000Y-53970000D03*
%TO.N,unconnected-(U1B-PB12-PadCN12_16)*%
X345240000Y-53970000D03*
%TO.N,unconnected-(U1B-PB6-PadCN12_17)*%
X342700000Y-56510000D03*
%TO.N,unconnected-(U1B-PB11-PadCN12_18)*%
X345240000Y-56510000D03*
%TO.N,unconnected-(U1B-PC7-PadCN12_19)*%
X342700000Y-59050000D03*
%TO.N,unconnected-(U1B-GND_CN12-PadCN12_20)_4*%
X345240000Y-59050000D03*
%TO.N,unconnected-(U1B-PA9-PadCN12_21)*%
X342700000Y-61590000D03*
%TO.N,unconnected-(U1B-PB2-PadCN12_22)*%
X345240000Y-61590000D03*
%TO.N,unconnected-(U1B-PA8-PadCN12_23)*%
X342700000Y-64130000D03*
%TO.N,unconnected-(U1B-PB1-PadCN12_24)*%
X345240000Y-64130000D03*
%TO.N,unconnected-(U1B-PB10-PadCN12_25)*%
X342700000Y-66670000D03*
%TO.N,unconnected-(U1B-PB15-PadCN12_26)*%
X345240000Y-66670000D03*
%TO.N,unconnected-(U1B-PB4-PadCN12_27)*%
X342700000Y-69210000D03*
%TO.N,unconnected-(U1B-PB14-PadCN12_28)*%
X345240000Y-69210000D03*
%TO.N,unconnected-(U1B-PB5-PadCN12_29)*%
X342700000Y-71750000D03*
%TO.N,unconnected-(U1B-PB13-PadCN12_30)*%
X345240000Y-71750000D03*
%TO.N,unconnected-(U1B-PB3-PadCN12_31)*%
X342700000Y-74290000D03*
%TO.N,unconnected-(U1B-AGND_CN12-PadCN12_32)*%
X345240000Y-74290000D03*
%TO.N,unconnected-(U1B-PA10-PadCN12_33)*%
X342700000Y-76830000D03*
%TO.N,/APM/APM_LED_FAIL*%
X345240000Y-76830000D03*
%TO.N,unconnected-(U1B-PA2-PadCN12_35)*%
X342700000Y-79370000D03*
%TO.N,unconnected-(U1B-PF5-PadCN12_36)*%
X345240000Y-79370000D03*
%TO.N,unconnected-(U1B-PA3-PadCN12_37)*%
X342700000Y-81910000D03*
%TO.N,unconnected-(U1B-PF4-PadCN12_38)*%
X345240000Y-81910000D03*
%TO.N,unconnected-(U1B-GND_CN12-PadCN12_20)_1*%
X342700000Y-84450000D03*
%TO.N,unconnected-(U1B-PE8-PadCN12_40)*%
X345240000Y-84450000D03*
%TO.N,unconnected-(U1B-PD13-PadCN12_41)*%
X342700000Y-86990000D03*
%TO.N,unconnected-(U1B-PF10-PadCN12_42)*%
X345240000Y-86990000D03*
%TO.N,unconnected-(U1B-PD12-PadCN12_43)*%
X342700000Y-89530000D03*
%TO.N,unconnected-(U1B-PE7-PadCN12_44)*%
X345240000Y-89530000D03*
%TO.N,unconnected-(U1B-PD11-PadCN12_45)*%
X342700000Y-92070000D03*
%TO.N,unconnected-(U1B-PD14-PadCN12_46)*%
X345240000Y-92070000D03*
%TO.N,unconnected-(U1B-PE10-PadCN12_47)*%
X342700000Y-94610000D03*
%TO.N,unconnected-(U1B-PD15-PadCN12_48)*%
X345240000Y-94610000D03*
%TO.N,unconnected-(U1B-PE12-PadCN12_49)*%
X342700000Y-97150000D03*
%TO.N,unconnected-(U1B-PF14-PadCN12_50)*%
X345240000Y-97150000D03*
%TO.N,unconnected-(U1B-PE14-PadCN12_51)*%
X342700000Y-99690000D03*
%TO.N,unconnected-(U1B-PE9-PadCN12_52)*%
X345240000Y-99690000D03*
%TO.N,unconnected-(U1B-PE15-PadCN12_53)*%
X342700000Y-102230000D03*
%TO.N,unconnected-(U1B-GND_CN12-PadCN12_20)*%
X345240000Y-102230000D03*
%TO.N,unconnected-(U1B-PE13-PadCN12_55)*%
X342700000Y-104770000D03*
%TO.N,unconnected-(U1B-PE11-PadCN12_56)*%
X345240000Y-104770000D03*
%TO.N,unconnected-(U1B-PF13-PadCN12_57)*%
X342700000Y-107310000D03*
%TO.N,unconnected-(U1B-PF3-PadCN12_58)*%
X345240000Y-107310000D03*
%TO.N,unconnected-(U1B-PF12-PadCN12_59)*%
X342700000Y-109850000D03*
%TO.N,unconnected-(U1B-PF15-PadCN12_60)*%
X345240000Y-109850000D03*
%TO.N,/APM/7SDD_CMD_TX*%
X342700000Y-112390000D03*
%TO.N,unconnected-(U1B-PF11-PadCN12_62)*%
X345240000Y-112390000D03*
%TO.N,unconnected-(U1B-GND_CN12-PadCN12_20)_3*%
X342700000Y-114930000D03*
%TO.N,unconnected-(U1B-PE0-PadCN12_64)*%
X345240000Y-114930000D03*
%TO.N,unconnected-(U1B-PD10-PadCN12_65)*%
X342700000Y-117470000D03*
%TO.N,unconnected-(U1B-PG8-PadCN12_66)*%
X345240000Y-117470000D03*
%TO.N,unconnected-(U1B-PG7-PadCN12_67)*%
X342700000Y-120010000D03*
%TO.N,unconnected-(U1B-PG5-PadCN12_68)*%
X345240000Y-120010000D03*
%TO.N,unconnected-(U1B-PG4-PadCN12_69)*%
X342700000Y-122550000D03*
%TO.N,unconnected-(U1B-PG6-PadCN12_70)*%
X345240000Y-122550000D03*
%TO.N,unconnected-(U1B-GND_CN12-PadCN12_20)_6*%
X342700000Y-125090000D03*
%TO.N,unconnected-(U1B-GND_CN12-PadCN12_20)_5*%
X345240000Y-125090000D03*
%TD*%
D20*
%TO.N,/DAC_L*%
%TO.C,TP1*%
X293200000Y-170600000D03*
%TD*%
D21*
%TO.N,unconnected-(J12-Pin_1-Pad1)*%
%TO.C,J12*%
X293750000Y-178700000D03*
D22*
%TO.N,/DAC_L*%
X291750000Y-178700000D03*
%TO.N,/DAC_R*%
X289750000Y-178700000D03*
%TO.N,GND*%
X287750000Y-178700000D03*
%TD*%
D23*
%TO.N,/FMC_D0*%
%TO.C,J9*%
X402000000Y-47720000D03*
D24*
%TO.N,/FMC_D1*%
X402000000Y-50260000D03*
%TO.N,/FMC_D2*%
X402000000Y-52800000D03*
%TO.N,/FMC_D3*%
X402000000Y-55340000D03*
%TO.N,/FMC_D4*%
X402000000Y-57880000D03*
%TO.N,/FMC_D5*%
X402000000Y-60420000D03*
%TO.N,/FMC_D6*%
X402000000Y-62960000D03*
%TO.N,/FMC_D7*%
X402000000Y-65500000D03*
%TO.N,/FMC_D8*%
X402000000Y-68040000D03*
%TO.N,/FMC_D9*%
X402000000Y-70580000D03*
%TO.N,/FMC_D10*%
X402000000Y-73120000D03*
%TO.N,/FMC_D11*%
X402000000Y-75660000D03*
%TO.N,/FMC_D12*%
X402000000Y-78200000D03*
%TO.N,/FMC_D13*%
X402000000Y-80740000D03*
%TO.N,/FMC_D14*%
X402000000Y-83280000D03*
%TO.N,/FMC_D15*%
X402000000Y-85820000D03*
%TO.N,unconnected-(J2-Pin_17-Pad17)*%
X402000000Y-88360000D03*
%TO.N,ACM_VDD*%
X402000000Y-90900000D03*
%TO.N,unconnected-(J2-Pin_19-Pad19)*%
X402000000Y-93440000D03*
%TO.N,unconnected-(J2-Pin_20-Pad20)*%
X402000000Y-95980000D03*
%TO.N,unconnected-(J2-Pin_21-Pad21)*%
X402000000Y-98520000D03*
%TO.N,unconnected-(J2-Pin_22-Pad22)*%
X402000000Y-101060000D03*
%TO.N,GND*%
X402000000Y-103600000D03*
%TO.N,3V3_ACM*%
X402000000Y-106140000D03*
%TD*%
D20*
%TO.N,/DAC_R*%
%TO.C,TP2*%
X288200000Y-170600000D03*
%TD*%
D15*
%TO.N,unconnected-(J31-Shield-Pad5)_1*%
%TO.C,J31*%
X430300000Y-34300000D03*
%TO.N,unconnected-(J31-Shield-Pad5)*%
X441700000Y-34300000D03*
%TD*%
D12*
%TO.N,Net-(U2-E)*%
%TO.C,U2*%
X202500000Y-139963000D03*
D13*
%TO.N,Net-(U2-D)*%
X205040000Y-139963000D03*
%TO.N,GND*%
X207580000Y-139963000D03*
%TO.N,Net-(U2-C)*%
X210120000Y-139963000D03*
%TO.N,Net-(U2-DP)*%
X212660000Y-139963000D03*
%TO.N,Net-(U2-B)*%
X212660000Y-124723000D03*
%TO.N,Net-(U2-A)*%
X210120000Y-124723000D03*
%TO.N,GND*%
X207580000Y-124723000D03*
%TO.N,Net-(U2-F)*%
X205040000Y-124723000D03*
%TO.N,Net-(U2-G)*%
X202500000Y-124723000D03*
%TD*%
D10*
%TO.N,/USB_debug_APM/DBG_TX*%
%TO.C,J30*%
X316650000Y-34880100D03*
D11*
%TO.N,/APM_DBG_RX*%
X317650000Y-34880100D03*
%TO.N,GND*%
X318650000Y-34880100D03*
%TD*%
D23*
%TO.N,/ACM/ACM_SPI_CS*%
%TO.C,J1*%
X369690000Y-47760000D03*
D24*
%TO.N,/ACM/ACM_SPI_MOSI*%
X369690000Y-50300000D03*
%TO.N,/ACM/ACM_SPI_SCLK*%
X369690000Y-52840000D03*
%TO.N,/ACM/ACM_SPI_MISO*%
X369690000Y-55380000D03*
%TO.N,/ACM_DBG_TX*%
X369690000Y-57920000D03*
%TO.N,/ACM_DBG_RX*%
X369690000Y-60460000D03*
%TO.N,/ACM_CMD_RX*%
X369690000Y-63000000D03*
%TO.N,/ACM_CMD_TX*%
X369690000Y-65540000D03*
%TO.N,/ACM/ACM_LED_FAIL*%
X369690000Y-68080000D03*
%TO.N,/ACM/ACM_LED_OK*%
X369690000Y-70620000D03*
%TO.N,/ACM/ACM_LED_WARN*%
X369690000Y-73160000D03*
%TO.N,unconnected-(J1-Pin_12-Pad12)*%
X369690000Y-75700000D03*
%TO.N,unconnected-(J1-Pin_13-Pad13)*%
X369690000Y-78240000D03*
%TO.N,unconnected-(J1-Pin_14-Pad14)*%
X369690000Y-80780000D03*
%TO.N,unconnected-(J1-Pin_15-Pad15)*%
X369690000Y-83320000D03*
%TO.N,unconnected-(J1-Pin_16-Pad16)*%
X369690000Y-85860000D03*
%TO.N,unconnected-(J1-Pin_17-Pad17)*%
X369690000Y-88400000D03*
%TO.N,/FMC_CLK*%
X369690000Y-90940000D03*
%TO.N,/FMC_NWE*%
X369690000Y-93480000D03*
%TO.N,/FMC_NOE*%
X369690000Y-96020000D03*
%TO.N,/FMC_NE*%
X369690000Y-98560000D03*
%TO.N,/FMC_NL*%
X369690000Y-101100000D03*
%TO.N,/FMC_NBL0*%
X369690000Y-103640000D03*
%TO.N,/FMC_NBL1*%
X369690000Y-106180000D03*
%TD*%
D14*
%TO.N,Net-(U19-XI)*%
%TO.C,Y2*%
X381790000Y-158400000D03*
%TO.N,Net-(U19-XO)*%
X376910000Y-158400000D03*
%TD*%
D15*
%TO.N,unconnected-(J21-Shield-Pad5)*%
%TO.C,J21*%
X320200000Y-178600000D03*
%TO.N,unconnected-(J21-Shield-Pad5)_1*%
X308800000Y-178600000D03*
%TD*%
D25*
%TO.N,GND*%
%TO.C,TH1*%
X445142000Y-80782000D03*
D26*
%TO.N,Net-(U9A-PC0{slash}PB8)*%
X447682000Y-80782000D03*
%TD*%
D23*
%TO.N,/ACM/ACM_SPI_CS*%
%TO.C,J8*%
X360690000Y-47760000D03*
D24*
%TO.N,/ACM/ACM_SPI_MOSI*%
X360690000Y-50300000D03*
%TO.N,/ACM/ACM_SPI_SCLK*%
X360690000Y-52840000D03*
%TO.N,/ACM/ACM_SPI_MISO*%
X360690000Y-55380000D03*
%TO.N,/ACM_DBG_TX*%
X360690000Y-57920000D03*
%TO.N,/ACM_DBG_RX*%
X360690000Y-60460000D03*
%TO.N,/ACM_CMD_RX*%
X360690000Y-63000000D03*
%TO.N,/ACM_CMD_TX*%
X360690000Y-65540000D03*
%TO.N,/ACM/ACM_LED_FAIL*%
X360690000Y-68080000D03*
%TO.N,/ACM/ACM_LED_OK*%
X360690000Y-70620000D03*
%TO.N,/ACM/ACM_LED_WARN*%
X360690000Y-73160000D03*
%TO.N,unconnected-(J1-Pin_12-Pad12)*%
X360690000Y-75700000D03*
%TO.N,unconnected-(J1-Pin_13-Pad13)*%
X360690000Y-78240000D03*
%TO.N,unconnected-(J1-Pin_14-Pad14)*%
X360690000Y-80780000D03*
%TO.N,unconnected-(J1-Pin_15-Pad15)*%
X360690000Y-83320000D03*
%TO.N,unconnected-(J1-Pin_16-Pad16)*%
X360690000Y-85860000D03*
%TO.N,unconnected-(J1-Pin_17-Pad17)*%
X360690000Y-88400000D03*
%TO.N,/FMC_CLK*%
X360690000Y-90940000D03*
%TO.N,/FMC_NWE*%
X360690000Y-93480000D03*
%TO.N,/FMC_NOE*%
X360690000Y-96020000D03*
%TO.N,/FMC_NE*%
X360690000Y-98560000D03*
%TO.N,/FMC_NL*%
X360690000Y-101100000D03*
%TO.N,/FMC_NBL0*%
X360690000Y-103640000D03*
%TO.N,/FMC_NBL1*%
X360690000Y-106180000D03*
%TD*%
D10*
%TO.N,TDM_VDD*%
%TO.C,J18*%
X245050000Y-34759900D03*
D11*
%TO.N,/TDM/TDM_I2C1_SDA*%
X246050000Y-34759900D03*
%TO.N,/TDM/TDM_I2C1_SCL*%
X247050000Y-34759900D03*
%TO.N,GND*%
X248050000Y-34759900D03*
%TD*%
D25*
%TO.N,GND*%
%TO.C,TH2*%
X312290000Y-80712000D03*
D26*
%TO.N,Net-(U9A-PB0)*%
X314830000Y-80712000D03*
%TD*%
D10*
%TO.N,/USB_debug_TDM/DBG_TX*%
%TO.C,J28*%
X527600000Y-34980100D03*
D11*
%TO.N,/TDM_DBG_RX*%
X528600000Y-34980100D03*
%TO.N,GND*%
X529600000Y-34980100D03*
%TD*%
D27*
%TO.N,/APM_CAN_RD*%
%TO.C,U29*%
X494250000Y-117340000D03*
D17*
%TO.N,GND*%
X494250000Y-119880000D03*
%TO.N,APM_VDD*%
X494250000Y-122420000D03*
%TO.N,/APM_CAN_TD*%
X494250000Y-124960000D03*
%TO.N,unconnected-(U29-Vref-Pad5)*%
X501870000Y-124960000D03*
%TO.N,/CAN-*%
X501870000Y-122420000D03*
%TO.N,/CAN+*%
X501870000Y-119880000D03*
%TO.N,Net-(U29-Rs)*%
X501870000Y-117340000D03*
%TD*%
D10*
%TO.N,APM_VDD*%
%TO.C,J4*%
X326900000Y-34975000D03*
D11*
%TO.N,/APM/APM_I2C1_SDA*%
X327900000Y-34975000D03*
%TO.N,/APM/APM_I2C1_SCL*%
X328900000Y-34975000D03*
%TO.N,GND*%
X329900000Y-34975000D03*
%TD*%
D23*
%TO.N,/FMC_D0*%
%TO.C,J2*%
X393000000Y-47760000D03*
D24*
%TO.N,/FMC_D1*%
X393000000Y-50300000D03*
%TO.N,/FMC_D2*%
X393000000Y-52840000D03*
%TO.N,/FMC_D3*%
X393000000Y-55380000D03*
%TO.N,/FMC_D4*%
X393000000Y-57920000D03*
%TO.N,/FMC_D5*%
X393000000Y-60460000D03*
%TO.N,/FMC_D6*%
X393000000Y-63000000D03*
%TO.N,/FMC_D7*%
X393000000Y-65540000D03*
%TO.N,/FMC_D8*%
X393000000Y-68080000D03*
%TO.N,/FMC_D9*%
X393000000Y-70620000D03*
%TO.N,/FMC_D10*%
X393000000Y-73160000D03*
%TO.N,/FMC_D11*%
X393000000Y-75700000D03*
%TO.N,/FMC_D12*%
X393000000Y-78240000D03*
%TO.N,/FMC_D13*%
X393000000Y-80780000D03*
%TO.N,/FMC_D14*%
X393000000Y-83320000D03*
%TO.N,/FMC_D15*%
X393000000Y-85860000D03*
%TO.N,unconnected-(J2-Pin_17-Pad17)*%
X393000000Y-88400000D03*
%TO.N,ACM_VDD*%
X393000000Y-90940000D03*
%TO.N,unconnected-(J2-Pin_19-Pad19)*%
X393000000Y-93480000D03*
%TO.N,unconnected-(J2-Pin_20-Pad20)*%
X393000000Y-96020000D03*
%TO.N,unconnected-(J2-Pin_21-Pad21)*%
X393000000Y-98560000D03*
%TO.N,unconnected-(J2-Pin_22-Pad22)*%
X393000000Y-101100000D03*
%TO.N,GND*%
X393000000Y-103640000D03*
%TO.N,3V3_ACM*%
X393000000Y-106180000D03*
%TD*%
D10*
%TO.N,/USB_debug_DSM/DBG_TX*%
%TO.C,J32*%
X451350000Y-34880100D03*
D11*
%TO.N,/DSM_DBG_RX*%
X452350000Y-34880100D03*
%TO.N,GND*%
X453350000Y-34880100D03*
%TD*%
D10*
%TO.N,DSM_VDD*%
%TO.C,J3*%
X461550000Y-34975000D03*
D11*
%TO.N,/DSM/DSM_I2C1_SDA*%
X462550000Y-34975000D03*
%TO.N,/DSM/DSM_I2C1_SCL*%
X463550000Y-34975000D03*
%TO.N,GND*%
X464550000Y-34975000D03*
%TD*%
D28*
%TO.N,N/C*%
%TO.C,U9*%
X547240000Y-61190000D03*
D29*
X547240000Y-58650000D03*
X547240000Y-56110000D03*
X547240000Y-53570000D03*
X547240000Y-51030000D03*
X547240000Y-48490000D03*
X547240000Y-45950000D03*
X547240000Y-43410000D03*
X547240000Y-40870000D03*
X547240000Y-38330000D03*
D28*
X498980000Y-47470000D03*
D29*
X498980000Y-50010000D03*
X498980000Y-52550000D03*
X498980000Y-55090000D03*
X498980000Y-57630000D03*
X498980000Y-60170000D03*
X498980000Y-62710000D03*
X498980000Y-65250000D03*
D30*
%TO.N,unconnected-(U9A-PC10-PadCN7_1)*%
X491360000Y-37310000D03*
D31*
%TO.N,unconnected-(U9A-PC11-PadCN7_2)*%
X493900000Y-37310000D03*
%TO.N,unconnected-(U9A-PC12-PadCN7_3)*%
X491360000Y-39850000D03*
%TO.N,unconnected-(U9A-PD2-PadCN7_4)*%
X493900000Y-39850000D03*
%TO.N,unconnected-(U9A-VDD-PadCN7_5)*%
X491360000Y-42390000D03*
%TO.N,unconnected-(U9A-E5V-PadCN7_6)*%
X493900000Y-42390000D03*
%TO.N,unconnected-(U9A-BOOT0-PadCN7_7)*%
X491360000Y-44930000D03*
%TO.N,unconnected-(U9A-CN7_GND-PadCN7_19)_2*%
X493900000Y-44930000D03*
%TO.N,N/C*%
X491360000Y-47470000D03*
X493900000Y-47470000D03*
X491360000Y-50010000D03*
%TO.N,unconnected-(U9A-CN7_IOREF-PadCN7_12)*%
X493900000Y-50010000D03*
%TO.N,unconnected-(U9A-PA13-PadCN7_13)*%
X491360000Y-52550000D03*
%TO.N,unconnected-(U9A-CN7_RESET-PadCN7_14)*%
X493900000Y-52550000D03*
%TO.N,unconnected-(U9A-PA14-PadCN7_15)*%
X491360000Y-55090000D03*
%TO.N,unconnected-(U9A-CN7_+3V3-PadCN7_16)*%
X493900000Y-55090000D03*
%TO.N,unconnected-(U9A-PA15-PadCN7_17)*%
X491360000Y-57630000D03*
%TO.N,unconnected-(U9A-CN7_+5V-PadCN7_18)*%
X493900000Y-57630000D03*
%TO.N,unconnected-(U9A-CN7_GND-PadCN7_19)_1*%
X491360000Y-60170000D03*
%TO.N,unconnected-(U9A-CN7_GND-PadCN7_19)*%
X493900000Y-60170000D03*
%TO.N,unconnected-(U9A-PB7-PadCN7_21)*%
X491360000Y-62710000D03*
%TO.N,unconnected-(U9A-CN7_GND-PadCN7_19)_3*%
X493900000Y-62710000D03*
%TO.N,unconnected-(U9A-PC13-PadCN7_23)*%
X491360000Y-65250000D03*
%TO.N,unconnected-(U9A-CN7_VIN-PadCN7_24)*%
X493900000Y-65250000D03*
%TO.N,unconnected-(U9A-PC14-PadCN7_25)*%
X491360000Y-67790000D03*
%TO.N,N/C*%
X493900000Y-67790000D03*
%TO.N,unconnected-(U9A-PC15-PadCN7_27)*%
X491360000Y-70330000D03*
%TO.N,unconnected-(U9A-PA0-PadCN7_28)*%
X493900000Y-70330000D03*
%TO.N,unconnected-(U9A-PH0-PadCN7_29)*%
X491360000Y-72870000D03*
%TO.N,unconnected-(U9A-PA1-PadCN7_30)*%
X493900000Y-72870000D03*
%TO.N,unconnected-(U9A-PH1-PadCN7_31)*%
X491360000Y-75410000D03*
%TO.N,Net-(U9A-PA4)*%
X493900000Y-75410000D03*
%TO.N,unconnected-(U9A-VBAT-PadCN7_33)*%
X491360000Y-77950000D03*
%TO.N,Net-(U9A-PB0)*%
X493900000Y-77950000D03*
%TO.N,unconnected-(U9A-PC2-PadCN7_35)*%
X491360000Y-80490000D03*
%TO.N,Net-(U9A-PC1{slash}PB9)*%
X493900000Y-80490000D03*
%TO.N,unconnected-(U9A-PC3-PadCN7_37)*%
X491360000Y-83030000D03*
%TO.N,Net-(U9A-PC0{slash}PB8)*%
X493900000Y-83030000D03*
D28*
%TO.N,N/C*%
X498980000Y-70330000D03*
D29*
X498980000Y-72870000D03*
X498980000Y-75410000D03*
X498980000Y-77950000D03*
X498980000Y-80490000D03*
X498980000Y-83030000D03*
D28*
X547240000Y-83030000D03*
D29*
X547240000Y-80490000D03*
X547240000Y-77950000D03*
X547240000Y-75410000D03*
X547240000Y-72870000D03*
X547240000Y-70330000D03*
X547240000Y-67790000D03*
X547240000Y-65250000D03*
D30*
%TO.N,unconnected-(U9B-PC9-PadCN10_1)*%
X552320000Y-37310000D03*
D31*
%TO.N,unconnected-(U9B-PC8-PadCN10_2)*%
X554860000Y-37310000D03*
%TO.N,/TDM/TDM_I2C1_SCL*%
X552320000Y-39850000D03*
%TO.N,unconnected-(U9B-PC6-PadCN10_4)*%
X554860000Y-39850000D03*
%TO.N,/TDM/TDM_I2C1_SDA*%
X552320000Y-42390000D03*
%TO.N,/TDM/TDM_LED_FAIL*%
X554860000Y-42390000D03*
%TO.N,unconnected-(U9B-AVDD-PadCN10_7)*%
X552320000Y-44930000D03*
%TO.N,TDM_VDD*%
X554860000Y-44930000D03*
%TO.N,GND*%
X552320000Y-47470000D03*
%TO.N,N/C*%
X554860000Y-47470000D03*
%TO.N,/TDM/TDM_LED_OK*%
X552320000Y-50010000D03*
%TO.N,/TDM_CAN_TD*%
X554860000Y-50010000D03*
%TO.N,unconnected-(U9B-PA6-PadCN10_13)*%
X552320000Y-52550000D03*
%TO.N,/TDM_CAN_RD*%
X554860000Y-52550000D03*
%TO.N,unconnected-(U9B-PA7-PadCN10_15)*%
X552320000Y-55090000D03*
%TO.N,unconnected-(U9B-PB12-PadCN10_16)*%
X554860000Y-55090000D03*
%TO.N,unconnected-(U9B-PB6-PadCN10_17)*%
X552320000Y-57630000D03*
%TO.N,N/C*%
X554860000Y-57630000D03*
%TO.N,unconnected-(U9B-PC7-PadCN10_19)*%
X552320000Y-60170000D03*
%TO.N,GND*%
X554860000Y-60170000D03*
%TO.N,unconnected-(U9B-PA9-PadCN10_21)*%
X552320000Y-62710000D03*
%TO.N,unconnected-(U9B-PB2-PadCN10_22)*%
X554860000Y-62710000D03*
%TO.N,unconnected-(U9B-PA8-PadCN10_23)*%
X552320000Y-65250000D03*
%TO.N,unconnected-(U9B-PB1-PadCN10_24)*%
X554860000Y-65250000D03*
%TO.N,unconnected-(U9B-PB10-PadCN10_25)*%
X552320000Y-67790000D03*
%TO.N,unconnected-(U9B-PB15-PadCN10_26)*%
X554860000Y-67790000D03*
%TO.N,unconnected-(U9B-PB4-PadCN10_27)*%
X552320000Y-70330000D03*
%TO.N,unconnected-(U9B-PB14-PadCN10_28)*%
X554860000Y-70330000D03*
%TO.N,unconnected-(U9B-PB5-PadCN10_29)*%
X552320000Y-72870000D03*
%TO.N,unconnected-(U9B-PB13-PadCN10_30)*%
X554860000Y-72870000D03*
%TO.N,unconnected-(U9B-PB3-PadCN10_31)*%
X552320000Y-75410000D03*
%TO.N,unconnected-(U9B-AGND-PadCN10_32)*%
X554860000Y-75410000D03*
%TO.N,unconnected-(U9B-PA10-PadCN10_33)*%
X552320000Y-77950000D03*
%TO.N,/TDM/TDM_LED_WARN*%
X554860000Y-77950000D03*
%TO.N,/TDM_DBG_TX*%
X552320000Y-80490000D03*
%TO.N,N/C*%
X554860000Y-80490000D03*
%TO.N,/TDM_DBG_RX*%
X552320000Y-83030000D03*
%TO.N,N/C*%
X554860000Y-83030000D03*
%TD*%
D14*
%TO.N,Net-(U38-XI)*%
%TO.C,Y7*%
X305110000Y-54400000D03*
%TO.N,Net-(U38-XO)*%
X309990000Y-54400000D03*
%TD*%
D10*
%TO.N,Net-(J11-Pin_1)*%
%TO.C,J11*%
X557555000Y-134225000D03*
D11*
X557555000Y-135225000D03*
%TD*%
D10*
%TO.N,Net-(J6-Pin_1)*%
%TO.C,J6*%
X557555000Y-115100000D03*
D11*
X557555000Y-116100000D03*
%TD*%
D14*
%TO.N,Net-(U39-XI)*%
%TO.C,Y8*%
X439810000Y-54400000D03*
%TO.N,Net-(U39-XO)*%
X444690000Y-54400000D03*
%TD*%
D25*
%TO.N,GND*%
%TO.C,TH4*%
X528400000Y-61600000D03*
D26*
%TO.N,Net-(U9A-PC1{slash}PB9)*%
X530940000Y-61600000D03*
%TD*%
D10*
%TO.N,Net-(J10-Pin_1)*%
%TO.C,J10*%
X557555000Y-127850000D03*
D11*
X557555000Y-128850000D03*
%TD*%
D15*
%TO.N,unconnected-(J22-Shield-Pad5)_1*%
%TO.C,J22*%
X453700000Y-178600000D03*
%TO.N,unconnected-(J22-Shield-Pad5)*%
X442300000Y-178600000D03*
%TD*%
D10*
%TO.N,/USB_debug_UUM/DBG_TX*%
%TO.C,J34*%
X234750000Y-34625000D03*
D11*
%TO.N,/UUM_DBG_RX*%
X235750000Y-34625000D03*
%TO.N,GND*%
X236750000Y-34625000D03*
%TD*%
D23*
%TO.N,unconnected-(U4-PB12-Pad1)*%
%TO.C,U4*%
X237780000Y-153500000D03*
D24*
%TO.N,unconnected-(U4-PB13-Pad2)*%
X235240000Y-153500000D03*
%TO.N,unconnected-(U4-PB14-Pad3)*%
X232700000Y-153500000D03*
%TO.N,unconnected-(U4-PB15-Pad4)*%
X230160000Y-153500000D03*
%TO.N,unconnected-(U4-PA8-Pad5)*%
X227620000Y-153500000D03*
%TO.N,/APM/7SDD_CMD_RX*%
X225080000Y-153500000D03*
%TO.N,/APM/7SDD_CMD_TX*%
X222540000Y-153500000D03*
%TO.N,Net-(U36-DP)*%
X220000000Y-153500000D03*
%TO.N,Net-(U36-G)*%
X217460000Y-153500000D03*
%TO.N,Net-(U36-F)*%
X214920000Y-153500000D03*
%TO.N,Net-(U36-E)*%
X212380000Y-153500000D03*
%TO.N,Net-(U36-D)*%
X209840000Y-153500000D03*
%TO.N,Net-(U36-C)*%
X207300000Y-153500000D03*
%TO.N,Net-(U36-B)*%
X204760000Y-153500000D03*
%TO.N,Net-(U36-A)*%
X202220000Y-153500000D03*
%TO.N,Net-(U2-DP)*%
X199680000Y-153500000D03*
%TO.N,Net-(U2-G)*%
X197140000Y-153500000D03*
%TO.N,5V_7SDD*%
X194600000Y-153500000D03*
%TO.N,unconnected-(U4-GND-Pad19)*%
X192060000Y-153500000D03*
%TO.N,unconnected-(U4-3V3-Pad20)*%
X189520000Y-153500000D03*
%TO.N,unconnected-(U4-VBat-Pad21)*%
X189520000Y-168740000D03*
%TO.N,unconnected-(U4-PC13-Pad22)*%
X192060000Y-168740000D03*
%TO.N,Net-(U2-F)*%
X194600000Y-168740000D03*
%TO.N,Net-(U2-E)*%
X197140000Y-168740000D03*
%TO.N,Net-(U2-D)*%
X199680000Y-168740000D03*
%TO.N,Net-(U2-C)*%
X202220000Y-168740000D03*
%TO.N,Net-(U2-B)*%
X204760000Y-168740000D03*
%TO.N,Net-(U2-A)*%
X207300000Y-168740000D03*
%TO.N,Net-(U18-DP)*%
X209840000Y-168740000D03*
%TO.N,Net-(U18-G)*%
X212380000Y-168740000D03*
%TO.N,Net-(U18-F)*%
X214920000Y-168740000D03*
%TO.N,Net-(U18-E)*%
X217460000Y-168740000D03*
%TO.N,Net-(U18-D)*%
X220000000Y-168740000D03*
%TO.N,Net-(U18-C)*%
X222540000Y-168740000D03*
%TO.N,Net-(U18-B)*%
X225080000Y-168740000D03*
%TO.N,Net-(U18-A)*%
X227620000Y-168740000D03*
%TO.N,unconnected-(U4-RST-Pad37)*%
X230160000Y-168740000D03*
%TO.N,unconnected-(U4-3V3-Pad38)*%
X232700000Y-168740000D03*
%TO.N,GND*%
X235240000Y-168740000D03*
%TO.N,unconnected-(U4-GND-Pad40)*%
X237780000Y-168740000D03*
%TO.N,N/C*%
X193331000Y-164932000D03*
X193331000Y-162392000D03*
X193331000Y-159852000D03*
X193331000Y-157312000D03*
%TD*%
D15*
%TO.N,unconnected-(J29-Shield-Pad5)_1*%
%TO.C,J29*%
X295600000Y-34300000D03*
%TO.N,unconnected-(J29-Shield-Pad5)*%
X307000000Y-34300000D03*
%TD*%
D25*
%TO.N,GND*%
%TO.C,TH3*%
X235000000Y-62600000D03*
D26*
%TO.N,Net-(U9A-PA4)*%
X237540000Y-62600000D03*
%TD*%
D28*
%TO.N,unconnected-(U3F-D8-PadCN5_1)*%
%TO.C,U3*%
X254460000Y-60970000D03*
D29*
%TO.N,unconnected-(U3F-D9-PadCN5_2)*%
X254460000Y-58430000D03*
%TO.N,unconnected-(U3F-D10-PadCN5_3)*%
X254460000Y-55890000D03*
%TO.N,unconnected-(U3F-D11-PadCN5_4)*%
X254460000Y-53350000D03*
%TO.N,unconnected-(U3F-D12-PadCN5_5)*%
X254460000Y-50810000D03*
%TO.N,unconnected-(U3F-D13-PadCN5_6)*%
X254460000Y-48270000D03*
%TO.N,unconnected-(U3F-GND_S6-PadCN5_7)*%
X254460000Y-45730000D03*
%TO.N,unconnected-(U3F-AVDD_S6-PadCN5_8)*%
X254460000Y-43190000D03*
%TO.N,unconnected-(U3F-D14-PadCN5_9)*%
X254460000Y-40650000D03*
%TO.N,unconnected-(U3F-D15-PadCN5_10)*%
X254460000Y-38110000D03*
D28*
%TO.N,N/C*%
X206200000Y-47250000D03*
D29*
%TO.N,unconnected-(U3C-IOREF-PadCN6_2)*%
X206200000Y-49790000D03*
%TO.N,unconnected-(U3C-RESET-PadCN6_3)*%
X206200000Y-52330000D03*
%TO.N,unconnected-(U3C-+3V3-PadCN6_4)*%
X206200000Y-54870000D03*
%TO.N,unconnected-(U3C-+5V-PadCN6_5)*%
X206200000Y-57410000D03*
%TO.N,unconnected-(U3C-GND-PadCN6_6)_1*%
X206200000Y-59950000D03*
%TO.N,unconnected-(U3C-GND-PadCN6_6)*%
X206200000Y-62490000D03*
%TO.N,unconnected-(U3C-VIN-PadCN6_8)*%
X206200000Y-65030000D03*
D30*
%TO.N,unconnected-(U3A-PC10-PadCN7_1)*%
X198580000Y-37090000D03*
D31*
%TO.N,unconnected-(U3A-PC11-PadCN7_2)*%
X201120000Y-37090000D03*
%TO.N,unconnected-(U3A-PC12-PadCN7_3)*%
X198580000Y-39630000D03*
%TO.N,unconnected-(U3A-PD2-PadCN7_4)*%
X201120000Y-39630000D03*
%TO.N,unconnected-(U3A-VDD-PadCN7_5)*%
X198580000Y-42170000D03*
%TO.N,unconnected-(U3A-E5V-PadCN7_6)*%
X201120000Y-42170000D03*
%TO.N,unconnected-(U3A-BOOT0-PadCN7_7)*%
X198580000Y-44710000D03*
%TO.N,unconnected-(U3A-GND_S1-PadCN7_19)_3*%
X201120000Y-44710000D03*
%TO.N,N/C*%
X198580000Y-47250000D03*
X201120000Y-47250000D03*
X198580000Y-49790000D03*
%TO.N,unconnected-(U3A-IOREF_S1-PadCN7_12)*%
X201120000Y-49790000D03*
%TO.N,unconnected-(U3A-PA13-PadCN7_13)*%
X198580000Y-52330000D03*
%TO.N,unconnected-(U3A-RESET_S1-PadCN7_14)*%
X201120000Y-52330000D03*
%TO.N,unconnected-(U3A-PA14-PadCN7_15)*%
X198580000Y-54870000D03*
%TO.N,UUM_3v3*%
X201120000Y-54870000D03*
%TO.N,unconnected-(U3A-PA15-PadCN7_17)*%
X198580000Y-57410000D03*
%TO.N,UUM_VDD*%
X201120000Y-57410000D03*
%TO.N,unconnected-(U3A-GND_S1-PadCN7_19)_1*%
X198580000Y-59950000D03*
%TO.N,unconnected-(U3A-GND_S1-PadCN7_19)_2*%
X201120000Y-59950000D03*
%TO.N,unconnected-(U3A-PB7-PadCN7_21)*%
X198580000Y-62490000D03*
%TO.N,unconnected-(U3A-GND_S1-PadCN7_19)*%
X201120000Y-62490000D03*
%TO.N,unconnected-(U3A-PC13-PadCN7_23)*%
X198580000Y-65030000D03*
%TO.N,unconnected-(U3A-VIN_S1-PadCN7_24)*%
X201120000Y-65030000D03*
%TO.N,/UUM/UUM_SPI_SEL*%
X198580000Y-67570000D03*
%TO.N,N/C*%
X201120000Y-67570000D03*
%TO.N,unconnected-(U3A-PC15-PadCN7_27)*%
X198580000Y-70110000D03*
%TO.N,unconnected-(U3A-PA0-PadCN7_28)*%
X201120000Y-70110000D03*
%TO.N,unconnected-(U3A-PF0-PadCN7_29)*%
X198580000Y-72650000D03*
%TO.N,unconnected-(U3A-PA1-PadCN7_30)*%
X201120000Y-72650000D03*
%TO.N,unconnected-(U3A-PF1-PadCN7_31)*%
X198580000Y-75190000D03*
%TO.N,unconnected-(U3A-PA4-PadCN7_32)*%
X201120000Y-75190000D03*
%TO.N,unconnected-(U3A-VBAT-PadCN7_33)*%
X198580000Y-77730000D03*
%TO.N,unconnected-(U3A-PB0-PadCN7_34)*%
X201120000Y-77730000D03*
%TO.N,/UUM/UUM_LED_OK*%
X198580000Y-80270000D03*
%TO.N,/UUM/UUM_LED_WARN*%
X201120000Y-80270000D03*
%TO.N,unconnected-(U3A-PC3-PadCN7_37)*%
X198580000Y-82810000D03*
%TO.N,/UUM/UUM_LED_FAIL*%
X201120000Y-82810000D03*
D28*
%TO.N,unconnected-(U3E-A0-PadCN8_1)*%
X206200000Y-70110000D03*
D29*
%TO.N,unconnected-(U3E-A1-PadCN8_2)*%
X206200000Y-72650000D03*
%TO.N,unconnected-(U3E-A2-PadCN8_3)*%
X206200000Y-75190000D03*
%TO.N,unconnected-(U3E-A3-PadCN8_4)*%
X206200000Y-77730000D03*
%TO.N,unconnected-(U3E-A4-PadCN8_5)*%
X206200000Y-80270000D03*
%TO.N,unconnected-(U3E-A5-PadCN8_6)*%
X206200000Y-82810000D03*
D28*
%TO.N,unconnected-(U3D-D0-PadCN9_1)*%
X254460000Y-82810000D03*
D29*
%TO.N,unconnected-(U3D-D1-PadCN9_2)*%
X254460000Y-80270000D03*
%TO.N,unconnected-(U3D-D2-PadCN9_3)*%
X254460000Y-77730000D03*
%TO.N,unconnected-(U3D-D3-PadCN9_4)*%
X254460000Y-75190000D03*
%TO.N,unconnected-(U3D-D4-PadCN9_5)*%
X254460000Y-72650000D03*
%TO.N,unconnected-(U3D-D5-PadCN9_6)*%
X254460000Y-70110000D03*
%TO.N,unconnected-(U3D-D6-PadCN9_7)*%
X254460000Y-67570000D03*
%TO.N,unconnected-(U3D-D7-PadCN9_8)*%
X254460000Y-65030000D03*
D30*
%TO.N,unconnected-(U3B-PC9-PadCN10_1)*%
X259540000Y-37090000D03*
D31*
%TO.N,unconnected-(U3B-PC8-PadCN10_2)*%
X262080000Y-37090000D03*
%TO.N,/UUM_CAN_RD*%
X259540000Y-39630000D03*
%TO.N,unconnected-(U3B-PC6-PadCN10_4)*%
X262080000Y-39630000D03*
%TO.N,/UUM_CAN_TD*%
X259540000Y-42170000D03*
%TO.N,unconnected-(U3B-PC5-PadCN10_6)*%
X262080000Y-42170000D03*
%TO.N,unconnected-(U3B-AVDD-PadCN10_7)*%
X259540000Y-44710000D03*
%TO.N,unconnected-(U3B-U5V-PadCN10_8)*%
X262080000Y-44710000D03*
%TO.N,GND*%
X259540000Y-47250000D03*
%TO.N,N/C*%
X262080000Y-47250000D03*
%TO.N,/UUM/UUM_SPI1_SCLK*%
X259540000Y-49790000D03*
%TO.N,unconnected-(U3B-PA12-PadCN10_12)*%
X262080000Y-49790000D03*
%TO.N,/UUM/UUM_SPI1_MISO*%
X259540000Y-52330000D03*
%TO.N,unconnected-(U3B-PA11-PadCN10_14)*%
X262080000Y-52330000D03*
%TO.N,/UUM/UUM_SPI1_MOSI*%
X259540000Y-54870000D03*
%TO.N,unconnected-(U3B-PB12-PadCN10_16)*%
X262080000Y-54870000D03*
%TO.N,unconnected-(U3B-PB6-PadCN10_17)*%
X259540000Y-57410000D03*
%TO.N,unconnected-(U3B-PB11-PadCN10_18)*%
X262080000Y-57410000D03*
%TO.N,unconnected-(U3B-PC7-PadCN10_19)*%
X259540000Y-59950000D03*
%TO.N,GND*%
X262080000Y-59950000D03*
%TO.N,/UUM/UUM_SPI2_CS*%
X259540000Y-62490000D03*
%TO.N,unconnected-(U3B-PB2-PadCN10_22)*%
X262080000Y-62490000D03*
%TO.N,/UUM/UUM_SPI1_CS*%
X259540000Y-65030000D03*
%TO.N,unconnected-(U3B-PB1-PadCN10_24)*%
X262080000Y-65030000D03*
%TO.N,unconnected-(U3B-PB10-PadCN10_25)*%
X259540000Y-67570000D03*
%TO.N,unconnected-(U3B-PB15-PadCN10_26)*%
X262080000Y-67570000D03*
%TO.N,unconnected-(U3B-PB4-PadCN10_27)*%
X259540000Y-70110000D03*
%TO.N,unconnected-(U3B-PB14-PadCN10_28)*%
X262080000Y-70110000D03*
%TO.N,unconnected-(U3B-PB5-PadCN10_29)*%
X259540000Y-72650000D03*
%TO.N,unconnected-(U3B-PB13-PadCN10_30)*%
X262080000Y-72650000D03*
%TO.N,unconnected-(U3B-PB3-PadCN10_31)*%
X259540000Y-75190000D03*
%TO.N,unconnected-(U3B-AGND-PadCN10_32)*%
X262080000Y-75190000D03*
%TO.N,unconnected-(U3B-PA10-PadCN10_33)*%
X259540000Y-77730000D03*
%TO.N,unconnected-(U3B-PC4-PadCN10_34)*%
X262080000Y-77730000D03*
%TO.N,/UUM_DBG_TX*%
X259540000Y-80270000D03*
%TO.N,N/C*%
X262080000Y-80270000D03*
%TO.N,/UUM_DBG_RX*%
X259540000Y-82810000D03*
%TO.N,N/C*%
X262080000Y-82810000D03*
%TD*%
D32*
%TO.N,/TDM_CAN_RD*%
%TO.C,U31*%
X517360000Y-134620000D03*
D17*
%TO.N,GND*%
X514820000Y-134620000D03*
%TO.N,TDM_VDD*%
X512280000Y-134620000D03*
%TO.N,/TDM_CAN_TD*%
X509740000Y-134620000D03*
%TO.N,unconnected-(U31-Vref-Pad5)*%
X509740000Y-142240000D03*
%TO.N,/CAN-*%
X512280000Y-142240000D03*
%TO.N,/CAN+*%
X514820000Y-142240000D03*
%TO.N,Net-(U31-Rs)*%
X517360000Y-142240000D03*
%TD*%
D18*
%TO.N,N/C*%
%TO.C,U17*%
X469800000Y-37256000D03*
D19*
X472340000Y-37256000D03*
X469800000Y-39796000D03*
X472340000Y-39796000D03*
X469800000Y-42336000D03*
X472340000Y-42336000D03*
X469800000Y-44876000D03*
X472340000Y-44876000D03*
X469800000Y-47416000D03*
X472340000Y-47416000D03*
X469800000Y-49956000D03*
X472340000Y-49956000D03*
X469800000Y-52496000D03*
X472340000Y-52496000D03*
X469800000Y-55036000D03*
X472340000Y-55036000D03*
X469800000Y-57576000D03*
X472340000Y-57576000D03*
X469800000Y-60116000D03*
X472340000Y-60116000D03*
D18*
X424080000Y-46400000D03*
D19*
X426620000Y-46400000D03*
X424080000Y-48940000D03*
X426620000Y-48940000D03*
X424080000Y-51480000D03*
X426620000Y-51480000D03*
X424080000Y-54020000D03*
X426620000Y-54020000D03*
X424080000Y-56560000D03*
X426620000Y-56560000D03*
X424080000Y-59100000D03*
X426620000Y-59100000D03*
X424080000Y-61640000D03*
X426620000Y-61640000D03*
X424080000Y-64180000D03*
X426620000Y-64180000D03*
D18*
X424080000Y-69260000D03*
D19*
X426620000Y-69260000D03*
X424080000Y-71800000D03*
X426620000Y-71800000D03*
X424080000Y-74340000D03*
X426620000Y-74340000D03*
X424080000Y-76880000D03*
X426620000Y-76880000D03*
X424080000Y-79420000D03*
X426620000Y-79420000D03*
X424080000Y-81960000D03*
X426620000Y-81960000D03*
X424080000Y-84500000D03*
X426620000Y-84500000D03*
X424080000Y-87040000D03*
X426620000Y-87040000D03*
X424080000Y-89580000D03*
X426620000Y-89580000D03*
X424080000Y-92120000D03*
X426620000Y-92120000D03*
X424080000Y-94660000D03*
X426620000Y-94660000D03*
X424080000Y-97200000D03*
X426620000Y-97200000D03*
X424080000Y-99740000D03*
X426620000Y-99740000D03*
X424080000Y-102280000D03*
X426620000Y-102280000D03*
X424080000Y-104820000D03*
X426620000Y-104820000D03*
D18*
X469800000Y-64180000D03*
D19*
X472340000Y-64180000D03*
X469800000Y-66720000D03*
X472340000Y-66720000D03*
X469800000Y-69260000D03*
X472340000Y-69260000D03*
X469800000Y-71800000D03*
X472340000Y-71800000D03*
X469800000Y-74340000D03*
X472340000Y-74340000D03*
X469800000Y-76880000D03*
X472340000Y-76880000D03*
X469800000Y-79420000D03*
X472340000Y-79420000D03*
X469800000Y-81960000D03*
X472340000Y-81960000D03*
X469800000Y-84500000D03*
X472340000Y-84500000D03*
X469800000Y-87040000D03*
X472340000Y-87040000D03*
X469800000Y-89580000D03*
X472340000Y-89580000D03*
X469800000Y-92120000D03*
X472340000Y-92120000D03*
X469800000Y-94660000D03*
X472340000Y-94660000D03*
X469800000Y-97200000D03*
X472340000Y-97200000D03*
X469800000Y-99740000D03*
X472340000Y-99740000D03*
X469800000Y-102280000D03*
X472340000Y-102280000D03*
X469800000Y-104820000D03*
X472340000Y-104820000D03*
D18*
%TO.N,unconnected-(U17A-PC10-PadCN11_1)*%
X416460000Y-36240000D03*
D19*
%TO.N,unconnected-(U17A-PC11-PadCN11_2)*%
X419000000Y-36240000D03*
%TO.N,/DSM_DBG_TX*%
X416460000Y-38780000D03*
%TO.N,/DSM_DBG_RX*%
X419000000Y-38780000D03*
%TO.N,unconnected-(U17A-3V3_VDD-PadCN11_5)*%
X416460000Y-41320000D03*
%TO.N,unconnected-(U17A-5V_EXT-PadCN11_6)*%
X419000000Y-41320000D03*
%TO.N,unconnected-(U17A-BOOT0-PadCN11_7)*%
X416460000Y-43860000D03*
%TO.N,GND*%
X419000000Y-43860000D03*
%TO.N,unconnected-(U17A-PF6-PadCN11_9)*%
X416460000Y-46400000D03*
%TO.N,unconnected-(U17A-NC-PadCN11_10)*%
X419000000Y-46400000D03*
%TO.N,unconnected-(U17A-PF7-PadCN11_11)*%
X416460000Y-48940000D03*
%TO.N,unconnected-(U17A-IOREF-PadCN11_12)*%
X419000000Y-48940000D03*
%TO.N,unconnected-(U17A-PA13-PadCN11_13)*%
X416460000Y-51480000D03*
%TO.N,unconnected-(U17A-NRST-PadCN11_14)*%
X419000000Y-51480000D03*
%TO.N,unconnected-(U17A-PA14-PadCN11_15)*%
X416460000Y-54020000D03*
%TO.N,unconnected-(U17A-3V3-PadCN11_16)*%
X419000000Y-54020000D03*
%TO.N,unconnected-(U17A-PA15-PadCN11_17)*%
X416460000Y-56560000D03*
%TO.N,DSM_VDD*%
X419000000Y-56560000D03*
%TO.N,GND*%
X416460000Y-59100000D03*
X419000000Y-59100000D03*
%TO.N,/FMC_NL*%
X416460000Y-61640000D03*
%TO.N,GND*%
X419000000Y-61640000D03*
%TO.N,unconnected-(U17A-PC13-PadCN11_23)*%
X416460000Y-64180000D03*
%TO.N,unconnected-(U17A-VIN-PadCN11_24)*%
X419000000Y-64180000D03*
%TO.N,unconnected-(U17A-PC14-PadCN11_25)*%
X416460000Y-66720000D03*
%TO.N,unconnected-(U17A-NC-PadCN11_26)*%
X419000000Y-66720000D03*
%TO.N,unconnected-(U17A-PC15-PadCN11_27)*%
X416460000Y-69260000D03*
%TO.N,unconnected-(U17A-PA0-PadCN11_28)*%
X419000000Y-69260000D03*
%TO.N,unconnected-(U17A-PH0-PadCN11_29)*%
X416460000Y-71800000D03*
%TO.N,unconnected-(U17A-PA1-PadCN11_30)*%
X419000000Y-71800000D03*
%TO.N,unconnected-(U17A-PH1-PadCN11_31)*%
X416460000Y-74340000D03*
%TO.N,/DAC_R*%
X419000000Y-74340000D03*
%TO.N,unconnected-(U17A-VBAT-PadCN11_33)*%
X416460000Y-76880000D03*
%TO.N,unconnected-(U17A-PB0-PadCN11_34)*%
X419000000Y-76880000D03*
%TO.N,unconnected-(U17A-PC2-PadCN11_35)*%
X416460000Y-79420000D03*
%TO.N,unconnected-(U17A-PC1-PadCN11_36)*%
X419000000Y-79420000D03*
%TO.N,unconnected-(U17A-PC3-PadCN11_37)*%
X416460000Y-81960000D03*
%TO.N,unconnected-(U17A-PC0-PadCN11_38)*%
X419000000Y-81960000D03*
%TO.N,/FMC_NOE*%
X416460000Y-84500000D03*
%TO.N,/FMC_CLK*%
X419000000Y-84500000D03*
%TO.N,/FMC_NWE*%
X416460000Y-87040000D03*
%TO.N,unconnected-(U17A-PG2-PadCN11_42)*%
X419000000Y-87040000D03*
%TO.N,unconnected-(U17A-PD6-PadCN11_43)*%
X416460000Y-89580000D03*
%TO.N,unconnected-(U17A-PG3-PadCN11_44)*%
X419000000Y-89580000D03*
%TO.N,unconnected-(U17A-PD7-PadCN11_45)*%
X416460000Y-92120000D03*
%TO.N,unconnected-(U17A-PE2-PadCN11_46)*%
X419000000Y-92120000D03*
%TO.N,/IRQ0*%
X416460000Y-94660000D03*
%TO.N,unconnected-(U17A-PE4-PadCN11_48)*%
X419000000Y-94660000D03*
%TO.N,GND*%
X416460000Y-97200000D03*
%TO.N,unconnected-(U17A-PE5-PadCN11_50)*%
X419000000Y-97200000D03*
%TO.N,/DSM/DSM_I2C1_SCL*%
X416460000Y-99740000D03*
%TO.N,unconnected-(U17A-PF2-PadCN11_52)*%
X419000000Y-99740000D03*
%TO.N,/DSM/DSM_I2C1_SDA*%
X416460000Y-102280000D03*
%TO.N,unconnected-(U17A-PF8-PadCN11_54)*%
X419000000Y-102280000D03*
%TO.N,/FMC_D3*%
X416460000Y-104820000D03*
%TO.N,unconnected-(U17A-PF9-PadCN11_56)*%
X419000000Y-104820000D03*
%TO.N,/FMC_D2*%
X416460000Y-107360000D03*
%TO.N,unconnected-(U17A-PG1-PadCN11_58)*%
X419000000Y-107360000D03*
%TO.N,unconnected-(U17A-PG0-PadCN11_59)*%
X416460000Y-109900000D03*
%TO.N,GND*%
X419000000Y-109900000D03*
%TO.N,/FMC_NBL1*%
X416460000Y-112440000D03*
%TO.N,/ISR0*%
X419000000Y-112440000D03*
%TO.N,unconnected-(U17A-PG9-PadCN11_63)*%
X416460000Y-114980000D03*
%TO.N,unconnected-(U17A-PG15-PadCN11_64)*%
X419000000Y-114980000D03*
%TO.N,unconnected-(U17A-PG12-PadCN11_65)*%
X416460000Y-117520000D03*
%TO.N,unconnected-(U17A-PG10-PadCN11_66)*%
X419000000Y-117520000D03*
%TO.N,unconnected-(U17A-NC-PadCN11_67)*%
X416460000Y-120060000D03*
%TO.N,unconnected-(U17A-PG13-PadCN11_68)*%
X419000000Y-120060000D03*
%TO.N,/FMC_D14*%
X416460000Y-122600000D03*
%TO.N,unconnected-(U17A-PG11-PadCN11_70)*%
X419000000Y-122600000D03*
%TO.N,GND*%
X416460000Y-125140000D03*
X419000000Y-125140000D03*
D18*
%TO.N,unconnected-(U17B-PC9-PadCN12_1)*%
X477420000Y-36260000D03*
D19*
%TO.N,unconnected-(U17B-PC8-PadCN12_2)*%
X479960000Y-36260000D03*
%TO.N,/DSM_CAN_RD*%
X477420000Y-38800000D03*
%TO.N,/DSM/DSM_LED_OK*%
X479960000Y-38800000D03*
%TO.N,/DSM_CAN_TD*%
X477420000Y-41340000D03*
%TO.N,/DSM/DSM_LED_WARN*%
X479960000Y-41340000D03*
%TO.N,unconnected-(U17B-VREFP-PadCN12_7)*%
X477420000Y-43880000D03*
%TO.N,unconnected-(U17B-5V_USB_STLK-PadCN12_8)*%
X479960000Y-43880000D03*
%TO.N,unconnected-(U17B-GND_CN12-PadCN12_20)_5*%
X477420000Y-46420000D03*
%TO.N,/FMC_D13*%
X479960000Y-46420000D03*
%TO.N,/DAC_L*%
X477420000Y-48960000D03*
%TO.N,/DSM/DSM_USB_D-*%
X479960000Y-48960000D03*
%TO.N,unconnected-(U17B-PA6-PadCN12_13)*%
X477420000Y-51500000D03*
%TO.N,/DSM/DSM_USB_D+*%
X479960000Y-51500000D03*
%TO.N,unconnected-(U17B-PA7-PadCN12_15)*%
X477420000Y-54040000D03*
%TO.N,unconnected-(U17B-PB12-PadCN12_16)*%
X479960000Y-54040000D03*
%TO.N,unconnected-(U17B-PB6-PadCN12_17)*%
X477420000Y-56580000D03*
%TO.N,unconnected-(U17B-PB11-PadCN12_18)*%
X479960000Y-56580000D03*
%TO.N,/FMC_NE*%
X477420000Y-59120000D03*
%TO.N,unconnected-(U17B-GND_CN12-PadCN12_20)_4*%
X479960000Y-59120000D03*
%TO.N,unconnected-(U17B-PA9-PadCN12_21)*%
X477420000Y-61660000D03*
%TO.N,unconnected-(U17B-PB2-PadCN12_22)*%
X479960000Y-61660000D03*
%TO.N,unconnected-(U17B-PA8-PadCN12_23)*%
X477420000Y-64200000D03*
%TO.N,unconnected-(U17B-PB1-PadCN12_24)*%
X479960000Y-64200000D03*
%TO.N,unconnected-(U17B-PB10-PadCN12_25)*%
X477420000Y-66740000D03*
%TO.N,unconnected-(U17B-PB15-PadCN12_26)*%
X479960000Y-66740000D03*
%TO.N,unconnected-(U17B-PB4-PadCN12_27)*%
X477420000Y-69280000D03*
%TO.N,unconnected-(U17B-PB14-PadCN12_28)*%
X479960000Y-69280000D03*
%TO.N,unconnected-(U17B-PB5-PadCN12_29)*%
X477420000Y-71820000D03*
%TO.N,unconnected-(U17B-PB13-PadCN12_30)*%
X479960000Y-71820000D03*
%TO.N,unconnected-(U17B-PB3-PadCN12_31)*%
X477420000Y-74360000D03*
%TO.N,unconnected-(U17B-AGND_CN12-PadCN12_32)*%
X479960000Y-74360000D03*
%TO.N,unconnected-(U17B-PA10-PadCN12_33)*%
X477420000Y-76900000D03*
%TO.N,/DSM/DSM_LED_FAIL*%
X479960000Y-76900000D03*
%TO.N,unconnected-(U17B-PA2-PadCN12_35)*%
X477420000Y-79440000D03*
%TO.N,unconnected-(U17B-PF5-PadCN12_36)*%
X479960000Y-79440000D03*
%TO.N,unconnected-(U17B-PA3-PadCN12_37)*%
X477420000Y-81980000D03*
%TO.N,unconnected-(U17B-PF4-PadCN12_38)*%
X479960000Y-81980000D03*
%TO.N,unconnected-(U17B-GND_CN12-PadCN12_20)*%
X477420000Y-84520000D03*
%TO.N,/FMC_D5*%
X479960000Y-84520000D03*
%TO.N,unconnected-(U17B-PD13-PadCN12_41)*%
X477420000Y-87060000D03*
%TO.N,unconnected-(U17B-PF10-PadCN12_42)*%
X479960000Y-87060000D03*
%TO.N,unconnected-(U17B-PD12-PadCN12_43)*%
X477420000Y-89600000D03*
%TO.N,/FMC_D4*%
X479960000Y-89600000D03*
%TO.N,unconnected-(U17B-PD11-PadCN12_45)*%
X477420000Y-92140000D03*
%TO.N,/FMC_D0*%
X479960000Y-92140000D03*
%TO.N,/FMC_D7*%
X477420000Y-94680000D03*
%TO.N,/FMC_D1*%
X479960000Y-94680000D03*
%TO.N,/FMC_D9*%
X477420000Y-97220000D03*
%TO.N,unconnected-(U17B-PF14-PadCN12_50)*%
X479960000Y-97220000D03*
%TO.N,/FMC_D11*%
X477420000Y-99760000D03*
%TO.N,/FMC_D6*%
X479960000Y-99760000D03*
%TO.N,/FMC_D12*%
X477420000Y-102300000D03*
%TO.N,unconnected-(U17B-GND_CN12-PadCN12_20)_6*%
X479960000Y-102300000D03*
%TO.N,/FMC_D10*%
X477420000Y-104840000D03*
%TO.N,/FMC_D8*%
X479960000Y-104840000D03*
%TO.N,unconnected-(U17B-PF13-PadCN12_57)*%
X477420000Y-107380000D03*
%TO.N,unconnected-(U17B-PF3-PadCN12_58)*%
X479960000Y-107380000D03*
%TO.N,unconnected-(U17B-PF12-PadCN12_59)*%
X477420000Y-109920000D03*
%TO.N,unconnected-(U17B-PF15-PadCN12_60)*%
X479960000Y-109920000D03*
%TO.N,unconnected-(U17B-PG14-PadCN12_61)*%
X477420000Y-112460000D03*
%TO.N,unconnected-(U17B-PF11-PadCN12_62)*%
X479960000Y-112460000D03*
%TO.N,unconnected-(U17B-GND_CN12-PadCN12_20)_2*%
X477420000Y-115000000D03*
%TO.N,/FMC_NBL0*%
X479960000Y-115000000D03*
%TO.N,/FMC_D15*%
X477420000Y-117540000D03*
%TO.N,unconnected-(U17B-PG8-PadCN12_66)*%
X479960000Y-117540000D03*
%TO.N,unconnected-(U17B-PG7-PadCN12_67)*%
X477420000Y-120080000D03*
%TO.N,unconnected-(U17B-PG5-PadCN12_68)*%
X479960000Y-120080000D03*
%TO.N,unconnected-(U17B-PG4-PadCN12_69)*%
X477420000Y-122620000D03*
%TO.N,unconnected-(U17B-PG6-PadCN12_70)*%
X479960000Y-122620000D03*
%TO.N,unconnected-(U17B-GND_CN12-PadCN12_20)_1*%
X477420000Y-125160000D03*
%TO.N,unconnected-(U17B-GND_CN12-PadCN12_20)_3*%
X479960000Y-125160000D03*
%TD*%
D14*
%TO.N,Net-(U37-XI)*%
%TO.C,Y5*%
X516060000Y-54500000D03*
%TO.N,Net-(U37-XO)*%
X520940000Y-54500000D03*
%TD*%
D12*
%TO.N,Net-(U36-E)*%
%TO.C,U36*%
X188500000Y-139963000D03*
D13*
%TO.N,Net-(U36-D)*%
X191040000Y-139963000D03*
%TO.N,GND*%
X193580000Y-139963000D03*
%TO.N,Net-(U36-C)*%
X196120000Y-139963000D03*
%TO.N,Net-(U36-DP)*%
X198660000Y-139963000D03*
%TO.N,Net-(U36-B)*%
X198660000Y-124723000D03*
%TO.N,Net-(U36-A)*%
X196120000Y-124723000D03*
%TO.N,GND*%
X193580000Y-124723000D03*
%TO.N,Net-(U36-F)*%
X191040000Y-124723000D03*
%TO.N,Net-(U36-G)*%
X188500000Y-124723000D03*
%TD*%
D15*
%TO.N,unconnected-(J27-Shield-Pad5)_1*%
%TO.C,J27*%
X506550000Y-34400000D03*
%TO.N,unconnected-(J27-Shield-Pad5)*%
X517950000Y-34400000D03*
%TD*%
D10*
%TO.N,/USB_debug_ACM/DBG_TX*%
%TO.C,J26*%
X370250000Y-177919900D03*
D11*
%TO.N,/ACM_DBG_RX*%
X369250000Y-177919900D03*
%TO.N,GND*%
X368250000Y-177919900D03*
%TD*%
D10*
%TO.N,Net-(J5-Pin_1)*%
%TO.C,J5*%
X557555000Y-108725000D03*
D11*
X557555000Y-109725000D03*
%TD*%
D33*
%TO.N,/DSM_CAN_RD*%
%TO.C,U30*%
X509740000Y-124540000D03*
D17*
%TO.N,GND*%
X512280000Y-124540000D03*
%TO.N,DSM_VDD*%
X514820000Y-124540000D03*
%TO.N,/DSM_CAN_TD*%
X517360000Y-124540000D03*
%TO.N,unconnected-(U30-Vref-Pad5)*%
X517360000Y-116920000D03*
%TO.N,/CAN-*%
X514820000Y-116920000D03*
%TO.N,/CAN+*%
X512280000Y-116920000D03*
%TO.N,Net-(U30-Rs)*%
X509740000Y-116920000D03*
%TD*%
D10*
%TO.N,Net-(J7-Pin_1)*%
%TO.C,J7*%
X557555000Y-121475000D03*
D11*
X557555000Y-122475000D03*
%TD*%
D34*
%TO.N,GND*%
X238500000Y-35250000D03*
X364293700Y-133008900D03*
X399000000Y-177900000D03*
X399100000Y-174900000D03*
X526360000Y-94320000D03*
X222800000Y-110695000D03*
X517339500Y-96473600D03*
X547938500Y-135942500D03*
X547962900Y-115881000D03*
X428144800Y-146602300D03*
X221688000Y-49144900D03*
X499888300Y-104708700D03*
X366600000Y-177400000D03*
X234505000Y-98600000D03*
X531736100Y-108580000D03*
X398341900Y-122894400D03*
X512400200Y-105922000D03*
X400090400Y-114120600D03*
X405108400Y-118780800D03*
X550067200Y-135796100D03*
X248400000Y-107300000D03*
X303588000Y-49400000D03*
X442453400Y-175697400D03*
X428144800Y-155956800D03*
X199778300Y-103956400D03*
X534181500Y-121999200D03*
X289547200Y-151145000D03*
X500152300Y-99169300D03*
X287000000Y-176600000D03*
X514500000Y-46000000D03*
X380560700Y-132718900D03*
X402483800Y-123737600D03*
X206903600Y-38394900D03*
X364343700Y-120262900D03*
X312250000Y-175784000D03*
X303569000Y-42650000D03*
X289647200Y-141831000D03*
X236505000Y-93600000D03*
X526352000Y-102300000D03*
X225900000Y-59244900D03*
X552369800Y-118557800D03*
X492912700Y-146043200D03*
X422950000Y-35250000D03*
X237105000Y-92600000D03*
X216405000Y-106200000D03*
X512500000Y-108000000D03*
X549871700Y-128694400D03*
X404985500Y-125568400D03*
X549871700Y-141086400D03*
X428194800Y-151694600D03*
X379100000Y-153300000D03*
X364343700Y-124137100D03*
X205133900Y-34515200D03*
X374300000Y-153300000D03*
X547989100Y-142499000D03*
X549871700Y-133651200D03*
X385208600Y-126751100D03*
X243305000Y-102600000D03*
X523550000Y-59600000D03*
X455000000Y-35400000D03*
X245905000Y-96400000D03*
X525922100Y-146043200D03*
X303550000Y-45900000D03*
X503000000Y-113000000D03*
X202752200Y-99512500D03*
X230700000Y-59244900D03*
X306550000Y-37900000D03*
X221650000Y-45644900D03*
X514538000Y-49500000D03*
X364293700Y-128604500D03*
X380350000Y-174900000D03*
X551470100Y-142727500D03*
X412476200Y-114471600D03*
X533441400Y-135318800D03*
X438250000Y-45900000D03*
X517500000Y-38000000D03*
X428194800Y-142848700D03*
X512400200Y-101432000D03*
X534883100Y-129211000D03*
X550067200Y-115881000D03*
X383331000Y-170150000D03*
X288220000Y-35190000D03*
X221669000Y-42394900D03*
X236505000Y-104400000D03*
X549871700Y-113824000D03*
X549871700Y-121259200D03*
X383350000Y-166900000D03*
X442500000Y-59500000D03*
X441250000Y-37900000D03*
X228305000Y-97295000D03*
X531573100Y-142820200D03*
X289647200Y-146318200D03*
X549871700Y-106835000D03*
X380000900Y-130478200D03*
X552369800Y-111837400D03*
X422850000Y-38150000D03*
X224650000Y-37644900D03*
X531250000Y-35500000D03*
X447300000Y-59500000D03*
X288120000Y-38090000D03*
X222800000Y-99800000D03*
X492500000Y-114500000D03*
X529886900Y-116302400D03*
X514519000Y-42750000D03*
X234505000Y-109600000D03*
X499938300Y-96252600D03*
X216505000Y-95200000D03*
X524250000Y-43750000D03*
X438288000Y-49400000D03*
X448000000Y-43650000D03*
X307800000Y-59500000D03*
X512439500Y-109000000D03*
X312600000Y-59500000D03*
X552369800Y-131494000D03*
X232081500Y-93030600D03*
X547954100Y-121388200D03*
X499250000Y-35400000D03*
X517061500Y-100042800D03*
X544515400Y-109206000D03*
X228290400Y-103910400D03*
X199778300Y-108867200D03*
X499888300Y-108862900D03*
X438269000Y-42650000D03*
X237105000Y-103400000D03*
X205820000Y-178220000D03*
X231400000Y-43394900D03*
X228305000Y-108200000D03*
X544506700Y-128986100D03*
X552369800Y-138547500D03*
X383312000Y-163400000D03*
X513000000Y-105000000D03*
X518750000Y-59600000D03*
X289547200Y-156717200D03*
X549871700Y-126663700D03*
X550589800Y-122973600D03*
X499150000Y-38300000D03*
X459200000Y-172600000D03*
X320300000Y-35400000D03*
X199778300Y-96311300D03*
X373600000Y-169150000D03*
X313300000Y-43650000D03*
X325500000Y-172500000D03*
%TO.N,APM_VDD*%
X299050000Y-39400000D03*
X487600000Y-136194900D03*
X492662700Y-131172800D03*
X313259500Y-141029300D03*
X310300000Y-40900000D03*
X287161100Y-141086400D03*
X312325500Y-170827200D03*
%TO.N,Net-(U14-VCC)*%
X397774000Y-122333000D03*
X400123200Y-113172400D03*
%TO.N,/ACM/ACM_LED_OK*%
X360033100Y-123920600D03*
%TO.N,/ACM_CMD_TX*%
X355019900Y-34515200D03*
%TO.N,/ACM/ACM_LED_FAIL*%
X357518000Y-133885700D03*
%TO.N,5V_TDM*%
X547068100Y-118303800D03*
X547051800Y-111757700D03*
X544600200Y-124017200D03*
X547068100Y-131539400D03*
%TO.N,/ACM/ACM_SPI_SCLK*%
X400538400Y-125568400D03*
X372506600Y-123737600D03*
%TO.N,/ACM/ACM_SPI_CS*%
X395044300Y-49148200D03*
X397206100Y-123962400D03*
%TO.N,/ACM/ACM_LED_WARN*%
X360016100Y-128500100D03*
%TO.N,/FMC_NOE*%
X372237600Y-86461500D03*
%TO.N,/ACM/ACM_SPI_MISO*%
X395044300Y-56675800D03*
X405695500Y-120550000D03*
%TO.N,3V3_ACM*%
X393075500Y-123043000D03*
%TO.N,/FMC_NE*%
X478531600Y-94026400D03*
%TO.N,/ACM_CMD_RX*%
X286884600Y-52918400D03*
%TO.N,/ACM/ACM_SPI_MOSI*%
X381000000Y-128000000D03*
%TO.N,/FMC_NL*%
X374265300Y-61777600D03*
%TO.N,/FMC_D1*%
X414145400Y-93227200D03*
%TO.N,/FMC_D11*%
X410075000Y-98856600D03*
X467434400Y-100607100D03*
%TO.N,Net-(J15-Pin_1)*%
X540690100Y-139154600D03*
%TO.N,DSM_VDD*%
X459940100Y-41950400D03*
X422272800Y-55290000D03*
X433750000Y-39400000D03*
X417772800Y-141384600D03*
X431200000Y-53000000D03*
X421000000Y-172000000D03*
X422468600Y-127060400D03*
X445000000Y-40900000D03*
X442453400Y-173305600D03*
%TO.N,/FMC_D15*%
X407471000Y-116302400D03*
%TO.N,/FMC_D0*%
X470161100Y-51226000D03*
%TO.N,TDM_VDD*%
X327169700Y-131172800D03*
X379438400Y-133651200D03*
X456000000Y-106110000D03*
X242605400Y-59299200D03*
X449947700Y-133651200D03*
X257560000Y-76648000D03*
X320046500Y-79126400D03*
X510000000Y-39500000D03*
X537443100Y-95782700D03*
X255095900Y-62394600D03*
X536953900Y-107144400D03*
X517385900Y-98728600D03*
X521250000Y-41000000D03*
X489915700Y-106944500D03*
X519202200Y-103855900D03*
%TO.N,/FMC_D10*%
X474818100Y-99970800D03*
X474932000Y-75539100D03*
%TO.N,/FMC_D6*%
X474710700Y-64158400D03*
X475629900Y-98113800D03*
%TO.N,Net-(J5-Pin_1)*%
X544259000Y-108392100D03*
%TO.N,Net-(J6-Pin_1)*%
X543227700Y-114007900D03*
%TO.N,Net-(J11-Pin_1)*%
X539806900Y-132438000D03*
%TO.N,/FMC_D7*%
X475815300Y-75539100D03*
%TO.N,/FMC_D9*%
X410726100Y-96878500D03*
%TO.N,/FMC_D4*%
X481479000Y-61777600D03*
%TO.N,/FMC_D5*%
X479106500Y-62549800D03*
%TO.N,/FMC_D13*%
X403249500Y-82470400D03*
X481789000Y-84083200D03*
%TO.N,/FMC_D8*%
X411478400Y-100892500D03*
%TO.N,/FMC_D12*%
X407748200Y-101432000D03*
%TO.N,/APM/APM_I2C1_SCL*%
X282961400Y-93070900D03*
X325042700Y-91518400D03*
%TO.N,ACM_VDD*%
X387850000Y-173400000D03*
X394989500Y-111917400D03*
X376600000Y-171900000D03*
%TO.N,/APM/APM_I2C1_SDA*%
X322260100Y-99238000D03*
%TO.N,Net-(U14-~{CS})*%
X387091500Y-122780600D03*
X396713100Y-125162200D03*
%TO.N,/DSM/DSM_I2C1_SDA*%
X444951500Y-100324900D03*
%TO.N,/DSM/DSM_I2C1_SCL*%
X416010400Y-37478100D03*
%TO.N,/TDM/TDM_I2C1_SCL*%
X383086500Y-131172800D03*
X543016000Y-110474400D03*
X384079300Y-126872900D03*
X539533600Y-130256100D03*
X381876100Y-38504400D03*
X542678900Y-123190300D03*
%TO.N,/TDM/TDM_I2C1_SDA*%
X539542300Y-108867200D03*
X382497400Y-136996600D03*
X539617700Y-122926300D03*
X537925600Y-98953600D03*
X539524800Y-135811500D03*
X375004700Y-32105800D03*
X538462800Y-129439000D03*
X539516100Y-116029700D03*
X522392600Y-108685100D03*
D35*
%TO.N,/DAC_R*%
X414863400Y-75129200D03*
%TO.N,/DAC_L*%
X304384400Y-56820800D03*
D34*
%TO.N,/APM/APM_USB_D+*%
X325171200Y-180651700D03*
%TO.N,/APM/APM_USB_D-*%
X316874700Y-175784000D03*
%TO.N,/DSM/DSM_USB_D-*%
X450250000Y-175784000D03*
%TO.N,/DSM/DSM_USB_D+*%
X445625300Y-175784000D03*
%TO.N,/TDM/7SDD_VDD*%
X547955800Y-141209800D03*
X539284300Y-141086400D03*
%TO.N,/DSM/DSM_LED_OK*%
X479924900Y-153478400D03*
X417161200Y-155956800D03*
%TO.N,/DSM/DSM_LED_WARN*%
X477426800Y-151000000D03*
X417458000Y-153254800D03*
%TO.N,/DSM/DSM_LED_FAIL*%
X422777600Y-145133200D03*
X423071300Y-78448500D03*
%TO.N,/TDM/TDM_LED_OK*%
X497170000Y-54342400D03*
X490713500Y-95782700D03*
%TO.N,/TDM/TDM_LED_WARN*%
X487419200Y-101432000D03*
X489631600Y-80269400D03*
%TO.N,/TDM/TDM_LED_FAIL*%
X553209700Y-105892000D03*
X490666800Y-107411200D03*
%TO.N,/TDM/APM_VDD*%
X539654500Y-134128700D03*
X548235000Y-134035000D03*
%TO.N,/APM/APM_LED_OK*%
X345027500Y-151000000D03*
X287161100Y-156088500D03*
%TO.N,/APM/APM_LED_WARN*%
X342504100Y-150974700D03*
X287161100Y-151000000D03*
%TO.N,/APM/APM_LED_FAIL*%
X289295900Y-145410300D03*
X342844900Y-144998600D03*
%TO.N,UUM_3v3*%
X241943100Y-98990700D03*
X218200000Y-95200000D03*
X218200000Y-103800000D03*
%TO.N,/UUM/UUM_SPI_SEL*%
X249500000Y-69500000D03*
%TO.N,/UUM/UUM_LED_OK*%
X192643400Y-106030500D03*
%TO.N,/UUM/UUM_LED_WARN*%
X190145300Y-103910400D03*
%TO.N,/UUM/UUM_LED_FAIL*%
X193513400Y-98118100D03*
%TO.N,/APM_CAN_RD*%
X347855900Y-113824000D03*
%TO.N,/APM_CAN_TD*%
X346193200Y-116593900D03*
%TO.N,/IRQ0*%
X285539600Y-99903500D03*
%TO.N,/APM/7SDD_CMD_RX*%
X274649450Y-151649450D03*
%TO.N,/ISR0*%
X414715900Y-104346400D03*
%TO.N,/APM/7SDD_CMD_TX*%
X225118700Y-116302400D03*
%TO.N,/UUM/UUM_SPI1_SCLK*%
X227400000Y-106000000D03*
X241500000Y-50500000D03*
X227565000Y-95165000D03*
%TO.N,/UUM/UUM_SPI1_MISO*%
X248776991Y-53223008D03*
X244868103Y-101400000D03*
%TO.N,/UUM/UUM_SPI1_MOSI*%
X227153900Y-56820800D03*
X218614200Y-88366800D03*
%TO.N,/UUM/UUM_SPI2_CS*%
X226200000Y-92200000D03*
X230114900Y-64256000D03*
%TO.N,/UUM_CAN_RD*%
X265088300Y-141086400D03*
%TO.N,/UUM_CAN_TD*%
X267996600Y-125815600D03*
%TO.N,/UUM/UUM_SPI1_CS*%
X232613000Y-66734400D03*
X225795000Y-104005000D03*
%TO.N,Net-(U36-B)*%
X201575800Y-150960100D03*
%TO.N,Net-(U36-C)*%
X196872700Y-150659300D03*
%TO.N,Net-(U36-G)*%
X207700000Y-145200000D03*
X189990200Y-141641800D03*
X207100000Y-142700000D03*
%TO.N,Net-(U36-DP)*%
X214637199Y-144962801D03*
X214637199Y-142800000D03*
%TO.N,Net-(U36-D)*%
X192108000Y-150318700D03*
%TO.N,Net-(U36-F)*%
X194246200Y-151000000D03*
%TO.N,/TDM_CAN_RD*%
X549097200Y-133217000D03*
%TO.N,/TDM_CAN_TD*%
X514479600Y-54692900D03*
%TO.N,/DSM_CAN_RD*%
X500780800Y-39968500D03*
%TO.N,/DSM_CAN_TD*%
X479971600Y-126428600D03*
%TO.N,Net-(U2-A)*%
X208747000Y-149068500D03*
%TO.N,5V_7SDD*%
X544515400Y-142543100D03*
X193750000Y-176600000D03*
X195800000Y-144800000D03*
%TO.N,Net-(U18-DP)*%
X222515800Y-165870400D03*
%TO.N,Net-(U21-1Y)*%
X223400000Y-102400000D03*
X216045000Y-102845000D03*
%TO.N,Net-(U21-4Y)*%
X227400000Y-108621000D03*
X216200000Y-104200000D03*
%TO.N,Net-(U24-1Y)*%
X215856700Y-92236300D03*
X223529400Y-92938900D03*
%TO.N,UUM_VDD*%
X228400000Y-40644900D03*
X217150000Y-39144900D03*
X497411700Y-116302400D03*
X232511500Y-106564800D03*
X231565500Y-98582200D03*
X422790500Y-113082400D03*
X235263600Y-101021400D03*
X414715600Y-113628800D03*
X192511400Y-93591900D03*
%TO.N,/ACM_DBG_RX*%
X369100000Y-166800000D03*
X369250000Y-176550000D03*
%TO.N,/TDM_DBG_RX*%
X543750000Y-42500000D03*
X528400000Y-46400000D03*
%TO.N,/APM_DBG_RX*%
X317650000Y-36250000D03*
X317800000Y-46000000D03*
%TO.N,/DSM_DBG_RX*%
X452500000Y-46000000D03*
X452350000Y-36250000D03*
%TO.N,/UUM_DBG_RX*%
X251000000Y-42250000D03*
X230150000Y-46394900D03*
%TO.N,/ACM_DBG_TX*%
X374627300Y-171483200D03*
X374350000Y-168550000D03*
X372506600Y-57442900D03*
%TO.N,/APM_DBG_TX*%
X312601100Y-41305600D03*
X312550000Y-44250000D03*
%TO.N,/DSM_DBG_TX*%
X447250000Y-44250000D03*
X447449600Y-41305600D03*
%TO.N,/TDM/UUM_VDD*%
X539533600Y-128694400D03*
X544506700Y-126663700D03*
%TO.N,/TDM_DBG_TX*%
X528600000Y-41200000D03*
X528200000Y-45200000D03*
%TO.N,Net-(U9A-PC1{slash}PB9)*%
X496591300Y-61777600D03*
%TD*%
D36*
%TO.N,APM_VDD*%
X487640600Y-136194900D02*
X492662700Y-131172800D01*
X492662700Y-131172800D02*
X487640600Y-136194900D01*
X264286600Y-140754300D02*
X264286600Y-141418500D01*
X264756200Y-141888100D02*
X286359400Y-141888100D01*
X492662700Y-131172800D02*
X487640600Y-136194900D01*
X287161100Y-141086400D02*
X287218200Y-141029300D01*
X287218200Y-141029300D02*
X313259500Y-141029300D01*
X264286600Y-141418500D02*
X264756200Y-141888100D01*
X487640600Y-136194900D02*
X487600000Y-136194900D01*
X286359400Y-141888100D02*
X287161100Y-141086400D01*
X268846000Y-136194900D02*
X264286600Y-140754300D01*
X487600000Y-136194900D02*
X268846000Y-136194900D01*
D37*
%TO.N,/ACM_CMD_TX*%
X353025200Y-32520400D02*
X355019900Y-34515200D01*
X282795700Y-36038000D02*
X286631100Y-32202600D01*
X353025200Y-32520400D02*
X355019900Y-34515200D01*
X352068600Y-32202600D02*
X352386500Y-32520500D01*
X281740000Y-36170000D02*
X282795700Y-36170000D01*
X282795700Y-36170000D02*
X282795700Y-36038000D01*
X352386500Y-32520500D02*
X353025100Y-32520500D01*
X286631100Y-32202600D02*
X352068600Y-32202600D01*
X355019900Y-34515200D02*
X353025200Y-32520400D01*
X353025100Y-32520500D02*
X353025200Y-32520400D01*
%TO.N,/FMC_NBL0*%
X418816900Y-113784100D02*
X478744100Y-113784100D01*
X417730000Y-112207300D02*
X417730000Y-112697200D01*
X369690000Y-103640000D02*
X373481700Y-107431700D01*
X417730000Y-112697200D02*
X418816900Y-113784100D01*
X412088500Y-107431700D02*
X415667500Y-111010700D01*
X415667500Y-111010700D02*
X416533400Y-111010700D01*
X478744100Y-113784100D02*
X479960000Y-115000000D01*
X416533400Y-111010700D02*
X417730000Y-112207300D01*
X373481700Y-107431700D02*
X412088500Y-107431700D01*
%TO.N,/ACM/ACM_SPI_SCLK*%
X374568300Y-125799300D02*
X400307500Y-125799300D01*
X372506600Y-123737600D02*
X374568300Y-125799300D01*
X400307500Y-125799300D02*
X400538400Y-125568400D01*
%TO.N,/ACM/ACM_SPI_CS*%
X369690000Y-47760000D02*
X370841700Y-47760000D01*
X370841700Y-47760000D02*
X372229900Y-49148200D01*
X372229900Y-49148200D02*
X395044300Y-49148200D01*
%TO.N,/FMC_CLK*%
X369690000Y-90940000D02*
X373480000Y-87150000D01*
X417730000Y-85770000D02*
X419000000Y-84500000D01*
X408355600Y-87150000D02*
X409735600Y-85770000D01*
X373480000Y-87150000D02*
X408355600Y-87150000D01*
X409735600Y-85770000D02*
X417730000Y-85770000D01*
%TO.N,/FMC_NOE*%
X374199100Y-84500000D02*
X416460000Y-84500000D01*
X372237600Y-86461500D02*
X374199100Y-84500000D01*
%TO.N,/ACM/ACM_SPI_MISO*%
X369690000Y-55380000D02*
X370985800Y-56675800D01*
X370985800Y-56675800D02*
X395044300Y-56675800D01*
%TO.N,/FMC_NE*%
X369690000Y-98560000D02*
X370960000Y-97290000D01*
X477715200Y-95892600D02*
X478531600Y-95076200D01*
X405978900Y-95892600D02*
X477715200Y-95892600D01*
X370960000Y-97290000D02*
X404581500Y-97290000D01*
X404581500Y-97290000D02*
X405978900Y-95892600D01*
X478531600Y-95076200D02*
X478531600Y-94026400D01*
%TO.N,/ACM_CMD_RX*%
X286884600Y-53044400D02*
X286884600Y-52918400D01*
X302098000Y-63000000D02*
X294206300Y-55108300D01*
X360690000Y-63000000D02*
X302098000Y-63000000D01*
X294206300Y-55108300D02*
X288948500Y-55108300D01*
X288948500Y-55108300D02*
X286884600Y-53044400D01*
%TO.N,/FMC_NL*%
X374402900Y-61640000D02*
X374265300Y-61777600D01*
X416460000Y-61640000D02*
X374402900Y-61640000D01*
%TO.N,/FMC_NWE*%
X369690000Y-93480000D02*
X373610700Y-89559300D01*
X373610700Y-89559300D02*
X413940700Y-89559300D01*
X413940700Y-89559300D02*
X416460000Y-87040000D01*
%TO.N,/FMC_NBL1*%
X416195300Y-112440000D02*
X416460000Y-112440000D01*
X414071700Y-110316400D02*
X416195300Y-112440000D01*
X369690000Y-106180000D02*
X373826400Y-110316400D01*
X373826400Y-110316400D02*
X414071700Y-110316400D01*
%TO.N,/FMC_D1*%
X479960000Y-94603900D02*
X478583300Y-93227200D01*
X478583300Y-93227200D02*
X414145400Y-93227200D01*
X479960000Y-94680000D02*
X479960000Y-94603900D01*
%TO.N,/FMC_D11*%
X410075000Y-98856600D02*
X413820100Y-98856600D01*
X445520200Y-100607100D02*
X467434400Y-100607100D01*
X445200700Y-100926600D02*
X445520200Y-100607100D01*
X413820100Y-98856600D02*
X415890100Y-100926600D01*
X415890100Y-100926600D02*
X445200700Y-100926600D01*
%TO.N,Net-(J15-Pin_1)*%
X557555000Y-140920000D02*
X556828300Y-140920000D01*
X540690100Y-139154600D02*
X555062900Y-139154600D01*
X555062900Y-139154600D02*
X556828300Y-140920000D01*
D36*
%TO.N,DSM_VDD*%
X428910000Y-55290000D02*
X431200000Y-53000000D01*
X422638500Y-127230300D02*
X512129700Y-127230300D01*
X419000000Y-56560000D02*
X420270000Y-55290000D01*
X422468600Y-127060400D02*
X422638500Y-127230300D01*
X422305600Y-173305600D02*
X421000000Y-172000000D01*
X442453400Y-173305600D02*
X422305600Y-173305600D01*
X422272800Y-55290000D02*
X428910000Y-55290000D01*
X512129700Y-127230300D02*
X514820000Y-124540000D01*
X420270000Y-55290000D02*
X422272800Y-55290000D01*
D37*
%TO.N,/FMC_D15*%
X477420000Y-117540000D02*
X476182400Y-116302400D01*
X476182400Y-116302400D02*
X407471000Y-116302400D01*
%TO.N,/FMC_D0*%
X428962900Y-47720000D02*
X432468900Y-51226000D01*
X432468900Y-51226000D02*
X470161100Y-51226000D01*
X402000000Y-47720000D02*
X428962900Y-47720000D01*
D36*
%TO.N,TDM_VDD*%
X490999000Y-106609500D02*
X490250700Y-106609500D01*
X245700800Y-62394600D02*
X242605400Y-59299200D01*
X255095900Y-62394600D02*
X245700800Y-62394600D01*
X516281100Y-106777000D02*
X491166500Y-106777000D01*
X490250700Y-106609500D02*
X489915700Y-106944500D01*
X379438400Y-133651200D02*
X376960000Y-131172800D01*
X519202200Y-103855900D02*
X516281100Y-106777000D01*
X449947700Y-133651200D02*
X379438400Y-133651200D01*
X491166500Y-106777000D02*
X490999000Y-106609500D01*
X489081200Y-106110000D02*
X489915700Y-106944500D01*
X456000000Y-106110000D02*
X489081200Y-106110000D01*
X257560000Y-76648000D02*
X257748000Y-76460000D01*
X257748000Y-76460000D02*
X275865400Y-76460000D01*
X275865400Y-76460000D02*
X277485300Y-78079900D01*
X277485300Y-78079900D02*
X319000000Y-78079900D01*
X319000000Y-78079900D02*
X320046500Y-79126400D01*
X376960000Y-131172800D02*
X327169700Y-131172800D01*
D37*
%TO.N,/FMC_D10*%
X472629300Y-73120000D02*
X474932000Y-75422700D01*
X474932000Y-75422700D02*
X474932000Y-75539100D01*
X474932000Y-75422700D02*
X474932000Y-75539100D01*
X402000000Y-73120000D02*
X472629300Y-73120000D01*
X474932000Y-75539100D02*
X474932000Y-75422700D01*
%TO.N,/FMC_D6*%
X475791800Y-98275700D02*
X475629900Y-98113800D01*
X475629900Y-98113800D02*
X475791800Y-98275700D01*
X478475700Y-98275700D02*
X479960000Y-99760000D01*
X475629900Y-98113800D02*
X475791800Y-98275700D01*
X475791800Y-98275700D02*
X478475700Y-98275700D01*
X473512300Y-62960000D02*
X474710700Y-64158400D01*
X473512300Y-62960000D02*
X402000000Y-62960000D01*
%TO.N,Net-(J5-Pin_1)*%
X556495400Y-108392100D02*
X544259000Y-108392100D01*
X557555000Y-108725000D02*
X556828300Y-108725000D01*
X556828300Y-108725000D02*
X556495400Y-108392100D01*
%TO.N,Net-(J6-Pin_1)*%
X557555000Y-115100000D02*
X544319800Y-115100000D01*
X544319800Y-115100000D02*
X543227700Y-114007900D01*
%TO.N,Net-(J11-Pin_1)*%
X557555000Y-134225000D02*
X556828300Y-134225000D01*
X555041300Y-132438000D02*
X556828300Y-134225000D01*
X539806900Y-132438000D02*
X555041300Y-132438000D01*
%TO.N,/FMC_D7*%
X407030000Y-70530000D02*
X472580900Y-70530000D01*
X472580900Y-70530000D02*
X475815300Y-73764400D01*
X402000000Y-65500000D02*
X407030000Y-70530000D01*
X475815300Y-73764400D02*
X475815300Y-75539100D01*
%TO.N,/FMC_D9*%
X412117100Y-98269500D02*
X410726100Y-96878500D01*
X473777300Y-98269500D02*
X412117100Y-98269500D01*
X410857900Y-97010300D02*
X410726100Y-96878500D01*
X410726100Y-96878500D02*
X410857900Y-97010300D01*
X474826800Y-97220000D02*
X473777300Y-98269500D01*
X477420000Y-97220000D02*
X474826800Y-97220000D01*
%TO.N,/FMC_D4*%
X481479000Y-61662200D02*
X481479000Y-61777600D01*
X466071000Y-57880000D02*
X469381400Y-61190400D01*
X476231600Y-61190400D02*
X476831900Y-60590100D01*
X402000000Y-57880000D02*
X466071000Y-57880000D01*
X469381400Y-61190400D02*
X476231600Y-61190400D01*
X476831900Y-60590100D02*
X480406900Y-60590100D01*
X480406900Y-60590100D02*
X481479000Y-61662200D01*
%TO.N,/FMC_D5*%
X467643900Y-62265200D02*
X465798700Y-60420000D01*
X465798700Y-60420000D02*
X402000000Y-60420000D01*
X478916400Y-62739900D02*
X476508200Y-62739900D01*
X476033500Y-62265200D02*
X467643900Y-62265200D01*
X476508200Y-62739900D02*
X476033500Y-62265200D01*
X479106500Y-62549800D02*
X478916400Y-62739900D01*
%TO.N,/FMC_D13*%
X403249500Y-82470400D02*
X404029100Y-83250000D01*
X480955800Y-83250000D02*
X481789000Y-84083200D01*
X404029100Y-83250000D02*
X480955800Y-83250000D01*
%TO.N,/FMC_D8*%
X411478400Y-100892500D02*
X411478400Y-100894100D01*
X478690000Y-103570000D02*
X479960000Y-104840000D01*
X413579500Y-100892500D02*
X416022700Y-103335700D01*
X445557200Y-101208800D02*
X477848400Y-101208800D01*
X416022700Y-103335700D02*
X427057300Y-103335700D01*
X411478400Y-100892500D02*
X413579500Y-100892500D01*
X411478400Y-100894100D02*
X411478400Y-100892500D01*
X478690000Y-102050400D02*
X478690000Y-103570000D01*
X427057300Y-103335700D02*
X429014700Y-101378300D01*
X429014700Y-101378300D02*
X445387700Y-101378300D01*
X477848400Y-101208800D02*
X478690000Y-102050400D01*
X445387700Y-101378300D02*
X445557200Y-101208800D01*
%TO.N,/FMC_D12*%
X476197300Y-103522700D02*
X477420000Y-102300000D01*
X427057300Y-105875700D02*
X429410300Y-103522700D01*
X414654800Y-103393700D02*
X415404300Y-104143200D01*
X415404300Y-104143200D02*
X415404300Y-105257300D01*
X407748200Y-101432000D02*
X409709900Y-103393700D01*
X409709900Y-103393700D02*
X414654800Y-103393700D01*
X415404300Y-105257300D02*
X416022700Y-105875700D01*
X416022700Y-105875700D02*
X427057300Y-105875700D01*
X429410300Y-103522700D02*
X476197300Y-103522700D01*
%TO.N,/APM/APM_I2C1_SCL*%
X292337400Y-93105700D02*
X293924700Y-91518400D01*
X282961400Y-93070900D02*
X282996200Y-93105700D01*
X293924700Y-91518400D02*
X325042700Y-91518400D01*
X282996200Y-93105700D02*
X292337400Y-93105700D01*
%TO.N,/APM/APM_I2C1_SDA*%
X282795700Y-103265700D02*
X318232400Y-103265700D01*
X281740000Y-102210000D02*
X282795700Y-103265700D01*
X318232400Y-103265700D02*
X322260100Y-99238000D01*
%TO.N,Net-(U14-~{CS})*%
X396713100Y-125162200D02*
X389473100Y-125162200D01*
X389473100Y-125162200D02*
X387091500Y-122780600D01*
%TO.N,/DSM/DSM_I2C1_SCL*%
X415901000Y-37478100D02*
X416010400Y-37478100D01*
X441274500Y-37295700D02*
X416192800Y-37295700D01*
X463550000Y-35047000D02*
X462549200Y-36047800D01*
X416192800Y-37295700D02*
X416010400Y-37478100D01*
X462549200Y-36047800D02*
X454003200Y-36047800D01*
X454003200Y-36047800D02*
X453583100Y-35627700D01*
X463550000Y-34975000D02*
X463550000Y-35047000D01*
X453583100Y-35627700D02*
X442942500Y-35627700D01*
X416010400Y-37478100D02*
X415901000Y-37478100D01*
X442942500Y-35627700D02*
X441274500Y-37295700D01*
%TO.N,/TDM/TDM_I2C1_SCL*%
X353250900Y-31726300D02*
X360029000Y-38504400D01*
X247050000Y-34732200D02*
X250055900Y-31726300D01*
X247050000Y-34759900D02*
X247050000Y-34732200D01*
X250055900Y-31726300D02*
X353250900Y-31726300D01*
X497488300Y-128754300D02*
X385960700Y-128754300D01*
X385960700Y-128754300D02*
X384079300Y-126872900D01*
X498990100Y-130256100D02*
X497488300Y-128754300D01*
X539533600Y-130256100D02*
X498990100Y-130256100D01*
X360029000Y-38504400D02*
X381876100Y-38504400D01*
%TO.N,/TDM/TDM_I2C1_SDA*%
X375004700Y-32105800D02*
X374173500Y-31274600D01*
X492901100Y-135720200D02*
X503161100Y-135720200D01*
X522392600Y-108685100D02*
X522906300Y-109198800D01*
X382497400Y-136996600D02*
X491624700Y-136996600D01*
X374173500Y-31274600D02*
X249455900Y-31274600D01*
X246050000Y-34680500D02*
X246050000Y-34759900D01*
X522906300Y-109198800D02*
X539210700Y-109198800D01*
X503161100Y-135720200D02*
X503361400Y-135920500D01*
X539415800Y-135920500D02*
X539524800Y-135811500D01*
X249455900Y-31274600D02*
X246050000Y-34680500D01*
X491624700Y-136996600D02*
X492901100Y-135720200D01*
X539210700Y-109198800D02*
X539542300Y-108867200D01*
X503361400Y-135920500D02*
X539415800Y-135920500D01*
D38*
%TO.N,/DAC_R*%
X397780400Y-74429900D02*
X353701600Y-74429900D01*
X397802000Y-74408300D02*
X397780400Y-74429900D01*
X352660900Y-75470600D02*
X285480600Y-75470600D01*
X414142500Y-74408300D02*
X397802000Y-74408300D01*
X353701600Y-74429900D02*
X352660900Y-75470600D01*
X414863400Y-75129200D02*
X414142500Y-74408300D01*
X285480600Y-75470600D02*
X284280000Y-74270000D01*
%TO.N,/DAC_L*%
X356330900Y-45194800D02*
X353905700Y-47620000D01*
X477420000Y-48960000D02*
X477146000Y-48686000D01*
X340434000Y-51156000D02*
X310049200Y-51156000D01*
X310049200Y-51156000D02*
X304384400Y-56820800D01*
X343970000Y-47620000D02*
X342700000Y-48890000D01*
X353905700Y-47620000D02*
X343970000Y-47620000D01*
X442028400Y-48686000D02*
X438537200Y-45194800D01*
X477146000Y-48686000D02*
X442028400Y-48686000D01*
X438537200Y-45194800D02*
X356330900Y-45194800D01*
X342700000Y-48890000D02*
X340434000Y-51156000D01*
D36*
%TO.N,/TDM/7SDD_VDD*%
X539407700Y-141209800D02*
X539284300Y-141086400D01*
X547955800Y-141209800D02*
X539407700Y-141209800D01*
D37*
%TO.N,/DSM/DSM_LED_OK*%
X419639600Y-153478400D02*
X479924900Y-153478400D01*
X417161200Y-155956800D02*
X419639600Y-153478400D01*
%TO.N,/DSM/DSM_LED_WARN*%
X417458000Y-153254800D02*
X419712800Y-151000000D01*
X419712800Y-151000000D02*
X477426800Y-151000000D01*
%TO.N,/DSM/DSM_LED_FAIL*%
X474361600Y-75819500D02*
X474682900Y-76140800D01*
X476064500Y-76140800D02*
X476385800Y-75819500D01*
X474682900Y-76140800D02*
X476064500Y-76140800D01*
X423071300Y-78448500D02*
X423574800Y-77945000D01*
X478879500Y-75819500D02*
X479960000Y-76900000D01*
X476385800Y-75819500D02*
X478879500Y-75819500D01*
X436998800Y-75819500D02*
X474361600Y-75819500D01*
X434873300Y-77945000D02*
X436998800Y-75819500D01*
X423574800Y-77945000D02*
X434873300Y-77945000D01*
%TO.N,/TDM/TDM_LED_OK*%
X552320000Y-50010000D02*
X552195000Y-49885000D01*
X518777500Y-49885000D02*
X515008300Y-53654200D01*
X515008300Y-53654200D02*
X497858200Y-53654200D01*
X497858200Y-53654200D02*
X497170000Y-54342400D01*
X552195000Y-49885000D02*
X518777500Y-49885000D01*
%TO.N,/TDM/TDM_LED_WARN*%
X553590000Y-79220000D02*
X490681000Y-79220000D01*
X490681000Y-79220000D02*
X489631600Y-80269400D01*
X554860000Y-77950000D02*
X553590000Y-79220000D01*
%TO.N,/TDM/TDM_LED_FAIL*%
X545908300Y-105892000D02*
X553209700Y-105892000D01*
X490666800Y-107411200D02*
X492906200Y-109650600D01*
X492906200Y-109650600D02*
X542149700Y-109650600D01*
X542149700Y-109650600D02*
X545908300Y-105892000D01*
D36*
%TO.N,/TDM/APM_VDD*%
X548235000Y-134035000D02*
X539748200Y-134035000D01*
X539748200Y-134035000D02*
X539654500Y-134128700D01*
D37*
%TO.N,/APM/APM_LED_OK*%
X339939000Y-156088500D02*
X287161100Y-156088500D01*
X345027500Y-151000000D02*
X339939000Y-156088500D01*
%TO.N,/APM/APM_LED_WARN*%
X341681900Y-151796900D02*
X342504100Y-150974700D01*
X287161100Y-151000000D02*
X287958000Y-151796900D01*
X287958000Y-151796900D02*
X341681900Y-151796900D01*
%TO.N,/APM/APM_LED_FAIL*%
X289295900Y-145410300D02*
X289707600Y-144998600D01*
X289707600Y-144998600D02*
X342844900Y-144998600D01*
%TO.N,UUM_3v3*%
X239292400Y-96340000D02*
X219340000Y-96340000D01*
X241943100Y-98990700D02*
X239292400Y-96340000D01*
X219340000Y-96340000D02*
X218200000Y-95200000D01*
%TO.N,/UUM/UUM_SPI_SEL*%
X249500000Y-69500000D02*
X248937800Y-68937800D01*
X199947800Y-68937800D02*
X198580000Y-67570000D01*
X248937800Y-68937800D02*
X199947800Y-68937800D01*
%TO.N,/APM_CAN_RD*%
X350948100Y-116916200D02*
X409107400Y-116916200D01*
X347855900Y-113824000D02*
X350948100Y-116916200D01*
X492990200Y-118599800D02*
X494250000Y-117340000D01*
X409107400Y-116916200D02*
X410791000Y-118599800D01*
X410791000Y-118599800D02*
X492990200Y-118599800D01*
%TO.N,/APM_CAN_TD*%
X494250000Y-124960000D02*
X490620000Y-121330000D01*
X490620000Y-121330000D02*
X350929300Y-121330000D01*
X350929300Y-121330000D02*
X346193200Y-116593900D01*
%TO.N,/IRQ0*%
X283224200Y-94184500D02*
X282574000Y-93534300D01*
X294448700Y-93534300D02*
X292337300Y-95645700D01*
X283842700Y-100725700D02*
X284717400Y-100725700D01*
X280684300Y-94152700D02*
X280684300Y-97567300D01*
X353297400Y-93534300D02*
X294448700Y-93534300D01*
X283842700Y-95645700D02*
X283224300Y-95027300D01*
X354423100Y-94660000D02*
X353297400Y-93534300D01*
X281302700Y-98185700D02*
X281778000Y-98185700D01*
X282574000Y-93534300D02*
X281302700Y-93534300D01*
X283224300Y-95027300D02*
X283224300Y-94184500D01*
X283224300Y-99632000D02*
X283224300Y-100107300D01*
X281302700Y-93534300D02*
X280684300Y-94152700D01*
X283224300Y-94184500D02*
X283224200Y-94184500D01*
X292337300Y-95645700D02*
X283842700Y-95645700D01*
X281778000Y-98185700D02*
X283224300Y-99632000D01*
X284717400Y-100725700D02*
X285539600Y-99903500D01*
X416460000Y-94660000D02*
X354423100Y-94660000D01*
X280684300Y-97567300D02*
X281302700Y-98185700D01*
X283224300Y-100107300D02*
X283842700Y-100725700D01*
%TO.N,/APM/7SDD_CMD_RX*%
X273950600Y-152348300D02*
X226231700Y-152348300D01*
X226231700Y-152348300D02*
X225080000Y-153500000D01*
X274649450Y-151649450D02*
X273950600Y-152348300D01*
%TO.N,/ISR0*%
X348736000Y-102370000D02*
X404475100Y-102370000D01*
X283842700Y-98185700D02*
X322201500Y-98185700D01*
X404475100Y-102370000D02*
X406451500Y-104346400D01*
X281740000Y-94590000D02*
X283224300Y-96074300D01*
X347305800Y-100939800D02*
X348736000Y-102370000D01*
X283224300Y-96074300D02*
X283224300Y-97567300D01*
X322201500Y-98185700D02*
X324955600Y-100939800D01*
X324955600Y-100939800D02*
X347305800Y-100939800D01*
X406451500Y-104346400D02*
X414715900Y-104346400D01*
X283224300Y-97567300D02*
X283842700Y-98185700D01*
%TO.N,/APM/7SDD_CMD_TX*%
X342700000Y-112390000D02*
X338787600Y-116302400D01*
X338787600Y-116302400D02*
X225118700Y-116302400D01*
%TO.N,/UUM/UUM_SPI1_SCLK*%
X241500000Y-50500000D02*
X242614400Y-49385600D01*
X242614400Y-49385600D02*
X259135600Y-49385600D01*
X259135600Y-49385600D02*
X259540000Y-49790000D01*
%TO.N,/UUM/UUM_SPI1_MISO*%
X259290000Y-52080000D02*
X259540000Y-52330000D01*
X249920000Y-52080000D02*
X259290000Y-52080000D01*
X248776991Y-53223008D02*
X249920000Y-52080000D01*
%TO.N,/UUM/UUM_SPI1_MOSI*%
X227153900Y-56820800D02*
X229229700Y-54745000D01*
X229229700Y-54745000D02*
X259415000Y-54745000D01*
X259415000Y-54745000D02*
X259540000Y-54870000D01*
%TO.N,/UUM/UUM_SPI2_CS*%
X232830900Y-61540000D02*
X241738200Y-61540000D01*
X230114900Y-64256000D02*
X232830900Y-61540000D01*
X243296100Y-63097900D02*
X258932100Y-63097900D01*
X258932100Y-63097900D02*
X259540000Y-62490000D01*
X241738200Y-61540000D02*
X243296100Y-63097900D01*
%TO.N,/UUM_CAN_RD*%
X501860000Y-142040000D02*
X498216400Y-138396400D01*
X498216400Y-138396400D02*
X267778300Y-138396400D01*
X267778300Y-138396400D02*
X265088300Y-141086400D01*
%TO.N,/UUM_CAN_TD*%
X497136500Y-129696500D02*
X501860000Y-134420000D01*
X267996600Y-125815600D02*
X271877500Y-129696500D01*
X271877500Y-129696500D02*
X497136500Y-129696500D01*
%TO.N,/UUM/UUM_SPI1_CS*%
X258270000Y-66300000D02*
X233047400Y-66300000D01*
X233047400Y-66300000D02*
X232613000Y-66734400D01*
X259540000Y-65030000D02*
X258270000Y-66300000D01*
%TO.N,Net-(U36-B)*%
X204760000Y-153500000D02*
X204115700Y-153500000D01*
X204115700Y-153500000D02*
X201575800Y-150960100D01*
%TO.N,Net-(U36-C)*%
X204158400Y-150358400D02*
X197173600Y-150358400D01*
X197173600Y-150358400D02*
X196872700Y-150659300D01*
X207300000Y-153500000D02*
X204158400Y-150358400D01*
%TO.N,Net-(U36-G)*%
X217460000Y-152860000D02*
X217460000Y-153500000D01*
X206400000Y-141997000D02*
X190345400Y-141997000D01*
X209800000Y-145200000D02*
X217460000Y-152860000D01*
X206400000Y-142000000D02*
X207100000Y-142700000D01*
X190345400Y-141997000D02*
X189990200Y-141641800D01*
X207700000Y-145200000D02*
X209800000Y-145200000D01*
X217460000Y-153500000D02*
X217460000Y-153460000D01*
X206400000Y-141997000D02*
X206400000Y-142000000D01*
%TO.N,Net-(U36-DP)*%
X209183200Y-141478100D02*
X209231800Y-141526700D01*
X198660000Y-141526700D02*
X208262300Y-141526700D01*
X208310900Y-141478100D02*
X209183200Y-141478100D01*
X214600000Y-142762801D02*
X214637199Y-142800000D01*
X214637199Y-148137199D02*
X214637199Y-144962801D01*
X215250000Y-148750000D02*
X214637199Y-148137199D01*
X220000000Y-153500000D02*
X215250000Y-148750000D01*
X214326700Y-141526700D02*
X214600000Y-141800000D01*
X198660000Y-139963000D02*
X198660000Y-141526700D01*
X208262300Y-141526700D02*
X208310900Y-141478100D01*
X209231800Y-141526700D02*
X214326700Y-141526700D01*
X214600000Y-141800000D02*
X214600000Y-142762801D01*
%TO.N,Net-(U36-D)*%
X192520000Y-149906700D02*
X192108000Y-150318700D01*
X209840000Y-153500000D02*
X206246700Y-149906700D01*
X206246700Y-149906700D02*
X192520000Y-149906700D01*
%TO.N,Net-(U36-E)*%
X208282700Y-149455000D02*
X212327700Y-153500000D01*
X188500000Y-148063700D02*
X189891300Y-149455000D01*
X188500000Y-139963000D02*
X188500000Y-148063700D01*
X212327700Y-153500000D02*
X212380000Y-153500000D01*
X189891300Y-149455000D02*
X208282700Y-149455000D01*
%TO.N,/TDM_CAN_RD*%
X518763000Y-133217000D02*
X517360000Y-134620000D01*
X549097200Y-133217000D02*
X518763000Y-133217000D01*
%TO.N,/TDM_CAN_TD*%
X548706300Y-52300000D02*
X524627400Y-52300000D01*
X549888600Y-51117700D02*
X548706300Y-52300000D01*
X521375700Y-55551700D02*
X515338400Y-55551700D01*
X515338400Y-55551700D02*
X514479600Y-54692900D01*
X554860000Y-50010000D02*
X553752300Y-51117700D01*
X553752300Y-51117700D02*
X549888600Y-51117700D01*
X524627400Y-52300000D02*
X521375700Y-55551700D01*
%TO.N,/DSM_CAN_RD*%
X498662700Y-38779000D02*
X499852200Y-39968500D01*
X489487600Y-38779000D02*
X498662700Y-38779000D01*
X478491300Y-39871300D02*
X488395300Y-39871300D01*
X477420000Y-38800000D02*
X478491300Y-39871300D01*
X488395300Y-39871300D02*
X489487600Y-38779000D01*
X499852200Y-39968500D02*
X500780800Y-39968500D01*
%TO.N,/DSM_CAN_TD*%
X479971600Y-126428600D02*
X505467600Y-126428600D01*
X508615300Y-123280900D02*
X516100900Y-123280900D01*
X516100900Y-123280900D02*
X517360000Y-124540000D01*
X505467600Y-126428600D02*
X508615300Y-123280900D01*
D36*
%TO.N,5V_7SDD*%
X196949600Y-143650400D02*
X195800000Y-144800000D01*
X197200000Y-143650400D02*
X543408100Y-143650400D01*
X543408100Y-143650400D02*
X544515400Y-142543100D01*
X197200000Y-143650400D02*
X196949600Y-143650400D01*
D37*
%TO.N,Net-(U18-DP)*%
X212709600Y-165870400D02*
X209840000Y-168740000D01*
X222515800Y-165870400D02*
X212709600Y-165870400D01*
%TO.N,Net-(U21-1Y)*%
X216045000Y-102845000D02*
X217090000Y-101800000D01*
X223400000Y-102200000D02*
X223400000Y-102400000D01*
X217090000Y-101800000D02*
X223000000Y-101800000D01*
X223000000Y-101800000D02*
X223400000Y-102200000D01*
%TO.N,Net-(U21-4Y)*%
X227400000Y-108621000D02*
X227400000Y-108600000D01*
X227400000Y-108600000D02*
X226000000Y-107200000D01*
X223200000Y-106800000D02*
X223200000Y-106300000D01*
X223200000Y-106300000D02*
X223000000Y-106100000D01*
X226000000Y-107200000D02*
X223600000Y-107200000D01*
X223600000Y-107200000D02*
X223200000Y-106800000D01*
X223000000Y-106100000D02*
X218100000Y-106100000D01*
X218100000Y-106100000D02*
X216200000Y-104200000D01*
%TO.N,Net-(U24-1Y)*%
X223529400Y-92938900D02*
X216559300Y-92938900D01*
X216559300Y-92938900D02*
X215856700Y-92236300D01*
D36*
%TO.N,UUM_VDD*%
X238010700Y-111105700D02*
X412192500Y-111105700D01*
X192511400Y-93591900D02*
X197501700Y-98582200D01*
X424682900Y-111190000D02*
X492299300Y-111190000D01*
X233469800Y-106564800D02*
X238010700Y-111105700D01*
X232511500Y-106564800D02*
X233469800Y-106564800D01*
X412192500Y-111105700D02*
X414715600Y-113628800D01*
X492299300Y-111190000D02*
X497411700Y-116302400D01*
X197501700Y-98582200D02*
X231565500Y-98582200D01*
X422790500Y-113082400D02*
X424682900Y-111190000D01*
D37*
%TO.N,/APM_DBG_RX*%
X317150000Y-36750000D02*
X314300000Y-36750000D01*
X314300000Y-36750000D02*
X313800000Y-37250000D01*
X313800000Y-37250000D02*
X313800000Y-39250000D01*
X312900000Y-40150000D02*
X288050000Y-40150000D01*
X312925000Y-40125000D02*
X312900000Y-40150000D01*
X313800000Y-39250000D02*
X312925000Y-40125000D01*
X285465000Y-38750000D02*
X284320000Y-38750000D01*
X284250000Y-38750000D02*
X285465000Y-38750000D01*
X312925000Y-40125000D02*
X312900000Y-40150000D01*
X287887500Y-39987500D02*
X288050000Y-40150000D01*
X287887500Y-39957500D02*
X287970000Y-40040000D01*
X287887500Y-39957500D02*
X287887500Y-39987500D01*
X284320000Y-38750000D02*
X284280000Y-38710000D01*
X286680000Y-38750000D02*
X287887500Y-39957500D01*
X317650000Y-36250000D02*
X317150000Y-36750000D01*
X285465000Y-38750000D02*
X286680000Y-38750000D01*
%TO.N,/DSM_DBG_RX*%
X448500000Y-39250000D02*
X447625000Y-40125000D01*
X447625000Y-40125000D02*
X447600000Y-40150000D01*
X418980000Y-38810000D02*
X420195000Y-38810000D01*
X420195000Y-38810000D02*
X421410000Y-38810000D01*
X422587500Y-39987500D02*
X422750000Y-40150000D01*
X451850000Y-36750000D02*
X449000000Y-36750000D01*
X452350000Y-36250000D02*
X451850000Y-36750000D01*
X448500000Y-37250000D02*
X448500000Y-39250000D01*
X449000000Y-36750000D02*
X448500000Y-37250000D01*
X419030000Y-38810000D02*
X419000000Y-38780000D01*
X447600000Y-40150000D02*
X422750000Y-40150000D01*
X420195000Y-38810000D02*
X419030000Y-38810000D01*
X447625000Y-40125000D02*
X447600000Y-40150000D01*
X422587500Y-39987500D02*
X422700000Y-40100000D01*
X421410000Y-38810000D02*
X422587500Y-39987500D01*
%TO.N,/ACM_DBG_TX*%
X369690000Y-57920000D02*
X372029500Y-57920000D01*
X372029500Y-57920000D02*
X372506600Y-57442900D01*
%TO.N,/APM_DBG_TX*%
X285970000Y-41040000D02*
X286050000Y-41120000D01*
X299550000Y-41500000D02*
X299550000Y-43250000D01*
X312050000Y-43750000D02*
X312550000Y-44250000D01*
X282470000Y-40040000D02*
X284970000Y-40040000D01*
X281740000Y-39310000D02*
X282470000Y-40040000D01*
X300050000Y-43750000D02*
X312050000Y-43750000D01*
X299550000Y-43250000D02*
X300050000Y-43750000D01*
X286050000Y-41150000D02*
X299200000Y-41150000D01*
X284970000Y-40040000D02*
X285970000Y-41040000D01*
X286050000Y-41120000D02*
X286050000Y-41150000D01*
X299200000Y-41150000D02*
X299550000Y-41500000D01*
X281740000Y-38710000D02*
X281740000Y-39310000D01*
%TO.N,/DSM_DBG_TX*%
X446750000Y-43750000D02*
X447250000Y-44250000D01*
X434750000Y-43750000D02*
X446750000Y-43750000D01*
X416440000Y-39340000D02*
X417200000Y-40100000D01*
X416440000Y-38800000D02*
X416440000Y-38810000D01*
X434250000Y-41500000D02*
X434250000Y-43250000D01*
X420750000Y-41150000D02*
X433900000Y-41150000D01*
X433900000Y-41150000D02*
X434250000Y-41500000D01*
X419700000Y-40100000D02*
X420700000Y-41100000D01*
X417200000Y-40100000D02*
X419700000Y-40100000D01*
X416460000Y-38780000D02*
X416440000Y-38800000D01*
X416440000Y-38810000D02*
X416440000Y-39340000D01*
X420750000Y-41150000D02*
X420700000Y-41100000D01*
X434250000Y-43250000D02*
X434750000Y-43750000D01*
D36*
%TO.N,/TDM/UUM_VDD*%
X541564300Y-126663700D02*
X539533600Y-128694400D01*
X544506700Y-126663700D02*
X541564300Y-126663700D01*
D37*
%TO.N,Net-(U9A-PC1{slash}PB9)*%
X499437500Y-61274200D02*
X497094700Y-61274200D01*
X497094700Y-61274200D02*
X496591300Y-61777600D01*
X530113300Y-61600000D02*
X529061600Y-60548300D01*
X500163400Y-60548300D02*
X499437500Y-61274200D01*
X530940000Y-61600000D02*
X530113300Y-61600000D01*
X529061600Y-60548300D02*
X500163400Y-60548300D01*
%TO.N,Net-(U9A-PB0)*%
X358128800Y-81946900D02*
X356893900Y-80712000D01*
X446052300Y-78170000D02*
X443532300Y-80690000D01*
X483559400Y-76876700D02*
X482266100Y-78170000D01*
X404179100Y-80690000D02*
X402922200Y-81946900D01*
X493900000Y-77950000D02*
X492826700Y-76876700D01*
X492826700Y-76876700D02*
X483559400Y-76876700D01*
X356893900Y-80712000D02*
X314830000Y-80712000D01*
X443532300Y-80690000D02*
X404179100Y-80690000D01*
X402922200Y-81946900D02*
X358128800Y-81946900D01*
X482266100Y-78170000D02*
X446052300Y-78170000D01*
%TO.N,Net-(U9A-PA4)*%
X353566200Y-64317000D02*
X352661400Y-65221800D01*
X405453300Y-65450000D02*
X404320300Y-64317000D01*
X266621400Y-63925800D02*
X239692500Y-63925800D01*
X239692500Y-63925800D02*
X238366700Y-62600000D01*
X237540000Y-62600000D02*
X238366700Y-62600000D01*
X404320300Y-64317000D02*
X353566200Y-64317000D01*
X352661400Y-65221800D02*
X267917400Y-65221800D01*
X491133100Y-74299300D02*
X482283800Y-65450000D01*
X492789300Y-74299300D02*
X491133100Y-74299300D01*
X493900000Y-75410000D02*
X492789300Y-74299300D01*
X267917400Y-65221800D02*
X266621400Y-63925800D01*
X482283800Y-65450000D02*
X405453300Y-65450000D01*
%TO.N,Net-(U9A-PC0{slash}PB8)*%
X447682000Y-80782000D02*
X485089000Y-80782000D01*
X485089000Y-80782000D02*
X486067000Y-81760000D01*
X486067000Y-81760000D02*
X492630000Y-81760000D01*
X492630000Y-81760000D02*
X493900000Y-83030000D01*
%TD*%
M02*
