%TF.GenerationSoftware,KiCad,Pcbnew,10.0.3+dfsg-1*%
%TF.CreationDate,2026-07-11T14:12:39-07:00*%
%TF.ProjectId,APM,41504d2e-6b69-4636-9164-5f7063625858,rev?*%
%TF.SameCoordinates,Original*%
%TF.FileFunction,Soldermask,Bot*%
%TF.FilePolarity,Negative*%
%FSLAX46Y46*%
G04 Gerber Fmt 4.6, Leading zero omitted, Abs format (unit mm)*
G04 Created by KiCad (PCBNEW 10.0.3+dfsg-1) date 2026-07-11 14:12:39*
%MOMM*%
%LPD*%
G01*
G04 APERTURE LIST*
G04 Aperture macros list*
%AMRoundRect*
0 Rectangle with rounded corners*
0 $1 Rounding radius*
0 $2 $3 $4 $5 $6 $7 $8 $9 X,Y pos of 4 corners*
0 Add a 4 corners polygon primitive as box body*
4,1,4,$2,$3,$4,$5,$6,$7,$8,$9,$2,$3,0*
0 Add four circle primitives for the rounded corners*
1,1,$1+$1,$2,$3*
1,1,$1+$1,$4,$5*
1,1,$1+$1,$6,$7*
1,1,$1+$1,$8,$9*
0 Add four rect primitives between the rounded corners*
20,1,$1+$1,$2,$3,$4,$5,0*
20,1,$1+$1,$4,$5,$6,$7,0*
20,1,$1+$1,$6,$7,$8,$9,0*
20,1,$1+$1,$8,$9,$2,$3,0*%
G04 Aperture macros list end*
%ADD10R,1.700000X1.700000*%
%ADD11C,1.700000*%
%ADD12R,1.530000X1.530000*%
%ADD13C,1.530000*%
%ADD14RoundRect,0.250000X0.475000X-0.250000X0.475000X0.250000X-0.475000X0.250000X-0.475000X-0.250000X0*%
%ADD15RoundRect,0.375000X-0.625000X-0.375000X0.625000X-0.375000X0.625000X0.375000X-0.625000X0.375000X0*%
%ADD16RoundRect,0.500000X-0.500000X-1.400000X0.500000X-1.400000X0.500000X1.400000X-0.500000X1.400000X0*%
%ADD17O,2.200000X4.000000*%
%ADD18O,4.000000X2.200000*%
%ADD19R,2.200000X4.000000*%
%ADD20RoundRect,0.250000X-0.250000X-0.475000X0.250000X-0.475000X0.250000X0.475000X-0.250000X0.475000X0*%
%ADD21RoundRect,0.162500X0.650000X0.162500X-0.650000X0.162500X-0.650000X-0.162500X0.650000X-0.162500X0*%
%ADD22RoundRect,0.250000X0.550000X-1.050000X0.550000X1.050000X-0.550000X1.050000X-0.550000X-1.050000X0*%
%ADD23R,1.050000X1.500000*%
%ADD24O,1.050000X1.500000*%
%ADD25RoundRect,0.150000X0.825000X0.150000X-0.825000X0.150000X-0.825000X-0.150000X0.825000X-0.150000X0*%
%ADD26RoundRect,0.218750X-0.218750X-0.256250X0.218750X-0.256250X0.218750X0.256250X-0.218750X0.256250X0*%
%ADD27RoundRect,0.102000X-0.330000X0.115000X-0.330000X-0.115000X0.330000X-0.115000X0.330000X0.115000X0*%
%ADD28RoundRect,0.102000X-0.330000X0.175000X-0.330000X-0.175000X0.330000X-0.175000X0.330000X0.175000X0*%
%ADD29RoundRect,0.100000X0.100000X-0.130000X0.100000X0.130000X-0.100000X0.130000X-0.100000X-0.130000X0*%
%ADD30RoundRect,0.100000X-0.100000X0.130000X-0.100000X-0.130000X0.100000X-0.130000X0.100000X0.130000X0*%
%ADD31C,1.000000*%
%ADD32RoundRect,0.218750X0.256250X-0.218750X0.256250X0.218750X-0.256250X0.218750X-0.256250X-0.218750X0*%
%ADD33R,1.500000X1.500000*%
%ADD34RoundRect,0.218750X-0.256250X0.218750X-0.256250X-0.218750X0.256250X-0.218750X0.256250X0.218750X0*%
%ADD35RoundRect,0.250000X-0.550000X-0.500000X0.550000X-0.500000X0.550000X0.500000X-0.550000X0.500000X0*%
%ADD36C,1.600000*%
%ADD37C,3.000000*%
%ADD38RoundRect,0.100000X-0.130000X-0.100000X0.130000X-0.100000X0.130000X0.100000X-0.130000X0.100000X0*%
%ADD39R,1.300000X0.300000*%
%ADD40R,2.200000X1.800000*%
%ADD41RoundRect,0.150000X0.512500X0.150000X-0.512500X0.150000X-0.512500X-0.150000X0.512500X-0.150000X0*%
%ADD42R,1.750000X1.100000*%
%ADD43R,1.500000X1.000000*%
%ADD44O,1.100000X0.450000*%
%ADD45R,1.200000X1.025000*%
%ADD46RoundRect,0.250000X0.550000X0.550000X-0.550000X0.550000X-0.550000X-0.550000X0.550000X-0.550000X0*%
%ADD47RoundRect,0.250000X0.275000X0.250000X-0.275000X0.250000X-0.275000X-0.250000X0.275000X-0.250000X0*%
%ADD48RoundRect,0.250000X0.850000X0.275000X-0.850000X0.275000X-0.850000X-0.275000X0.850000X-0.275000X0*%
%ADD49RoundRect,0.250000X-0.475000X0.250000X-0.475000X-0.250000X0.475000X-0.250000X0.475000X0.250000X0*%
%ADD50RoundRect,0.250000X0.250000X0.475000X-0.250000X0.475000X-0.250000X-0.475000X0.250000X-0.475000X0*%
%ADD51RoundRect,0.101750X0.845250X0.305250X-0.845250X0.305250X-0.845250X-0.305250X0.845250X-0.305250X0*%
%ADD52RoundRect,0.250000X-0.275000X-0.250000X0.275000X-0.250000X0.275000X0.250000X-0.275000X0.250000X0*%
%ADD53RoundRect,0.250000X-0.850000X-0.275000X0.850000X-0.275000X0.850000X0.275000X-0.850000X0.275000X0*%
G04 APERTURE END LIST*
%TO.C,JP5*%
G36*
X106015018Y-107406426D02*
G01*
X107515018Y-107406426D01*
X107515018Y-107706426D01*
X106015018Y-107706426D01*
X106015018Y-107406426D01*
G37*
%TO.C,JP3*%
G36*
X113395000Y-107414134D02*
G01*
X114895000Y-107414134D01*
X114895000Y-107714134D01*
X113395000Y-107714134D01*
X113395000Y-107414134D01*
G37*
%TO.C,J7*%
G36*
X98035000Y-86870000D02*
G01*
X100125000Y-86870000D01*
X100125000Y-88750000D01*
X98035000Y-88750000D01*
X98035000Y-86870000D01*
G37*
%TO.C,JP4*%
G36*
X109751541Y-107414134D02*
G01*
X111251541Y-107414134D01*
X111251541Y-107714134D01*
X109751541Y-107714134D01*
X109751541Y-107414134D01*
G37*
%TO.C,J11*%
G36*
X92150000Y-86870000D02*
G01*
X94240000Y-86870000D01*
X94240000Y-88750000D01*
X92150000Y-88750000D01*
X92150000Y-86870000D01*
G37*
%TD*%
D10*
%TO.C,U10*%
X67550000Y-62600000D03*
D11*
X65010000Y-62600000D03*
X67550000Y-65140000D03*
X65010000Y-65140000D03*
X67550000Y-67680000D03*
X65010000Y-67680000D03*
X67550000Y-70220000D03*
X65010000Y-70220000D03*
X67550000Y-72760000D03*
X65010000Y-72760000D03*
X67550000Y-75300000D03*
X65010000Y-75300000D03*
X67550000Y-77840000D03*
X65010000Y-77840000D03*
X67550000Y-80380000D03*
X65010000Y-80380000D03*
X67550000Y-82920000D03*
X65010000Y-82920000D03*
X67550000Y-85460000D03*
X65010000Y-85460000D03*
X67550000Y-88000000D03*
X65010000Y-88000000D03*
X67550000Y-90540000D03*
X65010000Y-90540000D03*
X67550000Y-93080000D03*
X65010000Y-93080000D03*
X67550000Y-95620000D03*
X65010000Y-95620000D03*
X67550000Y-98160000D03*
X65010000Y-98160000D03*
X67550000Y-100700000D03*
X65010000Y-100700000D03*
X67550000Y-103240000D03*
X65010000Y-103240000D03*
X67550000Y-105780000D03*
X65010000Y-105780000D03*
X67550000Y-108320000D03*
X65010000Y-108320000D03*
X67550000Y-110860000D03*
X65010000Y-110860000D03*
X67550000Y-113400000D03*
X65010000Y-113400000D03*
X67550000Y-115940000D03*
X65010000Y-115940000D03*
X67550000Y-118480000D03*
X65010000Y-118480000D03*
X67550000Y-121020000D03*
X65010000Y-121020000D03*
X67550000Y-123560000D03*
X65010000Y-123560000D03*
X67550000Y-126100000D03*
X65010000Y-126100000D03*
X67550000Y-128640000D03*
X65010000Y-128640000D03*
X67550000Y-131180000D03*
X65010000Y-131180000D03*
X67550000Y-133720000D03*
X65010000Y-133720000D03*
X67550000Y-136260000D03*
X65010000Y-136260000D03*
X67550000Y-138800000D03*
X65010000Y-138800000D03*
X67550000Y-141340000D03*
X65010000Y-141340000D03*
X67550000Y-143880000D03*
X65010000Y-143880000D03*
X67550000Y-146420000D03*
X65010000Y-146420000D03*
X67550000Y-148960000D03*
X65010000Y-148960000D03*
X67550000Y-151500000D03*
X65010000Y-151500000D03*
%TD*%
D12*
%TO.C,U1*%
X118290000Y-63626000D03*
D13*
X120830000Y-63626000D03*
X118290000Y-66166000D03*
X120830000Y-66166000D03*
X118290000Y-68706000D03*
X120830000Y-68706000D03*
X118290000Y-71246000D03*
X120830000Y-71246000D03*
X118290000Y-73786000D03*
X120830000Y-73786000D03*
X118290000Y-76326000D03*
X120830000Y-76326000D03*
X118290000Y-78866000D03*
X120830000Y-78866000D03*
X118290000Y-81406000D03*
X120830000Y-81406000D03*
X118290000Y-83946000D03*
X120830000Y-83946000D03*
X118290000Y-86486000D03*
X120830000Y-86486000D03*
D12*
X72570000Y-72770000D03*
D13*
X75110000Y-72770000D03*
X72570000Y-75310000D03*
X75110000Y-75310000D03*
X72570000Y-77850000D03*
X75110000Y-77850000D03*
X72570000Y-80390000D03*
X75110000Y-80390000D03*
X72570000Y-82930000D03*
X75110000Y-82930000D03*
X72570000Y-85470000D03*
X75110000Y-85470000D03*
X72570000Y-88010000D03*
X75110000Y-88010000D03*
X72570000Y-90550000D03*
X75110000Y-90550000D03*
D12*
X72570000Y-95630000D03*
D13*
X75110000Y-95630000D03*
X72570000Y-98170000D03*
X75110000Y-98170000D03*
X72570000Y-100710000D03*
X75110000Y-100710000D03*
X72570000Y-103250000D03*
X75110000Y-103250000D03*
X72570000Y-105790000D03*
X75110000Y-105790000D03*
X72570000Y-108330000D03*
X75110000Y-108330000D03*
X72570000Y-110870000D03*
X75110000Y-110870000D03*
X72570000Y-113410000D03*
X75110000Y-113410000D03*
X72570000Y-115950000D03*
X75110000Y-115950000D03*
X72570000Y-118490000D03*
X75110000Y-118490000D03*
X72570000Y-121030000D03*
X75110000Y-121030000D03*
X72570000Y-123570000D03*
X75110000Y-123570000D03*
X72570000Y-126110000D03*
X75110000Y-126110000D03*
X72570000Y-128650000D03*
X75110000Y-128650000D03*
X72570000Y-131190000D03*
X75110000Y-131190000D03*
D12*
X118290000Y-90550000D03*
D13*
X120830000Y-90550000D03*
X118290000Y-93090000D03*
X120830000Y-93090000D03*
X118290000Y-95630000D03*
X120830000Y-95630000D03*
X118290000Y-98170000D03*
X120830000Y-98170000D03*
X118290000Y-100710000D03*
X120830000Y-100710000D03*
X118290000Y-103250000D03*
X120830000Y-103250000D03*
X118290000Y-105790000D03*
X120830000Y-105790000D03*
X118290000Y-108330000D03*
X120830000Y-108330000D03*
X118290000Y-110870000D03*
X120830000Y-110870000D03*
X118290000Y-113410000D03*
X120830000Y-113410000D03*
X118290000Y-115950000D03*
X120830000Y-115950000D03*
X118290000Y-118490000D03*
X120830000Y-118490000D03*
X118290000Y-121030000D03*
X120830000Y-121030000D03*
X118290000Y-123570000D03*
X120830000Y-123570000D03*
X118290000Y-126110000D03*
X120830000Y-126110000D03*
X118290000Y-128650000D03*
X120830000Y-128650000D03*
X118290000Y-131190000D03*
X120830000Y-131190000D03*
%TD*%
D10*
%TO.C,U1*%
X128450000Y-62580000D03*
D11*
X125910000Y-62580000D03*
X128450000Y-65120000D03*
X125910000Y-65120000D03*
X128450000Y-67660000D03*
X125910000Y-67660000D03*
X128450000Y-70200000D03*
X125910000Y-70200000D03*
X128450000Y-72740000D03*
X125910000Y-72740000D03*
X128450000Y-75280000D03*
X125910000Y-75280000D03*
X128450000Y-77820000D03*
X125910000Y-77820000D03*
X128450000Y-80360000D03*
X125910000Y-80360000D03*
X128450000Y-82900000D03*
X125910000Y-82900000D03*
X128450000Y-85440000D03*
X125910000Y-85440000D03*
X128450000Y-87980000D03*
X125910000Y-87980000D03*
X128450000Y-90520000D03*
X125910000Y-90520000D03*
X128450000Y-93060000D03*
X125910000Y-93060000D03*
X128450000Y-95600000D03*
X125910000Y-95600000D03*
X128450000Y-98140000D03*
X125910000Y-98140000D03*
X128450000Y-100680000D03*
X125910000Y-100680000D03*
X128450000Y-103220000D03*
X125910000Y-103220000D03*
X128450000Y-105760000D03*
X125910000Y-105760000D03*
X128450000Y-108300000D03*
X125910000Y-108300000D03*
X128450000Y-110840000D03*
X125910000Y-110840000D03*
X128450000Y-113380000D03*
X125910000Y-113380000D03*
X128450000Y-115920000D03*
X125910000Y-115920000D03*
X128450000Y-118460000D03*
X125910000Y-118460000D03*
X128450000Y-121000000D03*
X125910000Y-121000000D03*
X128450000Y-123540000D03*
X125910000Y-123540000D03*
X128450000Y-126080000D03*
X125910000Y-126080000D03*
X128450000Y-128620000D03*
X125910000Y-128620000D03*
X128450000Y-131160000D03*
X125910000Y-131160000D03*
X128450000Y-133700000D03*
X125910000Y-133700000D03*
X128450000Y-136240000D03*
X125910000Y-136240000D03*
X128450000Y-138780000D03*
X125910000Y-138780000D03*
X128450000Y-141320000D03*
X125910000Y-141320000D03*
X128450000Y-143860000D03*
X125910000Y-143860000D03*
X128450000Y-146400000D03*
X125910000Y-146400000D03*
X128450000Y-148940000D03*
X125910000Y-148940000D03*
X128450000Y-151480000D03*
X125910000Y-151480000D03*
%TD*%
D14*
%TO.C,C16*%
X104860000Y-112010000D03*
X104860000Y-110110000D03*
%TD*%
D15*
%TO.C,U3*%
X109225000Y-70800000D03*
X109225000Y-68500000D03*
D16*
X115525000Y-68500000D03*
D15*
X109225000Y-66200000D03*
%TD*%
D17*
%TO.C,J19*%
X82280000Y-145950000D03*
X79580000Y-147150000D03*
D18*
X77080000Y-153950000D03*
D19*
X72480000Y-150050000D03*
D18*
X72980000Y-142750000D03*
%TD*%
D20*
%TO.C,C12*%
X84605939Y-111566326D03*
X86505939Y-111566326D03*
%TD*%
D21*
%TO.C,U6*%
X115215000Y-97887500D03*
X115215000Y-99157500D03*
X115215000Y-100427500D03*
X115215000Y-101697500D03*
X108040000Y-101697500D03*
X108040000Y-100427500D03*
X108040000Y-99157500D03*
X108040000Y-97887500D03*
%TD*%
D10*
%TO.C,J24*%
X80400000Y-138810000D03*
D11*
X77860000Y-138810000D03*
X75320000Y-138810000D03*
%TD*%
D22*
%TO.C,C14*%
X79830000Y-131280000D03*
X79830000Y-127680000D03*
%TD*%
D23*
%TO.C,TH4*%
X93100000Y-71277000D03*
D24*
X90560000Y-71277000D03*
%TD*%
D25*
%TO.C,U7*%
X105450000Y-66695000D03*
X105450000Y-67965000D03*
X105450000Y-69235000D03*
X105450000Y-70505000D03*
X100500000Y-70505000D03*
X100500000Y-69235000D03*
X100500000Y-67965000D03*
X100500000Y-66695000D03*
%TD*%
D26*
%TO.C,D15*%
X123960000Y-53703745D03*
X125535000Y-53703745D03*
%TD*%
D27*
%TO.C,J1*%
X107320000Y-140940000D03*
X110030000Y-140940000D03*
X107320000Y-141340000D03*
X110030000Y-141340000D03*
X107320000Y-141740000D03*
X110030000Y-141740000D03*
X107320000Y-142140000D03*
X110030000Y-142140000D03*
X107320000Y-142540000D03*
X110030000Y-142540000D03*
X107320000Y-142940000D03*
X110030000Y-142940000D03*
X107320000Y-143340000D03*
X110030000Y-143340000D03*
X107320000Y-143740000D03*
X110030000Y-143740000D03*
X107320000Y-144140000D03*
X110030000Y-144140000D03*
X107320000Y-144540000D03*
X110030000Y-144540000D03*
X107320000Y-144940000D03*
X110030000Y-144940000D03*
X107320000Y-145340000D03*
X110030000Y-145340000D03*
X107320000Y-145740000D03*
X110030000Y-145740000D03*
X107320000Y-146140000D03*
X110030000Y-146140000D03*
X107320000Y-146540000D03*
X110030000Y-146540000D03*
X107320000Y-146940000D03*
X110030000Y-146940000D03*
X107320000Y-147340000D03*
X110030000Y-147340000D03*
X107320000Y-147740000D03*
X110030000Y-147740000D03*
X107320000Y-148140000D03*
X110030000Y-148140000D03*
X107320000Y-148540000D03*
X110030000Y-148540000D03*
X107320000Y-148940000D03*
X110030000Y-148940000D03*
X107320000Y-149340000D03*
X110030000Y-149340000D03*
X107320000Y-149740000D03*
X110030000Y-149740000D03*
X107320000Y-150140000D03*
X110030000Y-150140000D03*
X107320000Y-150540000D03*
X110030000Y-150540000D03*
X107320000Y-150940000D03*
X110030000Y-150940000D03*
X107320000Y-151340000D03*
X110030000Y-151340000D03*
X107320000Y-151740000D03*
X110030000Y-151740000D03*
X107320000Y-152140000D03*
X110030000Y-152140000D03*
X107320000Y-152540000D03*
X110030000Y-152540000D03*
D28*
X107320000Y-140465000D03*
X110030000Y-140465000D03*
X107320000Y-153015000D03*
X110030000Y-153015000D03*
%TD*%
D29*
%TO.C,R92*%
X76000000Y-68339715D03*
X76000000Y-67699715D03*
%TD*%
D10*
%TO.C,J4*%
X121743963Y-143650000D03*
D11*
X121743963Y-141110000D03*
X121743963Y-138570000D03*
X121743963Y-136030000D03*
%TD*%
D30*
%TO.C,R5*%
X87875000Y-60360000D03*
X87875000Y-61000000D03*
%TD*%
D31*
%TO.C,GND1*%
X110175000Y-124700000D03*
%TD*%
D30*
%TO.C,R44*%
X84605939Y-107298673D03*
X84605939Y-107938673D03*
%TD*%
D20*
%TO.C,C1*%
X80250000Y-61250000D03*
X82150000Y-61250000D03*
%TD*%
D32*
%TO.C,D19*%
X87030000Y-153922500D03*
X87030000Y-152347500D03*
%TD*%
D33*
%TO.C,TP7*%
X92900000Y-75027000D03*
%TD*%
D22*
%TO.C,C15*%
X84930000Y-131280000D03*
X84930000Y-127680000D03*
%TD*%
D10*
%TO.C,J2*%
X72825000Y-67525000D03*
D11*
X72825000Y-64985000D03*
X72825000Y-62445000D03*
%TD*%
D14*
%TO.C,C8*%
X105870000Y-97887500D03*
X105870000Y-95987500D03*
%TD*%
D34*
%TO.C,D1*%
X87875000Y-57385000D03*
X87875000Y-58960000D03*
%TD*%
D21*
%TO.C,U4*%
X115215000Y-91120000D03*
X115215000Y-92390000D03*
X115215000Y-93660000D03*
X115215000Y-94930000D03*
X108040000Y-94930000D03*
X108040000Y-93660000D03*
X108040000Y-92390000D03*
X108040000Y-91120000D03*
%TD*%
D34*
%TO.C,D63*%
X76000000Y-64818693D03*
X76000000Y-66393693D03*
%TD*%
D35*
%TO.C,J16*%
X74800000Y-56760000D03*
D36*
X77300000Y-56760000D03*
X79300000Y-56760000D03*
X81800000Y-56760000D03*
D37*
X71730000Y-54050000D03*
X84870000Y-54050000D03*
%TD*%
D26*
%TO.C,D17*%
X123960000Y-55561255D03*
X125535000Y-55561255D03*
%TD*%
D29*
%TO.C,R47*%
X72560000Y-135520000D03*
X72560000Y-134880000D03*
%TD*%
D38*
%TO.C,R14*%
X105550000Y-92390000D03*
X106190000Y-92390000D03*
%TD*%
D26*
%TO.C,D16*%
X123960000Y-57375000D03*
X125535000Y-57375000D03*
%TD*%
D25*
%TO.C,U13*%
X105075000Y-55915000D03*
X105075000Y-57185000D03*
X105075000Y-58455000D03*
X105075000Y-59725000D03*
X100125000Y-59725000D03*
X100125000Y-58455000D03*
X100125000Y-57185000D03*
X100125000Y-55915000D03*
%TD*%
D34*
%TO.C,D5*%
X97675000Y-72307500D03*
X97675000Y-73882500D03*
%TD*%
D39*
%TO.C,J18*%
X80150000Y-85285000D03*
X80150000Y-85785000D03*
X80150000Y-86285000D03*
X80150000Y-86785000D03*
X80150000Y-87285000D03*
X80150000Y-87785000D03*
X80150000Y-88285000D03*
X80150000Y-88785000D03*
X80150000Y-89285000D03*
X80150000Y-89785000D03*
D40*
X83400000Y-83385000D03*
X83400000Y-91685000D03*
%TD*%
D38*
%TO.C,R50*%
X130955000Y-128620000D03*
X131595000Y-128620000D03*
%TD*%
D20*
%TO.C,C13*%
X82705939Y-109403673D03*
X84605939Y-109403673D03*
%TD*%
D38*
%TO.C,R49*%
X130955000Y-126080000D03*
X131595000Y-126080000D03*
%TD*%
D34*
%TO.C,D62*%
X78500000Y-64821989D03*
X78500000Y-66396989D03*
%TD*%
D14*
%TO.C,C3*%
X79650000Y-116723673D03*
X79650000Y-114823673D03*
%TD*%
D20*
%TO.C,C9*%
X109975000Y-63745000D03*
X111875000Y-63745000D03*
%TD*%
D30*
%TO.C,R28*%
X104143160Y-53392903D03*
X104143160Y-54032903D03*
%TD*%
D41*
%TO.C,U9*%
X85600000Y-64075000D03*
X85600000Y-65025000D03*
X85600000Y-65975000D03*
X83325000Y-65975000D03*
X83325000Y-65025000D03*
X83325000Y-64075000D03*
%TD*%
D30*
%TO.C,R4*%
X105450000Y-64450000D03*
X105450000Y-65090000D03*
%TD*%
D10*
%TO.C,J12*%
X94870000Y-80770000D03*
D11*
X97410000Y-80770000D03*
%TD*%
D10*
%TO.C,J23*%
X80400000Y-135200000D03*
D11*
X77860000Y-135200000D03*
X75320000Y-135200000D03*
%TD*%
D42*
%TO.C,R3*%
X103975000Y-63265000D03*
X103975000Y-61865000D03*
X101225000Y-61865000D03*
X101225000Y-63265000D03*
%TD*%
D43*
%TO.C,JP5*%
X106765018Y-108206426D03*
X106765018Y-106906426D03*
%TD*%
D30*
%TO.C,R7*%
X96810000Y-95726849D03*
X96810000Y-96366849D03*
%TD*%
%TO.C,R30*%
X97450000Y-64845000D03*
X97450000Y-65485000D03*
%TD*%
D29*
%TO.C,R8*%
X115995000Y-107604134D03*
X115995000Y-106964134D03*
%TD*%
%TO.C,R18*%
X108565018Y-107571426D03*
X108565018Y-106931426D03*
%TD*%
D20*
%TO.C,C4*%
X108650000Y-81630000D03*
X110550000Y-81630000D03*
%TD*%
D30*
%TO.C,R15*%
X97675000Y-75180000D03*
X97675000Y-75820000D03*
%TD*%
%TO.C,R26*%
X102747076Y-53392903D03*
X102747076Y-54032903D03*
%TD*%
D33*
%TO.C,TP3*%
X115060000Y-78375000D03*
%TD*%
D44*
%TO.C,U5*%
X114250000Y-83787500D03*
X114250000Y-85057500D03*
X114250000Y-86327500D03*
X114250000Y-87597500D03*
X108650000Y-87597500D03*
X108650000Y-86327500D03*
X108650000Y-85057500D03*
X108650000Y-83787500D03*
D45*
X112050000Y-87230000D03*
X112050000Y-86204999D03*
X112050000Y-85180000D03*
X112050000Y-84155000D03*
X110850000Y-87230000D03*
X110850000Y-86204999D03*
X110850000Y-85180000D03*
X110850000Y-84155000D03*
%TD*%
D23*
%TO.C,TH5*%
X109860000Y-75568000D03*
D24*
X112400000Y-75568000D03*
%TD*%
D43*
%TO.C,JP3*%
X114145000Y-108214134D03*
X114145000Y-106914134D03*
%TD*%
D38*
%TO.C,R41*%
X128135000Y-59200000D03*
X128775000Y-59200000D03*
%TD*%
%TO.C,R38*%
X128135000Y-53703745D03*
X128775000Y-53703745D03*
%TD*%
D46*
%TO.C,U2*%
X91220000Y-114833673D03*
X91220000Y-117373673D03*
X91220000Y-119913673D03*
X91220000Y-122453673D03*
X83600000Y-122453673D03*
X83600000Y-119913673D03*
X83600000Y-117373673D03*
X83600000Y-114833673D03*
%TD*%
D38*
%TO.C,R40*%
X128135000Y-55561255D03*
X128775000Y-55561255D03*
%TD*%
%TO.C,R39*%
X128135000Y-57375000D03*
X128775000Y-57375000D03*
%TD*%
D34*
%TO.C,D7*%
X97450000Y-61840000D03*
X97450000Y-63415000D03*
%TD*%
D29*
%TO.C,R17*%
X112350000Y-107604134D03*
X112350000Y-106964134D03*
%TD*%
D47*
%TO.C,J7*%
X100660000Y-87810000D03*
D48*
X99135000Y-89285000D03*
X99135000Y-86335000D03*
%TD*%
D23*
%TO.C,TH2*%
X97910000Y-93630000D03*
D24*
X95370000Y-93630000D03*
%TD*%
D49*
%TO.C,C5*%
X97050000Y-57565000D03*
X97050000Y-59465000D03*
%TD*%
D30*
%TO.C,R45*%
X90000000Y-109463673D03*
X90000000Y-110103673D03*
%TD*%
D38*
%TO.C,R6*%
X106480000Y-85047500D03*
X107120000Y-85047500D03*
%TD*%
D14*
%TO.C,C6*%
X105870000Y-91120000D03*
X105870000Y-89220000D03*
%TD*%
D22*
%TO.C,C2*%
X79650000Y-122763673D03*
X79650000Y-119163673D03*
%TD*%
D43*
%TO.C,JP4*%
X110501541Y-108214134D03*
X110501541Y-106914134D03*
%TD*%
D29*
%TO.C,R48*%
X72560000Y-139130000D03*
X72560000Y-138490000D03*
%TD*%
D50*
%TO.C,C11*%
X90000000Y-108013673D03*
X88100000Y-108013673D03*
%TD*%
D20*
%TO.C,C10*%
X88100000Y-111566326D03*
X90000000Y-111566326D03*
%TD*%
D10*
%TO.C,J17*%
X89560000Y-54075000D03*
D11*
X92100000Y-54075000D03*
X94640000Y-54075000D03*
%TD*%
D31*
%TO.C,5v1*%
X110175000Y-121550000D03*
%TD*%
D42*
%TO.C,R16*%
X104350000Y-74500000D03*
X104350000Y-73100000D03*
X101600000Y-73100000D03*
X101600000Y-74500000D03*
%TD*%
D51*
%TO.C,U8*%
X114520000Y-110915000D03*
X114520000Y-112185000D03*
X114520000Y-113455000D03*
X114520000Y-114725000D03*
X107240000Y-114725000D03*
X107240000Y-113455000D03*
X107240000Y-112185000D03*
X107240000Y-110915000D03*
%TD*%
D39*
%TO.C,J14*%
X80150000Y-96500000D03*
X80150000Y-97000000D03*
X80150000Y-97500000D03*
X80150000Y-98000000D03*
X80150000Y-98500000D03*
X80150000Y-99000000D03*
X80150000Y-99500000D03*
X80150000Y-100000000D03*
X80150000Y-100500000D03*
X80150000Y-101000000D03*
D40*
X83400000Y-94600000D03*
X83400000Y-102900000D03*
%TD*%
D52*
%TO.C,J11*%
X91615000Y-87810000D03*
D53*
X93140000Y-86335000D03*
X93140000Y-89285000D03*
%TD*%
D30*
%TO.C,R53*%
X90600000Y-74362000D03*
X90600000Y-75002000D03*
%TD*%
D27*
%TO.C,J3*%
X93360000Y-140940000D03*
X96070000Y-140940000D03*
X93360000Y-141340000D03*
X96070000Y-141340000D03*
X93360000Y-141740000D03*
X96070000Y-141740000D03*
X93360000Y-142140000D03*
X96070000Y-142140000D03*
X93360000Y-142540000D03*
X96070000Y-142540000D03*
X93360000Y-142940000D03*
X96070000Y-142940000D03*
X93360000Y-143340000D03*
X96070000Y-143340000D03*
X93360000Y-143740000D03*
X96070000Y-143740000D03*
X93360000Y-144140000D03*
X96070000Y-144140000D03*
X93360000Y-144540000D03*
X96070000Y-144540000D03*
X93360000Y-144940000D03*
X96070000Y-144940000D03*
X93360000Y-145340000D03*
X96070000Y-145340000D03*
X93360000Y-145740000D03*
X96070000Y-145740000D03*
X93360000Y-146140000D03*
X96070000Y-146140000D03*
X93360000Y-146540000D03*
X96070000Y-146540000D03*
X93360000Y-146940000D03*
X96070000Y-146940000D03*
X93360000Y-147340000D03*
X96070000Y-147340000D03*
X93360000Y-147740000D03*
X96070000Y-147740000D03*
X93360000Y-148140000D03*
X96070000Y-148140000D03*
X93360000Y-148540000D03*
X96070000Y-148540000D03*
X93360000Y-148940000D03*
X96070000Y-148940000D03*
X93360000Y-149340000D03*
X96070000Y-149340000D03*
X93360000Y-149740000D03*
X96070000Y-149740000D03*
X93360000Y-150140000D03*
X96070000Y-150140000D03*
X93360000Y-150540000D03*
X96070000Y-150540000D03*
X93360000Y-150940000D03*
X96070000Y-150940000D03*
X93360000Y-151340000D03*
X96070000Y-151340000D03*
X93360000Y-151740000D03*
X96070000Y-151740000D03*
X93360000Y-152140000D03*
X96070000Y-152140000D03*
X93360000Y-152540000D03*
X96070000Y-152540000D03*
D28*
X93360000Y-140465000D03*
X96070000Y-140465000D03*
X93360000Y-153015000D03*
X96070000Y-153015000D03*
%TD*%
D14*
%TO.C,C17*%
X121753963Y-148520000D03*
X121753963Y-146620000D03*
%TD*%
D49*
%TO.C,C7*%
X97725000Y-68395000D03*
X97725000Y-70295000D03*
%TD*%
D29*
%TO.C,R91*%
X78500000Y-68343011D03*
X78500000Y-67703011D03*
%TD*%
D30*
%TO.C,R43*%
X86510000Y-107338673D03*
X86510000Y-107978673D03*
%TD*%
D26*
%TO.C,D18*%
X123960000Y-59200000D03*
X125535000Y-59200000D03*
%TD*%
D33*
%TO.C,TP5*%
X96810000Y-98496849D03*
%TD*%
D38*
%TO.C,R9*%
X114417857Y-75568000D03*
X115057857Y-75568000D03*
%TD*%
D10*
%TO.C,J30*%
X79900000Y-70860000D03*
D11*
X79900000Y-73400000D03*
X79900000Y-75940000D03*
%TD*%
D30*
%TO.C,R46*%
X86505939Y-109463673D03*
X86505939Y-110103673D03*
%TD*%
D31*
%TO.C,3v3*%
X110175000Y-127650000D03*
%TD*%
D29*
%TO.C,R42*%
X87030000Y-150792500D03*
X87030000Y-150152500D03*
%TD*%
M02*
