M48
; DRILL file KiCad 10.0.3+dfsg-1 date 2026-07-11T14:12:40
; FORMAT={-:-/ absolute / metric / decimal}
; #@! TF.CreationDate,2026-07-11T14:12:40-07:00
; #@! TF.GenerationSoftware,Kicad,Pcbnew,10.0.3+dfsg-1
; #@! TF.FileFunction,Plated,1,4,PTH
FMAT,2
METRIC
; #@! TA.AperFunction,Plated,PTH,ViaDrill
T1C0.200
; #@! TA.AperFunction,Plated,PTH,ComponentDrill
T2C0.750
; #@! TA.AperFunction,Plated,PTH,ComponentDrill
T3C0.950
; #@! TA.AperFunction,Plated,PTH,ComponentDrill
T4C1.000
; #@! TA.AperFunction,Plated,PTH,ComponentDrill
T5C1.020
; #@! TA.AperFunction,Plated,PTH,ComponentDrill
T6C1.300
; #@! TA.AperFunction,Plated,PTH,ComponentDrill
T7C2.300
%
G90
G05
T1
X62.3Y-108.45
X66.09Y-137.72
X66.32Y-140.19
X70.0Y-98.1
X70.0Y-101.35
X70.2Y-96.0
X70.29Y-92.76
X70.32Y-81.42
X70.33Y-79.39
X70.64Y-90.48
X70.7Y-118.88
X70.71Y-114.71
X70.9Y-111.3
X70.92Y-88.38
X71.17Y-116.54
X73.85Y-93.1
X75.09Y-150.49
X76.0Y-69.35
X76.3Y-116.67
X76.65Y-102.6
X76.74Y-151.17
X76.9Y-96.4
X77.23Y-108.36
X77.23Y-110.89
X77.87Y-116.43
X77.9Y-123.55
X78.2Y-104.21
X78.24Y-86.285
X78.24Y-88.78
X78.4Y-91.75
X78.52Y-87.29
X78.95Y-102.45
X79.25Y-81.2
X81.52Y-114.824
X81.59Y-111.06
X82.05Y-65.02
X82.29Y-149.38
X82.4Y-81.2
X82.55Y-62.6
X82.67Y-136.29
X84.4Y-64.85
X84.5Y-58.35
X84.606Y-106.19
X85.51Y-113.604
X86.3Y-133.56
X86.3Y-133.56
X86.55Y-65.05
X87.28Y-99.55
X87.33Y-112.864
X88.31Y-150.15
X89.35Y-143.13
X89.7Y-105.25
X89.7Y-134.5
X90.76Y-149.45
X91.304Y-141.74
X91.45Y-112.43
X91.85Y-142.14
X92.18Y-141.34
X92.22Y-144.14
X92.23Y-104.13
X94.18Y-143.48
X94.77Y-145.74
X94.85Y-143.1
X94.85Y-150.15
X95.118Y-146.141
X95.2Y-147.5
X95.25Y-145.34
X95.3Y-144.54
X95.35Y-143.74
X99.36Y-106.93
X99.45Y-103.4
X99.65Y-60.8
X99.65Y-72.25
X101.45Y-75.95
X101.7Y-119.0
X101.75Y-64.6
X102.45Y-113.2
X102.65Y-91.05
X102.65Y-96.4
X102.95Y-102.3
X103.95Y-70.3
X103.95Y-109.0
X104.0Y-68.4
X104.6Y-84.35
X104.75Y-151.34
X104.8Y-150.14
X104.85Y-76.15
X105.39Y-151.74
X105.57Y-150.54
X105.65Y-61.35
X105.95Y-152.14
X106.13Y-150.94
X106.55Y-60.25
X107.4Y-69.175
X107.425Y-58.525
X107.59Y-105.12
X108.115Y-145.095
X108.18Y-148.14
X108.18Y-149.34
X108.405Y-109.545
X108.78Y-146.64
X108.9Y-148.02
X108.92Y-148.68
X109.25Y-72.6
X109.31Y-91.86
X109.39Y-94.09
X110.175Y-119.525
X110.5Y-93.3
X110.9Y-98.45
X111.05Y-68.55
X111.06Y-144.14
X111.125Y-126.25
X111.29Y-146.54
X111.48Y-150.57
X111.64Y-144.54
X111.65Y-89.2
X111.77Y-146.85
X112.35Y-109.45
X112.705Y-115.195
X112.9Y-113.455
X113.55Y-119.74
X113.8Y-68.55
X113.86Y-97.89
X114.5Y-118.7
X114.98Y-122.62
X115.08Y-127.0
X115.95Y-86.9
X116.21Y-125.93
X116.3Y-114.75
X116.507Y-99.157
X116.89Y-140.16
X117.01Y-111.95
X118.05Y-146.43
X119.15Y-146.41
X119.4Y-88.75
X121.81Y-99.44
X122.1Y-87.9
X122.385Y-95.015
X122.425Y-107.1
X122.5Y-103.1
X122.52Y-124.33
X122.6Y-128.8
X122.85Y-108.86
X123.05Y-105.55
X123.13Y-110.91
X123.24Y-134.77
X123.68Y-141.87
X123.71Y-143.74
X123.85Y-100.2
X124.0Y-84.2
X124.65Y-132.79
X127.2Y-111.53
X129.722Y-53.925
X129.95Y-59.25
X130.65Y-57.55
X130.812Y-127.262
T2
X90.56Y-71.277
X93.1Y-71.277
X95.37Y-93.63
X97.91Y-93.63
X109.86Y-75.568
X112.4Y-75.568
T3
X74.8Y-56.76
X77.3Y-56.76
X79.3Y-56.76
X81.8Y-56.76
T4
X65.01Y-62.6
X65.01Y-65.14
X65.01Y-67.68
X65.01Y-70.22
X65.01Y-72.76
X65.01Y-75.3
X65.01Y-77.84
X65.01Y-80.38
X65.01Y-82.92
X65.01Y-85.46
X65.01Y-88.0
X65.01Y-90.54
X65.01Y-93.08
X65.01Y-95.62
X65.01Y-98.16
X65.01Y-100.7
X65.01Y-103.24
X65.01Y-105.78
X65.01Y-108.32
X65.01Y-110.86
X65.01Y-113.4
X65.01Y-115.94
X65.01Y-118.48
X65.01Y-121.02
X65.01Y-123.56
X65.01Y-126.1
X65.01Y-128.64
X65.01Y-131.18
X65.01Y-133.72
X65.01Y-136.26
X65.01Y-138.8
X65.01Y-141.34
X65.01Y-143.88
X65.01Y-146.42
X65.01Y-148.96
X65.01Y-151.5
X67.55Y-62.6
X67.55Y-65.14
X67.55Y-67.68
X67.55Y-70.22
X67.55Y-72.76
X67.55Y-75.3
X67.55Y-77.84
X67.55Y-80.38
X67.55Y-82.92
X67.55Y-85.46
X67.55Y-88.0
X67.55Y-90.54
X67.55Y-93.08
X67.55Y-95.62
X67.55Y-98.16
X67.55Y-100.7
X67.55Y-103.24
X67.55Y-105.78
X67.55Y-108.32
X67.55Y-110.86
X67.55Y-113.4
X67.55Y-115.94
X67.55Y-118.48
X67.55Y-121.02
X67.55Y-123.56
X67.55Y-126.1
X67.55Y-128.64
X67.55Y-131.18
X67.55Y-133.72
X67.55Y-136.26
X67.55Y-138.8
X67.55Y-141.34
X67.55Y-143.88
X67.55Y-146.42
X67.55Y-148.96
X67.55Y-151.5
X72.825Y-62.445
X72.825Y-64.985
X72.825Y-67.525
X75.32Y-135.2
X75.32Y-138.81
X77.86Y-135.2
X77.86Y-138.81
X79.9Y-70.86
X79.9Y-73.4
X79.9Y-75.94
X80.4Y-135.2
X80.4Y-138.81
X89.56Y-54.075
X92.1Y-54.075
X94.64Y-54.075
X94.87Y-80.77
X97.41Y-80.77
X121.744Y-136.03
X121.744Y-138.57
X121.744Y-141.11
X121.744Y-143.65
X125.91Y-62.58
X125.91Y-65.12
X125.91Y-67.66
X125.91Y-70.2
X125.91Y-72.74
X125.91Y-75.28
X125.91Y-77.82
X125.91Y-80.36
X125.91Y-82.9
X125.91Y-85.44
X125.91Y-87.98
X125.91Y-90.52
X125.91Y-93.06
X125.91Y-95.6
X125.91Y-98.14
X125.91Y-100.68
X125.91Y-103.22
X125.91Y-105.76
X125.91Y-108.3
X125.91Y-110.84
X125.91Y-113.38
X125.91Y-115.92
X125.91Y-118.46
X125.91Y-121.0
X125.91Y-123.54
X125.91Y-126.08
X125.91Y-128.62
X125.91Y-131.16
X125.91Y-133.7
X125.91Y-136.24
X125.91Y-138.78
X125.91Y-141.32
X125.91Y-143.86
X125.91Y-146.4
X125.91Y-148.94
X125.91Y-151.48
X128.45Y-62.58
X128.45Y-65.12
X128.45Y-67.66
X128.45Y-70.2
X128.45Y-72.74
X128.45Y-75.28
X128.45Y-77.82
X128.45Y-80.36
X128.45Y-82.9
X128.45Y-85.44
X128.45Y-87.98
X128.45Y-90.52
X128.45Y-93.06
X128.45Y-95.6
X128.45Y-98.14
X128.45Y-100.68
X128.45Y-103.22
X128.45Y-105.76
X128.45Y-108.3
X128.45Y-110.84
X128.45Y-113.38
X128.45Y-115.92
X128.45Y-118.46
X128.45Y-121.0
X128.45Y-123.54
X128.45Y-126.08
X128.45Y-128.62
X128.45Y-131.16
X128.45Y-133.7
X128.45Y-136.24
X128.45Y-138.78
X128.45Y-141.32
X128.45Y-143.86
X128.45Y-146.4
X128.45Y-148.94
X128.45Y-151.48
T5
X72.57Y-72.77
X72.57Y-75.31
X72.57Y-77.85
X72.57Y-80.39
X72.57Y-82.93
X72.57Y-85.47
X72.57Y-88.01
X72.57Y-90.55
X72.57Y-95.63
X72.57Y-98.17
X72.57Y-100.71
X72.57Y-103.25
X72.57Y-105.79
X72.57Y-108.33
X72.57Y-110.87
X72.57Y-113.41
X72.57Y-115.95
X72.57Y-118.49
X72.57Y-121.03
X72.57Y-123.57
X72.57Y-126.11
X72.57Y-128.65
X72.57Y-131.19
X75.11Y-72.77
X75.11Y-75.31
X75.11Y-77.85
X75.11Y-80.39
X75.11Y-82.93
X75.11Y-85.47
X75.11Y-88.01
X75.11Y-90.55
X75.11Y-95.63
X75.11Y-98.17
X75.11Y-100.71
X75.11Y-103.25
X75.11Y-105.79
X75.11Y-108.33
X75.11Y-110.87
X75.11Y-113.41
X75.11Y-115.95
X75.11Y-118.49
X75.11Y-121.03
X75.11Y-123.57
X75.11Y-126.11
X75.11Y-128.65
X75.11Y-131.19
X118.29Y-63.626
X118.29Y-66.166
X118.29Y-68.706
X118.29Y-71.246
X118.29Y-73.786
X118.29Y-76.326
X118.29Y-78.866
X118.29Y-81.406
X118.29Y-83.946
X118.29Y-86.486
X118.29Y-90.55
X118.29Y-93.09
X118.29Y-95.63
X118.29Y-98.17
X118.29Y-100.71
X118.29Y-103.25
X118.29Y-105.79
X118.29Y-108.33
X118.29Y-110.87
X118.29Y-113.41
X118.29Y-115.95
X118.29Y-118.49
X118.29Y-121.03
X118.29Y-123.57
X118.29Y-126.11
X118.29Y-128.65
X118.29Y-131.19
X120.83Y-63.626
X120.83Y-66.166
X120.83Y-68.706
X120.83Y-71.246
X120.83Y-73.786
X120.83Y-76.326
X120.83Y-78.866
X120.83Y-81.406
X120.83Y-83.946
X120.83Y-86.486
X120.83Y-90.55
X120.83Y-93.09
X120.83Y-95.63
X120.83Y-98.17
X120.83Y-100.71
X120.83Y-103.25
X120.83Y-105.79
X120.83Y-108.33
X120.83Y-110.87
X120.83Y-113.41
X120.83Y-115.95
X120.83Y-118.49
X120.83Y-121.03
X120.83Y-123.57
X120.83Y-126.11
X120.83Y-128.65
X120.83Y-131.19
T6
X72.48Y-150.05
X72.98Y-142.75
X77.08Y-153.95
X79.58Y-147.15
X82.28Y-145.95
T7
X71.73Y-54.05
X84.87Y-54.05
M30
